ISO-10303-21;
HEADER;
FILE_DESCRIPTION(('FreeCAD Model'),'2;1');
FILE_NAME('Open CASCADE Shape Model','2026-08-09T00:47:57',('FreeCAD'),(
    'FreeCAD'),'Open CASCADE STEP processor 7.8','FreeCAD','Unknown');
FILE_SCHEMA(('AUTOMOTIVE_DESIGN { 1 0 10303 214 1 1 1 1 }'));
ENDSEC;
DATA;
#1 = APPLICATION_PROTOCOL_DEFINITION('international standard',
  'automotive_design',2000,#2);
#2 = APPLICATION_CONTEXT(
  'core data for automotive mechanical design processes');
#3 = SHAPE_DEFINITION_REPRESENTATION(#4,#10);
#4 = PRODUCT_DEFINITION_SHAPE('','',#5);
#5 = PRODUCT_DEFINITION('design','',#6,#9);
#6 = PRODUCT_DEFINITION_FORMATION('','',#7);
#7 = PRODUCT('Open CASCADE STEP translator 7.8 18',
  'Open CASCADE STEP translator 7.8 18','',(#8));
#8 = PRODUCT_CONTEXT('',#2,'mechanical');
#9 = PRODUCT_DEFINITION_CONTEXT('part definition',#2,'design');
#10 = ADVANCED_BREP_SHAPE_REPRESENTATION('',(#11,#15),#685);
#11 = AXIS2_PLACEMENT_3D('',#12,#13,#14);
#12 = CARTESIAN_POINT('',(0.,0.,0.));
#13 = DIRECTION('',(0.,0.,1.));
#14 = DIRECTION('',(1.,0.,-0.));
#15 = MANIFOLD_SOLID_BREP('',#16);
#16 = CLOSED_SHELL('',(#17,#59,#90,#138,#169,#217,#241,#274,#307,#331,
    #394,#411,#458,#469,#487,#511,#522,#533,#565,#597,#615,#633,#661,
    #673));
#17 = ADVANCED_FACE('',(#18),#54,.T.);
#18 = FACE_BOUND('',#19,.T.);
#19 = EDGE_LOOP('',(#20,#30,#39,#47));
#20 = ORIENTED_EDGE('',*,*,#21,.T.);
#21 = EDGE_CURVE('',#22,#24,#26,.T.);
#22 = VERTEX_POINT('',#23);
#23 = CARTESIAN_POINT('',(176.,17.5,31.5));
#24 = VERTEX_POINT('',#25);
#25 = CARTESIAN_POINT('',(126.,17.5,31.5));
#26 = LINE('',#27,#28);
#27 = CARTESIAN_POINT('',(176.,17.5,31.5));
#28 = VECTOR('',#29,1.);
#29 = DIRECTION('',(-1.,1.110223024625E-16,0.));
#30 = ORIENTED_EDGE('',*,*,#31,.F.);
#31 = EDGE_CURVE('',#32,#24,#34,.T.);
#32 = VERTEX_POINT('',#33);
#33 = CARTESIAN_POINT('',(126.,21.901622718053,4.209939148073));
#34 = CIRCLE('',#35,14.);
#35 = AXIS2_PLACEMENT_3D('',#36,#37,#38);
#36 = CARTESIAN_POINT('',(126.,17.5,17.5));
#37 = DIRECTION('',(-1.,1.110223024625E-16,0.));
#38 = DIRECTION('',(0.,0.,1.));
#39 = ORIENTED_EDGE('',*,*,#40,.F.);
#40 = EDGE_CURVE('',#41,#32,#43,.T.);
#41 = VERTEX_POINT('',#42);
#42 = CARTESIAN_POINT('',(176.,21.901622718053,4.209939148073));
#43 = LINE('',#44,#45);
#44 = CARTESIAN_POINT('',(176.,21.901622718053,4.209939148073));
#45 = VECTOR('',#46,1.);
#46 = DIRECTION('',(-1.,1.110223024625E-16,0.));
#47 = ORIENTED_EDGE('',*,*,#48,.T.);
#48 = EDGE_CURVE('',#41,#22,#49,.T.);
#49 = CIRCLE('',#50,14.);
#50 = AXIS2_PLACEMENT_3D('',#51,#52,#53);
#51 = CARTESIAN_POINT('',(176.,17.5,17.5));
#52 = DIRECTION('',(-1.,1.110223024625E-16,0.));
#53 = DIRECTION('',(0.,0.,1.));
#54 = CYLINDRICAL_SURFACE('',#55,14.);
#55 = AXIS2_PLACEMENT_3D('',#56,#57,#58);
#56 = CARTESIAN_POINT('',(176.,17.5,17.5));
#57 = DIRECTION('',(-1.,1.110223024625E-16,0.));
#58 = DIRECTION('',(0.,0.,1.));
#59 = ADVANCED_FACE('',(#60),#85,.F.);
#60 = FACE_BOUND('',#61,.F.);
#61 = EDGE_LOOP('',(#62,#63,#71,#79));
#62 = ORIENTED_EDGE('',*,*,#21,.T.);
#63 = ORIENTED_EDGE('',*,*,#64,.T.);
#64 = EDGE_CURVE('',#24,#65,#67,.T.);
#65 = VERTEX_POINT('',#66);
#66 = CARTESIAN_POINT('',(126.,64.,31.5));
#67 = LINE('',#68,#69);
#68 = CARTESIAN_POINT('',(126.,17.5,31.5));
#69 = VECTOR('',#70,1.);
#70 = DIRECTION('',(1.110223024625E-16,1.,0.));
#71 = ORIENTED_EDGE('',*,*,#72,.F.);
#72 = EDGE_CURVE('',#73,#65,#75,.T.);
#73 = VERTEX_POINT('',#74);
#74 = CARTESIAN_POINT('',(176.,64.,31.5));
#75 = LINE('',#76,#77);
#76 = CARTESIAN_POINT('',(176.,64.,31.5));
#77 = VECTOR('',#78,1.);
#78 = DIRECTION('',(-1.,1.110223024625E-16,0.));
#79 = ORIENTED_EDGE('',*,*,#80,.F.);
#80 = EDGE_CURVE('',#22,#73,#81,.T.);
#81 = LINE('',#82,#83);
#82 = CARTESIAN_POINT('',(176.,17.5,31.5));
#83 = VECTOR('',#84,1.);
#84 = DIRECTION('',(1.110223024625E-16,1.,0.));
#85 = PLANE('',#86);
#86 = AXIS2_PLACEMENT_3D('',#87,#88,#89);
#87 = CARTESIAN_POINT('',(176.,17.5,31.5));
#88 = DIRECTION('',(0.,0.,-1.));
#89 = DIRECTION('',(1.110223024625E-16,1.,0.));
#90 = ADVANCED_FACE('',(#91),#133,.F.);
#91 = FACE_BOUND('',#92,.F.);
#92 = EDGE_LOOP('',(#93,#101,#102,#110,#118,#127));
#93 = ORIENTED_EDGE('',*,*,#94,.F.);
#94 = EDGE_CURVE('',#41,#95,#97,.T.);
#95 = VERTEX_POINT('',#96);
#96 = CARTESIAN_POINT('',(176.,21.659687234182,5.709939148073));
#97 = LINE('',#98,#99);
#98 = CARTESIAN_POINT('',(176.,21.901622718053,4.209939148073));
#99 = VECTOR('',#100,1.);
#100 = DIRECTION('',(-1.767835198503E-17,-0.159232438825,0.987241120713)
  );
#101 = ORIENTED_EDGE('',*,*,#48,.T.);
#102 = ORIENTED_EDGE('',*,*,#103,.F.);
#103 = EDGE_CURVE('',#104,#22,#106,.T.);
#104 = VERTEX_POINT('',#105);
#105 = CARTESIAN_POINT('',(176.,17.741935483871,30.));
#106 = LINE('',#107,#108);
#107 = CARTESIAN_POINT('',(176.,21.901622718053,4.209939148073));
#108 = VECTOR('',#109,1.);
#109 = DIRECTION('',(-1.767835198503E-17,-0.159232438825,0.987241120713)
  );
#110 = ORIENTED_EDGE('',*,*,#111,.F.);
#111 = EDGE_CURVE('',#112,#104,#114,.T.);
#112 = VERTEX_POINT('',#113);
#113 = CARTESIAN_POINT('',(176.,17.5,30.));
#114 = LINE('',#115,#116);
#115 = CARTESIAN_POINT('',(176.,17.5,30.));
#116 = VECTOR('',#117,1.);
#117 = DIRECTION('',(1.110223024625E-16,1.,0.));
#118 = ORIENTED_EDGE('',*,*,#119,.F.);
#119 = EDGE_CURVE('',#120,#112,#122,.T.);
#120 = VERTEX_POINT('',#121);
#121 = CARTESIAN_POINT('',(176.,21.430020283976,5.633874239351));
#122 = CIRCLE('',#123,12.5);
#123 = AXIS2_PLACEMENT_3D('',#124,#125,#126);
#124 = CARTESIAN_POINT('',(176.,17.5,17.5));
#125 = DIRECTION('',(-1.,1.110223024625E-16,0.));
#126 = DIRECTION('',(0.,0.,1.));
#127 = ORIENTED_EDGE('',*,*,#128,.F.);
#128 = EDGE_CURVE('',#95,#120,#129,.T.);
#129 = LINE('',#130,#131);
#130 = CARTESIAN_POINT('',(176.,65.57200811359,20.25354969574));
#131 = VECTOR('',#132,1.);
#132 = DIRECTION('',(-1.053923682606E-16,-0.949290060852,-0.314401622718
    ));
#133 = PLANE('',#134);
#134 = AXIS2_PLACEMENT_3D('',#135,#136,#137);
#135 = CARTESIAN_POINT('',(176.,17.5,17.5));
#136 = DIRECTION('',(-1.,1.110223024625E-16,0.));
#137 = DIRECTION('',(0.,0.,1.));
#138 = ADVANCED_FACE('',(#139),#164,.F.);
#139 = FACE_BOUND('',#140,.F.);
#140 = EDGE_LOOP('',(#141,#151,#157,#158));
#141 = ORIENTED_EDGE('',*,*,#142,.T.);
#142 = EDGE_CURVE('',#143,#145,#147,.T.);
#143 = VERTEX_POINT('',#144);
#144 = CARTESIAN_POINT('',(176.,66.043610547667,18.829614604462));
#145 = VERTEX_POINT('',#146);
#146 = CARTESIAN_POINT('',(126.,66.043610547667,18.829614604462));
#147 = LINE('',#148,#149);
#148 = CARTESIAN_POINT('',(176.,66.043610547667,18.829614604462));
#149 = VECTOR('',#150,1.);
#150 = DIRECTION('',(-1.,1.110223024625E-16,0.));
#151 = ORIENTED_EDGE('',*,*,#152,.T.);
#152 = EDGE_CURVE('',#145,#32,#153,.T.);
#153 = LINE('',#154,#155);
#154 = CARTESIAN_POINT('',(126.,66.043610547667,18.829614604462));
#155 = VECTOR('',#156,1.);
#156 = DIRECTION('',(-1.053923682606E-16,-0.949290060852,-0.314401622718
    ));
#157 = ORIENTED_EDGE('',*,*,#40,.F.);
#158 = ORIENTED_EDGE('',*,*,#159,.F.);
#159 = EDGE_CURVE('',#143,#41,#160,.T.);
#160 = LINE('',#161,#162);
#161 = CARTESIAN_POINT('',(176.,66.043610547667,18.829614604462));
#162 = VECTOR('',#163,1.);
#163 = DIRECTION('',(-1.053923682606E-16,-0.949290060852,-0.314401622718
    ));
#164 = PLANE('',#165);
#165 = AXIS2_PLACEMENT_3D('',#166,#167,#168);
#166 = CARTESIAN_POINT('',(176.,66.043610547667,18.829614604462));
#167 = DIRECTION('',(-3.490559205211E-17,-0.314401622718,0.949290060852)
  );
#168 = DIRECTION('',(-1.053923682606E-16,-0.949290060852,-0.314401622718
    ));
#169 = ADVANCED_FACE('',(#170),#212,.T.);
#170 = FACE_BOUND('',#171,.T.);
#171 = EDGE_LOOP('',(#172,#180,#181,#189,#197,#206));
#172 = ORIENTED_EDGE('',*,*,#173,.F.);
#173 = EDGE_CURVE('',#32,#174,#176,.T.);
#174 = VERTEX_POINT('',#175);
#175 = CARTESIAN_POINT('',(126.,21.659687234182,5.709939148073));
#176 = LINE('',#177,#178);
#177 = CARTESIAN_POINT('',(126.,21.901622718053,4.209939148073));
#178 = VECTOR('',#179,1.);
#179 = DIRECTION('',(-1.767835198503E-17,-0.159232438825,0.987241120713)
  );
#180 = ORIENTED_EDGE('',*,*,#31,.T.);
#181 = ORIENTED_EDGE('',*,*,#182,.F.);
#182 = EDGE_CURVE('',#183,#24,#185,.T.);
#183 = VERTEX_POINT('',#184);
#184 = CARTESIAN_POINT('',(126.,17.741935483871,30.));
#185 = LINE('',#186,#187);
#186 = CARTESIAN_POINT('',(126.,21.901622718053,4.209939148073));
#187 = VECTOR('',#188,1.);
#188 = DIRECTION('',(-1.767835198503E-17,-0.159232438825,0.987241120713)
  );
#189 = ORIENTED_EDGE('',*,*,#190,.F.);
#190 = EDGE_CURVE('',#191,#183,#193,.T.);
#191 = VERTEX_POINT('',#192);
#192 = CARTESIAN_POINT('',(126.,17.5,30.));
#193 = LINE('',#194,#195);
#194 = CARTESIAN_POINT('',(126.,17.5,30.));
#195 = VECTOR('',#196,1.);
#196 = DIRECTION('',(1.110223024625E-16,1.,0.));
#197 = ORIENTED_EDGE('',*,*,#198,.F.);
#198 = EDGE_CURVE('',#199,#191,#201,.T.);
#199 = VERTEX_POINT('',#200);
#200 = CARTESIAN_POINT('',(126.,21.430020283976,5.633874239351));
#201 = CIRCLE('',#202,12.5);
#202 = AXIS2_PLACEMENT_3D('',#203,#204,#205);
#203 = CARTESIAN_POINT('',(126.,17.5,17.5));
#204 = DIRECTION('',(-1.,1.110223024625E-16,0.));
#205 = DIRECTION('',(0.,0.,1.));
#206 = ORIENTED_EDGE('',*,*,#207,.F.);
#207 = EDGE_CURVE('',#174,#199,#208,.T.);
#208 = LINE('',#209,#210);
#209 = CARTESIAN_POINT('',(126.,65.57200811359,20.25354969574));
#210 = VECTOR('',#211,1.);
#211 = DIRECTION('',(-1.053923682606E-16,-0.949290060852,-0.314401622718
    ));
#212 = PLANE('',#213);
#213 = AXIS2_PLACEMENT_3D('',#214,#215,#216);
#214 = CARTESIAN_POINT('',(126.,17.5,17.5));
#215 = DIRECTION('',(-1.,1.110223024625E-16,0.));
#216 = DIRECTION('',(0.,0.,1.));
#217 = ADVANCED_FACE('',(#218),#236,.T.);
#218 = FACE_BOUND('',#219,.T.);
#219 = EDGE_LOOP('',(#220,#227,#228,#235));
#220 = ORIENTED_EDGE('',*,*,#221,.F.);
#221 = EDGE_CURVE('',#65,#145,#222,.T.);
#222 = CIRCLE('',#223,6.5);
#223 = AXIS2_PLACEMENT_3D('',#224,#225,#226);
#224 = CARTESIAN_POINT('',(126.,64.,25.));
#225 = DIRECTION('',(-1.,1.110223024625E-16,0.));
#226 = DIRECTION('',(0.,0.,1.));
#227 = ORIENTED_EDGE('',*,*,#72,.F.);
#228 = ORIENTED_EDGE('',*,*,#229,.T.);
#229 = EDGE_CURVE('',#73,#143,#230,.T.);
#230 = CIRCLE('',#231,6.5);
#231 = AXIS2_PLACEMENT_3D('',#232,#233,#234);
#232 = CARTESIAN_POINT('',(176.,64.,25.));
#233 = DIRECTION('',(-1.,1.110223024625E-16,0.));
#234 = DIRECTION('',(0.,0.,1.));
#235 = ORIENTED_EDGE('',*,*,#142,.T.);
#236 = CYLINDRICAL_SURFACE('',#237,6.5);
#237 = AXIS2_PLACEMENT_3D('',#238,#239,#240);
#238 = CARTESIAN_POINT('',(176.,64.,25.));
#239 = DIRECTION('',(-1.,1.110223024625E-16,0.));
#240 = DIRECTION('',(0.,0.,1.));
#241 = ADVANCED_FACE('',(#242),#269,.F.);
#242 = FACE_BOUND('',#243,.F.);
#243 = EDGE_LOOP('',(#244,#253,#254,#263));
#244 = ORIENTED_EDGE('',*,*,#245,.F.);
#245 = EDGE_CURVE('',#22,#246,#248,.T.);
#246 = VERTEX_POINT('',#247);
#247 = CARTESIAN_POINT('',(176.,23.804760106459,30.));
#248 = CIRCLE('',#249,14.);
#249 = AXIS2_PLACEMENT_3D('',#250,#251,#252);
#250 = CARTESIAN_POINT('',(176.,17.5,17.5));
#251 = DIRECTION('',(-1.,1.110223024625E-16,0.));
#252 = DIRECTION('',(0.,0.,1.));
#253 = ORIENTED_EDGE('',*,*,#80,.T.);
#254 = ORIENTED_EDGE('',*,*,#255,.F.);
#255 = EDGE_CURVE('',#256,#73,#258,.T.);
#256 = VERTEX_POINT('',#257);
#257 = CARTESIAN_POINT('',(176.,59.846688068541,30.));
#258 = CIRCLE('',#259,6.5);
#259 = AXIS2_PLACEMENT_3D('',#260,#261,#262);
#260 = CARTESIAN_POINT('',(176.,64.,25.));
#261 = DIRECTION('',(-1.,1.110223024625E-16,0.));
#262 = DIRECTION('',(0.,0.,1.));
#263 = ORIENTED_EDGE('',*,*,#264,.F.);
#264 = EDGE_CURVE('',#246,#256,#265,.T.);
#265 = LINE('',#266,#267);
#266 = CARTESIAN_POINT('',(176.,17.5,30.));
#267 = VECTOR('',#268,1.);
#268 = DIRECTION('',(1.110223024625E-16,1.,0.));
#269 = PLANE('',#270);
#270 = AXIS2_PLACEMENT_3D('',#271,#272,#273);
#271 = CARTESIAN_POINT('',(176.,39.84723545808,21.104392815819));
#272 = DIRECTION('',(-1.,1.110223024625E-16,0.));
#273 = DIRECTION('',(0.,0.,1.));
#274 = ADVANCED_FACE('',(#275),#302,.T.);
#275 = FACE_BOUND('',#276,.T.);
#276 = EDGE_LOOP('',(#277,#286,#287,#296));
#277 = ORIENTED_EDGE('',*,*,#278,.F.);
#278 = EDGE_CURVE('',#24,#279,#281,.T.);
#279 = VERTEX_POINT('',#280);
#280 = CARTESIAN_POINT('',(126.,23.804760106459,30.));
#281 = CIRCLE('',#282,14.);
#282 = AXIS2_PLACEMENT_3D('',#283,#284,#285);
#283 = CARTESIAN_POINT('',(126.,17.5,17.5));
#284 = DIRECTION('',(-1.,1.110223024625E-16,0.));
#285 = DIRECTION('',(0.,0.,1.));
#286 = ORIENTED_EDGE('',*,*,#64,.T.);
#287 = ORIENTED_EDGE('',*,*,#288,.F.);
#288 = EDGE_CURVE('',#289,#65,#291,.T.);
#289 = VERTEX_POINT('',#290);
#290 = CARTESIAN_POINT('',(126.,59.846688068541,30.));
#291 = CIRCLE('',#292,6.5);
#292 = AXIS2_PLACEMENT_3D('',#293,#294,#295);
#293 = CARTESIAN_POINT('',(126.,64.,25.));
#294 = DIRECTION('',(-1.,1.110223024625E-16,0.));
#295 = DIRECTION('',(0.,0.,1.));
#296 = ORIENTED_EDGE('',*,*,#297,.F.);
#297 = EDGE_CURVE('',#279,#289,#298,.T.);
#298 = LINE('',#299,#300);
#299 = CARTESIAN_POINT('',(126.,17.5,30.));
#300 = VECTOR('',#301,1.);
#301 = DIRECTION('',(1.110223024625E-16,1.,0.));
#302 = PLANE('',#303);
#303 = AXIS2_PLACEMENT_3D('',#304,#305,#306);
#304 = CARTESIAN_POINT('',(126.,39.84723545808,21.104392815819));
#305 = DIRECTION('',(-1.,1.110223024625E-16,0.));
#306 = DIRECTION('',(0.,0.,1.));
#307 = ADVANCED_FACE('',(#308),#326,.F.);
#308 = FACE_BOUND('',#309,.F.);
#309 = EDGE_LOOP('',(#310,#319,#320));
#310 = ORIENTED_EDGE('',*,*,#311,.T.);
#311 = EDGE_CURVE('',#312,#41,#314,.T.);
#312 = VERTEX_POINT('',#313);
#313 = CARTESIAN_POINT('',(176.,27.415066389094,7.61610104767));
#314 = CIRCLE('',#315,14.);
#315 = AXIS2_PLACEMENT_3D('',#316,#317,#318);
#316 = CARTESIAN_POINT('',(176.,17.5,17.5));
#317 = DIRECTION('',(-1.,1.110223024625E-16,0.));
#318 = DIRECTION('',(0.,0.,1.));
#319 = ORIENTED_EDGE('',*,*,#94,.T.);
#320 = ORIENTED_EDGE('',*,*,#321,.F.);
#321 = EDGE_CURVE('',#312,#95,#322,.T.);
#322 = LINE('',#323,#324);
#323 = CARTESIAN_POINT('',(176.,65.57200811359,20.25354969574));
#324 = VECTOR('',#325,1.);
#325 = DIRECTION('',(-1.053923682606E-16,-0.949290060852,-0.314401622718
    ));
#326 = PLANE('',#327);
#327 = AXIS2_PLACEMENT_3D('',#328,#329,#330);
#328 = CARTESIAN_POINT('',(176.,17.5,17.5));
#329 = DIRECTION('',(-1.,1.110223024625E-16,0.));
#330 = DIRECTION('',(0.,0.,1.));
#331 = ADVANCED_FACE('',(#332),#389,.T.);
#332 = FACE_BOUND('',#333,.T.);
#333 = EDGE_LOOP('',(#334,#344,#352,#360,#366,#367,#373,#374,#375,#383)
  );
#334 = ORIENTED_EDGE('',*,*,#335,.T.);
#335 = EDGE_CURVE('',#336,#338,#340,.T.);
#336 = VERTEX_POINT('',#337);
#337 = CARTESIAN_POINT('',(176.,65.57200811359,20.25354969574));
#338 = VERTEX_POINT('',#339);
#339 = CARTESIAN_POINT('',(126.,65.57200811359,20.25354969574));
#340 = LINE('',#341,#342);
#341 = CARTESIAN_POINT('',(176.,65.57200811359,20.25354969574));
#342 = VECTOR('',#343,1.);
#343 = DIRECTION('',(-1.,1.110223024625E-16,0.));
#344 = ORIENTED_EDGE('',*,*,#345,.T.);
#345 = EDGE_CURVE('',#338,#346,#348,.T.);
#346 = VERTEX_POINT('',#347);
#347 = CARTESIAN_POINT('',(126.,61.629310377438,18.947741684835));
#348 = LINE('',#349,#350);
#349 = CARTESIAN_POINT('',(126.,65.57200811359,20.25354969574));
#350 = VECTOR('',#351,1.);
#351 = DIRECTION('',(-1.053923682606E-16,-0.949290060852,-0.314401622718
    ));
#352 = ORIENTED_EDGE('',*,*,#353,.T.);
#353 = EDGE_CURVE('',#346,#354,#356,.T.);
#354 = VERTEX_POINT('',#355);
#355 = CARTESIAN_POINT('',(126.,27.415066389094,7.61610104767));
#356 = LINE('',#357,#358);
#357 = CARTESIAN_POINT('',(126.,65.57200811359,20.25354969574));
#358 = VECTOR('',#359,1.);
#359 = DIRECTION('',(-1.053923682606E-16,-0.949290060852,-0.314401622718
    ));
#360 = ORIENTED_EDGE('',*,*,#361,.T.);
#361 = EDGE_CURVE('',#354,#174,#362,.T.);
#362 = LINE('',#363,#364);
#363 = CARTESIAN_POINT('',(126.,65.57200811359,20.25354969574));
#364 = VECTOR('',#365,1.);
#365 = DIRECTION('',(-1.053923682606E-16,-0.949290060852,-0.314401622718
    ));
#366 = ORIENTED_EDGE('',*,*,#207,.T.);
#367 = ORIENTED_EDGE('',*,*,#368,.F.);
#368 = EDGE_CURVE('',#120,#199,#369,.T.);
#369 = LINE('',#370,#371);
#370 = CARTESIAN_POINT('',(176.,21.430020283976,5.633874239351));
#371 = VECTOR('',#372,1.);
#372 = DIRECTION('',(-1.,1.110223024625E-16,0.));
#373 = ORIENTED_EDGE('',*,*,#128,.F.);
#374 = ORIENTED_EDGE('',*,*,#321,.F.);
#375 = ORIENTED_EDGE('',*,*,#376,.F.);
#376 = EDGE_CURVE('',#377,#312,#379,.T.);
#377 = VERTEX_POINT('',#378);
#378 = CARTESIAN_POINT('',(176.,61.629310377438,18.947741684835));
#379 = LINE('',#380,#381);
#380 = CARTESIAN_POINT('',(176.,65.57200811359,20.25354969574));
#381 = VECTOR('',#382,1.);
#382 = DIRECTION('',(-1.053923682606E-16,-0.949290060852,-0.314401622718
    ));
#383 = ORIENTED_EDGE('',*,*,#384,.F.);
#384 = EDGE_CURVE('',#336,#377,#385,.T.);
#385 = LINE('',#386,#387);
#386 = CARTESIAN_POINT('',(176.,65.57200811359,20.25354969574));
#387 = VECTOR('',#388,1.);
#388 = DIRECTION('',(-1.053923682606E-16,-0.949290060852,-0.314401622718
    ));
#389 = PLANE('',#390);
#390 = AXIS2_PLACEMENT_3D('',#391,#392,#393);
#391 = CARTESIAN_POINT('',(176.,65.57200811359,20.25354969574));
#392 = DIRECTION('',(-3.490559205211E-17,-0.314401622718,0.949290060852)
  );
#393 = DIRECTION('',(-1.053923682606E-16,-0.949290060852,-0.314401622718
    ));
#394 = ADVANCED_FACE('',(#395),#406,.F.);
#395 = FACE_BOUND('',#396,.F.);
#396 = EDGE_LOOP('',(#397,#403,#404,#405));
#397 = ORIENTED_EDGE('',*,*,#398,.T.);
#398 = EDGE_CURVE('',#112,#191,#399,.T.);
#399 = LINE('',#400,#401);
#400 = CARTESIAN_POINT('',(176.,17.5,30.));
#401 = VECTOR('',#402,1.);
#402 = DIRECTION('',(-1.,1.110223024625E-16,0.));
#403 = ORIENTED_EDGE('',*,*,#198,.F.);
#404 = ORIENTED_EDGE('',*,*,#368,.F.);
#405 = ORIENTED_EDGE('',*,*,#119,.T.);
#406 = CYLINDRICAL_SURFACE('',#407,12.5);
#407 = AXIS2_PLACEMENT_3D('',#408,#409,#410);
#408 = CARTESIAN_POINT('',(176.,17.5,17.5));
#409 = DIRECTION('',(-1.,1.110223024625E-16,0.));
#410 = DIRECTION('',(0.,0.,1.));
#411 = ADVANCED_FACE('',(#412),#453,.T.);
#412 = FACE_BOUND('',#413,.T.);
#413 = EDGE_LOOP('',(#414,#415,#416,#422,#423,#431,#439,#445,#446,#452)
  );
#414 = ORIENTED_EDGE('',*,*,#398,.T.);
#415 = ORIENTED_EDGE('',*,*,#190,.T.);
#416 = ORIENTED_EDGE('',*,*,#417,.T.);
#417 = EDGE_CURVE('',#183,#279,#418,.T.);
#418 = LINE('',#419,#420);
#419 = CARTESIAN_POINT('',(126.,17.5,30.));
#420 = VECTOR('',#421,1.);
#421 = DIRECTION('',(1.110223024625E-16,1.,0.));
#422 = ORIENTED_EDGE('',*,*,#297,.T.);
#423 = ORIENTED_EDGE('',*,*,#424,.T.);
#424 = EDGE_CURVE('',#289,#425,#427,.T.);
#425 = VERTEX_POINT('',#426);
#426 = CARTESIAN_POINT('',(126.,64.,30.));
#427 = LINE('',#428,#429);
#428 = CARTESIAN_POINT('',(126.,17.5,30.));
#429 = VECTOR('',#430,1.);
#430 = DIRECTION('',(1.110223024625E-16,1.,0.));
#431 = ORIENTED_EDGE('',*,*,#432,.F.);
#432 = EDGE_CURVE('',#433,#425,#435,.T.);
#433 = VERTEX_POINT('',#434);
#434 = CARTESIAN_POINT('',(176.,64.,30.));
#435 = LINE('',#436,#437);
#436 = CARTESIAN_POINT('',(176.,64.,30.));
#437 = VECTOR('',#438,1.);
#438 = DIRECTION('',(-1.,1.110223024625E-16,0.));
#439 = ORIENTED_EDGE('',*,*,#440,.F.);
#440 = EDGE_CURVE('',#256,#433,#441,.T.);
#441 = LINE('',#442,#443);
#442 = CARTESIAN_POINT('',(176.,17.5,30.));
#443 = VECTOR('',#444,1.);
#444 = DIRECTION('',(1.110223024625E-16,1.,0.));
#445 = ORIENTED_EDGE('',*,*,#264,.F.);
#446 = ORIENTED_EDGE('',*,*,#447,.F.);
#447 = EDGE_CURVE('',#104,#246,#448,.T.);
#448 = LINE('',#449,#450);
#449 = CARTESIAN_POINT('',(176.,17.5,30.));
#450 = VECTOR('',#451,1.);
#451 = DIRECTION('',(1.110223024625E-16,1.,0.));
#452 = ORIENTED_EDGE('',*,*,#111,.F.);
#453 = PLANE('',#454);
#454 = AXIS2_PLACEMENT_3D('',#455,#456,#457);
#455 = CARTESIAN_POINT('',(176.,17.5,30.));
#456 = DIRECTION('',(0.,0.,-1.));
#457 = DIRECTION('',(1.110223024625E-16,1.,0.));
#458 = ADVANCED_FACE('',(#459),#464,.F.);
#459 = FACE_BOUND('',#460,.F.);
#460 = EDGE_LOOP('',(#461,#462,#463));
#461 = ORIENTED_EDGE('',*,*,#245,.T.);
#462 = ORIENTED_EDGE('',*,*,#447,.F.);
#463 = ORIENTED_EDGE('',*,*,#103,.T.);
#464 = PLANE('',#465);
#465 = AXIS2_PLACEMENT_3D('',#466,#467,#468);
#466 = CARTESIAN_POINT('',(176.,17.5,17.5));
#467 = DIRECTION('',(-1.,1.110223024625E-16,0.));
#468 = DIRECTION('',(0.,0.,1.));
#469 = ADVANCED_FACE('',(#470),#482,.F.);
#470 = FACE_BOUND('',#471,.F.);
#471 = EDGE_LOOP('',(#472,#473,#474,#481));
#472 = ORIENTED_EDGE('',*,*,#311,.F.);
#473 = ORIENTED_EDGE('',*,*,#376,.F.);
#474 = ORIENTED_EDGE('',*,*,#475,.F.);
#475 = EDGE_CURVE('',#143,#377,#476,.T.);
#476 = CIRCLE('',#477,6.5);
#477 = AXIS2_PLACEMENT_3D('',#478,#479,#480);
#478 = CARTESIAN_POINT('',(176.,64.,25.));
#479 = DIRECTION('',(-1.,1.110223024625E-16,0.));
#480 = DIRECTION('',(0.,0.,1.));
#481 = ORIENTED_EDGE('',*,*,#159,.T.);
#482 = PLANE('',#483);
#483 = AXIS2_PLACEMENT_3D('',#484,#485,#486);
#484 = CARTESIAN_POINT('',(176.,39.84723545808,21.104392815819));
#485 = DIRECTION('',(-1.,1.110223024625E-16,0.));
#486 = DIRECTION('',(0.,0.,1.));
#487 = ADVANCED_FACE('',(#488),#506,.T.);
#488 = FACE_BOUND('',#489,.T.);
#489 = EDGE_LOOP('',(#490,#497,#498,#505));
#490 = ORIENTED_EDGE('',*,*,#491,.F.);
#491 = EDGE_CURVE('',#354,#32,#492,.T.);
#492 = CIRCLE('',#493,14.);
#493 = AXIS2_PLACEMENT_3D('',#494,#495,#496);
#494 = CARTESIAN_POINT('',(126.,17.5,17.5));
#495 = DIRECTION('',(-1.,1.110223024625E-16,0.));
#496 = DIRECTION('',(0.,0.,1.));
#497 = ORIENTED_EDGE('',*,*,#353,.F.);
#498 = ORIENTED_EDGE('',*,*,#499,.F.);
#499 = EDGE_CURVE('',#145,#346,#500,.T.);
#500 = CIRCLE('',#501,6.5);
#501 = AXIS2_PLACEMENT_3D('',#502,#503,#504);
#502 = CARTESIAN_POINT('',(126.,64.,25.));
#503 = DIRECTION('',(-1.,1.110223024625E-16,0.));
#504 = DIRECTION('',(0.,0.,1.));
#505 = ORIENTED_EDGE('',*,*,#152,.T.);
#506 = PLANE('',#507);
#507 = AXIS2_PLACEMENT_3D('',#508,#509,#510);
#508 = CARTESIAN_POINT('',(126.,39.84723545808,21.104392815819));
#509 = DIRECTION('',(-1.,1.110223024625E-16,0.));
#510 = DIRECTION('',(0.,0.,1.));
#511 = ADVANCED_FACE('',(#512),#517,.T.);
#512 = FACE_BOUND('',#513,.T.);
#513 = EDGE_LOOP('',(#514,#515,#516));
#514 = ORIENTED_EDGE('',*,*,#491,.T.);
#515 = ORIENTED_EDGE('',*,*,#173,.T.);
#516 = ORIENTED_EDGE('',*,*,#361,.F.);
#517 = PLANE('',#518);
#518 = AXIS2_PLACEMENT_3D('',#519,#520,#521);
#519 = CARTESIAN_POINT('',(126.,17.5,17.5));
#520 = DIRECTION('',(-1.,1.110223024625E-16,0.));
#521 = DIRECTION('',(0.,0.,1.));
#522 = ADVANCED_FACE('',(#523),#528,.T.);
#523 = FACE_BOUND('',#524,.T.);
#524 = EDGE_LOOP('',(#525,#526,#527));
#525 = ORIENTED_EDGE('',*,*,#278,.T.);
#526 = ORIENTED_EDGE('',*,*,#417,.F.);
#527 = ORIENTED_EDGE('',*,*,#182,.T.);
#528 = PLANE('',#529);
#529 = AXIS2_PLACEMENT_3D('',#530,#531,#532);
#530 = CARTESIAN_POINT('',(126.,17.5,17.5));
#531 = DIRECTION('',(-1.,1.110223024625E-16,0.));
#532 = DIRECTION('',(0.,0.,1.));
#533 = ADVANCED_FACE('',(#534),#560,.T.);
#534 = FACE_BOUND('',#535,.T.);
#535 = EDGE_LOOP('',(#536,#544,#545,#553));
#536 = ORIENTED_EDGE('',*,*,#537,.F.);
#537 = EDGE_CURVE('',#65,#538,#540,.T.);
#538 = VERTEX_POINT('',#539);
#539 = CARTESIAN_POINT('',(126.,64.242887567987,29.994097078484));
#540 = LINE('',#541,#542);
#541 = CARTESIAN_POINT('',(126.,64.,31.5));
#542 = VECTOR('',#543,1.);
#543 = DIRECTION('',(1.767835198503E-17,0.159232438825,-0.987241120713)
  );
#544 = ORIENTED_EDGE('',*,*,#221,.T.);
#545 = ORIENTED_EDGE('',*,*,#546,.F.);
#546 = EDGE_CURVE('',#547,#145,#549,.T.);
#547 = VERTEX_POINT('',#548);
#548 = CARTESIAN_POINT('',(126.,65.800722979681,20.335517525979));
#549 = LINE('',#550,#551);
#550 = CARTESIAN_POINT('',(126.,64.,31.5));
#551 = VECTOR('',#552,1.);
#552 = DIRECTION('',(1.767835198503E-17,0.159232438825,-0.987241120713)
  );
#553 = ORIENTED_EDGE('',*,*,#554,.F.);
#554 = EDGE_CURVE('',#538,#547,#555,.T.);
#555 = CIRCLE('',#556,5.);
#556 = AXIS2_PLACEMENT_3D('',#557,#558,#559);
#557 = CARTESIAN_POINT('',(126.,64.,25.));
#558 = DIRECTION('',(-1.,1.110223024625E-16,0.));
#559 = DIRECTION('',(0.,0.,1.));
#560 = PLANE('',#561);
#561 = AXIS2_PLACEMENT_3D('',#562,#563,#564);
#562 = CARTESIAN_POINT('',(126.,64.,25.));
#563 = DIRECTION('',(-1.,1.110223024625E-16,0.));
#564 = DIRECTION('',(0.,0.,1.));
#565 = ADVANCED_FACE('',(#566),#592,.F.);
#566 = FACE_BOUND('',#567,.F.);
#567 = EDGE_LOOP('',(#568,#576,#577,#585));
#568 = ORIENTED_EDGE('',*,*,#569,.F.);
#569 = EDGE_CURVE('',#73,#570,#572,.T.);
#570 = VERTEX_POINT('',#571);
#571 = CARTESIAN_POINT('',(176.,64.242887567987,29.994097078484));
#572 = LINE('',#573,#574);
#573 = CARTESIAN_POINT('',(176.,64.,31.5));
#574 = VECTOR('',#575,1.);
#575 = DIRECTION('',(1.767835198503E-17,0.159232438825,-0.987241120713)
  );
#576 = ORIENTED_EDGE('',*,*,#229,.T.);
#577 = ORIENTED_EDGE('',*,*,#578,.F.);
#578 = EDGE_CURVE('',#579,#143,#581,.T.);
#579 = VERTEX_POINT('',#580);
#580 = CARTESIAN_POINT('',(176.,65.800722979681,20.335517525979));
#581 = LINE('',#582,#583);
#582 = CARTESIAN_POINT('',(176.,64.,31.5));
#583 = VECTOR('',#584,1.);
#584 = DIRECTION('',(1.767835198503E-17,0.159232438825,-0.987241120713)
  );
#585 = ORIENTED_EDGE('',*,*,#586,.F.);
#586 = EDGE_CURVE('',#570,#579,#587,.T.);
#587 = CIRCLE('',#588,5.);
#588 = AXIS2_PLACEMENT_3D('',#589,#590,#591);
#589 = CARTESIAN_POINT('',(176.,64.,25.));
#590 = DIRECTION('',(-1.,1.110223024625E-16,0.));
#591 = DIRECTION('',(0.,0.,1.));
#592 = PLANE('',#593);
#593 = AXIS2_PLACEMENT_3D('',#594,#595,#596);
#594 = CARTESIAN_POINT('',(176.,64.,25.));
#595 = DIRECTION('',(-1.,1.110223024625E-16,0.));
#596 = DIRECTION('',(0.,0.,1.));
#597 = ADVANCED_FACE('',(#598),#610,.F.);
#598 = FACE_BOUND('',#599,.F.);
#599 = EDGE_LOOP('',(#600,#601,#602,#603));
#600 = ORIENTED_EDGE('',*,*,#440,.F.);
#601 = ORIENTED_EDGE('',*,*,#255,.T.);
#602 = ORIENTED_EDGE('',*,*,#569,.T.);
#603 = ORIENTED_EDGE('',*,*,#604,.F.);
#604 = EDGE_CURVE('',#433,#570,#605,.T.);
#605 = CIRCLE('',#606,5.);
#606 = AXIS2_PLACEMENT_3D('',#607,#608,#609);
#607 = CARTESIAN_POINT('',(176.,64.,25.));
#608 = DIRECTION('',(-1.,1.110223024625E-16,0.));
#609 = DIRECTION('',(0.,0.,1.));
#610 = PLANE('',#611);
#611 = AXIS2_PLACEMENT_3D('',#612,#613,#614);
#612 = CARTESIAN_POINT('',(176.,64.,25.));
#613 = DIRECTION('',(-1.,1.110223024625E-16,0.));
#614 = DIRECTION('',(0.,0.,1.));
#615 = ADVANCED_FACE('',(#616),#628,.T.);
#616 = FACE_BOUND('',#617,.T.);
#617 = EDGE_LOOP('',(#618,#619,#620,#621));
#618 = ORIENTED_EDGE('',*,*,#424,.F.);
#619 = ORIENTED_EDGE('',*,*,#288,.T.);
#620 = ORIENTED_EDGE('',*,*,#537,.T.);
#621 = ORIENTED_EDGE('',*,*,#622,.F.);
#622 = EDGE_CURVE('',#425,#538,#623,.T.);
#623 = CIRCLE('',#624,5.);
#624 = AXIS2_PLACEMENT_3D('',#625,#626,#627);
#625 = CARTESIAN_POINT('',(126.,64.,25.));
#626 = DIRECTION('',(-1.,1.110223024625E-16,0.));
#627 = DIRECTION('',(0.,0.,1.));
#628 = PLANE('',#629);
#629 = AXIS2_PLACEMENT_3D('',#630,#631,#632);
#630 = CARTESIAN_POINT('',(126.,64.,25.));
#631 = DIRECTION('',(-1.,1.110223024625E-16,0.));
#632 = DIRECTION('',(0.,0.,1.));
#633 = ADVANCED_FACE('',(#634),#656,.F.);
#634 = FACE_BOUND('',#635,.F.);
#635 = EDGE_LOOP('',(#636,#637,#638,#639,#640,#647,#648,#655));
#636 = ORIENTED_EDGE('',*,*,#622,.F.);
#637 = ORIENTED_EDGE('',*,*,#432,.F.);
#638 = ORIENTED_EDGE('',*,*,#604,.T.);
#639 = ORIENTED_EDGE('',*,*,#586,.T.);
#640 = ORIENTED_EDGE('',*,*,#641,.T.);
#641 = EDGE_CURVE('',#579,#336,#642,.T.);
#642 = CIRCLE('',#643,5.);
#643 = AXIS2_PLACEMENT_3D('',#644,#645,#646);
#644 = CARTESIAN_POINT('',(176.,64.,25.));
#645 = DIRECTION('',(-1.,1.110223024625E-16,0.));
#646 = DIRECTION('',(0.,0.,1.));
#647 = ORIENTED_EDGE('',*,*,#335,.T.);
#648 = ORIENTED_EDGE('',*,*,#649,.F.);
#649 = EDGE_CURVE('',#547,#338,#650,.T.);
#650 = CIRCLE('',#651,5.);
#651 = AXIS2_PLACEMENT_3D('',#652,#653,#654);
#652 = CARTESIAN_POINT('',(126.,64.,25.));
#653 = DIRECTION('',(-1.,1.110223024625E-16,0.));
#654 = DIRECTION('',(0.,0.,1.));
#655 = ORIENTED_EDGE('',*,*,#554,.F.);
#656 = CYLINDRICAL_SURFACE('',#657,5.);
#657 = AXIS2_PLACEMENT_3D('',#658,#659,#660);
#658 = CARTESIAN_POINT('',(176.,64.,25.));
#659 = DIRECTION('',(-1.,1.110223024625E-16,0.));
#660 = DIRECTION('',(0.,0.,1.));
#661 = ADVANCED_FACE('',(#662),#668,.F.);
#662 = FACE_BOUND('',#663,.F.);
#663 = EDGE_LOOP('',(#664,#665,#666,#667));
#664 = ORIENTED_EDGE('',*,*,#578,.T.);
#665 = ORIENTED_EDGE('',*,*,#475,.T.);
#666 = ORIENTED_EDGE('',*,*,#384,.F.);
#667 = ORIENTED_EDGE('',*,*,#641,.F.);
#668 = PLANE('',#669);
#669 = AXIS2_PLACEMENT_3D('',#670,#671,#672);
#670 = CARTESIAN_POINT('',(176.,64.,25.));
#671 = DIRECTION('',(-1.,1.110223024625E-16,0.));
#672 = DIRECTION('',(0.,0.,1.));
#673 = ADVANCED_FACE('',(#674),#680,.T.);
#674 = FACE_BOUND('',#675,.T.);
#675 = EDGE_LOOP('',(#676,#677,#678,#679));
#676 = ORIENTED_EDGE('',*,*,#546,.T.);
#677 = ORIENTED_EDGE('',*,*,#499,.T.);
#678 = ORIENTED_EDGE('',*,*,#345,.F.);
#679 = ORIENTED_EDGE('',*,*,#649,.F.);
#680 = PLANE('',#681);
#681 = AXIS2_PLACEMENT_3D('',#682,#683,#684);
#682 = CARTESIAN_POINT('',(126.,64.,25.));
#683 = DIRECTION('',(-1.,1.110223024625E-16,0.));
#684 = DIRECTION('',(0.,0.,1.));
#685 = ( GEOMETRIC_REPRESENTATION_CONTEXT(3) 
GLOBAL_UNCERTAINTY_ASSIGNED_CONTEXT((#689)) GLOBAL_UNIT_ASSIGNED_CONTEXT
((#686,#687,#688)) REPRESENTATION_CONTEXT('Context #1',
  '3D Context with UNIT and UNCERTAINTY') );
#686 = ( LENGTH_UNIT() NAMED_UNIT(*) SI_UNIT(.MILLI.,.METRE.) );
#687 = ( NAMED_UNIT(*) PLANE_ANGLE_UNIT() SI_UNIT($,.RADIAN.) );
#688 = ( NAMED_UNIT(*) SI_UNIT($,.STERADIAN.) SOLID_ANGLE_UNIT() );
#689 = UNCERTAINTY_MEASURE_WITH_UNIT(LENGTH_MEASURE(1.E-07),#686,
  'distance_accuracy_value','confusion accuracy');
#690 = PRODUCT_RELATED_PRODUCT_CATEGORY('part',$,(#7));
ENDSEC;
END-ISO-10303-21;
