ISO-10303-21;
HEADER;
FILE_DESCRIPTION(('FreeCAD Model'),'2;1');
FILE_NAME('Open CASCADE Shape Model','2026-08-09T00:47:57',('FreeCAD'),(
    'FreeCAD'),'Open CASCADE STEP processor 7.8','FreeCAD','Unknown');
FILE_SCHEMA(('AUTOMOTIVE_DESIGN { 1 0 10303 214 1 1 1 1 }'));
ENDSEC;
DATA;
#1 = APPLICATION_PROTOCOL_DEFINITION('international standard',
  'automotive_design',2000,#2);
#2 = APPLICATION_CONTEXT(
  'core data for automotive mechanical design processes');
#3 = SHAPE_DEFINITION_REPRESENTATION(#4,#10);
#4 = PRODUCT_DEFINITION_SHAPE('','',#5);
#5 = PRODUCT_DEFINITION('design','',#6,#9);
#6 = PRODUCT_DEFINITION_FORMATION('','',#7);
#7 = PRODUCT('Open CASCADE STEP translator 7.8 15',
  'Open CASCADE STEP translator 7.8 15','',(#8));
#8 = PRODUCT_CONTEXT('',#2,'mechanical');
#9 = PRODUCT_DEFINITION_CONTEXT('part definition',#2,'design');
#10 = SHAPE_REPRESENTATION('',(#11,#15,#507),#1035);
#11 = AXIS2_PLACEMENT_3D('',#12,#13,#14);
#12 = CARTESIAN_POINT('',(0.,0.,0.));
#13 = DIRECTION('',(0.,0.,1.));
#14 = DIRECTION('',(1.,0.,-0.));
#15 = MANIFOLD_SOLID_BREP('',#16);
#16 = CLOSED_SHELL('',(#17,#59,#83,#109,#198,#230,#239,#263,#287,#304,
    #329,#354,#386,#410,#434,#452,#467,#497));
#17 = ADVANCED_FACE('',(#18),#54,.F.);
#18 = FACE_BOUND('',#19,.F.);
#19 = EDGE_LOOP('',(#20,#30,#39,#47));
#20 = ORIENTED_EDGE('',*,*,#21,.T.);
#21 = EDGE_CURVE('',#22,#24,#26,.T.);
#22 = VERTEX_POINT('',#23);
#23 = CARTESIAN_POINT('',(180.5,17.5,22.5));
#24 = VERTEX_POINT('',#25);
#25 = CARTESIAN_POINT('',(180.5,17.5,35.));
#26 = LINE('',#27,#28);
#27 = CARTESIAN_POINT('',(180.5,17.5,0.));
#28 = VECTOR('',#29,1.);
#29 = DIRECTION('',(0.,0.,1.));
#30 = ORIENTED_EDGE('',*,*,#31,.T.);
#31 = EDGE_CURVE('',#24,#32,#34,.T.);
#32 = VERTEX_POINT('',#33);
#33 = CARTESIAN_POINT('',(180.5,17.5,0.));
#34 = CIRCLE('',#35,17.5);
#35 = AXIS2_PLACEMENT_3D('',#36,#37,#38);
#36 = CARTESIAN_POINT('',(180.5,17.5,17.5));
#37 = DIRECTION('',(-1.,1.110223024625E-16,0.));
#38 = DIRECTION('',(0.,0.,1.));
#39 = ORIENTED_EDGE('',*,*,#40,.T.);
#40 = EDGE_CURVE('',#32,#41,#43,.T.);
#41 = VERTEX_POINT('',#42);
#42 = CARTESIAN_POINT('',(180.5,17.5,12.5));
#43 = LINE('',#44,#45);
#44 = CARTESIAN_POINT('',(180.5,17.5,0.));
#45 = VECTOR('',#46,1.);
#46 = DIRECTION('',(0.,0.,1.));
#47 = ORIENTED_EDGE('',*,*,#48,.F.);
#48 = EDGE_CURVE('',#22,#41,#49,.T.);
#49 = CIRCLE('',#50,5.);
#50 = AXIS2_PLACEMENT_3D('',#51,#52,#53);
#51 = CARTESIAN_POINT('',(180.5,17.5,17.5));
#52 = DIRECTION('',(-1.,1.110223024625E-16,0.));
#53 = DIRECTION('',(0.,0.,1.));
#54 = PLANE('',#55);
#55 = AXIS2_PLACEMENT_3D('',#56,#57,#58);
#56 = CARTESIAN_POINT('',(180.5,17.5,0.));
#57 = DIRECTION('',(-1.,1.110223024625E-16,0.));
#58 = DIRECTION('',(0.,0.,1.));
#59 = ADVANCED_FACE('',(#60),#78,.F.);
#60 = FACE_BOUND('',#61,.F.);
#61 = EDGE_LOOP('',(#62,#63,#70,#71));
#62 = ORIENTED_EDGE('',*,*,#40,.F.);
#63 = ORIENTED_EDGE('',*,*,#64,.T.);
#64 = EDGE_CURVE('',#32,#24,#65,.T.);
#65 = CIRCLE('',#66,17.5);
#66 = AXIS2_PLACEMENT_3D('',#67,#68,#69);
#67 = CARTESIAN_POINT('',(180.5,17.5,17.5));
#68 = DIRECTION('',(-1.,1.110223024625E-16,0.));
#69 = DIRECTION('',(0.,0.,1.));
#70 = ORIENTED_EDGE('',*,*,#21,.F.);
#71 = ORIENTED_EDGE('',*,*,#72,.F.);
#72 = EDGE_CURVE('',#41,#22,#73,.T.);
#73 = CIRCLE('',#74,5.);
#74 = AXIS2_PLACEMENT_3D('',#75,#76,#77);
#75 = CARTESIAN_POINT('',(180.5,17.5,17.5));
#76 = DIRECTION('',(-1.,1.110223024625E-16,0.));
#77 = DIRECTION('',(0.,0.,1.));
#78 = PLANE('',#79);
#79 = AXIS2_PLACEMENT_3D('',#80,#81,#82);
#80 = CARTESIAN_POINT('',(180.5,17.5,17.5));
#81 = DIRECTION('',(-1.,1.110223024625E-16,0.));
#82 = DIRECTION('',(0.,0.,1.));
#83 = ADVANCED_FACE('',(#84),#104,.F.);
#84 = FACE_BOUND('',#85,.F.);
#85 = EDGE_LOOP('',(#86,#94,#101,#102,#103));
#86 = ORIENTED_EDGE('',*,*,#87,.T.);
#87 = EDGE_CURVE('',#22,#88,#90,.T.);
#88 = VERTEX_POINT('',#89);
#89 = CARTESIAN_POINT('',(179.5,17.5,22.5));
#90 = LINE('',#91,#92);
#91 = CARTESIAN_POINT('',(181.5,17.5,22.5));
#92 = VECTOR('',#93,1.);
#93 = DIRECTION('',(-1.,1.110223024625E-16,0.));
#94 = ORIENTED_EDGE('',*,*,#95,.F.);
#95 = EDGE_CURVE('',#88,#88,#96,.T.);
#96 = CIRCLE('',#97,5.);
#97 = AXIS2_PLACEMENT_3D('',#98,#99,#100);
#98 = CARTESIAN_POINT('',(179.5,17.5,17.5));
#99 = DIRECTION('',(-1.,1.110223024625E-16,0.));
#100 = DIRECTION('',(0.,0.,1.));
#101 = ORIENTED_EDGE('',*,*,#87,.F.);
#102 = ORIENTED_EDGE('',*,*,#48,.T.);
#103 = ORIENTED_EDGE('',*,*,#72,.T.);
#104 = CYLINDRICAL_SURFACE('',#105,5.);
#105 = AXIS2_PLACEMENT_3D('',#106,#107,#108);
#106 = CARTESIAN_POINT('',(181.5,17.5,17.5));
#107 = DIRECTION('',(-1.,1.110223024625E-16,0.));
#108 = DIRECTION('',(0.,0.,1.));
#109 = ADVANCED_FACE('',(#110,#135,#146,#157),#193,.F.);
#110 = FACE_BOUND('',#111,.F.);
#111 = EDGE_LOOP('',(#112,#120,#121,#129));
#112 = ORIENTED_EDGE('',*,*,#113,.F.);
#113 = EDGE_CURVE('',#32,#114,#116,.T.);
#114 = VERTEX_POINT('',#115);
#115 = CARTESIAN_POINT('',(180.5,70.,0.));
#116 = LINE('',#117,#118);
#117 = CARTESIAN_POINT('',(180.5,17.5,0.));
#118 = VECTOR('',#119,1.);
#119 = DIRECTION('',(1.110223024625E-16,1.,0.));
#120 = ORIENTED_EDGE('',*,*,#31,.F.);
#121 = ORIENTED_EDGE('',*,*,#122,.T.);
#122 = EDGE_CURVE('',#24,#123,#125,.T.);
#123 = VERTEX_POINT('',#124);
#124 = CARTESIAN_POINT('',(180.5,70.,35.));
#125 = LINE('',#126,#127);
#126 = CARTESIAN_POINT('',(180.5,17.5,35.));
#127 = VECTOR('',#128,1.);
#128 = DIRECTION('',(1.110223024625E-16,1.,0.));
#129 = ORIENTED_EDGE('',*,*,#130,.F.);
#130 = EDGE_CURVE('',#114,#123,#131,.T.);
#131 = LINE('',#132,#133);
#132 = CARTESIAN_POINT('',(180.5,70.,0.));
#133 = VECTOR('',#134,1.);
#134 = DIRECTION('',(0.,0.,1.));
#135 = FACE_BOUND('',#136,.F.);
#136 = EDGE_LOOP('',(#137));
#137 = ORIENTED_EDGE('',*,*,#138,.F.);
#138 = EDGE_CURVE('',#139,#139,#141,.T.);
#139 = VERTEX_POINT('',#140);
#140 = CARTESIAN_POINT('',(180.5,35.5,8.6));
#141 = CIRCLE('',#142,1.6);
#142 = AXIS2_PLACEMENT_3D('',#143,#144,#145);
#143 = CARTESIAN_POINT('',(180.5,35.5,7.));
#144 = DIRECTION('',(-1.,1.110223024625E-16,0.));
#145 = DIRECTION('',(0.,0.,1.));
#146 = FACE_BOUND('',#147,.F.);
#147 = EDGE_LOOP('',(#148));
#148 = ORIENTED_EDGE('',*,*,#149,.F.);
#149 = EDGE_CURVE('',#150,#150,#152,.T.);
#150 = VERTEX_POINT('',#151);
#151 = CARTESIAN_POINT('',(180.5,46.,8.6));
#152 = CIRCLE('',#153,1.6);
#153 = AXIS2_PLACEMENT_3D('',#154,#155,#156);
#154 = CARTESIAN_POINT('',(180.5,46.,7.));
#155 = DIRECTION('',(-1.,1.110223024625E-16,0.));
#156 = DIRECTION('',(0.,0.,1.));
#157 = FACE_BOUND('',#158,.F.);
#158 = EDGE_LOOP('',(#159,#170,#178,#187));
#159 = ORIENTED_EDGE('',*,*,#160,.F.);
#160 = EDGE_CURVE('',#161,#163,#165,.T.);
#161 = VERTEX_POINT('',#162);
#162 = CARTESIAN_POINT('',(180.5,56.,22.75));
#163 = VERTEX_POINT('',#164);
#164 = CARTESIAN_POINT('',(180.5,56.,27.25));
#165 = CIRCLE('',#166,2.25);
#166 = AXIS2_PLACEMENT_3D('',#167,#168,#169);
#167 = CARTESIAN_POINT('',(180.5,56.,25.));
#168 = DIRECTION('',(-1.,1.110223024625E-16,0.));
#169 = DIRECTION('',(0.,0.,1.));
#170 = ORIENTED_EDGE('',*,*,#171,.T.);
#171 = EDGE_CURVE('',#161,#172,#174,.T.);
#172 = VERTEX_POINT('',#173);
#173 = CARTESIAN_POINT('',(180.5,64.,22.75));
#174 = LINE('',#175,#176);
#175 = CARTESIAN_POINT('',(180.5,36.75,22.75));
#176 = VECTOR('',#177,1.);
#177 = DIRECTION('',(1.110223024625E-16,1.,0.));
#178 = ORIENTED_EDGE('',*,*,#179,.F.);
#179 = EDGE_CURVE('',#180,#172,#182,.T.);
#180 = VERTEX_POINT('',#181);
#181 = CARTESIAN_POINT('',(180.5,64.,27.25));
#182 = CIRCLE('',#183,2.25);
#183 = AXIS2_PLACEMENT_3D('',#184,#185,#186);
#184 = CARTESIAN_POINT('',(180.5,64.,25.));
#185 = DIRECTION('',(-1.,1.110223024625E-16,0.));
#186 = DIRECTION('',(0.,0.,1.));
#187 = ORIENTED_EDGE('',*,*,#188,.F.);
#188 = EDGE_CURVE('',#163,#180,#189,.T.);
#189 = LINE('',#190,#191);
#190 = CARTESIAN_POINT('',(180.5,36.75,27.25));
#191 = VECTOR('',#192,1.);
#192 = DIRECTION('',(1.110223024625E-16,1.,0.));
#193 = PLANE('',#194);
#194 = AXIS2_PLACEMENT_3D('',#195,#196,#197);
#195 = CARTESIAN_POINT('',(180.5,17.5,0.));
#196 = DIRECTION('',(-1.,1.110223024625E-16,0.));
#197 = DIRECTION('',(0.,0.,1.));
#198 = ADVANCED_FACE('',(#199),#225,.T.);
#199 = FACE_BOUND('',#200,.T.);
#200 = EDGE_LOOP('',(#201,#209,#218,#224));
#201 = ORIENTED_EDGE('',*,*,#202,.T.);
#202 = EDGE_CURVE('',#24,#203,#205,.T.);
#203 = VERTEX_POINT('',#204);
#204 = CARTESIAN_POINT('',(178.5,17.5,35.));
#205 = LINE('',#206,#207);
#206 = CARTESIAN_POINT('',(180.5,17.5,35.));
#207 = VECTOR('',#208,1.);
#208 = DIRECTION('',(-1.,1.110223024625E-16,0.));
#209 = ORIENTED_EDGE('',*,*,#210,.F.);
#210 = EDGE_CURVE('',#211,#203,#213,.T.);
#211 = VERTEX_POINT('',#212);
#212 = CARTESIAN_POINT('',(178.5,17.5,0.));
#213 = CIRCLE('',#214,17.5);
#214 = AXIS2_PLACEMENT_3D('',#215,#216,#217);
#215 = CARTESIAN_POINT('',(178.5,17.5,17.5));
#216 = DIRECTION('',(-1.,1.110223024625E-16,0.));
#217 = DIRECTION('',(0.,0.,1.));
#218 = ORIENTED_EDGE('',*,*,#219,.F.);
#219 = EDGE_CURVE('',#32,#211,#220,.T.);
#220 = LINE('',#221,#222);
#221 = CARTESIAN_POINT('',(180.5,17.5,0.));
#222 = VECTOR('',#223,1.);
#223 = DIRECTION('',(-1.,1.110223024625E-16,0.));
#224 = ORIENTED_EDGE('',*,*,#64,.T.);
#225 = CYLINDRICAL_SURFACE('',#226,17.5);
#226 = AXIS2_PLACEMENT_3D('',#227,#228,#229);
#227 = CARTESIAN_POINT('',(180.5,17.5,17.5));
#228 = DIRECTION('',(-1.,1.110223024625E-16,0.));
#229 = DIRECTION('',(0.,0.,1.));
#230 = ADVANCED_FACE('',(#231),#234,.F.);
#231 = FACE_BOUND('',#232,.F.);
#232 = EDGE_LOOP('',(#233));
#233 = ORIENTED_EDGE('',*,*,#95,.T.);
#234 = PLANE('',#235);
#235 = AXIS2_PLACEMENT_3D('',#236,#237,#238);
#236 = CARTESIAN_POINT('',(179.5,17.5,17.5));
#237 = DIRECTION('',(-1.,1.110223024625E-16,0.));
#238 = DIRECTION('',(0.,0.,1.));
#239 = ADVANCED_FACE('',(#240),#258,.F.);
#240 = FACE_BOUND('',#241,.F.);
#241 = EDGE_LOOP('',(#242,#243,#244,#252));
#242 = ORIENTED_EDGE('',*,*,#219,.F.);
#243 = ORIENTED_EDGE('',*,*,#113,.T.);
#244 = ORIENTED_EDGE('',*,*,#245,.T.);
#245 = EDGE_CURVE('',#114,#246,#248,.T.);
#246 = VERTEX_POINT('',#247);
#247 = CARTESIAN_POINT('',(178.5,70.,0.));
#248 = LINE('',#249,#250);
#249 = CARTESIAN_POINT('',(180.5,70.,0.));
#250 = VECTOR('',#251,1.);
#251 = DIRECTION('',(-1.,1.110223024625E-16,0.));
#252 = ORIENTED_EDGE('',*,*,#253,.F.);
#253 = EDGE_CURVE('',#211,#246,#254,.T.);
#254 = LINE('',#255,#256);
#255 = CARTESIAN_POINT('',(178.5,17.5,0.));
#256 = VECTOR('',#257,1.);
#257 = DIRECTION('',(1.110223024625E-16,1.,0.));
#258 = PLANE('',#259);
#259 = AXIS2_PLACEMENT_3D('',#260,#261,#262);
#260 = CARTESIAN_POINT('',(180.5,17.5,0.));
#261 = DIRECTION('',(0.,0.,1.));
#262 = DIRECTION('',(1.110223024625E-16,1.,0.));
#263 = ADVANCED_FACE('',(#264),#282,.T.);
#264 = FACE_BOUND('',#265,.T.);
#265 = EDGE_LOOP('',(#266,#267,#268,#276));
#266 = ORIENTED_EDGE('',*,*,#130,.F.);
#267 = ORIENTED_EDGE('',*,*,#245,.T.);
#268 = ORIENTED_EDGE('',*,*,#269,.T.);
#269 = EDGE_CURVE('',#246,#270,#272,.T.);
#270 = VERTEX_POINT('',#271);
#271 = CARTESIAN_POINT('',(178.5,70.,35.));
#272 = LINE('',#273,#274);
#273 = CARTESIAN_POINT('',(178.5,70.,0.));
#274 = VECTOR('',#275,1.);
#275 = DIRECTION('',(0.,0.,1.));
#276 = ORIENTED_EDGE('',*,*,#277,.F.);
#277 = EDGE_CURVE('',#123,#270,#278,.T.);
#278 = LINE('',#279,#280);
#279 = CARTESIAN_POINT('',(180.5,70.,35.));
#280 = VECTOR('',#281,1.);
#281 = DIRECTION('',(-1.,1.110223024625E-16,0.));
#282 = PLANE('',#283);
#283 = AXIS2_PLACEMENT_3D('',#284,#285,#286);
#284 = CARTESIAN_POINT('',(180.5,70.,0.));
#285 = DIRECTION('',(1.110223024625E-16,1.,0.));
#286 = DIRECTION('',(0.,0.,1.));
#287 = ADVANCED_FACE('',(#288),#299,.T.);
#288 = FACE_BOUND('',#289,.T.);
#289 = EDGE_LOOP('',(#290,#291,#292,#293));
#290 = ORIENTED_EDGE('',*,*,#202,.F.);
#291 = ORIENTED_EDGE('',*,*,#122,.T.);
#292 = ORIENTED_EDGE('',*,*,#277,.T.);
#293 = ORIENTED_EDGE('',*,*,#294,.F.);
#294 = EDGE_CURVE('',#203,#270,#295,.T.);
#295 = LINE('',#296,#297);
#296 = CARTESIAN_POINT('',(178.5,17.5,35.));
#297 = VECTOR('',#298,1.);
#298 = DIRECTION('',(1.110223024625E-16,1.,0.));
#299 = PLANE('',#300);
#300 = AXIS2_PLACEMENT_3D('',#301,#302,#303);
#301 = CARTESIAN_POINT('',(180.5,17.5,35.));
#302 = DIRECTION('',(0.,0.,1.));
#303 = DIRECTION('',(1.110223024625E-16,1.,0.));
#304 = ADVANCED_FACE('',(#305),#324,.F.);
#305 = FACE_BOUND('',#306,.F.);
#306 = EDGE_LOOP('',(#307,#316,#322,#323));
#307 = ORIENTED_EDGE('',*,*,#308,.F.);
#308 = EDGE_CURVE('',#309,#309,#311,.T.);
#309 = VERTEX_POINT('',#310);
#310 = CARTESIAN_POINT('',(178.5,35.5,8.6));
#311 = CIRCLE('',#312,1.6);
#312 = AXIS2_PLACEMENT_3D('',#313,#314,#315);
#313 = CARTESIAN_POINT('',(178.5,35.5,7.));
#314 = DIRECTION('',(-1.,1.110223024625E-16,0.));
#315 = DIRECTION('',(0.,0.,1.));
#316 = ORIENTED_EDGE('',*,*,#317,.F.);
#317 = EDGE_CURVE('',#139,#309,#318,.T.);
#318 = LINE('',#319,#320);
#319 = CARTESIAN_POINT('',(181.5,35.5,8.6));
#320 = VECTOR('',#321,1.);
#321 = DIRECTION('',(-1.,1.110223024625E-16,0.));
#322 = ORIENTED_EDGE('',*,*,#138,.T.);
#323 = ORIENTED_EDGE('',*,*,#317,.T.);
#324 = CYLINDRICAL_SURFACE('',#325,1.6);
#325 = AXIS2_PLACEMENT_3D('',#326,#327,#328);
#326 = CARTESIAN_POINT('',(181.5,35.5,7.));
#327 = DIRECTION('',(-1.,1.110223024625E-16,0.));
#328 = DIRECTION('',(0.,0.,1.));
#329 = ADVANCED_FACE('',(#330),#349,.F.);
#330 = FACE_BOUND('',#331,.F.);
#331 = EDGE_LOOP('',(#332,#341,#347,#348));
#332 = ORIENTED_EDGE('',*,*,#333,.F.);
#333 = EDGE_CURVE('',#334,#334,#336,.T.);
#334 = VERTEX_POINT('',#335);
#335 = CARTESIAN_POINT('',(178.5,46.,8.6));
#336 = CIRCLE('',#337,1.6);
#337 = AXIS2_PLACEMENT_3D('',#338,#339,#340);
#338 = CARTESIAN_POINT('',(178.5,46.,7.));
#339 = DIRECTION('',(-1.,1.110223024625E-16,0.));
#340 = DIRECTION('',(0.,0.,1.));
#341 = ORIENTED_EDGE('',*,*,#342,.F.);
#342 = EDGE_CURVE('',#150,#334,#343,.T.);
#343 = LINE('',#344,#345);
#344 = CARTESIAN_POINT('',(181.5,46.,8.6));
#345 = VECTOR('',#346,1.);
#346 = DIRECTION('',(-1.,1.110223024625E-16,0.));
#347 = ORIENTED_EDGE('',*,*,#149,.T.);
#348 = ORIENTED_EDGE('',*,*,#342,.T.);
#349 = CYLINDRICAL_SURFACE('',#350,1.6);
#350 = AXIS2_PLACEMENT_3D('',#351,#352,#353);
#351 = CARTESIAN_POINT('',(181.5,46.,7.));
#352 = DIRECTION('',(-1.,1.110223024625E-16,0.));
#353 = DIRECTION('',(0.,0.,1.));
#354 = ADVANCED_FACE('',(#355),#381,.F.);
#355 = FACE_BOUND('',#356,.F.);
#356 = EDGE_LOOP('',(#357,#358,#366,#375));
#357 = ORIENTED_EDGE('',*,*,#160,.T.);
#358 = ORIENTED_EDGE('',*,*,#359,.T.);
#359 = EDGE_CURVE('',#163,#360,#362,.T.);
#360 = VERTEX_POINT('',#361);
#361 = CARTESIAN_POINT('',(178.5,56.,27.25));
#362 = LINE('',#363,#364);
#363 = CARTESIAN_POINT('',(181.5,56.,27.25));
#364 = VECTOR('',#365,1.);
#365 = DIRECTION('',(-1.,1.110223024625E-16,0.));
#366 = ORIENTED_EDGE('',*,*,#367,.F.);
#367 = EDGE_CURVE('',#368,#360,#370,.T.);
#368 = VERTEX_POINT('',#369);
#369 = CARTESIAN_POINT('',(178.5,56.,22.75));
#370 = CIRCLE('',#371,2.25);
#371 = AXIS2_PLACEMENT_3D('',#372,#373,#374);
#372 = CARTESIAN_POINT('',(178.5,56.,25.));
#373 = DIRECTION('',(-1.,1.110223024625E-16,0.));
#374 = DIRECTION('',(0.,0.,1.));
#375 = ORIENTED_EDGE('',*,*,#376,.F.);
#376 = EDGE_CURVE('',#161,#368,#377,.T.);
#377 = LINE('',#378,#379);
#378 = CARTESIAN_POINT('',(181.5,56.,22.75));
#379 = VECTOR('',#380,1.);
#380 = DIRECTION('',(-1.,1.110223024625E-16,0.));
#381 = CYLINDRICAL_SURFACE('',#382,2.25);
#382 = AXIS2_PLACEMENT_3D('',#383,#384,#385);
#383 = CARTESIAN_POINT('',(181.5,56.,25.));
#384 = DIRECTION('',(-1.,1.110223024625E-16,0.));
#385 = DIRECTION('',(0.,0.,1.));
#386 = ADVANCED_FACE('',(#387),#405,.T.);
#387 = FACE_BOUND('',#388,.T.);
#388 = EDGE_LOOP('',(#389,#390,#391,#399));
#389 = ORIENTED_EDGE('',*,*,#376,.F.);
#390 = ORIENTED_EDGE('',*,*,#171,.T.);
#391 = ORIENTED_EDGE('',*,*,#392,.T.);
#392 = EDGE_CURVE('',#172,#393,#395,.T.);
#393 = VERTEX_POINT('',#394);
#394 = CARTESIAN_POINT('',(178.5,64.,22.75));
#395 = LINE('',#396,#397);
#396 = CARTESIAN_POINT('',(181.5,64.,22.75));
#397 = VECTOR('',#398,1.);
#398 = DIRECTION('',(-1.,1.110223024625E-16,0.));
#399 = ORIENTED_EDGE('',*,*,#400,.F.);
#400 = EDGE_CURVE('',#368,#393,#401,.T.);
#401 = LINE('',#402,#403);
#402 = CARTESIAN_POINT('',(178.5,36.75,22.75));
#403 = VECTOR('',#404,1.);
#404 = DIRECTION('',(1.110223024625E-16,1.,0.));
#405 = PLANE('',#406);
#406 = AXIS2_PLACEMENT_3D('',#407,#408,#409);
#407 = CARTESIAN_POINT('',(181.5,56.,22.75));
#408 = DIRECTION('',(0.,0.,1.));
#409 = DIRECTION('',(1.110223024625E-16,1.,0.));
#410 = ADVANCED_FACE('',(#411),#429,.F.);
#411 = FACE_BOUND('',#412,.F.);
#412 = EDGE_LOOP('',(#413,#414,#415,#423));
#413 = ORIENTED_EDGE('',*,*,#359,.F.);
#414 = ORIENTED_EDGE('',*,*,#188,.T.);
#415 = ORIENTED_EDGE('',*,*,#416,.T.);
#416 = EDGE_CURVE('',#180,#417,#419,.T.);
#417 = VERTEX_POINT('',#418);
#418 = CARTESIAN_POINT('',(178.5,64.,27.25));
#419 = LINE('',#420,#421);
#420 = CARTESIAN_POINT('',(181.5,64.,27.25));
#421 = VECTOR('',#422,1.);
#422 = DIRECTION('',(-1.,1.110223024625E-16,0.));
#423 = ORIENTED_EDGE('',*,*,#424,.F.);
#424 = EDGE_CURVE('',#360,#417,#425,.T.);
#425 = LINE('',#426,#427);
#426 = CARTESIAN_POINT('',(178.5,36.75,27.25));
#427 = VECTOR('',#428,1.);
#428 = DIRECTION('',(1.110223024625E-16,1.,0.));
#429 = PLANE('',#430);
#430 = AXIS2_PLACEMENT_3D('',#431,#432,#433);
#431 = CARTESIAN_POINT('',(181.5,56.,27.25));
#432 = DIRECTION('',(0.,0.,1.));
#433 = DIRECTION('',(1.110223024625E-16,1.,0.));
#434 = ADVANCED_FACE('',(#435),#447,.F.);
#435 = FACE_BOUND('',#436,.F.);
#436 = EDGE_LOOP('',(#437,#444,#445,#446));
#437 = ORIENTED_EDGE('',*,*,#438,.F.);
#438 = EDGE_CURVE('',#417,#393,#439,.T.);
#439 = CIRCLE('',#440,2.25);
#440 = AXIS2_PLACEMENT_3D('',#441,#442,#443);
#441 = CARTESIAN_POINT('',(178.5,64.,25.));
#442 = DIRECTION('',(-1.,1.110223024625E-16,0.));
#443 = DIRECTION('',(0.,0.,1.));
#444 = ORIENTED_EDGE('',*,*,#416,.F.);
#445 = ORIENTED_EDGE('',*,*,#179,.T.);
#446 = ORIENTED_EDGE('',*,*,#392,.T.);
#447 = CYLINDRICAL_SURFACE('',#448,2.25);
#448 = AXIS2_PLACEMENT_3D('',#449,#450,#451);
#449 = CARTESIAN_POINT('',(181.5,64.,25.));
#450 = DIRECTION('',(-1.,1.110223024625E-16,0.));
#451 = DIRECTION('',(0.,0.,1.));
#452 = ADVANCED_FACE('',(#453),#462,.T.);
#453 = FACE_BOUND('',#454,.T.);
#454 = EDGE_LOOP('',(#455,#456));
#455 = ORIENTED_EDGE('',*,*,#210,.T.);
#456 = ORIENTED_EDGE('',*,*,#457,.F.);
#457 = EDGE_CURVE('',#211,#203,#458,.T.);
#458 = LINE('',#459,#460);
#459 = CARTESIAN_POINT('',(178.5,17.5,0.));
#460 = VECTOR('',#461,1.);
#461 = DIRECTION('',(0.,0.,1.));
#462 = PLANE('',#463);
#463 = AXIS2_PLACEMENT_3D('',#464,#465,#466);
#464 = CARTESIAN_POINT('',(178.5,17.5,17.5));
#465 = DIRECTION('',(-1.,1.110223024625E-16,0.));
#466 = DIRECTION('',(0.,0.,1.));
#467 = ADVANCED_FACE('',(#468,#480,#483,#486),#492,.T.);
#468 = FACE_BOUND('',#469,.T.);
#469 = EDGE_LOOP('',(#470,#471,#478,#479));
#470 = ORIENTED_EDGE('',*,*,#253,.F.);
#471 = ORIENTED_EDGE('',*,*,#472,.F.);
#472 = EDGE_CURVE('',#203,#211,#473,.T.);
#473 = CIRCLE('',#474,17.5);
#474 = AXIS2_PLACEMENT_3D('',#475,#476,#477);
#475 = CARTESIAN_POINT('',(178.5,17.5,17.5));
#476 = DIRECTION('',(-1.,1.110223024625E-16,0.));
#477 = DIRECTION('',(0.,0.,1.));
#478 = ORIENTED_EDGE('',*,*,#294,.T.);
#479 = ORIENTED_EDGE('',*,*,#269,.F.);
#480 = FACE_BOUND('',#481,.T.);
#481 = EDGE_LOOP('',(#482));
#482 = ORIENTED_EDGE('',*,*,#308,.F.);
#483 = FACE_BOUND('',#484,.T.);
#484 = EDGE_LOOP('',(#485));
#485 = ORIENTED_EDGE('',*,*,#333,.F.);
#486 = FACE_BOUND('',#487,.T.);
#487 = EDGE_LOOP('',(#488,#489,#490,#491));
#488 = ORIENTED_EDGE('',*,*,#367,.F.);
#489 = ORIENTED_EDGE('',*,*,#400,.T.);
#490 = ORIENTED_EDGE('',*,*,#438,.F.);
#491 = ORIENTED_EDGE('',*,*,#424,.F.);
#492 = PLANE('',#493);
#493 = AXIS2_PLACEMENT_3D('',#494,#495,#496);
#494 = CARTESIAN_POINT('',(178.5,17.5,0.));
#495 = DIRECTION('',(-1.,1.110223024625E-16,0.));
#496 = DIRECTION('',(0.,0.,1.));
#497 = ADVANCED_FACE('',(#498),#502,.T.);
#498 = FACE_BOUND('',#499,.T.);
#499 = EDGE_LOOP('',(#500,#501));
#500 = ORIENTED_EDGE('',*,*,#472,.T.);
#501 = ORIENTED_EDGE('',*,*,#457,.T.);
#502 = PLANE('',#503);
#503 = AXIS2_PLACEMENT_3D('',#504,#505,#506);
#504 = CARTESIAN_POINT('',(178.5,17.5,0.));
#505 = DIRECTION('',(-1.,1.110223024625E-16,0.));
#506 = DIRECTION('',(0.,0.,1.));
#507 = MANIFOLD_SOLID_BREP('',#508);
#508 = CLOSED_SHELL('',(#509,#559,#591,#617,#706,#755,#764,#789,#813,
    #830,#855,#880,#912,#936,#960,#978,#994,#1011));
#509 = ADVANCED_FACE('',(#510),#554,.F.);
#510 = FACE_BOUND('',#511,.F.);
#511 = EDGE_LOOP('',(#512,#523,#531,#539,#548));
#512 = ORIENTED_EDGE('',*,*,#513,.F.);
#513 = EDGE_CURVE('',#514,#516,#518,.T.);
#514 = VERTEX_POINT('',#515);
#515 = CARTESIAN_POINT('',(123.5,17.5,22.5));
#516 = VERTEX_POINT('',#517);
#517 = CARTESIAN_POINT('',(123.5,17.5,12.5));
#518 = CIRCLE('',#519,5.);
#519 = AXIS2_PLACEMENT_3D('',#520,#521,#522);
#520 = CARTESIAN_POINT('',(123.5,17.5,17.5));
#521 = DIRECTION('',(-1.,1.110223024625E-16,0.));
#522 = DIRECTION('',(0.,0.,1.));
#523 = ORIENTED_EDGE('',*,*,#524,.T.);
#524 = EDGE_CURVE('',#514,#525,#527,.T.);
#525 = VERTEX_POINT('',#526);
#526 = CARTESIAN_POINT('',(123.5,17.5,30.));
#527 = LINE('',#528,#529);
#528 = CARTESIAN_POINT('',(123.5,17.5,0.));
#529 = VECTOR('',#530,1.);
#530 = DIRECTION('',(0.,0.,1.));
#531 = ORIENTED_EDGE('',*,*,#532,.T.);
#532 = EDGE_CURVE('',#525,#533,#535,.T.);
#533 = VERTEX_POINT('',#534);
#534 = CARTESIAN_POINT('',(123.5,29.747448713916,30.));
#535 = LINE('',#536,#537);
#536 = CARTESIAN_POINT('',(123.5,-8.75,30.));
#537 = VECTOR('',#538,1.);
#538 = DIRECTION('',(1.110223024625E-16,1.,0.));
#539 = ORIENTED_EDGE('',*,*,#540,.T.);
#540 = EDGE_CURVE('',#533,#541,#543,.T.);
#541 = VERTEX_POINT('',#542);
#542 = CARTESIAN_POINT('',(123.5,17.5,0.));
#543 = CIRCLE('',#544,17.5);
#544 = AXIS2_PLACEMENT_3D('',#545,#546,#547);
#545 = CARTESIAN_POINT('',(123.5,17.5,17.5));
#546 = DIRECTION('',(-1.,1.110223024625E-16,0.));
#547 = DIRECTION('',(0.,0.,1.));
#548 = ORIENTED_EDGE('',*,*,#549,.T.);
#549 = EDGE_CURVE('',#541,#516,#550,.T.);
#550 = LINE('',#551,#552);
#551 = CARTESIAN_POINT('',(123.5,17.5,0.));
#552 = VECTOR('',#553,1.);
#553 = DIRECTION('',(0.,0.,1.));
#554 = PLANE('',#555);
#555 = AXIS2_PLACEMENT_3D('',#556,#557,#558);
#556 = CARTESIAN_POINT('',(123.5,17.5,0.));
#557 = DIRECTION('',(-1.,1.110223024625E-16,0.));
#558 = DIRECTION('',(0.,0.,1.));
#559 = ADVANCED_FACE('',(#560),#586,.F.);
#560 = FACE_BOUND('',#561,.F.);
#561 = EDGE_LOOP('',(#562,#570,#577,#578,#579));
#562 = ORIENTED_EDGE('',*,*,#563,.T.);
#563 = EDGE_CURVE('',#514,#564,#566,.T.);
#564 = VERTEX_POINT('',#565);
#565 = CARTESIAN_POINT('',(122.5,17.5,22.5));
#566 = LINE('',#567,#568);
#567 = CARTESIAN_POINT('',(124.5,17.5,22.5));
#568 = VECTOR('',#569,1.);
#569 = DIRECTION('',(-1.,1.110223024625E-16,0.));
#570 = ORIENTED_EDGE('',*,*,#571,.F.);
#571 = EDGE_CURVE('',#564,#564,#572,.T.);
#572 = CIRCLE('',#573,5.);
#573 = AXIS2_PLACEMENT_3D('',#574,#575,#576);
#574 = CARTESIAN_POINT('',(122.5,17.5,17.5));
#575 = DIRECTION('',(-1.,1.110223024625E-16,0.));
#576 = DIRECTION('',(0.,0.,1.));
#577 = ORIENTED_EDGE('',*,*,#563,.F.);
#578 = ORIENTED_EDGE('',*,*,#513,.T.);
#579 = ORIENTED_EDGE('',*,*,#580,.T.);
#580 = EDGE_CURVE('',#516,#514,#581,.T.);
#581 = CIRCLE('',#582,5.);
#582 = AXIS2_PLACEMENT_3D('',#583,#584,#585);
#583 = CARTESIAN_POINT('',(123.5,17.5,17.5));
#584 = DIRECTION('',(-1.,1.110223024625E-16,0.));
#585 = DIRECTION('',(0.,0.,1.));
#586 = CYLINDRICAL_SURFACE('',#587,5.);
#587 = AXIS2_PLACEMENT_3D('',#588,#589,#590);
#588 = CARTESIAN_POINT('',(124.5,17.5,17.5));
#589 = DIRECTION('',(-1.,1.110223024625E-16,0.));
#590 = DIRECTION('',(0.,0.,1.));
#591 = ADVANCED_FACE('',(#592),#612,.F.);
#592 = FACE_BOUND('',#593,.F.);
#593 = EDGE_LOOP('',(#594,#595,#604,#610,#611));
#594 = ORIENTED_EDGE('',*,*,#549,.F.);
#595 = ORIENTED_EDGE('',*,*,#596,.T.);
#596 = EDGE_CURVE('',#541,#597,#599,.T.);
#597 = VERTEX_POINT('',#598);
#598 = CARTESIAN_POINT('',(123.5,5.252551286084,30.));
#599 = CIRCLE('',#600,17.5);
#600 = AXIS2_PLACEMENT_3D('',#601,#602,#603);
#601 = CARTESIAN_POINT('',(123.5,17.5,17.5));
#602 = DIRECTION('',(-1.,1.110223024625E-16,0.));
#603 = DIRECTION('',(0.,0.,1.));
#604 = ORIENTED_EDGE('',*,*,#605,.T.);
#605 = EDGE_CURVE('',#597,#525,#606,.T.);
#606 = LINE('',#607,#608);
#607 = CARTESIAN_POINT('',(123.5,-8.75,30.));
#608 = VECTOR('',#609,1.);
#609 = DIRECTION('',(1.110223024625E-16,1.,0.));
#610 = ORIENTED_EDGE('',*,*,#524,.F.);
#611 = ORIENTED_EDGE('',*,*,#580,.F.);
#612 = PLANE('',#613);
#613 = AXIS2_PLACEMENT_3D('',#614,#615,#616);
#614 = CARTESIAN_POINT('',(123.5,17.5,17.5));
#615 = DIRECTION('',(-1.,1.110223024625E-16,0.));
#616 = DIRECTION('',(0.,0.,1.));
#617 = ADVANCED_FACE('',(#618,#643,#654,#665),#701,.F.);
#618 = FACE_BOUND('',#619,.F.);
#619 = EDGE_LOOP('',(#620,#628,#629,#637));
#620 = ORIENTED_EDGE('',*,*,#621,.F.);
#621 = EDGE_CURVE('',#541,#622,#624,.T.);
#622 = VERTEX_POINT('',#623);
#623 = CARTESIAN_POINT('',(123.5,70.,0.));
#624 = LINE('',#625,#626);
#625 = CARTESIAN_POINT('',(123.5,17.5,0.));
#626 = VECTOR('',#627,1.);
#627 = DIRECTION('',(1.110223024625E-16,1.,0.));
#628 = ORIENTED_EDGE('',*,*,#540,.F.);
#629 = ORIENTED_EDGE('',*,*,#630,.T.);
#630 = EDGE_CURVE('',#533,#631,#633,.T.);
#631 = VERTEX_POINT('',#632);
#632 = CARTESIAN_POINT('',(123.5,70.,30.));
#633 = LINE('',#634,#635);
#634 = CARTESIAN_POINT('',(123.5,-8.75,30.));
#635 = VECTOR('',#636,1.);
#636 = DIRECTION('',(1.110223024625E-16,1.,0.));
#637 = ORIENTED_EDGE('',*,*,#638,.F.);
#638 = EDGE_CURVE('',#622,#631,#639,.T.);
#639 = LINE('',#640,#641);
#640 = CARTESIAN_POINT('',(123.5,70.,0.));
#641 = VECTOR('',#642,1.);
#642 = DIRECTION('',(0.,0.,1.));
#643 = FACE_BOUND('',#644,.F.);
#644 = EDGE_LOOP('',(#645));
#645 = ORIENTED_EDGE('',*,*,#646,.F.);
#646 = EDGE_CURVE('',#647,#647,#649,.T.);
#647 = VERTEX_POINT('',#648);
#648 = CARTESIAN_POINT('',(123.5,35.5,8.6));
#649 = CIRCLE('',#650,1.6);
#650 = AXIS2_PLACEMENT_3D('',#651,#652,#653);
#651 = CARTESIAN_POINT('',(123.5,35.5,7.));
#652 = DIRECTION('',(-1.,1.110223024625E-16,0.));
#653 = DIRECTION('',(0.,0.,1.));
#654 = FACE_BOUND('',#655,.F.);
#655 = EDGE_LOOP('',(#656));
#656 = ORIENTED_EDGE('',*,*,#657,.F.);
#657 = EDGE_CURVE('',#658,#658,#660,.T.);
#658 = VERTEX_POINT('',#659);
#659 = CARTESIAN_POINT('',(123.5,46.,8.6));
#660 = CIRCLE('',#661,1.6);
#661 = AXIS2_PLACEMENT_3D('',#662,#663,#664);
#662 = CARTESIAN_POINT('',(123.5,46.,7.));
#663 = DIRECTION('',(-1.,1.110223024625E-16,0.));
#664 = DIRECTION('',(0.,0.,1.));
#665 = FACE_BOUND('',#666,.F.);
#666 = EDGE_LOOP('',(#667,#678,#686,#695));
#667 = ORIENTED_EDGE('',*,*,#668,.F.);
#668 = EDGE_CURVE('',#669,#671,#673,.T.);
#669 = VERTEX_POINT('',#670);
#670 = CARTESIAN_POINT('',(123.5,56.,22.75));
#671 = VERTEX_POINT('',#672);
#672 = CARTESIAN_POINT('',(123.5,56.,27.25));
#673 = CIRCLE('',#674,2.25);
#674 = AXIS2_PLACEMENT_3D('',#675,#676,#677);
#675 = CARTESIAN_POINT('',(123.5,56.,25.));
#676 = DIRECTION('',(-1.,1.110223024625E-16,0.));
#677 = DIRECTION('',(0.,0.,1.));
#678 = ORIENTED_EDGE('',*,*,#679,.T.);
#679 = EDGE_CURVE('',#669,#680,#682,.T.);
#680 = VERTEX_POINT('',#681);
#681 = CARTESIAN_POINT('',(123.5,64.,22.75));
#682 = LINE('',#683,#684);
#683 = CARTESIAN_POINT('',(123.5,36.75,22.75));
#684 = VECTOR('',#685,1.);
#685 = DIRECTION('',(1.110223024625E-16,1.,0.));
#686 = ORIENTED_EDGE('',*,*,#687,.F.);
#687 = EDGE_CURVE('',#688,#680,#690,.T.);
#688 = VERTEX_POINT('',#689);
#689 = CARTESIAN_POINT('',(123.5,64.,27.25));
#690 = CIRCLE('',#691,2.25);
#691 = AXIS2_PLACEMENT_3D('',#692,#693,#694);
#692 = CARTESIAN_POINT('',(123.5,64.,25.));
#693 = DIRECTION('',(-1.,1.110223024625E-16,0.));
#694 = DIRECTION('',(0.,0.,1.));
#695 = ORIENTED_EDGE('',*,*,#696,.F.);
#696 = EDGE_CURVE('',#671,#688,#697,.T.);
#697 = LINE('',#698,#699);
#698 = CARTESIAN_POINT('',(123.5,36.75,27.25));
#699 = VECTOR('',#700,1.);
#700 = DIRECTION('',(1.110223024625E-16,1.,0.));
#701 = PLANE('',#702);
#702 = AXIS2_PLACEMENT_3D('',#703,#704,#705);
#703 = CARTESIAN_POINT('',(123.5,17.5,0.));
#704 = DIRECTION('',(-1.,1.110223024625E-16,0.));
#705 = DIRECTION('',(0.,0.,1.));
#706 = ADVANCED_FACE('',(#707),#750,.T.);
#707 = FACE_BOUND('',#708,.T.);
#708 = EDGE_LOOP('',(#709,#710,#711,#712,#720,#728,#736,#744));
#709 = ORIENTED_EDGE('',*,*,#605,.T.);
#710 = ORIENTED_EDGE('',*,*,#532,.T.);
#711 = ORIENTED_EDGE('',*,*,#630,.T.);
#712 = ORIENTED_EDGE('',*,*,#713,.F.);
#713 = EDGE_CURVE('',#714,#631,#716,.T.);
#714 = VERTEX_POINT('',#715);
#715 = CARTESIAN_POINT('',(121.5,70.,30.));
#716 = LINE('',#717,#718);
#717 = CARTESIAN_POINT('',(124.,70.,30.));
#718 = VECTOR('',#719,1.);
#719 = DIRECTION('',(1.,-1.110223024625E-16,0.));
#720 = ORIENTED_EDGE('',*,*,#721,.F.);
#721 = EDGE_CURVE('',#722,#714,#724,.T.);
#722 = VERTEX_POINT('',#723);
#723 = CARTESIAN_POINT('',(121.5,29.747448713916,30.));
#724 = LINE('',#725,#726);
#725 = CARTESIAN_POINT('',(121.5,-8.75,30.));
#726 = VECTOR('',#727,1.);
#727 = DIRECTION('',(1.110223024625E-16,1.,0.));
#728 = ORIENTED_EDGE('',*,*,#729,.F.);
#729 = EDGE_CURVE('',#730,#722,#732,.T.);
#730 = VERTEX_POINT('',#731);
#731 = CARTESIAN_POINT('',(121.5,17.5,30.));
#732 = LINE('',#733,#734);
#733 = CARTESIAN_POINT('',(121.5,-8.75,30.));
#734 = VECTOR('',#735,1.);
#735 = DIRECTION('',(1.110223024625E-16,1.,0.));
#736 = ORIENTED_EDGE('',*,*,#737,.F.);
#737 = EDGE_CURVE('',#738,#730,#740,.T.);
#738 = VERTEX_POINT('',#739);
#739 = CARTESIAN_POINT('',(121.5,5.252551286084,30.));
#740 = LINE('',#741,#742);
#741 = CARTESIAN_POINT('',(121.5,-8.75,30.));
#742 = VECTOR('',#743,1.);
#743 = DIRECTION('',(1.110223024625E-16,1.,0.));
#744 = ORIENTED_EDGE('',*,*,#745,.F.);
#745 = EDGE_CURVE('',#597,#738,#746,.T.);
#746 = LINE('',#747,#748);
#747 = CARTESIAN_POINT('',(123.5,5.252551286084,30.));
#748 = VECTOR('',#749,1.);
#749 = DIRECTION('',(-1.,1.110223024625E-16,0.));
#750 = PLANE('',#751);
#751 = AXIS2_PLACEMENT_3D('',#752,#753,#754);
#752 = CARTESIAN_POINT('',(124.5,-35.,30.));
#753 = DIRECTION('',(0.,0.,1.));
#754 = DIRECTION('',(1.110223024625E-16,1.,0.));
#755 = ADVANCED_FACE('',(#756),#759,.F.);
#756 = FACE_BOUND('',#757,.F.);
#757 = EDGE_LOOP('',(#758));
#758 = ORIENTED_EDGE('',*,*,#571,.T.);
#759 = PLANE('',#760);
#760 = AXIS2_PLACEMENT_3D('',#761,#762,#763);
#761 = CARTESIAN_POINT('',(122.5,17.5,17.5));
#762 = DIRECTION('',(-1.,1.110223024625E-16,0.));
#763 = DIRECTION('',(0.,0.,1.));
#764 = ADVANCED_FACE('',(#765),#784,.T.);
#765 = FACE_BOUND('',#766,.T.);
#766 = EDGE_LOOP('',(#767,#768,#769,#778));
#767 = ORIENTED_EDGE('',*,*,#596,.T.);
#768 = ORIENTED_EDGE('',*,*,#745,.T.);
#769 = ORIENTED_EDGE('',*,*,#770,.F.);
#770 = EDGE_CURVE('',#771,#738,#773,.T.);
#771 = VERTEX_POINT('',#772);
#772 = CARTESIAN_POINT('',(121.5,17.5,0.));
#773 = CIRCLE('',#774,17.5);
#774 = AXIS2_PLACEMENT_3D('',#775,#776,#777);
#775 = CARTESIAN_POINT('',(121.5,17.5,17.5));
#776 = DIRECTION('',(-1.,1.110223024625E-16,0.));
#777 = DIRECTION('',(0.,0.,1.));
#778 = ORIENTED_EDGE('',*,*,#779,.F.);
#779 = EDGE_CURVE('',#541,#771,#780,.T.);
#780 = LINE('',#781,#782);
#781 = CARTESIAN_POINT('',(123.5,17.5,0.));
#782 = VECTOR('',#783,1.);
#783 = DIRECTION('',(-1.,1.110223024625E-16,0.));
#784 = CYLINDRICAL_SURFACE('',#785,17.5);
#785 = AXIS2_PLACEMENT_3D('',#786,#787,#788);
#786 = CARTESIAN_POINT('',(123.5,17.5,17.5));
#787 = DIRECTION('',(-1.,1.110223024625E-16,0.));
#788 = DIRECTION('',(0.,0.,1.));
#789 = ADVANCED_FACE('',(#790),#808,.F.);
#790 = FACE_BOUND('',#791,.F.);
#791 = EDGE_LOOP('',(#792,#793,#794,#802));
#792 = ORIENTED_EDGE('',*,*,#779,.F.);
#793 = ORIENTED_EDGE('',*,*,#621,.T.);
#794 = ORIENTED_EDGE('',*,*,#795,.T.);
#795 = EDGE_CURVE('',#622,#796,#798,.T.);
#796 = VERTEX_POINT('',#797);
#797 = CARTESIAN_POINT('',(121.5,70.,0.));
#798 = LINE('',#799,#800);
#799 = CARTESIAN_POINT('',(123.5,70.,0.));
#800 = VECTOR('',#801,1.);
#801 = DIRECTION('',(-1.,1.110223024625E-16,0.));
#802 = ORIENTED_EDGE('',*,*,#803,.F.);
#803 = EDGE_CURVE('',#771,#796,#804,.T.);
#804 = LINE('',#805,#806);
#805 = CARTESIAN_POINT('',(121.5,17.5,0.));
#806 = VECTOR('',#807,1.);
#807 = DIRECTION('',(1.110223024625E-16,1.,0.));
#808 = PLANE('',#809);
#809 = AXIS2_PLACEMENT_3D('',#810,#811,#812);
#810 = CARTESIAN_POINT('',(123.5,17.5,0.));
#811 = DIRECTION('',(0.,0.,1.));
#812 = DIRECTION('',(1.110223024625E-16,1.,0.));
#813 = ADVANCED_FACE('',(#814),#825,.T.);
#814 = FACE_BOUND('',#815,.T.);
#815 = EDGE_LOOP('',(#816,#817,#818,#824));
#816 = ORIENTED_EDGE('',*,*,#638,.F.);
#817 = ORIENTED_EDGE('',*,*,#795,.T.);
#818 = ORIENTED_EDGE('',*,*,#819,.T.);
#819 = EDGE_CURVE('',#796,#714,#820,.T.);
#820 = LINE('',#821,#822);
#821 = CARTESIAN_POINT('',(121.5,70.,0.));
#822 = VECTOR('',#823,1.);
#823 = DIRECTION('',(0.,0.,1.));
#824 = ORIENTED_EDGE('',*,*,#713,.T.);
#825 = PLANE('',#826);
#826 = AXIS2_PLACEMENT_3D('',#827,#828,#829);
#827 = CARTESIAN_POINT('',(123.5,70.,0.));
#828 = DIRECTION('',(1.110223024625E-16,1.,0.));
#829 = DIRECTION('',(0.,0.,1.));
#830 = ADVANCED_FACE('',(#831),#850,.F.);
#831 = FACE_BOUND('',#832,.F.);
#832 = EDGE_LOOP('',(#833,#842,#848,#849));
#833 = ORIENTED_EDGE('',*,*,#834,.F.);
#834 = EDGE_CURVE('',#835,#835,#837,.T.);
#835 = VERTEX_POINT('',#836);
#836 = CARTESIAN_POINT('',(121.5,35.5,8.6));
#837 = CIRCLE('',#838,1.6);
#838 = AXIS2_PLACEMENT_3D('',#839,#840,#841);
#839 = CARTESIAN_POINT('',(121.5,35.5,7.));
#840 = DIRECTION('',(-1.,1.110223024625E-16,0.));
#841 = DIRECTION('',(0.,0.,1.));
#842 = ORIENTED_EDGE('',*,*,#843,.F.);
#843 = EDGE_CURVE('',#647,#835,#844,.T.);
#844 = LINE('',#845,#846);
#845 = CARTESIAN_POINT('',(124.5,35.5,8.6));
#846 = VECTOR('',#847,1.);
#847 = DIRECTION('',(-1.,1.110223024625E-16,0.));
#848 = ORIENTED_EDGE('',*,*,#646,.T.);
#849 = ORIENTED_EDGE('',*,*,#843,.T.);
#850 = CYLINDRICAL_SURFACE('',#851,1.6);
#851 = AXIS2_PLACEMENT_3D('',#852,#853,#854);
#852 = CARTESIAN_POINT('',(124.5,35.5,7.));
#853 = DIRECTION('',(-1.,1.110223024625E-16,0.));
#854 = DIRECTION('',(0.,0.,1.));
#855 = ADVANCED_FACE('',(#856),#875,.F.);
#856 = FACE_BOUND('',#857,.F.);
#857 = EDGE_LOOP('',(#858,#867,#873,#874));
#858 = ORIENTED_EDGE('',*,*,#859,.F.);
#859 = EDGE_CURVE('',#860,#860,#862,.T.);
#860 = VERTEX_POINT('',#861);
#861 = CARTESIAN_POINT('',(121.5,46.,8.6));
#862 = CIRCLE('',#863,1.6);
#863 = AXIS2_PLACEMENT_3D('',#864,#865,#866);
#864 = CARTESIAN_POINT('',(121.5,46.,7.));
#865 = DIRECTION('',(-1.,1.110223024625E-16,0.));
#866 = DIRECTION('',(0.,0.,1.));
#867 = ORIENTED_EDGE('',*,*,#868,.F.);
#868 = EDGE_CURVE('',#658,#860,#869,.T.);
#869 = LINE('',#870,#871);
#870 = CARTESIAN_POINT('',(124.5,46.,8.6));
#871 = VECTOR('',#872,1.);
#872 = DIRECTION('',(-1.,1.110223024625E-16,0.));
#873 = ORIENTED_EDGE('',*,*,#657,.T.);
#874 = ORIENTED_EDGE('',*,*,#868,.T.);
#875 = CYLINDRICAL_SURFACE('',#876,1.6);
#876 = AXIS2_PLACEMENT_3D('',#877,#878,#879);
#877 = CARTESIAN_POINT('',(124.5,46.,7.));
#878 = DIRECTION('',(-1.,1.110223024625E-16,0.));
#879 = DIRECTION('',(0.,0.,1.));
#880 = ADVANCED_FACE('',(#881),#907,.F.);
#881 = FACE_BOUND('',#882,.F.);
#882 = EDGE_LOOP('',(#883,#884,#892,#901));
#883 = ORIENTED_EDGE('',*,*,#668,.T.);
#884 = ORIENTED_EDGE('',*,*,#885,.T.);
#885 = EDGE_CURVE('',#671,#886,#888,.T.);
#886 = VERTEX_POINT('',#887);
#887 = CARTESIAN_POINT('',(121.5,56.,27.25));
#888 = LINE('',#889,#890);
#889 = CARTESIAN_POINT('',(124.5,56.,27.25));
#890 = VECTOR('',#891,1.);
#891 = DIRECTION('',(-1.,1.110223024625E-16,0.));
#892 = ORIENTED_EDGE('',*,*,#893,.F.);
#893 = EDGE_CURVE('',#894,#886,#896,.T.);
#894 = VERTEX_POINT('',#895);
#895 = CARTESIAN_POINT('',(121.5,56.,22.75));
#896 = CIRCLE('',#897,2.25);
#897 = AXIS2_PLACEMENT_3D('',#898,#899,#900);
#898 = CARTESIAN_POINT('',(121.5,56.,25.));
#899 = DIRECTION('',(-1.,1.110223024625E-16,0.));
#900 = DIRECTION('',(0.,0.,1.));
#901 = ORIENTED_EDGE('',*,*,#902,.F.);
#902 = EDGE_CURVE('',#669,#894,#903,.T.);
#903 = LINE('',#904,#905);
#904 = CARTESIAN_POINT('',(124.5,56.,22.75));
#905 = VECTOR('',#906,1.);
#906 = DIRECTION('',(-1.,1.110223024625E-16,0.));
#907 = CYLINDRICAL_SURFACE('',#908,2.25);
#908 = AXIS2_PLACEMENT_3D('',#909,#910,#911);
#909 = CARTESIAN_POINT('',(124.5,56.,25.));
#910 = DIRECTION('',(-1.,1.110223024625E-16,0.));
#911 = DIRECTION('',(0.,0.,1.));
#912 = ADVANCED_FACE('',(#913),#931,.T.);
#913 = FACE_BOUND('',#914,.T.);
#914 = EDGE_LOOP('',(#915,#916,#917,#925));
#915 = ORIENTED_EDGE('',*,*,#902,.F.);
#916 = ORIENTED_EDGE('',*,*,#679,.T.);
#917 = ORIENTED_EDGE('',*,*,#918,.T.);
#918 = EDGE_CURVE('',#680,#919,#921,.T.);
#919 = VERTEX_POINT('',#920);
#920 = CARTESIAN_POINT('',(121.5,64.,22.75));
#921 = LINE('',#922,#923);
#922 = CARTESIAN_POINT('',(124.5,64.,22.75));
#923 = VECTOR('',#924,1.);
#924 = DIRECTION('',(-1.,1.110223024625E-16,0.));
#925 = ORIENTED_EDGE('',*,*,#926,.F.);
#926 = EDGE_CURVE('',#894,#919,#927,.T.);
#927 = LINE('',#928,#929);
#928 = CARTESIAN_POINT('',(121.5,36.75,22.75));
#929 = VECTOR('',#930,1.);
#930 = DIRECTION('',(1.110223024625E-16,1.,0.));
#931 = PLANE('',#932);
#932 = AXIS2_PLACEMENT_3D('',#933,#934,#935);
#933 = CARTESIAN_POINT('',(124.5,56.,22.75));
#934 = DIRECTION('',(0.,0.,1.));
#935 = DIRECTION('',(1.110223024625E-16,1.,0.));
#936 = ADVANCED_FACE('',(#937),#955,.F.);
#937 = FACE_BOUND('',#938,.F.);
#938 = EDGE_LOOP('',(#939,#940,#941,#949));
#939 = ORIENTED_EDGE('',*,*,#885,.F.);
#940 = ORIENTED_EDGE('',*,*,#696,.T.);
#941 = ORIENTED_EDGE('',*,*,#942,.T.);
#942 = EDGE_CURVE('',#688,#943,#945,.T.);
#943 = VERTEX_POINT('',#944);
#944 = CARTESIAN_POINT('',(121.5,64.,27.25));
#945 = LINE('',#946,#947);
#946 = CARTESIAN_POINT('',(124.5,64.,27.25));
#947 = VECTOR('',#948,1.);
#948 = DIRECTION('',(-1.,1.110223024625E-16,0.));
#949 = ORIENTED_EDGE('',*,*,#950,.F.);
#950 = EDGE_CURVE('',#886,#943,#951,.T.);
#951 = LINE('',#952,#953);
#952 = CARTESIAN_POINT('',(121.5,36.75,27.25));
#953 = VECTOR('',#954,1.);
#954 = DIRECTION('',(1.110223024625E-16,1.,0.));
#955 = PLANE('',#956);
#956 = AXIS2_PLACEMENT_3D('',#957,#958,#959);
#957 = CARTESIAN_POINT('',(124.5,56.,27.25));
#958 = DIRECTION('',(0.,0.,1.));
#959 = DIRECTION('',(1.110223024625E-16,1.,0.));
#960 = ADVANCED_FACE('',(#961),#973,.F.);
#961 = FACE_BOUND('',#962,.F.);
#962 = EDGE_LOOP('',(#963,#970,#971,#972));
#963 = ORIENTED_EDGE('',*,*,#964,.F.);
#964 = EDGE_CURVE('',#943,#919,#965,.T.);
#965 = CIRCLE('',#966,2.25);
#966 = AXIS2_PLACEMENT_3D('',#967,#968,#969);
#967 = CARTESIAN_POINT('',(121.5,64.,25.));
#968 = DIRECTION('',(-1.,1.110223024625E-16,0.));
#969 = DIRECTION('',(0.,0.,1.));
#970 = ORIENTED_EDGE('',*,*,#942,.F.);
#971 = ORIENTED_EDGE('',*,*,#687,.T.);
#972 = ORIENTED_EDGE('',*,*,#918,.T.);
#973 = CYLINDRICAL_SURFACE('',#974,2.25);
#974 = AXIS2_PLACEMENT_3D('',#975,#976,#977);
#975 = CARTESIAN_POINT('',(124.5,64.,25.));
#976 = DIRECTION('',(-1.,1.110223024625E-16,0.));
#977 = DIRECTION('',(0.,0.,1.));
#978 = ADVANCED_FACE('',(#979),#989,.T.);
#979 = FACE_BOUND('',#980,.T.);
#980 = EDGE_LOOP('',(#981,#987,#988));
#981 = ORIENTED_EDGE('',*,*,#982,.F.);
#982 = EDGE_CURVE('',#771,#730,#983,.T.);
#983 = LINE('',#984,#985);
#984 = CARTESIAN_POINT('',(121.5,17.5,0.));
#985 = VECTOR('',#986,1.);
#986 = DIRECTION('',(0.,0.,1.));
#987 = ORIENTED_EDGE('',*,*,#770,.T.);
#988 = ORIENTED_EDGE('',*,*,#737,.T.);
#989 = PLANE('',#990);
#990 = AXIS2_PLACEMENT_3D('',#991,#992,#993);
#991 = CARTESIAN_POINT('',(121.5,17.5,17.5));
#992 = DIRECTION('',(-1.,1.110223024625E-16,0.));
#993 = DIRECTION('',(0.,0.,1.));
#994 = ADVANCED_FACE('',(#995),#1006,.T.);
#995 = FACE_BOUND('',#996,.T.);
#996 = EDGE_LOOP('',(#997,#998,#1005));
#997 = ORIENTED_EDGE('',*,*,#729,.T.);
#998 = ORIENTED_EDGE('',*,*,#999,.T.);
#999 = EDGE_CURVE('',#722,#771,#1000,.T.);
#1000 = CIRCLE('',#1001,17.5);
#1001 = AXIS2_PLACEMENT_3D('',#1002,#1003,#1004);
#1002 = CARTESIAN_POINT('',(121.5,17.5,17.5));
#1003 = DIRECTION('',(-1.,1.110223024625E-16,0.));
#1004 = DIRECTION('',(0.,0.,1.));
#1005 = ORIENTED_EDGE('',*,*,#982,.T.);
#1006 = PLANE('',#1007);
#1007 = AXIS2_PLACEMENT_3D('',#1008,#1009,#1010);
#1008 = CARTESIAN_POINT('',(121.5,17.5,0.));
#1009 = DIRECTION('',(-1.,1.110223024625E-16,0.));
#1010 = DIRECTION('',(0.,0.,1.));
#1011 = ADVANCED_FACE('',(#1012,#1018,#1021,#1024),#1030,.T.);
#1012 = FACE_BOUND('',#1013,.T.);
#1013 = EDGE_LOOP('',(#1014,#1015,#1016,#1017));
#1014 = ORIENTED_EDGE('',*,*,#803,.F.);
#1015 = ORIENTED_EDGE('',*,*,#999,.F.);
#1016 = ORIENTED_EDGE('',*,*,#721,.T.);
#1017 = ORIENTED_EDGE('',*,*,#819,.F.);
#1018 = FACE_BOUND('',#1019,.T.);
#1019 = EDGE_LOOP('',(#1020));
#1020 = ORIENTED_EDGE('',*,*,#834,.F.);
#1021 = FACE_BOUND('',#1022,.T.);
#1022 = EDGE_LOOP('',(#1023));
#1023 = ORIENTED_EDGE('',*,*,#859,.F.);
#1024 = FACE_BOUND('',#1025,.T.);
#1025 = EDGE_LOOP('',(#1026,#1027,#1028,#1029));
#1026 = ORIENTED_EDGE('',*,*,#893,.F.);
#1027 = ORIENTED_EDGE('',*,*,#926,.T.);
#1028 = ORIENTED_EDGE('',*,*,#964,.F.);
#1029 = ORIENTED_EDGE('',*,*,#950,.F.);
#1030 = PLANE('',#1031);
#1031 = AXIS2_PLACEMENT_3D('',#1032,#1033,#1034);
#1032 = CARTESIAN_POINT('',(121.5,17.5,0.));
#1033 = DIRECTION('',(-1.,1.110223024625E-16,0.));
#1034 = DIRECTION('',(0.,0.,1.));
#1035 = ( GEOMETRIC_REPRESENTATION_CONTEXT(3) 
GLOBAL_UNCERTAINTY_ASSIGNED_CONTEXT((#1039)) 
GLOBAL_UNIT_ASSIGNED_CONTEXT((#1036,#1037,#1038)) REPRESENTATION_CONTEXT
('Context #1','3D Context with UNIT and UNCERTAINTY') );
#1036 = ( LENGTH_UNIT() NAMED_UNIT(*) SI_UNIT(.MILLI.,.METRE.) );
#1037 = ( NAMED_UNIT(*) PLANE_ANGLE_UNIT() SI_UNIT($,.RADIAN.) );
#1038 = ( NAMED_UNIT(*) SI_UNIT($,.STERADIAN.) SOLID_ANGLE_UNIT() );
#1039 = UNCERTAINTY_MEASURE_WITH_UNIT(LENGTH_MEASURE(1.E-07),#1036,
  'distance_accuracy_value','confusion accuracy');
#1040 = PRODUCT_RELATED_PRODUCT_CATEGORY('part',$,(#7));
ENDSEC;
END-ISO-10303-21;
