ISO-10303-21;
HEADER;
FILE_DESCRIPTION(('FreeCAD Model'),'2;1');
FILE_NAME('Open CASCADE Shape Model','2026-08-09T00:47:57',('FreeCAD'),(
    'FreeCAD'),'Open CASCADE STEP processor 7.8','FreeCAD','Unknown');
FILE_SCHEMA(('AUTOMOTIVE_DESIGN { 1 0 10303 214 1 1 1 1 }'));
ENDSEC;
DATA;
#1 = APPLICATION_PROTOCOL_DEFINITION('international standard',
  'automotive_design',2000,#2);
#2 = APPLICATION_CONTEXT(
  'core data for automotive mechanical design processes');
#3 = SHAPE_DEFINITION_REPRESENTATION(#4,#10);
#4 = PRODUCT_DEFINITION_SHAPE('','',#5);
#5 = PRODUCT_DEFINITION('design','',#6,#9);
#6 = PRODUCT_DEFINITION_FORMATION('','',#7);
#7 = PRODUCT('Open CASCADE STEP translator 7.8 16',
  'Open CASCADE STEP translator 7.8 16','',(#8));
#8 = PRODUCT_CONTEXT('',#2,'mechanical');
#9 = PRODUCT_DEFINITION_CONTEXT('part definition',#2,'design');
#10 = SHAPE_REPRESENTATION('',(#11,#15,#552),#734);
#11 = AXIS2_PLACEMENT_3D('',#12,#13,#14);
#12 = CARTESIAN_POINT('',(0.,0.,0.));
#13 = DIRECTION('',(0.,0.,1.));
#14 = DIRECTION('',(1.,0.,-0.));
#15 = MANIFOLD_SOLID_BREP('',#16);
#16 = CLOSED_SHELL('',(#17,#126,#294,#314,#334,#391,#408,#425,#450,#475,
    #485,#498,#518,#543));
#17 = ADVANCED_FACE('',(#18),#121,.T.);
#18 = FACE_BOUND('',#19,.T.);
#19 = EDGE_LOOP('',(#20,#30,#37,#38,#69,#77,#84,#85,#104));
#20 = ORIENTED_EDGE('',*,*,#21,.T.);
#21 = EDGE_CURVE('',#22,#24,#26,.T.);
#22 = VERTEX_POINT('',#23);
#23 = CARTESIAN_POINT('',(169.9,17.5,30.));
#24 = VERTEX_POINT('',#25);
#25 = CARTESIAN_POINT('',(126.,17.5,30.));
#26 = LINE('',#27,#28);
#27 = CARTESIAN_POINT('',(176.,17.5,30.));
#28 = VECTOR('',#29,1.);
#29 = DIRECTION('',(-1.,1.110223024625E-16,0.));
#30 = ORIENTED_EDGE('',*,*,#31,.F.);
#31 = EDGE_CURVE('',#24,#24,#32,.T.);
#32 = CIRCLE('',#33,12.5);
#33 = AXIS2_PLACEMENT_3D('',#34,#35,#36);
#34 = CARTESIAN_POINT('',(126.,17.5,17.5));
#35 = DIRECTION('',(-1.,1.110223024625E-16,0.));
#36 = DIRECTION('',(0.,0.,1.));
#37 = ORIENTED_EDGE('',*,*,#21,.F.);
#38 = ORIENTED_EDGE('',*,*,#39,.T.);
#39 = EDGE_CURVE('',#22,#40,#42,.T.);
#40 = VERTEX_POINT('',#41);
#41 = CARTESIAN_POINT('',(173.1,17.5,30.));
#42 = B_SPLINE_CURVE_WITH_KNOTS('',7,(#43,#44,#45,#46,#47,#48,#49,#50,
    #51,#52,#53,#54,#55,#56,#57,#58,#59,#60,#61,#62,#63,#64,#65,#66,#67,
    #68),.UNSPECIFIED.,.F.,.F.,(8,6,6,6,8),(0.,0.257863975061,
    0.500052319038,0.742223229316,1.),.UNSPECIFIED.);
#43 = CARTESIAN_POINT('',(169.9,17.5,30.));
#44 = CARTESIAN_POINT('',(169.9,17.719302198804,30.));
#45 = CARTESIAN_POINT('',(169.93506782689,17.932955743824,
    29.995511165347));
#46 = CARTESIAN_POINT('',(170.00195400414,18.134486959357,
    29.986950566107));
#47 = CARTESIAN_POINT('',(170.0961555824,18.318490401509,29.9755000417)
  );
#48 = CARTESIAN_POINT('',(170.21196782918,18.480824050479,
    29.962806080723));
#49 = CARTESIAN_POINT('',(170.34256392988,18.619023573434,
    29.950335872601));
#50 = CARTESIAN_POINT('',(170.60931712845,18.83970101111,29.928464776612
    ));
#51 = CARTESIAN_POINT('',(170.74774424552,18.927612061803,
    29.918670074461));
#52 = CARTESIAN_POINT('',(170.8925980538,18.99707536615,29.910309268135)
  );
#53 = CARTESIAN_POINT('',(171.04177558304,19.048670688147,
    29.903801778308));
#54 = CARTESIAN_POINT('',(171.19362559349,19.082882554791,
    29.899386295201));
#55 = CARTESIAN_POINT('',(171.3467825035,19.1,29.897177098033));
#56 = CARTESIAN_POINT('',(171.65320646728,19.1,29.897177098033));
#57 = CARTESIAN_POINT('',(171.80635959167,19.082885025154,
    29.899385976028));
#58 = CARTESIAN_POINT('',(171.95821535787,19.048675162537,
    29.903801201079));
#59 = CARTESIAN_POINT('',(172.10740531064,18.997077218549,
    29.910309073734));
#60 = CARTESIAN_POINT('',(172.25227029897,18.92760611117,29.918670912317
    ));
#61 = CARTESIAN_POINT('',(172.39069766569,18.839688772323,
    29.928465989584));
#62 = CARTESIAN_POINT('',(172.6573837027,18.619066895524,29.950331578997
    ));
#63 = CARTESIAN_POINT('',(172.78800928776,18.480865976475,
    29.962802857295));
#64 = CARTESIAN_POINT('',(172.90386670591,18.318487359476,
    29.975501771228));
#65 = CARTESIAN_POINT('',(172.99809022668,18.134420021552,
    29.986956239878));
#66 = CARTESIAN_POINT('',(173.06496351022,17.932843713673,
    29.995515175151));
#67 = CARTESIAN_POINT('',(173.1,17.719204190926,30.));
#68 = CARTESIAN_POINT('',(173.1,17.5,30.));
#69 = ORIENTED_EDGE('',*,*,#70,.F.);
#70 = EDGE_CURVE('',#71,#40,#73,.T.);
#71 = VERTEX_POINT('',#72);
#72 = CARTESIAN_POINT('',(176.,17.5,30.));
#73 = LINE('',#74,#75);
#74 = CARTESIAN_POINT('',(176.,17.5,30.));
#75 = VECTOR('',#76,1.);
#76 = DIRECTION('',(-1.,1.110223024625E-16,0.));
#77 = ORIENTED_EDGE('',*,*,#78,.T.);
#78 = EDGE_CURVE('',#71,#71,#79,.T.);
#79 = CIRCLE('',#80,12.5);
#80 = AXIS2_PLACEMENT_3D('',#81,#82,#83);
#81 = CARTESIAN_POINT('',(176.,17.5,17.5));
#82 = DIRECTION('',(-1.,1.110223024625E-16,0.));
#83 = DIRECTION('',(0.,0.,1.));
#84 = ORIENTED_EDGE('',*,*,#70,.T.);
#85 = ORIENTED_EDGE('',*,*,#86,.T.);
#86 = EDGE_CURVE('',#40,#87,#89,.T.);
#87 = VERTEX_POINT('',#88);
#88 = CARTESIAN_POINT('',(171.5,15.9,29.897177098033));
#89 = B_SPLINE_CURVE_WITH_KNOTS('',7,(#90,#91,#92,#93,#94,#95,#96,#97,
    #98,#99,#100,#101,#102,#103),.UNSPECIFIED.,.F.,.F.,(8,6,8),(0.,
    0.455175281881,1.),.UNSPECIFIED.);
#90 = CARTESIAN_POINT('',(173.1,17.5,30.));
#91 = CARTESIAN_POINT('',(173.1,17.307240704534,30.));
#92 = CARTESIAN_POINT('',(173.07290711363,17.11803487003,29.996532021173
    ));
#93 = CARTESIAN_POINT('',(173.02051844905,16.937178725143,
    29.989826755072));
#94 = CARTESIAN_POINT('',(172.94573956272,16.76893449738,29.98061758622)
  );
#95 = CARTESIAN_POINT('',(172.85251610114,16.616768712913,
    29.970009436039));
#96 = CARTESIAN_POINT('',(172.7457781104,16.48303641061,29.959092350168)
  );
#97 = CARTESIAN_POINT('',(172.49443040972,16.231688709927,
    29.936249195255));
#98 = CARTESIAN_POINT('',(172.34341091663,16.119343773556,
    29.924266939373));
#99 = CARTESIAN_POINT('',(172.18287600338,16.030818703374,
    29.913816250289));
#100 = CARTESIAN_POINT('',(172.01601929858,15.965195660176,
    29.905591569872));
#101 = CARTESIAN_POINT('',(171.84527450609,15.921734208871,
    29.899982100046));
#102 = CARTESIAN_POINT('',(171.6726486623,15.9,29.897177098033));
#103 = CARTESIAN_POINT('',(171.5,15.9,29.897177098033));
#104 = ORIENTED_EDGE('',*,*,#105,.T.);
#105 = EDGE_CURVE('',#87,#22,#106,.T.);
#106 = B_SPLINE_CURVE_WITH_KNOTS('',7,(#107,#108,#109,#110,#111,#112,
    #113,#114,#115,#116,#117,#118,#119,#120),.UNSPECIFIED.,.F.,.F.,(8,6,
    8),(0.,0.484338584499,1.),.UNSPECIFIED.);
#107 = CARTESIAN_POINT('',(171.5,15.9,29.897177098033));
#108 = CARTESIAN_POINT('',(171.34679353271,15.9,29.897177098033));
#109 = CARTESIAN_POINT('',(171.19364040832,15.917114974846,
    29.899385976028));
#110 = CARTESIAN_POINT('',(171.04178464212,15.951324837463,
    29.903801201079));
#111 = CARTESIAN_POINT('',(170.89259468935,16.002922781451,
    29.910309073734));
#112 = CARTESIAN_POINT('',(170.74772970102,16.07239388883,
    29.918670912317));
#113 = CARTESIAN_POINT('',(170.6093023343,16.160311227677,
    29.928465989584));
#114 = CARTESIAN_POINT('',(170.34258660684,16.380957666557,
    29.950334013317));
#115 = CARTESIAN_POINT('',(170.21198088857,16.519155175239,
    29.962804428367));
#116 = CARTESIAN_POINT('',(170.09614893511,16.68150597993,
    29.975500388851));
#117 = CARTESIAN_POINT('',(170.00193524668,16.865538171961,
    29.98695296041));
#118 = CARTESIAN_POINT('',(169.93505310471,17.067093414638,
    29.995513052536));
#119 = CARTESIAN_POINT('',(169.9,17.280743826804,30.));
#120 = CARTESIAN_POINT('',(169.9,17.5,30.));
#121 = CYLINDRICAL_SURFACE('',#122,12.5);
#122 = AXIS2_PLACEMENT_3D('',#123,#124,#125);
#123 = CARTESIAN_POINT('',(176.,17.5,17.5));
#124 = DIRECTION('',(-1.,1.110223024625E-16,0.));
#125 = DIRECTION('',(0.,0.,1.));
#126 = ADVANCED_FACE('',(#127),#289,.F.);
#127 = FACE_BOUND('',#128,.F.);
#128 = EDGE_LOOP('',(#129,#158,#164,#165,#166,#167,#168,#203,#212,#282)
  );
#129 = ORIENTED_EDGE('',*,*,#130,.F.);
#130 = EDGE_CURVE('',#131,#133,#135,.T.);
#131 = VERTEX_POINT('',#132);
#132 = CARTESIAN_POINT('',(171.5,15.9,17.903112887415));
#133 = VERTEX_POINT('',#134);
#134 = CARTESIAN_POINT('',(170.58484973911,16.187559525159,18.5));
#135 = B_SPLINE_CURVE_WITH_KNOTS('',6,(#136,#137,#138,#139,#140,#141,
    #142,#143,#144,#145,#146,#147,#148,#149,#150,#151,#152,#153,#154,
    #155,#156,#157),.UNSPECIFIED.,.F.,.F.,(7,5,5,5,7),(0.,0.177290007149
    ,0.424246386363,0.762833193768,1.),.UNSPECIFIED.);
#136 = CARTESIAN_POINT('',(171.5,15.9,17.903112887415));
#137 = CARTESIAN_POINT('',(171.46598691325,15.9,17.903112887415));
#138 = CARTESIAN_POINT('',(171.43242086392,15.900867719602,
    17.906556599119));
#139 = CARTESIAN_POINT('',(171.39927859072,15.902560053422,
    17.913275358496));
#140 = CARTESIAN_POINT('',(171.36662018836,15.905043735891,
    17.922894622669));
#141 = CARTESIAN_POINT('',(171.33469881323,15.908262352947,
    17.934816053861));
#142 = CARTESIAN_POINT('',(171.26137433376,15.917310094744,
    17.966871048386));
#143 = CARTESIAN_POINT('',(171.2200753946,15.923803778647,
    17.988871739911));
#144 = CARTESIAN_POINT('',(171.18006423186,15.931387236498,
    18.013031071365));
#145 = CARTESIAN_POINT('',(171.14130744243,15.939948267108,
    18.038476759031));
#146 = CARTESIAN_POINT('',(171.10359193543,15.949399361181,
    18.06479596312));
#147 = CARTESIAN_POINT('',(171.01515016928,15.974305584677,
    18.129576967884));
#148 = CARTESIAN_POINT('',(170.96501968478,15.990622411854,
    18.168753366076));
#149 = CARTESIAN_POINT('',(170.91607972949,16.008732728155,
    18.208628923016));
#150 = CARTESIAN_POINT('',(170.86825277707,16.028554978942,
    18.24876310836));
#151 = CARTESIAN_POINT('',(170.82127102993,16.050155744387,
    18.289089756725));
#152 = CARTESIAN_POINT('',(170.7421992876,16.090364120394,
    18.358202487005));
#153 = CARTESIAN_POINT('',(170.7100003974,16.107860817011,
    18.386707977117));
#154 = CARTESIAN_POINT('',(170.67816479896,16.126306978813,
    18.41518717523));
#155 = CARTESIAN_POINT('',(170.64669126156,16.145721636476,
    18.443589793199));
#156 = CARTESIAN_POINT('',(170.61558396083,16.166128891492,
    18.471873568973));
#157 = CARTESIAN_POINT('',(170.58484973911,16.187559525159,18.5));
#158 = ORIENTED_EDGE('',*,*,#159,.F.);
#159 = EDGE_CURVE('',#87,#131,#160,.T.);
#160 = LINE('',#161,#162);
#161 = CARTESIAN_POINT('',(171.5,15.9,30.));
#162 = VECTOR('',#163,1.);
#163 = DIRECTION('',(0.,0.,-1.));
#164 = ORIENTED_EDGE('',*,*,#105,.T.);
#165 = ORIENTED_EDGE('',*,*,#39,.T.);
#166 = ORIENTED_EDGE('',*,*,#86,.T.);
#167 = ORIENTED_EDGE('',*,*,#159,.T.);
#168 = ORIENTED_EDGE('',*,*,#169,.F.);
#169 = EDGE_CURVE('',#170,#131,#172,.T.);
#170 = VERTEX_POINT('',#171);
#171 = CARTESIAN_POINT('',(172.41515026088,16.187559525159,18.5));
#172 = B_SPLINE_CURVE_WITH_KNOTS('',8,(#173,#174,#175,#176,#177,#178,
    #179,#180,#181,#182,#183,#184,#185,#186,#187,#188,#189,#190,#191,
    #192,#193,#194,#195,#196,#197,#198,#199,#200,#201,#202),
  .UNSPECIFIED.,.F.,.F.,(9,7,7,7,9),(0.,0.233231798464,0.727543094622,
    0.858294731641,1.),.UNSPECIFIED.);
#173 = CARTESIAN_POINT('',(172.41515026088,16.187559525159,18.5));
#174 = CARTESIAN_POINT('',(172.39223277165,16.171579412804,
    18.479027053753));
#175 = CARTESIAN_POINT('',(172.369117684,16.156141197156,18.457970754152
    ));
#176 = CARTESIAN_POINT('',(172.34580742805,16.141234095705,
    18.43684463808));
#177 = CARTESIAN_POINT('',(172.32230386536,16.126848715596,
    18.415663024067));
#178 = CARTESIAN_POINT('',(172.29860800476,16.112976887536,
    18.39444145493));
#179 = CARTESIAN_POINT('',(172.27471971811,16.099611499707,
    18.373197140408));
#180 = CARTESIAN_POINT('',(172.25063745614,16.086746331675,
    18.351949399794));
#181 = CARTESIAN_POINT('',(172.17490002743,16.048157980032,
    18.285726752444));
#182 = CARTESIAN_POINT('',(172.12381991555,16.024806274266,
    18.241921509328));
#183 = CARTESIAN_POINT('',(172.0720936741,16.003534092738,
    18.198573290089));
#184 = CARTESIAN_POINT('',(172.01889156441,15.984013675388,
    18.155262295071));
#185 = CARTESIAN_POINT('',(171.96375055304,15.966265177868,
    18.112106680231));
#186 = CARTESIAN_POINT('',(171.90672503027,15.950576142313,
    18.069958270982));
#187 = CARTESIAN_POINT('',(171.84824477073,15.93718006341,
    18.030490402937));
#188 = CARTESIAN_POINT('',(171.77278768281,15.923343918658,
    17.986567973584));
#189 = CARTESIAN_POINT('',(171.75681798197,15.92060273378,
    17.977652126306));
#190 = CARTESIAN_POINT('',(171.74065421049,15.918019208897,
    17.969046537638));
#191 = CARTESIAN_POINT('',(171.72428738476,15.915598707915,
    17.960795928817));
#192 = CARTESIAN_POINT('',(171.70770813838,15.913347380053,
    17.952951398547));
#193 = CARTESIAN_POINT('',(171.69090672217,15.911272159851,17.945570423)
  );
#194 = CARTESIAN_POINT('',(171.67387300419,15.909380767166,
    17.938716855813));
#195 = CARTESIAN_POINT('',(171.63787260505,15.905840309559,
    17.92568091419));
#196 = CARTESIAN_POINT('',(171.61876561737,15.904215491892,
    17.919567158074));
#197 = CARTESIAN_POINT('',(171.59937401994,15.902833338666,
    17.914263472541));
#198 = CARTESIAN_POINT('',(171.57976922402,15.901711391646,
    17.909887206875));
#199 = CARTESIAN_POINT('',(171.56000093689,15.900860837269,
    17.906529885811));
#200 = CARTESIAN_POINT('',(171.54010255986,15.900288694053,
    17.904257848489));
#201 = CARTESIAN_POINT('',(171.52009658637,15.9,17.903112887415));
#202 = CARTESIAN_POINT('',(171.5,15.9,17.903112887415));
#203 = ORIENTED_EDGE('',*,*,#204,.F.);
#204 = EDGE_CURVE('',#205,#170,#207,.T.);
#205 = VERTEX_POINT('',#206);
#206 = CARTESIAN_POINT('',(172.41515026088,18.812440474841,18.5));
#207 = CIRCLE('',#208,1.6);
#208 = AXIS2_PLACEMENT_3D('',#209,#210,#211);
#209 = CARTESIAN_POINT('',(171.5,17.5,18.5));
#210 = DIRECTION('',(-0.,0.,-1.));
#211 = DIRECTION('',(-1.110223024625E-16,-1.,0.));
#212 = ORIENTED_EDGE('',*,*,#213,.F.);
#213 = EDGE_CURVE('',#214,#205,#216,.T.);
#214 = VERTEX_POINT('',#215);
#215 = CARTESIAN_POINT('',(170.58484973911,18.812440474841,18.5));
#216 = B_SPLINE_CURVE_WITH_KNOTS('',8,(#217,#218,#219,#220,#221,#222,
    #223,#224,#225,#226,#227,#228,#229,#230,#231,#232,#233,#234,#235,
    #236,#237,#238,#239,#240,#241,#242,#243,#244,#245,#246,#247,#248,
    #249,#250,#251,#252,#253,#254,#255,#256,#257,#258,#259,#260,#261,
    #262,#263,#264,#265,#266,#267,#268,#269,#270,#271,#272,#273,#274,
    #275,#276,#277,#278,#279,#280,#281),.UNSPECIFIED.,.F.,.F.,(9,7,7,7,7
    ,7,7,7,7,9),(0.,0.116285966682,0.362742355962,0.427933242228,
    0.498585487757,0.552137850836,0.587885848205,0.711591916727,
    0.881197751293,1.),.UNSPECIFIED.);
#217 = CARTESIAN_POINT('',(170.58484973911,18.812440474841,18.5));
#218 = CARTESIAN_POINT('',(170.60776722834,18.828420587196,
    18.479027053753));
#219 = CARTESIAN_POINT('',(170.63088231599,18.843858802844,
    18.457970754152));
#220 = CARTESIAN_POINT('',(170.65419257194,18.858765904295,
    18.43684463808));
#221 = CARTESIAN_POINT('',(170.67769613463,18.873151284404,
    18.415663024067));
#222 = CARTESIAN_POINT('',(170.70139199523,18.887023112464,
    18.39444145493));
#223 = CARTESIAN_POINT('',(170.72528028188,18.900388500293,
    18.373197140408));
#224 = CARTESIAN_POINT('',(170.74936254385,18.913253668325,
    18.351949399794));
#225 = CARTESIAN_POINT('',(170.82509997256,18.951842019967,
    18.285726752444));
#226 = CARTESIAN_POINT('',(170.87618008444,18.975193725734,
    18.241921509327));
#227 = CARTESIAN_POINT('',(170.92790632589,18.996465907261,
    18.19857329009));
#228 = CARTESIAN_POINT('',(170.98110843559,19.015986324612,
    18.15526229507));
#229 = CARTESIAN_POINT('',(171.03624944695,19.033734822132,
    18.112106680231));
#230 = CARTESIAN_POINT('',(171.09327496972,19.049423857687,
    18.069958270982));
#231 = CARTESIAN_POINT('',(171.15175522926,19.06281993659,
    18.030490402937));
#232 = CARTESIAN_POINT('',(171.22721232459,19.076656082701,
    17.986567969269));
#233 = CARTESIAN_POINT('',(171.24318202028,19.079397266916,
    17.977652124269));
#234 = CARTESIAN_POINT('',(171.25934578468,19.081980790677,
    17.969046539272));
#235 = CARTESIAN_POINT('',(171.27571260773,19.084401291045,
    17.960795932331));
#236 = CARTESIAN_POINT('',(171.2922918578,19.08665261917,17.952951400981
    ));
#237 = CARTESIAN_POINT('',(171.30909328169,19.088727840284,
    17.945570422242));
#238 = CARTESIAN_POINT('',(171.32612700463,19.090619233702,
    17.938716852616));
#239 = CARTESIAN_POINT('',(171.36212739496,19.094159690443,
    17.925680914184));
#240 = CARTESIAN_POINT('',(171.38123438263,19.095784508108,
    17.919567158074));
#241 = CARTESIAN_POINT('',(171.40062598004,19.097166661333,
    17.914263472544));
#242 = CARTESIAN_POINT('',(171.42023077595,19.098288608353,
    17.909887206878));
#243 = CARTESIAN_POINT('',(171.4399990631,19.099139162731,17.90652988581
    ));
#244 = CARTESIAN_POINT('',(171.45989744014,19.099711305947,
    17.904257848487));
#245 = CARTESIAN_POINT('',(171.47990341364,19.1,17.903112887415));
#246 = CARTESIAN_POINT('',(171.51523263246,19.1,17.903112887415));
#247 = CARTESIAN_POINT('',(171.53043574221,19.099834263971,
    17.903770476282));
#248 = CARTESIAN_POINT('',(171.54559667062,19.099503910978,
    17.905081980068));
#249 = CARTESIAN_POINT('',(171.56069790686,19.099010738685,
    17.907033246774));
#250 = CARTESIAN_POINT('',(171.57571698035,19.098357680628,
    17.909599698164));
#251 = CARTESIAN_POINT('',(171.59062635326,19.097549263504,
    17.912746381575));
#252 = CARTESIAN_POINT('',(171.605393313,19.096592064444,17.916428021728
    ));
#253 = CARTESIAN_POINT('',(171.6297168769,19.094762953355,
    17.923366713424));
#254 = CARTESIAN_POINT('',(171.63938416045,19.093967725192,
    17.926361131127));
#255 = CARTESIAN_POINT('',(171.64898285631,19.093110904919,
    17.92956044627));
#256 = CARTESIAN_POINT('',(171.658513471,19.092193970638,17.932952735729
    ));
#257 = CARTESIAN_POINT('',(171.66797587666,19.091218457448,
    17.936526032622));
#258 = CARTESIAN_POINT('',(171.67736931101,19.090185957439,
    17.940268326317));
#259 = CARTESIAN_POINT('',(171.68669237738,19.089098119697,
    17.944167562428));
#260 = CARTESIAN_POINT('',(171.72795501085,19.084006591518,
    17.962206196994));
#261 = CARTESIAN_POINT('',(171.75922571858,19.079399244059,
    17.97799072579));
#262 = CARTESIAN_POINT('',(171.78978942003,19.074183595396,
    17.995142855624));
#263 = CARTESIAN_POINT('',(171.81966697385,19.068403283625,
    18.013306719125));
#264 = CARTESIAN_POINT('',(171.84889179423,19.062096626602,
    18.03220892816));
#265 = CARTESIAN_POINT('',(171.87753550187,19.05528856956,
    18.051672167374));
#266 = CARTESIAN_POINT('',(171.90573327696,19.047974551233,
    18.071626408228));
#267 = CARTESIAN_POINT('',(171.97206460158,19.029294883611,
    18.120212161801));
#268 = CARTESIAN_POINT('',(172.00987898611,19.017467610519,
    18.149226494618));
#269 = CARTESIAN_POINT('',(172.04708774733,19.004657849522,
    18.178797165177));
#270 = CARTESIAN_POINT('',(172.08368176989,18.990900428741,
    18.208684343388));
#271 = CARTESIAN_POINT('',(172.11969992711,18.976210028613,
    18.238750183062));
#272 = CARTESIAN_POINT('',(172.15522089779,18.960571609397,
    18.268937749708));
#273 = CARTESIAN_POINT('',(172.19035401598,18.943932861684,
    18.299250638977));
#274 = CARTESIAN_POINT('',(172.24965782273,18.91377657968,
    18.351085186686));
#275 = CARTESIAN_POINT('',(172.27388684791,18.900854177857,
    18.372456528091));
#276 = CARTESIAN_POINT('',(172.29791957809,18.887425914126,
    18.393824959645));
#277 = CARTESIAN_POINT('',(172.32175761653,18.873485486359,
    18.415170765199));
#278 = CARTESIAN_POINT('',(172.34540111444,18.859025678223,
    18.436476405614));
#279 = CARTESIAN_POINT('',(172.36884906455,18.844038186778,
    18.45772606163));
#280 = CARTESIAN_POINT('',(172.39209959459,18.828513450091,
    18.47890517673));
#281 = CARTESIAN_POINT('',(172.41515026088,18.812440474841,18.5));
#282 = ORIENTED_EDGE('',*,*,#283,.F.);
#283 = EDGE_CURVE('',#133,#214,#284,.T.);
#284 = CIRCLE('',#285,1.6);
#285 = AXIS2_PLACEMENT_3D('',#286,#287,#288);
#286 = CARTESIAN_POINT('',(171.5,17.5,18.5));
#287 = DIRECTION('',(-0.,0.,-1.));
#288 = DIRECTION('',(-1.110223024625E-16,-1.,0.));
#289 = CYLINDRICAL_SURFACE('',#290,1.6);
#290 = AXIS2_PLACEMENT_3D('',#291,#292,#293);
#291 = CARTESIAN_POINT('',(171.5,17.5,30.));
#292 = DIRECTION('',(0.,0.,-1.));
#293 = DIRECTION('',(-1.110223024625E-16,-1.,0.));
#294 = ADVANCED_FACE('',(#295,#306),#309,.T.);
#295 = FACE_BOUND('',#296,.T.);
#296 = EDGE_LOOP('',(#297));
#297 = ORIENTED_EDGE('',*,*,#298,.T.);
#298 = EDGE_CURVE('',#299,#299,#301,.T.);
#299 = VERTEX_POINT('',#300);
#300 = CARTESIAN_POINT('',(176.,17.5,31.5));
#301 = CIRCLE('',#302,14.);
#302 = AXIS2_PLACEMENT_3D('',#303,#304,#305);
#303 = CARTESIAN_POINT('',(176.,17.5,17.5));
#304 = DIRECTION('',(-1.,1.110223024625E-16,0.));
#305 = DIRECTION('',(0.,0.,1.));
#306 = FACE_BOUND('',#307,.T.);
#307 = EDGE_LOOP('',(#308));
#308 = ORIENTED_EDGE('',*,*,#78,.F.);
#309 = PLANE('',#310);
#310 = AXIS2_PLACEMENT_3D('',#311,#312,#313);
#311 = CARTESIAN_POINT('',(176.,17.5,17.5));
#312 = DIRECTION('',(-1.,1.110223024625E-16,0.));
#313 = DIRECTION('',(0.,0.,1.));
#314 = ADVANCED_FACE('',(#315,#326),#329,.F.);
#315 = FACE_BOUND('',#316,.F.);
#316 = EDGE_LOOP('',(#317));
#317 = ORIENTED_EDGE('',*,*,#318,.T.);
#318 = EDGE_CURVE('',#319,#319,#321,.T.);
#319 = VERTEX_POINT('',#320);
#320 = CARTESIAN_POINT('',(126.,17.5,31.5));
#321 = CIRCLE('',#322,14.);
#322 = AXIS2_PLACEMENT_3D('',#323,#324,#325);
#323 = CARTESIAN_POINT('',(126.,17.5,17.5));
#324 = DIRECTION('',(-1.,1.110223024625E-16,0.));
#325 = DIRECTION('',(0.,0.,1.));
#326 = FACE_BOUND('',#327,.F.);
#327 = EDGE_LOOP('',(#328));
#328 = ORIENTED_EDGE('',*,*,#31,.F.);
#329 = PLANE('',#330);
#330 = AXIS2_PLACEMENT_3D('',#331,#332,#333);
#331 = CARTESIAN_POINT('',(126.,17.5,17.5));
#332 = DIRECTION('',(-1.,1.110223024625E-16,0.));
#333 = DIRECTION('',(0.,0.,1.));
#334 = ADVANCED_FACE('',(#335),#386,.F.);
#335 = FACE_BOUND('',#336,.F.);
#336 = EDGE_LOOP('',(#337,#348,#354,#355,#363,#372,#378,#379,#380));
#337 = ORIENTED_EDGE('',*,*,#338,.F.);
#338 = EDGE_CURVE('',#339,#341,#343,.T.);
#339 = VERTEX_POINT('',#340);
#340 = CARTESIAN_POINT('',(164.,18.812440474841,18.5));
#341 = VERTEX_POINT('',#342);
#342 = CARTESIAN_POINT('',(164.,16.187559525159,18.5));
#343 = CIRCLE('',#344,1.65);
#344 = AXIS2_PLACEMENT_3D('',#345,#346,#347);
#345 = CARTESIAN_POINT('',(164.,17.5,17.5));
#346 = DIRECTION('',(-1.,1.110223024625E-16,0.));
#347 = DIRECTION('',(0.,0.,1.));
#348 = ORIENTED_EDGE('',*,*,#349,.F.);
#349 = EDGE_CURVE('',#214,#339,#350,.T.);
#350 = LINE('',#351,#352);
#351 = CARTESIAN_POINT('',(178.,18.812440474841,18.5));
#352 = VECTOR('',#353,1.);
#353 = DIRECTION('',(-1.,1.110223024625E-16,0.));
#354 = ORIENTED_EDGE('',*,*,#213,.T.);
#355 = ORIENTED_EDGE('',*,*,#356,.F.);
#356 = EDGE_CURVE('',#357,#205,#359,.T.);
#357 = VERTEX_POINT('',#358);
#358 = CARTESIAN_POINT('',(177.5,18.812440474841,18.5));
#359 = LINE('',#360,#361);
#360 = CARTESIAN_POINT('',(178.,18.812440474841,18.5));
#361 = VECTOR('',#362,1.);
#362 = DIRECTION('',(-1.,1.110223024625E-16,0.));
#363 = ORIENTED_EDGE('',*,*,#364,.T.);
#364 = EDGE_CURVE('',#357,#365,#367,.T.);
#365 = VERTEX_POINT('',#366);
#366 = CARTESIAN_POINT('',(177.5,16.187559525159,18.5));
#367 = CIRCLE('',#368,1.65);
#368 = AXIS2_PLACEMENT_3D('',#369,#370,#371);
#369 = CARTESIAN_POINT('',(177.5,17.5,17.5));
#370 = DIRECTION('',(-1.,1.110223024625E-16,0.));
#371 = DIRECTION('',(0.,0.,1.));
#372 = ORIENTED_EDGE('',*,*,#373,.T.);
#373 = EDGE_CURVE('',#365,#170,#374,.T.);
#374 = LINE('',#375,#376);
#375 = CARTESIAN_POINT('',(178.,16.187559525159,18.5));
#376 = VECTOR('',#377,1.);
#377 = DIRECTION('',(-1.,1.110223024625E-16,0.));
#378 = ORIENTED_EDGE('',*,*,#169,.T.);
#379 = ORIENTED_EDGE('',*,*,#130,.T.);
#380 = ORIENTED_EDGE('',*,*,#381,.T.);
#381 = EDGE_CURVE('',#133,#341,#382,.T.);
#382 = LINE('',#383,#384);
#383 = CARTESIAN_POINT('',(178.,16.187559525159,18.5));
#384 = VECTOR('',#385,1.);
#385 = DIRECTION('',(-1.,1.110223024625E-16,0.));
#386 = CYLINDRICAL_SURFACE('',#387,1.65);
#387 = AXIS2_PLACEMENT_3D('',#388,#389,#390);
#388 = CARTESIAN_POINT('',(178.,17.5,17.5));
#389 = DIRECTION('',(-1.,1.110223024625E-16,0.));
#390 = DIRECTION('',(0.,0.,1.));
#391 = ADVANCED_FACE('',(#392),#403,.F.);
#392 = FACE_BOUND('',#393,.F.);
#393 = EDGE_LOOP('',(#394,#395,#396,#397));
#394 = ORIENTED_EDGE('',*,*,#381,.F.);
#395 = ORIENTED_EDGE('',*,*,#283,.T.);
#396 = ORIENTED_EDGE('',*,*,#349,.T.);
#397 = ORIENTED_EDGE('',*,*,#398,.F.);
#398 = EDGE_CURVE('',#341,#339,#399,.T.);
#399 = LINE('',#400,#401);
#400 = CARTESIAN_POINT('',(164.,16.25,18.5));
#401 = VECTOR('',#402,1.);
#402 = DIRECTION('',(1.110223024625E-16,1.,0.));
#403 = PLANE('',#404);
#404 = AXIS2_PLACEMENT_3D('',#405,#406,#407);
#405 = CARTESIAN_POINT('',(178.5,15.,18.5));
#406 = DIRECTION('',(0.,0.,1.));
#407 = DIRECTION('',(1.110223024625E-16,1.,0.));
#408 = ADVANCED_FACE('',(#409),#420,.F.);
#409 = FACE_BOUND('',#410,.F.);
#410 = EDGE_LOOP('',(#411,#412,#418,#419));
#411 = ORIENTED_EDGE('',*,*,#373,.F.);
#412 = ORIENTED_EDGE('',*,*,#413,.T.);
#413 = EDGE_CURVE('',#365,#357,#414,.T.);
#414 = LINE('',#415,#416);
#415 = CARTESIAN_POINT('',(177.5,16.25,18.5));
#416 = VECTOR('',#417,1.);
#417 = DIRECTION('',(1.110223024625E-16,1.,0.));
#418 = ORIENTED_EDGE('',*,*,#356,.T.);
#419 = ORIENTED_EDGE('',*,*,#204,.T.);
#420 = PLANE('',#421);
#421 = AXIS2_PLACEMENT_3D('',#422,#423,#424);
#422 = CARTESIAN_POINT('',(178.5,15.,18.5));
#423 = DIRECTION('',(0.,0.,1.));
#424 = DIRECTION('',(1.110223024625E-16,1.,0.));
#425 = ADVANCED_FACE('',(#426),#445,.T.);
#426 = FACE_BOUND('',#427,.T.);
#427 = EDGE_LOOP('',(#428,#429,#437,#444));
#428 = ORIENTED_EDGE('',*,*,#298,.F.);
#429 = ORIENTED_EDGE('',*,*,#430,.F.);
#430 = EDGE_CURVE('',#431,#299,#433,.T.);
#431 = VERTEX_POINT('',#432);
#432 = CARTESIAN_POINT('',(177.5,17.5,31.5));
#433 = LINE('',#434,#435);
#434 = CARTESIAN_POINT('',(177.5,17.5,31.5));
#435 = VECTOR('',#436,1.);
#436 = DIRECTION('',(-1.,1.110223024625E-16,0.));
#437 = ORIENTED_EDGE('',*,*,#438,.T.);
#438 = EDGE_CURVE('',#431,#431,#439,.T.);
#439 = CIRCLE('',#440,14.);
#440 = AXIS2_PLACEMENT_3D('',#441,#442,#443);
#441 = CARTESIAN_POINT('',(177.5,17.5,17.5));
#442 = DIRECTION('',(-1.,1.110223024625E-16,0.));
#443 = DIRECTION('',(0.,0.,1.));
#444 = ORIENTED_EDGE('',*,*,#430,.T.);
#445 = CYLINDRICAL_SURFACE('',#446,14.);
#446 = AXIS2_PLACEMENT_3D('',#447,#448,#449);
#447 = CARTESIAN_POINT('',(177.5,17.5,17.5));
#448 = DIRECTION('',(-1.,1.110223024625E-16,0.));
#449 = DIRECTION('',(0.,0.,1.));
#450 = ADVANCED_FACE('',(#451),#470,.T.);
#451 = FACE_BOUND('',#452,.T.);
#452 = EDGE_LOOP('',(#453,#462,#468,#469));
#453 = ORIENTED_EDGE('',*,*,#454,.F.);
#454 = EDGE_CURVE('',#455,#455,#457,.T.);
#455 = VERTEX_POINT('',#456);
#456 = CARTESIAN_POINT('',(124.5,17.5,31.5));
#457 = CIRCLE('',#458,14.);
#458 = AXIS2_PLACEMENT_3D('',#459,#460,#461);
#459 = CARTESIAN_POINT('',(124.5,17.5,17.5));
#460 = DIRECTION('',(-1.,1.110223024625E-16,0.));
#461 = DIRECTION('',(0.,0.,1.));
#462 = ORIENTED_EDGE('',*,*,#463,.F.);
#463 = EDGE_CURVE('',#319,#455,#464,.T.);
#464 = LINE('',#465,#466);
#465 = CARTESIAN_POINT('',(126.,17.5,31.5));
#466 = VECTOR('',#467,1.);
#467 = DIRECTION('',(-1.,1.110223024625E-16,0.));
#468 = ORIENTED_EDGE('',*,*,#318,.T.);
#469 = ORIENTED_EDGE('',*,*,#463,.T.);
#470 = CYLINDRICAL_SURFACE('',#471,14.);
#471 = AXIS2_PLACEMENT_3D('',#472,#473,#474);
#472 = CARTESIAN_POINT('',(126.,17.5,17.5));
#473 = DIRECTION('',(-1.,1.110223024625E-16,0.));
#474 = DIRECTION('',(0.,0.,1.));
#475 = ADVANCED_FACE('',(#476),#480,.F.);
#476 = FACE_BOUND('',#477,.F.);
#477 = EDGE_LOOP('',(#478,#479));
#478 = ORIENTED_EDGE('',*,*,#398,.T.);
#479 = ORIENTED_EDGE('',*,*,#338,.T.);
#480 = PLANE('',#481);
#481 = AXIS2_PLACEMENT_3D('',#482,#483,#484);
#482 = CARTESIAN_POINT('',(164.,17.5,17.5));
#483 = DIRECTION('',(-1.,1.110223024625E-16,0.));
#484 = DIRECTION('',(0.,0.,1.));
#485 = ADVANCED_FACE('',(#486,#489),#493,.F.);
#486 = FACE_BOUND('',#487,.F.);
#487 = EDGE_LOOP('',(#488));
#488 = ORIENTED_EDGE('',*,*,#438,.T.);
#489 = FACE_BOUND('',#490,.F.);
#490 = EDGE_LOOP('',(#491,#492));
#491 = ORIENTED_EDGE('',*,*,#364,.F.);
#492 = ORIENTED_EDGE('',*,*,#413,.F.);
#493 = PLANE('',#494);
#494 = AXIS2_PLACEMENT_3D('',#495,#496,#497);
#495 = CARTESIAN_POINT('',(177.5,17.5,17.5));
#496 = DIRECTION('',(-1.,1.110223024625E-16,0.));
#497 = DIRECTION('',(0.,0.,1.));
#498 = ADVANCED_FACE('',(#499,#502),#513,.T.);
#499 = FACE_BOUND('',#500,.T.);
#500 = EDGE_LOOP('',(#501));
#501 = ORIENTED_EDGE('',*,*,#454,.T.);
#502 = FACE_BOUND('',#503,.T.);
#503 = EDGE_LOOP('',(#504));
#504 = ORIENTED_EDGE('',*,*,#505,.F.);
#505 = EDGE_CURVE('',#506,#506,#508,.T.);
#506 = VERTEX_POINT('',#507);
#507 = CARTESIAN_POINT('',(124.5,17.5,20.15));
#508 = CIRCLE('',#509,2.65);
#509 = AXIS2_PLACEMENT_3D('',#510,#511,#512);
#510 = CARTESIAN_POINT('',(124.5,17.5,17.5));
#511 = DIRECTION('',(-1.,1.110223024625E-16,0.));
#512 = DIRECTION('',(0.,0.,1.));
#513 = PLANE('',#514);
#514 = AXIS2_PLACEMENT_3D('',#515,#516,#517);
#515 = CARTESIAN_POINT('',(124.5,17.5,17.5));
#516 = DIRECTION('',(-1.,1.110223024625E-16,0.));
#517 = DIRECTION('',(0.,0.,1.));
#518 = ADVANCED_FACE('',(#519),#538,.F.);
#519 = FACE_BOUND('',#520,.F.);
#520 = EDGE_LOOP('',(#521,#522,#530,#537));
#521 = ORIENTED_EDGE('',*,*,#505,.F.);
#522 = ORIENTED_EDGE('',*,*,#523,.F.);
#523 = EDGE_CURVE('',#524,#506,#526,.T.);
#524 = VERTEX_POINT('',#525);
#525 = CARTESIAN_POINT('',(163.5,17.5,20.15));
#526 = LINE('',#527,#528);
#527 = CARTESIAN_POINT('',(163.5,17.5,20.15));
#528 = VECTOR('',#529,1.);
#529 = DIRECTION('',(-1.,1.110223024625E-16,0.));
#530 = ORIENTED_EDGE('',*,*,#531,.T.);
#531 = EDGE_CURVE('',#524,#524,#532,.T.);
#532 = CIRCLE('',#533,2.65);
#533 = AXIS2_PLACEMENT_3D('',#534,#535,#536);
#534 = CARTESIAN_POINT('',(163.5,17.5,17.5));
#535 = DIRECTION('',(-1.,1.110223024625E-16,0.));
#536 = DIRECTION('',(0.,0.,1.));
#537 = ORIENTED_EDGE('',*,*,#523,.T.);
#538 = CYLINDRICAL_SURFACE('',#539,2.65);
#539 = AXIS2_PLACEMENT_3D('',#540,#541,#542);
#540 = CARTESIAN_POINT('',(163.5,17.5,17.5));
#541 = DIRECTION('',(-1.,1.110223024625E-16,0.));
#542 = DIRECTION('',(0.,0.,1.));
#543 = ADVANCED_FACE('',(#544),#547,.T.);
#544 = FACE_BOUND('',#545,.F.);
#545 = EDGE_LOOP('',(#546));
#546 = ORIENTED_EDGE('',*,*,#531,.F.);
#547 = PLANE('',#548);
#548 = AXIS2_PLACEMENT_3D('',#549,#550,#551);
#549 = CARTESIAN_POINT('',(163.5,17.5,17.5));
#550 = DIRECTION('',(-1.,1.110223024625E-16,0.));
#551 = DIRECTION('',(0.,0.,1.));
#552 = MANIFOLD_SOLID_BREP('',#553);
#553 = CLOSED_SHELL('',(#554,#587,#607,#627,#652,#677,#697,#717));
#554 = ADVANCED_FACE('',(#555),#582,.T.);
#555 = FACE_BOUND('',#556,.T.);
#556 = EDGE_LOOP('',(#557,#566,#574,#581));
#557 = ORIENTED_EDGE('',*,*,#558,.F.);
#558 = EDGE_CURVE('',#559,#559,#561,.T.);
#559 = VERTEX_POINT('',#560);
#560 = CARTESIAN_POINT('',(126.,64.,30.));
#561 = CIRCLE('',#562,5.);
#562 = AXIS2_PLACEMENT_3D('',#563,#564,#565);
#563 = CARTESIAN_POINT('',(126.,64.,25.));
#564 = DIRECTION('',(-1.,1.110223024625E-16,0.));
#565 = DIRECTION('',(0.,0.,1.));
#566 = ORIENTED_EDGE('',*,*,#567,.F.);
#567 = EDGE_CURVE('',#568,#559,#570,.T.);
#568 = VERTEX_POINT('',#569);
#569 = CARTESIAN_POINT('',(176.,64.,30.));
#570 = LINE('',#571,#572);
#571 = CARTESIAN_POINT('',(176.,64.,30.));
#572 = VECTOR('',#573,1.);
#573 = DIRECTION('',(-1.,1.110223024625E-16,0.));
#574 = ORIENTED_EDGE('',*,*,#575,.T.);
#575 = EDGE_CURVE('',#568,#568,#576,.T.);
#576 = CIRCLE('',#577,5.);
#577 = AXIS2_PLACEMENT_3D('',#578,#579,#580);
#578 = CARTESIAN_POINT('',(176.,64.,25.));
#579 = DIRECTION('',(-1.,1.110223024625E-16,0.));
#580 = DIRECTION('',(0.,0.,1.));
#581 = ORIENTED_EDGE('',*,*,#567,.T.);
#582 = CYLINDRICAL_SURFACE('',#583,5.);
#583 = AXIS2_PLACEMENT_3D('',#584,#585,#586);
#584 = CARTESIAN_POINT('',(176.,64.,25.));
#585 = DIRECTION('',(-1.,1.110223024625E-16,0.));
#586 = DIRECTION('',(0.,0.,1.));
#587 = ADVANCED_FACE('',(#588,#599),#602,.F.);
#588 = FACE_BOUND('',#589,.F.);
#589 = EDGE_LOOP('',(#590));
#590 = ORIENTED_EDGE('',*,*,#591,.T.);
#591 = EDGE_CURVE('',#592,#592,#594,.T.);
#592 = VERTEX_POINT('',#593);
#593 = CARTESIAN_POINT('',(126.,64.,31.5));
#594 = CIRCLE('',#595,6.5);
#595 = AXIS2_PLACEMENT_3D('',#596,#597,#598);
#596 = CARTESIAN_POINT('',(126.,64.,25.));
#597 = DIRECTION('',(-1.,1.110223024625E-16,0.));
#598 = DIRECTION('',(0.,0.,1.));
#599 = FACE_BOUND('',#600,.F.);
#600 = EDGE_LOOP('',(#601));
#601 = ORIENTED_EDGE('',*,*,#558,.F.);
#602 = PLANE('',#603);
#603 = AXIS2_PLACEMENT_3D('',#604,#605,#606);
#604 = CARTESIAN_POINT('',(126.,64.,25.));
#605 = DIRECTION('',(-1.,1.110223024625E-16,0.));
#606 = DIRECTION('',(0.,0.,1.));
#607 = ADVANCED_FACE('',(#608,#619),#622,.T.);
#608 = FACE_BOUND('',#609,.T.);
#609 = EDGE_LOOP('',(#610));
#610 = ORIENTED_EDGE('',*,*,#611,.T.);
#611 = EDGE_CURVE('',#612,#612,#614,.T.);
#612 = VERTEX_POINT('',#613);
#613 = CARTESIAN_POINT('',(176.,64.,31.5));
#614 = CIRCLE('',#615,6.5);
#615 = AXIS2_PLACEMENT_3D('',#616,#617,#618);
#616 = CARTESIAN_POINT('',(176.,64.,25.));
#617 = DIRECTION('',(-1.,1.110223024625E-16,0.));
#618 = DIRECTION('',(0.,0.,1.));
#619 = FACE_BOUND('',#620,.T.);
#620 = EDGE_LOOP('',(#621));
#621 = ORIENTED_EDGE('',*,*,#575,.F.);
#622 = PLANE('',#623);
#623 = AXIS2_PLACEMENT_3D('',#624,#625,#626);
#624 = CARTESIAN_POINT('',(176.,64.,25.));
#625 = DIRECTION('',(-1.,1.110223024625E-16,0.));
#626 = DIRECTION('',(0.,0.,1.));
#627 = ADVANCED_FACE('',(#628),#647,.T.);
#628 = FACE_BOUND('',#629,.T.);
#629 = EDGE_LOOP('',(#630,#639,#645,#646));
#630 = ORIENTED_EDGE('',*,*,#631,.F.);
#631 = EDGE_CURVE('',#632,#632,#634,.T.);
#632 = VERTEX_POINT('',#633);
#633 = CARTESIAN_POINT('',(124.5,64.,31.5));
#634 = CIRCLE('',#635,6.5);
#635 = AXIS2_PLACEMENT_3D('',#636,#637,#638);
#636 = CARTESIAN_POINT('',(124.5,64.,25.));
#637 = DIRECTION('',(-1.,1.110223024625E-16,0.));
#638 = DIRECTION('',(0.,0.,1.));
#639 = ORIENTED_EDGE('',*,*,#640,.F.);
#640 = EDGE_CURVE('',#592,#632,#641,.T.);
#641 = LINE('',#642,#643);
#642 = CARTESIAN_POINT('',(126.,64.,31.5));
#643 = VECTOR('',#644,1.);
#644 = DIRECTION('',(-1.,1.110223024625E-16,0.));
#645 = ORIENTED_EDGE('',*,*,#591,.T.);
#646 = ORIENTED_EDGE('',*,*,#640,.T.);
#647 = CYLINDRICAL_SURFACE('',#648,6.5);
#648 = AXIS2_PLACEMENT_3D('',#649,#650,#651);
#649 = CARTESIAN_POINT('',(126.,64.,25.));
#650 = DIRECTION('',(-1.,1.110223024625E-16,0.));
#651 = DIRECTION('',(0.,0.,1.));
#652 = ADVANCED_FACE('',(#653),#672,.T.);
#653 = FACE_BOUND('',#654,.T.);
#654 = EDGE_LOOP('',(#655,#656,#664,#671));
#655 = ORIENTED_EDGE('',*,*,#611,.F.);
#656 = ORIENTED_EDGE('',*,*,#657,.F.);
#657 = EDGE_CURVE('',#658,#612,#660,.T.);
#658 = VERTEX_POINT('',#659);
#659 = CARTESIAN_POINT('',(177.5,64.,31.5));
#660 = LINE('',#661,#662);
#661 = CARTESIAN_POINT('',(177.5,64.,31.5));
#662 = VECTOR('',#663,1.);
#663 = DIRECTION('',(-1.,1.110223024625E-16,0.));
#664 = ORIENTED_EDGE('',*,*,#665,.T.);
#665 = EDGE_CURVE('',#658,#658,#666,.T.);
#666 = CIRCLE('',#667,6.5);
#667 = AXIS2_PLACEMENT_3D('',#668,#669,#670);
#668 = CARTESIAN_POINT('',(177.5,64.,25.));
#669 = DIRECTION('',(-1.,1.110223024625E-16,0.));
#670 = DIRECTION('',(0.,0.,1.));
#671 = ORIENTED_EDGE('',*,*,#657,.T.);
#672 = CYLINDRICAL_SURFACE('',#673,6.5);
#673 = AXIS2_PLACEMENT_3D('',#674,#675,#676);
#674 = CARTESIAN_POINT('',(177.5,64.,25.));
#675 = DIRECTION('',(-1.,1.110223024625E-16,0.));
#676 = DIRECTION('',(0.,0.,1.));
#677 = ADVANCED_FACE('',(#678,#681),#692,.T.);
#678 = FACE_BOUND('',#679,.T.);
#679 = EDGE_LOOP('',(#680));
#680 = ORIENTED_EDGE('',*,*,#631,.T.);
#681 = FACE_BOUND('',#682,.T.);
#682 = EDGE_LOOP('',(#683));
#683 = ORIENTED_EDGE('',*,*,#684,.F.);
#684 = EDGE_CURVE('',#685,#685,#687,.T.);
#685 = VERTEX_POINT('',#686);
#686 = CARTESIAN_POINT('',(124.5,64.,27.2));
#687 = CIRCLE('',#688,2.2);
#688 = AXIS2_PLACEMENT_3D('',#689,#690,#691);
#689 = CARTESIAN_POINT('',(124.5,64.,25.));
#690 = DIRECTION('',(-1.,1.110223024625E-16,0.));
#691 = DIRECTION('',(0.,0.,1.));
#692 = PLANE('',#693);
#693 = AXIS2_PLACEMENT_3D('',#694,#695,#696);
#694 = CARTESIAN_POINT('',(124.5,64.,25.));
#695 = DIRECTION('',(-1.,1.110223024625E-16,0.));
#696 = DIRECTION('',(0.,0.,1.));
#697 = ADVANCED_FACE('',(#698,#701),#712,.F.);
#698 = FACE_BOUND('',#699,.F.);
#699 = EDGE_LOOP('',(#700));
#700 = ORIENTED_EDGE('',*,*,#665,.T.);
#701 = FACE_BOUND('',#702,.F.);
#702 = EDGE_LOOP('',(#703));
#703 = ORIENTED_EDGE('',*,*,#704,.F.);
#704 = EDGE_CURVE('',#705,#705,#707,.T.);
#705 = VERTEX_POINT('',#706);
#706 = CARTESIAN_POINT('',(177.5,64.,27.2));
#707 = CIRCLE('',#708,2.2);
#708 = AXIS2_PLACEMENT_3D('',#709,#710,#711);
#709 = CARTESIAN_POINT('',(177.5,64.,25.));
#710 = DIRECTION('',(-1.,1.110223024625E-16,0.));
#711 = DIRECTION('',(0.,0.,1.));
#712 = PLANE('',#713);
#713 = AXIS2_PLACEMENT_3D('',#714,#715,#716);
#714 = CARTESIAN_POINT('',(177.5,64.,25.));
#715 = DIRECTION('',(-1.,1.110223024625E-16,0.));
#716 = DIRECTION('',(0.,0.,1.));
#717 = ADVANCED_FACE('',(#718),#729,.F.);
#718 = FACE_BOUND('',#719,.F.);
#719 = EDGE_LOOP('',(#720,#721,#727,#728));
#720 = ORIENTED_EDGE('',*,*,#684,.F.);
#721 = ORIENTED_EDGE('',*,*,#722,.F.);
#722 = EDGE_CURVE('',#705,#685,#723,.T.);
#723 = LINE('',#724,#725);
#724 = CARTESIAN_POINT('',(178.5,64.,27.2));
#725 = VECTOR('',#726,1.);
#726 = DIRECTION('',(-1.,1.110223024625E-16,0.));
#727 = ORIENTED_EDGE('',*,*,#704,.T.);
#728 = ORIENTED_EDGE('',*,*,#722,.T.);
#729 = CYLINDRICAL_SURFACE('',#730,2.2);
#730 = AXIS2_PLACEMENT_3D('',#731,#732,#733);
#731 = CARTESIAN_POINT('',(178.5,64.,25.));
#732 = DIRECTION('',(-1.,1.110223024625E-16,0.));
#733 = DIRECTION('',(0.,0.,1.));
#734 = ( GEOMETRIC_REPRESENTATION_CONTEXT(3) 
GLOBAL_UNCERTAINTY_ASSIGNED_CONTEXT((#738)) GLOBAL_UNIT_ASSIGNED_CONTEXT
((#735,#736,#737)) REPRESENTATION_CONTEXT('Context #1',
  '3D Context with UNIT and UNCERTAINTY') );
#735 = ( LENGTH_UNIT() NAMED_UNIT(*) SI_UNIT(.MILLI.,.METRE.) );
#736 = ( NAMED_UNIT(*) PLANE_ANGLE_UNIT() SI_UNIT($,.RADIAN.) );
#737 = ( NAMED_UNIT(*) SI_UNIT($,.STERADIAN.) SOLID_ANGLE_UNIT() );
#738 = UNCERTAINTY_MEASURE_WITH_UNIT(LENGTH_MEASURE(1.E-07),#735,
  'distance_accuracy_value','confusion accuracy');
#739 = PRODUCT_RELATED_PRODUCT_CATEGORY('part',$,(#7));
ENDSEC;
END-ISO-10303-21;
