ISO-10303-21;
HEADER;
FILE_DESCRIPTION(('FreeCAD Model'),'2;1');
FILE_NAME('Open CASCADE Shape Model','2026-09-26T02:20:26',('FreeCAD'),(
    'FreeCAD'),'Open CASCADE STEP processor 7.8','FreeCAD','Unknown');
FILE_SCHEMA(('AUTOMOTIVE_DESIGN { 1 0 10303 214 1 1 1 1 }'));
ENDSEC;
DATA;
#1 = APPLICATION_PROTOCOL_DEFINITION('international standard',
  'automotive_design',2000,#2);
#2 = APPLICATION_CONTEXT(
  'core data for automotive mechanical design processes');
#3 = SHAPE_DEFINITION_REPRESENTATION(#4,#10);
#4 = PRODUCT_DEFINITION_SHAPE('','',#5);
#5 = PRODUCT_DEFINITION('design','',#6,#9);
#6 = PRODUCT_DEFINITION_FORMATION('','',#7);
#7 = PRODUCT('Open CASCADE STEP translator 7.8 14',
  'Open CASCADE STEP translator 7.8 14','',(#8));
#8 = PRODUCT_CONTEXT('',#2,'mechanical');
#9 = PRODUCT_DEFINITION_CONTEXT('part definition',#2,'design');
#10 = SHAPE_REPRESENTATION('',(#11,#15,#1276),#1597);
#11 = AXIS2_PLACEMENT_3D('',#12,#13,#14);
#12 = CARTESIAN_POINT('',(0.,0.,0.));
#13 = DIRECTION('',(0.,0.,1.));
#14 = DIRECTION('',(1.,0.,-0.));
#15 = MANIFOLD_SOLID_BREP('',#16);
#16 = CLOSED_SHELL('',(#17,#73,#240,#271,#295,#462,#479,#537,#561,#585,
    #602,#619,#641,#658,#675,#692,#709,#726,#743,#755,#786,#860,#895,
    #912,#924,#948,#972,#989,#1013,#1037,#1054,#1066,#1078,#1090,#1121,
    #1145,#1169,#1193,#1217,#1234,#1259));
#17 = ADVANCED_FACE('',(#18),#68,.F.);
#18 = FACE_BOUND('',#19,.F.);
#19 = EDGE_LOOP('',(#20,#30,#38,#46,#54,#62));
#20 = ORIENTED_EDGE('',*,*,#21,.F.);
#21 = EDGE_CURVE('',#22,#24,#26,.T.);
#22 = VERTEX_POINT('',#23);
#23 = CARTESIAN_POINT('',(0.,7.5,0.));
#24 = VERTEX_POINT('',#25);
#25 = CARTESIAN_POINT('',(0.,7.5,14.));
#26 = LINE('',#27,#28);
#27 = CARTESIAN_POINT('',(0.,7.5,0.));
#28 = VECTOR('',#29,1.);
#29 = DIRECTION('',(0.,0.,1.));
#30 = ORIENTED_EDGE('',*,*,#31,.T.);
#31 = EDGE_CURVE('',#22,#32,#34,.T.);
#32 = VERTEX_POINT('',#33);
#33 = CARTESIAN_POINT('',(0.,10.5,0.));
#34 = LINE('',#35,#36);
#35 = CARTESIAN_POINT('',(0.,7.5,0.));
#36 = VECTOR('',#37,1.);
#37 = DIRECTION('',(-0.,1.,0.));
#38 = ORIENTED_EDGE('',*,*,#39,.T.);
#39 = EDGE_CURVE('',#32,#40,#42,.T.);
#40 = VERTEX_POINT('',#41);
#41 = CARTESIAN_POINT('',(0.,10.5,35.));
#42 = LINE('',#43,#44);
#43 = CARTESIAN_POINT('',(0.,10.5,0.));
#44 = VECTOR('',#45,1.);
#45 = DIRECTION('',(0.,0.,1.));
#46 = ORIENTED_EDGE('',*,*,#47,.F.);
#47 = EDGE_CURVE('',#48,#40,#50,.T.);
#48 = VERTEX_POINT('',#49);
#49 = CARTESIAN_POINT('',(0.,7.5,35.));
#50 = LINE('',#51,#52);
#51 = CARTESIAN_POINT('',(0.,7.5,35.));
#52 = VECTOR('',#53,1.);
#53 = DIRECTION('',(-0.,1.,0.));
#54 = ORIENTED_EDGE('',*,*,#55,.F.);
#55 = EDGE_CURVE('',#56,#48,#58,.T.);
#56 = VERTEX_POINT('',#57);
#57 = CARTESIAN_POINT('',(0.,7.5,17.));
#58 = LINE('',#59,#60);
#59 = CARTESIAN_POINT('',(0.,7.5,0.));
#60 = VECTOR('',#61,1.);
#61 = DIRECTION('',(0.,0.,1.));
#62 = ORIENTED_EDGE('',*,*,#63,.F.);
#63 = EDGE_CURVE('',#24,#56,#64,.T.);
#64 = LINE('',#65,#66);
#65 = CARTESIAN_POINT('',(0.,7.5,0.));
#66 = VECTOR('',#67,1.);
#67 = DIRECTION('',(0.,0.,1.));
#68 = PLANE('',#69);
#69 = AXIS2_PLACEMENT_3D('',#70,#71,#72);
#70 = CARTESIAN_POINT('',(0.,7.5,0.));
#71 = DIRECTION('',(1.,0.,-0.));
#72 = DIRECTION('',(0.,0.,1.));
#73 = ADVANCED_FACE('',(#74,#122,#133,#201),#235,.F.);
#74 = FACE_BOUND('',#75,.F.);
#75 = EDGE_LOOP('',(#76,#86,#92,#93,#101,#109,#115,#116));
#76 = ORIENTED_EDGE('',*,*,#77,.T.);
#77 = EDGE_CURVE('',#78,#80,#82,.T.);
#78 = VERTEX_POINT('',#79);
#79 = CARTESIAN_POINT('',(30.,7.5,35.));
#80 = VERTEX_POINT('',#81);
#81 = CARTESIAN_POINT('',(30.,7.5,0.));
#82 = LINE('',#83,#84);
#83 = CARTESIAN_POINT('',(30.,7.5,-0.5));
#84 = VECTOR('',#85,1.);
#85 = DIRECTION('',(-0.,0.,-1.));
#86 = ORIENTED_EDGE('',*,*,#87,.F.);
#87 = EDGE_CURVE('',#22,#80,#88,.T.);
#88 = LINE('',#89,#90);
#89 = CARTESIAN_POINT('',(0.,7.5,0.));
#90 = VECTOR('',#91,1.);
#91 = DIRECTION('',(1.,0.,-0.));
#92 = ORIENTED_EDGE('',*,*,#21,.T.);
#93 = ORIENTED_EDGE('',*,*,#94,.T.);
#94 = EDGE_CURVE('',#24,#95,#97,.T.);
#95 = VERTEX_POINT('',#96);
#96 = CARTESIAN_POINT('',(22.,7.5,14.));
#97 = LINE('',#98,#99);
#98 = CARTESIAN_POINT('',(0.,7.5,14.));
#99 = VECTOR('',#100,1.);
#100 = DIRECTION('',(1.,0.,-0.));
#101 = ORIENTED_EDGE('',*,*,#102,.T.);
#102 = EDGE_CURVE('',#95,#103,#105,.T.);
#103 = VERTEX_POINT('',#104);
#104 = CARTESIAN_POINT('',(22.,7.5,17.));
#105 = LINE('',#106,#107);
#106 = CARTESIAN_POINT('',(22.,7.5,14.));
#107 = VECTOR('',#108,1.);
#108 = DIRECTION('',(0.,0.,1.));
#109 = ORIENTED_EDGE('',*,*,#110,.F.);
#110 = EDGE_CURVE('',#56,#103,#111,.T.);
#111 = LINE('',#112,#113);
#112 = CARTESIAN_POINT('',(0.,7.5,17.));
#113 = VECTOR('',#114,1.);
#114 = DIRECTION('',(1.,0.,-0.));
#115 = ORIENTED_EDGE('',*,*,#55,.T.);
#116 = ORIENTED_EDGE('',*,*,#117,.T.);
#117 = EDGE_CURVE('',#48,#78,#118,.T.);
#118 = LINE('',#119,#120);
#119 = CARTESIAN_POINT('',(0.,7.5,35.));
#120 = VECTOR('',#121,1.);
#121 = DIRECTION('',(1.,0.,-0.));
#122 = FACE_BOUND('',#123,.F.);
#123 = EDGE_LOOP('',(#124));
#124 = ORIENTED_EDGE('',*,*,#125,.F.);
#125 = EDGE_CURVE('',#126,#126,#128,.T.);
#126 = VERTEX_POINT('',#127);
#127 = CARTESIAN_POINT('',(18.,7.5,7.75));
#128 = CIRCLE('',#129,1.75);
#129 = AXIS2_PLACEMENT_3D('',#130,#131,#132);
#130 = CARTESIAN_POINT('',(18.,7.5,6.));
#131 = DIRECTION('',(0.,1.,0.));
#132 = DIRECTION('',(0.,-0.,1.));
#133 = FACE_BOUND('',#134,.F.);
#134 = EDGE_LOOP('',(#135,#146,#154,#162,#170,#179,#187,#195));
#135 = ORIENTED_EDGE('',*,*,#136,.F.);
#136 = EDGE_CURVE('',#137,#139,#141,.T.);
#137 = VERTEX_POINT('',#138);
#138 = CARTESIAN_POINT('',(6.,7.5,22.7639320225));
#139 = VERTEX_POINT('',#140);
#140 = CARTESIAN_POINT('',(6.,7.5,27.2360679775));
#141 = CIRCLE('',#142,2.25);
#142 = AXIS2_PLACEMENT_3D('',#143,#144,#145);
#143 = CARTESIAN_POINT('',(6.25,7.5,25.));
#144 = DIRECTION('',(0.,1.,0.));
#145 = DIRECTION('',(0.,-0.,1.));
#146 = ORIENTED_EDGE('',*,*,#147,.T.);
#147 = EDGE_CURVE('',#137,#148,#150,.T.);
#148 = VERTEX_POINT('',#149);
#149 = CARTESIAN_POINT('',(6.,7.5,22.75));
#150 = LINE('',#151,#152);
#151 = CARTESIAN_POINT('',(6.,7.5,11.375));
#152 = VECTOR('',#153,1.);
#153 = DIRECTION('',(-0.,0.,-1.));
#154 = ORIENTED_EDGE('',*,*,#155,.T.);
#155 = EDGE_CURVE('',#148,#156,#158,.T.);
#156 = VERTEX_POINT('',#157);
#157 = CARTESIAN_POINT('',(6.25,7.5,22.75));
#158 = LINE('',#159,#160);
#159 = CARTESIAN_POINT('',(3.,7.5,22.75));
#160 = VECTOR('',#161,1.);
#161 = DIRECTION('',(1.,0.,-0.));
#162 = ORIENTED_EDGE('',*,*,#163,.T.);
#163 = EDGE_CURVE('',#156,#164,#166,.T.);
#164 = VERTEX_POINT('',#165);
#165 = CARTESIAN_POINT('',(14.,7.5,22.75));
#166 = LINE('',#167,#168);
#167 = CARTESIAN_POINT('',(3.,7.5,22.75));
#168 = VECTOR('',#169,1.);
#169 = DIRECTION('',(1.,0.,-0.));
#170 = ORIENTED_EDGE('',*,*,#171,.F.);
#171 = EDGE_CURVE('',#172,#164,#174,.T.);
#172 = VERTEX_POINT('',#173);
#173 = CARTESIAN_POINT('',(14.,7.5,27.25));
#174 = CIRCLE('',#175,2.25);
#175 = AXIS2_PLACEMENT_3D('',#176,#177,#178);
#176 = CARTESIAN_POINT('',(14.,7.5,25.));
#177 = DIRECTION('',(0.,1.,0.));
#178 = DIRECTION('',(0.,-0.,1.));
#179 = ORIENTED_EDGE('',*,*,#180,.F.);
#180 = EDGE_CURVE('',#181,#172,#183,.T.);
#181 = VERTEX_POINT('',#182);
#182 = CARTESIAN_POINT('',(6.25,7.5,27.25));
#183 = LINE('',#184,#185);
#184 = CARTESIAN_POINT('',(3.,7.5,27.25));
#185 = VECTOR('',#186,1.);
#186 = DIRECTION('',(1.,0.,-0.));
#187 = ORIENTED_EDGE('',*,*,#188,.F.);
#188 = EDGE_CURVE('',#189,#181,#191,.T.);
#189 = VERTEX_POINT('',#190);
#190 = CARTESIAN_POINT('',(6.,7.5,27.25));
#191 = LINE('',#192,#193);
#192 = CARTESIAN_POINT('',(3.,7.5,27.25));
#193 = VECTOR('',#194,1.);
#194 = DIRECTION('',(1.,0.,-0.));
#195 = ORIENTED_EDGE('',*,*,#196,.T.);
#196 = EDGE_CURVE('',#189,#139,#197,.T.);
#197 = LINE('',#198,#199);
#198 = CARTESIAN_POINT('',(6.,7.5,11.375));
#199 = VECTOR('',#200,1.);
#200 = DIRECTION('',(-0.,0.,-1.));
#201 = FACE_BOUND('',#202,.F.);
#202 = EDGE_LOOP('',(#203,#213,#221,#229));
#203 = ORIENTED_EDGE('',*,*,#204,.F.);
#204 = EDGE_CURVE('',#205,#207,#209,.T.);
#205 = VERTEX_POINT('',#206);
#206 = CARTESIAN_POINT('',(19.6,7.5,30.));
#207 = VERTEX_POINT('',#208);
#208 = CARTESIAN_POINT('',(26.,7.5,30.));
#209 = LINE('',#210,#211);
#210 = CARTESIAN_POINT('',(9.8,7.5,30.));
#211 = VECTOR('',#212,1.);
#212 = DIRECTION('',(1.,0.,-0.));
#213 = ORIENTED_EDGE('',*,*,#214,.T.);
#214 = EDGE_CURVE('',#205,#215,#217,.T.);
#215 = VERTEX_POINT('',#216);
#216 = CARTESIAN_POINT('',(19.6,7.5,20.));
#217 = LINE('',#218,#219);
#218 = CARTESIAN_POINT('',(19.6,7.5,10.));
#219 = VECTOR('',#220,1.);
#220 = DIRECTION('',(-0.,0.,-1.));
#221 = ORIENTED_EDGE('',*,*,#222,.T.);
#222 = EDGE_CURVE('',#215,#223,#225,.T.);
#223 = VERTEX_POINT('',#224);
#224 = CARTESIAN_POINT('',(26.,7.5,20.));
#225 = LINE('',#226,#227);
#226 = CARTESIAN_POINT('',(9.8,7.5,20.));
#227 = VECTOR('',#228,1.);
#228 = DIRECTION('',(1.,0.,-0.));
#229 = ORIENTED_EDGE('',*,*,#230,.F.);
#230 = EDGE_CURVE('',#207,#223,#231,.T.);
#231 = LINE('',#232,#233);
#232 = CARTESIAN_POINT('',(26.,7.5,10.));
#233 = VECTOR('',#234,1.);
#234 = DIRECTION('',(-0.,0.,-1.));
#235 = PLANE('',#236);
#236 = AXIS2_PLACEMENT_3D('',#237,#238,#239);
#237 = CARTESIAN_POINT('',(0.,7.5,0.));
#238 = DIRECTION('',(-0.,1.,0.));
#239 = DIRECTION('',(0.,0.,1.));
#240 = ADVANCED_FACE('',(#241),#266,.F.);
#241 = FACE_BOUND('',#242,.F.);
#242 = EDGE_LOOP('',(#243,#253,#259,#260));
#243 = ORIENTED_EDGE('',*,*,#244,.F.);
#244 = EDGE_CURVE('',#245,#247,#249,.T.);
#245 = VERTEX_POINT('',#246);
#246 = CARTESIAN_POINT('',(0.,5.,14.));
#247 = VERTEX_POINT('',#248);
#248 = CARTESIAN_POINT('',(0.,5.,17.));
#249 = LINE('',#250,#251);
#250 = CARTESIAN_POINT('',(0.,5.,14.));
#251 = VECTOR('',#252,1.);
#252 = DIRECTION('',(0.,0.,1.));
#253 = ORIENTED_EDGE('',*,*,#254,.T.);
#254 = EDGE_CURVE('',#245,#24,#255,.T.);
#255 = LINE('',#256,#257);
#256 = CARTESIAN_POINT('',(0.,5.,14.));
#257 = VECTOR('',#258,1.);
#258 = DIRECTION('',(-0.,1.,0.));
#259 = ORIENTED_EDGE('',*,*,#63,.T.);
#260 = ORIENTED_EDGE('',*,*,#261,.F.);
#261 = EDGE_CURVE('',#247,#56,#262,.T.);
#262 = LINE('',#263,#264);
#263 = CARTESIAN_POINT('',(0.,5.,17.));
#264 = VECTOR('',#265,1.);
#265 = DIRECTION('',(-0.,1.,0.));
#266 = PLANE('',#267);
#267 = AXIS2_PLACEMENT_3D('',#268,#269,#270);
#268 = CARTESIAN_POINT('',(0.,5.,14.));
#269 = DIRECTION('',(1.,0.,-0.));
#270 = DIRECTION('',(0.,0.,1.));
#271 = ADVANCED_FACE('',(#272),#290,.T.);
#272 = FACE_BOUND('',#273,.T.);
#273 = EDGE_LOOP('',(#274,#282,#283,#284));
#274 = ORIENTED_EDGE('',*,*,#275,.F.);
#275 = EDGE_CURVE('',#40,#276,#278,.T.);
#276 = VERTEX_POINT('',#277);
#277 = CARTESIAN_POINT('',(30.,10.5,35.));
#278 = LINE('',#279,#280);
#279 = CARTESIAN_POINT('',(0.,10.5,35.));
#280 = VECTOR('',#281,1.);
#281 = DIRECTION('',(1.,0.,-0.));
#282 = ORIENTED_EDGE('',*,*,#47,.F.);
#283 = ORIENTED_EDGE('',*,*,#117,.T.);
#284 = ORIENTED_EDGE('',*,*,#285,.T.);
#285 = EDGE_CURVE('',#78,#276,#286,.T.);
#286 = LINE('',#287,#288);
#287 = CARTESIAN_POINT('',(30.,3.5,35.));
#288 = VECTOR('',#289,1.);
#289 = DIRECTION('',(-0.,1.,0.));
#290 = PLANE('',#291);
#291 = AXIS2_PLACEMENT_3D('',#292,#293,#294);
#292 = CARTESIAN_POINT('',(0.,7.5,35.));
#293 = DIRECTION('',(0.,0.,1.));
#294 = DIRECTION('',(1.,0.,-0.));
#295 = ADVANCED_FACE('',(#296,#378,#389),#457,.T.);
#296 = FACE_BOUND('',#297,.T.);
#297 = EDGE_LOOP('',(#298,#308,#314,#315,#316,#324,#332,#340,#348,#356,
    #364,#372));
#298 = ORIENTED_EDGE('',*,*,#299,.T.);
#299 = EDGE_CURVE('',#300,#302,#304,.T.);
#300 = VERTEX_POINT('',#301);
#301 = CARTESIAN_POINT('',(30.,10.5,16.05));
#302 = VERTEX_POINT('',#303);
#303 = CARTESIAN_POINT('',(30.,10.5,0.));
#304 = LINE('',#305,#306);
#305 = CARTESIAN_POINT('',(30.,10.5,-0.5));
#306 = VECTOR('',#307,1.);
#307 = DIRECTION('',(-0.,0.,-1.));
#308 = ORIENTED_EDGE('',*,*,#309,.F.);
#309 = EDGE_CURVE('',#32,#302,#310,.T.);
#310 = LINE('',#311,#312);
#311 = CARTESIAN_POINT('',(0.,10.5,0.));
#312 = VECTOR('',#313,1.);
#313 = DIRECTION('',(1.,0.,-0.));
#314 = ORIENTED_EDGE('',*,*,#39,.T.);
#315 = ORIENTED_EDGE('',*,*,#275,.T.);
#316 = ORIENTED_EDGE('',*,*,#317,.T.);
#317 = EDGE_CURVE('',#276,#318,#320,.T.);
#318 = VERTEX_POINT('',#319);
#319 = CARTESIAN_POINT('',(30.,10.5,29.3));
#320 = LINE('',#321,#322);
#321 = CARTESIAN_POINT('',(30.,10.5,-0.5));
#322 = VECTOR('',#323,1.);
#323 = DIRECTION('',(-0.,0.,-1.));
#324 = ORIENTED_EDGE('',*,*,#325,.F.);
#325 = EDGE_CURVE('',#326,#318,#328,.T.);
#326 = VERTEX_POINT('',#327);
#327 = CARTESIAN_POINT('',(14.992713291639,10.5,29.3));
#328 = LINE('',#329,#330);
#329 = CARTESIAN_POINT('',(14.992713291639,10.5,29.3));
#330 = VECTOR('',#331,1.);
#331 = DIRECTION('',(1.,0.,-0.));
#332 = ORIENTED_EDGE('',*,*,#333,.F.);
#333 = EDGE_CURVE('',#334,#326,#336,.T.);
#334 = VERTEX_POINT('',#335);
#335 = CARTESIAN_POINT('',(14.992713291639,10.5,27.6));
#336 = LINE('',#337,#338);
#337 = CARTESIAN_POINT('',(14.992713291639,10.5,27.6));
#338 = VECTOR('',#339,1.);
#339 = DIRECTION('',(0.,0.,1.));
#340 = ORIENTED_EDGE('',*,*,#341,.T.);
#341 = EDGE_CURVE('',#334,#342,#344,.T.);
#342 = VERTEX_POINT('',#343);
#343 = CARTESIAN_POINT('',(30.,10.5,27.6));
#344 = LINE('',#345,#346);
#345 = CARTESIAN_POINT('',(14.992713291639,10.5,27.6));
#346 = VECTOR('',#347,1.);
#347 = DIRECTION('',(1.,0.,-0.));
#348 = ORIENTED_EDGE('',*,*,#349,.T.);
#349 = EDGE_CURVE('',#342,#350,#352,.T.);
#350 = VERTEX_POINT('',#351);
#351 = CARTESIAN_POINT('',(30.,10.5,17.75));
#352 = LINE('',#353,#354);
#353 = CARTESIAN_POINT('',(30.,10.5,-0.5));
#354 = VECTOR('',#355,1.);
#355 = DIRECTION('',(-0.,0.,-1.));
#356 = ORIENTED_EDGE('',*,*,#357,.F.);
#357 = EDGE_CURVE('',#358,#350,#360,.T.);
#358 = VERTEX_POINT('',#359);
#359 = CARTESIAN_POINT('',(29.6,10.5,17.75));
#360 = LINE('',#361,#362);
#361 = CARTESIAN_POINT('',(29.6,10.5,17.75));
#362 = VECTOR('',#363,1.);
#363 = DIRECTION('',(1.,0.,-0.));
#364 = ORIENTED_EDGE('',*,*,#365,.F.);
#365 = EDGE_CURVE('',#366,#358,#368,.T.);
#366 = VERTEX_POINT('',#367);
#367 = CARTESIAN_POINT('',(29.6,10.5,16.05));
#368 = LINE('',#369,#370);
#369 = CARTESIAN_POINT('',(29.6,10.5,16.05));
#370 = VECTOR('',#371,1.);
#371 = DIRECTION('',(0.,0.,1.));
#372 = ORIENTED_EDGE('',*,*,#373,.T.);
#373 = EDGE_CURVE('',#366,#300,#374,.T.);
#374 = LINE('',#375,#376);
#375 = CARTESIAN_POINT('',(29.6,10.5,16.05));
#376 = VECTOR('',#377,1.);
#377 = DIRECTION('',(1.,0.,-0.));
#378 = FACE_BOUND('',#379,.T.);
#379 = EDGE_LOOP('',(#380));
#380 = ORIENTED_EDGE('',*,*,#381,.F.);
#381 = EDGE_CURVE('',#382,#382,#384,.T.);
#382 = VERTEX_POINT('',#383);
#383 = CARTESIAN_POINT('',(18.,10.5,7.75));
#384 = CIRCLE('',#385,1.75);
#385 = AXIS2_PLACEMENT_3D('',#386,#387,#388);
#386 = CARTESIAN_POINT('',(18.,10.5,6.));
#387 = DIRECTION('',(0.,1.,0.));
#388 = DIRECTION('',(0.,-0.,1.));
#389 = FACE_BOUND('',#390,.T.);
#390 = EDGE_LOOP('',(#391,#402,#410,#418,#426,#435,#443,#451));
#391 = ORIENTED_EDGE('',*,*,#392,.F.);
#392 = EDGE_CURVE('',#393,#395,#397,.T.);
#393 = VERTEX_POINT('',#394);
#394 = CARTESIAN_POINT('',(6.,10.5,22.7639320225));
#395 = VERTEX_POINT('',#396);
#396 = CARTESIAN_POINT('',(6.,10.5,27.2360679775));
#397 = CIRCLE('',#398,2.25);
#398 = AXIS2_PLACEMENT_3D('',#399,#400,#401);
#399 = CARTESIAN_POINT('',(6.25,10.5,25.));
#400 = DIRECTION('',(0.,1.,0.));
#401 = DIRECTION('',(0.,-0.,1.));
#402 = ORIENTED_EDGE('',*,*,#403,.T.);
#403 = EDGE_CURVE('',#393,#404,#406,.T.);
#404 = VERTEX_POINT('',#405);
#405 = CARTESIAN_POINT('',(6.,10.5,22.75));
#406 = LINE('',#407,#408);
#407 = CARTESIAN_POINT('',(6.,10.5,11.375));
#408 = VECTOR('',#409,1.);
#409 = DIRECTION('',(-0.,0.,-1.));
#410 = ORIENTED_EDGE('',*,*,#411,.T.);
#411 = EDGE_CURVE('',#404,#412,#414,.T.);
#412 = VERTEX_POINT('',#413);
#413 = CARTESIAN_POINT('',(6.25,10.5,22.75));
#414 = LINE('',#415,#416);
#415 = CARTESIAN_POINT('',(3.,10.5,22.75));
#416 = VECTOR('',#417,1.);
#417 = DIRECTION('',(1.,0.,-0.));
#418 = ORIENTED_EDGE('',*,*,#419,.T.);
#419 = EDGE_CURVE('',#412,#420,#422,.T.);
#420 = VERTEX_POINT('',#421);
#421 = CARTESIAN_POINT('',(14.,10.5,22.75));
#422 = LINE('',#423,#424);
#423 = CARTESIAN_POINT('',(3.,10.5,22.75));
#424 = VECTOR('',#425,1.);
#425 = DIRECTION('',(1.,0.,-0.));
#426 = ORIENTED_EDGE('',*,*,#427,.F.);
#427 = EDGE_CURVE('',#428,#420,#430,.T.);
#428 = VERTEX_POINT('',#429);
#429 = CARTESIAN_POINT('',(14.,10.5,27.25));
#430 = CIRCLE('',#431,2.25);
#431 = AXIS2_PLACEMENT_3D('',#432,#433,#434);
#432 = CARTESIAN_POINT('',(14.,10.5,25.));
#433 = DIRECTION('',(0.,1.,0.));
#434 = DIRECTION('',(0.,-0.,1.));
#435 = ORIENTED_EDGE('',*,*,#436,.F.);
#436 = EDGE_CURVE('',#437,#428,#439,.T.);
#437 = VERTEX_POINT('',#438);
#438 = CARTESIAN_POINT('',(6.25,10.5,27.25));
#439 = LINE('',#440,#441);
#440 = CARTESIAN_POINT('',(3.,10.5,27.25));
#441 = VECTOR('',#442,1.);
#442 = DIRECTION('',(1.,0.,-0.));
#443 = ORIENTED_EDGE('',*,*,#444,.F.);
#444 = EDGE_CURVE('',#445,#437,#447,.T.);
#445 = VERTEX_POINT('',#446);
#446 = CARTESIAN_POINT('',(6.,10.5,27.25));
#447 = LINE('',#448,#449);
#448 = CARTESIAN_POINT('',(3.,10.5,27.25));
#449 = VECTOR('',#450,1.);
#450 = DIRECTION('',(1.,0.,-0.));
#451 = ORIENTED_EDGE('',*,*,#452,.T.);
#452 = EDGE_CURVE('',#445,#395,#453,.T.);
#453 = LINE('',#454,#455);
#454 = CARTESIAN_POINT('',(6.,10.5,11.375));
#455 = VECTOR('',#456,1.);
#456 = DIRECTION('',(-0.,0.,-1.));
#457 = PLANE('',#458);
#458 = AXIS2_PLACEMENT_3D('',#459,#460,#461);
#459 = CARTESIAN_POINT('',(0.,10.5,0.));
#460 = DIRECTION('',(-0.,1.,0.));
#461 = DIRECTION('',(0.,0.,1.));
#462 = ADVANCED_FACE('',(#463),#474,.F.);
#463 = FACE_BOUND('',#464,.F.);
#464 = EDGE_LOOP('',(#465,#466,#467,#473));
#465 = ORIENTED_EDGE('',*,*,#31,.F.);
#466 = ORIENTED_EDGE('',*,*,#87,.T.);
#467 = ORIENTED_EDGE('',*,*,#468,.T.);
#468 = EDGE_CURVE('',#80,#302,#469,.T.);
#469 = LINE('',#470,#471);
#470 = CARTESIAN_POINT('',(30.,3.5,0.));
#471 = VECTOR('',#472,1.);
#472 = DIRECTION('',(-0.,1.,0.));
#473 = ORIENTED_EDGE('',*,*,#309,.F.);
#474 = PLANE('',#475);
#475 = AXIS2_PLACEMENT_3D('',#476,#477,#478);
#476 = CARTESIAN_POINT('',(0.,7.5,0.));
#477 = DIRECTION('',(0.,0.,1.));
#478 = DIRECTION('',(1.,0.,-0.));
#479 = ADVANCED_FACE('',(#480),#532,.T.);
#480 = FACE_BOUND('',#481,.T.);
#481 = EDGE_LOOP('',(#482,#483,#484,#485,#486,#494,#502,#508,#509,#517,
    #525,#531));
#482 = ORIENTED_EDGE('',*,*,#285,.F.);
#483 = ORIENTED_EDGE('',*,*,#77,.T.);
#484 = ORIENTED_EDGE('',*,*,#468,.T.);
#485 = ORIENTED_EDGE('',*,*,#299,.F.);
#486 = ORIENTED_EDGE('',*,*,#487,.F.);
#487 = EDGE_CURVE('',#488,#300,#490,.T.);
#488 = VERTEX_POINT('',#489);
#489 = CARTESIAN_POINT('',(30.,9.3,16.05));
#490 = LINE('',#491,#492);
#491 = CARTESIAN_POINT('',(30.,4.4,16.05));
#492 = VECTOR('',#493,1.);
#493 = DIRECTION('',(-0.,1.,0.));
#494 = ORIENTED_EDGE('',*,*,#495,.F.);
#495 = EDGE_CURVE('',#496,#488,#498,.T.);
#496 = VERTEX_POINT('',#497);
#497 = CARTESIAN_POINT('',(30.,9.3,17.75));
#498 = LINE('',#499,#500);
#499 = CARTESIAN_POINT('',(30.,9.3,7.525));
#500 = VECTOR('',#501,1.);
#501 = DIRECTION('',(-0.,0.,-1.));
#502 = ORIENTED_EDGE('',*,*,#503,.T.);
#503 = EDGE_CURVE('',#496,#350,#504,.T.);
#504 = LINE('',#505,#506);
#505 = CARTESIAN_POINT('',(30.,4.4,17.75));
#506 = VECTOR('',#507,1.);
#507 = DIRECTION('',(-0.,1.,0.));
#508 = ORIENTED_EDGE('',*,*,#349,.F.);
#509 = ORIENTED_EDGE('',*,*,#510,.F.);
#510 = EDGE_CURVE('',#511,#342,#513,.T.);
#511 = VERTEX_POINT('',#512);
#512 = CARTESIAN_POINT('',(30.,9.3,27.6));
#513 = LINE('',#514,#515);
#514 = CARTESIAN_POINT('',(30.,4.4,27.6));
#515 = VECTOR('',#516,1.);
#516 = DIRECTION('',(-0.,1.,0.));
#517 = ORIENTED_EDGE('',*,*,#518,.F.);
#518 = EDGE_CURVE('',#519,#511,#521,.T.);
#519 = VERTEX_POINT('',#520);
#520 = CARTESIAN_POINT('',(30.,9.3,29.3));
#521 = LINE('',#522,#523);
#522 = CARTESIAN_POINT('',(30.,9.3,13.3));
#523 = VECTOR('',#524,1.);
#524 = DIRECTION('',(-0.,0.,-1.));
#525 = ORIENTED_EDGE('',*,*,#526,.T.);
#526 = EDGE_CURVE('',#519,#318,#527,.T.);
#527 = LINE('',#528,#529);
#528 = CARTESIAN_POINT('',(30.,4.4,29.3));
#529 = VECTOR('',#530,1.);
#530 = DIRECTION('',(-0.,1.,0.));
#531 = ORIENTED_EDGE('',*,*,#317,.F.);
#532 = PLANE('',#533);
#533 = AXIS2_PLACEMENT_3D('',#534,#535,#536);
#534 = CARTESIAN_POINT('',(30.,-0.5,-1.));
#535 = DIRECTION('',(1.,0.,-0.));
#536 = DIRECTION('',(0.,0.,1.));
#537 = ADVANCED_FACE('',(#538),#556,.T.);
#538 = FACE_BOUND('',#539,.T.);
#539 = EDGE_LOOP('',(#540,#541,#549,#555));
#540 = ORIENTED_EDGE('',*,*,#261,.F.);
#541 = ORIENTED_EDGE('',*,*,#542,.T.);
#542 = EDGE_CURVE('',#247,#543,#545,.T.);
#543 = VERTEX_POINT('',#544);
#544 = CARTESIAN_POINT('',(22.,5.,17.));
#545 = LINE('',#546,#547);
#546 = CARTESIAN_POINT('',(0.,5.,17.));
#547 = VECTOR('',#548,1.);
#548 = DIRECTION('',(1.,0.,-0.));
#549 = ORIENTED_EDGE('',*,*,#550,.T.);
#550 = EDGE_CURVE('',#543,#103,#551,.T.);
#551 = LINE('',#552,#553);
#552 = CARTESIAN_POINT('',(22.,5.,17.));
#553 = VECTOR('',#554,1.);
#554 = DIRECTION('',(-0.,1.,0.));
#555 = ORIENTED_EDGE('',*,*,#110,.F.);
#556 = PLANE('',#557);
#557 = AXIS2_PLACEMENT_3D('',#558,#559,#560);
#558 = CARTESIAN_POINT('',(0.,5.,17.));
#559 = DIRECTION('',(0.,0.,1.));
#560 = DIRECTION('',(1.,0.,-0.));
#561 = ADVANCED_FACE('',(#562),#580,.T.);
#562 = FACE_BOUND('',#563,.T.);
#563 = EDGE_LOOP('',(#564,#572,#578,#579));
#564 = ORIENTED_EDGE('',*,*,#565,.F.);
#565 = EDGE_CURVE('',#566,#543,#568,.T.);
#566 = VERTEX_POINT('',#567);
#567 = CARTESIAN_POINT('',(22.,5.,14.));
#568 = LINE('',#569,#570);
#569 = CARTESIAN_POINT('',(22.,5.,14.));
#570 = VECTOR('',#571,1.);
#571 = DIRECTION('',(0.,0.,1.));
#572 = ORIENTED_EDGE('',*,*,#573,.T.);
#573 = EDGE_CURVE('',#566,#95,#574,.T.);
#574 = LINE('',#575,#576);
#575 = CARTESIAN_POINT('',(22.,5.,14.));
#576 = VECTOR('',#577,1.);
#577 = DIRECTION('',(-0.,1.,0.));
#578 = ORIENTED_EDGE('',*,*,#102,.T.);
#579 = ORIENTED_EDGE('',*,*,#550,.F.);
#580 = PLANE('',#581);
#581 = AXIS2_PLACEMENT_3D('',#582,#583,#584);
#582 = CARTESIAN_POINT('',(22.,5.,14.));
#583 = DIRECTION('',(1.,0.,-0.));
#584 = DIRECTION('',(0.,0.,1.));
#585 = ADVANCED_FACE('',(#586),#597,.F.);
#586 = FACE_BOUND('',#587,.F.);
#587 = EDGE_LOOP('',(#588,#589,#595,#596));
#588 = ORIENTED_EDGE('',*,*,#254,.F.);
#589 = ORIENTED_EDGE('',*,*,#590,.T.);
#590 = EDGE_CURVE('',#245,#566,#591,.T.);
#591 = LINE('',#592,#593);
#592 = CARTESIAN_POINT('',(0.,5.,14.));
#593 = VECTOR('',#594,1.);
#594 = DIRECTION('',(1.,0.,-0.));
#595 = ORIENTED_EDGE('',*,*,#573,.T.);
#596 = ORIENTED_EDGE('',*,*,#94,.F.);
#597 = PLANE('',#598);
#598 = AXIS2_PLACEMENT_3D('',#599,#600,#601);
#599 = CARTESIAN_POINT('',(0.,5.,14.));
#600 = DIRECTION('',(0.,0.,1.));
#601 = DIRECTION('',(1.,0.,-0.));
#602 = ADVANCED_FACE('',(#603),#614,.F.);
#603 = FACE_BOUND('',#604,.F.);
#604 = EDGE_LOOP('',(#605,#606,#612,#613));
#605 = ORIENTED_EDGE('',*,*,#381,.F.);
#606 = ORIENTED_EDGE('',*,*,#607,.F.);
#607 = EDGE_CURVE('',#126,#382,#608,.T.);
#608 = LINE('',#609,#610);
#609 = CARTESIAN_POINT('',(18.,6.5,7.75));
#610 = VECTOR('',#611,1.);
#611 = DIRECTION('',(0.,1.,0.));
#612 = ORIENTED_EDGE('',*,*,#125,.T.);
#613 = ORIENTED_EDGE('',*,*,#607,.T.);
#614 = CYLINDRICAL_SURFACE('',#615,1.75);
#615 = AXIS2_PLACEMENT_3D('',#616,#617,#618);
#616 = CARTESIAN_POINT('',(18.,6.5,6.));
#617 = DIRECTION('',(0.,1.,0.));
#618 = DIRECTION('',(0.,-0.,1.));
#619 = ADVANCED_FACE('',(#620),#636,.F.);
#620 = FACE_BOUND('',#621,.F.);
#621 = EDGE_LOOP('',(#622,#623,#629,#630));
#622 = ORIENTED_EDGE('',*,*,#136,.T.);
#623 = ORIENTED_EDGE('',*,*,#624,.T.);
#624 = EDGE_CURVE('',#139,#395,#625,.T.);
#625 = LINE('',#626,#627);
#626 = CARTESIAN_POINT('',(6.,6.5,27.2360679775));
#627 = VECTOR('',#628,1.);
#628 = DIRECTION('',(0.,1.,0.));
#629 = ORIENTED_EDGE('',*,*,#392,.F.);
#630 = ORIENTED_EDGE('',*,*,#631,.F.);
#631 = EDGE_CURVE('',#137,#393,#632,.T.);
#632 = LINE('',#633,#634);
#633 = CARTESIAN_POINT('',(6.,6.5,22.7639320225));
#634 = VECTOR('',#635,1.);
#635 = DIRECTION('',(0.,1.,0.));
#636 = CYLINDRICAL_SURFACE('',#637,2.25);
#637 = AXIS2_PLACEMENT_3D('',#638,#639,#640);
#638 = CARTESIAN_POINT('',(6.25,6.5,25.));
#639 = DIRECTION('',(0.,1.,0.));
#640 = DIRECTION('',(0.,-0.,1.));
#641 = ADVANCED_FACE('',(#642),#653,.T.);
#642 = FACE_BOUND('',#643,.T.);
#643 = EDGE_LOOP('',(#644,#645,#651,#652));
#644 = ORIENTED_EDGE('',*,*,#147,.T.);
#645 = ORIENTED_EDGE('',*,*,#646,.T.);
#646 = EDGE_CURVE('',#148,#404,#647,.T.);
#647 = LINE('',#648,#649);
#648 = CARTESIAN_POINT('',(6.,6.5,22.75));
#649 = VECTOR('',#650,1.);
#650 = DIRECTION('',(-0.,1.,0.));
#651 = ORIENTED_EDGE('',*,*,#403,.F.);
#652 = ORIENTED_EDGE('',*,*,#631,.F.);
#653 = PLANE('',#654);
#654 = AXIS2_PLACEMENT_3D('',#655,#656,#657);
#655 = CARTESIAN_POINT('',(6.,6.5,22.75));
#656 = DIRECTION('',(1.,0.,-0.));
#657 = DIRECTION('',(0.,0.,1.));
#658 = ADVANCED_FACE('',(#659),#670,.T.);
#659 = FACE_BOUND('',#660,.T.);
#660 = EDGE_LOOP('',(#661,#662,#663,#664));
#661 = ORIENTED_EDGE('',*,*,#196,.T.);
#662 = ORIENTED_EDGE('',*,*,#624,.T.);
#663 = ORIENTED_EDGE('',*,*,#452,.F.);
#664 = ORIENTED_EDGE('',*,*,#665,.F.);
#665 = EDGE_CURVE('',#189,#445,#666,.T.);
#666 = LINE('',#667,#668);
#667 = CARTESIAN_POINT('',(6.,6.5,27.25));
#668 = VECTOR('',#669,1.);
#669 = DIRECTION('',(-0.,1.,0.));
#670 = PLANE('',#671);
#671 = AXIS2_PLACEMENT_3D('',#672,#673,#674);
#672 = CARTESIAN_POINT('',(6.,6.5,22.75));
#673 = DIRECTION('',(1.,0.,-0.));
#674 = DIRECTION('',(0.,0.,1.));
#675 = ADVANCED_FACE('',(#676),#687,.T.);
#676 = FACE_BOUND('',#677,.T.);
#677 = EDGE_LOOP('',(#678,#679,#680,#681));
#678 = ORIENTED_EDGE('',*,*,#411,.F.);
#679 = ORIENTED_EDGE('',*,*,#646,.F.);
#680 = ORIENTED_EDGE('',*,*,#155,.T.);
#681 = ORIENTED_EDGE('',*,*,#682,.T.);
#682 = EDGE_CURVE('',#156,#412,#683,.T.);
#683 = LINE('',#684,#685);
#684 = CARTESIAN_POINT('',(6.25,6.5,22.75));
#685 = VECTOR('',#686,1.);
#686 = DIRECTION('',(0.,1.,0.));
#687 = PLANE('',#688);
#688 = AXIS2_PLACEMENT_3D('',#689,#690,#691);
#689 = CARTESIAN_POINT('',(6.,6.5,22.75));
#690 = DIRECTION('',(0.,0.,1.));
#691 = DIRECTION('',(1.,0.,-0.));
#692 = ADVANCED_FACE('',(#693),#704,.F.);
#693 = FACE_BOUND('',#694,.F.);
#694 = EDGE_LOOP('',(#695,#696,#697,#698));
#695 = ORIENTED_EDGE('',*,*,#444,.F.);
#696 = ORIENTED_EDGE('',*,*,#665,.F.);
#697 = ORIENTED_EDGE('',*,*,#188,.T.);
#698 = ORIENTED_EDGE('',*,*,#699,.T.);
#699 = EDGE_CURVE('',#181,#437,#700,.T.);
#700 = LINE('',#701,#702);
#701 = CARTESIAN_POINT('',(6.25,6.5,27.25));
#702 = VECTOR('',#703,1.);
#703 = DIRECTION('',(0.,1.,0.));
#704 = PLANE('',#705);
#705 = AXIS2_PLACEMENT_3D('',#706,#707,#708);
#706 = CARTESIAN_POINT('',(6.,6.5,27.25));
#707 = DIRECTION('',(0.,0.,1.));
#708 = DIRECTION('',(1.,0.,-0.));
#709 = ADVANCED_FACE('',(#710),#721,.T.);
#710 = FACE_BOUND('',#711,.T.);
#711 = EDGE_LOOP('',(#712,#713,#714,#715));
#712 = ORIENTED_EDGE('',*,*,#419,.F.);
#713 = ORIENTED_EDGE('',*,*,#682,.F.);
#714 = ORIENTED_EDGE('',*,*,#163,.T.);
#715 = ORIENTED_EDGE('',*,*,#716,.T.);
#716 = EDGE_CURVE('',#164,#420,#717,.T.);
#717 = LINE('',#718,#719);
#718 = CARTESIAN_POINT('',(14.,6.5,22.75));
#719 = VECTOR('',#720,1.);
#720 = DIRECTION('',(-0.,1.,0.));
#721 = PLANE('',#722);
#722 = AXIS2_PLACEMENT_3D('',#723,#724,#725);
#723 = CARTESIAN_POINT('',(6.,6.5,22.75));
#724 = DIRECTION('',(0.,0.,1.));
#725 = DIRECTION('',(1.,0.,-0.));
#726 = ADVANCED_FACE('',(#727),#738,.F.);
#727 = FACE_BOUND('',#728,.F.);
#728 = EDGE_LOOP('',(#729,#730,#731,#732));
#729 = ORIENTED_EDGE('',*,*,#436,.F.);
#730 = ORIENTED_EDGE('',*,*,#699,.F.);
#731 = ORIENTED_EDGE('',*,*,#180,.T.);
#732 = ORIENTED_EDGE('',*,*,#733,.T.);
#733 = EDGE_CURVE('',#172,#428,#734,.T.);
#734 = LINE('',#735,#736);
#735 = CARTESIAN_POINT('',(14.,6.5,27.25));
#736 = VECTOR('',#737,1.);
#737 = DIRECTION('',(-0.,1.,0.));
#738 = PLANE('',#739);
#739 = AXIS2_PLACEMENT_3D('',#740,#741,#742);
#740 = CARTESIAN_POINT('',(6.,6.5,27.25));
#741 = DIRECTION('',(0.,0.,1.));
#742 = DIRECTION('',(1.,0.,-0.));
#743 = ADVANCED_FACE('',(#744),#750,.F.);
#744 = FACE_BOUND('',#745,.F.);
#745 = EDGE_LOOP('',(#746,#747,#748,#749));
#746 = ORIENTED_EDGE('',*,*,#427,.F.);
#747 = ORIENTED_EDGE('',*,*,#733,.F.);
#748 = ORIENTED_EDGE('',*,*,#171,.T.);
#749 = ORIENTED_EDGE('',*,*,#716,.T.);
#750 = CYLINDRICAL_SURFACE('',#751,2.25);
#751 = AXIS2_PLACEMENT_3D('',#752,#753,#754);
#752 = CARTESIAN_POINT('',(14.,6.5,25.));
#753 = DIRECTION('',(0.,1.,0.));
#754 = DIRECTION('',(0.,-0.,1.));
#755 = ADVANCED_FACE('',(#756),#781,.T.);
#756 = FACE_BOUND('',#757,.T.);
#757 = EDGE_LOOP('',(#758,#766,#774,#780));
#758 = ORIENTED_EDGE('',*,*,#759,.F.);
#759 = EDGE_CURVE('',#760,#205,#762,.T.);
#760 = VERTEX_POINT('',#761);
#761 = CARTESIAN_POINT('',(19.6,0.,30.));
#762 = LINE('',#763,#764);
#763 = CARTESIAN_POINT('',(19.6,0.,30.));
#764 = VECTOR('',#765,1.);
#765 = DIRECTION('',(-0.,1.,0.));
#766 = ORIENTED_EDGE('',*,*,#767,.T.);
#767 = EDGE_CURVE('',#760,#768,#770,.T.);
#768 = VERTEX_POINT('',#769);
#769 = CARTESIAN_POINT('',(26.,0.,30.));
#770 = LINE('',#771,#772);
#771 = CARTESIAN_POINT('',(19.6,0.,30.));
#772 = VECTOR('',#773,1.);
#773 = DIRECTION('',(1.,0.,-0.));
#774 = ORIENTED_EDGE('',*,*,#775,.T.);
#775 = EDGE_CURVE('',#768,#207,#776,.T.);
#776 = LINE('',#777,#778);
#777 = CARTESIAN_POINT('',(26.,0.,30.));
#778 = VECTOR('',#779,1.);
#779 = DIRECTION('',(-0.,1.,0.));
#780 = ORIENTED_EDGE('',*,*,#204,.F.);
#781 = PLANE('',#782);
#782 = AXIS2_PLACEMENT_3D('',#783,#784,#785);
#783 = CARTESIAN_POINT('',(19.6,0.,30.));
#784 = DIRECTION('',(0.,0.,1.));
#785 = DIRECTION('',(1.,0.,-0.));
#786 = ADVANCED_FACE('',(#787,#805),#855,.F.);
#787 = FACE_BOUND('',#788,.F.);
#788 = EDGE_LOOP('',(#789,#790,#798,#804));
#789 = ORIENTED_EDGE('',*,*,#759,.F.);
#790 = ORIENTED_EDGE('',*,*,#791,.F.);
#791 = EDGE_CURVE('',#792,#760,#794,.T.);
#792 = VERTEX_POINT('',#793);
#793 = CARTESIAN_POINT('',(19.6,0.,20.));
#794 = LINE('',#795,#796);
#795 = CARTESIAN_POINT('',(19.6,0.,20.));
#796 = VECTOR('',#797,1.);
#797 = DIRECTION('',(0.,0.,1.));
#798 = ORIENTED_EDGE('',*,*,#799,.T.);
#799 = EDGE_CURVE('',#792,#215,#800,.T.);
#800 = LINE('',#801,#802);
#801 = CARTESIAN_POINT('',(19.6,0.,20.));
#802 = VECTOR('',#803,1.);
#803 = DIRECTION('',(-0.,1.,0.));
#804 = ORIENTED_EDGE('',*,*,#214,.F.);
#805 = FACE_BOUND('',#806,.F.);
#806 = EDGE_LOOP('',(#807,#817,#825,#833,#841,#849));
#807 = ORIENTED_EDGE('',*,*,#808,.T.);
#808 = EDGE_CURVE('',#809,#811,#813,.T.);
#809 = VERTEX_POINT('',#810);
#810 = CARTESIAN_POINT('',(19.6,1.6,26.67431578065));
#811 = VERTEX_POINT('',#812);
#812 = CARTESIAN_POINT('',(19.6,4.5,28.3486315613));
#813 = LINE('',#814,#815);
#814 = CARTESIAN_POINT('',(19.6,1.004968245269,26.33077403688));
#815 = VECTOR('',#816,1.);
#816 = DIRECTION('',(0.,0.866025403784,0.5));
#817 = ORIENTED_EDGE('',*,*,#818,.T.);
#818 = EDGE_CURVE('',#811,#819,#821,.T.);
#819 = VERTEX_POINT('',#820);
#820 = CARTESIAN_POINT('',(19.6,7.4,26.67431578065));
#821 = LINE('',#822,#823);
#822 = CARTESIAN_POINT('',(19.6,6.070031754731,27.44217330507));
#823 = VECTOR('',#824,1.);
#824 = DIRECTION('',(-0.,0.866025403784,-0.5));
#825 = ORIENTED_EDGE('',*,*,#826,.T.);
#826 = EDGE_CURVE('',#819,#827,#829,.T.);
#827 = VERTEX_POINT('',#828);
#828 = CARTESIAN_POINT('',(19.6,7.4,23.32568421935));
#829 = LINE('',#830,#831);
#830 = CARTESIAN_POINT('',(19.6,7.4,21.662842109675));
#831 = VECTOR('',#832,1.);
#832 = DIRECTION('',(0.,-3.978543489069E-16,-1.));
#833 = ORIENTED_EDGE('',*,*,#834,.T.);
#834 = EDGE_CURVE('',#827,#835,#837,.T.);
#835 = VERTEX_POINT('',#836);
#836 = CARTESIAN_POINT('',(19.6,4.5,21.6513684387));
#837 = LINE('',#838,#839);
#838 = CARTESIAN_POINT('',(19.6,2.454968245269,20.470668804605));
#839 = VECTOR('',#840,1.);
#840 = DIRECTION('',(0.,-0.866025403784,-0.5));
#841 = ORIENTED_EDGE('',*,*,#842,.T.);
#842 = EDGE_CURVE('',#835,#843,#845,.T.);
#843 = VERTEX_POINT('',#844);
#844 = CARTESIAN_POINT('',(19.6,1.6,23.32568421935));
#845 = LINE('',#846,#847);
#846 = CARTESIAN_POINT('',(19.6,1.720031754731,23.256383853445));
#847 = VECTOR('',#848,1.);
#848 = DIRECTION('',(0.,-0.866025403784,0.5));
#849 = ORIENTED_EDGE('',*,*,#850,.T.);
#850 = EDGE_CURVE('',#843,#809,#851,.T.);
#851 = LINE('',#852,#853);
#852 = CARTESIAN_POINT('',(19.6,1.6,23.337157890325));
#853 = VECTOR('',#854,1.);
#854 = DIRECTION('',(0.,-2.652362326046E-16,1.));
#855 = PLANE('',#856);
#856 = AXIS2_PLACEMENT_3D('',#857,#858,#859);
#857 = CARTESIAN_POINT('',(19.6,0.,20.));
#858 = DIRECTION('',(1.,0.,-0.));
#859 = DIRECTION('',(0.,0.,1.));
#860 = ADVANCED_FACE('',(#861,#879),#890,.T.);
#861 = FACE_BOUND('',#862,.T.);
#862 = EDGE_LOOP('',(#863,#864,#872,#878));
#863 = ORIENTED_EDGE('',*,*,#775,.F.);
#864 = ORIENTED_EDGE('',*,*,#865,.F.);
#865 = EDGE_CURVE('',#866,#768,#868,.T.);
#866 = VERTEX_POINT('',#867);
#867 = CARTESIAN_POINT('',(26.,0.,20.));
#868 = LINE('',#869,#870);
#869 = CARTESIAN_POINT('',(26.,0.,20.));
#870 = VECTOR('',#871,1.);
#871 = DIRECTION('',(0.,0.,1.));
#872 = ORIENTED_EDGE('',*,*,#873,.T.);
#873 = EDGE_CURVE('',#866,#223,#874,.T.);
#874 = LINE('',#875,#876);
#875 = CARTESIAN_POINT('',(26.,0.,20.));
#876 = VECTOR('',#877,1.);
#877 = DIRECTION('',(-0.,1.,0.));
#878 = ORIENTED_EDGE('',*,*,#230,.F.);
#879 = FACE_BOUND('',#880,.T.);
#880 = EDGE_LOOP('',(#881));
#881 = ORIENTED_EDGE('',*,*,#882,.F.);
#882 = EDGE_CURVE('',#883,#883,#885,.T.);
#883 = VERTEX_POINT('',#884);
#884 = CARTESIAN_POINT('',(26.,4.5,26.75));
#885 = CIRCLE('',#886,1.75);
#886 = AXIS2_PLACEMENT_3D('',#887,#888,#889);
#887 = CARTESIAN_POINT('',(26.,4.5,25.));
#888 = DIRECTION('',(1.,0.,0.));
#889 = DIRECTION('',(-0.,0.,1.));
#890 = PLANE('',#891);
#891 = AXIS2_PLACEMENT_3D('',#892,#893,#894);
#892 = CARTESIAN_POINT('',(26.,0.,20.));
#893 = DIRECTION('',(1.,0.,-0.));
#894 = DIRECTION('',(0.,0.,1.));
#895 = ADVANCED_FACE('',(#896),#907,.F.);
#896 = FACE_BOUND('',#897,.F.);
#897 = EDGE_LOOP('',(#898,#899,#905,#906));
#898 = ORIENTED_EDGE('',*,*,#799,.F.);
#899 = ORIENTED_EDGE('',*,*,#900,.T.);
#900 = EDGE_CURVE('',#792,#866,#901,.T.);
#901 = LINE('',#902,#903);
#902 = CARTESIAN_POINT('',(19.6,0.,20.));
#903 = VECTOR('',#904,1.);
#904 = DIRECTION('',(1.,0.,-0.));
#905 = ORIENTED_EDGE('',*,*,#873,.T.);
#906 = ORIENTED_EDGE('',*,*,#222,.F.);
#907 = PLANE('',#908);
#908 = AXIS2_PLACEMENT_3D('',#909,#910,#911);
#909 = CARTESIAN_POINT('',(19.6,0.,20.));
#910 = DIRECTION('',(0.,0.,1.));
#911 = DIRECTION('',(1.,0.,-0.));
#912 = ADVANCED_FACE('',(#913),#919,.F.);
#913 = FACE_BOUND('',#914,.F.);
#914 = EDGE_LOOP('',(#915,#916,#917,#918));
#915 = ORIENTED_EDGE('',*,*,#590,.F.);
#916 = ORIENTED_EDGE('',*,*,#244,.T.);
#917 = ORIENTED_EDGE('',*,*,#542,.T.);
#918 = ORIENTED_EDGE('',*,*,#565,.F.);
#919 = PLANE('',#920);
#920 = AXIS2_PLACEMENT_3D('',#921,#922,#923);
#921 = CARTESIAN_POINT('',(0.,5.,14.));
#922 = DIRECTION('',(-0.,1.,0.));
#923 = DIRECTION('',(0.,0.,1.));
#924 = ADVANCED_FACE('',(#925),#943,.T.);
#925 = FACE_BOUND('',#926,.T.);
#926 = EDGE_LOOP('',(#927,#935,#941,#942));
#927 = ORIENTED_EDGE('',*,*,#928,.F.);
#928 = EDGE_CURVE('',#929,#366,#931,.T.);
#929 = VERTEX_POINT('',#930);
#930 = CARTESIAN_POINT('',(29.6,9.3,16.05));
#931 = LINE('',#932,#933);
#932 = CARTESIAN_POINT('',(29.6,9.3,16.05));
#933 = VECTOR('',#934,1.);
#934 = DIRECTION('',(-0.,1.,0.));
#935 = ORIENTED_EDGE('',*,*,#936,.T.);
#936 = EDGE_CURVE('',#929,#488,#937,.T.);
#937 = LINE('',#938,#939);
#938 = CARTESIAN_POINT('',(29.6,9.3,16.05));
#939 = VECTOR('',#940,1.);
#940 = DIRECTION('',(1.,0.,-0.));
#941 = ORIENTED_EDGE('',*,*,#487,.T.);
#942 = ORIENTED_EDGE('',*,*,#373,.F.);
#943 = PLANE('',#944);
#944 = AXIS2_PLACEMENT_3D('',#945,#946,#947);
#945 = CARTESIAN_POINT('',(29.6,9.3,16.05));
#946 = DIRECTION('',(0.,0.,1.));
#947 = DIRECTION('',(1.,0.,-0.));
#948 = ADVANCED_FACE('',(#949),#967,.T.);
#949 = FACE_BOUND('',#950,.T.);
#950 = EDGE_LOOP('',(#951,#959,#960,#961));
#951 = ORIENTED_EDGE('',*,*,#952,.F.);
#952 = EDGE_CURVE('',#929,#953,#955,.T.);
#953 = VERTEX_POINT('',#954);
#954 = CARTESIAN_POINT('',(29.6,9.3,17.75));
#955 = LINE('',#956,#957);
#956 = CARTESIAN_POINT('',(29.6,9.3,16.05));
#957 = VECTOR('',#958,1.);
#958 = DIRECTION('',(0.,0.,1.));
#959 = ORIENTED_EDGE('',*,*,#928,.T.);
#960 = ORIENTED_EDGE('',*,*,#365,.T.);
#961 = ORIENTED_EDGE('',*,*,#962,.F.);
#962 = EDGE_CURVE('',#953,#358,#963,.T.);
#963 = LINE('',#964,#965);
#964 = CARTESIAN_POINT('',(29.6,9.3,17.75));
#965 = VECTOR('',#966,1.);
#966 = DIRECTION('',(-0.,1.,0.));
#967 = PLANE('',#968);
#968 = AXIS2_PLACEMENT_3D('',#969,#970,#971);
#969 = CARTESIAN_POINT('',(29.6,9.3,16.05));
#970 = DIRECTION('',(1.,0.,-0.));
#971 = DIRECTION('',(0.,0.,1.));
#972 = ADVANCED_FACE('',(#973),#984,.F.);
#973 = FACE_BOUND('',#974,.F.);
#974 = EDGE_LOOP('',(#975,#976,#982,#983));
#975 = ORIENTED_EDGE('',*,*,#962,.F.);
#976 = ORIENTED_EDGE('',*,*,#977,.T.);
#977 = EDGE_CURVE('',#953,#496,#978,.T.);
#978 = LINE('',#979,#980);
#979 = CARTESIAN_POINT('',(29.6,9.3,17.75));
#980 = VECTOR('',#981,1.);
#981 = DIRECTION('',(1.,0.,-0.));
#982 = ORIENTED_EDGE('',*,*,#503,.T.);
#983 = ORIENTED_EDGE('',*,*,#357,.F.);
#984 = PLANE('',#985);
#985 = AXIS2_PLACEMENT_3D('',#986,#987,#988);
#986 = CARTESIAN_POINT('',(29.6,9.3,17.75));
#987 = DIRECTION('',(0.,0.,1.));
#988 = DIRECTION('',(1.,0.,-0.));
#989 = ADVANCED_FACE('',(#990),#1008,.T.);
#990 = FACE_BOUND('',#991,.T.);
#991 = EDGE_LOOP('',(#992,#1000,#1006,#1007));
#992 = ORIENTED_EDGE('',*,*,#993,.F.);
#993 = EDGE_CURVE('',#994,#334,#996,.T.);
#994 = VERTEX_POINT('',#995);
#995 = CARTESIAN_POINT('',(14.992713291639,9.3,27.6));
#996 = LINE('',#997,#998);
#997 = CARTESIAN_POINT('',(14.992713291639,9.3,27.6));
#998 = VECTOR('',#999,1.);
#999 = DIRECTION('',(-0.,1.,0.));
#1000 = ORIENTED_EDGE('',*,*,#1001,.T.);
#1001 = EDGE_CURVE('',#994,#511,#1002,.T.);
#1002 = LINE('',#1003,#1004);
#1003 = CARTESIAN_POINT('',(14.992713291639,9.3,27.6));
#1004 = VECTOR('',#1005,1.);
#1005 = DIRECTION('',(1.,0.,-0.));
#1006 = ORIENTED_EDGE('',*,*,#510,.T.);
#1007 = ORIENTED_EDGE('',*,*,#341,.F.);
#1008 = PLANE('',#1009);
#1009 = AXIS2_PLACEMENT_3D('',#1010,#1011,#1012);
#1010 = CARTESIAN_POINT('',(14.992713291639,9.3,27.6));
#1011 = DIRECTION('',(0.,0.,1.));
#1012 = DIRECTION('',(1.,0.,-0.));
#1013 = ADVANCED_FACE('',(#1014),#1032,.T.);
#1014 = FACE_BOUND('',#1015,.T.);
#1015 = EDGE_LOOP('',(#1016,#1024,#1025,#1026));
#1016 = ORIENTED_EDGE('',*,*,#1017,.F.);
#1017 = EDGE_CURVE('',#994,#1018,#1020,.T.);
#1018 = VERTEX_POINT('',#1019);
#1019 = CARTESIAN_POINT('',(14.992713291639,9.3,29.3));
#1020 = LINE('',#1021,#1022);
#1021 = CARTESIAN_POINT('',(14.992713291639,9.3,27.6));
#1022 = VECTOR('',#1023,1.);
#1023 = DIRECTION('',(0.,0.,1.));
#1024 = ORIENTED_EDGE('',*,*,#993,.T.);
#1025 = ORIENTED_EDGE('',*,*,#333,.T.);
#1026 = ORIENTED_EDGE('',*,*,#1027,.F.);
#1027 = EDGE_CURVE('',#1018,#326,#1028,.T.);
#1028 = LINE('',#1029,#1030);
#1029 = CARTESIAN_POINT('',(14.992713291639,9.3,29.3));
#1030 = VECTOR('',#1031,1.);
#1031 = DIRECTION('',(-0.,1.,0.));
#1032 = PLANE('',#1033);
#1033 = AXIS2_PLACEMENT_3D('',#1034,#1035,#1036);
#1034 = CARTESIAN_POINT('',(14.992713291639,9.3,27.6));
#1035 = DIRECTION('',(1.,0.,-0.));
#1036 = DIRECTION('',(0.,0.,1.));
#1037 = ADVANCED_FACE('',(#1038),#1049,.F.);
#1038 = FACE_BOUND('',#1039,.F.);
#1039 = EDGE_LOOP('',(#1040,#1041,#1047,#1048));
#1040 = ORIENTED_EDGE('',*,*,#1027,.F.);
#1041 = ORIENTED_EDGE('',*,*,#1042,.T.);
#1042 = EDGE_CURVE('',#1018,#519,#1043,.T.);
#1043 = LINE('',#1044,#1045);
#1044 = CARTESIAN_POINT('',(14.992713291639,9.3,29.3));
#1045 = VECTOR('',#1046,1.);
#1046 = DIRECTION('',(1.,0.,-0.));
#1047 = ORIENTED_EDGE('',*,*,#526,.T.);
#1048 = ORIENTED_EDGE('',*,*,#325,.F.);
#1049 = PLANE('',#1050);
#1050 = AXIS2_PLACEMENT_3D('',#1051,#1052,#1053);
#1051 = CARTESIAN_POINT('',(14.992713291639,9.3,29.3));
#1052 = DIRECTION('',(0.,0.,1.));
#1053 = DIRECTION('',(1.,0.,-0.));
#1054 = ADVANCED_FACE('',(#1055),#1061,.T.);
#1055 = FACE_BOUND('',#1056,.T.);
#1056 = EDGE_LOOP('',(#1057,#1058,#1059,#1060));
#1057 = ORIENTED_EDGE('',*,*,#1001,.F.);
#1058 = ORIENTED_EDGE('',*,*,#1017,.T.);
#1059 = ORIENTED_EDGE('',*,*,#1042,.T.);
#1060 = ORIENTED_EDGE('',*,*,#518,.T.);
#1061 = PLANE('',#1062);
#1062 = AXIS2_PLACEMENT_3D('',#1063,#1064,#1065);
#1063 = CARTESIAN_POINT('',(14.992713291639,9.3,27.6));
#1064 = DIRECTION('',(-0.,1.,0.));
#1065 = DIRECTION('',(0.,0.,1.));
#1066 = ADVANCED_FACE('',(#1067),#1073,.T.);
#1067 = FACE_BOUND('',#1068,.T.);
#1068 = EDGE_LOOP('',(#1069,#1070,#1071,#1072));
#1069 = ORIENTED_EDGE('',*,*,#936,.F.);
#1070 = ORIENTED_EDGE('',*,*,#952,.T.);
#1071 = ORIENTED_EDGE('',*,*,#977,.T.);
#1072 = ORIENTED_EDGE('',*,*,#495,.T.);
#1073 = PLANE('',#1074);
#1074 = AXIS2_PLACEMENT_3D('',#1075,#1076,#1077);
#1075 = CARTESIAN_POINT('',(29.6,9.3,16.05));
#1076 = DIRECTION('',(-0.,1.,0.));
#1077 = DIRECTION('',(0.,0.,1.));
#1078 = ADVANCED_FACE('',(#1079),#1085,.F.);
#1079 = FACE_BOUND('',#1080,.F.);
#1080 = EDGE_LOOP('',(#1081,#1082,#1083,#1084));
#1081 = ORIENTED_EDGE('',*,*,#900,.F.);
#1082 = ORIENTED_EDGE('',*,*,#791,.T.);
#1083 = ORIENTED_EDGE('',*,*,#767,.T.);
#1084 = ORIENTED_EDGE('',*,*,#865,.F.);
#1085 = PLANE('',#1086);
#1086 = AXIS2_PLACEMENT_3D('',#1087,#1088,#1089);
#1087 = CARTESIAN_POINT('',(19.6,0.,20.));
#1088 = DIRECTION('',(-0.,1.,0.));
#1089 = DIRECTION('',(0.,0.,1.));
#1090 = ADVANCED_FACE('',(#1091),#1116,.T.);
#1091 = FACE_BOUND('',#1092,.T.);
#1092 = EDGE_LOOP('',(#1093,#1094,#1102,#1110));
#1093 = ORIENTED_EDGE('',*,*,#808,.T.);
#1094 = ORIENTED_EDGE('',*,*,#1095,.T.);
#1095 = EDGE_CURVE('',#811,#1096,#1098,.T.);
#1096 = VERTEX_POINT('',#1097);
#1097 = CARTESIAN_POINT('',(25.2,4.5,28.3486315613));
#1098 = LINE('',#1099,#1100);
#1099 = CARTESIAN_POINT('',(19.4,4.5,28.3486315613));
#1100 = VECTOR('',#1101,1.);
#1101 = DIRECTION('',(1.,0.,0.));
#1102 = ORIENTED_EDGE('',*,*,#1103,.T.);
#1103 = EDGE_CURVE('',#1096,#1104,#1106,.T.);
#1104 = VERTEX_POINT('',#1105);
#1105 = CARTESIAN_POINT('',(25.2,1.6,26.67431578065));
#1106 = LINE('',#1107,#1108);
#1107 = CARTESIAN_POINT('',(25.2,4.5,28.3486315613));
#1108 = VECTOR('',#1109,1.);
#1109 = DIRECTION('',(0.,-0.866025403784,-0.5));
#1110 = ORIENTED_EDGE('',*,*,#1111,.F.);
#1111 = EDGE_CURVE('',#809,#1104,#1112,.T.);
#1112 = LINE('',#1113,#1114);
#1113 = CARTESIAN_POINT('',(19.4,1.6,26.67431578065));
#1114 = VECTOR('',#1115,1.);
#1115 = DIRECTION('',(1.,0.,0.));
#1116 = PLANE('',#1117);
#1117 = AXIS2_PLACEMENT_3D('',#1118,#1119,#1120);
#1118 = CARTESIAN_POINT('',(19.4,4.5,28.3486315613));
#1119 = DIRECTION('',(0.,0.5,-0.866025403784));
#1120 = DIRECTION('',(0.,-0.866025403784,-0.5));
#1121 = ADVANCED_FACE('',(#1122),#1140,.T.);
#1122 = FACE_BOUND('',#1123,.T.);
#1123 = EDGE_LOOP('',(#1124,#1125,#1126,#1134));
#1124 = ORIENTED_EDGE('',*,*,#850,.T.);
#1125 = ORIENTED_EDGE('',*,*,#1111,.T.);
#1126 = ORIENTED_EDGE('',*,*,#1127,.T.);
#1127 = EDGE_CURVE('',#1104,#1128,#1130,.T.);
#1128 = VERTEX_POINT('',#1129);
#1129 = CARTESIAN_POINT('',(25.2,1.6,23.32568421935));
#1130 = LINE('',#1131,#1132);
#1131 = CARTESIAN_POINT('',(25.2,1.6,26.67431578065));
#1132 = VECTOR('',#1133,1.);
#1133 = DIRECTION('',(0.,2.652362326046E-16,-1.));
#1134 = ORIENTED_EDGE('',*,*,#1135,.F.);
#1135 = EDGE_CURVE('',#843,#1128,#1136,.T.);
#1136 = LINE('',#1137,#1138);
#1137 = CARTESIAN_POINT('',(19.4,1.6,23.32568421935));
#1138 = VECTOR('',#1139,1.);
#1139 = DIRECTION('',(1.,0.,0.));
#1140 = PLANE('',#1141);
#1141 = AXIS2_PLACEMENT_3D('',#1142,#1143,#1144);
#1142 = CARTESIAN_POINT('',(19.4,1.6,26.67431578065));
#1143 = DIRECTION('',(-0.,1.,2.652362326046E-16));
#1144 = DIRECTION('',(0.,2.652362326046E-16,-1.));
#1145 = ADVANCED_FACE('',(#1146),#1164,.T.);
#1146 = FACE_BOUND('',#1147,.T.);
#1147 = EDGE_LOOP('',(#1148,#1149,#1157,#1163));
#1148 = ORIENTED_EDGE('',*,*,#818,.T.);
#1149 = ORIENTED_EDGE('',*,*,#1150,.T.);
#1150 = EDGE_CURVE('',#819,#1151,#1153,.T.);
#1151 = VERTEX_POINT('',#1152);
#1152 = CARTESIAN_POINT('',(25.2,7.4,26.67431578065));
#1153 = LINE('',#1154,#1155);
#1154 = CARTESIAN_POINT('',(19.4,7.4,26.67431578065));
#1155 = VECTOR('',#1156,1.);
#1156 = DIRECTION('',(1.,0.,0.));
#1157 = ORIENTED_EDGE('',*,*,#1158,.T.);
#1158 = EDGE_CURVE('',#1151,#1096,#1159,.T.);
#1159 = LINE('',#1160,#1161);
#1160 = CARTESIAN_POINT('',(25.2,7.4,26.67431578065));
#1161 = VECTOR('',#1162,1.);
#1162 = DIRECTION('',(0.,-0.866025403784,0.5));
#1163 = ORIENTED_EDGE('',*,*,#1095,.F.);
#1164 = PLANE('',#1165);
#1165 = AXIS2_PLACEMENT_3D('',#1166,#1167,#1168);
#1166 = CARTESIAN_POINT('',(19.4,7.4,26.67431578065));
#1167 = DIRECTION('',(0.,-0.5,-0.866025403784));
#1168 = DIRECTION('',(0.,-0.866025403784,0.5));
#1169 = ADVANCED_FACE('',(#1170),#1188,.T.);
#1170 = FACE_BOUND('',#1171,.T.);
#1171 = EDGE_LOOP('',(#1172,#1173,#1174,#1182));
#1172 = ORIENTED_EDGE('',*,*,#842,.T.);
#1173 = ORIENTED_EDGE('',*,*,#1135,.T.);
#1174 = ORIENTED_EDGE('',*,*,#1175,.T.);
#1175 = EDGE_CURVE('',#1128,#1176,#1178,.T.);
#1176 = VERTEX_POINT('',#1177);
#1177 = CARTESIAN_POINT('',(25.2,4.5,21.6513684387));
#1178 = LINE('',#1179,#1180);
#1179 = CARTESIAN_POINT('',(25.2,1.6,23.32568421935));
#1180 = VECTOR('',#1181,1.);
#1181 = DIRECTION('',(0.,0.866025403784,-0.5));
#1182 = ORIENTED_EDGE('',*,*,#1183,.F.);
#1183 = EDGE_CURVE('',#835,#1176,#1184,.T.);
#1184 = LINE('',#1185,#1186);
#1185 = CARTESIAN_POINT('',(19.4,4.5,21.6513684387));
#1186 = VECTOR('',#1187,1.);
#1187 = DIRECTION('',(1.,0.,0.));
#1188 = PLANE('',#1189);
#1189 = AXIS2_PLACEMENT_3D('',#1190,#1191,#1192);
#1190 = CARTESIAN_POINT('',(19.4,1.6,23.32568421935));
#1191 = DIRECTION('',(-0.,0.5,0.866025403784));
#1192 = DIRECTION('',(0.,0.866025403784,-0.5));
#1193 = ADVANCED_FACE('',(#1194),#1212,.T.);
#1194 = FACE_BOUND('',#1195,.T.);
#1195 = EDGE_LOOP('',(#1196,#1197,#1205,#1211));
#1196 = ORIENTED_EDGE('',*,*,#826,.T.);
#1197 = ORIENTED_EDGE('',*,*,#1198,.T.);
#1198 = EDGE_CURVE('',#827,#1199,#1201,.T.);
#1199 = VERTEX_POINT('',#1200);
#1200 = CARTESIAN_POINT('',(25.2,7.4,23.32568421935));
#1201 = LINE('',#1202,#1203);
#1202 = CARTESIAN_POINT('',(19.4,7.4,23.32568421935));
#1203 = VECTOR('',#1204,1.);
#1204 = DIRECTION('',(1.,0.,0.));
#1205 = ORIENTED_EDGE('',*,*,#1206,.T.);
#1206 = EDGE_CURVE('',#1199,#1151,#1207,.T.);
#1207 = LINE('',#1208,#1209);
#1208 = CARTESIAN_POINT('',(25.2,7.4,23.32568421935));
#1209 = VECTOR('',#1210,1.);
#1210 = DIRECTION('',(0.,3.978543489069E-16,1.));
#1211 = ORIENTED_EDGE('',*,*,#1150,.F.);
#1212 = PLANE('',#1213);
#1213 = AXIS2_PLACEMENT_3D('',#1214,#1215,#1216);
#1214 = CARTESIAN_POINT('',(19.4,7.4,23.32568421935));
#1215 = DIRECTION('',(0.,-1.,3.978543489069E-16));
#1216 = DIRECTION('',(0.,3.978543489069E-16,1.));
#1217 = ADVANCED_FACE('',(#1218),#1229,.T.);
#1218 = FACE_BOUND('',#1219,.T.);
#1219 = EDGE_LOOP('',(#1220,#1221,#1222,#1228));
#1220 = ORIENTED_EDGE('',*,*,#834,.T.);
#1221 = ORIENTED_EDGE('',*,*,#1183,.T.);
#1222 = ORIENTED_EDGE('',*,*,#1223,.T.);
#1223 = EDGE_CURVE('',#1176,#1199,#1224,.T.);
#1224 = LINE('',#1225,#1226);
#1225 = CARTESIAN_POINT('',(25.2,4.5,21.6513684387));
#1226 = VECTOR('',#1227,1.);
#1227 = DIRECTION('',(0.,0.866025403784,0.5));
#1228 = ORIENTED_EDGE('',*,*,#1198,.F.);
#1229 = PLANE('',#1230);
#1230 = AXIS2_PLACEMENT_3D('',#1231,#1232,#1233);
#1231 = CARTESIAN_POINT('',(19.4,4.5,21.6513684387));
#1232 = DIRECTION('',(0.,-0.5,0.866025403784));
#1233 = DIRECTION('',(0.,0.866025403784,0.5));
#1234 = ADVANCED_FACE('',(#1235),#1254,.F.);
#1235 = FACE_BOUND('',#1236,.F.);
#1236 = EDGE_LOOP('',(#1237,#1238,#1246,#1253));
#1237 = ORIENTED_EDGE('',*,*,#882,.F.);
#1238 = ORIENTED_EDGE('',*,*,#1239,.F.);
#1239 = EDGE_CURVE('',#1240,#883,#1242,.T.);
#1240 = VERTEX_POINT('',#1241);
#1241 = CARTESIAN_POINT('',(25.2,4.5,26.75));
#1242 = LINE('',#1243,#1244);
#1243 = CARTESIAN_POINT('',(18.,4.5,26.75));
#1244 = VECTOR('',#1245,1.);
#1245 = DIRECTION('',(1.,0.,0.));
#1246 = ORIENTED_EDGE('',*,*,#1247,.T.);
#1247 = EDGE_CURVE('',#1240,#1240,#1248,.T.);
#1248 = CIRCLE('',#1249,1.75);
#1249 = AXIS2_PLACEMENT_3D('',#1250,#1251,#1252);
#1250 = CARTESIAN_POINT('',(25.2,4.5,25.));
#1251 = DIRECTION('',(1.,0.,0.));
#1252 = DIRECTION('',(-0.,0.,1.));
#1253 = ORIENTED_EDGE('',*,*,#1239,.T.);
#1254 = CYLINDRICAL_SURFACE('',#1255,1.75);
#1255 = AXIS2_PLACEMENT_3D('',#1256,#1257,#1258);
#1256 = CARTESIAN_POINT('',(18.,4.5,25.));
#1257 = DIRECTION('',(1.,0.,0.));
#1258 = DIRECTION('',(-0.,0.,1.));
#1259 = ADVANCED_FACE('',(#1260,#1268),#1271,.F.);
#1260 = FACE_BOUND('',#1261,.F.);
#1261 = EDGE_LOOP('',(#1262,#1263,#1264,#1265,#1266,#1267));
#1262 = ORIENTED_EDGE('',*,*,#1158,.T.);
#1263 = ORIENTED_EDGE('',*,*,#1103,.T.);
#1264 = ORIENTED_EDGE('',*,*,#1127,.T.);
#1265 = ORIENTED_EDGE('',*,*,#1175,.T.);
#1266 = ORIENTED_EDGE('',*,*,#1223,.T.);
#1267 = ORIENTED_EDGE('',*,*,#1206,.T.);
#1268 = FACE_BOUND('',#1269,.F.);
#1269 = EDGE_LOOP('',(#1270));
#1270 = ORIENTED_EDGE('',*,*,#1247,.F.);
#1271 = PLANE('',#1272);
#1272 = AXIS2_PLACEMENT_3D('',#1273,#1274,#1275);
#1273 = CARTESIAN_POINT('',(25.2,4.5,25.));
#1274 = DIRECTION('',(1.,0.,0.));
#1275 = DIRECTION('',(-0.,0.,1.));
#1276 = MANIFOLD_SOLID_BREP('',#1277);
#1277 = CLOSED_SHELL('',(#1278,#1350,#1381,#1416,#1440,#1464,#1488,#1512
    ,#1536,#1564,#1580));
#1278 = ADVANCED_FACE('',(#1279),#1345,.F.);
#1279 = FACE_BOUND('',#1280,.F.);
#1280 = EDGE_LOOP('',(#1281,#1291,#1299,#1307,#1315,#1323,#1331,#1339));
#1281 = ORIENTED_EDGE('',*,*,#1282,.F.);
#1282 = EDGE_CURVE('',#1283,#1285,#1287,.T.);
#1283 = VERTEX_POINT('',#1284);
#1284 = CARTESIAN_POINT('',(34.,0.,18.));
#1285 = VERTEX_POINT('',#1286);
#1286 = CARTESIAN_POINT('',(34.,5.95,18.));
#1287 = LINE('',#1288,#1289);
#1288 = CARTESIAN_POINT('',(34.,0.,18.));
#1289 = VECTOR('',#1290,1.);
#1290 = DIRECTION('',(-0.,1.,0.));
#1291 = ORIENTED_EDGE('',*,*,#1292,.F.);
#1292 = EDGE_CURVE('',#1293,#1283,#1295,.T.);
#1293 = VERTEX_POINT('',#1294);
#1294 = CARTESIAN_POINT('',(34.,0.,0.));
#1295 = LINE('',#1296,#1297);
#1296 = CARTESIAN_POINT('',(34.,0.,0.));
#1297 = VECTOR('',#1298,1.);
#1298 = DIRECTION('',(0.,0.,1.));
#1299 = ORIENTED_EDGE('',*,*,#1300,.T.);
#1300 = EDGE_CURVE('',#1293,#1301,#1303,.T.);
#1301 = VERTEX_POINT('',#1302);
#1302 = CARTESIAN_POINT('',(34.,5.95,0.));
#1303 = LINE('',#1304,#1305);
#1304 = CARTESIAN_POINT('',(34.,0.,0.));
#1305 = VECTOR('',#1306,1.);
#1306 = DIRECTION('',(-0.,1.,0.));
#1307 = ORIENTED_EDGE('',*,*,#1308,.T.);
#1308 = EDGE_CURVE('',#1301,#1309,#1311,.T.);
#1309 = VERTEX_POINT('',#1310);
#1310 = CARTESIAN_POINT('',(34.,5.95,0.85));
#1311 = LINE('',#1312,#1313);
#1312 = CARTESIAN_POINT('',(34.,5.95,0.));
#1313 = VECTOR('',#1314,1.);
#1314 = DIRECTION('',(0.,0.,1.));
#1315 = ORIENTED_EDGE('',*,*,#1316,.T.);
#1316 = EDGE_CURVE('',#1309,#1317,#1319,.T.);
#1317 = VERTEX_POINT('',#1318);
#1318 = CARTESIAN_POINT('',(34.,3.35,0.85));
#1319 = LINE('',#1320,#1321);
#1320 = CARTESIAN_POINT('',(34.,1.675,0.85));
#1321 = VECTOR('',#1322,1.);
#1322 = DIRECTION('',(0.,-1.,0.));
#1323 = ORIENTED_EDGE('',*,*,#1324,.T.);
#1324 = EDGE_CURVE('',#1317,#1325,#1327,.T.);
#1325 = VERTEX_POINT('',#1326);
#1326 = CARTESIAN_POINT('',(34.,3.35,4.15));
#1327 = LINE('',#1328,#1329);
#1328 = CARTESIAN_POINT('',(34.,3.35,0.425));
#1329 = VECTOR('',#1330,1.);
#1330 = DIRECTION('',(0.,0.,1.));
#1331 = ORIENTED_EDGE('',*,*,#1332,.F.);
#1332 = EDGE_CURVE('',#1333,#1325,#1335,.T.);
#1333 = VERTEX_POINT('',#1334);
#1334 = CARTESIAN_POINT('',(34.,5.95,4.15));
#1335 = LINE('',#1336,#1337);
#1336 = CARTESIAN_POINT('',(34.,1.675,4.15));
#1337 = VECTOR('',#1338,1.);
#1338 = DIRECTION('',(0.,-1.,0.));
#1339 = ORIENTED_EDGE('',*,*,#1340,.T.);
#1340 = EDGE_CURVE('',#1333,#1285,#1341,.T.);
#1341 = LINE('',#1342,#1343);
#1342 = CARTESIAN_POINT('',(34.,5.95,0.));
#1343 = VECTOR('',#1344,1.);
#1344 = DIRECTION('',(0.,0.,1.));
#1345 = PLANE('',#1346);
#1346 = AXIS2_PLACEMENT_3D('',#1347,#1348,#1349);
#1347 = CARTESIAN_POINT('',(34.,0.,0.));
#1348 = DIRECTION('',(1.,0.,-0.));
#1349 = DIRECTION('',(0.,0.,1.));
#1350 = ADVANCED_FACE('',(#1351),#1376,.T.);
#1351 = FACE_BOUND('',#1352,.T.);
#1352 = EDGE_LOOP('',(#1353,#1354,#1362,#1370));
#1353 = ORIENTED_EDGE('',*,*,#1282,.F.);
#1354 = ORIENTED_EDGE('',*,*,#1355,.T.);
#1355 = EDGE_CURVE('',#1283,#1356,#1358,.T.);
#1356 = VERTEX_POINT('',#1357);
#1357 = CARTESIAN_POINT('',(45.,0.,18.));
#1358 = LINE('',#1359,#1360);
#1359 = CARTESIAN_POINT('',(34.,0.,18.));
#1360 = VECTOR('',#1361,1.);
#1361 = DIRECTION('',(1.,0.,-0.));
#1362 = ORIENTED_EDGE('',*,*,#1363,.T.);
#1363 = EDGE_CURVE('',#1356,#1364,#1366,.T.);
#1364 = VERTEX_POINT('',#1365);
#1365 = CARTESIAN_POINT('',(45.,5.95,18.));
#1366 = LINE('',#1367,#1368);
#1367 = CARTESIAN_POINT('',(45.,0.,18.));
#1368 = VECTOR('',#1369,1.);
#1369 = DIRECTION('',(-0.,1.,0.));
#1370 = ORIENTED_EDGE('',*,*,#1371,.F.);
#1371 = EDGE_CURVE('',#1285,#1364,#1372,.T.);
#1372 = LINE('',#1373,#1374);
#1373 = CARTESIAN_POINT('',(34.,5.95,18.));
#1374 = VECTOR('',#1375,1.);
#1375 = DIRECTION('',(1.,0.,-0.));
#1376 = PLANE('',#1377);
#1377 = AXIS2_PLACEMENT_3D('',#1378,#1379,#1380);
#1378 = CARTESIAN_POINT('',(34.,0.,18.));
#1379 = DIRECTION('',(0.,0.,1.));
#1380 = DIRECTION('',(1.,0.,-0.));
#1381 = ADVANCED_FACE('',(#1382,#1400),#1411,.T.);
#1382 = FACE_BOUND('',#1383,.T.);
#1383 = EDGE_LOOP('',(#1384,#1392,#1398,#1399));
#1384 = ORIENTED_EDGE('',*,*,#1385,.F.);
#1385 = EDGE_CURVE('',#1386,#1364,#1388,.T.);
#1386 = VERTEX_POINT('',#1387);
#1387 = CARTESIAN_POINT('',(45.,5.95,4.15));
#1388 = LINE('',#1389,#1390);
#1389 = CARTESIAN_POINT('',(45.,5.95,0.));
#1390 = VECTOR('',#1391,1.);
#1391 = DIRECTION('',(0.,0.,1.));
#1392 = ORIENTED_EDGE('',*,*,#1393,.F.);
#1393 = EDGE_CURVE('',#1333,#1386,#1394,.T.);
#1394 = LINE('',#1395,#1396);
#1395 = CARTESIAN_POINT('',(33.9,5.95,4.15));
#1396 = VECTOR('',#1397,1.);
#1397 = DIRECTION('',(1.,0.,-0.));
#1398 = ORIENTED_EDGE('',*,*,#1340,.T.);
#1399 = ORIENTED_EDGE('',*,*,#1371,.T.);
#1400 = FACE_BOUND('',#1401,.T.);
#1401 = EDGE_LOOP('',(#1402));
#1402 = ORIENTED_EDGE('',*,*,#1403,.F.);
#1403 = EDGE_CURVE('',#1404,#1404,#1406,.T.);
#1404 = VERTEX_POINT('',#1405);
#1405 = CARTESIAN_POINT('',(39.,5.95,14.1));
#1406 = CIRCLE('',#1407,2.1);
#1407 = AXIS2_PLACEMENT_3D('',#1408,#1409,#1410);
#1408 = CARTESIAN_POINT('',(39.,5.95,12.));
#1409 = DIRECTION('',(0.,1.,0.));
#1410 = DIRECTION('',(0.,-0.,1.));
#1411 = PLANE('',#1412);
#1412 = AXIS2_PLACEMENT_3D('',#1413,#1414,#1415);
#1413 = CARTESIAN_POINT('',(34.,5.95,0.));
#1414 = DIRECTION('',(-0.,1.,0.));
#1415 = DIRECTION('',(0.,0.,1.));
#1416 = ADVANCED_FACE('',(#1417),#1435,.F.);
#1417 = FACE_BOUND('',#1418,.F.);
#1418 = EDGE_LOOP('',(#1419,#1420,#1428,#1434));
#1419 = ORIENTED_EDGE('',*,*,#1332,.T.);
#1420 = ORIENTED_EDGE('',*,*,#1421,.T.);
#1421 = EDGE_CURVE('',#1325,#1422,#1424,.T.);
#1422 = VERTEX_POINT('',#1423);
#1423 = CARTESIAN_POINT('',(45.,3.35,4.15));
#1424 = LINE('',#1425,#1426);
#1425 = CARTESIAN_POINT('',(33.8,3.35,4.15));
#1426 = VECTOR('',#1427,1.);
#1427 = DIRECTION('',(1.,0.,-0.));
#1428 = ORIENTED_EDGE('',*,*,#1429,.F.);
#1429 = EDGE_CURVE('',#1386,#1422,#1430,.T.);
#1430 = LINE('',#1431,#1432);
#1431 = CARTESIAN_POINT('',(45.,1.675,4.15));
#1432 = VECTOR('',#1433,1.);
#1433 = DIRECTION('',(0.,-1.,0.));
#1434 = ORIENTED_EDGE('',*,*,#1393,.F.);
#1435 = PLANE('',#1436);
#1436 = AXIS2_PLACEMENT_3D('',#1437,#1438,#1439);
#1437 = CARTESIAN_POINT('',(33.8,3.35,4.15));
#1438 = DIRECTION('',(0.,0.,1.));
#1439 = DIRECTION('',(1.,0.,-0.));
#1440 = ADVANCED_FACE('',(#1441),#1459,.T.);
#1441 = FACE_BOUND('',#1442,.T.);
#1442 = EDGE_LOOP('',(#1443,#1451,#1452,#1453));
#1443 = ORIENTED_EDGE('',*,*,#1444,.F.);
#1444 = EDGE_CURVE('',#1317,#1445,#1447,.T.);
#1445 = VERTEX_POINT('',#1446);
#1446 = CARTESIAN_POINT('',(45.,3.35,0.85));
#1447 = LINE('',#1448,#1449);
#1448 = CARTESIAN_POINT('',(33.8,3.35,0.85));
#1449 = VECTOR('',#1450,1.);
#1450 = DIRECTION('',(1.,0.,-0.));
#1451 = ORIENTED_EDGE('',*,*,#1324,.T.);
#1452 = ORIENTED_EDGE('',*,*,#1421,.T.);
#1453 = ORIENTED_EDGE('',*,*,#1454,.F.);
#1454 = EDGE_CURVE('',#1445,#1422,#1455,.T.);
#1455 = LINE('',#1456,#1457);
#1456 = CARTESIAN_POINT('',(45.,3.35,0.425));
#1457 = VECTOR('',#1458,1.);
#1458 = DIRECTION('',(0.,0.,1.));
#1459 = PLANE('',#1460);
#1460 = AXIS2_PLACEMENT_3D('',#1461,#1462,#1463);
#1461 = CARTESIAN_POINT('',(33.8,3.35,0.85));
#1462 = DIRECTION('',(-0.,1.,0.));
#1463 = DIRECTION('',(0.,0.,1.));
#1464 = ADVANCED_FACE('',(#1465),#1483,.T.);
#1465 = FACE_BOUND('',#1466,.T.);
#1466 = EDGE_LOOP('',(#1467,#1468,#1469,#1477));
#1467 = ORIENTED_EDGE('',*,*,#1316,.T.);
#1468 = ORIENTED_EDGE('',*,*,#1444,.T.);
#1469 = ORIENTED_EDGE('',*,*,#1470,.F.);
#1470 = EDGE_CURVE('',#1471,#1445,#1473,.T.);
#1471 = VERTEX_POINT('',#1472);
#1472 = CARTESIAN_POINT('',(45.,5.95,0.85));
#1473 = LINE('',#1474,#1475);
#1474 = CARTESIAN_POINT('',(45.,1.675,0.85));
#1475 = VECTOR('',#1476,1.);
#1476 = DIRECTION('',(0.,-1.,0.));
#1477 = ORIENTED_EDGE('',*,*,#1478,.F.);
#1478 = EDGE_CURVE('',#1309,#1471,#1479,.T.);
#1479 = LINE('',#1480,#1481);
#1480 = CARTESIAN_POINT('',(33.9,5.95,0.85));
#1481 = VECTOR('',#1482,1.);
#1482 = DIRECTION('',(1.,0.,-0.));
#1483 = PLANE('',#1484);
#1484 = AXIS2_PLACEMENT_3D('',#1485,#1486,#1487);
#1485 = CARTESIAN_POINT('',(33.8,3.35,0.85));
#1486 = DIRECTION('',(0.,0.,1.));
#1487 = DIRECTION('',(1.,0.,-0.));
#1488 = ADVANCED_FACE('',(#1489),#1507,.T.);
#1489 = FACE_BOUND('',#1490,.T.);
#1490 = EDGE_LOOP('',(#1491,#1499,#1505,#1506));
#1491 = ORIENTED_EDGE('',*,*,#1492,.F.);
#1492 = EDGE_CURVE('',#1493,#1471,#1495,.T.);
#1493 = VERTEX_POINT('',#1494);
#1494 = CARTESIAN_POINT('',(45.,5.95,0.));
#1495 = LINE('',#1496,#1497);
#1496 = CARTESIAN_POINT('',(45.,5.95,0.));
#1497 = VECTOR('',#1498,1.);
#1498 = DIRECTION('',(0.,0.,1.));
#1499 = ORIENTED_EDGE('',*,*,#1500,.F.);
#1500 = EDGE_CURVE('',#1301,#1493,#1501,.T.);
#1501 = LINE('',#1502,#1503);
#1502 = CARTESIAN_POINT('',(34.,5.95,0.));
#1503 = VECTOR('',#1504,1.);
#1504 = DIRECTION('',(1.,0.,-0.));
#1505 = ORIENTED_EDGE('',*,*,#1308,.T.);
#1506 = ORIENTED_EDGE('',*,*,#1478,.T.);
#1507 = PLANE('',#1508);
#1508 = AXIS2_PLACEMENT_3D('',#1509,#1510,#1511);
#1509 = CARTESIAN_POINT('',(34.,5.95,0.));
#1510 = DIRECTION('',(-0.,1.,0.));
#1511 = DIRECTION('',(0.,0.,1.));
#1512 = ADVANCED_FACE('',(#1513),#1531,.F.);
#1513 = FACE_BOUND('',#1514,.F.);
#1514 = EDGE_LOOP('',(#1515,#1516,#1524,#1530));
#1515 = ORIENTED_EDGE('',*,*,#1300,.F.);
#1516 = ORIENTED_EDGE('',*,*,#1517,.T.);
#1517 = EDGE_CURVE('',#1293,#1518,#1520,.T.);
#1518 = VERTEX_POINT('',#1519);
#1519 = CARTESIAN_POINT('',(45.,0.,0.));
#1520 = LINE('',#1521,#1522);
#1521 = CARTESIAN_POINT('',(34.,0.,0.));
#1522 = VECTOR('',#1523,1.);
#1523 = DIRECTION('',(1.,0.,-0.));
#1524 = ORIENTED_EDGE('',*,*,#1525,.T.);
#1525 = EDGE_CURVE('',#1518,#1493,#1526,.T.);
#1526 = LINE('',#1527,#1528);
#1527 = CARTESIAN_POINT('',(45.,0.,0.));
#1528 = VECTOR('',#1529,1.);
#1529 = DIRECTION('',(-0.,1.,0.));
#1530 = ORIENTED_EDGE('',*,*,#1500,.F.);
#1531 = PLANE('',#1532);
#1532 = AXIS2_PLACEMENT_3D('',#1533,#1534,#1535);
#1533 = CARTESIAN_POINT('',(34.,0.,0.));
#1534 = DIRECTION('',(0.,0.,1.));
#1535 = DIRECTION('',(1.,0.,-0.));
#1536 = ADVANCED_FACE('',(#1537,#1548),#1559,.F.);
#1537 = FACE_BOUND('',#1538,.F.);
#1538 = EDGE_LOOP('',(#1539,#1540,#1541,#1542));
#1539 = ORIENTED_EDGE('',*,*,#1517,.F.);
#1540 = ORIENTED_EDGE('',*,*,#1292,.T.);
#1541 = ORIENTED_EDGE('',*,*,#1355,.T.);
#1542 = ORIENTED_EDGE('',*,*,#1543,.F.);
#1543 = EDGE_CURVE('',#1518,#1356,#1544,.T.);
#1544 = LINE('',#1545,#1546);
#1545 = CARTESIAN_POINT('',(45.,0.,0.));
#1546 = VECTOR('',#1547,1.);
#1547 = DIRECTION('',(0.,0.,1.));
#1548 = FACE_BOUND('',#1549,.F.);
#1549 = EDGE_LOOP('',(#1550));
#1550 = ORIENTED_EDGE('',*,*,#1551,.F.);
#1551 = EDGE_CURVE('',#1552,#1552,#1554,.T.);
#1552 = VERTEX_POINT('',#1553);
#1553 = CARTESIAN_POINT('',(39.,0.,14.1));
#1554 = CIRCLE('',#1555,2.1);
#1555 = AXIS2_PLACEMENT_3D('',#1556,#1557,#1558);
#1556 = CARTESIAN_POINT('',(39.,0.,12.));
#1557 = DIRECTION('',(0.,1.,0.));
#1558 = DIRECTION('',(0.,-0.,1.));
#1559 = PLANE('',#1560);
#1560 = AXIS2_PLACEMENT_3D('',#1561,#1562,#1563);
#1561 = CARTESIAN_POINT('',(34.,0.,0.));
#1562 = DIRECTION('',(-0.,1.,0.));
#1563 = DIRECTION('',(0.,0.,1.));
#1564 = ADVANCED_FACE('',(#1565),#1575,.T.);
#1565 = FACE_BOUND('',#1566,.T.);
#1566 = EDGE_LOOP('',(#1567,#1568,#1569,#1570,#1571,#1572,#1573,#1574));
#1567 = ORIENTED_EDGE('',*,*,#1363,.F.);
#1568 = ORIENTED_EDGE('',*,*,#1543,.F.);
#1569 = ORIENTED_EDGE('',*,*,#1525,.T.);
#1570 = ORIENTED_EDGE('',*,*,#1492,.T.);
#1571 = ORIENTED_EDGE('',*,*,#1470,.T.);
#1572 = ORIENTED_EDGE('',*,*,#1454,.T.);
#1573 = ORIENTED_EDGE('',*,*,#1429,.F.);
#1574 = ORIENTED_EDGE('',*,*,#1385,.T.);
#1575 = PLANE('',#1576);
#1576 = AXIS2_PLACEMENT_3D('',#1577,#1578,#1579);
#1577 = CARTESIAN_POINT('',(45.,0.,0.));
#1578 = DIRECTION('',(1.,0.,-0.));
#1579 = DIRECTION('',(0.,0.,1.));
#1580 = ADVANCED_FACE('',(#1581),#1592,.F.);
#1581 = FACE_BOUND('',#1582,.F.);
#1582 = EDGE_LOOP('',(#1583,#1584,#1590,#1591));
#1583 = ORIENTED_EDGE('',*,*,#1403,.F.);
#1584 = ORIENTED_EDGE('',*,*,#1585,.F.);
#1585 = EDGE_CURVE('',#1552,#1404,#1586,.T.);
#1586 = LINE('',#1587,#1588);
#1587 = CARTESIAN_POINT('',(39.,-0.5,14.1));
#1588 = VECTOR('',#1589,1.);
#1589 = DIRECTION('',(0.,1.,0.));
#1590 = ORIENTED_EDGE('',*,*,#1551,.T.);
#1591 = ORIENTED_EDGE('',*,*,#1585,.T.);
#1592 = CYLINDRICAL_SURFACE('',#1593,2.1);
#1593 = AXIS2_PLACEMENT_3D('',#1594,#1595,#1596);
#1594 = CARTESIAN_POINT('',(39.,-0.5,12.));
#1595 = DIRECTION('',(0.,1.,0.));
#1596 = DIRECTION('',(0.,-0.,1.));
#1597 = ( GEOMETRIC_REPRESENTATION_CONTEXT(3) 
GLOBAL_UNCERTAINTY_ASSIGNED_CONTEXT((#1601)) 
GLOBAL_UNIT_ASSIGNED_CONTEXT((#1598,#1599,#1600)) REPRESENTATION_CONTEXT
('Context #1','3D Context with UNIT and UNCERTAINTY') );
#1598 = ( LENGTH_UNIT() NAMED_UNIT(*) SI_UNIT(.MILLI.,.METRE.) );
#1599 = ( NAMED_UNIT(*) PLANE_ANGLE_UNIT() SI_UNIT($,.RADIAN.) );
#1600 = ( NAMED_UNIT(*) SI_UNIT($,.STERADIAN.) SOLID_ANGLE_UNIT() );
#1601 = UNCERTAINTY_MEASURE_WITH_UNIT(LENGTH_MEASURE(1.E-07),#1598,
  'distance_accuracy_value','confusion accuracy');
#1602 = PRODUCT_RELATED_PRODUCT_CATEGORY('part',$,(#7));
ENDSEC;
END-ISO-10303-21;
