ISO-10303-21;
HEADER;
FILE_DESCRIPTION(('FreeCAD Model'),'2;1');
FILE_NAME('Open CASCADE Shape Model','2026-09-26T01:42:03',('FreeCAD'),(
    'FreeCAD'),'Open CASCADE STEP processor 7.8','FreeCAD','Unknown');
FILE_SCHEMA(('AUTOMOTIVE_DESIGN { 1 0 10303 214 1 1 1 1 }'));
ENDSEC;
DATA;
#1 = APPLICATION_PROTOCOL_DEFINITION('international standard',
  'automotive_design',2000,#2);
#2 = APPLICATION_CONTEXT(
  'core data for automotive mechanical design processes');
#3 = SHAPE_DEFINITION_REPRESENTATION(#4,#10);
#4 = PRODUCT_DEFINITION_SHAPE('','',#5);
#5 = PRODUCT_DEFINITION('design','',#6,#9);
#6 = PRODUCT_DEFINITION_FORMATION('','',#7);
#7 = PRODUCT('Open CASCADE STEP translator 7.8 10',
  'Open CASCADE STEP translator 7.8 10','',(#8));
#8 = PRODUCT_CONTEXT('',#2,'mechanical');
#9 = PRODUCT_DEFINITION_CONTEXT('part definition',#2,'design');
#10 = ADVANCED_BREP_SHAPE_REPRESENTATION('',(#11,#15),#1055);
#11 = AXIS2_PLACEMENT_3D('',#12,#13,#14);
#12 = CARTESIAN_POINT('',(0.,0.,0.));
#13 = DIRECTION('',(0.,0.,1.));
#14 = DIRECTION('',(1.,0.,-0.));
#15 = MANIFOLD_SOLID_BREP('',#16);
#16 = CLOSED_SHELL('',(#17,#122,#153,#177,#194,#225,#249,#266,#291,#316,
    #341,#393,#424,#459,#483,#542,#559,#584,#601,#624,#649,#680,#704,
    #728,#752,#776,#793,#810,#835,#894,#953,#975,#992,#1009,#1026,#1043)
  );
#17 = ADVANCED_FACE('',(#18,#84,#95,#106),#117,.F.);
#18 = FACE_BOUND('',#19,.F.);
#19 = EDGE_LOOP('',(#20,#30,#38,#46,#54,#62,#70,#78));
#20 = ORIENTED_EDGE('',*,*,#21,.F.);
#21 = EDGE_CURVE('',#22,#24,#26,.T.);
#22 = VERTEX_POINT('',#23);
#23 = CARTESIAN_POINT('',(120.,0.,0.));
#24 = VERTEX_POINT('',#25);
#25 = CARTESIAN_POINT('',(120.,0.,35.));
#26 = LINE('',#27,#28);
#27 = CARTESIAN_POINT('',(120.,0.,0.));
#28 = VECTOR('',#29,1.);
#29 = DIRECTION('',(0.,0.,1.));
#30 = ORIENTED_EDGE('',*,*,#31,.F.);
#31 = EDGE_CURVE('',#32,#22,#34,.T.);
#32 = VERTEX_POINT('',#33);
#33 = CARTESIAN_POINT('',(90.,0.,0.));
#34 = LINE('',#35,#36);
#35 = CARTESIAN_POINT('',(0.,0.,0.));
#36 = VECTOR('',#37,1.);
#37 = DIRECTION('',(1.,0.,-0.));
#38 = ORIENTED_EDGE('',*,*,#39,.F.);
#39 = EDGE_CURVE('',#40,#32,#42,.T.);
#40 = VERTEX_POINT('',#41);
#41 = CARTESIAN_POINT('',(90.,0.,35.));
#42 = LINE('',#43,#44);
#43 = CARTESIAN_POINT('',(90.,0.,-1.));
#44 = VECTOR('',#45,1.);
#45 = DIRECTION('',(-0.,0.,-1.));
#46 = ORIENTED_EDGE('',*,*,#47,.T.);
#47 = EDGE_CURVE('',#40,#48,#50,.T.);
#48 = VERTEX_POINT('',#49);
#49 = CARTESIAN_POINT('',(108.5,0.,35.));
#50 = LINE('',#51,#52);
#51 = CARTESIAN_POINT('',(0.,0.,35.));
#52 = VECTOR('',#53,1.);
#53 = DIRECTION('',(1.,0.,-0.));
#54 = ORIENTED_EDGE('',*,*,#55,.F.);
#55 = EDGE_CURVE('',#56,#48,#58,.T.);
#56 = VERTEX_POINT('',#57);
#57 = CARTESIAN_POINT('',(108.5,0.,34.8));
#58 = LINE('',#59,#60);
#59 = CARTESIAN_POINT('',(108.5,0.,34.8));
#60 = VECTOR('',#61,1.);
#61 = DIRECTION('',(0.,0.,1.));
#62 = ORIENTED_EDGE('',*,*,#63,.T.);
#63 = EDGE_CURVE('',#56,#64,#66,.T.);
#64 = VERTEX_POINT('',#65);
#65 = CARTESIAN_POINT('',(119.5,0.,34.8));
#66 = LINE('',#67,#68);
#67 = CARTESIAN_POINT('',(108.5,0.,34.8));
#68 = VECTOR('',#69,1.);
#69 = DIRECTION('',(1.,0.,-0.));
#70 = ORIENTED_EDGE('',*,*,#71,.T.);
#71 = EDGE_CURVE('',#64,#72,#74,.T.);
#72 = VERTEX_POINT('',#73);
#73 = CARTESIAN_POINT('',(119.5,0.,35.));
#74 = LINE('',#75,#76);
#75 = CARTESIAN_POINT('',(119.5,0.,34.8));
#76 = VECTOR('',#77,1.);
#77 = DIRECTION('',(0.,0.,1.));
#78 = ORIENTED_EDGE('',*,*,#79,.T.);
#79 = EDGE_CURVE('',#72,#24,#80,.T.);
#80 = LINE('',#81,#82);
#81 = CARTESIAN_POINT('',(0.,0.,35.));
#82 = VECTOR('',#83,1.);
#83 = DIRECTION('',(1.,0.,-0.));
#84 = FACE_BOUND('',#85,.F.);
#85 = EDGE_LOOP('',(#86));
#86 = ORIENTED_EDGE('',*,*,#87,.F.);
#87 = EDGE_CURVE('',#88,#88,#90,.T.);
#88 = VERTEX_POINT('',#89);
#89 = CARTESIAN_POINT('',(96.,0.,8.6));
#90 = CIRCLE('',#91,1.6);
#91 = AXIS2_PLACEMENT_3D('',#92,#93,#94);
#92 = CARTESIAN_POINT('',(96.,0.,7.));
#93 = DIRECTION('',(0.,1.,0.));
#94 = DIRECTION('',(0.,-0.,1.));
#95 = FACE_BOUND('',#96,.F.);
#96 = EDGE_LOOP('',(#97));
#97 = ORIENTED_EDGE('',*,*,#98,.F.);
#98 = EDGE_CURVE('',#99,#99,#101,.T.);
#99 = VERTEX_POINT('',#100);
#100 = CARTESIAN_POINT('',(114.,0.,11.3));
#101 = CIRCLE('',#102,2.3);
#102 = AXIS2_PLACEMENT_3D('',#103,#104,#105);
#103 = CARTESIAN_POINT('',(114.,0.,9.));
#104 = DIRECTION('',(0.,1.,0.));
#105 = DIRECTION('',(0.,-0.,1.));
#106 = FACE_BOUND('',#107,.F.);
#107 = EDGE_LOOP('',(#108));
#108 = ORIENTED_EDGE('',*,*,#109,.F.);
#109 = EDGE_CURVE('',#110,#110,#112,.T.);
#110 = VERTEX_POINT('',#111);
#111 = CARTESIAN_POINT('',(114.,0.,29.));
#112 = CIRCLE('',#113,4.);
#113 = AXIS2_PLACEMENT_3D('',#114,#115,#116);
#114 = CARTESIAN_POINT('',(114.,0.,25.));
#115 = DIRECTION('',(0.,1.,0.));
#116 = DIRECTION('',(0.,-0.,1.));
#117 = PLANE('',#118);
#118 = AXIS2_PLACEMENT_3D('',#119,#120,#121);
#119 = CARTESIAN_POINT('',(0.,0.,0.));
#120 = DIRECTION('',(-0.,1.,0.));
#121 = DIRECTION('',(0.,0.,1.));
#122 = ADVANCED_FACE('',(#123),#148,.T.);
#123 = FACE_BOUND('',#124,.T.);
#124 = EDGE_LOOP('',(#125,#126,#134,#142));
#125 = ORIENTED_EDGE('',*,*,#21,.F.);
#126 = ORIENTED_EDGE('',*,*,#127,.T.);
#127 = EDGE_CURVE('',#22,#128,#130,.T.);
#128 = VERTEX_POINT('',#129);
#129 = CARTESIAN_POINT('',(120.,3.,0.));
#130 = LINE('',#131,#132);
#131 = CARTESIAN_POINT('',(120.,0.,0.));
#132 = VECTOR('',#133,1.);
#133 = DIRECTION('',(-0.,1.,0.));
#134 = ORIENTED_EDGE('',*,*,#135,.T.);
#135 = EDGE_CURVE('',#128,#136,#138,.T.);
#136 = VERTEX_POINT('',#137);
#137 = CARTESIAN_POINT('',(120.,3.,35.));
#138 = LINE('',#139,#140);
#139 = CARTESIAN_POINT('',(120.,3.,0.));
#140 = VECTOR('',#141,1.);
#141 = DIRECTION('',(0.,0.,1.));
#142 = ORIENTED_EDGE('',*,*,#143,.F.);
#143 = EDGE_CURVE('',#24,#136,#144,.T.);
#144 = LINE('',#145,#146);
#145 = CARTESIAN_POINT('',(120.,0.,35.));
#146 = VECTOR('',#147,1.);
#147 = DIRECTION('',(-0.,1.,0.));
#148 = PLANE('',#149);
#149 = AXIS2_PLACEMENT_3D('',#150,#151,#152);
#150 = CARTESIAN_POINT('',(120.,0.,0.));
#151 = DIRECTION('',(1.,0.,-0.));
#152 = DIRECTION('',(0.,0.,1.));
#153 = ADVANCED_FACE('',(#154),#172,.T.);
#154 = FACE_BOUND('',#155,.T.);
#155 = EDGE_LOOP('',(#156,#164,#170,#171));
#156 = ORIENTED_EDGE('',*,*,#157,.F.);
#157 = EDGE_CURVE('',#158,#136,#160,.T.);
#158 = VERTEX_POINT('',#159);
#159 = CARTESIAN_POINT('',(119.5,3.,35.));
#160 = LINE('',#161,#162);
#161 = CARTESIAN_POINT('',(0.,3.,35.));
#162 = VECTOR('',#163,1.);
#163 = DIRECTION('',(1.,0.,-0.));
#164 = ORIENTED_EDGE('',*,*,#165,.F.);
#165 = EDGE_CURVE('',#72,#158,#166,.T.);
#166 = LINE('',#167,#168);
#167 = CARTESIAN_POINT('',(119.5,0.,35.));
#168 = VECTOR('',#169,1.);
#169 = DIRECTION('',(-0.,1.,0.));
#170 = ORIENTED_EDGE('',*,*,#79,.T.);
#171 = ORIENTED_EDGE('',*,*,#143,.T.);
#172 = PLANE('',#173);
#173 = AXIS2_PLACEMENT_3D('',#174,#175,#176);
#174 = CARTESIAN_POINT('',(0.,0.,35.));
#175 = DIRECTION('',(0.,0.,1.));
#176 = DIRECTION('',(1.,0.,-0.));
#177 = ADVANCED_FACE('',(#178),#189,.F.);
#178 = FACE_BOUND('',#179,.F.);
#179 = EDGE_LOOP('',(#180,#186,#187,#188));
#180 = ORIENTED_EDGE('',*,*,#181,.T.);
#181 = EDGE_CURVE('',#48,#72,#182,.T.);
#182 = LINE('',#183,#184);
#183 = CARTESIAN_POINT('',(0.,0.,35.));
#184 = VECTOR('',#185,1.);
#185 = DIRECTION('',(1.,0.,-0.));
#186 = ORIENTED_EDGE('',*,*,#71,.F.);
#187 = ORIENTED_EDGE('',*,*,#63,.F.);
#188 = ORIENTED_EDGE('',*,*,#55,.T.);
#189 = PLANE('',#190);
#190 = AXIS2_PLACEMENT_3D('',#191,#192,#193);
#191 = CARTESIAN_POINT('',(0.,0.,0.));
#192 = DIRECTION('',(-0.,1.,0.));
#193 = DIRECTION('',(0.,0.,1.));
#194 = ADVANCED_FACE('',(#195),#220,.T.);
#195 = FACE_BOUND('',#196,.T.);
#196 = EDGE_LOOP('',(#197,#207,#213,#214));
#197 = ORIENTED_EDGE('',*,*,#198,.F.);
#198 = EDGE_CURVE('',#199,#201,#203,.T.);
#199 = VERTEX_POINT('',#200);
#200 = CARTESIAN_POINT('',(90.,3.,35.));
#201 = VERTEX_POINT('',#202);
#202 = CARTESIAN_POINT('',(108.5,3.,35.));
#203 = LINE('',#204,#205);
#204 = CARTESIAN_POINT('',(0.,3.,35.));
#205 = VECTOR('',#206,1.);
#206 = DIRECTION('',(1.,0.,-0.));
#207 = ORIENTED_EDGE('',*,*,#208,.F.);
#208 = EDGE_CURVE('',#40,#199,#209,.T.);
#209 = LINE('',#210,#211);
#210 = CARTESIAN_POINT('',(90.,-1.,35.));
#211 = VECTOR('',#212,1.);
#212 = DIRECTION('',(-0.,1.,0.));
#213 = ORIENTED_EDGE('',*,*,#47,.T.);
#214 = ORIENTED_EDGE('',*,*,#215,.T.);
#215 = EDGE_CURVE('',#48,#201,#216,.T.);
#216 = LINE('',#217,#218);
#217 = CARTESIAN_POINT('',(108.5,0.,35.));
#218 = VECTOR('',#219,1.);
#219 = DIRECTION('',(-0.,1.,0.));
#220 = PLANE('',#221);
#221 = AXIS2_PLACEMENT_3D('',#222,#223,#224);
#222 = CARTESIAN_POINT('',(0.,0.,35.));
#223 = DIRECTION('',(0.,0.,1.));
#224 = DIRECTION('',(1.,0.,-0.));
#225 = ADVANCED_FACE('',(#226),#244,.F.);
#226 = FACE_BOUND('',#227,.F.);
#227 = EDGE_LOOP('',(#228,#229,#230,#238));
#228 = ORIENTED_EDGE('',*,*,#208,.F.);
#229 = ORIENTED_EDGE('',*,*,#39,.T.);
#230 = ORIENTED_EDGE('',*,*,#231,.T.);
#231 = EDGE_CURVE('',#32,#232,#234,.T.);
#232 = VERTEX_POINT('',#233);
#233 = CARTESIAN_POINT('',(90.,3.,0.));
#234 = LINE('',#235,#236);
#235 = CARTESIAN_POINT('',(90.,-1.,0.));
#236 = VECTOR('',#237,1.);
#237 = DIRECTION('',(-0.,1.,0.));
#238 = ORIENTED_EDGE('',*,*,#239,.F.);
#239 = EDGE_CURVE('',#199,#232,#240,.T.);
#240 = LINE('',#241,#242);
#241 = CARTESIAN_POINT('',(90.,3.,-1.));
#242 = VECTOR('',#243,1.);
#243 = DIRECTION('',(-0.,0.,-1.));
#244 = PLANE('',#245);
#245 = AXIS2_PLACEMENT_3D('',#246,#247,#248);
#246 = CARTESIAN_POINT('',(90.,-2.,-2.));
#247 = DIRECTION('',(1.,0.,-0.));
#248 = DIRECTION('',(0.,0.,1.));
#249 = ADVANCED_FACE('',(#250),#261,.F.);
#250 = FACE_BOUND('',#251,.F.);
#251 = EDGE_LOOP('',(#252,#258,#259,#260));
#252 = ORIENTED_EDGE('',*,*,#253,.F.);
#253 = EDGE_CURVE('',#232,#128,#254,.T.);
#254 = LINE('',#255,#256);
#255 = CARTESIAN_POINT('',(0.,3.,0.));
#256 = VECTOR('',#257,1.);
#257 = DIRECTION('',(1.,0.,-0.));
#258 = ORIENTED_EDGE('',*,*,#231,.F.);
#259 = ORIENTED_EDGE('',*,*,#31,.T.);
#260 = ORIENTED_EDGE('',*,*,#127,.T.);
#261 = PLANE('',#262);
#262 = AXIS2_PLACEMENT_3D('',#263,#264,#265);
#263 = CARTESIAN_POINT('',(0.,0.,0.));
#264 = DIRECTION('',(0.,0.,1.));
#265 = DIRECTION('',(1.,0.,-0.));
#266 = ADVANCED_FACE('',(#267),#286,.F.);
#267 = FACE_BOUND('',#268,.F.);
#268 = EDGE_LOOP('',(#269,#278,#284,#285));
#269 = ORIENTED_EDGE('',*,*,#270,.F.);
#270 = EDGE_CURVE('',#271,#271,#273,.T.);
#271 = VERTEX_POINT('',#272);
#272 = CARTESIAN_POINT('',(96.,3.,8.6));
#273 = CIRCLE('',#274,1.6);
#274 = AXIS2_PLACEMENT_3D('',#275,#276,#277);
#275 = CARTESIAN_POINT('',(96.,3.,7.));
#276 = DIRECTION('',(0.,1.,0.));
#277 = DIRECTION('',(0.,-0.,1.));
#278 = ORIENTED_EDGE('',*,*,#279,.F.);
#279 = EDGE_CURVE('',#88,#271,#280,.T.);
#280 = LINE('',#281,#282);
#281 = CARTESIAN_POINT('',(96.,-1.,8.6));
#282 = VECTOR('',#283,1.);
#283 = DIRECTION('',(0.,1.,0.));
#284 = ORIENTED_EDGE('',*,*,#87,.T.);
#285 = ORIENTED_EDGE('',*,*,#279,.T.);
#286 = CYLINDRICAL_SURFACE('',#287,1.6);
#287 = AXIS2_PLACEMENT_3D('',#288,#289,#290);
#288 = CARTESIAN_POINT('',(96.,-1.,7.));
#289 = DIRECTION('',(0.,1.,0.));
#290 = DIRECTION('',(0.,-0.,1.));
#291 = ADVANCED_FACE('',(#292),#311,.F.);
#292 = FACE_BOUND('',#293,.F.);
#293 = EDGE_LOOP('',(#294,#303,#309,#310));
#294 = ORIENTED_EDGE('',*,*,#295,.F.);
#295 = EDGE_CURVE('',#296,#296,#298,.T.);
#296 = VERTEX_POINT('',#297);
#297 = CARTESIAN_POINT('',(114.,1.2,11.3));
#298 = CIRCLE('',#299,2.3);
#299 = AXIS2_PLACEMENT_3D('',#300,#301,#302);
#300 = CARTESIAN_POINT('',(114.,1.2,9.));
#301 = DIRECTION('',(0.,1.,0.));
#302 = DIRECTION('',(0.,-0.,1.));
#303 = ORIENTED_EDGE('',*,*,#304,.F.);
#304 = EDGE_CURVE('',#99,#296,#305,.T.);
#305 = LINE('',#306,#307);
#306 = CARTESIAN_POINT('',(114.,-1.,11.3));
#307 = VECTOR('',#308,1.);
#308 = DIRECTION('',(0.,1.,0.));
#309 = ORIENTED_EDGE('',*,*,#98,.T.);
#310 = ORIENTED_EDGE('',*,*,#304,.T.);
#311 = CYLINDRICAL_SURFACE('',#312,2.3);
#312 = AXIS2_PLACEMENT_3D('',#313,#314,#315);
#313 = CARTESIAN_POINT('',(114.,-1.,9.));
#314 = DIRECTION('',(0.,1.,0.));
#315 = DIRECTION('',(0.,-0.,1.));
#316 = ADVANCED_FACE('',(#317),#336,.F.);
#317 = FACE_BOUND('',#318,.F.);
#318 = EDGE_LOOP('',(#319,#328,#334,#335));
#319 = ORIENTED_EDGE('',*,*,#320,.F.);
#320 = EDGE_CURVE('',#321,#321,#323,.T.);
#321 = VERTEX_POINT('',#322);
#322 = CARTESIAN_POINT('',(114.,3.,29.));
#323 = CIRCLE('',#324,4.);
#324 = AXIS2_PLACEMENT_3D('',#325,#326,#327);
#325 = CARTESIAN_POINT('',(114.,3.,25.));
#326 = DIRECTION('',(0.,1.,0.));
#327 = DIRECTION('',(0.,-0.,1.));
#328 = ORIENTED_EDGE('',*,*,#329,.F.);
#329 = EDGE_CURVE('',#110,#321,#330,.T.);
#330 = LINE('',#331,#332);
#331 = CARTESIAN_POINT('',(114.,-1.,29.));
#332 = VECTOR('',#333,1.);
#333 = DIRECTION('',(0.,1.,0.));
#334 = ORIENTED_EDGE('',*,*,#109,.T.);
#335 = ORIENTED_EDGE('',*,*,#329,.T.);
#336 = CYLINDRICAL_SURFACE('',#337,4.);
#337 = AXIS2_PLACEMENT_3D('',#338,#339,#340);
#338 = CARTESIAN_POINT('',(114.,-1.,25.));
#339 = DIRECTION('',(0.,1.,0.));
#340 = DIRECTION('',(0.,-0.,1.));
#341 = ADVANCED_FACE('',(#342,#371,#374,#385),#388,.T.);
#342 = FACE_BOUND('',#343,.T.);
#343 = EDGE_LOOP('',(#344,#345,#346,#347,#348,#356,#364,#370));
#344 = ORIENTED_EDGE('',*,*,#135,.F.);
#345 = ORIENTED_EDGE('',*,*,#253,.F.);
#346 = ORIENTED_EDGE('',*,*,#239,.F.);
#347 = ORIENTED_EDGE('',*,*,#198,.T.);
#348 = ORIENTED_EDGE('',*,*,#349,.F.);
#349 = EDGE_CURVE('',#350,#201,#352,.T.);
#350 = VERTEX_POINT('',#351);
#351 = CARTESIAN_POINT('',(108.5,3.,34.8));
#352 = LINE('',#353,#354);
#353 = CARTESIAN_POINT('',(108.5,3.,34.8));
#354 = VECTOR('',#355,1.);
#355 = DIRECTION('',(0.,0.,1.));
#356 = ORIENTED_EDGE('',*,*,#357,.T.);
#357 = EDGE_CURVE('',#350,#358,#360,.T.);
#358 = VERTEX_POINT('',#359);
#359 = CARTESIAN_POINT('',(119.5,3.,34.8));
#360 = LINE('',#361,#362);
#361 = CARTESIAN_POINT('',(108.5,3.,34.8));
#362 = VECTOR('',#363,1.);
#363 = DIRECTION('',(1.,0.,-0.));
#364 = ORIENTED_EDGE('',*,*,#365,.T.);
#365 = EDGE_CURVE('',#358,#158,#366,.T.);
#366 = LINE('',#367,#368);
#367 = CARTESIAN_POINT('',(119.5,3.,34.8));
#368 = VECTOR('',#369,1.);
#369 = DIRECTION('',(0.,0.,1.));
#370 = ORIENTED_EDGE('',*,*,#157,.T.);
#371 = FACE_BOUND('',#372,.T.);
#372 = EDGE_LOOP('',(#373));
#373 = ORIENTED_EDGE('',*,*,#270,.F.);
#374 = FACE_BOUND('',#375,.T.);
#375 = EDGE_LOOP('',(#376));
#376 = ORIENTED_EDGE('',*,*,#377,.F.);
#377 = EDGE_CURVE('',#378,#378,#380,.T.);
#378 = VERTEX_POINT('',#379);
#379 = CARTESIAN_POINT('',(114.,3.,14.214656965084));
#380 = CIRCLE('',#381,5.214656965084);
#381 = AXIS2_PLACEMENT_3D('',#382,#383,#384);
#382 = CARTESIAN_POINT('',(114.,3.,9.));
#383 = DIRECTION('',(0.,1.,0.));
#384 = DIRECTION('',(0.,-0.,1.));
#385 = FACE_BOUND('',#386,.T.);
#386 = EDGE_LOOP('',(#387));
#387 = ORIENTED_EDGE('',*,*,#320,.F.);
#388 = PLANE('',#389);
#389 = AXIS2_PLACEMENT_3D('',#390,#391,#392);
#390 = CARTESIAN_POINT('',(0.,3.,0.));
#391 = DIRECTION('',(-0.,1.,0.));
#392 = DIRECTION('',(0.,0.,1.));
#393 = ADVANCED_FACE('',(#394),#419,.T.);
#394 = FACE_BOUND('',#395,.T.);
#395 = EDGE_LOOP('',(#396,#404,#405,#413));
#396 = ORIENTED_EDGE('',*,*,#397,.F.);
#397 = EDGE_CURVE('',#72,#398,#400,.T.);
#398 = VERTEX_POINT('',#399);
#399 = CARTESIAN_POINT('',(119.5,0.,46.5));
#400 = LINE('',#401,#402);
#401 = CARTESIAN_POINT('',(119.5,0.,34.8));
#402 = VECTOR('',#403,1.);
#403 = DIRECTION('',(0.,0.,1.));
#404 = ORIENTED_EDGE('',*,*,#165,.T.);
#405 = ORIENTED_EDGE('',*,*,#406,.T.);
#406 = EDGE_CURVE('',#158,#407,#409,.T.);
#407 = VERTEX_POINT('',#408);
#408 = CARTESIAN_POINT('',(119.5,3.,46.5));
#409 = LINE('',#410,#411);
#410 = CARTESIAN_POINT('',(119.5,3.,34.8));
#411 = VECTOR('',#412,1.);
#412 = DIRECTION('',(0.,0.,1.));
#413 = ORIENTED_EDGE('',*,*,#414,.F.);
#414 = EDGE_CURVE('',#398,#407,#415,.T.);
#415 = LINE('',#416,#417);
#416 = CARTESIAN_POINT('',(119.5,0.,46.5));
#417 = VECTOR('',#418,1.);
#418 = DIRECTION('',(-0.,1.,0.));
#419 = PLANE('',#420);
#420 = AXIS2_PLACEMENT_3D('',#421,#422,#423);
#421 = CARTESIAN_POINT('',(119.5,0.,34.8));
#422 = DIRECTION('',(1.,0.,-0.));
#423 = DIRECTION('',(0.,0.,1.));
#424 = ADVANCED_FACE('',(#425,#443),#454,.F.);
#425 = FACE_BOUND('',#426,.F.);
#426 = EDGE_LOOP('',(#427,#428,#436,#442));
#427 = ORIENTED_EDGE('',*,*,#181,.F.);
#428 = ORIENTED_EDGE('',*,*,#429,.T.);
#429 = EDGE_CURVE('',#48,#430,#432,.T.);
#430 = VERTEX_POINT('',#431);
#431 = CARTESIAN_POINT('',(108.5,0.,46.5));
#432 = LINE('',#433,#434);
#433 = CARTESIAN_POINT('',(108.5,0.,34.8));
#434 = VECTOR('',#435,1.);
#435 = DIRECTION('',(0.,0.,1.));
#436 = ORIENTED_EDGE('',*,*,#437,.T.);
#437 = EDGE_CURVE('',#430,#398,#438,.T.);
#438 = LINE('',#439,#440);
#439 = CARTESIAN_POINT('',(108.5,0.,46.5));
#440 = VECTOR('',#441,1.);
#441 = DIRECTION('',(1.,0.,-0.));
#442 = ORIENTED_EDGE('',*,*,#397,.F.);
#443 = FACE_BOUND('',#444,.F.);
#444 = EDGE_LOOP('',(#445));
#445 = ORIENTED_EDGE('',*,*,#446,.F.);
#446 = EDGE_CURVE('',#447,#447,#449,.T.);
#447 = VERTEX_POINT('',#448);
#448 = CARTESIAN_POINT('',(114.,0.,43.3));
#449 = CIRCLE('',#450,2.3);
#450 = AXIS2_PLACEMENT_3D('',#451,#452,#453);
#451 = CARTESIAN_POINT('',(114.,0.,41.));
#452 = DIRECTION('',(0.,1.,0.));
#453 = DIRECTION('',(0.,-0.,1.));
#454 = PLANE('',#455);
#455 = AXIS2_PLACEMENT_3D('',#456,#457,#458);
#456 = CARTESIAN_POINT('',(108.5,0.,34.8));
#457 = DIRECTION('',(-0.,1.,0.));
#458 = DIRECTION('',(0.,0.,1.));
#459 = ADVANCED_FACE('',(#460),#478,.F.);
#460 = FACE_BOUND('',#461,.F.);
#461 = EDGE_LOOP('',(#462,#463,#464,#472));
#462 = ORIENTED_EDGE('',*,*,#429,.F.);
#463 = ORIENTED_EDGE('',*,*,#215,.T.);
#464 = ORIENTED_EDGE('',*,*,#465,.T.);
#465 = EDGE_CURVE('',#201,#466,#468,.T.);
#466 = VERTEX_POINT('',#467);
#467 = CARTESIAN_POINT('',(108.5,3.,46.5));
#468 = LINE('',#469,#470);
#469 = CARTESIAN_POINT('',(108.5,3.,34.8));
#470 = VECTOR('',#471,1.);
#471 = DIRECTION('',(0.,0.,1.));
#472 = ORIENTED_EDGE('',*,*,#473,.F.);
#473 = EDGE_CURVE('',#430,#466,#474,.T.);
#474 = LINE('',#475,#476);
#475 = CARTESIAN_POINT('',(108.5,0.,46.5));
#476 = VECTOR('',#477,1.);
#477 = DIRECTION('',(-0.,1.,0.));
#478 = PLANE('',#479);
#479 = AXIS2_PLACEMENT_3D('',#480,#481,#482);
#480 = CARTESIAN_POINT('',(108.5,0.,34.8));
#481 = DIRECTION('',(1.,0.,-0.));
#482 = DIRECTION('',(0.,0.,1.));
#483 = ADVANCED_FACE('',(#484,#534),#537,.F.);
#484 = FACE_BOUND('',#485,.F.);
#485 = EDGE_LOOP('',(#486,#496,#504,#512,#520,#528));
#486 = ORIENTED_EDGE('',*,*,#487,.T.);
#487 = EDGE_CURVE('',#488,#490,#492,.T.);
#488 = VERTEX_POINT('',#489);
#489 = CARTESIAN_POINT('',(117.65,1.2,11.107328482542));
#490 = VERTEX_POINT('',#491);
#491 = CARTESIAN_POINT('',(114.,1.2,13.214656965084));
#492 = LINE('',#493,#494);
#493 = CARTESIAN_POINT('',(117.65,1.2,11.107328482542));
#494 = VECTOR('',#495,1.);
#495 = DIRECTION('',(-0.866025403784,0.,0.5));
#496 = ORIENTED_EDGE('',*,*,#497,.T.);
#497 = EDGE_CURVE('',#490,#498,#500,.T.);
#498 = VERTEX_POINT('',#499);
#499 = CARTESIAN_POINT('',(110.35,1.2,11.107328482542));
#500 = LINE('',#501,#502);
#501 = CARTESIAN_POINT('',(114.,1.2,13.214656965084));
#502 = VECTOR('',#503,1.);
#503 = DIRECTION('',(-0.866025403784,0.,-0.5));
#504 = ORIENTED_EDGE('',*,*,#505,.T.);
#505 = EDGE_CURVE('',#498,#506,#508,.T.);
#506 = VERTEX_POINT('',#507);
#507 = CARTESIAN_POINT('',(110.35,1.2,6.892671517458));
#508 = LINE('',#509,#510);
#509 = CARTESIAN_POINT('',(110.35,1.2,11.107328482542));
#510 = VECTOR('',#511,1.);
#511 = DIRECTION('',(0.,0.,-1.));
#512 = ORIENTED_EDGE('',*,*,#513,.T.);
#513 = EDGE_CURVE('',#506,#514,#516,.T.);
#514 = VERTEX_POINT('',#515);
#515 = CARTESIAN_POINT('',(114.,1.2,4.785343034916));
#516 = LINE('',#517,#518);
#517 = CARTESIAN_POINT('',(110.35,1.2,6.892671517458));
#518 = VECTOR('',#519,1.);
#519 = DIRECTION('',(0.866025403784,0.,-0.5));
#520 = ORIENTED_EDGE('',*,*,#521,.T.);
#521 = EDGE_CURVE('',#514,#522,#524,.T.);
#522 = VERTEX_POINT('',#523);
#523 = CARTESIAN_POINT('',(117.65,1.2,6.892671517458));
#524 = LINE('',#525,#526);
#525 = CARTESIAN_POINT('',(114.,1.2,4.785343034916));
#526 = VECTOR('',#527,1.);
#527 = DIRECTION('',(0.866025403784,0.,0.5));
#528 = ORIENTED_EDGE('',*,*,#529,.T.);
#529 = EDGE_CURVE('',#522,#488,#530,.T.);
#530 = LINE('',#531,#532);
#531 = CARTESIAN_POINT('',(117.65,1.2,6.892671517458));
#532 = VECTOR('',#533,1.);
#533 = DIRECTION('',(3.371770189823E-15,0.,1.));
#534 = FACE_BOUND('',#535,.F.);
#535 = EDGE_LOOP('',(#536));
#536 = ORIENTED_EDGE('',*,*,#295,.T.);
#537 = PLANE('',#538);
#538 = AXIS2_PLACEMENT_3D('',#539,#540,#541);
#539 = CARTESIAN_POINT('',(114.,1.2,9.));
#540 = DIRECTION('',(-0.,-1.,-0.));
#541 = DIRECTION('',(0.,0.,-1.));
#542 = ADVANCED_FACE('',(#543),#554,.T.);
#543 = FACE_BOUND('',#544,.T.);
#544 = EDGE_LOOP('',(#545,#551,#552,#553));
#545 = ORIENTED_EDGE('',*,*,#546,.T.);
#546 = EDGE_CURVE('',#201,#158,#547,.T.);
#547 = LINE('',#548,#549);
#548 = CARTESIAN_POINT('',(0.,3.,35.));
#549 = VECTOR('',#550,1.);
#550 = DIRECTION('',(1.,0.,-0.));
#551 = ORIENTED_EDGE('',*,*,#365,.F.);
#552 = ORIENTED_EDGE('',*,*,#357,.F.);
#553 = ORIENTED_EDGE('',*,*,#349,.T.);
#554 = PLANE('',#555);
#555 = AXIS2_PLACEMENT_3D('',#556,#557,#558);
#556 = CARTESIAN_POINT('',(0.,3.,0.));
#557 = DIRECTION('',(-0.,1.,0.));
#558 = DIRECTION('',(0.,0.,1.));
#559 = ADVANCED_FACE('',(#560),#579,.T.);
#560 = FACE_BOUND('',#561,.T.);
#561 = EDGE_LOOP('',(#562,#570,#577,#578));
#562 = ORIENTED_EDGE('',*,*,#563,.T.);
#563 = EDGE_CURVE('',#378,#564,#566,.T.);
#564 = VERTEX_POINT('',#565);
#565 = CARTESIAN_POINT('',(114.,4.6,14.214656965084));
#566 = LINE('',#567,#568);
#567 = CARTESIAN_POINT('',(114.,2.8,14.214656965084));
#568 = VECTOR('',#569,1.);
#569 = DIRECTION('',(0.,1.,0.));
#570 = ORIENTED_EDGE('',*,*,#571,.F.);
#571 = EDGE_CURVE('',#564,#564,#572,.T.);
#572 = CIRCLE('',#573,5.214656965084);
#573 = AXIS2_PLACEMENT_3D('',#574,#575,#576);
#574 = CARTESIAN_POINT('',(114.,4.6,9.));
#575 = DIRECTION('',(0.,1.,0.));
#576 = DIRECTION('',(0.,-0.,1.));
#577 = ORIENTED_EDGE('',*,*,#563,.F.);
#578 = ORIENTED_EDGE('',*,*,#377,.T.);
#579 = CYLINDRICAL_SURFACE('',#580,5.214656965084);
#580 = AXIS2_PLACEMENT_3D('',#581,#582,#583);
#581 = CARTESIAN_POINT('',(114.,2.8,9.));
#582 = DIRECTION('',(0.,1.,0.));
#583 = DIRECTION('',(0.,-0.,1.));
#584 = ADVANCED_FACE('',(#585),#596,.T.);
#585 = FACE_BOUND('',#586,.T.);
#586 = EDGE_LOOP('',(#587,#588,#589,#590));
#587 = ORIENTED_EDGE('',*,*,#473,.F.);
#588 = ORIENTED_EDGE('',*,*,#437,.T.);
#589 = ORIENTED_EDGE('',*,*,#414,.T.);
#590 = ORIENTED_EDGE('',*,*,#591,.F.);
#591 = EDGE_CURVE('',#466,#407,#592,.T.);
#592 = LINE('',#593,#594);
#593 = CARTESIAN_POINT('',(108.5,3.,46.5));
#594 = VECTOR('',#595,1.);
#595 = DIRECTION('',(1.,0.,-0.));
#596 = PLANE('',#597);
#597 = AXIS2_PLACEMENT_3D('',#598,#599,#600);
#598 = CARTESIAN_POINT('',(108.5,0.,46.5));
#599 = DIRECTION('',(0.,0.,1.));
#600 = DIRECTION('',(1.,0.,-0.));
#601 = ADVANCED_FACE('',(#602,#608),#619,.T.);
#602 = FACE_BOUND('',#603,.T.);
#603 = EDGE_LOOP('',(#604,#605,#606,#607));
#604 = ORIENTED_EDGE('',*,*,#546,.F.);
#605 = ORIENTED_EDGE('',*,*,#465,.T.);
#606 = ORIENTED_EDGE('',*,*,#591,.T.);
#607 = ORIENTED_EDGE('',*,*,#406,.F.);
#608 = FACE_BOUND('',#609,.T.);
#609 = EDGE_LOOP('',(#610));
#610 = ORIENTED_EDGE('',*,*,#611,.F.);
#611 = EDGE_CURVE('',#612,#612,#614,.T.);
#612 = VERTEX_POINT('',#613);
#613 = CARTESIAN_POINT('',(114.,3.,46.214656965084));
#614 = CIRCLE('',#615,5.214656965084);
#615 = AXIS2_PLACEMENT_3D('',#616,#617,#618);
#616 = CARTESIAN_POINT('',(114.,3.,41.));
#617 = DIRECTION('',(0.,1.,0.));
#618 = DIRECTION('',(0.,-0.,1.));
#619 = PLANE('',#620);
#620 = AXIS2_PLACEMENT_3D('',#621,#622,#623);
#621 = CARTESIAN_POINT('',(108.5,3.,34.8));
#622 = DIRECTION('',(-0.,1.,0.));
#623 = DIRECTION('',(0.,0.,1.));
#624 = ADVANCED_FACE('',(#625),#644,.F.);
#625 = FACE_BOUND('',#626,.F.);
#626 = EDGE_LOOP('',(#627,#636,#642,#643));
#627 = ORIENTED_EDGE('',*,*,#628,.F.);
#628 = EDGE_CURVE('',#629,#629,#631,.T.);
#629 = VERTEX_POINT('',#630);
#630 = CARTESIAN_POINT('',(114.,1.2,43.3));
#631 = CIRCLE('',#632,2.3);
#632 = AXIS2_PLACEMENT_3D('',#633,#634,#635);
#633 = CARTESIAN_POINT('',(114.,1.2,41.));
#634 = DIRECTION('',(0.,1.,0.));
#635 = DIRECTION('',(0.,-0.,1.));
#636 = ORIENTED_EDGE('',*,*,#637,.F.);
#637 = EDGE_CURVE('',#447,#629,#638,.T.);
#638 = LINE('',#639,#640);
#639 = CARTESIAN_POINT('',(114.,-1.,43.3));
#640 = VECTOR('',#641,1.);
#641 = DIRECTION('',(0.,1.,0.));
#642 = ORIENTED_EDGE('',*,*,#446,.T.);
#643 = ORIENTED_EDGE('',*,*,#637,.T.);
#644 = CYLINDRICAL_SURFACE('',#645,2.3);
#645 = AXIS2_PLACEMENT_3D('',#646,#647,#648);
#646 = CARTESIAN_POINT('',(114.,-1.,41.));
#647 = DIRECTION('',(0.,1.,0.));
#648 = DIRECTION('',(0.,-0.,1.));
#649 = ADVANCED_FACE('',(#650),#675,.F.);
#650 = FACE_BOUND('',#651,.F.);
#651 = EDGE_LOOP('',(#652,#653,#661,#669));
#652 = ORIENTED_EDGE('',*,*,#487,.F.);
#653 = ORIENTED_EDGE('',*,*,#654,.T.);
#654 = EDGE_CURVE('',#488,#655,#657,.T.);
#655 = VERTEX_POINT('',#656);
#656 = CARTESIAN_POINT('',(117.65,4.6,11.107328482542));
#657 = LINE('',#658,#659);
#658 = CARTESIAN_POINT('',(117.65,1.2,11.107328482542));
#659 = VECTOR('',#660,1.);
#660 = DIRECTION('',(0.,1.,0.));
#661 = ORIENTED_EDGE('',*,*,#662,.F.);
#662 = EDGE_CURVE('',#663,#655,#665,.T.);
#663 = VERTEX_POINT('',#664);
#664 = CARTESIAN_POINT('',(114.,4.6,13.214656965084));
#665 = LINE('',#666,#667);
#666 = CARTESIAN_POINT('',(116.7375,4.6,11.634160603178));
#667 = VECTOR('',#668,1.);
#668 = DIRECTION('',(0.866025403784,0.,-0.5));
#669 = ORIENTED_EDGE('',*,*,#670,.F.);
#670 = EDGE_CURVE('',#490,#663,#671,.T.);
#671 = LINE('',#672,#673);
#672 = CARTESIAN_POINT('',(114.,1.2,13.214656965084));
#673 = VECTOR('',#674,1.);
#674 = DIRECTION('',(0.,1.,0.));
#675 = PLANE('',#676);
#676 = AXIS2_PLACEMENT_3D('',#677,#678,#679);
#677 = CARTESIAN_POINT('',(117.65,1.2,11.107328482542));
#678 = DIRECTION('',(0.5,-0.,0.866025403784));
#679 = DIRECTION('',(-0.866025403784,0.,0.5));
#680 = ADVANCED_FACE('',(#681),#699,.F.);
#681 = FACE_BOUND('',#682,.F.);
#682 = EDGE_LOOP('',(#683,#684,#692,#698));
#683 = ORIENTED_EDGE('',*,*,#529,.F.);
#684 = ORIENTED_EDGE('',*,*,#685,.T.);
#685 = EDGE_CURVE('',#522,#686,#688,.T.);
#686 = VERTEX_POINT('',#687);
#687 = CARTESIAN_POINT('',(117.65,4.6,6.892671517458));
#688 = LINE('',#689,#690);
#689 = CARTESIAN_POINT('',(117.65,1.2,6.892671517458));
#690 = VECTOR('',#691,1.);
#691 = DIRECTION('',(0.,1.,0.));
#692 = ORIENTED_EDGE('',*,*,#693,.F.);
#693 = EDGE_CURVE('',#655,#686,#694,.T.);
#694 = LINE('',#695,#696);
#695 = CARTESIAN_POINT('',(117.65,4.6,7.946335758729));
#696 = VECTOR('',#697,1.);
#697 = DIRECTION('',(-3.371770189823E-15,0.,-1.));
#698 = ORIENTED_EDGE('',*,*,#654,.F.);
#699 = PLANE('',#700);
#700 = AXIS2_PLACEMENT_3D('',#701,#702,#703);
#701 = CARTESIAN_POINT('',(117.65,1.2,6.892671517458));
#702 = DIRECTION('',(1.,0.,-3.371770189823E-15));
#703 = DIRECTION('',(3.371770189823E-15,0.,1.));
#704 = ADVANCED_FACE('',(#705),#723,.F.);
#705 = FACE_BOUND('',#706,.F.);
#706 = EDGE_LOOP('',(#707,#708,#709,#717));
#707 = ORIENTED_EDGE('',*,*,#497,.F.);
#708 = ORIENTED_EDGE('',*,*,#670,.T.);
#709 = ORIENTED_EDGE('',*,*,#710,.F.);
#710 = EDGE_CURVE('',#711,#663,#713,.T.);
#711 = VERTEX_POINT('',#712);
#712 = CARTESIAN_POINT('',(110.35,4.6,11.107328482542));
#713 = LINE('',#714,#715);
#714 = CARTESIAN_POINT('',(113.0875,4.6,12.687824844449));
#715 = VECTOR('',#716,1.);
#716 = DIRECTION('',(0.866025403784,-0.,0.5));
#717 = ORIENTED_EDGE('',*,*,#718,.F.);
#718 = EDGE_CURVE('',#498,#711,#719,.T.);
#719 = LINE('',#720,#721);
#720 = CARTESIAN_POINT('',(110.35,1.2,11.107328482542));
#721 = VECTOR('',#722,1.);
#722 = DIRECTION('',(0.,1.,0.));
#723 = PLANE('',#724);
#724 = AXIS2_PLACEMENT_3D('',#725,#726,#727);
#725 = CARTESIAN_POINT('',(114.,1.2,13.214656965084));
#726 = DIRECTION('',(-0.5,0.,0.866025403784));
#727 = DIRECTION('',(-0.866025403784,0.,-0.5));
#728 = ADVANCED_FACE('',(#729),#747,.F.);
#729 = FACE_BOUND('',#730,.F.);
#730 = EDGE_LOOP('',(#731,#732,#740,#746));
#731 = ORIENTED_EDGE('',*,*,#521,.F.);
#732 = ORIENTED_EDGE('',*,*,#733,.T.);
#733 = EDGE_CURVE('',#514,#734,#736,.T.);
#734 = VERTEX_POINT('',#735);
#735 = CARTESIAN_POINT('',(114.,4.6,4.785343034916));
#736 = LINE('',#737,#738);
#737 = CARTESIAN_POINT('',(114.,1.2,4.785343034916));
#738 = VECTOR('',#739,1.);
#739 = DIRECTION('',(0.,1.,0.));
#740 = ORIENTED_EDGE('',*,*,#741,.F.);
#741 = EDGE_CURVE('',#686,#734,#742,.T.);
#742 = LINE('',#743,#744);
#743 = CARTESIAN_POINT('',(114.9125,4.6,5.312175155551));
#744 = VECTOR('',#745,1.);
#745 = DIRECTION('',(-0.866025403784,0.,-0.5));
#746 = ORIENTED_EDGE('',*,*,#685,.F.);
#747 = PLANE('',#748);
#748 = AXIS2_PLACEMENT_3D('',#749,#750,#751);
#749 = CARTESIAN_POINT('',(114.,1.2,4.785343034916));
#750 = DIRECTION('',(0.5,0.,-0.866025403784));
#751 = DIRECTION('',(0.866025403784,0.,0.5));
#752 = ADVANCED_FACE('',(#753),#771,.F.);
#753 = FACE_BOUND('',#754,.F.);
#754 = EDGE_LOOP('',(#755,#756,#757,#765));
#755 = ORIENTED_EDGE('',*,*,#505,.F.);
#756 = ORIENTED_EDGE('',*,*,#718,.T.);
#757 = ORIENTED_EDGE('',*,*,#758,.F.);
#758 = EDGE_CURVE('',#759,#711,#761,.T.);
#759 = VERTEX_POINT('',#760);
#760 = CARTESIAN_POINT('',(110.35,4.6,6.892671517458));
#761 = LINE('',#762,#763);
#762 = CARTESIAN_POINT('',(110.35,4.6,10.053664241271));
#763 = VECTOR('',#764,1.);
#764 = DIRECTION('',(0.,-0.,1.));
#765 = ORIENTED_EDGE('',*,*,#766,.F.);
#766 = EDGE_CURVE('',#506,#759,#767,.T.);
#767 = LINE('',#768,#769);
#768 = CARTESIAN_POINT('',(110.35,1.2,6.892671517458));
#769 = VECTOR('',#770,1.);
#770 = DIRECTION('',(0.,1.,0.));
#771 = PLANE('',#772);
#772 = AXIS2_PLACEMENT_3D('',#773,#774,#775);
#773 = CARTESIAN_POINT('',(110.35,1.2,11.107328482542));
#774 = DIRECTION('',(-1.,0.,0.));
#775 = DIRECTION('',(0.,0.,-1.));
#776 = ADVANCED_FACE('',(#777),#788,.F.);
#777 = FACE_BOUND('',#778,.F.);
#778 = EDGE_LOOP('',(#779,#780,#781,#787));
#779 = ORIENTED_EDGE('',*,*,#513,.F.);
#780 = ORIENTED_EDGE('',*,*,#766,.T.);
#781 = ORIENTED_EDGE('',*,*,#782,.F.);
#782 = EDGE_CURVE('',#734,#759,#783,.T.);
#783 = LINE('',#784,#785);
#784 = CARTESIAN_POINT('',(111.2625,4.6,6.365839396822));
#785 = VECTOR('',#786,1.);
#786 = DIRECTION('',(-0.866025403784,0.,0.5));
#787 = ORIENTED_EDGE('',*,*,#733,.F.);
#788 = PLANE('',#789);
#789 = AXIS2_PLACEMENT_3D('',#790,#791,#792);
#790 = CARTESIAN_POINT('',(110.35,1.2,6.892671517458));
#791 = DIRECTION('',(-0.5,0.,-0.866025403784));
#792 = DIRECTION('',(0.866025403784,0.,-0.5));
#793 = ADVANCED_FACE('',(#794,#797),#805,.T.);
#794 = FACE_BOUND('',#795,.T.);
#795 = EDGE_LOOP('',(#796));
#796 = ORIENTED_EDGE('',*,*,#571,.T.);
#797 = FACE_BOUND('',#798,.T.);
#798 = EDGE_LOOP('',(#799,#800,#801,#802,#803,#804));
#799 = ORIENTED_EDGE('',*,*,#662,.F.);
#800 = ORIENTED_EDGE('',*,*,#710,.F.);
#801 = ORIENTED_EDGE('',*,*,#758,.F.);
#802 = ORIENTED_EDGE('',*,*,#782,.F.);
#803 = ORIENTED_EDGE('',*,*,#741,.F.);
#804 = ORIENTED_EDGE('',*,*,#693,.F.);
#805 = PLANE('',#806);
#806 = AXIS2_PLACEMENT_3D('',#807,#808,#809);
#807 = CARTESIAN_POINT('',(114.,4.6,9.));
#808 = DIRECTION('',(0.,1.,0.));
#809 = DIRECTION('',(0.,-0.,1.));
#810 = ADVANCED_FACE('',(#811),#830,.T.);
#811 = FACE_BOUND('',#812,.T.);
#812 = EDGE_LOOP('',(#813,#821,#828,#829));
#813 = ORIENTED_EDGE('',*,*,#814,.T.);
#814 = EDGE_CURVE('',#612,#815,#817,.T.);
#815 = VERTEX_POINT('',#816);
#816 = CARTESIAN_POINT('',(114.,4.6,46.214656965084));
#817 = LINE('',#818,#819);
#818 = CARTESIAN_POINT('',(114.,2.8,46.214656965084));
#819 = VECTOR('',#820,1.);
#820 = DIRECTION('',(0.,1.,0.));
#821 = ORIENTED_EDGE('',*,*,#822,.F.);
#822 = EDGE_CURVE('',#815,#815,#823,.T.);
#823 = CIRCLE('',#824,5.214656965084);
#824 = AXIS2_PLACEMENT_3D('',#825,#826,#827);
#825 = CARTESIAN_POINT('',(114.,4.6,41.));
#826 = DIRECTION('',(0.,1.,0.));
#827 = DIRECTION('',(0.,-0.,1.));
#828 = ORIENTED_EDGE('',*,*,#814,.F.);
#829 = ORIENTED_EDGE('',*,*,#611,.T.);
#830 = CYLINDRICAL_SURFACE('',#831,5.214656965084);
#831 = AXIS2_PLACEMENT_3D('',#832,#833,#834);
#832 = CARTESIAN_POINT('',(114.,2.8,41.));
#833 = DIRECTION('',(0.,1.,0.));
#834 = DIRECTION('',(0.,-0.,1.));
#835 = ADVANCED_FACE('',(#836,#886),#889,.F.);
#836 = FACE_BOUND('',#837,.F.);
#837 = EDGE_LOOP('',(#838,#848,#856,#864,#872,#880));
#838 = ORIENTED_EDGE('',*,*,#839,.T.);
#839 = EDGE_CURVE('',#840,#842,#844,.T.);
#840 = VERTEX_POINT('',#841);
#841 = CARTESIAN_POINT('',(117.65,1.2,43.107328482542));
#842 = VERTEX_POINT('',#843);
#843 = CARTESIAN_POINT('',(114.,1.2,45.214656965084));
#844 = LINE('',#845,#846);
#845 = CARTESIAN_POINT('',(117.65,1.2,43.107328482542));
#846 = VECTOR('',#847,1.);
#847 = DIRECTION('',(-0.866025403784,0.,0.5));
#848 = ORIENTED_EDGE('',*,*,#849,.T.);
#849 = EDGE_CURVE('',#842,#850,#852,.T.);
#850 = VERTEX_POINT('',#851);
#851 = CARTESIAN_POINT('',(110.35,1.2,43.107328482542));
#852 = LINE('',#853,#854);
#853 = CARTESIAN_POINT('',(114.,1.2,45.214656965084));
#854 = VECTOR('',#855,1.);
#855 = DIRECTION('',(-0.866025403784,0.,-0.5));
#856 = ORIENTED_EDGE('',*,*,#857,.T.);
#857 = EDGE_CURVE('',#850,#858,#860,.T.);
#858 = VERTEX_POINT('',#859);
#859 = CARTESIAN_POINT('',(110.35,1.2,38.892671517458));
#860 = LINE('',#861,#862);
#861 = CARTESIAN_POINT('',(110.35,1.2,43.107328482542));
#862 = VECTOR('',#863,1.);
#863 = DIRECTION('',(0.,0.,-1.));
#864 = ORIENTED_EDGE('',*,*,#865,.T.);
#865 = EDGE_CURVE('',#858,#866,#868,.T.);
#866 = VERTEX_POINT('',#867);
#867 = CARTESIAN_POINT('',(114.,1.2,36.785343034916));
#868 = LINE('',#869,#870);
#869 = CARTESIAN_POINT('',(110.35,1.2,38.892671517458));
#870 = VECTOR('',#871,1.);
#871 = DIRECTION('',(0.866025403784,0.,-0.5));
#872 = ORIENTED_EDGE('',*,*,#873,.T.);
#873 = EDGE_CURVE('',#866,#874,#876,.T.);
#874 = VERTEX_POINT('',#875);
#875 = CARTESIAN_POINT('',(117.65,1.2,38.892671517458));
#876 = LINE('',#877,#878);
#877 = CARTESIAN_POINT('',(114.,1.2,36.785343034916));
#878 = VECTOR('',#879,1.);
#879 = DIRECTION('',(0.866025403784,0.,0.5));
#880 = ORIENTED_EDGE('',*,*,#881,.T.);
#881 = EDGE_CURVE('',#874,#840,#882,.T.);
#882 = LINE('',#883,#884);
#883 = CARTESIAN_POINT('',(117.65,1.2,38.892671517458));
#884 = VECTOR('',#885,1.);
#885 = DIRECTION('',(3.371770189823E-15,0.,1.));
#886 = FACE_BOUND('',#887,.F.);
#887 = EDGE_LOOP('',(#888));
#888 = ORIENTED_EDGE('',*,*,#628,.T.);
#889 = PLANE('',#890);
#890 = AXIS2_PLACEMENT_3D('',#891,#892,#893);
#891 = CARTESIAN_POINT('',(114.,1.2,41.));
#892 = DIRECTION('',(-0.,-1.,-0.));
#893 = DIRECTION('',(0.,0.,-1.));
#894 = ADVANCED_FACE('',(#895,#898),#948,.T.);
#895 = FACE_BOUND('',#896,.T.);
#896 = EDGE_LOOP('',(#897));
#897 = ORIENTED_EDGE('',*,*,#822,.T.);
#898 = FACE_BOUND('',#899,.T.);
#899 = EDGE_LOOP('',(#900,#910,#918,#926,#934,#942));
#900 = ORIENTED_EDGE('',*,*,#901,.F.);
#901 = EDGE_CURVE('',#902,#904,#906,.T.);
#902 = VERTEX_POINT('',#903);
#903 = CARTESIAN_POINT('',(114.,4.6,45.214656965084));
#904 = VERTEX_POINT('',#905);
#905 = CARTESIAN_POINT('',(117.65,4.6,43.107328482542));
#906 = LINE('',#907,#908);
#907 = CARTESIAN_POINT('',(116.7375,4.6,43.634160603178));
#908 = VECTOR('',#909,1.);
#909 = DIRECTION('',(0.866025403784,0.,-0.5));
#910 = ORIENTED_EDGE('',*,*,#911,.F.);
#911 = EDGE_CURVE('',#912,#902,#914,.T.);
#912 = VERTEX_POINT('',#913);
#913 = CARTESIAN_POINT('',(110.35,4.6,43.107328482542));
#914 = LINE('',#915,#916);
#915 = CARTESIAN_POINT('',(113.0875,4.6,44.687824844449));
#916 = VECTOR('',#917,1.);
#917 = DIRECTION('',(0.866025403784,-0.,0.5));
#918 = ORIENTED_EDGE('',*,*,#919,.F.);
#919 = EDGE_CURVE('',#920,#912,#922,.T.);
#920 = VERTEX_POINT('',#921);
#921 = CARTESIAN_POINT('',(110.35,4.6,38.892671517458));
#922 = LINE('',#923,#924);
#923 = CARTESIAN_POINT('',(110.35,4.6,42.053664241271));
#924 = VECTOR('',#925,1.);
#925 = DIRECTION('',(0.,-0.,1.));
#926 = ORIENTED_EDGE('',*,*,#927,.F.);
#927 = EDGE_CURVE('',#928,#920,#930,.T.);
#928 = VERTEX_POINT('',#929);
#929 = CARTESIAN_POINT('',(114.,4.6,36.785343034916));
#930 = LINE('',#931,#932);
#931 = CARTESIAN_POINT('',(111.2625,4.6,38.365839396822));
#932 = VECTOR('',#933,1.);
#933 = DIRECTION('',(-0.866025403784,0.,0.5));
#934 = ORIENTED_EDGE('',*,*,#935,.F.);
#935 = EDGE_CURVE('',#936,#928,#938,.T.);
#936 = VERTEX_POINT('',#937);
#937 = CARTESIAN_POINT('',(117.65,4.6,38.892671517458));
#938 = LINE('',#939,#940);
#939 = CARTESIAN_POINT('',(114.9125,4.6,37.312175155551));
#940 = VECTOR('',#941,1.);
#941 = DIRECTION('',(-0.866025403784,0.,-0.5));
#942 = ORIENTED_EDGE('',*,*,#943,.F.);
#943 = EDGE_CURVE('',#904,#936,#944,.T.);
#944 = LINE('',#945,#946);
#945 = CARTESIAN_POINT('',(117.65,4.6,39.946335758729));
#946 = VECTOR('',#947,1.);
#947 = DIRECTION('',(-3.371770189823E-15,0.,-1.));
#948 = PLANE('',#949);
#949 = AXIS2_PLACEMENT_3D('',#950,#951,#952);
#950 = CARTESIAN_POINT('',(114.,4.6,41.));
#951 = DIRECTION('',(0.,1.,0.));
#952 = DIRECTION('',(0.,-0.,1.));
#953 = ADVANCED_FACE('',(#954),#970,.F.);
#954 = FACE_BOUND('',#955,.F.);
#955 = EDGE_LOOP('',(#956,#957,#963,#964));
#956 = ORIENTED_EDGE('',*,*,#839,.F.);
#957 = ORIENTED_EDGE('',*,*,#958,.T.);
#958 = EDGE_CURVE('',#840,#904,#959,.T.);
#959 = LINE('',#960,#961);
#960 = CARTESIAN_POINT('',(117.65,1.2,43.107328482542));
#961 = VECTOR('',#962,1.);
#962 = DIRECTION('',(0.,1.,0.));
#963 = ORIENTED_EDGE('',*,*,#901,.F.);
#964 = ORIENTED_EDGE('',*,*,#965,.F.);
#965 = EDGE_CURVE('',#842,#902,#966,.T.);
#966 = LINE('',#967,#968);
#967 = CARTESIAN_POINT('',(114.,1.2,45.214656965084));
#968 = VECTOR('',#969,1.);
#969 = DIRECTION('',(0.,1.,0.));
#970 = PLANE('',#971);
#971 = AXIS2_PLACEMENT_3D('',#972,#973,#974);
#972 = CARTESIAN_POINT('',(117.65,1.2,43.107328482542));
#973 = DIRECTION('',(0.5,-0.,0.866025403784));
#974 = DIRECTION('',(-0.866025403784,0.,0.5));
#975 = ADVANCED_FACE('',(#976),#987,.F.);
#976 = FACE_BOUND('',#977,.F.);
#977 = EDGE_LOOP('',(#978,#979,#985,#986));
#978 = ORIENTED_EDGE('',*,*,#881,.F.);
#979 = ORIENTED_EDGE('',*,*,#980,.T.);
#980 = EDGE_CURVE('',#874,#936,#981,.T.);
#981 = LINE('',#982,#983);
#982 = CARTESIAN_POINT('',(117.65,1.2,38.892671517458));
#983 = VECTOR('',#984,1.);
#984 = DIRECTION('',(0.,1.,0.));
#985 = ORIENTED_EDGE('',*,*,#943,.F.);
#986 = ORIENTED_EDGE('',*,*,#958,.F.);
#987 = PLANE('',#988);
#988 = AXIS2_PLACEMENT_3D('',#989,#990,#991);
#989 = CARTESIAN_POINT('',(117.65,1.2,38.892671517458));
#990 = DIRECTION('',(1.,0.,-3.371770189823E-15));
#991 = DIRECTION('',(3.371770189823E-15,0.,1.));
#992 = ADVANCED_FACE('',(#993),#1004,.F.);
#993 = FACE_BOUND('',#994,.F.);
#994 = EDGE_LOOP('',(#995,#996,#997,#998));
#995 = ORIENTED_EDGE('',*,*,#849,.F.);
#996 = ORIENTED_EDGE('',*,*,#965,.T.);
#997 = ORIENTED_EDGE('',*,*,#911,.F.);
#998 = ORIENTED_EDGE('',*,*,#999,.F.);
#999 = EDGE_CURVE('',#850,#912,#1000,.T.);
#1000 = LINE('',#1001,#1002);
#1001 = CARTESIAN_POINT('',(110.35,1.2,43.107328482542));
#1002 = VECTOR('',#1003,1.);
#1003 = DIRECTION('',(0.,1.,0.));
#1004 = PLANE('',#1005);
#1005 = AXIS2_PLACEMENT_3D('',#1006,#1007,#1008);
#1006 = CARTESIAN_POINT('',(114.,1.2,45.214656965084));
#1007 = DIRECTION('',(-0.5,0.,0.866025403784));
#1008 = DIRECTION('',(-0.866025403784,0.,-0.5));
#1009 = ADVANCED_FACE('',(#1010),#1021,.F.);
#1010 = FACE_BOUND('',#1011,.F.);
#1011 = EDGE_LOOP('',(#1012,#1013,#1019,#1020));
#1012 = ORIENTED_EDGE('',*,*,#873,.F.);
#1013 = ORIENTED_EDGE('',*,*,#1014,.T.);
#1014 = EDGE_CURVE('',#866,#928,#1015,.T.);
#1015 = LINE('',#1016,#1017);
#1016 = CARTESIAN_POINT('',(114.,1.2,36.785343034916));
#1017 = VECTOR('',#1018,1.);
#1018 = DIRECTION('',(0.,1.,0.));
#1019 = ORIENTED_EDGE('',*,*,#935,.F.);
#1020 = ORIENTED_EDGE('',*,*,#980,.F.);
#1021 = PLANE('',#1022);
#1022 = AXIS2_PLACEMENT_3D('',#1023,#1024,#1025);
#1023 = CARTESIAN_POINT('',(114.,1.2,36.785343034916));
#1024 = DIRECTION('',(0.5,0.,-0.866025403784));
#1025 = DIRECTION('',(0.866025403784,0.,0.5));
#1026 = ADVANCED_FACE('',(#1027),#1038,.F.);
#1027 = FACE_BOUND('',#1028,.F.);
#1028 = EDGE_LOOP('',(#1029,#1030,#1031,#1032));
#1029 = ORIENTED_EDGE('',*,*,#857,.F.);
#1030 = ORIENTED_EDGE('',*,*,#999,.T.);
#1031 = ORIENTED_EDGE('',*,*,#919,.F.);
#1032 = ORIENTED_EDGE('',*,*,#1033,.F.);
#1033 = EDGE_CURVE('',#858,#920,#1034,.T.);
#1034 = LINE('',#1035,#1036);
#1035 = CARTESIAN_POINT('',(110.35,1.2,38.892671517458));
#1036 = VECTOR('',#1037,1.);
#1037 = DIRECTION('',(0.,1.,0.));
#1038 = PLANE('',#1039);
#1039 = AXIS2_PLACEMENT_3D('',#1040,#1041,#1042);
#1040 = CARTESIAN_POINT('',(110.35,1.2,43.107328482542));
#1041 = DIRECTION('',(-1.,0.,0.));
#1042 = DIRECTION('',(0.,0.,-1.));
#1043 = ADVANCED_FACE('',(#1044),#1050,.F.);
#1044 = FACE_BOUND('',#1045,.F.);
#1045 = EDGE_LOOP('',(#1046,#1047,#1048,#1049));
#1046 = ORIENTED_EDGE('',*,*,#865,.F.);
#1047 = ORIENTED_EDGE('',*,*,#1033,.T.);
#1048 = ORIENTED_EDGE('',*,*,#927,.F.);
#1049 = ORIENTED_EDGE('',*,*,#1014,.F.);
#1050 = PLANE('',#1051);
#1051 = AXIS2_PLACEMENT_3D('',#1052,#1053,#1054);
#1052 = CARTESIAN_POINT('',(110.35,1.2,38.892671517458));
#1053 = DIRECTION('',(-0.5,0.,-0.866025403784));
#1054 = DIRECTION('',(0.866025403784,0.,-0.5));
#1055 = ( GEOMETRIC_REPRESENTATION_CONTEXT(3) 
GLOBAL_UNCERTAINTY_ASSIGNED_CONTEXT((#1059)) 
GLOBAL_UNIT_ASSIGNED_CONTEXT((#1056,#1057,#1058)) REPRESENTATION_CONTEXT
('Context #1','3D Context with UNIT and UNCERTAINTY') );
#1056 = ( LENGTH_UNIT() NAMED_UNIT(*) SI_UNIT(.MILLI.,.METRE.) );
#1057 = ( NAMED_UNIT(*) PLANE_ANGLE_UNIT() SI_UNIT($,.RADIAN.) );
#1058 = ( NAMED_UNIT(*) SI_UNIT($,.STERADIAN.) SOLID_ANGLE_UNIT() );
#1059 = UNCERTAINTY_MEASURE_WITH_UNIT(LENGTH_MEASURE(1.E-07),#1056,
  'distance_accuracy_value','confusion accuracy');
#1060 = PRODUCT_RELATED_PRODUCT_CATEGORY('part',$,(#7));
ENDSEC;
END-ISO-10303-21;
