ISO-10303-21;
HEADER;
FILE_DESCRIPTION(('FreeCAD Model'),'2;1');
FILE_NAME('Open CASCADE Shape Model','2026-09-26T02:20:31',('FreeCAD'),(
    'FreeCAD'),'Open CASCADE STEP processor 7.8','FreeCAD','Unknown');
FILE_SCHEMA(('AUTOMOTIVE_DESIGN { 1 0 10303 214 1 1 1 1 }'));
ENDSEC;
DATA;
#1 = APPLICATION_PROTOCOL_DEFINITION('international standard',
  'automotive_design',2000,#2);
#2 = APPLICATION_CONTEXT(
  'core data for automotive mechanical design processes');
#3 = SHAPE_DEFINITION_REPRESENTATION(#4,#10);
#4 = PRODUCT_DEFINITION_SHAPE('','',#5);
#5 = PRODUCT_DEFINITION('design','',#6,#9);
#6 = PRODUCT_DEFINITION_FORMATION('','',#7);
#7 = PRODUCT('Open CASCADE STEP translator 7.8 25',
  'Open CASCADE STEP translator 7.8 25','',(#8));
#8 = PRODUCT_CONTEXT('',#2,'mechanical');
#9 = PRODUCT_DEFINITION_CONTEXT('part definition',#2,'design');
#10 = ADVANCED_BREP_SHAPE_REPRESENTATION('',(#11,#15),#853);
#11 = AXIS2_PLACEMENT_3D('',#12,#13,#14);
#12 = CARTESIAN_POINT('',(0.,0.,0.));
#13 = DIRECTION('',(0.,0.,1.));
#14 = DIRECTION('',(1.,0.,-0.));
#15 = MANIFOLD_SOLID_BREP('',#16);
#16 = CLOSED_SHELL('',(#17,#121,#186,#320,#337,#355,#366,#383,#401,#412,
    #470,#487,#545,#576,#600,#624,#641,#658,#676,#687,#704,#722,#733,
    #764,#788,#812,#829,#841));
#17 = ADVANCED_FACE('',(#18),#116,.F.);
#18 = FACE_BOUND('',#19,.T.);
#19 = EDGE_LOOP('',(#20,#30,#38,#46,#54,#62,#70,#78,#86,#94,#102,#110));
#20 = ORIENTED_EDGE('',*,*,#21,.T.);
#21 = EDGE_CURVE('',#22,#24,#26,.T.);
#22 = VERTEX_POINT('',#23);
#23 = CARTESIAN_POINT('',(11.142713291639,3.,26.95));
#24 = VERTEX_POINT('',#25);
#25 = CARTESIAN_POINT('',(11.142713291639,3.,29.95));
#26 = LINE('',#27,#28);
#27 = CARTESIAN_POINT('',(11.142713291639,3.,26.95));
#28 = VECTOR('',#29,1.);
#29 = DIRECTION('',(-0.,-0.,1.));
#30 = ORIENTED_EDGE('',*,*,#31,.F.);
#31 = EDGE_CURVE('',#32,#24,#34,.T.);
#32 = VERTEX_POINT('',#33);
#33 = CARTESIAN_POINT('',(11.142713291639,58.,29.95));
#34 = LINE('',#35,#36);
#35 = CARTESIAN_POINT('',(11.142713291639,58.,29.95));
#36 = VECTOR('',#37,1.);
#37 = DIRECTION('',(-0.,-1.,-0.));
#38 = ORIENTED_EDGE('',*,*,#39,.F.);
#39 = EDGE_CURVE('',#40,#32,#42,.T.);
#40 = VERTEX_POINT('',#41);
#41 = CARTESIAN_POINT('',(11.142713291639,58.,26.95));
#42 = LINE('',#43,#44);
#43 = CARTESIAN_POINT('',(11.142713291639,58.,26.95));
#44 = VECTOR('',#45,1.);
#45 = DIRECTION('',(-0.,-0.,1.));
#46 = ORIENTED_EDGE('',*,*,#47,.T.);
#47 = EDGE_CURVE('',#40,#48,#50,.T.);
#48 = VERTEX_POINT('',#49);
#49 = CARTESIAN_POINT('',(11.142713291639,57.2,26.95));
#50 = LINE('',#51,#52);
#51 = CARTESIAN_POINT('',(11.142713291639,58.,26.95));
#52 = VECTOR('',#53,1.);
#53 = DIRECTION('',(-0.,-1.,-0.));
#54 = ORIENTED_EDGE('',*,*,#55,.T.);
#55 = EDGE_CURVE('',#48,#56,#58,.T.);
#56 = VERTEX_POINT('',#57);
#57 = CARTESIAN_POINT('',(11.142713291639,57.2,29.74894725176));
#58 = LINE('',#59,#60);
#59 = CARTESIAN_POINT('',(11.142713291639,57.2,25.975));
#60 = VECTOR('',#61,1.);
#61 = DIRECTION('',(-0.,-0.,1.));
#62 = ORIENTED_EDGE('',*,*,#63,.T.);
#63 = EDGE_CURVE('',#56,#64,#66,.T.);
#64 = VERTEX_POINT('',#65);
#65 = CARTESIAN_POINT('',(11.142713291639,55.3,29.74894725176));
#66 = LINE('',#67,#68);
#67 = CARTESIAN_POINT('',(11.142713291639,57.2,29.74894725176));
#68 = VECTOR('',#69,1.);
#69 = DIRECTION('',(-0.,-1.,-0.));
#70 = ORIENTED_EDGE('',*,*,#71,.F.);
#71 = EDGE_CURVE('',#72,#64,#74,.T.);
#72 = VERTEX_POINT('',#73);
#73 = CARTESIAN_POINT('',(11.142713291639,55.3,26.95));
#74 = LINE('',#75,#76);
#75 = CARTESIAN_POINT('',(11.142713291639,55.3,25.975));
#76 = VECTOR('',#77,1.);
#77 = DIRECTION('',(-0.,-0.,1.));
#78 = ORIENTED_EDGE('',*,*,#79,.T.);
#79 = EDGE_CURVE('',#72,#80,#82,.T.);
#80 = VERTEX_POINT('',#81);
#81 = CARTESIAN_POINT('',(11.142713291639,5.7,26.95));
#82 = LINE('',#83,#84);
#83 = CARTESIAN_POINT('',(11.142713291639,58.,26.95));
#84 = VECTOR('',#85,1.);
#85 = DIRECTION('',(-0.,-1.,-0.));
#86 = ORIENTED_EDGE('',*,*,#87,.T.);
#87 = EDGE_CURVE('',#80,#88,#90,.T.);
#88 = VERTEX_POINT('',#89);
#89 = CARTESIAN_POINT('',(11.142713291639,5.7,29.74894725176));
#90 = LINE('',#91,#92);
#91 = CARTESIAN_POINT('',(11.142713291639,5.7,25.975));
#92 = VECTOR('',#93,1.);
#93 = DIRECTION('',(-0.,-0.,1.));
#94 = ORIENTED_EDGE('',*,*,#95,.T.);
#95 = EDGE_CURVE('',#88,#96,#98,.T.);
#96 = VERTEX_POINT('',#97);
#97 = CARTESIAN_POINT('',(11.142713291639,3.8,29.74894725176));
#98 = LINE('',#99,#100);
#99 = CARTESIAN_POINT('',(11.142713291639,5.7,29.74894725176));
#100 = VECTOR('',#101,1.);
#101 = DIRECTION('',(-0.,-1.,-0.));
#102 = ORIENTED_EDGE('',*,*,#103,.F.);
#103 = EDGE_CURVE('',#104,#96,#106,.T.);
#104 = VERTEX_POINT('',#105);
#105 = CARTESIAN_POINT('',(11.142713291639,3.8,26.95));
#106 = LINE('',#107,#108);
#107 = CARTESIAN_POINT('',(11.142713291639,3.8,25.975));
#108 = VECTOR('',#109,1.);
#109 = DIRECTION('',(-0.,-0.,1.));
#110 = ORIENTED_EDGE('',*,*,#111,.T.);
#111 = EDGE_CURVE('',#104,#22,#112,.T.);
#112 = LINE('',#113,#114);
#113 = CARTESIAN_POINT('',(11.142713291639,58.,26.95));
#114 = VECTOR('',#115,1.);
#115 = DIRECTION('',(-0.,-1.,-0.));
#116 = PLANE('',#117);
#117 = AXIS2_PLACEMENT_3D('',#118,#119,#120);
#118 = CARTESIAN_POINT('',(11.142713291639,58.,26.95));
#119 = DIRECTION('',(1.,-0.,-0.));
#120 = DIRECTION('',(0.,0.,-1.));
#121 = ADVANCED_FACE('',(#122,#147),#181,.T.);
#122 = FACE_BOUND('',#123,.F.);
#123 = EDGE_LOOP('',(#124,#132,#133,#141));
#124 = ORIENTED_EDGE('',*,*,#125,.F.);
#125 = EDGE_CURVE('',#22,#126,#128,.T.);
#126 = VERTEX_POINT('',#127);
#127 = CARTESIAN_POINT('',(108.85728670836,3.,26.95));
#128 = LINE('',#129,#130);
#129 = CARTESIAN_POINT('',(11.142713291639,3.,26.95));
#130 = VECTOR('',#131,1.);
#131 = DIRECTION('',(1.,-0.,-0.));
#132 = ORIENTED_EDGE('',*,*,#21,.T.);
#133 = ORIENTED_EDGE('',*,*,#134,.T.);
#134 = EDGE_CURVE('',#24,#135,#137,.T.);
#135 = VERTEX_POINT('',#136);
#136 = CARTESIAN_POINT('',(108.85728670836,3.,29.95));
#137 = LINE('',#138,#139);
#138 = CARTESIAN_POINT('',(11.142713291639,3.,29.95));
#139 = VECTOR('',#140,1.);
#140 = DIRECTION('',(1.,-0.,-0.));
#141 = ORIENTED_EDGE('',*,*,#142,.F.);
#142 = EDGE_CURVE('',#126,#135,#143,.T.);
#143 = LINE('',#144,#145);
#144 = CARTESIAN_POINT('',(108.85728670836,3.,26.95));
#145 = VECTOR('',#146,1.);
#146 = DIRECTION('',(-0.,-0.,1.));
#147 = FACE_BOUND('',#148,.F.);
#148 = EDGE_LOOP('',(#149,#159,#167,#175));
#149 = ORIENTED_EDGE('',*,*,#150,.F.);
#150 = EDGE_CURVE('',#151,#153,#155,.T.);
#151 = VERTEX_POINT('',#152);
#152 = CARTESIAN_POINT('',(15.142713291639,3.,27.75));
#153 = VERTEX_POINT('',#154);
#154 = CARTESIAN_POINT('',(15.142713291639,3.,29.15));
#155 = LINE('',#156,#157);
#156 = CARTESIAN_POINT('',(15.142713291639,3.,27.75));
#157 = VECTOR('',#158,1.);
#158 = DIRECTION('',(-0.,-0.,1.));
#159 = ORIENTED_EDGE('',*,*,#160,.T.);
#160 = EDGE_CURVE('',#151,#161,#163,.T.);
#161 = VERTEX_POINT('',#162);
#162 = CARTESIAN_POINT('',(104.85728670836,3.,27.75));
#163 = LINE('',#164,#165);
#164 = CARTESIAN_POINT('',(15.142713291639,3.,27.75));
#165 = VECTOR('',#166,1.);
#166 = DIRECTION('',(1.,-0.,-0.));
#167 = ORIENTED_EDGE('',*,*,#168,.T.);
#168 = EDGE_CURVE('',#161,#169,#171,.T.);
#169 = VERTEX_POINT('',#170);
#170 = CARTESIAN_POINT('',(104.85728670836,3.,29.15));
#171 = LINE('',#172,#173);
#172 = CARTESIAN_POINT('',(104.85728670836,3.,27.75));
#173 = VECTOR('',#174,1.);
#174 = DIRECTION('',(-0.,-0.,1.));
#175 = ORIENTED_EDGE('',*,*,#176,.F.);
#176 = EDGE_CURVE('',#153,#169,#177,.T.);
#177 = LINE('',#178,#179);
#178 = CARTESIAN_POINT('',(15.142713291639,3.,29.15));
#179 = VECTOR('',#180,1.);
#180 = DIRECTION('',(1.,-0.,-0.));
#181 = PLANE('',#182);
#182 = AXIS2_PLACEMENT_3D('',#183,#184,#185);
#183 = CARTESIAN_POINT('',(11.142713291639,3.,26.95));
#184 = DIRECTION('',(-0.,-1.,-0.));
#185 = DIRECTION('',(0.,0.,-1.));
#186 = ADVANCED_FACE('',(#187),#315,.F.);
#187 = FACE_BOUND('',#188,.T.);
#188 = EDGE_LOOP('',(#189,#190,#198,#206,#214,#222,#230,#238,#246,#254,
    #262,#268,#269,#270,#278,#286,#292,#293,#301,#309));
#189 = ORIENTED_EDGE('',*,*,#47,.F.);
#190 = ORIENTED_EDGE('',*,*,#191,.T.);
#191 = EDGE_CURVE('',#40,#192,#194,.T.);
#192 = VERTEX_POINT('',#193);
#193 = CARTESIAN_POINT('',(108.85728670836,58.,26.95));
#194 = LINE('',#195,#196);
#195 = CARTESIAN_POINT('',(11.142713291639,58.,26.95));
#196 = VECTOR('',#197,1.);
#197 = DIRECTION('',(1.,-0.,-0.));
#198 = ORIENTED_EDGE('',*,*,#199,.T.);
#199 = EDGE_CURVE('',#192,#200,#202,.T.);
#200 = VERTEX_POINT('',#201);
#201 = CARTESIAN_POINT('',(108.85728670836,57.2,26.95));
#202 = LINE('',#203,#204);
#203 = CARTESIAN_POINT('',(108.85728670836,58.,26.95));
#204 = VECTOR('',#205,1.);
#205 = DIRECTION('',(-0.,-1.,-0.));
#206 = ORIENTED_EDGE('',*,*,#207,.T.);
#207 = EDGE_CURVE('',#200,#208,#210,.T.);
#208 = VERTEX_POINT('',#209);
#209 = CARTESIAN_POINT('',(107.27709140326,57.2,26.95));
#210 = LINE('',#211,#212);
#211 = CARTESIAN_POINT('',(62.571356645819,57.2,26.95));
#212 = VECTOR('',#213,1.);
#213 = DIRECTION('',(-1.,-0.,-0.));
#214 = ORIENTED_EDGE('',*,*,#215,.T.);
#215 = EDGE_CURVE('',#208,#216,#218,.T.);
#216 = VERTEX_POINT('',#217);
#217 = CARTESIAN_POINT('',(107.27709140326,55.3,26.95));
#218 = LINE('',#219,#220);
#219 = CARTESIAN_POINT('',(107.27709140326,57.2,26.95));
#220 = VECTOR('',#221,1.);
#221 = DIRECTION('',(-0.,-1.,-0.));
#222 = ORIENTED_EDGE('',*,*,#223,.F.);
#223 = EDGE_CURVE('',#224,#216,#226,.T.);
#224 = VERTEX_POINT('',#225);
#225 = CARTESIAN_POINT('',(108.85728670836,55.3,26.95));
#226 = LINE('',#227,#228);
#227 = CARTESIAN_POINT('',(62.571356645819,55.3,26.95));
#228 = VECTOR('',#229,1.);
#229 = DIRECTION('',(-1.,-0.,-0.));
#230 = ORIENTED_EDGE('',*,*,#231,.T.);
#231 = EDGE_CURVE('',#224,#232,#234,.T.);
#232 = VERTEX_POINT('',#233);
#233 = CARTESIAN_POINT('',(108.85728670836,5.7,26.95));
#234 = LINE('',#235,#236);
#235 = CARTESIAN_POINT('',(108.85728670836,58.,26.95));
#236 = VECTOR('',#237,1.);
#237 = DIRECTION('',(-0.,-1.,-0.));
#238 = ORIENTED_EDGE('',*,*,#239,.T.);
#239 = EDGE_CURVE('',#232,#240,#242,.T.);
#240 = VERTEX_POINT('',#241);
#241 = CARTESIAN_POINT('',(107.27709140326,5.7,26.95));
#242 = LINE('',#243,#244);
#243 = CARTESIAN_POINT('',(62.571356645819,5.7,26.95));
#244 = VECTOR('',#245,1.);
#245 = DIRECTION('',(-1.,-0.,-0.));
#246 = ORIENTED_EDGE('',*,*,#247,.T.);
#247 = EDGE_CURVE('',#240,#248,#250,.T.);
#248 = VERTEX_POINT('',#249);
#249 = CARTESIAN_POINT('',(107.27709140326,3.8,26.95));
#250 = LINE('',#251,#252);
#251 = CARTESIAN_POINT('',(107.27709140326,5.7,26.95));
#252 = VECTOR('',#253,1.);
#253 = DIRECTION('',(-0.,-1.,-0.));
#254 = ORIENTED_EDGE('',*,*,#255,.F.);
#255 = EDGE_CURVE('',#256,#248,#258,.T.);
#256 = VERTEX_POINT('',#257);
#257 = CARTESIAN_POINT('',(108.85728670836,3.8,26.95));
#258 = LINE('',#259,#260);
#259 = CARTESIAN_POINT('',(62.571356645819,3.8,26.95));
#260 = VECTOR('',#261,1.);
#261 = DIRECTION('',(-1.,-0.,-0.));
#262 = ORIENTED_EDGE('',*,*,#263,.T.);
#263 = EDGE_CURVE('',#256,#126,#264,.T.);
#264 = LINE('',#265,#266);
#265 = CARTESIAN_POINT('',(108.85728670836,58.,26.95));
#266 = VECTOR('',#267,1.);
#267 = DIRECTION('',(-0.,-1.,-0.));
#268 = ORIENTED_EDGE('',*,*,#125,.F.);
#269 = ORIENTED_EDGE('',*,*,#111,.F.);
#270 = ORIENTED_EDGE('',*,*,#271,.F.);
#271 = EDGE_CURVE('',#272,#104,#274,.T.);
#272 = VERTEX_POINT('',#273);
#273 = CARTESIAN_POINT('',(12.722908596731,3.8,26.95));
#274 = LINE('',#275,#276);
#275 = CARTESIAN_POINT('',(8.571356645819,3.8,26.95));
#276 = VECTOR('',#277,1.);
#277 = DIRECTION('',(-1.,-0.,-0.));
#278 = ORIENTED_EDGE('',*,*,#279,.F.);
#279 = EDGE_CURVE('',#280,#272,#282,.T.);
#280 = VERTEX_POINT('',#281);
#281 = CARTESIAN_POINT('',(12.722908596731,5.7,26.95));
#282 = LINE('',#283,#284);
#283 = CARTESIAN_POINT('',(12.722908596731,5.7,26.95));
#284 = VECTOR('',#285,1.);
#285 = DIRECTION('',(-0.,-1.,-0.));
#286 = ORIENTED_EDGE('',*,*,#287,.T.);
#287 = EDGE_CURVE('',#280,#80,#288,.T.);
#288 = LINE('',#289,#290);
#289 = CARTESIAN_POINT('',(8.571356645819,5.7,26.95));
#290 = VECTOR('',#291,1.);
#291 = DIRECTION('',(-1.,-0.,-0.));
#292 = ORIENTED_EDGE('',*,*,#79,.F.);
#293 = ORIENTED_EDGE('',*,*,#294,.F.);
#294 = EDGE_CURVE('',#295,#72,#297,.T.);
#295 = VERTEX_POINT('',#296);
#296 = CARTESIAN_POINT('',(12.722908596731,55.3,26.95));
#297 = LINE('',#298,#299);
#298 = CARTESIAN_POINT('',(8.571356645819,55.3,26.95));
#299 = VECTOR('',#300,1.);
#300 = DIRECTION('',(-1.,-0.,-0.));
#301 = ORIENTED_EDGE('',*,*,#302,.F.);
#302 = EDGE_CURVE('',#303,#295,#305,.T.);
#303 = VERTEX_POINT('',#304);
#304 = CARTESIAN_POINT('',(12.722908596731,57.2,26.95));
#305 = LINE('',#306,#307);
#306 = CARTESIAN_POINT('',(12.722908596731,57.2,26.95));
#307 = VECTOR('',#308,1.);
#308 = DIRECTION('',(-0.,-1.,-0.));
#309 = ORIENTED_EDGE('',*,*,#310,.T.);
#310 = EDGE_CURVE('',#303,#48,#311,.T.);
#311 = LINE('',#312,#313);
#312 = CARTESIAN_POINT('',(8.571356645819,57.2,26.95));
#313 = VECTOR('',#314,1.);
#314 = DIRECTION('',(-1.,-0.,-0.));
#315 = PLANE('',#316);
#316 = AXIS2_PLACEMENT_3D('',#317,#318,#319);
#317 = CARTESIAN_POINT('',(11.142713291639,58.,26.95));
#318 = DIRECTION('',(-0.,-0.,1.));
#319 = DIRECTION('',(-1.,0.,0.));
#320 = ADVANCED_FACE('',(#321),#332,.F.);
#321 = FACE_BOUND('',#322,.T.);
#322 = EDGE_LOOP('',(#323,#324,#331));
#323 = ORIENTED_EDGE('',*,*,#103,.T.);
#324 = ORIENTED_EDGE('',*,*,#325,.T.);
#325 = EDGE_CURVE('',#96,#272,#326,.T.);
#326 = CIRCLE('',#327,7.);
#327 = AXIS2_PLACEMENT_3D('',#328,#329,#330);
#328 = CARTESIAN_POINT('',(6.,3.8,25.));
#329 = DIRECTION('',(0.,1.,0.));
#330 = DIRECTION('',(-0.,-0.,1.));
#331 = ORIENTED_EDGE('',*,*,#271,.T.);
#332 = PLANE('',#333);
#333 = AXIS2_PLACEMENT_3D('',#334,#335,#336);
#334 = CARTESIAN_POINT('',(6.,3.8,25.));
#335 = DIRECTION('',(-0.,-1.,-0.));
#336 = DIRECTION('',(0.,0.,-1.));
#337 = ADVANCED_FACE('',(#338),#350,.F.);
#338 = FACE_BOUND('',#339,.T.);
#339 = EDGE_LOOP('',(#340,#341,#342,#349));
#340 = ORIENTED_EDGE('',*,*,#325,.F.);
#341 = ORIENTED_EDGE('',*,*,#95,.F.);
#342 = ORIENTED_EDGE('',*,*,#343,.T.);
#343 = EDGE_CURVE('',#88,#280,#344,.T.);
#344 = CIRCLE('',#345,7.);
#345 = AXIS2_PLACEMENT_3D('',#346,#347,#348);
#346 = CARTESIAN_POINT('',(6.,5.7,25.));
#347 = DIRECTION('',(0.,1.,0.));
#348 = DIRECTION('',(-0.,-0.,1.));
#349 = ORIENTED_EDGE('',*,*,#279,.T.);
#350 = CYLINDRICAL_SURFACE('',#351,7.);
#351 = AXIS2_PLACEMENT_3D('',#352,#353,#354);
#352 = CARTESIAN_POINT('',(6.,5.7,25.));
#353 = DIRECTION('',(-0.,-1.,-0.));
#354 = DIRECTION('',(-0.,-0.,1.));
#355 = ADVANCED_FACE('',(#356),#361,.T.);
#356 = FACE_BOUND('',#357,.F.);
#357 = EDGE_LOOP('',(#358,#359,#360));
#358 = ORIENTED_EDGE('',*,*,#87,.T.);
#359 = ORIENTED_EDGE('',*,*,#343,.T.);
#360 = ORIENTED_EDGE('',*,*,#287,.T.);
#361 = PLANE('',#362);
#362 = AXIS2_PLACEMENT_3D('',#363,#364,#365);
#363 = CARTESIAN_POINT('',(6.,5.7,25.));
#364 = DIRECTION('',(-0.,-1.,-0.));
#365 = DIRECTION('',(0.,0.,-1.));
#366 = ADVANCED_FACE('',(#367),#378,.F.);
#367 = FACE_BOUND('',#368,.T.);
#368 = EDGE_LOOP('',(#369,#370,#377));
#369 = ORIENTED_EDGE('',*,*,#71,.T.);
#370 = ORIENTED_EDGE('',*,*,#371,.T.);
#371 = EDGE_CURVE('',#64,#295,#372,.T.);
#372 = CIRCLE('',#373,7.);
#373 = AXIS2_PLACEMENT_3D('',#374,#375,#376);
#374 = CARTESIAN_POINT('',(6.,55.3,25.));
#375 = DIRECTION('',(0.,1.,0.));
#376 = DIRECTION('',(-0.,-0.,1.));
#377 = ORIENTED_EDGE('',*,*,#294,.T.);
#378 = PLANE('',#379);
#379 = AXIS2_PLACEMENT_3D('',#380,#381,#382);
#380 = CARTESIAN_POINT('',(6.,55.3,25.));
#381 = DIRECTION('',(-0.,-1.,-0.));
#382 = DIRECTION('',(0.,0.,-1.));
#383 = ADVANCED_FACE('',(#384),#396,.F.);
#384 = FACE_BOUND('',#385,.T.);
#385 = EDGE_LOOP('',(#386,#387,#388,#395));
#386 = ORIENTED_EDGE('',*,*,#371,.F.);
#387 = ORIENTED_EDGE('',*,*,#63,.F.);
#388 = ORIENTED_EDGE('',*,*,#389,.T.);
#389 = EDGE_CURVE('',#56,#303,#390,.T.);
#390 = CIRCLE('',#391,7.);
#391 = AXIS2_PLACEMENT_3D('',#392,#393,#394);
#392 = CARTESIAN_POINT('',(6.,57.2,25.));
#393 = DIRECTION('',(0.,1.,0.));
#394 = DIRECTION('',(-0.,-0.,1.));
#395 = ORIENTED_EDGE('',*,*,#302,.T.);
#396 = CYLINDRICAL_SURFACE('',#397,7.);
#397 = AXIS2_PLACEMENT_3D('',#398,#399,#400);
#398 = CARTESIAN_POINT('',(6.,57.2,25.));
#399 = DIRECTION('',(-0.,-1.,-0.));
#400 = DIRECTION('',(-0.,-0.,1.));
#401 = ADVANCED_FACE('',(#402),#407,.T.);
#402 = FACE_BOUND('',#403,.F.);
#403 = EDGE_LOOP('',(#404,#405,#406));
#404 = ORIENTED_EDGE('',*,*,#55,.T.);
#405 = ORIENTED_EDGE('',*,*,#389,.T.);
#406 = ORIENTED_EDGE('',*,*,#310,.T.);
#407 = PLANE('',#408);
#408 = AXIS2_PLACEMENT_3D('',#409,#410,#411);
#409 = CARTESIAN_POINT('',(6.,57.2,25.));
#410 = DIRECTION('',(-0.,-1.,-0.));
#411 = DIRECTION('',(0.,0.,-1.));
#412 = ADVANCED_FACE('',(#413,#431),#465,.F.);
#413 = FACE_BOUND('',#414,.T.);
#414 = EDGE_LOOP('',(#415,#416,#417,#425));
#415 = ORIENTED_EDGE('',*,*,#191,.F.);
#416 = ORIENTED_EDGE('',*,*,#39,.T.);
#417 = ORIENTED_EDGE('',*,*,#418,.T.);
#418 = EDGE_CURVE('',#32,#419,#421,.T.);
#419 = VERTEX_POINT('',#420);
#420 = CARTESIAN_POINT('',(108.85728670836,58.,29.95));
#421 = LINE('',#422,#423);
#422 = CARTESIAN_POINT('',(11.142713291639,58.,29.95));
#423 = VECTOR('',#424,1.);
#424 = DIRECTION('',(1.,-0.,-0.));
#425 = ORIENTED_EDGE('',*,*,#426,.F.);
#426 = EDGE_CURVE('',#192,#419,#427,.T.);
#427 = LINE('',#428,#429);
#428 = CARTESIAN_POINT('',(108.85728670836,58.,26.95));
#429 = VECTOR('',#430,1.);
#430 = DIRECTION('',(-0.,-0.,1.));
#431 = FACE_BOUND('',#432,.T.);
#432 = EDGE_LOOP('',(#433,#443,#451,#459));
#433 = ORIENTED_EDGE('',*,*,#434,.F.);
#434 = EDGE_CURVE('',#435,#437,#439,.T.);
#435 = VERTEX_POINT('',#436);
#436 = CARTESIAN_POINT('',(15.142713291639,58.,27.75));
#437 = VERTEX_POINT('',#438);
#438 = CARTESIAN_POINT('',(15.142713291639,58.,29.15));
#439 = LINE('',#440,#441);
#440 = CARTESIAN_POINT('',(15.142713291639,58.,27.75));
#441 = VECTOR('',#442,1.);
#442 = DIRECTION('',(-0.,-0.,1.));
#443 = ORIENTED_EDGE('',*,*,#444,.T.);
#444 = EDGE_CURVE('',#435,#445,#447,.T.);
#445 = VERTEX_POINT('',#446);
#446 = CARTESIAN_POINT('',(104.85728670836,58.,27.75));
#447 = LINE('',#448,#449);
#448 = CARTESIAN_POINT('',(15.142713291639,58.,27.75));
#449 = VECTOR('',#450,1.);
#450 = DIRECTION('',(1.,-0.,-0.));
#451 = ORIENTED_EDGE('',*,*,#452,.T.);
#452 = EDGE_CURVE('',#445,#453,#455,.T.);
#453 = VERTEX_POINT('',#454);
#454 = CARTESIAN_POINT('',(104.85728670836,58.,29.15));
#455 = LINE('',#456,#457);
#456 = CARTESIAN_POINT('',(104.85728670836,58.,27.75));
#457 = VECTOR('',#458,1.);
#458 = DIRECTION('',(-0.,-0.,1.));
#459 = ORIENTED_EDGE('',*,*,#460,.F.);
#460 = EDGE_CURVE('',#437,#453,#461,.T.);
#461 = LINE('',#462,#463);
#462 = CARTESIAN_POINT('',(15.142713291639,58.,29.15));
#463 = VECTOR('',#464,1.);
#464 = DIRECTION('',(1.,-0.,-0.));
#465 = PLANE('',#466);
#466 = AXIS2_PLACEMENT_3D('',#467,#468,#469);
#467 = CARTESIAN_POINT('',(11.142713291639,58.,26.95));
#468 = DIRECTION('',(-0.,-1.,-0.));
#469 = DIRECTION('',(0.,0.,-1.));
#470 = ADVANCED_FACE('',(#471),#482,.T.);
#471 = FACE_BOUND('',#472,.F.);
#472 = EDGE_LOOP('',(#473,#474,#475,#481));
#473 = ORIENTED_EDGE('',*,*,#31,.F.);
#474 = ORIENTED_EDGE('',*,*,#418,.T.);
#475 = ORIENTED_EDGE('',*,*,#476,.T.);
#476 = EDGE_CURVE('',#419,#135,#477,.T.);
#477 = LINE('',#478,#479);
#478 = CARTESIAN_POINT('',(108.85728670836,58.,29.95));
#479 = VECTOR('',#480,1.);
#480 = DIRECTION('',(-0.,-1.,-0.));
#481 = ORIENTED_EDGE('',*,*,#134,.F.);
#482 = PLANE('',#483);
#483 = AXIS2_PLACEMENT_3D('',#484,#485,#486);
#484 = CARTESIAN_POINT('',(11.142713291639,58.,29.95));
#485 = DIRECTION('',(-0.,-0.,1.));
#486 = DIRECTION('',(-1.,0.,0.));
#487 = ADVANCED_FACE('',(#488),#540,.T.);
#488 = FACE_BOUND('',#489,.F.);
#489 = EDGE_LOOP('',(#490,#491,#492,#493,#494,#502,#510,#516,#517,#525,
    #533,#539));
#490 = ORIENTED_EDGE('',*,*,#142,.T.);
#491 = ORIENTED_EDGE('',*,*,#476,.F.);
#492 = ORIENTED_EDGE('',*,*,#426,.F.);
#493 = ORIENTED_EDGE('',*,*,#199,.T.);
#494 = ORIENTED_EDGE('',*,*,#495,.T.);
#495 = EDGE_CURVE('',#200,#496,#498,.T.);
#496 = VERTEX_POINT('',#497);
#497 = CARTESIAN_POINT('',(108.85728670836,57.2,29.74894725176));
#498 = LINE('',#499,#500);
#499 = CARTESIAN_POINT('',(108.85728670836,57.2,25.975));
#500 = VECTOR('',#501,1.);
#501 = DIRECTION('',(-0.,-0.,1.));
#502 = ORIENTED_EDGE('',*,*,#503,.T.);
#503 = EDGE_CURVE('',#496,#504,#506,.T.);
#504 = VERTEX_POINT('',#505);
#505 = CARTESIAN_POINT('',(108.85728670836,55.3,29.74894725176));
#506 = LINE('',#507,#508);
#507 = CARTESIAN_POINT('',(108.85728670836,57.2,29.74894725176));
#508 = VECTOR('',#509,1.);
#509 = DIRECTION('',(-0.,-1.,-0.));
#510 = ORIENTED_EDGE('',*,*,#511,.F.);
#511 = EDGE_CURVE('',#224,#504,#512,.T.);
#512 = LINE('',#513,#514);
#513 = CARTESIAN_POINT('',(108.85728670836,55.3,25.975));
#514 = VECTOR('',#515,1.);
#515 = DIRECTION('',(-0.,-0.,1.));
#516 = ORIENTED_EDGE('',*,*,#231,.T.);
#517 = ORIENTED_EDGE('',*,*,#518,.T.);
#518 = EDGE_CURVE('',#232,#519,#521,.T.);
#519 = VERTEX_POINT('',#520);
#520 = CARTESIAN_POINT('',(108.85728670836,5.7,29.74894725176));
#521 = LINE('',#522,#523);
#522 = CARTESIAN_POINT('',(108.85728670836,5.7,25.975));
#523 = VECTOR('',#524,1.);
#524 = DIRECTION('',(-0.,-0.,1.));
#525 = ORIENTED_EDGE('',*,*,#526,.T.);
#526 = EDGE_CURVE('',#519,#527,#529,.T.);
#527 = VERTEX_POINT('',#528);
#528 = CARTESIAN_POINT('',(108.85728670836,3.8,29.74894725176));
#529 = LINE('',#530,#531);
#530 = CARTESIAN_POINT('',(108.85728670836,5.7,29.74894725176));
#531 = VECTOR('',#532,1.);
#532 = DIRECTION('',(-0.,-1.,-0.));
#533 = ORIENTED_EDGE('',*,*,#534,.F.);
#534 = EDGE_CURVE('',#256,#527,#535,.T.);
#535 = LINE('',#536,#537);
#536 = CARTESIAN_POINT('',(108.85728670836,3.8,25.975));
#537 = VECTOR('',#538,1.);
#538 = DIRECTION('',(-0.,-0.,1.));
#539 = ORIENTED_EDGE('',*,*,#263,.T.);
#540 = PLANE('',#541);
#541 = AXIS2_PLACEMENT_3D('',#542,#543,#544);
#542 = CARTESIAN_POINT('',(108.85728670836,58.,26.95));
#543 = DIRECTION('',(1.,-0.,-0.));
#544 = DIRECTION('',(0.,0.,-1.));
#545 = ADVANCED_FACE('',(#546),#571,.F.);
#546 = FACE_BOUND('',#547,.T.);
#547 = EDGE_LOOP('',(#548,#549,#557,#565));
#548 = ORIENTED_EDGE('',*,*,#150,.F.);
#549 = ORIENTED_EDGE('',*,*,#550,.T.);
#550 = EDGE_CURVE('',#151,#551,#553,.T.);
#551 = VERTEX_POINT('',#552);
#552 = CARTESIAN_POINT('',(15.142713291639,1.95,27.75));
#553 = LINE('',#554,#555);
#554 = CARTESIAN_POINT('',(15.142713291639,3.,27.75));
#555 = VECTOR('',#556,1.);
#556 = DIRECTION('',(-0.,-1.,-0.));
#557 = ORIENTED_EDGE('',*,*,#558,.T.);
#558 = EDGE_CURVE('',#551,#559,#561,.T.);
#559 = VERTEX_POINT('',#560);
#560 = CARTESIAN_POINT('',(15.142713291639,1.95,29.15));
#561 = LINE('',#562,#563);
#562 = CARTESIAN_POINT('',(15.142713291639,1.95,27.75));
#563 = VECTOR('',#564,1.);
#564 = DIRECTION('',(-0.,-0.,1.));
#565 = ORIENTED_EDGE('',*,*,#566,.F.);
#566 = EDGE_CURVE('',#153,#559,#567,.T.);
#567 = LINE('',#568,#569);
#568 = CARTESIAN_POINT('',(15.142713291639,3.,29.15));
#569 = VECTOR('',#570,1.);
#570 = DIRECTION('',(-0.,-1.,-0.));
#571 = PLANE('',#572);
#572 = AXIS2_PLACEMENT_3D('',#573,#574,#575);
#573 = CARTESIAN_POINT('',(15.142713291639,3.,27.75));
#574 = DIRECTION('',(1.,-0.,-0.));
#575 = DIRECTION('',(0.,0.,-1.));
#576 = ADVANCED_FACE('',(#577),#595,.T.);
#577 = FACE_BOUND('',#578,.F.);
#578 = EDGE_LOOP('',(#579,#580,#581,#589));
#579 = ORIENTED_EDGE('',*,*,#566,.F.);
#580 = ORIENTED_EDGE('',*,*,#176,.T.);
#581 = ORIENTED_EDGE('',*,*,#582,.T.);
#582 = EDGE_CURVE('',#169,#583,#585,.T.);
#583 = VERTEX_POINT('',#584);
#584 = CARTESIAN_POINT('',(104.85728670836,1.95,29.15));
#585 = LINE('',#586,#587);
#586 = CARTESIAN_POINT('',(104.85728670836,3.,29.15));
#587 = VECTOR('',#588,1.);
#588 = DIRECTION('',(-0.,-1.,-0.));
#589 = ORIENTED_EDGE('',*,*,#590,.F.);
#590 = EDGE_CURVE('',#559,#583,#591,.T.);
#591 = LINE('',#592,#593);
#592 = CARTESIAN_POINT('',(15.142713291639,1.95,29.15));
#593 = VECTOR('',#594,1.);
#594 = DIRECTION('',(1.,-0.,-0.));
#595 = PLANE('',#596);
#596 = AXIS2_PLACEMENT_3D('',#597,#598,#599);
#597 = CARTESIAN_POINT('',(15.142713291639,3.,29.15));
#598 = DIRECTION('',(-0.,-0.,1.));
#599 = DIRECTION('',(-1.,0.,0.));
#600 = ADVANCED_FACE('',(#601),#619,.T.);
#601 = FACE_BOUND('',#602,.F.);
#602 = EDGE_LOOP('',(#603,#604,#612,#618));
#603 = ORIENTED_EDGE('',*,*,#168,.F.);
#604 = ORIENTED_EDGE('',*,*,#605,.T.);
#605 = EDGE_CURVE('',#161,#606,#608,.T.);
#606 = VERTEX_POINT('',#607);
#607 = CARTESIAN_POINT('',(104.85728670836,1.95,27.75));
#608 = LINE('',#609,#610);
#609 = CARTESIAN_POINT('',(104.85728670836,3.,27.75));
#610 = VECTOR('',#611,1.);
#611 = DIRECTION('',(-0.,-1.,-0.));
#612 = ORIENTED_EDGE('',*,*,#613,.T.);
#613 = EDGE_CURVE('',#606,#583,#614,.T.);
#614 = LINE('',#615,#616);
#615 = CARTESIAN_POINT('',(104.85728670836,1.95,27.75));
#616 = VECTOR('',#617,1.);
#617 = DIRECTION('',(-0.,-0.,1.));
#618 = ORIENTED_EDGE('',*,*,#582,.F.);
#619 = PLANE('',#620);
#620 = AXIS2_PLACEMENT_3D('',#621,#622,#623);
#621 = CARTESIAN_POINT('',(104.85728670836,3.,27.75));
#622 = DIRECTION('',(1.,-0.,-0.));
#623 = DIRECTION('',(0.,0.,-1.));
#624 = ADVANCED_FACE('',(#625),#636,.F.);
#625 = FACE_BOUND('',#626,.T.);
#626 = EDGE_LOOP('',(#627,#628,#629,#630));
#627 = ORIENTED_EDGE('',*,*,#550,.F.);
#628 = ORIENTED_EDGE('',*,*,#160,.T.);
#629 = ORIENTED_EDGE('',*,*,#605,.T.);
#630 = ORIENTED_EDGE('',*,*,#631,.F.);
#631 = EDGE_CURVE('',#551,#606,#632,.T.);
#632 = LINE('',#633,#634);
#633 = CARTESIAN_POINT('',(15.142713291639,1.95,27.75));
#634 = VECTOR('',#635,1.);
#635 = DIRECTION('',(1.,-0.,-0.));
#636 = PLANE('',#637);
#637 = AXIS2_PLACEMENT_3D('',#638,#639,#640);
#638 = CARTESIAN_POINT('',(15.142713291639,3.,27.75));
#639 = DIRECTION('',(-0.,-0.,1.));
#640 = DIRECTION('',(-1.,0.,0.));
#641 = ADVANCED_FACE('',(#642),#653,.F.);
#642 = FACE_BOUND('',#643,.T.);
#643 = EDGE_LOOP('',(#644,#645,#652));
#644 = ORIENTED_EDGE('',*,*,#255,.T.);
#645 = ORIENTED_EDGE('',*,*,#646,.T.);
#646 = EDGE_CURVE('',#248,#527,#647,.T.);
#647 = CIRCLE('',#648,7.);
#648 = AXIS2_PLACEMENT_3D('',#649,#650,#651);
#649 = CARTESIAN_POINT('',(114.,3.8,25.));
#650 = DIRECTION('',(0.,1.,0.));
#651 = DIRECTION('',(-0.,-0.,1.));
#652 = ORIENTED_EDGE('',*,*,#534,.F.);
#653 = PLANE('',#654);
#654 = AXIS2_PLACEMENT_3D('',#655,#656,#657);
#655 = CARTESIAN_POINT('',(114.,3.8,25.));
#656 = DIRECTION('',(-0.,-1.,-0.));
#657 = DIRECTION('',(0.,0.,-1.));
#658 = ADVANCED_FACE('',(#659),#671,.F.);
#659 = FACE_BOUND('',#660,.T.);
#660 = EDGE_LOOP('',(#661,#662,#663,#670));
#661 = ORIENTED_EDGE('',*,*,#646,.F.);
#662 = ORIENTED_EDGE('',*,*,#247,.F.);
#663 = ORIENTED_EDGE('',*,*,#664,.T.);
#664 = EDGE_CURVE('',#240,#519,#665,.T.);
#665 = CIRCLE('',#666,7.);
#666 = AXIS2_PLACEMENT_3D('',#667,#668,#669);
#667 = CARTESIAN_POINT('',(114.,5.7,25.));
#668 = DIRECTION('',(0.,1.,0.));
#669 = DIRECTION('',(-0.,-0.,1.));
#670 = ORIENTED_EDGE('',*,*,#526,.T.);
#671 = CYLINDRICAL_SURFACE('',#672,7.);
#672 = AXIS2_PLACEMENT_3D('',#673,#674,#675);
#673 = CARTESIAN_POINT('',(114.,5.7,25.));
#674 = DIRECTION('',(-0.,-1.,-0.));
#675 = DIRECTION('',(-0.,-0.,1.));
#676 = ADVANCED_FACE('',(#677),#682,.T.);
#677 = FACE_BOUND('',#678,.F.);
#678 = EDGE_LOOP('',(#679,#680,#681));
#679 = ORIENTED_EDGE('',*,*,#239,.T.);
#680 = ORIENTED_EDGE('',*,*,#664,.T.);
#681 = ORIENTED_EDGE('',*,*,#518,.F.);
#682 = PLANE('',#683);
#683 = AXIS2_PLACEMENT_3D('',#684,#685,#686);
#684 = CARTESIAN_POINT('',(114.,5.7,25.));
#685 = DIRECTION('',(-0.,-1.,-0.));
#686 = DIRECTION('',(0.,0.,-1.));
#687 = ADVANCED_FACE('',(#688),#699,.F.);
#688 = FACE_BOUND('',#689,.T.);
#689 = EDGE_LOOP('',(#690,#691,#698));
#690 = ORIENTED_EDGE('',*,*,#223,.T.);
#691 = ORIENTED_EDGE('',*,*,#692,.T.);
#692 = EDGE_CURVE('',#216,#504,#693,.T.);
#693 = CIRCLE('',#694,7.);
#694 = AXIS2_PLACEMENT_3D('',#695,#696,#697);
#695 = CARTESIAN_POINT('',(114.,55.3,25.));
#696 = DIRECTION('',(0.,1.,0.));
#697 = DIRECTION('',(-0.,-0.,1.));
#698 = ORIENTED_EDGE('',*,*,#511,.F.);
#699 = PLANE('',#700);
#700 = AXIS2_PLACEMENT_3D('',#701,#702,#703);
#701 = CARTESIAN_POINT('',(114.,55.3,25.));
#702 = DIRECTION('',(-0.,-1.,-0.));
#703 = DIRECTION('',(0.,0.,-1.));
#704 = ADVANCED_FACE('',(#705),#717,.F.);
#705 = FACE_BOUND('',#706,.T.);
#706 = EDGE_LOOP('',(#707,#708,#709,#716));
#707 = ORIENTED_EDGE('',*,*,#692,.F.);
#708 = ORIENTED_EDGE('',*,*,#215,.F.);
#709 = ORIENTED_EDGE('',*,*,#710,.T.);
#710 = EDGE_CURVE('',#208,#496,#711,.T.);
#711 = CIRCLE('',#712,7.);
#712 = AXIS2_PLACEMENT_3D('',#713,#714,#715);
#713 = CARTESIAN_POINT('',(114.,57.2,25.));
#714 = DIRECTION('',(0.,1.,0.));
#715 = DIRECTION('',(-0.,-0.,1.));
#716 = ORIENTED_EDGE('',*,*,#503,.T.);
#717 = CYLINDRICAL_SURFACE('',#718,7.);
#718 = AXIS2_PLACEMENT_3D('',#719,#720,#721);
#719 = CARTESIAN_POINT('',(114.,57.2,25.));
#720 = DIRECTION('',(-0.,-1.,-0.));
#721 = DIRECTION('',(-0.,-0.,1.));
#722 = ADVANCED_FACE('',(#723),#728,.T.);
#723 = FACE_BOUND('',#724,.F.);
#724 = EDGE_LOOP('',(#725,#726,#727));
#725 = ORIENTED_EDGE('',*,*,#207,.T.);
#726 = ORIENTED_EDGE('',*,*,#710,.T.);
#727 = ORIENTED_EDGE('',*,*,#495,.F.);
#728 = PLANE('',#729);
#729 = AXIS2_PLACEMENT_3D('',#730,#731,#732);
#730 = CARTESIAN_POINT('',(114.,57.2,25.));
#731 = DIRECTION('',(-0.,-1.,-0.));
#732 = DIRECTION('',(0.,0.,-1.));
#733 = ADVANCED_FACE('',(#734),#759,.F.);
#734 = FACE_BOUND('',#735,.T.);
#735 = EDGE_LOOP('',(#736,#746,#752,#753));
#736 = ORIENTED_EDGE('',*,*,#737,.F.);
#737 = EDGE_CURVE('',#738,#740,#742,.T.);
#738 = VERTEX_POINT('',#739);
#739 = CARTESIAN_POINT('',(15.142713291639,59.05,27.75));
#740 = VERTEX_POINT('',#741);
#741 = CARTESIAN_POINT('',(15.142713291639,59.05,29.15));
#742 = LINE('',#743,#744);
#743 = CARTESIAN_POINT('',(15.142713291639,59.05,27.75));
#744 = VECTOR('',#745,1.);
#745 = DIRECTION('',(-0.,-0.,1.));
#746 = ORIENTED_EDGE('',*,*,#747,.T.);
#747 = EDGE_CURVE('',#738,#435,#748,.T.);
#748 = LINE('',#749,#750);
#749 = CARTESIAN_POINT('',(15.142713291639,59.05,27.75));
#750 = VECTOR('',#751,1.);
#751 = DIRECTION('',(-0.,-1.,-0.));
#752 = ORIENTED_EDGE('',*,*,#434,.T.);
#753 = ORIENTED_EDGE('',*,*,#754,.F.);
#754 = EDGE_CURVE('',#740,#437,#755,.T.);
#755 = LINE('',#756,#757);
#756 = CARTESIAN_POINT('',(15.142713291639,59.05,29.15));
#757 = VECTOR('',#758,1.);
#758 = DIRECTION('',(-0.,-1.,-0.));
#759 = PLANE('',#760);
#760 = AXIS2_PLACEMENT_3D('',#761,#762,#763);
#761 = CARTESIAN_POINT('',(15.142713291639,59.05,27.75));
#762 = DIRECTION('',(1.,-0.,-0.));
#763 = DIRECTION('',(0.,0.,-1.));
#764 = ADVANCED_FACE('',(#765),#783,.T.);
#765 = FACE_BOUND('',#766,.F.);
#766 = EDGE_LOOP('',(#767,#768,#776,#782));
#767 = ORIENTED_EDGE('',*,*,#754,.F.);
#768 = ORIENTED_EDGE('',*,*,#769,.T.);
#769 = EDGE_CURVE('',#740,#770,#772,.T.);
#770 = VERTEX_POINT('',#771);
#771 = CARTESIAN_POINT('',(104.85728670836,59.05,29.15));
#772 = LINE('',#773,#774);
#773 = CARTESIAN_POINT('',(15.142713291639,59.05,29.15));
#774 = VECTOR('',#775,1.);
#775 = DIRECTION('',(1.,-0.,-0.));
#776 = ORIENTED_EDGE('',*,*,#777,.T.);
#777 = EDGE_CURVE('',#770,#453,#778,.T.);
#778 = LINE('',#779,#780);
#779 = CARTESIAN_POINT('',(104.85728670836,59.05,29.15));
#780 = VECTOR('',#781,1.);
#781 = DIRECTION('',(-0.,-1.,-0.));
#782 = ORIENTED_EDGE('',*,*,#460,.F.);
#783 = PLANE('',#784);
#784 = AXIS2_PLACEMENT_3D('',#785,#786,#787);
#785 = CARTESIAN_POINT('',(15.142713291639,59.05,29.15));
#786 = DIRECTION('',(-0.,-0.,1.));
#787 = DIRECTION('',(-1.,0.,0.));
#788 = ADVANCED_FACE('',(#789),#807,.T.);
#789 = FACE_BOUND('',#790,.F.);
#790 = EDGE_LOOP('',(#791,#799,#805,#806));
#791 = ORIENTED_EDGE('',*,*,#792,.F.);
#792 = EDGE_CURVE('',#793,#770,#795,.T.);
#793 = VERTEX_POINT('',#794);
#794 = CARTESIAN_POINT('',(104.85728670836,59.05,27.75));
#795 = LINE('',#796,#797);
#796 = CARTESIAN_POINT('',(104.85728670836,59.05,27.75));
#797 = VECTOR('',#798,1.);
#798 = DIRECTION('',(-0.,-0.,1.));
#799 = ORIENTED_EDGE('',*,*,#800,.T.);
#800 = EDGE_CURVE('',#793,#445,#801,.T.);
#801 = LINE('',#802,#803);
#802 = CARTESIAN_POINT('',(104.85728670836,59.05,27.75));
#803 = VECTOR('',#804,1.);
#804 = DIRECTION('',(-0.,-1.,-0.));
#805 = ORIENTED_EDGE('',*,*,#452,.T.);
#806 = ORIENTED_EDGE('',*,*,#777,.F.);
#807 = PLANE('',#808);
#808 = AXIS2_PLACEMENT_3D('',#809,#810,#811);
#809 = CARTESIAN_POINT('',(104.85728670836,59.05,27.75));
#810 = DIRECTION('',(1.,-0.,-0.));
#811 = DIRECTION('',(0.,0.,-1.));
#812 = ADVANCED_FACE('',(#813),#824,.F.);
#813 = FACE_BOUND('',#814,.T.);
#814 = EDGE_LOOP('',(#815,#816,#822,#823));
#815 = ORIENTED_EDGE('',*,*,#747,.F.);
#816 = ORIENTED_EDGE('',*,*,#817,.T.);
#817 = EDGE_CURVE('',#738,#793,#818,.T.);
#818 = LINE('',#819,#820);
#819 = CARTESIAN_POINT('',(15.142713291639,59.05,27.75));
#820 = VECTOR('',#821,1.);
#821 = DIRECTION('',(1.,-0.,-0.));
#822 = ORIENTED_EDGE('',*,*,#800,.T.);
#823 = ORIENTED_EDGE('',*,*,#444,.F.);
#824 = PLANE('',#825);
#825 = AXIS2_PLACEMENT_3D('',#826,#827,#828);
#826 = CARTESIAN_POINT('',(15.142713291639,59.05,27.75));
#827 = DIRECTION('',(-0.,-0.,1.));
#828 = DIRECTION('',(-1.,0.,0.));
#829 = ADVANCED_FACE('',(#830),#836,.T.);
#830 = FACE_BOUND('',#831,.F.);
#831 = EDGE_LOOP('',(#832,#833,#834,#835));
#832 = ORIENTED_EDGE('',*,*,#631,.F.);
#833 = ORIENTED_EDGE('',*,*,#558,.T.);
#834 = ORIENTED_EDGE('',*,*,#590,.T.);
#835 = ORIENTED_EDGE('',*,*,#613,.F.);
#836 = PLANE('',#837);
#837 = AXIS2_PLACEMENT_3D('',#838,#839,#840);
#838 = CARTESIAN_POINT('',(15.142713291639,1.95,27.75));
#839 = DIRECTION('',(-0.,-1.,-0.));
#840 = DIRECTION('',(0.,0.,-1.));
#841 = ADVANCED_FACE('',(#842),#848,.F.);
#842 = FACE_BOUND('',#843,.T.);
#843 = EDGE_LOOP('',(#844,#845,#846,#847));
#844 = ORIENTED_EDGE('',*,*,#817,.F.);
#845 = ORIENTED_EDGE('',*,*,#737,.T.);
#846 = ORIENTED_EDGE('',*,*,#769,.T.);
#847 = ORIENTED_EDGE('',*,*,#792,.F.);
#848 = PLANE('',#849);
#849 = AXIS2_PLACEMENT_3D('',#850,#851,#852);
#850 = CARTESIAN_POINT('',(15.142713291639,59.05,27.75));
#851 = DIRECTION('',(-0.,-1.,-0.));
#852 = DIRECTION('',(0.,0.,-1.));
#853 = ( GEOMETRIC_REPRESENTATION_CONTEXT(3) 
GLOBAL_UNCERTAINTY_ASSIGNED_CONTEXT((#857)) GLOBAL_UNIT_ASSIGNED_CONTEXT
((#854,#855,#856)) REPRESENTATION_CONTEXT('Context #1',
  '3D Context with UNIT and UNCERTAINTY') );
#854 = ( LENGTH_UNIT() NAMED_UNIT(*) SI_UNIT(.MILLI.,.METRE.) );
#855 = ( NAMED_UNIT(*) PLANE_ANGLE_UNIT() SI_UNIT($,.RADIAN.) );
#856 = ( NAMED_UNIT(*) SI_UNIT($,.STERADIAN.) SOLID_ANGLE_UNIT() );
#857 = UNCERTAINTY_MEASURE_WITH_UNIT(LENGTH_MEASURE(1.E-07),#854,
  'distance_accuracy_value','confusion accuracy');
#858 = PRODUCT_RELATED_PRODUCT_CATEGORY('part',$,(#7));
ENDSEC;
END-ISO-10303-21;
