ISO-10303-21;
HEADER;
FILE_DESCRIPTION(('FreeCAD Model'),'2;1');
FILE_NAME('Open CASCADE Shape Model','2026-09-26T11:18:16',('FreeCAD'),(
    'FreeCAD'),'Open CASCADE STEP processor 7.8','FreeCAD','Unknown');
FILE_SCHEMA(('AUTOMOTIVE_DESIGN { 1 0 10303 214 1 1 1 1 }'));
ENDSEC;
DATA;
#1 = APPLICATION_PROTOCOL_DEFINITION('international standard',
  'automotive_design',2000,#2);
#2 = APPLICATION_CONTEXT(
  'core data for automotive mechanical design processes');
#3 = SHAPE_DEFINITION_REPRESENTATION(#4,#10);
#4 = PRODUCT_DEFINITION_SHAPE('','',#5);
#5 = PRODUCT_DEFINITION('design','',#6,#9);
#6 = PRODUCT_DEFINITION_FORMATION('','',#7);
#7 = PRODUCT('Open CASCADE STEP translator 7.8 24',
  'Open CASCADE STEP translator 7.8 24','',(#8));
#8 = PRODUCT_CONTEXT('',#2,'mechanical');
#9 = PRODUCT_DEFINITION_CONTEXT('part definition',#2,'design');
#10 = SHAPE_REPRESENTATION('',(#11,#15,#197),#502);
#11 = AXIS2_PLACEMENT_3D('',#12,#13,#14);
#12 = CARTESIAN_POINT('',(0.,0.,0.));
#13 = DIRECTION('',(0.,0.,1.));
#14 = DIRECTION('',(1.,0.,-0.));
#15 = MANIFOLD_SOLID_BREP('',#16);
#16 = CLOSED_SHELL('',(#17,#50,#70,#90,#115,#140,#160,#180));
#17 = ADVANCED_FACE('',(#18),#45,.T.);
#18 = FACE_BOUND('',#19,.F.);
#19 = EDGE_LOOP('',(#20,#29,#37,#44));
#20 = ORIENTED_EDGE('',*,*,#21,.F.);
#21 = EDGE_CURVE('',#22,#22,#24,.T.);
#22 = VERTEX_POINT('',#23);
#23 = CARTESIAN_POINT('',(6.,5.5,30.));
#24 = CIRCLE('',#25,5.);
#25 = AXIS2_PLACEMENT_3D('',#26,#27,#28);
#26 = CARTESIAN_POINT('',(6.,5.5,25.));
#27 = DIRECTION('',(0.,1.,0.));
#28 = DIRECTION('',(-0.,-0.,1.));
#29 = ORIENTED_EDGE('',*,*,#30,.F.);
#30 = EDGE_CURVE('',#31,#22,#33,.T.);
#31 = VERTEX_POINT('',#32);
#32 = CARTESIAN_POINT('',(6.,55.5,30.));
#33 = LINE('',#34,#35);
#34 = CARTESIAN_POINT('',(6.,55.5,30.));
#35 = VECTOR('',#36,1.);
#36 = DIRECTION('',(-0.,-1.,-0.));
#37 = ORIENTED_EDGE('',*,*,#38,.T.);
#38 = EDGE_CURVE('',#31,#31,#39,.T.);
#39 = CIRCLE('',#40,5.);
#40 = AXIS2_PLACEMENT_3D('',#41,#42,#43);
#41 = CARTESIAN_POINT('',(6.,55.5,25.));
#42 = DIRECTION('',(0.,1.,0.));
#43 = DIRECTION('',(-0.,-0.,1.));
#44 = ORIENTED_EDGE('',*,*,#30,.T.);
#45 = CYLINDRICAL_SURFACE('',#46,5.);
#46 = AXIS2_PLACEMENT_3D('',#47,#48,#49);
#47 = CARTESIAN_POINT('',(6.,55.5,25.));
#48 = DIRECTION('',(-0.,-1.,-0.));
#49 = DIRECTION('',(-0.,-0.,1.));
#50 = ADVANCED_FACE('',(#51,#62),#65,.F.);
#51 = FACE_BOUND('',#52,.T.);
#52 = EDGE_LOOP('',(#53));
#53 = ORIENTED_EDGE('',*,*,#54,.T.);
#54 = EDGE_CURVE('',#55,#55,#57,.T.);
#55 = VERTEX_POINT('',#56);
#56 = CARTESIAN_POINT('',(6.,5.5,31.5));
#57 = CIRCLE('',#58,6.5);
#58 = AXIS2_PLACEMENT_3D('',#59,#60,#61);
#59 = CARTESIAN_POINT('',(6.,5.5,25.));
#60 = DIRECTION('',(0.,1.,0.));
#61 = DIRECTION('',(-0.,-0.,1.));
#62 = FACE_BOUND('',#63,.T.);
#63 = EDGE_LOOP('',(#64));
#64 = ORIENTED_EDGE('',*,*,#21,.F.);
#65 = PLANE('',#66);
#66 = AXIS2_PLACEMENT_3D('',#67,#68,#69);
#67 = CARTESIAN_POINT('',(6.,5.5,25.));
#68 = DIRECTION('',(-0.,-1.,-0.));
#69 = DIRECTION('',(0.,0.,-1.));
#70 = ADVANCED_FACE('',(#71,#82),#85,.T.);
#71 = FACE_BOUND('',#72,.F.);
#72 = EDGE_LOOP('',(#73));
#73 = ORIENTED_EDGE('',*,*,#74,.T.);
#74 = EDGE_CURVE('',#75,#75,#77,.T.);
#75 = VERTEX_POINT('',#76);
#76 = CARTESIAN_POINT('',(6.,55.5,31.5));
#77 = CIRCLE('',#78,6.5);
#78 = AXIS2_PLACEMENT_3D('',#79,#80,#81);
#79 = CARTESIAN_POINT('',(6.,55.5,25.));
#80 = DIRECTION('',(0.,1.,0.));
#81 = DIRECTION('',(-0.,-0.,1.));
#82 = FACE_BOUND('',#83,.F.);
#83 = EDGE_LOOP('',(#84));
#84 = ORIENTED_EDGE('',*,*,#38,.F.);
#85 = PLANE('',#86);
#86 = AXIS2_PLACEMENT_3D('',#87,#88,#89);
#87 = CARTESIAN_POINT('',(6.,55.5,25.));
#88 = DIRECTION('',(-0.,-1.,-0.));
#89 = DIRECTION('',(0.,0.,-1.));
#90 = ADVANCED_FACE('',(#91),#110,.T.);
#91 = FACE_BOUND('',#92,.F.);
#92 = EDGE_LOOP('',(#93,#102,#108,#109));
#93 = ORIENTED_EDGE('',*,*,#94,.F.);
#94 = EDGE_CURVE('',#95,#95,#97,.T.);
#95 = VERTEX_POINT('',#96);
#96 = CARTESIAN_POINT('',(6.,4.,31.5));
#97 = CIRCLE('',#98,6.5);
#98 = AXIS2_PLACEMENT_3D('',#99,#100,#101);
#99 = CARTESIAN_POINT('',(6.,4.,25.));
#100 = DIRECTION('',(0.,1.,0.));
#101 = DIRECTION('',(-0.,-0.,1.));
#102 = ORIENTED_EDGE('',*,*,#103,.F.);
#103 = EDGE_CURVE('',#55,#95,#104,.T.);
#104 = LINE('',#105,#106);
#105 = CARTESIAN_POINT('',(6.,5.5,31.5));
#106 = VECTOR('',#107,1.);
#107 = DIRECTION('',(-0.,-1.,-0.));
#108 = ORIENTED_EDGE('',*,*,#54,.T.);
#109 = ORIENTED_EDGE('',*,*,#103,.T.);
#110 = CYLINDRICAL_SURFACE('',#111,6.5);
#111 = AXIS2_PLACEMENT_3D('',#112,#113,#114);
#112 = CARTESIAN_POINT('',(6.,5.5,25.));
#113 = DIRECTION('',(-0.,-1.,-0.));
#114 = DIRECTION('',(-0.,-0.,1.));
#115 = ADVANCED_FACE('',(#116),#135,.T.);
#116 = FACE_BOUND('',#117,.F.);
#117 = EDGE_LOOP('',(#118,#119,#127,#134));
#118 = ORIENTED_EDGE('',*,*,#74,.F.);
#119 = ORIENTED_EDGE('',*,*,#120,.F.);
#120 = EDGE_CURVE('',#121,#75,#123,.T.);
#121 = VERTEX_POINT('',#122);
#122 = CARTESIAN_POINT('',(6.,57.,31.5));
#123 = LINE('',#124,#125);
#124 = CARTESIAN_POINT('',(6.,57.,31.5));
#125 = VECTOR('',#126,1.);
#126 = DIRECTION('',(-0.,-1.,-0.));
#127 = ORIENTED_EDGE('',*,*,#128,.T.);
#128 = EDGE_CURVE('',#121,#121,#129,.T.);
#129 = CIRCLE('',#130,6.5);
#130 = AXIS2_PLACEMENT_3D('',#131,#132,#133);
#131 = CARTESIAN_POINT('',(6.,57.,25.));
#132 = DIRECTION('',(0.,1.,0.));
#133 = DIRECTION('',(-0.,-0.,1.));
#134 = ORIENTED_EDGE('',*,*,#120,.T.);
#135 = CYLINDRICAL_SURFACE('',#136,6.5);
#136 = AXIS2_PLACEMENT_3D('',#137,#138,#139);
#137 = CARTESIAN_POINT('',(6.,57.,25.));
#138 = DIRECTION('',(-0.,-1.,-0.));
#139 = DIRECTION('',(-0.,-0.,1.));
#140 = ADVANCED_FACE('',(#141,#144),#155,.T.);
#141 = FACE_BOUND('',#142,.F.);
#142 = EDGE_LOOP('',(#143));
#143 = ORIENTED_EDGE('',*,*,#94,.T.);
#144 = FACE_BOUND('',#145,.F.);
#145 = EDGE_LOOP('',(#146));
#146 = ORIENTED_EDGE('',*,*,#147,.F.);
#147 = EDGE_CURVE('',#148,#148,#150,.T.);
#148 = VERTEX_POINT('',#149);
#149 = CARTESIAN_POINT('',(6.,4.,27.2));
#150 = CIRCLE('',#151,2.2);
#151 = AXIS2_PLACEMENT_3D('',#152,#153,#154);
#152 = CARTESIAN_POINT('',(6.,4.,25.));
#153 = DIRECTION('',(0.,1.,0.));
#154 = DIRECTION('',(-0.,-0.,1.));
#155 = PLANE('',#156);
#156 = AXIS2_PLACEMENT_3D('',#157,#158,#159);
#157 = CARTESIAN_POINT('',(6.,4.,25.));
#158 = DIRECTION('',(-0.,-1.,-0.));
#159 = DIRECTION('',(0.,0.,-1.));
#160 = ADVANCED_FACE('',(#161,#164),#175,.F.);
#161 = FACE_BOUND('',#162,.T.);
#162 = EDGE_LOOP('',(#163));
#163 = ORIENTED_EDGE('',*,*,#128,.T.);
#164 = FACE_BOUND('',#165,.T.);
#165 = EDGE_LOOP('',(#166));
#166 = ORIENTED_EDGE('',*,*,#167,.F.);
#167 = EDGE_CURVE('',#168,#168,#170,.T.);
#168 = VERTEX_POINT('',#169);
#169 = CARTESIAN_POINT('',(6.,57.,27.2));
#170 = CIRCLE('',#171,2.2);
#171 = AXIS2_PLACEMENT_3D('',#172,#173,#174);
#172 = CARTESIAN_POINT('',(6.,57.,25.));
#173 = DIRECTION('',(0.,1.,0.));
#174 = DIRECTION('',(-0.,-0.,1.));
#175 = PLANE('',#176);
#176 = AXIS2_PLACEMENT_3D('',#177,#178,#179);
#177 = CARTESIAN_POINT('',(6.,57.,25.));
#178 = DIRECTION('',(-0.,-1.,-0.));
#179 = DIRECTION('',(0.,0.,-1.));
#180 = ADVANCED_FACE('',(#181),#192,.F.);
#181 = FACE_BOUND('',#182,.T.);
#182 = EDGE_LOOP('',(#183,#184,#190,#191));
#183 = ORIENTED_EDGE('',*,*,#147,.F.);
#184 = ORIENTED_EDGE('',*,*,#185,.F.);
#185 = EDGE_CURVE('',#168,#148,#186,.T.);
#186 = LINE('',#187,#188);
#187 = CARTESIAN_POINT('',(6.,58.,27.2));
#188 = VECTOR('',#189,1.);
#189 = DIRECTION('',(-0.,-1.,-0.));
#190 = ORIENTED_EDGE('',*,*,#167,.T.);
#191 = ORIENTED_EDGE('',*,*,#185,.T.);
#192 = CYLINDRICAL_SURFACE('',#193,2.2);
#193 = AXIS2_PLACEMENT_3D('',#194,#195,#196);
#194 = CARTESIAN_POINT('',(6.,58.,25.));
#195 = DIRECTION('',(-0.,-1.,-0.));
#196 = DIRECTION('',(-0.,-0.,1.));
#197 = MANIFOLD_SOLID_BREP('',#198);
#198 = CLOSED_SHELL('',(#199,#232,#252,#272,#297,#322,#342,#362,#387,
    #412,#440,#468,#490));
#199 = ADVANCED_FACE('',(#200),#227,.T.);
#200 = FACE_BOUND('',#201,.F.);
#201 = EDGE_LOOP('',(#202,#211,#219,#226));
#202 = ORIENTED_EDGE('',*,*,#203,.F.);
#203 = EDGE_CURVE('',#204,#204,#206,.T.);
#204 = VERTEX_POINT('',#205);
#205 = CARTESIAN_POINT('',(114.,5.5,30.));
#206 = CIRCLE('',#207,5.);
#207 = AXIS2_PLACEMENT_3D('',#208,#209,#210);
#208 = CARTESIAN_POINT('',(114.,5.5,25.));
#209 = DIRECTION('',(0.,1.,0.));
#210 = DIRECTION('',(-0.,-0.,1.));
#211 = ORIENTED_EDGE('',*,*,#212,.F.);
#212 = EDGE_CURVE('',#213,#204,#215,.T.);
#213 = VERTEX_POINT('',#214);
#214 = CARTESIAN_POINT('',(114.,55.5,30.));
#215 = LINE('',#216,#217);
#216 = CARTESIAN_POINT('',(114.,55.5,30.));
#217 = VECTOR('',#218,1.);
#218 = DIRECTION('',(-0.,-1.,-0.));
#219 = ORIENTED_EDGE('',*,*,#220,.T.);
#220 = EDGE_CURVE('',#213,#213,#221,.T.);
#221 = CIRCLE('',#222,5.);
#222 = AXIS2_PLACEMENT_3D('',#223,#224,#225);
#223 = CARTESIAN_POINT('',(114.,55.5,25.));
#224 = DIRECTION('',(0.,1.,0.));
#225 = DIRECTION('',(-0.,-0.,1.));
#226 = ORIENTED_EDGE('',*,*,#212,.T.);
#227 = CYLINDRICAL_SURFACE('',#228,5.);
#228 = AXIS2_PLACEMENT_3D('',#229,#230,#231);
#229 = CARTESIAN_POINT('',(114.,55.5,25.));
#230 = DIRECTION('',(-0.,-1.,-0.));
#231 = DIRECTION('',(-0.,-0.,1.));
#232 = ADVANCED_FACE('',(#233,#244),#247,.F.);
#233 = FACE_BOUND('',#234,.T.);
#234 = EDGE_LOOP('',(#235));
#235 = ORIENTED_EDGE('',*,*,#236,.T.);
#236 = EDGE_CURVE('',#237,#237,#239,.T.);
#237 = VERTEX_POINT('',#238);
#238 = CARTESIAN_POINT('',(114.,5.5,31.5));
#239 = CIRCLE('',#240,6.5);
#240 = AXIS2_PLACEMENT_3D('',#241,#242,#243);
#241 = CARTESIAN_POINT('',(114.,5.5,25.));
#242 = DIRECTION('',(0.,1.,0.));
#243 = DIRECTION('',(-0.,-0.,1.));
#244 = FACE_BOUND('',#245,.T.);
#245 = EDGE_LOOP('',(#246));
#246 = ORIENTED_EDGE('',*,*,#203,.F.);
#247 = PLANE('',#248);
#248 = AXIS2_PLACEMENT_3D('',#249,#250,#251);
#249 = CARTESIAN_POINT('',(114.,5.5,25.));
#250 = DIRECTION('',(-0.,-1.,-0.));
#251 = DIRECTION('',(0.,0.,-1.));
#252 = ADVANCED_FACE('',(#253,#264),#267,.T.);
#253 = FACE_BOUND('',#254,.F.);
#254 = EDGE_LOOP('',(#255));
#255 = ORIENTED_EDGE('',*,*,#256,.T.);
#256 = EDGE_CURVE('',#257,#257,#259,.T.);
#257 = VERTEX_POINT('',#258);
#258 = CARTESIAN_POINT('',(114.,55.5,31.5));
#259 = CIRCLE('',#260,6.5);
#260 = AXIS2_PLACEMENT_3D('',#261,#262,#263);
#261 = CARTESIAN_POINT('',(114.,55.5,25.));
#262 = DIRECTION('',(0.,1.,0.));
#263 = DIRECTION('',(-0.,-0.,1.));
#264 = FACE_BOUND('',#265,.F.);
#265 = EDGE_LOOP('',(#266));
#266 = ORIENTED_EDGE('',*,*,#220,.F.);
#267 = PLANE('',#268);
#268 = AXIS2_PLACEMENT_3D('',#269,#270,#271);
#269 = CARTESIAN_POINT('',(114.,55.5,25.));
#270 = DIRECTION('',(-0.,-1.,-0.));
#271 = DIRECTION('',(0.,0.,-1.));
#272 = ADVANCED_FACE('',(#273),#292,.T.);
#273 = FACE_BOUND('',#274,.F.);
#274 = EDGE_LOOP('',(#275,#284,#290,#291));
#275 = ORIENTED_EDGE('',*,*,#276,.F.);
#276 = EDGE_CURVE('',#277,#277,#279,.T.);
#277 = VERTEX_POINT('',#278);
#278 = CARTESIAN_POINT('',(114.,4.,31.5));
#279 = CIRCLE('',#280,6.5);
#280 = AXIS2_PLACEMENT_3D('',#281,#282,#283);
#281 = CARTESIAN_POINT('',(114.,4.,25.));
#282 = DIRECTION('',(0.,1.,0.));
#283 = DIRECTION('',(-0.,-0.,1.));
#284 = ORIENTED_EDGE('',*,*,#285,.F.);
#285 = EDGE_CURVE('',#237,#277,#286,.T.);
#286 = LINE('',#287,#288);
#287 = CARTESIAN_POINT('',(114.,5.5,31.5));
#288 = VECTOR('',#289,1.);
#289 = DIRECTION('',(-0.,-1.,-0.));
#290 = ORIENTED_EDGE('',*,*,#236,.T.);
#291 = ORIENTED_EDGE('',*,*,#285,.T.);
#292 = CYLINDRICAL_SURFACE('',#293,6.5);
#293 = AXIS2_PLACEMENT_3D('',#294,#295,#296);
#294 = CARTESIAN_POINT('',(114.,5.5,25.));
#295 = DIRECTION('',(-0.,-1.,-0.));
#296 = DIRECTION('',(-0.,-0.,1.));
#297 = ADVANCED_FACE('',(#298),#317,.T.);
#298 = FACE_BOUND('',#299,.F.);
#299 = EDGE_LOOP('',(#300,#301,#309,#316));
#300 = ORIENTED_EDGE('',*,*,#256,.F.);
#301 = ORIENTED_EDGE('',*,*,#302,.F.);
#302 = EDGE_CURVE('',#303,#257,#305,.T.);
#303 = VERTEX_POINT('',#304);
#304 = CARTESIAN_POINT('',(114.,57.,31.5));
#305 = LINE('',#306,#307);
#306 = CARTESIAN_POINT('',(114.,57.,31.5));
#307 = VECTOR('',#308,1.);
#308 = DIRECTION('',(-0.,-1.,-0.));
#309 = ORIENTED_EDGE('',*,*,#310,.T.);
#310 = EDGE_CURVE('',#303,#303,#311,.T.);
#311 = CIRCLE('',#312,6.5);
#312 = AXIS2_PLACEMENT_3D('',#313,#314,#315);
#313 = CARTESIAN_POINT('',(114.,57.,25.));
#314 = DIRECTION('',(0.,1.,0.));
#315 = DIRECTION('',(-0.,-0.,1.));
#316 = ORIENTED_EDGE('',*,*,#302,.T.);
#317 = CYLINDRICAL_SURFACE('',#318,6.5);
#318 = AXIS2_PLACEMENT_3D('',#319,#320,#321);
#319 = CARTESIAN_POINT('',(114.,57.,25.));
#320 = DIRECTION('',(-0.,-1.,-0.));
#321 = DIRECTION('',(-0.,-0.,1.));
#322 = ADVANCED_FACE('',(#323,#326),#337,.T.);
#323 = FACE_BOUND('',#324,.F.);
#324 = EDGE_LOOP('',(#325));
#325 = ORIENTED_EDGE('',*,*,#276,.T.);
#326 = FACE_BOUND('',#327,.F.);
#327 = EDGE_LOOP('',(#328));
#328 = ORIENTED_EDGE('',*,*,#329,.F.);
#329 = EDGE_CURVE('',#330,#330,#332,.T.);
#330 = VERTEX_POINT('',#331);
#331 = CARTESIAN_POINT('',(114.,4.,27.2));
#332 = CIRCLE('',#333,2.2);
#333 = AXIS2_PLACEMENT_3D('',#334,#335,#336);
#334 = CARTESIAN_POINT('',(114.,4.,25.));
#335 = DIRECTION('',(0.,1.,0.));
#336 = DIRECTION('',(-0.,-0.,1.));
#337 = PLANE('',#338);
#338 = AXIS2_PLACEMENT_3D('',#339,#340,#341);
#339 = CARTESIAN_POINT('',(114.,4.,25.));
#340 = DIRECTION('',(-0.,-1.,-0.));
#341 = DIRECTION('',(0.,0.,-1.));
#342 = ADVANCED_FACE('',(#343,#346),#357,.F.);
#343 = FACE_BOUND('',#344,.T.);
#344 = EDGE_LOOP('',(#345));
#345 = ORIENTED_EDGE('',*,*,#310,.T.);
#346 = FACE_BOUND('',#347,.T.);
#347 = EDGE_LOOP('',(#348));
#348 = ORIENTED_EDGE('',*,*,#349,.F.);
#349 = EDGE_CURVE('',#350,#350,#352,.T.);
#350 = VERTEX_POINT('',#351);
#351 = CARTESIAN_POINT('',(114.,57.,28.5));
#352 = CIRCLE('',#353,3.5);
#353 = AXIS2_PLACEMENT_3D('',#354,#355,#356);
#354 = CARTESIAN_POINT('',(114.,57.,25.));
#355 = DIRECTION('',(0.,1.,0.));
#356 = DIRECTION('',(-0.,-0.,1.));
#357 = PLANE('',#358);
#358 = AXIS2_PLACEMENT_3D('',#359,#360,#361);
#359 = CARTESIAN_POINT('',(114.,57.,25.));
#360 = DIRECTION('',(-0.,-1.,-0.));
#361 = DIRECTION('',(0.,0.,-1.));
#362 = ADVANCED_FACE('',(#363),#382,.F.);
#363 = FACE_BOUND('',#364,.T.);
#364 = EDGE_LOOP('',(#365,#366,#374,#381));
#365 = ORIENTED_EDGE('',*,*,#329,.F.);
#366 = ORIENTED_EDGE('',*,*,#367,.F.);
#367 = EDGE_CURVE('',#368,#330,#370,.T.);
#368 = VERTEX_POINT('',#369);
#369 = CARTESIAN_POINT('',(114.,50.5,27.2));
#370 = LINE('',#371,#372);
#371 = CARTESIAN_POINT('',(114.,50.5,27.2));
#372 = VECTOR('',#373,1.);
#373 = DIRECTION('',(-0.,-1.,-0.));
#374 = ORIENTED_EDGE('',*,*,#375,.T.);
#375 = EDGE_CURVE('',#368,#368,#376,.T.);
#376 = CIRCLE('',#377,2.2);
#377 = AXIS2_PLACEMENT_3D('',#378,#379,#380);
#378 = CARTESIAN_POINT('',(114.,50.5,25.));
#379 = DIRECTION('',(0.,1.,0.));
#380 = DIRECTION('',(-0.,-0.,1.));
#381 = ORIENTED_EDGE('',*,*,#367,.T.);
#382 = CYLINDRICAL_SURFACE('',#383,2.2);
#383 = AXIS2_PLACEMENT_3D('',#384,#385,#386);
#384 = CARTESIAN_POINT('',(114.,50.5,25.));
#385 = DIRECTION('',(-0.,-1.,-0.));
#386 = DIRECTION('',(-0.,-0.,1.));
#387 = ADVANCED_FACE('',(#388),#407,.T.);
#388 = FACE_BOUND('',#389,.F.);
#389 = EDGE_LOOP('',(#390,#391,#399,#406));
#390 = ORIENTED_EDGE('',*,*,#349,.F.);
#391 = ORIENTED_EDGE('',*,*,#392,.F.);
#392 = EDGE_CURVE('',#393,#350,#395,.T.);
#393 = VERTEX_POINT('',#394);
#394 = CARTESIAN_POINT('',(114.,60.5,28.5));
#395 = LINE('',#396,#397);
#396 = CARTESIAN_POINT('',(114.,60.5,28.5));
#397 = VECTOR('',#398,1.);
#398 = DIRECTION('',(-0.,-1.,-0.));
#399 = ORIENTED_EDGE('',*,*,#400,.T.);
#400 = EDGE_CURVE('',#393,#393,#401,.T.);
#401 = CIRCLE('',#402,3.5);
#402 = AXIS2_PLACEMENT_3D('',#403,#404,#405);
#403 = CARTESIAN_POINT('',(114.,60.5,25.));
#404 = DIRECTION('',(0.,1.,0.));
#405 = DIRECTION('',(-0.,-0.,1.));
#406 = ORIENTED_EDGE('',*,*,#392,.T.);
#407 = CYLINDRICAL_SURFACE('',#408,3.5);
#408 = AXIS2_PLACEMENT_3D('',#409,#410,#411);
#409 = CARTESIAN_POINT('',(114.,60.5,25.));
#410 = DIRECTION('',(-0.,-1.,-0.));
#411 = DIRECTION('',(-0.,-0.,1.));
#412 = ADVANCED_FACE('',(#413,#416),#435,.T.);
#413 = FACE_BOUND('',#414,.F.);
#414 = EDGE_LOOP('',(#415));
#415 = ORIENTED_EDGE('',*,*,#375,.T.);
#416 = FACE_BOUND('',#417,.F.);
#417 = EDGE_LOOP('',(#418,#429));
#418 = ORIENTED_EDGE('',*,*,#419,.F.);
#419 = EDGE_CURVE('',#420,#422,#424,.T.);
#420 = VERTEX_POINT('',#421);
#421 = CARTESIAN_POINT('',(115.31244047484,50.5,26.));
#422 = VERTEX_POINT('',#423);
#423 = CARTESIAN_POINT('',(112.68755952515,50.5,26.));
#424 = CIRCLE('',#425,1.65);
#425 = AXIS2_PLACEMENT_3D('',#426,#427,#428);
#426 = CARTESIAN_POINT('',(114.,50.5,25.));
#427 = DIRECTION('',(0.,1.,0.));
#428 = DIRECTION('',(-0.,-0.,1.));
#429 = ORIENTED_EDGE('',*,*,#430,.F.);
#430 = EDGE_CURVE('',#422,#420,#431,.T.);
#431 = LINE('',#432,#433);
#432 = CARTESIAN_POINT('',(112.75,50.5,26.));
#433 = VECTOR('',#434,1.);
#434 = DIRECTION('',(1.,-0.,-0.));
#435 = PLANE('',#436);
#436 = AXIS2_PLACEMENT_3D('',#437,#438,#439);
#437 = CARTESIAN_POINT('',(114.,50.5,25.));
#438 = DIRECTION('',(-0.,-1.,-0.));
#439 = DIRECTION('',(0.,0.,-1.));
#440 = ADVANCED_FACE('',(#441,#444),#463,.F.);
#441 = FACE_BOUND('',#442,.T.);
#442 = EDGE_LOOP('',(#443));
#443 = ORIENTED_EDGE('',*,*,#400,.T.);
#444 = FACE_BOUND('',#445,.T.);
#445 = EDGE_LOOP('',(#446,#457));
#446 = ORIENTED_EDGE('',*,*,#447,.F.);
#447 = EDGE_CURVE('',#448,#450,#452,.T.);
#448 = VERTEX_POINT('',#449);
#449 = CARTESIAN_POINT('',(115.31244047484,60.5,26.));
#450 = VERTEX_POINT('',#451);
#451 = CARTESIAN_POINT('',(112.68755952515,60.5,26.));
#452 = CIRCLE('',#453,1.65);
#453 = AXIS2_PLACEMENT_3D('',#454,#455,#456);
#454 = CARTESIAN_POINT('',(114.,60.5,25.));
#455 = DIRECTION('',(0.,1.,0.));
#456 = DIRECTION('',(-0.,-0.,1.));
#457 = ORIENTED_EDGE('',*,*,#458,.F.);
#458 = EDGE_CURVE('',#450,#448,#459,.T.);
#459 = LINE('',#460,#461);
#460 = CARTESIAN_POINT('',(112.75,60.5,26.));
#461 = VECTOR('',#462,1.);
#462 = DIRECTION('',(1.,-0.,-0.));
#463 = PLANE('',#464);
#464 = AXIS2_PLACEMENT_3D('',#465,#466,#467);
#465 = CARTESIAN_POINT('',(114.,60.5,25.));
#466 = DIRECTION('',(-0.,-1.,-0.));
#467 = DIRECTION('',(0.,0.,-1.));
#468 = ADVANCED_FACE('',(#469),#485,.F.);
#469 = FACE_BOUND('',#470,.T.);
#470 = EDGE_LOOP('',(#471,#472,#478,#479));
#471 = ORIENTED_EDGE('',*,*,#419,.F.);
#472 = ORIENTED_EDGE('',*,*,#473,.F.);
#473 = EDGE_CURVE('',#448,#420,#474,.T.);
#474 = LINE('',#475,#476);
#475 = CARTESIAN_POINT('',(115.31244047484,60.5,26.));
#476 = VECTOR('',#477,1.);
#477 = DIRECTION('',(-0.,-1.,-0.));
#478 = ORIENTED_EDGE('',*,*,#447,.T.);
#479 = ORIENTED_EDGE('',*,*,#480,.T.);
#480 = EDGE_CURVE('',#450,#422,#481,.T.);
#481 = LINE('',#482,#483);
#482 = CARTESIAN_POINT('',(112.68755952515,60.5,26.));
#483 = VECTOR('',#484,1.);
#484 = DIRECTION('',(-0.,-1.,-0.));
#485 = CYLINDRICAL_SURFACE('',#486,1.65);
#486 = AXIS2_PLACEMENT_3D('',#487,#488,#489);
#487 = CARTESIAN_POINT('',(114.,60.5,25.));
#488 = DIRECTION('',(-0.,-1.,-0.));
#489 = DIRECTION('',(-0.,-0.,1.));
#490 = ADVANCED_FACE('',(#491),#497,.F.);
#491 = FACE_BOUND('',#492,.T.);
#492 = EDGE_LOOP('',(#493,#494,#495,#496));
#493 = ORIENTED_EDGE('',*,*,#480,.F.);
#494 = ORIENTED_EDGE('',*,*,#458,.T.);
#495 = ORIENTED_EDGE('',*,*,#473,.T.);
#496 = ORIENTED_EDGE('',*,*,#430,.F.);
#497 = PLANE('',#498);
#498 = AXIS2_PLACEMENT_3D('',#499,#500,#501);
#499 = CARTESIAN_POINT('',(111.5,61.,26.));
#500 = DIRECTION('',(-0.,-0.,1.));
#501 = DIRECTION('',(-1.,0.,0.));
#502 = ( GEOMETRIC_REPRESENTATION_CONTEXT(3) 
GLOBAL_UNCERTAINTY_ASSIGNED_CONTEXT((#506)) GLOBAL_UNIT_ASSIGNED_CONTEXT
((#503,#504,#505)) REPRESENTATION_CONTEXT('Context #1',
  '3D Context with UNIT and UNCERTAINTY') );
#503 = ( LENGTH_UNIT() NAMED_UNIT(*) SI_UNIT(.MILLI.,.METRE.) );
#504 = ( NAMED_UNIT(*) PLANE_ANGLE_UNIT() SI_UNIT($,.RADIAN.) );
#505 = ( NAMED_UNIT(*) SI_UNIT($,.STERADIAN.) SOLID_ANGLE_UNIT() );
#506 = UNCERTAINTY_MEASURE_WITH_UNIT(LENGTH_MEASURE(1.E-07),#503,
  'distance_accuracy_value','confusion accuracy');
#507 = PRODUCT_RELATED_PRODUCT_CATEGORY('part',$,(#7));
ENDSEC;
END-ISO-10303-21;
