ISO-10303-21;
HEADER;
FILE_DESCRIPTION(('FreeCAD Model'),'2;1');
FILE_NAME('Open CASCADE Shape Model','2026-09-26T11:18:16',('FreeCAD'),(
    'FreeCAD'),'Open CASCADE STEP processor 7.8','FreeCAD','Unknown');
FILE_SCHEMA(('AUTOMOTIVE_DESIGN { 1 0 10303 214 1 1 1 1 }'));
ENDSEC;
DATA;
#1 = APPLICATION_PROTOCOL_DEFINITION('international standard',
  'automotive_design',2000,#2);
#2 = APPLICATION_CONTEXT(
  'core data for automotive mechanical design processes');
#3 = SHAPE_DEFINITION_REPRESENTATION(#4,#10);
#4 = PRODUCT_DEFINITION_SHAPE('','',#5);
#5 = PRODUCT_DEFINITION('design','',#6,#9);
#6 = PRODUCT_DEFINITION_FORMATION('','',#7);
#7 = PRODUCT('Open CASCADE STEP translator 7.8 27',
  'Open CASCADE STEP translator 7.8 27','',(#8));
#8 = PRODUCT_CONTEXT('',#2,'mechanical');
#9 = PRODUCT_DEFINITION_CONTEXT('part definition',#2,'design');
#10 = ADVANCED_BREP_SHAPE_REPRESENTATION('',(#11,#15),#449);
#11 = AXIS2_PLACEMENT_3D('',#12,#13,#14);
#12 = CARTESIAN_POINT('',(0.,0.,0.));
#13 = DIRECTION('',(0.,0.,1.));
#14 = DIRECTION('',(1.,0.,-0.));
#15 = MANIFOLD_SOLID_BREP('',#16);
#16 = CLOSED_SHELL('',(#17,#57,#122,#146,#204,#221,#233,#264,#288,#312,
    #329,#360,#384,#408,#425,#437));
#17 = ADVANCED_FACE('',(#18),#52,.F.);
#18 = FACE_BOUND('',#19,.T.);
#19 = EDGE_LOOP('',(#20,#30,#38,#46));
#20 = ORIENTED_EDGE('',*,*,#21,.F.);
#21 = EDGE_CURVE('',#22,#24,#26,.T.);
#22 = VERTEX_POINT('',#23);
#23 = CARTESIAN_POINT('',(27.75,58.,15.5));
#24 = VERTEX_POINT('',#25);
#25 = CARTESIAN_POINT('',(27.75,58.,18.5));
#26 = LINE('',#27,#28);
#27 = CARTESIAN_POINT('',(27.75,58.,15.5));
#28 = VECTOR('',#29,1.);
#29 = DIRECTION('',(-0.,-0.,1.));
#30 = ORIENTED_EDGE('',*,*,#31,.T.);
#31 = EDGE_CURVE('',#22,#32,#34,.T.);
#32 = VERTEX_POINT('',#33);
#33 = CARTESIAN_POINT('',(27.75,3.,15.5));
#34 = LINE('',#35,#36);
#35 = CARTESIAN_POINT('',(27.75,58.,15.5));
#36 = VECTOR('',#37,1.);
#37 = DIRECTION('',(-0.,-1.,-0.));
#38 = ORIENTED_EDGE('',*,*,#39,.T.);
#39 = EDGE_CURVE('',#32,#40,#42,.T.);
#40 = VERTEX_POINT('',#41);
#41 = CARTESIAN_POINT('',(27.75,3.,18.5));
#42 = LINE('',#43,#44);
#43 = CARTESIAN_POINT('',(27.75,3.,15.5));
#44 = VECTOR('',#45,1.);
#45 = DIRECTION('',(-0.,-0.,1.));
#46 = ORIENTED_EDGE('',*,*,#47,.F.);
#47 = EDGE_CURVE('',#24,#40,#48,.T.);
#48 = LINE('',#49,#50);
#49 = CARTESIAN_POINT('',(27.75,58.,18.5));
#50 = VECTOR('',#51,1.);
#51 = DIRECTION('',(-0.,-1.,-0.));
#52 = PLANE('',#53);
#53 = AXIS2_PLACEMENT_3D('',#54,#55,#56);
#54 = CARTESIAN_POINT('',(27.75,58.,15.5));
#55 = DIRECTION('',(1.,-0.,-0.));
#56 = DIRECTION('',(0.,0.,-1.));
#57 = ADVANCED_FACE('',(#58,#83),#117,.F.);
#58 = FACE_BOUND('',#59,.T.);
#59 = EDGE_LOOP('',(#60,#68,#69,#77));
#60 = ORIENTED_EDGE('',*,*,#61,.F.);
#61 = EDGE_CURVE('',#22,#62,#64,.T.);
#62 = VERTEX_POINT('',#63);
#63 = CARTESIAN_POINT('',(92.25,58.,15.5));
#64 = LINE('',#65,#66);
#65 = CARTESIAN_POINT('',(27.75,58.,15.5));
#66 = VECTOR('',#67,1.);
#67 = DIRECTION('',(1.,-0.,-0.));
#68 = ORIENTED_EDGE('',*,*,#21,.T.);
#69 = ORIENTED_EDGE('',*,*,#70,.T.);
#70 = EDGE_CURVE('',#24,#71,#73,.T.);
#71 = VERTEX_POINT('',#72);
#72 = CARTESIAN_POINT('',(92.25,58.,18.5));
#73 = LINE('',#74,#75);
#74 = CARTESIAN_POINT('',(27.75,58.,18.5));
#75 = VECTOR('',#76,1.);
#76 = DIRECTION('',(1.,-0.,-0.));
#77 = ORIENTED_EDGE('',*,*,#78,.F.);
#78 = EDGE_CURVE('',#62,#71,#79,.T.);
#79 = LINE('',#80,#81);
#80 = CARTESIAN_POINT('',(92.25,58.,15.5));
#81 = VECTOR('',#82,1.);
#82 = DIRECTION('',(-0.,-0.,1.));
#83 = FACE_BOUND('',#84,.T.);
#84 = EDGE_LOOP('',(#85,#95,#103,#111));
#85 = ORIENTED_EDGE('',*,*,#86,.F.);
#86 = EDGE_CURVE('',#87,#89,#91,.T.);
#87 = VERTEX_POINT('',#88);
#88 = CARTESIAN_POINT('',(29.75,58.,16.2));
#89 = VERTEX_POINT('',#90);
#90 = CARTESIAN_POINT('',(29.75,58.,17.6));
#91 = LINE('',#92,#93);
#92 = CARTESIAN_POINT('',(29.75,58.,16.2));
#93 = VECTOR('',#94,1.);
#94 = DIRECTION('',(-0.,-0.,1.));
#95 = ORIENTED_EDGE('',*,*,#96,.T.);
#96 = EDGE_CURVE('',#87,#97,#99,.T.);
#97 = VERTEX_POINT('',#98);
#98 = CARTESIAN_POINT('',(90.25,58.,16.2));
#99 = LINE('',#100,#101);
#100 = CARTESIAN_POINT('',(29.75,58.,16.2));
#101 = VECTOR('',#102,1.);
#102 = DIRECTION('',(1.,-0.,-0.));
#103 = ORIENTED_EDGE('',*,*,#104,.T.);
#104 = EDGE_CURVE('',#97,#105,#107,.T.);
#105 = VERTEX_POINT('',#106);
#106 = CARTESIAN_POINT('',(90.25,58.,17.6));
#107 = LINE('',#108,#109);
#108 = CARTESIAN_POINT('',(90.25,58.,16.2));
#109 = VECTOR('',#110,1.);
#110 = DIRECTION('',(-0.,-0.,1.));
#111 = ORIENTED_EDGE('',*,*,#112,.F.);
#112 = EDGE_CURVE('',#89,#105,#113,.T.);
#113 = LINE('',#114,#115);
#114 = CARTESIAN_POINT('',(29.75,58.,17.6));
#115 = VECTOR('',#116,1.);
#116 = DIRECTION('',(1.,-0.,-0.));
#117 = PLANE('',#118);
#118 = AXIS2_PLACEMENT_3D('',#119,#120,#121);
#119 = CARTESIAN_POINT('',(27.75,58.,15.5));
#120 = DIRECTION('',(-0.,-1.,-0.));
#121 = DIRECTION('',(0.,0.,-1.));
#122 = ADVANCED_FACE('',(#123),#141,.T.);
#123 = FACE_BOUND('',#124,.F.);
#124 = EDGE_LOOP('',(#125,#126,#127,#135));
#125 = ORIENTED_EDGE('',*,*,#47,.F.);
#126 = ORIENTED_EDGE('',*,*,#70,.T.);
#127 = ORIENTED_EDGE('',*,*,#128,.T.);
#128 = EDGE_CURVE('',#71,#129,#131,.T.);
#129 = VERTEX_POINT('',#130);
#130 = CARTESIAN_POINT('',(92.25,3.,18.5));
#131 = LINE('',#132,#133);
#132 = CARTESIAN_POINT('',(92.25,58.,18.5));
#133 = VECTOR('',#134,1.);
#134 = DIRECTION('',(-0.,-1.,-0.));
#135 = ORIENTED_EDGE('',*,*,#136,.F.);
#136 = EDGE_CURVE('',#40,#129,#137,.T.);
#137 = LINE('',#138,#139);
#138 = CARTESIAN_POINT('',(27.75,3.,18.5));
#139 = VECTOR('',#140,1.);
#140 = DIRECTION('',(1.,-0.,-0.));
#141 = PLANE('',#142);
#142 = AXIS2_PLACEMENT_3D('',#143,#144,#145);
#143 = CARTESIAN_POINT('',(27.75,58.,18.5));
#144 = DIRECTION('',(-0.,-0.,1.));
#145 = DIRECTION('',(-1.,0.,0.));
#146 = ADVANCED_FACE('',(#147,#165),#199,.T.);
#147 = FACE_BOUND('',#148,.F.);
#148 = EDGE_LOOP('',(#149,#157,#158,#159));
#149 = ORIENTED_EDGE('',*,*,#150,.F.);
#150 = EDGE_CURVE('',#32,#151,#153,.T.);
#151 = VERTEX_POINT('',#152);
#152 = CARTESIAN_POINT('',(92.25,3.,15.5));
#153 = LINE('',#154,#155);
#154 = CARTESIAN_POINT('',(27.75,3.,15.5));
#155 = VECTOR('',#156,1.);
#156 = DIRECTION('',(1.,-0.,-0.));
#157 = ORIENTED_EDGE('',*,*,#39,.T.);
#158 = ORIENTED_EDGE('',*,*,#136,.T.);
#159 = ORIENTED_EDGE('',*,*,#160,.F.);
#160 = EDGE_CURVE('',#151,#129,#161,.T.);
#161 = LINE('',#162,#163);
#162 = CARTESIAN_POINT('',(92.25,3.,15.5));
#163 = VECTOR('',#164,1.);
#164 = DIRECTION('',(-0.,-0.,1.));
#165 = FACE_BOUND('',#166,.F.);
#166 = EDGE_LOOP('',(#167,#177,#185,#193));
#167 = ORIENTED_EDGE('',*,*,#168,.F.);
#168 = EDGE_CURVE('',#169,#171,#173,.T.);
#169 = VERTEX_POINT('',#170);
#170 = CARTESIAN_POINT('',(29.75,3.,16.2));
#171 = VERTEX_POINT('',#172);
#172 = CARTESIAN_POINT('',(29.75,3.,17.6));
#173 = LINE('',#174,#175);
#174 = CARTESIAN_POINT('',(29.75,3.,16.2));
#175 = VECTOR('',#176,1.);
#176 = DIRECTION('',(-0.,-0.,1.));
#177 = ORIENTED_EDGE('',*,*,#178,.T.);
#178 = EDGE_CURVE('',#169,#179,#181,.T.);
#179 = VERTEX_POINT('',#180);
#180 = CARTESIAN_POINT('',(90.25,3.,16.2));
#181 = LINE('',#182,#183);
#182 = CARTESIAN_POINT('',(29.75,3.,16.2));
#183 = VECTOR('',#184,1.);
#184 = DIRECTION('',(1.,-0.,-0.));
#185 = ORIENTED_EDGE('',*,*,#186,.T.);
#186 = EDGE_CURVE('',#179,#187,#189,.T.);
#187 = VERTEX_POINT('',#188);
#188 = CARTESIAN_POINT('',(90.25,3.,17.6));
#189 = LINE('',#190,#191);
#190 = CARTESIAN_POINT('',(90.25,3.,16.2));
#191 = VECTOR('',#192,1.);
#192 = DIRECTION('',(-0.,-0.,1.));
#193 = ORIENTED_EDGE('',*,*,#194,.F.);
#194 = EDGE_CURVE('',#171,#187,#195,.T.);
#195 = LINE('',#196,#197);
#196 = CARTESIAN_POINT('',(29.75,3.,17.6));
#197 = VECTOR('',#198,1.);
#198 = DIRECTION('',(1.,-0.,-0.));
#199 = PLANE('',#200);
#200 = AXIS2_PLACEMENT_3D('',#201,#202,#203);
#201 = CARTESIAN_POINT('',(27.75,3.,15.5));
#202 = DIRECTION('',(-0.,-1.,-0.));
#203 = DIRECTION('',(0.,0.,-1.));
#204 = ADVANCED_FACE('',(#205),#216,.F.);
#205 = FACE_BOUND('',#206,.T.);
#206 = EDGE_LOOP('',(#207,#208,#209,#215));
#207 = ORIENTED_EDGE('',*,*,#31,.F.);
#208 = ORIENTED_EDGE('',*,*,#61,.T.);
#209 = ORIENTED_EDGE('',*,*,#210,.T.);
#210 = EDGE_CURVE('',#62,#151,#211,.T.);
#211 = LINE('',#212,#213);
#212 = CARTESIAN_POINT('',(92.25,58.,15.5));
#213 = VECTOR('',#214,1.);
#214 = DIRECTION('',(-0.,-1.,-0.));
#215 = ORIENTED_EDGE('',*,*,#150,.F.);
#216 = PLANE('',#217);
#217 = AXIS2_PLACEMENT_3D('',#218,#219,#220);
#218 = CARTESIAN_POINT('',(27.75,58.,15.5));
#219 = DIRECTION('',(-0.,-0.,1.));
#220 = DIRECTION('',(-1.,0.,0.));
#221 = ADVANCED_FACE('',(#222),#228,.T.);
#222 = FACE_BOUND('',#223,.F.);
#223 = EDGE_LOOP('',(#224,#225,#226,#227));
#224 = ORIENTED_EDGE('',*,*,#78,.F.);
#225 = ORIENTED_EDGE('',*,*,#210,.T.);
#226 = ORIENTED_EDGE('',*,*,#160,.T.);
#227 = ORIENTED_EDGE('',*,*,#128,.F.);
#228 = PLANE('',#229);
#229 = AXIS2_PLACEMENT_3D('',#230,#231,#232);
#230 = CARTESIAN_POINT('',(92.25,58.,15.5));
#231 = DIRECTION('',(1.,-0.,-0.));
#232 = DIRECTION('',(0.,0.,-1.));
#233 = ADVANCED_FACE('',(#234),#259,.F.);
#234 = FACE_BOUND('',#235,.T.);
#235 = EDGE_LOOP('',(#236,#246,#252,#253));
#236 = ORIENTED_EDGE('',*,*,#237,.F.);
#237 = EDGE_CURVE('',#238,#240,#242,.T.);
#238 = VERTEX_POINT('',#239);
#239 = CARTESIAN_POINT('',(29.75,59.05,16.2));
#240 = VERTEX_POINT('',#241);
#241 = CARTESIAN_POINT('',(29.75,59.05,17.6));
#242 = LINE('',#243,#244);
#243 = CARTESIAN_POINT('',(29.75,59.05,16.2));
#244 = VECTOR('',#245,1.);
#245 = DIRECTION('',(-0.,-0.,1.));
#246 = ORIENTED_EDGE('',*,*,#247,.T.);
#247 = EDGE_CURVE('',#238,#87,#248,.T.);
#248 = LINE('',#249,#250);
#249 = CARTESIAN_POINT('',(29.75,59.05,16.2));
#250 = VECTOR('',#251,1.);
#251 = DIRECTION('',(-0.,-1.,-0.));
#252 = ORIENTED_EDGE('',*,*,#86,.T.);
#253 = ORIENTED_EDGE('',*,*,#254,.F.);
#254 = EDGE_CURVE('',#240,#89,#255,.T.);
#255 = LINE('',#256,#257);
#256 = CARTESIAN_POINT('',(29.75,59.05,17.6));
#257 = VECTOR('',#258,1.);
#258 = DIRECTION('',(-0.,-1.,-0.));
#259 = PLANE('',#260);
#260 = AXIS2_PLACEMENT_3D('',#261,#262,#263);
#261 = CARTESIAN_POINT('',(29.75,59.05,16.2));
#262 = DIRECTION('',(1.,-0.,-0.));
#263 = DIRECTION('',(0.,0.,-1.));
#264 = ADVANCED_FACE('',(#265),#283,.T.);
#265 = FACE_BOUND('',#266,.F.);
#266 = EDGE_LOOP('',(#267,#268,#276,#282));
#267 = ORIENTED_EDGE('',*,*,#254,.F.);
#268 = ORIENTED_EDGE('',*,*,#269,.T.);
#269 = EDGE_CURVE('',#240,#270,#272,.T.);
#270 = VERTEX_POINT('',#271);
#271 = CARTESIAN_POINT('',(90.25,59.05,17.6));
#272 = LINE('',#273,#274);
#273 = CARTESIAN_POINT('',(29.75,59.05,17.6));
#274 = VECTOR('',#275,1.);
#275 = DIRECTION('',(1.,-0.,-0.));
#276 = ORIENTED_EDGE('',*,*,#277,.T.);
#277 = EDGE_CURVE('',#270,#105,#278,.T.);
#278 = LINE('',#279,#280);
#279 = CARTESIAN_POINT('',(90.25,59.05,17.6));
#280 = VECTOR('',#281,1.);
#281 = DIRECTION('',(-0.,-1.,-0.));
#282 = ORIENTED_EDGE('',*,*,#112,.F.);
#283 = PLANE('',#284);
#284 = AXIS2_PLACEMENT_3D('',#285,#286,#287);
#285 = CARTESIAN_POINT('',(29.75,59.05,17.6));
#286 = DIRECTION('',(-0.,-0.,1.));
#287 = DIRECTION('',(-1.,0.,0.));
#288 = ADVANCED_FACE('',(#289),#307,.T.);
#289 = FACE_BOUND('',#290,.F.);
#290 = EDGE_LOOP('',(#291,#299,#305,#306));
#291 = ORIENTED_EDGE('',*,*,#292,.F.);
#292 = EDGE_CURVE('',#293,#270,#295,.T.);
#293 = VERTEX_POINT('',#294);
#294 = CARTESIAN_POINT('',(90.25,59.05,16.2));
#295 = LINE('',#296,#297);
#296 = CARTESIAN_POINT('',(90.25,59.05,16.2));
#297 = VECTOR('',#298,1.);
#298 = DIRECTION('',(-0.,-0.,1.));
#299 = ORIENTED_EDGE('',*,*,#300,.T.);
#300 = EDGE_CURVE('',#293,#97,#301,.T.);
#301 = LINE('',#302,#303);
#302 = CARTESIAN_POINT('',(90.25,59.05,16.2));
#303 = VECTOR('',#304,1.);
#304 = DIRECTION('',(-0.,-1.,-0.));
#305 = ORIENTED_EDGE('',*,*,#104,.T.);
#306 = ORIENTED_EDGE('',*,*,#277,.F.);
#307 = PLANE('',#308);
#308 = AXIS2_PLACEMENT_3D('',#309,#310,#311);
#309 = CARTESIAN_POINT('',(90.25,59.05,16.2));
#310 = DIRECTION('',(1.,-0.,-0.));
#311 = DIRECTION('',(0.,0.,-1.));
#312 = ADVANCED_FACE('',(#313),#324,.F.);
#313 = FACE_BOUND('',#314,.T.);
#314 = EDGE_LOOP('',(#315,#316,#322,#323));
#315 = ORIENTED_EDGE('',*,*,#247,.F.);
#316 = ORIENTED_EDGE('',*,*,#317,.T.);
#317 = EDGE_CURVE('',#238,#293,#318,.T.);
#318 = LINE('',#319,#320);
#319 = CARTESIAN_POINT('',(29.75,59.05,16.2));
#320 = VECTOR('',#321,1.);
#321 = DIRECTION('',(1.,-0.,-0.));
#322 = ORIENTED_EDGE('',*,*,#300,.T.);
#323 = ORIENTED_EDGE('',*,*,#96,.F.);
#324 = PLANE('',#325);
#325 = AXIS2_PLACEMENT_3D('',#326,#327,#328);
#326 = CARTESIAN_POINT('',(29.75,59.05,16.2));
#327 = DIRECTION('',(-0.,-0.,1.));
#328 = DIRECTION('',(-1.,0.,0.));
#329 = ADVANCED_FACE('',(#330),#355,.F.);
#330 = FACE_BOUND('',#331,.T.);
#331 = EDGE_LOOP('',(#332,#333,#341,#349));
#332 = ORIENTED_EDGE('',*,*,#168,.F.);
#333 = ORIENTED_EDGE('',*,*,#334,.T.);
#334 = EDGE_CURVE('',#169,#335,#337,.T.);
#335 = VERTEX_POINT('',#336);
#336 = CARTESIAN_POINT('',(29.75,1.95,16.2));
#337 = LINE('',#338,#339);
#338 = CARTESIAN_POINT('',(29.75,3.,16.2));
#339 = VECTOR('',#340,1.);
#340 = DIRECTION('',(-0.,-1.,-0.));
#341 = ORIENTED_EDGE('',*,*,#342,.T.);
#342 = EDGE_CURVE('',#335,#343,#345,.T.);
#343 = VERTEX_POINT('',#344);
#344 = CARTESIAN_POINT('',(29.75,1.95,17.6));
#345 = LINE('',#346,#347);
#346 = CARTESIAN_POINT('',(29.75,1.95,16.2));
#347 = VECTOR('',#348,1.);
#348 = DIRECTION('',(-0.,-0.,1.));
#349 = ORIENTED_EDGE('',*,*,#350,.F.);
#350 = EDGE_CURVE('',#171,#343,#351,.T.);
#351 = LINE('',#352,#353);
#352 = CARTESIAN_POINT('',(29.75,3.,17.6));
#353 = VECTOR('',#354,1.);
#354 = DIRECTION('',(-0.,-1.,-0.));
#355 = PLANE('',#356);
#356 = AXIS2_PLACEMENT_3D('',#357,#358,#359);
#357 = CARTESIAN_POINT('',(29.75,3.,16.2));
#358 = DIRECTION('',(1.,-0.,-0.));
#359 = DIRECTION('',(0.,0.,-1.));
#360 = ADVANCED_FACE('',(#361),#379,.T.);
#361 = FACE_BOUND('',#362,.F.);
#362 = EDGE_LOOP('',(#363,#364,#365,#373));
#363 = ORIENTED_EDGE('',*,*,#350,.F.);
#364 = ORIENTED_EDGE('',*,*,#194,.T.);
#365 = ORIENTED_EDGE('',*,*,#366,.T.);
#366 = EDGE_CURVE('',#187,#367,#369,.T.);
#367 = VERTEX_POINT('',#368);
#368 = CARTESIAN_POINT('',(90.25,1.95,17.6));
#369 = LINE('',#370,#371);
#370 = CARTESIAN_POINT('',(90.25,3.,17.6));
#371 = VECTOR('',#372,1.);
#372 = DIRECTION('',(-0.,-1.,-0.));
#373 = ORIENTED_EDGE('',*,*,#374,.F.);
#374 = EDGE_CURVE('',#343,#367,#375,.T.);
#375 = LINE('',#376,#377);
#376 = CARTESIAN_POINT('',(29.75,1.95,17.6));
#377 = VECTOR('',#378,1.);
#378 = DIRECTION('',(1.,-0.,-0.));
#379 = PLANE('',#380);
#380 = AXIS2_PLACEMENT_3D('',#381,#382,#383);
#381 = CARTESIAN_POINT('',(29.75,3.,17.6));
#382 = DIRECTION('',(-0.,-0.,1.));
#383 = DIRECTION('',(-1.,0.,0.));
#384 = ADVANCED_FACE('',(#385),#403,.T.);
#385 = FACE_BOUND('',#386,.F.);
#386 = EDGE_LOOP('',(#387,#388,#396,#402));
#387 = ORIENTED_EDGE('',*,*,#186,.F.);
#388 = ORIENTED_EDGE('',*,*,#389,.T.);
#389 = EDGE_CURVE('',#179,#390,#392,.T.);
#390 = VERTEX_POINT('',#391);
#391 = CARTESIAN_POINT('',(90.25,1.95,16.2));
#392 = LINE('',#393,#394);
#393 = CARTESIAN_POINT('',(90.25,3.,16.2));
#394 = VECTOR('',#395,1.);
#395 = DIRECTION('',(-0.,-1.,-0.));
#396 = ORIENTED_EDGE('',*,*,#397,.T.);
#397 = EDGE_CURVE('',#390,#367,#398,.T.);
#398 = LINE('',#399,#400);
#399 = CARTESIAN_POINT('',(90.25,1.95,16.2));
#400 = VECTOR('',#401,1.);
#401 = DIRECTION('',(-0.,-0.,1.));
#402 = ORIENTED_EDGE('',*,*,#366,.F.);
#403 = PLANE('',#404);
#404 = AXIS2_PLACEMENT_3D('',#405,#406,#407);
#405 = CARTESIAN_POINT('',(90.25,3.,16.2));
#406 = DIRECTION('',(1.,-0.,-0.));
#407 = DIRECTION('',(0.,0.,-1.));
#408 = ADVANCED_FACE('',(#409),#420,.F.);
#409 = FACE_BOUND('',#410,.T.);
#410 = EDGE_LOOP('',(#411,#412,#413,#414));
#411 = ORIENTED_EDGE('',*,*,#334,.F.);
#412 = ORIENTED_EDGE('',*,*,#178,.T.);
#413 = ORIENTED_EDGE('',*,*,#389,.T.);
#414 = ORIENTED_EDGE('',*,*,#415,.F.);
#415 = EDGE_CURVE('',#335,#390,#416,.T.);
#416 = LINE('',#417,#418);
#417 = CARTESIAN_POINT('',(29.75,1.95,16.2));
#418 = VECTOR('',#419,1.);
#419 = DIRECTION('',(1.,-0.,-0.));
#420 = PLANE('',#421);
#421 = AXIS2_PLACEMENT_3D('',#422,#423,#424);
#422 = CARTESIAN_POINT('',(29.75,3.,16.2));
#423 = DIRECTION('',(-0.,-0.,1.));
#424 = DIRECTION('',(-1.,0.,0.));
#425 = ADVANCED_FACE('',(#426),#432,.F.);
#426 = FACE_BOUND('',#427,.T.);
#427 = EDGE_LOOP('',(#428,#429,#430,#431));
#428 = ORIENTED_EDGE('',*,*,#317,.F.);
#429 = ORIENTED_EDGE('',*,*,#237,.T.);
#430 = ORIENTED_EDGE('',*,*,#269,.T.);
#431 = ORIENTED_EDGE('',*,*,#292,.F.);
#432 = PLANE('',#433);
#433 = AXIS2_PLACEMENT_3D('',#434,#435,#436);
#434 = CARTESIAN_POINT('',(29.75,59.05,16.2));
#435 = DIRECTION('',(-0.,-1.,-0.));
#436 = DIRECTION('',(0.,0.,-1.));
#437 = ADVANCED_FACE('',(#438),#444,.T.);
#438 = FACE_BOUND('',#439,.F.);
#439 = EDGE_LOOP('',(#440,#441,#442,#443));
#440 = ORIENTED_EDGE('',*,*,#415,.F.);
#441 = ORIENTED_EDGE('',*,*,#342,.T.);
#442 = ORIENTED_EDGE('',*,*,#374,.T.);
#443 = ORIENTED_EDGE('',*,*,#397,.F.);
#444 = PLANE('',#445);
#445 = AXIS2_PLACEMENT_3D('',#446,#447,#448);
#446 = CARTESIAN_POINT('',(29.75,1.95,16.2));
#447 = DIRECTION('',(-0.,-1.,-0.));
#448 = DIRECTION('',(0.,0.,-1.));
#449 = ( GEOMETRIC_REPRESENTATION_CONTEXT(3) 
GLOBAL_UNCERTAINTY_ASSIGNED_CONTEXT((#453)) GLOBAL_UNIT_ASSIGNED_CONTEXT
((#450,#451,#452)) REPRESENTATION_CONTEXT('Context #1',
  '3D Context with UNIT and UNCERTAINTY') );
#450 = ( LENGTH_UNIT() NAMED_UNIT(*) SI_UNIT(.MILLI.,.METRE.) );
#451 = ( NAMED_UNIT(*) PLANE_ANGLE_UNIT() SI_UNIT($,.RADIAN.) );
#452 = ( NAMED_UNIT(*) SI_UNIT($,.STERADIAN.) SOLID_ANGLE_UNIT() );
#453 = UNCERTAINTY_MEASURE_WITH_UNIT(LENGTH_MEASURE(1.E-07),#450,
  'distance_accuracy_value','confusion accuracy');
#454 = PRODUCT_RELATED_PRODUCT_CATEGORY('part',$,(#7));
ENDSEC;
END-ISO-10303-21;
