ISO-10303-21;
HEADER;
FILE_DESCRIPTION(('FreeCAD Model'),'2;1');
FILE_NAME('Open CASCADE Shape Model','2026-09-26T10:02:31',('FreeCAD'),(
    'FreeCAD'),'Open CASCADE STEP processor 7.8','FreeCAD','Unknown');
FILE_SCHEMA(('AUTOMOTIVE_DESIGN { 1 0 10303 214 1 1 1 1 }'));
ENDSEC;
DATA;
#1 = APPLICATION_PROTOCOL_DEFINITION('international standard',
  'automotive_design',2000,#2);
#2 = APPLICATION_CONTEXT(
  'core data for automotive mechanical design processes');
#3 = SHAPE_DEFINITION_REPRESENTATION(#4,#10);
#4 = PRODUCT_DEFINITION_SHAPE('','',#5);
#5 = PRODUCT_DEFINITION('design','',#6,#9);
#6 = PRODUCT_DEFINITION_FORMATION('','',#7);
#7 = PRODUCT('Open CASCADE STEP translator 7.8 35',
  'Open CASCADE STEP translator 7.8 35','',(#8));
#8 = PRODUCT_CONTEXT('',#2,'mechanical');
#9 = PRODUCT_DEFINITION_CONTEXT('part definition',#2,'design');
#10 = SHAPE_REPRESENTATION('',(#11,#15,#1165),#2315);
#11 = AXIS2_PLACEMENT_3D('',#12,#13,#14);
#12 = CARTESIAN_POINT('',(0.,0.,0.));
#13 = DIRECTION('',(0.,0.,1.));
#14 = DIRECTION('',(1.,0.,-0.));
#15 = MANIFOLD_SOLID_BREP('',#16);
#16 = CLOSED_SHELL('',(#17,#57,#138,#184,#258,#375,#387,#418,#442,#466,
    #490,#514,#531,#556,#581,#612,#636,#660,#684,#708,#725,#756,#780,
    #804,#828,#852,#869,#900,#924,#948,#972,#996,#1013,#1038,#1055,#1072
    ,#1097,#1122,#1147,#1156));
#17 = ADVANCED_FACE('',(#18),#52,.F.);
#18 = FACE_BOUND('',#19,.T.);
#19 = EDGE_LOOP('',(#20,#30,#38,#46));
#20 = ORIENTED_EDGE('',*,*,#21,.F.);
#21 = EDGE_CURVE('',#22,#24,#26,.T.);
#22 = VERTEX_POINT('',#23);
#23 = CARTESIAN_POINT('',(12.,58.,2.));
#24 = VERTEX_POINT('',#25);
#25 = CARTESIAN_POINT('',(12.,58.,10.));
#26 = LINE('',#27,#28);
#27 = CARTESIAN_POINT('',(12.,58.,2.));
#28 = VECTOR('',#29,1.);
#29 = DIRECTION('',(-0.,-0.,1.));
#30 = ORIENTED_EDGE('',*,*,#31,.T.);
#31 = EDGE_CURVE('',#22,#32,#34,.T.);
#32 = VERTEX_POINT('',#33);
#33 = CARTESIAN_POINT('',(12.,3.,2.));
#34 = LINE('',#35,#36);
#35 = CARTESIAN_POINT('',(12.,58.,2.));
#36 = VECTOR('',#37,1.);
#37 = DIRECTION('',(-0.,-1.,-0.));
#38 = ORIENTED_EDGE('',*,*,#39,.T.);
#39 = EDGE_CURVE('',#32,#40,#42,.T.);
#40 = VERTEX_POINT('',#41);
#41 = CARTESIAN_POINT('',(12.,3.,10.));
#42 = LINE('',#43,#44);
#43 = CARTESIAN_POINT('',(12.,3.,2.));
#44 = VECTOR('',#45,1.);
#45 = DIRECTION('',(-0.,-0.,1.));
#46 = ORIENTED_EDGE('',*,*,#47,.F.);
#47 = EDGE_CURVE('',#24,#40,#48,.T.);
#48 = LINE('',#49,#50);
#49 = CARTESIAN_POINT('',(12.,58.,10.));
#50 = VECTOR('',#51,1.);
#51 = DIRECTION('',(-0.,-1.,-0.));
#52 = PLANE('',#53);
#53 = AXIS2_PLACEMENT_3D('',#54,#55,#56);
#54 = CARTESIAN_POINT('',(12.,58.,2.));
#55 = DIRECTION('',(1.,-0.,-0.));
#56 = DIRECTION('',(0.,0.,-1.));
#57 = ADVANCED_FACE('',(#58,#83),#133,.F.);
#58 = FACE_BOUND('',#59,.T.);
#59 = EDGE_LOOP('',(#60,#68,#69,#77));
#60 = ORIENTED_EDGE('',*,*,#61,.F.);
#61 = EDGE_CURVE('',#22,#62,#64,.T.);
#62 = VERTEX_POINT('',#63);
#63 = CARTESIAN_POINT('',(24.,58.,2.));
#64 = LINE('',#65,#66);
#65 = CARTESIAN_POINT('',(12.,58.,2.));
#66 = VECTOR('',#67,1.);
#67 = DIRECTION('',(1.,-0.,-0.));
#68 = ORIENTED_EDGE('',*,*,#21,.T.);
#69 = ORIENTED_EDGE('',*,*,#70,.T.);
#70 = EDGE_CURVE('',#24,#71,#73,.T.);
#71 = VERTEX_POINT('',#72);
#72 = CARTESIAN_POINT('',(24.,58.,10.));
#73 = LINE('',#74,#75);
#74 = CARTESIAN_POINT('',(12.,58.,10.));
#75 = VECTOR('',#76,1.);
#76 = DIRECTION('',(1.,-0.,-0.));
#77 = ORIENTED_EDGE('',*,*,#78,.F.);
#78 = EDGE_CURVE('',#62,#71,#79,.T.);
#79 = LINE('',#80,#81);
#80 = CARTESIAN_POINT('',(24.,58.,2.));
#81 = VECTOR('',#82,1.);
#82 = DIRECTION('',(-0.,-0.,1.));
#83 = FACE_BOUND('',#84,.T.);
#84 = EDGE_LOOP('',(#85,#95,#103,#111,#119,#127));
#85 = ORIENTED_EDGE('',*,*,#86,.T.);
#86 = EDGE_CURVE('',#87,#89,#91,.T.);
#87 = VERTEX_POINT('',#88);
#88 = CARTESIAN_POINT('',(20.9,58.,4.32568421935));
#89 = VERTEX_POINT('',#90);
#90 = CARTESIAN_POINT('',(20.9,58.,7.67431578065));
#91 = LINE('',#92,#93);
#92 = CARTESIAN_POINT('',(20.9,58.,4.32568421935));
#93 = VECTOR('',#94,1.);
#94 = DIRECTION('',(-0.,-0.,1.));
#95 = ORIENTED_EDGE('',*,*,#96,.T.);
#96 = EDGE_CURVE('',#89,#97,#99,.T.);
#97 = VERTEX_POINT('',#98);
#98 = CARTESIAN_POINT('',(18.,58.,9.3486315613));
#99 = LINE('',#100,#101);
#100 = CARTESIAN_POINT('',(20.9,58.,7.67431578065));
#101 = VECTOR('',#102,1.);
#102 = DIRECTION('',(-0.866025403784,-0.,0.5));
#103 = ORIENTED_EDGE('',*,*,#104,.T.);
#104 = EDGE_CURVE('',#97,#105,#107,.T.);
#105 = VERTEX_POINT('',#106);
#106 = CARTESIAN_POINT('',(15.1,58.,7.67431578065));
#107 = LINE('',#108,#109);
#108 = CARTESIAN_POINT('',(18.,58.,9.3486315613));
#109 = VECTOR('',#110,1.);
#110 = DIRECTION('',(-0.866025403784,-0.,-0.5));
#111 = ORIENTED_EDGE('',*,*,#112,.T.);
#112 = EDGE_CURVE('',#105,#113,#115,.T.);
#113 = VERTEX_POINT('',#114);
#114 = CARTESIAN_POINT('',(15.1,58.,4.32568421935));
#115 = LINE('',#116,#117);
#116 = CARTESIAN_POINT('',(15.1,58.,7.67431578065));
#117 = VECTOR('',#118,1.);
#118 = DIRECTION('',(5.304724652093E-16,-0.,-1.));
#119 = ORIENTED_EDGE('',*,*,#120,.T.);
#120 = EDGE_CURVE('',#113,#121,#123,.T.);
#121 = VERTEX_POINT('',#122);
#122 = CARTESIAN_POINT('',(18.,58.,2.6513684387));
#123 = LINE('',#124,#125);
#124 = CARTESIAN_POINT('',(15.1,58.,4.32568421935));
#125 = VECTOR('',#126,1.);
#126 = DIRECTION('',(0.866025403784,-0.,-0.5));
#127 = ORIENTED_EDGE('',*,*,#128,.T.);
#128 = EDGE_CURVE('',#121,#87,#129,.T.);
#129 = LINE('',#130,#131);
#130 = CARTESIAN_POINT('',(18.,58.,2.6513684387));
#131 = VECTOR('',#132,1.);
#132 = DIRECTION('',(0.866025403784,-0.,0.5));
#133 = PLANE('',#134);
#134 = AXIS2_PLACEMENT_3D('',#135,#136,#137);
#135 = CARTESIAN_POINT('',(12.,58.,2.));
#136 = DIRECTION('',(-0.,-1.,-0.));
#137 = DIRECTION('',(0.,0.,-1.));
#138 = ADVANCED_FACE('',(#139,#157,#168),#179,.T.);
#139 = FACE_BOUND('',#140,.F.);
#140 = EDGE_LOOP('',(#141,#142,#143,#151));
#141 = ORIENTED_EDGE('',*,*,#47,.F.);
#142 = ORIENTED_EDGE('',*,*,#70,.T.);
#143 = ORIENTED_EDGE('',*,*,#144,.T.);
#144 = EDGE_CURVE('',#71,#145,#147,.T.);
#145 = VERTEX_POINT('',#146);
#146 = CARTESIAN_POINT('',(24.,3.,10.));
#147 = LINE('',#148,#149);
#148 = CARTESIAN_POINT('',(24.,58.,10.));
#149 = VECTOR('',#150,1.);
#150 = DIRECTION('',(-0.,-1.,-0.));
#151 = ORIENTED_EDGE('',*,*,#152,.F.);
#152 = EDGE_CURVE('',#40,#145,#153,.T.);
#153 = LINE('',#154,#155);
#154 = CARTESIAN_POINT('',(12.,3.,10.));
#155 = VECTOR('',#156,1.);
#156 = DIRECTION('',(1.,-0.,-0.));
#157 = FACE_BOUND('',#158,.F.);
#158 = EDGE_LOOP('',(#159));
#159 = ORIENTED_EDGE('',*,*,#160,.F.);
#160 = EDGE_CURVE('',#161,#161,#163,.T.);
#161 = VERTEX_POINT('',#162);
#162 = CARTESIAN_POINT('',(19.75,46.5,10.));
#163 = CIRCLE('',#164,1.75);
#164 = AXIS2_PLACEMENT_3D('',#165,#166,#167);
#165 = CARTESIAN_POINT('',(18.,46.5,10.));
#166 = DIRECTION('',(0.,0.,-1.));
#167 = DIRECTION('',(1.,-0.,-0.));
#168 = FACE_BOUND('',#169,.F.);
#169 = EDGE_LOOP('',(#170));
#170 = ORIENTED_EDGE('',*,*,#171,.F.);
#171 = EDGE_CURVE('',#172,#172,#174,.T.);
#172 = VERTEX_POINT('',#173);
#173 = CARTESIAN_POINT('',(19.65,14.5,10.));
#174 = CIRCLE('',#175,1.65);
#175 = AXIS2_PLACEMENT_3D('',#176,#177,#178);
#176 = CARTESIAN_POINT('',(18.,14.5,10.));
#177 = DIRECTION('',(0.,0.,-1.));
#178 = DIRECTION('',(1.,-0.,-0.));
#179 = PLANE('',#180);
#180 = AXIS2_PLACEMENT_3D('',#181,#182,#183);
#181 = CARTESIAN_POINT('',(12.,58.,10.));
#182 = DIRECTION('',(-0.,-0.,1.));
#183 = DIRECTION('',(-1.,0.,0.));
#184 = ADVANCED_FACE('',(#185,#203),#253,.T.);
#185 = FACE_BOUND('',#186,.F.);
#186 = EDGE_LOOP('',(#187,#195,#196,#197));
#187 = ORIENTED_EDGE('',*,*,#188,.F.);
#188 = EDGE_CURVE('',#32,#189,#191,.T.);
#189 = VERTEX_POINT('',#190);
#190 = CARTESIAN_POINT('',(24.,3.,2.));
#191 = LINE('',#192,#193);
#192 = CARTESIAN_POINT('',(12.,3.,2.));
#193 = VECTOR('',#194,1.);
#194 = DIRECTION('',(1.,-0.,-0.));
#195 = ORIENTED_EDGE('',*,*,#39,.T.);
#196 = ORIENTED_EDGE('',*,*,#152,.T.);
#197 = ORIENTED_EDGE('',*,*,#198,.F.);
#198 = EDGE_CURVE('',#189,#145,#199,.T.);
#199 = LINE('',#200,#201);
#200 = CARTESIAN_POINT('',(24.,3.,2.));
#201 = VECTOR('',#202,1.);
#202 = DIRECTION('',(-0.,-0.,1.));
#203 = FACE_BOUND('',#204,.F.);
#204 = EDGE_LOOP('',(#205,#215,#223,#231,#239,#247));
#205 = ORIENTED_EDGE('',*,*,#206,.T.);
#206 = EDGE_CURVE('',#207,#209,#211,.T.);
#207 = VERTEX_POINT('',#208);
#208 = CARTESIAN_POINT('',(20.9,3.,4.32568421935));
#209 = VERTEX_POINT('',#210);
#210 = CARTESIAN_POINT('',(20.9,3.,7.67431578065));
#211 = LINE('',#212,#213);
#212 = CARTESIAN_POINT('',(20.9,3.,4.32568421935));
#213 = VECTOR('',#214,1.);
#214 = DIRECTION('',(-0.,-0.,1.));
#215 = ORIENTED_EDGE('',*,*,#216,.T.);
#216 = EDGE_CURVE('',#209,#217,#219,.T.);
#217 = VERTEX_POINT('',#218);
#218 = CARTESIAN_POINT('',(18.,3.,9.3486315613));
#219 = LINE('',#220,#221);
#220 = CARTESIAN_POINT('',(20.9,3.,7.67431578065));
#221 = VECTOR('',#222,1.);
#222 = DIRECTION('',(-0.866025403784,-0.,0.5));
#223 = ORIENTED_EDGE('',*,*,#224,.T.);
#224 = EDGE_CURVE('',#217,#225,#227,.T.);
#225 = VERTEX_POINT('',#226);
#226 = CARTESIAN_POINT('',(15.1,3.,7.67431578065));
#227 = LINE('',#228,#229);
#228 = CARTESIAN_POINT('',(18.,3.,9.3486315613));
#229 = VECTOR('',#230,1.);
#230 = DIRECTION('',(-0.866025403784,-0.,-0.5));
#231 = ORIENTED_EDGE('',*,*,#232,.T.);
#232 = EDGE_CURVE('',#225,#233,#235,.T.);
#233 = VERTEX_POINT('',#234);
#234 = CARTESIAN_POINT('',(15.1,3.,4.32568421935));
#235 = LINE('',#236,#237);
#236 = CARTESIAN_POINT('',(15.1,3.,7.67431578065));
#237 = VECTOR('',#238,1.);
#238 = DIRECTION('',(5.304724652093E-16,-0.,-1.));
#239 = ORIENTED_EDGE('',*,*,#240,.T.);
#240 = EDGE_CURVE('',#233,#241,#243,.T.);
#241 = VERTEX_POINT('',#242);
#242 = CARTESIAN_POINT('',(18.,3.,2.6513684387));
#243 = LINE('',#244,#245);
#244 = CARTESIAN_POINT('',(15.1,3.,4.32568421935));
#245 = VECTOR('',#246,1.);
#246 = DIRECTION('',(0.866025403784,-0.,-0.5));
#247 = ORIENTED_EDGE('',*,*,#248,.T.);
#248 = EDGE_CURVE('',#241,#207,#249,.T.);
#249 = LINE('',#250,#251);
#250 = CARTESIAN_POINT('',(18.,3.,2.6513684387));
#251 = VECTOR('',#252,1.);
#252 = DIRECTION('',(0.866025403784,-0.,0.5));
#253 = PLANE('',#254);
#254 = AXIS2_PLACEMENT_3D('',#255,#256,#257);
#255 = CARTESIAN_POINT('',(12.,3.,2.));
#256 = DIRECTION('',(-0.,-1.,-0.));
#257 = DIRECTION('',(0.,0.,-1.));
#258 = ADVANCED_FACE('',(#259,#270,#320),#370,.F.);
#259 = FACE_BOUND('',#260,.T.);
#260 = EDGE_LOOP('',(#261,#262,#263,#269));
#261 = ORIENTED_EDGE('',*,*,#31,.F.);
#262 = ORIENTED_EDGE('',*,*,#61,.T.);
#263 = ORIENTED_EDGE('',*,*,#264,.T.);
#264 = EDGE_CURVE('',#62,#189,#265,.T.);
#265 = LINE('',#266,#267);
#266 = CARTESIAN_POINT('',(24.,58.,2.));
#267 = VECTOR('',#268,1.);
#268 = DIRECTION('',(-0.,-1.,-0.));
#269 = ORIENTED_EDGE('',*,*,#188,.F.);
#270 = FACE_BOUND('',#271,.T.);
#271 = EDGE_LOOP('',(#272,#282,#290,#298,#306,#314));
#272 = ORIENTED_EDGE('',*,*,#273,.T.);
#273 = EDGE_CURVE('',#274,#276,#278,.T.);
#274 = VERTEX_POINT('',#275);
#275 = CARTESIAN_POINT('',(15.1,44.82568421935,2.));
#276 = VERTEX_POINT('',#277);
#277 = CARTESIAN_POINT('',(18.,43.1513684387,2.));
#278 = LINE('',#279,#280);
#279 = CARTESIAN_POINT('',(12.53517696412,46.306485489539,2.));
#280 = VECTOR('',#281,1.);
#281 = DIRECTION('',(0.866025403784,-0.5,-0.));
#282 = ORIENTED_EDGE('',*,*,#283,.T.);
#283 = EDGE_CURVE('',#276,#284,#286,.T.);
#284 = VERTEX_POINT('',#285);
#285 = CARTESIAN_POINT('',(20.9,44.82568421935,2.));
#286 = LINE('',#287,#288);
#287 = CARTESIAN_POINT('',(20.41482303588,44.545567168511,2.));
#288 = VECTOR('',#289,1.);
#289 = DIRECTION('',(0.866025403784,0.5,-0.));
#290 = ORIENTED_EDGE('',*,*,#291,.T.);
#291 = EDGE_CURVE('',#284,#292,#294,.T.);
#292 = VERTEX_POINT('',#293);
#293 = CARTESIAN_POINT('',(20.9,48.17431578065,2.));
#294 = LINE('',#295,#296);
#295 = CARTESIAN_POINT('',(20.9,53.087157890325,2.));
#296 = VECTOR('',#297,1.);
#297 = DIRECTION('',(-0.,1.,-0.));
#298 = ORIENTED_EDGE('',*,*,#299,.T.);
#299 = EDGE_CURVE('',#292,#300,#302,.T.);
#300 = VERTEX_POINT('',#301);
#301 = CARTESIAN_POINT('',(18.,49.8486315613,2.));
#302 = LINE('',#303,#304);
#303 = CARTESIAN_POINT('',(13.98517696412,52.166590721814,2.));
#304 = VECTOR('',#305,1.);
#305 = DIRECTION('',(-0.866025403784,0.5,0.));
#306 = ORIENTED_EDGE('',*,*,#307,.T.);
#307 = EDGE_CURVE('',#300,#308,#310,.T.);
#308 = VERTEX_POINT('',#309);
#309 = CARTESIAN_POINT('',(15.1,48.17431578065,2.));
#310 = LINE('',#311,#312);
#311 = CARTESIAN_POINT('',(16.06482303588,48.731356620136,2.));
#312 = VECTOR('',#313,1.);
#313 = DIRECTION('',(-0.866025403784,-0.5,-0.));
#314 = ORIENTED_EDGE('',*,*,#315,.T.);
#315 = EDGE_CURVE('',#308,#274,#316,.T.);
#316 = LINE('',#317,#318);
#317 = CARTESIAN_POINT('',(15.1,51.412842109675,2.));
#318 = VECTOR('',#319,1.);
#319 = DIRECTION('',(-5.304724652093E-16,-1.,-0.));
#320 = FACE_BOUND('',#321,.T.);
#321 = EDGE_LOOP('',(#322,#332,#340,#348,#356,#364));
#322 = ORIENTED_EDGE('',*,*,#323,.T.);
#323 = EDGE_CURVE('',#324,#326,#328,.T.);
#324 = VERTEX_POINT('',#325);
#325 = CARTESIAN_POINT('',(15.1,12.82568421935,2.));
#326 = VERTEX_POINT('',#327);
#327 = CARTESIAN_POINT('',(18.,11.1513684387,2.));
#328 = LINE('',#329,#330);
#329 = CARTESIAN_POINT('',(5.606973733844,18.306485489539,2.));
#330 = VECTOR('',#331,1.);
#331 = DIRECTION('',(0.866025403784,-0.5,-0.));
#332 = ORIENTED_EDGE('',*,*,#333,.T.);
#333 = EDGE_CURVE('',#326,#334,#336,.T.);
#334 = VERTEX_POINT('',#335);
#335 = CARTESIAN_POINT('',(20.9,12.82568421935,2.));
#336 = LINE('',#337,#338);
#337 = CARTESIAN_POINT('',(27.343026266156,16.545567168511,2.));
#338 = VECTOR('',#339,1.);
#339 = DIRECTION('',(0.866025403784,0.5,-0.));
#340 = ORIENTED_EDGE('',*,*,#341,.T.);
#341 = EDGE_CURVE('',#334,#342,#344,.T.);
#342 = VERTEX_POINT('',#343);
#343 = CARTESIAN_POINT('',(20.9,16.17431578065,2.));
#344 = LINE('',#345,#346);
#345 = CARTESIAN_POINT('',(20.9,37.087157890325,2.));
#346 = VECTOR('',#347,1.);
#347 = DIRECTION('',(-0.,1.,-0.));
#348 = ORIENTED_EDGE('',*,*,#349,.T.);
#349 = EDGE_CURVE('',#342,#350,#352,.T.);
#350 = VERTEX_POINT('',#351);
#351 = CARTESIAN_POINT('',(18.,17.8486315613,2.));
#352 = LINE('',#353,#354);
#353 = CARTESIAN_POINT('',(7.056973733844,24.166590721814,2.));
#354 = VECTOR('',#355,1.);
#355 = DIRECTION('',(-0.866025403784,0.5,0.));
#356 = ORIENTED_EDGE('',*,*,#357,.T.);
#357 = EDGE_CURVE('',#350,#358,#360,.T.);
#358 = VERTEX_POINT('',#359);
#359 = CARTESIAN_POINT('',(15.1,16.17431578065,2.));
#360 = LINE('',#361,#362);
#361 = CARTESIAN_POINT('',(22.993026266156,20.731356620136,2.));
#362 = VECTOR('',#363,1.);
#363 = DIRECTION('',(-0.866025403784,-0.5,-0.));
#364 = ORIENTED_EDGE('',*,*,#365,.T.);
#365 = EDGE_CURVE('',#358,#324,#366,.T.);
#366 = LINE('',#367,#368);
#367 = CARTESIAN_POINT('',(15.1,35.412842109675,2.));
#368 = VECTOR('',#369,1.);
#369 = DIRECTION('',(-5.304724652093E-16,-1.,-0.));
#370 = PLANE('',#371);
#371 = AXIS2_PLACEMENT_3D('',#372,#373,#374);
#372 = CARTESIAN_POINT('',(12.,58.,2.));
#373 = DIRECTION('',(-0.,-0.,1.));
#374 = DIRECTION('',(-1.,0.,0.));
#375 = ADVANCED_FACE('',(#376),#382,.T.);
#376 = FACE_BOUND('',#377,.F.);
#377 = EDGE_LOOP('',(#378,#379,#380,#381));
#378 = ORIENTED_EDGE('',*,*,#78,.F.);
#379 = ORIENTED_EDGE('',*,*,#264,.T.);
#380 = ORIENTED_EDGE('',*,*,#198,.T.);
#381 = ORIENTED_EDGE('',*,*,#144,.F.);
#382 = PLANE('',#383);
#383 = AXIS2_PLACEMENT_3D('',#384,#385,#386);
#384 = CARTESIAN_POINT('',(24.,58.,2.));
#385 = DIRECTION('',(1.,-0.,-0.));
#386 = DIRECTION('',(0.,0.,-1.));
#387 = ADVANCED_FACE('',(#388),#413,.F.);
#388 = FACE_BOUND('',#389,.T.);
#389 = EDGE_LOOP('',(#390,#398,#406,#412));
#390 = ORIENTED_EDGE('',*,*,#391,.T.);
#391 = EDGE_CURVE('',#87,#392,#394,.T.);
#392 = VERTEX_POINT('',#393);
#393 = CARTESIAN_POINT('',(20.9,55.1,4.32568421935));
#394 = LINE('',#395,#396);
#395 = CARTESIAN_POINT('',(20.9,58.,4.32568421935));
#396 = VECTOR('',#397,1.);
#397 = DIRECTION('',(-0.,-1.,-0.));
#398 = ORIENTED_EDGE('',*,*,#399,.T.);
#399 = EDGE_CURVE('',#392,#400,#402,.T.);
#400 = VERTEX_POINT('',#401);
#401 = CARTESIAN_POINT('',(20.9,55.1,7.67431578065));
#402 = LINE('',#403,#404);
#403 = CARTESIAN_POINT('',(20.9,55.1,4.32568421935));
#404 = VECTOR('',#405,1.);
#405 = DIRECTION('',(-0.,-0.,1.));
#406 = ORIENTED_EDGE('',*,*,#407,.F.);
#407 = EDGE_CURVE('',#89,#400,#408,.T.);
#408 = LINE('',#409,#410);
#409 = CARTESIAN_POINT('',(20.9,58.,7.67431578065));
#410 = VECTOR('',#411,1.);
#411 = DIRECTION('',(-0.,-1.,-0.));
#412 = ORIENTED_EDGE('',*,*,#86,.F.);
#413 = PLANE('',#414);
#414 = AXIS2_PLACEMENT_3D('',#415,#416,#417);
#415 = CARTESIAN_POINT('',(20.9,58.,4.32568421935));
#416 = DIRECTION('',(1.,-0.,-0.));
#417 = DIRECTION('',(0.,0.,-1.));
#418 = ADVANCED_FACE('',(#419),#437,.F.);
#419 = FACE_BOUND('',#420,.T.);
#420 = EDGE_LOOP('',(#421,#429,#435,#436));
#421 = ORIENTED_EDGE('',*,*,#422,.T.);
#422 = EDGE_CURVE('',#121,#423,#425,.T.);
#423 = VERTEX_POINT('',#424);
#424 = CARTESIAN_POINT('',(18.,55.1,2.6513684387));
#425 = LINE('',#426,#427);
#426 = CARTESIAN_POINT('',(18.,58.,2.6513684387));
#427 = VECTOR('',#428,1.);
#428 = DIRECTION('',(-0.,-1.,-0.));
#429 = ORIENTED_EDGE('',*,*,#430,.T.);
#430 = EDGE_CURVE('',#423,#392,#431,.T.);
#431 = LINE('',#432,#433);
#432 = CARTESIAN_POINT('',(18.,55.1,2.6513684387));
#433 = VECTOR('',#434,1.);
#434 = DIRECTION('',(0.866025403784,-0.,0.5));
#435 = ORIENTED_EDGE('',*,*,#391,.F.);
#436 = ORIENTED_EDGE('',*,*,#128,.F.);
#437 = PLANE('',#438);
#438 = AXIS2_PLACEMENT_3D('',#439,#440,#441);
#439 = CARTESIAN_POINT('',(18.,58.,2.6513684387));
#440 = DIRECTION('',(0.5,-0.,-0.866025403784));
#441 = DIRECTION('',(-0.866025403784,0.,-0.5));
#442 = ADVANCED_FACE('',(#443),#461,.F.);
#443 = FACE_BOUND('',#444,.T.);
#444 = EDGE_LOOP('',(#445,#453,#459,#460));
#445 = ORIENTED_EDGE('',*,*,#446,.T.);
#446 = EDGE_CURVE('',#113,#447,#449,.T.);
#447 = VERTEX_POINT('',#448);
#448 = CARTESIAN_POINT('',(15.1,55.1,4.32568421935));
#449 = LINE('',#450,#451);
#450 = CARTESIAN_POINT('',(15.1,58.,4.32568421935));
#451 = VECTOR('',#452,1.);
#452 = DIRECTION('',(-0.,-1.,-0.));
#453 = ORIENTED_EDGE('',*,*,#454,.T.);
#454 = EDGE_CURVE('',#447,#423,#455,.T.);
#455 = LINE('',#456,#457);
#456 = CARTESIAN_POINT('',(15.1,55.1,4.32568421935));
#457 = VECTOR('',#458,1.);
#458 = DIRECTION('',(0.866025403784,-0.,-0.5));
#459 = ORIENTED_EDGE('',*,*,#422,.F.);
#460 = ORIENTED_EDGE('',*,*,#120,.F.);
#461 = PLANE('',#462);
#462 = AXIS2_PLACEMENT_3D('',#463,#464,#465);
#463 = CARTESIAN_POINT('',(15.1,58.,4.32568421935));
#464 = DIRECTION('',(-0.5,-0.,-0.866025403784));
#465 = DIRECTION('',(-0.866025403784,0.,0.5));
#466 = ADVANCED_FACE('',(#467),#485,.F.);
#467 = FACE_BOUND('',#468,.T.);
#468 = EDGE_LOOP('',(#469,#477,#483,#484));
#469 = ORIENTED_EDGE('',*,*,#470,.T.);
#470 = EDGE_CURVE('',#105,#471,#473,.T.);
#471 = VERTEX_POINT('',#472);
#472 = CARTESIAN_POINT('',(15.1,55.1,7.67431578065));
#473 = LINE('',#474,#475);
#474 = CARTESIAN_POINT('',(15.1,58.,7.67431578065));
#475 = VECTOR('',#476,1.);
#476 = DIRECTION('',(-0.,-1.,-0.));
#477 = ORIENTED_EDGE('',*,*,#478,.T.);
#478 = EDGE_CURVE('',#471,#447,#479,.T.);
#479 = LINE('',#480,#481);
#480 = CARTESIAN_POINT('',(15.1,55.1,7.67431578065));
#481 = VECTOR('',#482,1.);
#482 = DIRECTION('',(5.304724652093E-16,-0.,-1.));
#483 = ORIENTED_EDGE('',*,*,#446,.F.);
#484 = ORIENTED_EDGE('',*,*,#112,.F.);
#485 = PLANE('',#486);
#486 = AXIS2_PLACEMENT_3D('',#487,#488,#489);
#487 = CARTESIAN_POINT('',(15.1,58.,7.67431578065));
#488 = DIRECTION('',(-1.,-0.,-5.304724652093E-16));
#489 = DIRECTION('',(-5.304724652093E-16,0.,1.));
#490 = ADVANCED_FACE('',(#491),#509,.F.);
#491 = FACE_BOUND('',#492,.T.);
#492 = EDGE_LOOP('',(#493,#501,#507,#508));
#493 = ORIENTED_EDGE('',*,*,#494,.T.);
#494 = EDGE_CURVE('',#97,#495,#497,.T.);
#495 = VERTEX_POINT('',#496);
#496 = CARTESIAN_POINT('',(18.,55.1,9.3486315613));
#497 = LINE('',#498,#499);
#498 = CARTESIAN_POINT('',(18.,58.,9.3486315613));
#499 = VECTOR('',#500,1.);
#500 = DIRECTION('',(-0.,-1.,-0.));
#501 = ORIENTED_EDGE('',*,*,#502,.T.);
#502 = EDGE_CURVE('',#495,#471,#503,.T.);
#503 = LINE('',#504,#505);
#504 = CARTESIAN_POINT('',(18.,55.1,9.3486315613));
#505 = VECTOR('',#506,1.);
#506 = DIRECTION('',(-0.866025403784,-0.,-0.5));
#507 = ORIENTED_EDGE('',*,*,#470,.F.);
#508 = ORIENTED_EDGE('',*,*,#104,.F.);
#509 = PLANE('',#510);
#510 = AXIS2_PLACEMENT_3D('',#511,#512,#513);
#511 = CARTESIAN_POINT('',(18.,58.,9.3486315613));
#512 = DIRECTION('',(-0.5,-0.,0.866025403784));
#513 = DIRECTION('',(0.866025403784,0.,0.5));
#514 = ADVANCED_FACE('',(#515),#526,.F.);
#515 = FACE_BOUND('',#516,.T.);
#516 = EDGE_LOOP('',(#517,#518,#524,#525));
#517 = ORIENTED_EDGE('',*,*,#407,.T.);
#518 = ORIENTED_EDGE('',*,*,#519,.T.);
#519 = EDGE_CURVE('',#400,#495,#520,.T.);
#520 = LINE('',#521,#522);
#521 = CARTESIAN_POINT('',(20.9,55.1,7.67431578065));
#522 = VECTOR('',#523,1.);
#523 = DIRECTION('',(-0.866025403784,-0.,0.5));
#524 = ORIENTED_EDGE('',*,*,#494,.F.);
#525 = ORIENTED_EDGE('',*,*,#96,.F.);
#526 = PLANE('',#527);
#527 = AXIS2_PLACEMENT_3D('',#528,#529,#530);
#528 = CARTESIAN_POINT('',(20.9,58.,7.67431578065));
#529 = DIRECTION('',(0.5,-0.,0.866025403784));
#530 = DIRECTION('',(0.866025403784,0.,-0.5));
#531 = ADVANCED_FACE('',(#532),#551,.F.);
#532 = FACE_BOUND('',#533,.T.);
#533 = EDGE_LOOP('',(#534,#535,#543,#550));
#534 = ORIENTED_EDGE('',*,*,#160,.F.);
#535 = ORIENTED_EDGE('',*,*,#536,.F.);
#536 = EDGE_CURVE('',#537,#161,#539,.T.);
#537 = VERTEX_POINT('',#538);
#538 = CARTESIAN_POINT('',(19.75,46.5,4.6));
#539 = LINE('',#540,#541);
#540 = CARTESIAN_POINT('',(19.75,46.5,4.4));
#541 = VECTOR('',#542,1.);
#542 = DIRECTION('',(-0.,-0.,1.));
#543 = ORIENTED_EDGE('',*,*,#544,.T.);
#544 = EDGE_CURVE('',#537,#537,#545,.T.);
#545 = CIRCLE('',#546,1.75);
#546 = AXIS2_PLACEMENT_3D('',#547,#548,#549);
#547 = CARTESIAN_POINT('',(18.,46.5,4.6));
#548 = DIRECTION('',(0.,0.,-1.));
#549 = DIRECTION('',(1.,-0.,-0.));
#550 = ORIENTED_EDGE('',*,*,#536,.T.);
#551 = CYLINDRICAL_SURFACE('',#552,1.75);
#552 = AXIS2_PLACEMENT_3D('',#553,#554,#555);
#553 = CARTESIAN_POINT('',(18.,46.5,4.4));
#554 = DIRECTION('',(-0.,-0.,1.));
#555 = DIRECTION('',(1.,-0.,-0.));
#556 = ADVANCED_FACE('',(#557),#576,.F.);
#557 = FACE_BOUND('',#558,.T.);
#558 = EDGE_LOOP('',(#559,#560,#568,#575));
#559 = ORIENTED_EDGE('',*,*,#171,.F.);
#560 = ORIENTED_EDGE('',*,*,#561,.F.);
#561 = EDGE_CURVE('',#562,#172,#564,.T.);
#562 = VERTEX_POINT('',#563);
#563 = CARTESIAN_POINT('',(19.65,14.5,4.6));
#564 = LINE('',#565,#566);
#565 = CARTESIAN_POINT('',(19.65,14.5,4.4));
#566 = VECTOR('',#567,1.);
#567 = DIRECTION('',(-0.,-0.,1.));
#568 = ORIENTED_EDGE('',*,*,#569,.T.);
#569 = EDGE_CURVE('',#562,#562,#570,.T.);
#570 = CIRCLE('',#571,1.65);
#571 = AXIS2_PLACEMENT_3D('',#572,#573,#574);
#572 = CARTESIAN_POINT('',(18.,14.5,4.6));
#573 = DIRECTION('',(0.,0.,-1.));
#574 = DIRECTION('',(1.,-0.,-0.));
#575 = ORIENTED_EDGE('',*,*,#561,.T.);
#576 = CYLINDRICAL_SURFACE('',#577,1.65);
#577 = AXIS2_PLACEMENT_3D('',#578,#579,#580);
#578 = CARTESIAN_POINT('',(18.,14.5,4.4));
#579 = DIRECTION('',(-0.,-0.,1.));
#580 = DIRECTION('',(1.,-0.,-0.));
#581 = ADVANCED_FACE('',(#582),#607,.F.);
#582 = FACE_BOUND('',#583,.T.);
#583 = EDGE_LOOP('',(#584,#592,#593,#601));
#584 = ORIENTED_EDGE('',*,*,#585,.T.);
#585 = EDGE_CURVE('',#586,#207,#588,.T.);
#586 = VERTEX_POINT('',#587);
#587 = CARTESIAN_POINT('',(20.9,5.9,4.32568421935));
#588 = LINE('',#589,#590);
#589 = CARTESIAN_POINT('',(20.9,5.9,4.32568421935));
#590 = VECTOR('',#591,1.);
#591 = DIRECTION('',(-0.,-1.,-0.));
#592 = ORIENTED_EDGE('',*,*,#206,.T.);
#593 = ORIENTED_EDGE('',*,*,#594,.F.);
#594 = EDGE_CURVE('',#595,#209,#597,.T.);
#595 = VERTEX_POINT('',#596);
#596 = CARTESIAN_POINT('',(20.9,5.9,7.67431578065));
#597 = LINE('',#598,#599);
#598 = CARTESIAN_POINT('',(20.9,5.9,7.67431578065));
#599 = VECTOR('',#600,1.);
#600 = DIRECTION('',(-0.,-1.,-0.));
#601 = ORIENTED_EDGE('',*,*,#602,.F.);
#602 = EDGE_CURVE('',#586,#595,#603,.T.);
#603 = LINE('',#604,#605);
#604 = CARTESIAN_POINT('',(20.9,5.9,4.32568421935));
#605 = VECTOR('',#606,1.);
#606 = DIRECTION('',(-0.,-0.,1.));
#607 = PLANE('',#608);
#608 = AXIS2_PLACEMENT_3D('',#609,#610,#611);
#609 = CARTESIAN_POINT('',(20.9,5.9,4.32568421935));
#610 = DIRECTION('',(1.,-0.,-0.));
#611 = DIRECTION('',(0.,0.,-1.));
#612 = ADVANCED_FACE('',(#613),#631,.F.);
#613 = FACE_BOUND('',#614,.T.);
#614 = EDGE_LOOP('',(#615,#623,#624,#625));
#615 = ORIENTED_EDGE('',*,*,#616,.T.);
#616 = EDGE_CURVE('',#617,#241,#619,.T.);
#617 = VERTEX_POINT('',#618);
#618 = CARTESIAN_POINT('',(18.,5.9,2.6513684387));
#619 = LINE('',#620,#621);
#620 = CARTESIAN_POINT('',(18.,5.9,2.6513684387));
#621 = VECTOR('',#622,1.);
#622 = DIRECTION('',(-0.,-1.,-0.));
#623 = ORIENTED_EDGE('',*,*,#248,.T.);
#624 = ORIENTED_EDGE('',*,*,#585,.F.);
#625 = ORIENTED_EDGE('',*,*,#626,.F.);
#626 = EDGE_CURVE('',#617,#586,#627,.T.);
#627 = LINE('',#628,#629);
#628 = CARTESIAN_POINT('',(18.,5.9,2.6513684387));
#629 = VECTOR('',#630,1.);
#630 = DIRECTION('',(0.866025403784,-0.,0.5));
#631 = PLANE('',#632);
#632 = AXIS2_PLACEMENT_3D('',#633,#634,#635);
#633 = CARTESIAN_POINT('',(18.,5.9,2.6513684387));
#634 = DIRECTION('',(0.5,-0.,-0.866025403784));
#635 = DIRECTION('',(-0.866025403784,0.,-0.5));
#636 = ADVANCED_FACE('',(#637),#655,.F.);
#637 = FACE_BOUND('',#638,.T.);
#638 = EDGE_LOOP('',(#639,#647,#648,#649));
#639 = ORIENTED_EDGE('',*,*,#640,.T.);
#640 = EDGE_CURVE('',#641,#233,#643,.T.);
#641 = VERTEX_POINT('',#642);
#642 = CARTESIAN_POINT('',(15.1,5.9,4.32568421935));
#643 = LINE('',#644,#645);
#644 = CARTESIAN_POINT('',(15.1,5.9,4.32568421935));
#645 = VECTOR('',#646,1.);
#646 = DIRECTION('',(-0.,-1.,-0.));
#647 = ORIENTED_EDGE('',*,*,#240,.T.);
#648 = ORIENTED_EDGE('',*,*,#616,.F.);
#649 = ORIENTED_EDGE('',*,*,#650,.F.);
#650 = EDGE_CURVE('',#641,#617,#651,.T.);
#651 = LINE('',#652,#653);
#652 = CARTESIAN_POINT('',(15.1,5.9,4.32568421935));
#653 = VECTOR('',#654,1.);
#654 = DIRECTION('',(0.866025403784,-0.,-0.5));
#655 = PLANE('',#656);
#656 = AXIS2_PLACEMENT_3D('',#657,#658,#659);
#657 = CARTESIAN_POINT('',(15.1,5.9,4.32568421935));
#658 = DIRECTION('',(-0.5,-0.,-0.866025403784));
#659 = DIRECTION('',(-0.866025403784,0.,0.5));
#660 = ADVANCED_FACE('',(#661),#679,.F.);
#661 = FACE_BOUND('',#662,.T.);
#662 = EDGE_LOOP('',(#663,#671,#672,#673));
#663 = ORIENTED_EDGE('',*,*,#664,.T.);
#664 = EDGE_CURVE('',#665,#225,#667,.T.);
#665 = VERTEX_POINT('',#666);
#666 = CARTESIAN_POINT('',(15.1,5.9,7.67431578065));
#667 = LINE('',#668,#669);
#668 = CARTESIAN_POINT('',(15.1,5.9,7.67431578065));
#669 = VECTOR('',#670,1.);
#670 = DIRECTION('',(-0.,-1.,-0.));
#671 = ORIENTED_EDGE('',*,*,#232,.T.);
#672 = ORIENTED_EDGE('',*,*,#640,.F.);
#673 = ORIENTED_EDGE('',*,*,#674,.F.);
#674 = EDGE_CURVE('',#665,#641,#675,.T.);
#675 = LINE('',#676,#677);
#676 = CARTESIAN_POINT('',(15.1,5.9,7.67431578065));
#677 = VECTOR('',#678,1.);
#678 = DIRECTION('',(5.304724652093E-16,-0.,-1.));
#679 = PLANE('',#680);
#680 = AXIS2_PLACEMENT_3D('',#681,#682,#683);
#681 = CARTESIAN_POINT('',(15.1,5.9,7.67431578065));
#682 = DIRECTION('',(-1.,-0.,-5.304724652093E-16));
#683 = DIRECTION('',(-5.304724652093E-16,0.,1.));
#684 = ADVANCED_FACE('',(#685),#703,.F.);
#685 = FACE_BOUND('',#686,.T.);
#686 = EDGE_LOOP('',(#687,#695,#696,#697));
#687 = ORIENTED_EDGE('',*,*,#688,.T.);
#688 = EDGE_CURVE('',#689,#217,#691,.T.);
#689 = VERTEX_POINT('',#690);
#690 = CARTESIAN_POINT('',(18.,5.9,9.3486315613));
#691 = LINE('',#692,#693);
#692 = CARTESIAN_POINT('',(18.,5.9,9.3486315613));
#693 = VECTOR('',#694,1.);
#694 = DIRECTION('',(-0.,-1.,-0.));
#695 = ORIENTED_EDGE('',*,*,#224,.T.);
#696 = ORIENTED_EDGE('',*,*,#664,.F.);
#697 = ORIENTED_EDGE('',*,*,#698,.F.);
#698 = EDGE_CURVE('',#689,#665,#699,.T.);
#699 = LINE('',#700,#701);
#700 = CARTESIAN_POINT('',(18.,5.9,9.3486315613));
#701 = VECTOR('',#702,1.);
#702 = DIRECTION('',(-0.866025403784,-0.,-0.5));
#703 = PLANE('',#704);
#704 = AXIS2_PLACEMENT_3D('',#705,#706,#707);
#705 = CARTESIAN_POINT('',(18.,5.9,9.3486315613));
#706 = DIRECTION('',(-0.5,-0.,0.866025403784));
#707 = DIRECTION('',(0.866025403784,0.,0.5));
#708 = ADVANCED_FACE('',(#709),#720,.F.);
#709 = FACE_BOUND('',#710,.T.);
#710 = EDGE_LOOP('',(#711,#712,#713,#714));
#711 = ORIENTED_EDGE('',*,*,#594,.T.);
#712 = ORIENTED_EDGE('',*,*,#216,.T.);
#713 = ORIENTED_EDGE('',*,*,#688,.F.);
#714 = ORIENTED_EDGE('',*,*,#715,.F.);
#715 = EDGE_CURVE('',#595,#689,#716,.T.);
#716 = LINE('',#717,#718);
#717 = CARTESIAN_POINT('',(20.9,5.9,7.67431578065));
#718 = VECTOR('',#719,1.);
#719 = DIRECTION('',(-0.866025403784,-0.,0.5));
#720 = PLANE('',#721);
#721 = AXIS2_PLACEMENT_3D('',#722,#723,#724);
#722 = CARTESIAN_POINT('',(20.9,5.9,7.67431578065));
#723 = DIRECTION('',(0.5,-0.,0.866025403784));
#724 = DIRECTION('',(0.866025403784,0.,-0.5));
#725 = ADVANCED_FACE('',(#726),#751,.T.);
#726 = FACE_BOUND('',#727,.F.);
#727 = EDGE_LOOP('',(#728,#729,#737,#745));
#728 = ORIENTED_EDGE('',*,*,#273,.T.);
#729 = ORIENTED_EDGE('',*,*,#730,.T.);
#730 = EDGE_CURVE('',#276,#731,#733,.T.);
#731 = VERTEX_POINT('',#732);
#732 = CARTESIAN_POINT('',(18.,43.1513684387,4.6));
#733 = LINE('',#734,#735);
#734 = CARTESIAN_POINT('',(18.,43.1513684387,1.8));
#735 = VECTOR('',#736,1.);
#736 = DIRECTION('',(-0.,-0.,1.));
#737 = ORIENTED_EDGE('',*,*,#738,.T.);
#738 = EDGE_CURVE('',#731,#739,#741,.T.);
#739 = VERTEX_POINT('',#740);
#740 = CARTESIAN_POINT('',(15.1,44.82568421935,4.6));
#741 = LINE('',#742,#743);
#742 = CARTESIAN_POINT('',(18.,43.1513684387,4.6));
#743 = VECTOR('',#744,1.);
#744 = DIRECTION('',(-0.866025403784,0.5,0.));
#745 = ORIENTED_EDGE('',*,*,#746,.F.);
#746 = EDGE_CURVE('',#274,#739,#747,.T.);
#747 = LINE('',#748,#749);
#748 = CARTESIAN_POINT('',(15.1,44.82568421935,1.8));
#749 = VECTOR('',#750,1.);
#750 = DIRECTION('',(-0.,-0.,1.));
#751 = PLANE('',#752);
#752 = AXIS2_PLACEMENT_3D('',#753,#754,#755);
#753 = CARTESIAN_POINT('',(18.,43.1513684387,1.8));
#754 = DIRECTION('',(0.5,0.866025403784,-0.));
#755 = DIRECTION('',(0.866025403784,-0.5,-0.));
#756 = ADVANCED_FACE('',(#757),#775,.T.);
#757 = FACE_BOUND('',#758,.F.);
#758 = EDGE_LOOP('',(#759,#760,#761,#769));
#759 = ORIENTED_EDGE('',*,*,#315,.T.);
#760 = ORIENTED_EDGE('',*,*,#746,.T.);
#761 = ORIENTED_EDGE('',*,*,#762,.T.);
#762 = EDGE_CURVE('',#739,#763,#765,.T.);
#763 = VERTEX_POINT('',#764);
#764 = CARTESIAN_POINT('',(15.1,48.17431578065,4.6));
#765 = LINE('',#766,#767);
#766 = CARTESIAN_POINT('',(15.1,44.82568421935,4.6));
#767 = VECTOR('',#768,1.);
#768 = DIRECTION('',(5.304724652093E-16,1.,-0.));
#769 = ORIENTED_EDGE('',*,*,#770,.F.);
#770 = EDGE_CURVE('',#308,#763,#771,.T.);
#771 = LINE('',#772,#773);
#772 = CARTESIAN_POINT('',(15.1,48.17431578065,1.8));
#773 = VECTOR('',#774,1.);
#774 = DIRECTION('',(-0.,-0.,1.));
#775 = PLANE('',#776);
#776 = AXIS2_PLACEMENT_3D('',#777,#778,#779);
#777 = CARTESIAN_POINT('',(15.1,44.82568421935,1.8));
#778 = DIRECTION('',(1.,-5.304724652093E-16,-0.));
#779 = DIRECTION('',(-5.304724652093E-16,-1.,0.));
#780 = ADVANCED_FACE('',(#781),#799,.T.);
#781 = FACE_BOUND('',#782,.F.);
#782 = EDGE_LOOP('',(#783,#784,#785,#793));
#783 = ORIENTED_EDGE('',*,*,#307,.T.);
#784 = ORIENTED_EDGE('',*,*,#770,.T.);
#785 = ORIENTED_EDGE('',*,*,#786,.T.);
#786 = EDGE_CURVE('',#763,#787,#789,.T.);
#787 = VERTEX_POINT('',#788);
#788 = CARTESIAN_POINT('',(18.,49.8486315613,4.6));
#789 = LINE('',#790,#791);
#790 = CARTESIAN_POINT('',(15.1,48.17431578065,4.6));
#791 = VECTOR('',#792,1.);
#792 = DIRECTION('',(0.866025403784,0.5,-0.));
#793 = ORIENTED_EDGE('',*,*,#794,.F.);
#794 = EDGE_CURVE('',#300,#787,#795,.T.);
#795 = LINE('',#796,#797);
#796 = CARTESIAN_POINT('',(18.,49.8486315613,1.8));
#797 = VECTOR('',#798,1.);
#798 = DIRECTION('',(-0.,-0.,1.));
#799 = PLANE('',#800);
#800 = AXIS2_PLACEMENT_3D('',#801,#802,#803);
#801 = CARTESIAN_POINT('',(15.1,48.17431578065,1.8));
#802 = DIRECTION('',(0.5,-0.866025403784,-0.));
#803 = DIRECTION('',(-0.866025403784,-0.5,0.));
#804 = ADVANCED_FACE('',(#805),#823,.T.);
#805 = FACE_BOUND('',#806,.F.);
#806 = EDGE_LOOP('',(#807,#808,#809,#817));
#807 = ORIENTED_EDGE('',*,*,#299,.T.);
#808 = ORIENTED_EDGE('',*,*,#794,.T.);
#809 = ORIENTED_EDGE('',*,*,#810,.T.);
#810 = EDGE_CURVE('',#787,#811,#813,.T.);
#811 = VERTEX_POINT('',#812);
#812 = CARTESIAN_POINT('',(20.9,48.17431578065,4.6));
#813 = LINE('',#814,#815);
#814 = CARTESIAN_POINT('',(18.,49.8486315613,4.6));
#815 = VECTOR('',#816,1.);
#816 = DIRECTION('',(0.866025403784,-0.5,-0.));
#817 = ORIENTED_EDGE('',*,*,#818,.F.);
#818 = EDGE_CURVE('',#292,#811,#819,.T.);
#819 = LINE('',#820,#821);
#820 = CARTESIAN_POINT('',(20.9,48.17431578065,1.8));
#821 = VECTOR('',#822,1.);
#822 = DIRECTION('',(-0.,-0.,1.));
#823 = PLANE('',#824);
#824 = AXIS2_PLACEMENT_3D('',#825,#826,#827);
#825 = CARTESIAN_POINT('',(18.,49.8486315613,1.8));
#826 = DIRECTION('',(-0.5,-0.866025403784,-0.));
#827 = DIRECTION('',(-0.866025403784,0.5,0.));
#828 = ADVANCED_FACE('',(#829),#847,.T.);
#829 = FACE_BOUND('',#830,.F.);
#830 = EDGE_LOOP('',(#831,#832,#833,#841));
#831 = ORIENTED_EDGE('',*,*,#291,.T.);
#832 = ORIENTED_EDGE('',*,*,#818,.T.);
#833 = ORIENTED_EDGE('',*,*,#834,.T.);
#834 = EDGE_CURVE('',#811,#835,#837,.T.);
#835 = VERTEX_POINT('',#836);
#836 = CARTESIAN_POINT('',(20.9,44.82568421935,4.6));
#837 = LINE('',#838,#839);
#838 = CARTESIAN_POINT('',(20.9,48.17431578065,4.6));
#839 = VECTOR('',#840,1.);
#840 = DIRECTION('',(-0.,-1.,-0.));
#841 = ORIENTED_EDGE('',*,*,#842,.F.);
#842 = EDGE_CURVE('',#284,#835,#843,.T.);
#843 = LINE('',#844,#845);
#844 = CARTESIAN_POINT('',(20.9,44.82568421935,1.8));
#845 = VECTOR('',#846,1.);
#846 = DIRECTION('',(-0.,-0.,1.));
#847 = PLANE('',#848);
#848 = AXIS2_PLACEMENT_3D('',#849,#850,#851);
#849 = CARTESIAN_POINT('',(20.9,48.17431578065,1.8));
#850 = DIRECTION('',(-1.,-0.,-0.));
#851 = DIRECTION('',(0.,1.,0.));
#852 = ADVANCED_FACE('',(#853),#864,.T.);
#853 = FACE_BOUND('',#854,.F.);
#854 = EDGE_LOOP('',(#855,#856,#857,#863));
#855 = ORIENTED_EDGE('',*,*,#283,.T.);
#856 = ORIENTED_EDGE('',*,*,#842,.T.);
#857 = ORIENTED_EDGE('',*,*,#858,.T.);
#858 = EDGE_CURVE('',#835,#731,#859,.T.);
#859 = LINE('',#860,#861);
#860 = CARTESIAN_POINT('',(20.9,44.82568421935,4.6));
#861 = VECTOR('',#862,1.);
#862 = DIRECTION('',(-0.866025403784,-0.5,-0.));
#863 = ORIENTED_EDGE('',*,*,#730,.F.);
#864 = PLANE('',#865);
#865 = AXIS2_PLACEMENT_3D('',#866,#867,#868);
#866 = CARTESIAN_POINT('',(20.9,44.82568421935,1.8));
#867 = DIRECTION('',(-0.5,0.866025403784,0.));
#868 = DIRECTION('',(0.866025403784,0.5,0.));
#869 = ADVANCED_FACE('',(#870),#895,.T.);
#870 = FACE_BOUND('',#871,.F.);
#871 = EDGE_LOOP('',(#872,#873,#881,#889));
#872 = ORIENTED_EDGE('',*,*,#323,.T.);
#873 = ORIENTED_EDGE('',*,*,#874,.T.);
#874 = EDGE_CURVE('',#326,#875,#877,.T.);
#875 = VERTEX_POINT('',#876);
#876 = CARTESIAN_POINT('',(18.,11.1513684387,4.6));
#877 = LINE('',#878,#879);
#878 = CARTESIAN_POINT('',(18.,11.1513684387,1.8));
#879 = VECTOR('',#880,1.);
#880 = DIRECTION('',(-0.,-0.,1.));
#881 = ORIENTED_EDGE('',*,*,#882,.T.);
#882 = EDGE_CURVE('',#875,#883,#885,.T.);
#883 = VERTEX_POINT('',#884);
#884 = CARTESIAN_POINT('',(15.1,12.82568421935,4.6));
#885 = LINE('',#886,#887);
#886 = CARTESIAN_POINT('',(18.,11.1513684387,4.6));
#887 = VECTOR('',#888,1.);
#888 = DIRECTION('',(-0.866025403784,0.5,0.));
#889 = ORIENTED_EDGE('',*,*,#890,.F.);
#890 = EDGE_CURVE('',#324,#883,#891,.T.);
#891 = LINE('',#892,#893);
#892 = CARTESIAN_POINT('',(15.1,12.82568421935,1.8));
#893 = VECTOR('',#894,1.);
#894 = DIRECTION('',(-0.,-0.,1.));
#895 = PLANE('',#896);
#896 = AXIS2_PLACEMENT_3D('',#897,#898,#899);
#897 = CARTESIAN_POINT('',(18.,11.1513684387,1.8));
#898 = DIRECTION('',(0.5,0.866025403784,-0.));
#899 = DIRECTION('',(0.866025403784,-0.5,-0.));
#900 = ADVANCED_FACE('',(#901),#919,.T.);
#901 = FACE_BOUND('',#902,.F.);
#902 = EDGE_LOOP('',(#903,#904,#905,#913));
#903 = ORIENTED_EDGE('',*,*,#365,.T.);
#904 = ORIENTED_EDGE('',*,*,#890,.T.);
#905 = ORIENTED_EDGE('',*,*,#906,.T.);
#906 = EDGE_CURVE('',#883,#907,#909,.T.);
#907 = VERTEX_POINT('',#908);
#908 = CARTESIAN_POINT('',(15.1,16.17431578065,4.6));
#909 = LINE('',#910,#911);
#910 = CARTESIAN_POINT('',(15.1,12.82568421935,4.6));
#911 = VECTOR('',#912,1.);
#912 = DIRECTION('',(5.304724652093E-16,1.,-0.));
#913 = ORIENTED_EDGE('',*,*,#914,.F.);
#914 = EDGE_CURVE('',#358,#907,#915,.T.);
#915 = LINE('',#916,#917);
#916 = CARTESIAN_POINT('',(15.1,16.17431578065,1.8));
#917 = VECTOR('',#918,1.);
#918 = DIRECTION('',(-0.,-0.,1.));
#919 = PLANE('',#920);
#920 = AXIS2_PLACEMENT_3D('',#921,#922,#923);
#921 = CARTESIAN_POINT('',(15.1,12.82568421935,1.8));
#922 = DIRECTION('',(1.,-5.304724652093E-16,-0.));
#923 = DIRECTION('',(-5.304724652093E-16,-1.,0.));
#924 = ADVANCED_FACE('',(#925),#943,.T.);
#925 = FACE_BOUND('',#926,.F.);
#926 = EDGE_LOOP('',(#927,#928,#936,#942));
#927 = ORIENTED_EDGE('',*,*,#333,.T.);
#928 = ORIENTED_EDGE('',*,*,#929,.T.);
#929 = EDGE_CURVE('',#334,#930,#932,.T.);
#930 = VERTEX_POINT('',#931);
#931 = CARTESIAN_POINT('',(20.9,12.82568421935,4.6));
#932 = LINE('',#933,#934);
#933 = CARTESIAN_POINT('',(20.9,12.82568421935,1.8));
#934 = VECTOR('',#935,1.);
#935 = DIRECTION('',(-0.,-0.,1.));
#936 = ORIENTED_EDGE('',*,*,#937,.T.);
#937 = EDGE_CURVE('',#930,#875,#938,.T.);
#938 = LINE('',#939,#940);
#939 = CARTESIAN_POINT('',(20.9,12.82568421935,4.6));
#940 = VECTOR('',#941,1.);
#941 = DIRECTION('',(-0.866025403784,-0.5,-0.));
#942 = ORIENTED_EDGE('',*,*,#874,.F.);
#943 = PLANE('',#944);
#944 = AXIS2_PLACEMENT_3D('',#945,#946,#947);
#945 = CARTESIAN_POINT('',(20.9,12.82568421935,1.8));
#946 = DIRECTION('',(-0.5,0.866025403784,0.));
#947 = DIRECTION('',(0.866025403784,0.5,0.));
#948 = ADVANCED_FACE('',(#949),#967,.T.);
#949 = FACE_BOUND('',#950,.F.);
#950 = EDGE_LOOP('',(#951,#952,#953,#961));
#951 = ORIENTED_EDGE('',*,*,#357,.T.);
#952 = ORIENTED_EDGE('',*,*,#914,.T.);
#953 = ORIENTED_EDGE('',*,*,#954,.T.);
#954 = EDGE_CURVE('',#907,#955,#957,.T.);
#955 = VERTEX_POINT('',#956);
#956 = CARTESIAN_POINT('',(18.,17.8486315613,4.6));
#957 = LINE('',#958,#959);
#958 = CARTESIAN_POINT('',(15.1,16.17431578065,4.6));
#959 = VECTOR('',#960,1.);
#960 = DIRECTION('',(0.866025403784,0.5,-0.));
#961 = ORIENTED_EDGE('',*,*,#962,.F.);
#962 = EDGE_CURVE('',#350,#955,#963,.T.);
#963 = LINE('',#964,#965);
#964 = CARTESIAN_POINT('',(18.,17.8486315613,1.8));
#965 = VECTOR('',#966,1.);
#966 = DIRECTION('',(-0.,-0.,1.));
#967 = PLANE('',#968);
#968 = AXIS2_PLACEMENT_3D('',#969,#970,#971);
#969 = CARTESIAN_POINT('',(15.1,16.17431578065,1.8));
#970 = DIRECTION('',(0.5,-0.866025403784,-0.));
#971 = DIRECTION('',(-0.866025403784,-0.5,0.));
#972 = ADVANCED_FACE('',(#973),#991,.T.);
#973 = FACE_BOUND('',#974,.F.);
#974 = EDGE_LOOP('',(#975,#976,#984,#990));
#975 = ORIENTED_EDGE('',*,*,#341,.T.);
#976 = ORIENTED_EDGE('',*,*,#977,.T.);
#977 = EDGE_CURVE('',#342,#978,#980,.T.);
#978 = VERTEX_POINT('',#979);
#979 = CARTESIAN_POINT('',(20.9,16.17431578065,4.6));
#980 = LINE('',#981,#982);
#981 = CARTESIAN_POINT('',(20.9,16.17431578065,1.8));
#982 = VECTOR('',#983,1.);
#983 = DIRECTION('',(-0.,-0.,1.));
#984 = ORIENTED_EDGE('',*,*,#985,.T.);
#985 = EDGE_CURVE('',#978,#930,#986,.T.);
#986 = LINE('',#987,#988);
#987 = CARTESIAN_POINT('',(20.9,16.17431578065,4.6));
#988 = VECTOR('',#989,1.);
#989 = DIRECTION('',(-0.,-1.,-0.));
#990 = ORIENTED_EDGE('',*,*,#929,.F.);
#991 = PLANE('',#992);
#992 = AXIS2_PLACEMENT_3D('',#993,#994,#995);
#993 = CARTESIAN_POINT('',(20.9,16.17431578065,1.8));
#994 = DIRECTION('',(-1.,-0.,-0.));
#995 = DIRECTION('',(0.,1.,0.));
#996 = ADVANCED_FACE('',(#997),#1008,.T.);
#997 = FACE_BOUND('',#998,.F.);
#998 = EDGE_LOOP('',(#999,#1000,#1001,#1007));
#999 = ORIENTED_EDGE('',*,*,#349,.T.);
#1000 = ORIENTED_EDGE('',*,*,#962,.T.);
#1001 = ORIENTED_EDGE('',*,*,#1002,.T.);
#1002 = EDGE_CURVE('',#955,#978,#1003,.T.);
#1003 = LINE('',#1004,#1005);
#1004 = CARTESIAN_POINT('',(18.,17.8486315613,4.6));
#1005 = VECTOR('',#1006,1.);
#1006 = DIRECTION('',(0.866025403784,-0.5,-0.));
#1007 = ORIENTED_EDGE('',*,*,#977,.F.);
#1008 = PLANE('',#1009);
#1009 = AXIS2_PLACEMENT_3D('',#1010,#1011,#1012);
#1010 = CARTESIAN_POINT('',(18.,17.8486315613,1.8));
#1011 = DIRECTION('',(-0.5,-0.866025403784,-0.));
#1012 = DIRECTION('',(-0.866025403784,0.5,0.));
#1013 = ADVANCED_FACE('',(#1014,#1022),#1033,.T.);
#1014 = FACE_BOUND('',#1015,.F.);
#1015 = EDGE_LOOP('',(#1016,#1017,#1018,#1019,#1020,#1021));
#1016 = ORIENTED_EDGE('',*,*,#519,.T.);
#1017 = ORIENTED_EDGE('',*,*,#502,.T.);
#1018 = ORIENTED_EDGE('',*,*,#478,.T.);
#1019 = ORIENTED_EDGE('',*,*,#454,.T.);
#1020 = ORIENTED_EDGE('',*,*,#430,.T.);
#1021 = ORIENTED_EDGE('',*,*,#399,.T.);
#1022 = FACE_BOUND('',#1023,.F.);
#1023 = EDGE_LOOP('',(#1024));
#1024 = ORIENTED_EDGE('',*,*,#1025,.T.);
#1025 = EDGE_CURVE('',#1026,#1026,#1028,.T.);
#1026 = VERTEX_POINT('',#1027);
#1027 = CARTESIAN_POINT('',(18.,55.1,7.75));
#1028 = CIRCLE('',#1029,1.75);
#1029 = AXIS2_PLACEMENT_3D('',#1030,#1031,#1032);
#1030 = CARTESIAN_POINT('',(18.,55.1,6.));
#1031 = DIRECTION('',(0.,1.,0.));
#1032 = DIRECTION('',(-0.,-0.,1.));
#1033 = PLANE('',#1034);
#1034 = AXIS2_PLACEMENT_3D('',#1035,#1036,#1037);
#1035 = CARTESIAN_POINT('',(18.,55.1,6.));
#1036 = DIRECTION('',(-0.,1.,-0.));
#1037 = DIRECTION('',(0.,0.,1.));
#1038 = ADVANCED_FACE('',(#1039,#1047),#1050,.F.);
#1039 = FACE_BOUND('',#1040,.T.);
#1040 = EDGE_LOOP('',(#1041,#1042,#1043,#1044,#1045,#1046));
#1041 = ORIENTED_EDGE('',*,*,#858,.T.);
#1042 = ORIENTED_EDGE('',*,*,#738,.T.);
#1043 = ORIENTED_EDGE('',*,*,#762,.T.);
#1044 = ORIENTED_EDGE('',*,*,#786,.T.);
#1045 = ORIENTED_EDGE('',*,*,#810,.T.);
#1046 = ORIENTED_EDGE('',*,*,#834,.T.);
#1047 = FACE_BOUND('',#1048,.T.);
#1048 = EDGE_LOOP('',(#1049));
#1049 = ORIENTED_EDGE('',*,*,#544,.F.);
#1050 = PLANE('',#1051);
#1051 = AXIS2_PLACEMENT_3D('',#1052,#1053,#1054);
#1052 = CARTESIAN_POINT('',(18.,46.5,4.6));
#1053 = DIRECTION('',(-0.,-0.,1.));
#1054 = DIRECTION('',(-1.,0.,0.));
#1055 = ADVANCED_FACE('',(#1056,#1064),#1067,.F.);
#1056 = FACE_BOUND('',#1057,.T.);
#1057 = EDGE_LOOP('',(#1058,#1059,#1060,#1061,#1062,#1063));
#1058 = ORIENTED_EDGE('',*,*,#937,.T.);
#1059 = ORIENTED_EDGE('',*,*,#882,.T.);
#1060 = ORIENTED_EDGE('',*,*,#906,.T.);
#1061 = ORIENTED_EDGE('',*,*,#954,.T.);
#1062 = ORIENTED_EDGE('',*,*,#1002,.T.);
#1063 = ORIENTED_EDGE('',*,*,#985,.T.);
#1064 = FACE_BOUND('',#1065,.T.);
#1065 = EDGE_LOOP('',(#1066));
#1066 = ORIENTED_EDGE('',*,*,#569,.F.);
#1067 = PLANE('',#1068);
#1068 = AXIS2_PLACEMENT_3D('',#1069,#1070,#1071);
#1069 = CARTESIAN_POINT('',(18.,14.5,4.6));
#1070 = DIRECTION('',(-0.,-0.,1.));
#1071 = DIRECTION('',(-1.,0.,0.));
#1072 = ADVANCED_FACE('',(#1073,#1081),#1092,.F.);
#1073 = FACE_BOUND('',#1074,.T.);
#1074 = EDGE_LOOP('',(#1075,#1076,#1077,#1078,#1079,#1080));
#1075 = ORIENTED_EDGE('',*,*,#715,.T.);
#1076 = ORIENTED_EDGE('',*,*,#698,.T.);
#1077 = ORIENTED_EDGE('',*,*,#674,.T.);
#1078 = ORIENTED_EDGE('',*,*,#650,.T.);
#1079 = ORIENTED_EDGE('',*,*,#626,.T.);
#1080 = ORIENTED_EDGE('',*,*,#602,.T.);
#1081 = FACE_BOUND('',#1082,.T.);
#1082 = EDGE_LOOP('',(#1083));
#1083 = ORIENTED_EDGE('',*,*,#1084,.T.);
#1084 = EDGE_CURVE('',#1085,#1085,#1087,.T.);
#1085 = VERTEX_POINT('',#1086);
#1086 = CARTESIAN_POINT('',(18.,5.9,7.75));
#1087 = CIRCLE('',#1088,1.75);
#1088 = AXIS2_PLACEMENT_3D('',#1089,#1090,#1091);
#1089 = CARTESIAN_POINT('',(18.,5.9,6.));
#1090 = DIRECTION('',(0.,1.,0.));
#1091 = DIRECTION('',(-0.,-0.,1.));
#1092 = PLANE('',#1093);
#1093 = AXIS2_PLACEMENT_3D('',#1094,#1095,#1096);
#1094 = CARTESIAN_POINT('',(18.,5.9,6.));
#1095 = DIRECTION('',(-0.,1.,-0.));
#1096 = DIRECTION('',(0.,0.,1.));
#1097 = ADVANCED_FACE('',(#1098),#1117,.F.);
#1098 = FACE_BOUND('',#1099,.T.);
#1099 = EDGE_LOOP('',(#1100,#1108,#1115,#1116));
#1100 = ORIENTED_EDGE('',*,*,#1101,.T.);
#1101 = EDGE_CURVE('',#1026,#1102,#1104,.T.);
#1102 = VERTEX_POINT('',#1103);
#1103 = CARTESIAN_POINT('',(18.,52.2,7.75));
#1104 = LINE('',#1105,#1106);
#1105 = CARTESIAN_POINT('',(18.,58.4,7.75));
#1106 = VECTOR('',#1107,1.);
#1107 = DIRECTION('',(-0.,-1.,-0.));
#1108 = ORIENTED_EDGE('',*,*,#1109,.F.);
#1109 = EDGE_CURVE('',#1102,#1102,#1110,.T.);
#1110 = CIRCLE('',#1111,1.75);
#1111 = AXIS2_PLACEMENT_3D('',#1112,#1113,#1114);
#1112 = CARTESIAN_POINT('',(18.,52.2,6.));
#1113 = DIRECTION('',(0.,1.,0.));
#1114 = DIRECTION('',(-0.,-0.,1.));
#1115 = ORIENTED_EDGE('',*,*,#1101,.F.);
#1116 = ORIENTED_EDGE('',*,*,#1025,.T.);
#1117 = CYLINDRICAL_SURFACE('',#1118,1.75);
#1118 = AXIS2_PLACEMENT_3D('',#1119,#1120,#1121);
#1119 = CARTESIAN_POINT('',(18.,58.4,6.));
#1120 = DIRECTION('',(-0.,-1.,-0.));
#1121 = DIRECTION('',(-0.,-0.,1.));
#1122 = ADVANCED_FACE('',(#1123),#1142,.F.);
#1123 = FACE_BOUND('',#1124,.T.);
#1124 = EDGE_LOOP('',(#1125,#1126,#1134,#1141));
#1125 = ORIENTED_EDGE('',*,*,#1084,.F.);
#1126 = ORIENTED_EDGE('',*,*,#1127,.F.);
#1127 = EDGE_CURVE('',#1128,#1085,#1130,.T.);
#1128 = VERTEX_POINT('',#1129);
#1129 = CARTESIAN_POINT('',(18.,8.4,7.75));
#1130 = LINE('',#1131,#1132);
#1131 = CARTESIAN_POINT('',(18.,8.4,7.75));
#1132 = VECTOR('',#1133,1.);
#1133 = DIRECTION('',(-0.,-1.,-0.));
#1134 = ORIENTED_EDGE('',*,*,#1135,.T.);
#1135 = EDGE_CURVE('',#1128,#1128,#1136,.T.);
#1136 = CIRCLE('',#1137,1.75);
#1137 = AXIS2_PLACEMENT_3D('',#1138,#1139,#1140);
#1138 = CARTESIAN_POINT('',(18.,8.4,6.));
#1139 = DIRECTION('',(0.,1.,0.));
#1140 = DIRECTION('',(-0.,-0.,1.));
#1141 = ORIENTED_EDGE('',*,*,#1127,.T.);
#1142 = CYLINDRICAL_SURFACE('',#1143,1.75);
#1143 = AXIS2_PLACEMENT_3D('',#1144,#1145,#1146);
#1144 = CARTESIAN_POINT('',(18.,8.4,6.));
#1145 = DIRECTION('',(-0.,-1.,-0.));
#1146 = DIRECTION('',(-0.,-0.,1.));
#1147 = ADVANCED_FACE('',(#1148),#1151,.F.);
#1148 = FACE_BOUND('',#1149,.T.);
#1149 = EDGE_LOOP('',(#1150));
#1150 = ORIENTED_EDGE('',*,*,#1109,.T.);
#1151 = PLANE('',#1152);
#1152 = AXIS2_PLACEMENT_3D('',#1153,#1154,#1155);
#1153 = CARTESIAN_POINT('',(18.,52.2,6.));
#1154 = DIRECTION('',(-0.,-1.,-0.));
#1155 = DIRECTION('',(0.,0.,-1.));
#1156 = ADVANCED_FACE('',(#1157),#1160,.T.);
#1157 = FACE_BOUND('',#1158,.T.);
#1158 = EDGE_LOOP('',(#1159));
#1159 = ORIENTED_EDGE('',*,*,#1135,.F.);
#1160 = PLANE('',#1161);
#1161 = AXIS2_PLACEMENT_3D('',#1162,#1163,#1164);
#1162 = CARTESIAN_POINT('',(18.,8.4,6.));
#1163 = DIRECTION('',(-0.,-1.,-0.));
#1164 = DIRECTION('',(0.,0.,-1.));
#1165 = MANIFOLD_SOLID_BREP('',#1166);
#1166 = CLOSED_SHELL('',(#1167,#1207,#1288,#1334,#1408,#1525,#1537,#1568
    ,#1592,#1616,#1640,#1664,#1681,#1706,#1731,#1762,#1786,#1810,#1834,
    #1858,#1875,#1906,#1930,#1954,#1978,#2002,#2019,#2050,#2074,#2098,
    #2122,#2146,#2163,#2188,#2205,#2222,#2247,#2272,#2297,#2306));
#1167 = ADVANCED_FACE('',(#1168),#1202,.F.);
#1168 = FACE_BOUND('',#1169,.T.);
#1169 = EDGE_LOOP('',(#1170,#1180,#1188,#1196));
#1170 = ORIENTED_EDGE('',*,*,#1171,.F.);
#1171 = EDGE_CURVE('',#1172,#1174,#1176,.T.);
#1172 = VERTEX_POINT('',#1173);
#1173 = CARTESIAN_POINT('',(96.,58.,2.));
#1174 = VERTEX_POINT('',#1175);
#1175 = CARTESIAN_POINT('',(96.,58.,10.));
#1176 = LINE('',#1177,#1178);
#1177 = CARTESIAN_POINT('',(96.,58.,2.));
#1178 = VECTOR('',#1179,1.);
#1179 = DIRECTION('',(-0.,-0.,1.));
#1180 = ORIENTED_EDGE('',*,*,#1181,.T.);
#1181 = EDGE_CURVE('',#1172,#1182,#1184,.T.);
#1182 = VERTEX_POINT('',#1183);
#1183 = CARTESIAN_POINT('',(96.,3.,2.));
#1184 = LINE('',#1185,#1186);
#1185 = CARTESIAN_POINT('',(96.,58.,2.));
#1186 = VECTOR('',#1187,1.);
#1187 = DIRECTION('',(-0.,-1.,-0.));
#1188 = ORIENTED_EDGE('',*,*,#1189,.T.);
#1189 = EDGE_CURVE('',#1182,#1190,#1192,.T.);
#1190 = VERTEX_POINT('',#1191);
#1191 = CARTESIAN_POINT('',(96.,3.,10.));
#1192 = LINE('',#1193,#1194);
#1193 = CARTESIAN_POINT('',(96.,3.,2.));
#1194 = VECTOR('',#1195,1.);
#1195 = DIRECTION('',(-0.,-0.,1.));
#1196 = ORIENTED_EDGE('',*,*,#1197,.F.);
#1197 = EDGE_CURVE('',#1174,#1190,#1198,.T.);
#1198 = LINE('',#1199,#1200);
#1199 = CARTESIAN_POINT('',(96.,58.,10.));
#1200 = VECTOR('',#1201,1.);
#1201 = DIRECTION('',(-0.,-1.,-0.));
#1202 = PLANE('',#1203);
#1203 = AXIS2_PLACEMENT_3D('',#1204,#1205,#1206);
#1204 = CARTESIAN_POINT('',(96.,58.,2.));
#1205 = DIRECTION('',(1.,-0.,-0.));
#1206 = DIRECTION('',(0.,0.,-1.));
#1207 = ADVANCED_FACE('',(#1208,#1233),#1283,.F.);
#1208 = FACE_BOUND('',#1209,.T.);
#1209 = EDGE_LOOP('',(#1210,#1218,#1219,#1227));
#1210 = ORIENTED_EDGE('',*,*,#1211,.F.);
#1211 = EDGE_CURVE('',#1172,#1212,#1214,.T.);
#1212 = VERTEX_POINT('',#1213);
#1213 = CARTESIAN_POINT('',(108.,58.,2.));
#1214 = LINE('',#1215,#1216);
#1215 = CARTESIAN_POINT('',(96.,58.,2.));
#1216 = VECTOR('',#1217,1.);
#1217 = DIRECTION('',(1.,-0.,-0.));
#1218 = ORIENTED_EDGE('',*,*,#1171,.T.);
#1219 = ORIENTED_EDGE('',*,*,#1220,.T.);
#1220 = EDGE_CURVE('',#1174,#1221,#1223,.T.);
#1221 = VERTEX_POINT('',#1222);
#1222 = CARTESIAN_POINT('',(108.,58.,10.));
#1223 = LINE('',#1224,#1225);
#1224 = CARTESIAN_POINT('',(96.,58.,10.));
#1225 = VECTOR('',#1226,1.);
#1226 = DIRECTION('',(1.,-0.,-0.));
#1227 = ORIENTED_EDGE('',*,*,#1228,.F.);
#1228 = EDGE_CURVE('',#1212,#1221,#1229,.T.);
#1229 = LINE('',#1230,#1231);
#1230 = CARTESIAN_POINT('',(108.,58.,2.));
#1231 = VECTOR('',#1232,1.);
#1232 = DIRECTION('',(-0.,-0.,1.));
#1233 = FACE_BOUND('',#1234,.T.);
#1234 = EDGE_LOOP('',(#1235,#1245,#1253,#1261,#1269,#1277));
#1235 = ORIENTED_EDGE('',*,*,#1236,.T.);
#1236 = EDGE_CURVE('',#1237,#1239,#1241,.T.);
#1237 = VERTEX_POINT('',#1238);
#1238 = CARTESIAN_POINT('',(104.9,58.,4.32568421935));
#1239 = VERTEX_POINT('',#1240);
#1240 = CARTESIAN_POINT('',(104.9,58.,7.67431578065));
#1241 = LINE('',#1242,#1243);
#1242 = CARTESIAN_POINT('',(104.9,58.,4.32568421935));
#1243 = VECTOR('',#1244,1.);
#1244 = DIRECTION('',(-0.,-0.,1.));
#1245 = ORIENTED_EDGE('',*,*,#1246,.T.);
#1246 = EDGE_CURVE('',#1239,#1247,#1249,.T.);
#1247 = VERTEX_POINT('',#1248);
#1248 = CARTESIAN_POINT('',(102.,58.,9.3486315613));
#1249 = LINE('',#1250,#1251);
#1250 = CARTESIAN_POINT('',(104.9,58.,7.67431578065));
#1251 = VECTOR('',#1252,1.);
#1252 = DIRECTION('',(-0.866025403784,-0.,0.5));
#1253 = ORIENTED_EDGE('',*,*,#1254,.T.);
#1254 = EDGE_CURVE('',#1247,#1255,#1257,.T.);
#1255 = VERTEX_POINT('',#1256);
#1256 = CARTESIAN_POINT('',(99.1,58.,7.67431578065));
#1257 = LINE('',#1258,#1259);
#1258 = CARTESIAN_POINT('',(102.,58.,9.3486315613));
#1259 = VECTOR('',#1260,1.);
#1260 = DIRECTION('',(-0.866025403784,-0.,-0.5));
#1261 = ORIENTED_EDGE('',*,*,#1262,.T.);
#1262 = EDGE_CURVE('',#1255,#1263,#1265,.T.);
#1263 = VERTEX_POINT('',#1264);
#1264 = CARTESIAN_POINT('',(99.1,58.,4.32568421935));
#1265 = LINE('',#1266,#1267);
#1266 = CARTESIAN_POINT('',(99.1,58.,7.67431578065));
#1267 = VECTOR('',#1268,1.);
#1268 = DIRECTION('',(-0.,-0.,-1.));
#1269 = ORIENTED_EDGE('',*,*,#1270,.T.);
#1270 = EDGE_CURVE('',#1263,#1271,#1273,.T.);
#1271 = VERTEX_POINT('',#1272);
#1272 = CARTESIAN_POINT('',(102.,58.,2.6513684387));
#1273 = LINE('',#1274,#1275);
#1274 = CARTESIAN_POINT('',(99.1,58.,4.32568421935));
#1275 = VECTOR('',#1276,1.);
#1276 = DIRECTION('',(0.866025403784,-0.,-0.5));
#1277 = ORIENTED_EDGE('',*,*,#1278,.T.);
#1278 = EDGE_CURVE('',#1271,#1237,#1279,.T.);
#1279 = LINE('',#1280,#1281);
#1280 = CARTESIAN_POINT('',(102.,58.,2.6513684387));
#1281 = VECTOR('',#1282,1.);
#1282 = DIRECTION('',(0.866025403784,-0.,0.5));
#1283 = PLANE('',#1284);
#1284 = AXIS2_PLACEMENT_3D('',#1285,#1286,#1287);
#1285 = CARTESIAN_POINT('',(96.,58.,2.));
#1286 = DIRECTION('',(-0.,-1.,-0.));
#1287 = DIRECTION('',(0.,0.,-1.));
#1288 = ADVANCED_FACE('',(#1289,#1307,#1318),#1329,.T.);
#1289 = FACE_BOUND('',#1290,.F.);
#1290 = EDGE_LOOP('',(#1291,#1292,#1293,#1301));
#1291 = ORIENTED_EDGE('',*,*,#1197,.F.);
#1292 = ORIENTED_EDGE('',*,*,#1220,.T.);
#1293 = ORIENTED_EDGE('',*,*,#1294,.T.);
#1294 = EDGE_CURVE('',#1221,#1295,#1297,.T.);
#1295 = VERTEX_POINT('',#1296);
#1296 = CARTESIAN_POINT('',(108.,3.,10.));
#1297 = LINE('',#1298,#1299);
#1298 = CARTESIAN_POINT('',(108.,58.,10.));
#1299 = VECTOR('',#1300,1.);
#1300 = DIRECTION('',(-0.,-1.,-0.));
#1301 = ORIENTED_EDGE('',*,*,#1302,.F.);
#1302 = EDGE_CURVE('',#1190,#1295,#1303,.T.);
#1303 = LINE('',#1304,#1305);
#1304 = CARTESIAN_POINT('',(96.,3.,10.));
#1305 = VECTOR('',#1306,1.);
#1306 = DIRECTION('',(1.,-0.,-0.));
#1307 = FACE_BOUND('',#1308,.F.);
#1308 = EDGE_LOOP('',(#1309));
#1309 = ORIENTED_EDGE('',*,*,#1310,.F.);
#1310 = EDGE_CURVE('',#1311,#1311,#1313,.T.);
#1311 = VERTEX_POINT('',#1312);
#1312 = CARTESIAN_POINT('',(103.75,46.5,10.));
#1313 = CIRCLE('',#1314,1.75);
#1314 = AXIS2_PLACEMENT_3D('',#1315,#1316,#1317);
#1315 = CARTESIAN_POINT('',(102.,46.5,10.));
#1316 = DIRECTION('',(0.,0.,-1.));
#1317 = DIRECTION('',(1.,-0.,-0.));
#1318 = FACE_BOUND('',#1319,.F.);
#1319 = EDGE_LOOP('',(#1320));
#1320 = ORIENTED_EDGE('',*,*,#1321,.F.);
#1321 = EDGE_CURVE('',#1322,#1322,#1324,.T.);
#1322 = VERTEX_POINT('',#1323);
#1323 = CARTESIAN_POINT('',(103.65,14.5,10.));
#1324 = CIRCLE('',#1325,1.65);
#1325 = AXIS2_PLACEMENT_3D('',#1326,#1327,#1328);
#1326 = CARTESIAN_POINT('',(102.,14.5,10.));
#1327 = DIRECTION('',(0.,0.,-1.));
#1328 = DIRECTION('',(1.,-0.,-0.));
#1329 = PLANE('',#1330);
#1330 = AXIS2_PLACEMENT_3D('',#1331,#1332,#1333);
#1331 = CARTESIAN_POINT('',(96.,58.,10.));
#1332 = DIRECTION('',(-0.,-0.,1.));
#1333 = DIRECTION('',(-1.,0.,0.));
#1334 = ADVANCED_FACE('',(#1335,#1353),#1403,.T.);
#1335 = FACE_BOUND('',#1336,.F.);
#1336 = EDGE_LOOP('',(#1337,#1345,#1346,#1347));
#1337 = ORIENTED_EDGE('',*,*,#1338,.F.);
#1338 = EDGE_CURVE('',#1182,#1339,#1341,.T.);
#1339 = VERTEX_POINT('',#1340);
#1340 = CARTESIAN_POINT('',(108.,3.,2.));
#1341 = LINE('',#1342,#1343);
#1342 = CARTESIAN_POINT('',(96.,3.,2.));
#1343 = VECTOR('',#1344,1.);
#1344 = DIRECTION('',(1.,-0.,-0.));
#1345 = ORIENTED_EDGE('',*,*,#1189,.T.);
#1346 = ORIENTED_EDGE('',*,*,#1302,.T.);
#1347 = ORIENTED_EDGE('',*,*,#1348,.F.);
#1348 = EDGE_CURVE('',#1339,#1295,#1349,.T.);
#1349 = LINE('',#1350,#1351);
#1350 = CARTESIAN_POINT('',(108.,3.,2.));
#1351 = VECTOR('',#1352,1.);
#1352 = DIRECTION('',(-0.,-0.,1.));
#1353 = FACE_BOUND('',#1354,.F.);
#1354 = EDGE_LOOP('',(#1355,#1365,#1373,#1381,#1389,#1397));
#1355 = ORIENTED_EDGE('',*,*,#1356,.T.);
#1356 = EDGE_CURVE('',#1357,#1359,#1361,.T.);
#1357 = VERTEX_POINT('',#1358);
#1358 = CARTESIAN_POINT('',(104.9,3.,4.32568421935));
#1359 = VERTEX_POINT('',#1360);
#1360 = CARTESIAN_POINT('',(104.9,3.,7.67431578065));
#1361 = LINE('',#1362,#1363);
#1362 = CARTESIAN_POINT('',(104.9,3.,4.32568421935));
#1363 = VECTOR('',#1364,1.);
#1364 = DIRECTION('',(-0.,-0.,1.));
#1365 = ORIENTED_EDGE('',*,*,#1366,.T.);
#1366 = EDGE_CURVE('',#1359,#1367,#1369,.T.);
#1367 = VERTEX_POINT('',#1368);
#1368 = CARTESIAN_POINT('',(102.,3.,9.3486315613));
#1369 = LINE('',#1370,#1371);
#1370 = CARTESIAN_POINT('',(104.9,3.,7.67431578065));
#1371 = VECTOR('',#1372,1.);
#1372 = DIRECTION('',(-0.866025403784,-0.,0.5));
#1373 = ORIENTED_EDGE('',*,*,#1374,.T.);
#1374 = EDGE_CURVE('',#1367,#1375,#1377,.T.);
#1375 = VERTEX_POINT('',#1376);
#1376 = CARTESIAN_POINT('',(99.1,3.,7.67431578065));
#1377 = LINE('',#1378,#1379);
#1378 = CARTESIAN_POINT('',(102.,3.,9.3486315613));
#1379 = VECTOR('',#1380,1.);
#1380 = DIRECTION('',(-0.866025403784,-0.,-0.5));
#1381 = ORIENTED_EDGE('',*,*,#1382,.T.);
#1382 = EDGE_CURVE('',#1375,#1383,#1385,.T.);
#1383 = VERTEX_POINT('',#1384);
#1384 = CARTESIAN_POINT('',(99.1,3.,4.32568421935));
#1385 = LINE('',#1386,#1387);
#1386 = CARTESIAN_POINT('',(99.1,3.,7.67431578065));
#1387 = VECTOR('',#1388,1.);
#1388 = DIRECTION('',(-0.,-0.,-1.));
#1389 = ORIENTED_EDGE('',*,*,#1390,.T.);
#1390 = EDGE_CURVE('',#1383,#1391,#1393,.T.);
#1391 = VERTEX_POINT('',#1392);
#1392 = CARTESIAN_POINT('',(102.,3.,2.6513684387));
#1393 = LINE('',#1394,#1395);
#1394 = CARTESIAN_POINT('',(99.1,3.,4.32568421935));
#1395 = VECTOR('',#1396,1.);
#1396 = DIRECTION('',(0.866025403784,-0.,-0.5));
#1397 = ORIENTED_EDGE('',*,*,#1398,.T.);
#1398 = EDGE_CURVE('',#1391,#1357,#1399,.T.);
#1399 = LINE('',#1400,#1401);
#1400 = CARTESIAN_POINT('',(102.,3.,2.6513684387));
#1401 = VECTOR('',#1402,1.);
#1402 = DIRECTION('',(0.866025403784,-0.,0.5));
#1403 = PLANE('',#1404);
#1404 = AXIS2_PLACEMENT_3D('',#1405,#1406,#1407);
#1405 = CARTESIAN_POINT('',(96.,3.,2.));
#1406 = DIRECTION('',(-0.,-1.,-0.));
#1407 = DIRECTION('',(0.,0.,-1.));
#1408 = ADVANCED_FACE('',(#1409,#1420,#1470),#1520,.F.);
#1409 = FACE_BOUND('',#1410,.T.);
#1410 = EDGE_LOOP('',(#1411,#1412,#1413,#1419));
#1411 = ORIENTED_EDGE('',*,*,#1181,.F.);
#1412 = ORIENTED_EDGE('',*,*,#1211,.T.);
#1413 = ORIENTED_EDGE('',*,*,#1414,.T.);
#1414 = EDGE_CURVE('',#1212,#1339,#1415,.T.);
#1415 = LINE('',#1416,#1417);
#1416 = CARTESIAN_POINT('',(108.,58.,2.));
#1417 = VECTOR('',#1418,1.);
#1418 = DIRECTION('',(-0.,-1.,-0.));
#1419 = ORIENTED_EDGE('',*,*,#1338,.F.);
#1420 = FACE_BOUND('',#1421,.T.);
#1421 = EDGE_LOOP('',(#1422,#1432,#1440,#1448,#1456,#1464));
#1422 = ORIENTED_EDGE('',*,*,#1423,.T.);
#1423 = EDGE_CURVE('',#1424,#1426,#1428,.T.);
#1424 = VERTEX_POINT('',#1425);
#1425 = CARTESIAN_POINT('',(99.1,44.82568421935,2.));
#1426 = VERTEX_POINT('',#1427);
#1427 = CARTESIAN_POINT('',(102.,43.1513684387,2.));
#1428 = LINE('',#1429,#1430);
#1429 = CARTESIAN_POINT('',(96.53517696412,46.306485489539,2.));
#1430 = VECTOR('',#1431,1.);
#1431 = DIRECTION('',(0.866025403784,-0.5,-0.));
#1432 = ORIENTED_EDGE('',*,*,#1433,.T.);
#1433 = EDGE_CURVE('',#1426,#1434,#1436,.T.);
#1434 = VERTEX_POINT('',#1435);
#1435 = CARTESIAN_POINT('',(104.9,44.82568421935,2.));
#1436 = LINE('',#1437,#1438);
#1437 = CARTESIAN_POINT('',(104.41482303588,44.545567168511,2.));
#1438 = VECTOR('',#1439,1.);
#1439 = DIRECTION('',(0.866025403784,0.5,-0.));
#1440 = ORIENTED_EDGE('',*,*,#1441,.T.);
#1441 = EDGE_CURVE('',#1434,#1442,#1444,.T.);
#1442 = VERTEX_POINT('',#1443);
#1443 = CARTESIAN_POINT('',(104.9,48.17431578065,2.));
#1444 = LINE('',#1445,#1446);
#1445 = CARTESIAN_POINT('',(104.9,53.087157890325,2.));
#1446 = VECTOR('',#1447,1.);
#1447 = DIRECTION('',(-0.,1.,-0.));
#1448 = ORIENTED_EDGE('',*,*,#1449,.T.);
#1449 = EDGE_CURVE('',#1442,#1450,#1452,.T.);
#1450 = VERTEX_POINT('',#1451);
#1451 = CARTESIAN_POINT('',(102.,49.8486315613,2.));
#1452 = LINE('',#1453,#1454);
#1453 = CARTESIAN_POINT('',(97.98517696412,52.166590721814,2.));
#1454 = VECTOR('',#1455,1.);
#1455 = DIRECTION('',(-0.866025403784,0.5,0.));
#1456 = ORIENTED_EDGE('',*,*,#1457,.T.);
#1457 = EDGE_CURVE('',#1450,#1458,#1460,.T.);
#1458 = VERTEX_POINT('',#1459);
#1459 = CARTESIAN_POINT('',(99.1,48.17431578065,2.));
#1460 = LINE('',#1461,#1462);
#1461 = CARTESIAN_POINT('',(100.06482303588,48.731356620136,2.));
#1462 = VECTOR('',#1463,1.);
#1463 = DIRECTION('',(-0.866025403784,-0.5,-0.));
#1464 = ORIENTED_EDGE('',*,*,#1465,.T.);
#1465 = EDGE_CURVE('',#1458,#1424,#1466,.T.);
#1466 = LINE('',#1467,#1468);
#1467 = CARTESIAN_POINT('',(99.1,51.412842109675,2.));
#1468 = VECTOR('',#1469,1.);
#1469 = DIRECTION('',(-0.,-1.,-0.));
#1470 = FACE_BOUND('',#1471,.T.);
#1471 = EDGE_LOOP('',(#1472,#1482,#1490,#1498,#1506,#1514));
#1472 = ORIENTED_EDGE('',*,*,#1473,.T.);
#1473 = EDGE_CURVE('',#1474,#1476,#1478,.T.);
#1474 = VERTEX_POINT('',#1475);
#1475 = CARTESIAN_POINT('',(99.1,12.82568421935,2.));
#1476 = VERTEX_POINT('',#1477);
#1477 = CARTESIAN_POINT('',(102.,11.1513684387,2.));
#1478 = LINE('',#1479,#1480);
#1479 = CARTESIAN_POINT('',(89.606973733844,18.306485489539,2.));
#1480 = VECTOR('',#1481,1.);
#1481 = DIRECTION('',(0.866025403784,-0.5,-0.));
#1482 = ORIENTED_EDGE('',*,*,#1483,.T.);
#1483 = EDGE_CURVE('',#1476,#1484,#1486,.T.);
#1484 = VERTEX_POINT('',#1485);
#1485 = CARTESIAN_POINT('',(104.9,12.82568421935,2.));
#1486 = LINE('',#1487,#1488);
#1487 = CARTESIAN_POINT('',(111.34302626615,16.545567168511,2.));
#1488 = VECTOR('',#1489,1.);
#1489 = DIRECTION('',(0.866025403784,0.5,-0.));
#1490 = ORIENTED_EDGE('',*,*,#1491,.T.);
#1491 = EDGE_CURVE('',#1484,#1492,#1494,.T.);
#1492 = VERTEX_POINT('',#1493);
#1493 = CARTESIAN_POINT('',(104.9,16.17431578065,2.));
#1494 = LINE('',#1495,#1496);
#1495 = CARTESIAN_POINT('',(104.9,37.087157890325,2.));
#1496 = VECTOR('',#1497,1.);
#1497 = DIRECTION('',(-0.,1.,-0.));
#1498 = ORIENTED_EDGE('',*,*,#1499,.T.);
#1499 = EDGE_CURVE('',#1492,#1500,#1502,.T.);
#1500 = VERTEX_POINT('',#1501);
#1501 = CARTESIAN_POINT('',(102.,17.8486315613,2.));
#1502 = LINE('',#1503,#1504);
#1503 = CARTESIAN_POINT('',(91.056973733844,24.166590721814,2.));
#1504 = VECTOR('',#1505,1.);
#1505 = DIRECTION('',(-0.866025403784,0.5,0.));
#1506 = ORIENTED_EDGE('',*,*,#1507,.T.);
#1507 = EDGE_CURVE('',#1500,#1508,#1510,.T.);
#1508 = VERTEX_POINT('',#1509);
#1509 = CARTESIAN_POINT('',(99.1,16.17431578065,2.));
#1510 = LINE('',#1511,#1512);
#1511 = CARTESIAN_POINT('',(106.99302626615,20.731356620136,2.));
#1512 = VECTOR('',#1513,1.);
#1513 = DIRECTION('',(-0.866025403784,-0.5,-0.));
#1514 = ORIENTED_EDGE('',*,*,#1515,.T.);
#1515 = EDGE_CURVE('',#1508,#1474,#1516,.T.);
#1516 = LINE('',#1517,#1518);
#1517 = CARTESIAN_POINT('',(99.1,35.412842109675,2.));
#1518 = VECTOR('',#1519,1.);
#1519 = DIRECTION('',(-0.,-1.,-0.));
#1520 = PLANE('',#1521);
#1521 = AXIS2_PLACEMENT_3D('',#1522,#1523,#1524);
#1522 = CARTESIAN_POINT('',(96.,58.,2.));
#1523 = DIRECTION('',(-0.,-0.,1.));
#1524 = DIRECTION('',(-1.,0.,0.));
#1525 = ADVANCED_FACE('',(#1526),#1532,.T.);
#1526 = FACE_BOUND('',#1527,.F.);
#1527 = EDGE_LOOP('',(#1528,#1529,#1530,#1531));
#1528 = ORIENTED_EDGE('',*,*,#1228,.F.);
#1529 = ORIENTED_EDGE('',*,*,#1414,.T.);
#1530 = ORIENTED_EDGE('',*,*,#1348,.T.);
#1531 = ORIENTED_EDGE('',*,*,#1294,.F.);
#1532 = PLANE('',#1533);
#1533 = AXIS2_PLACEMENT_3D('',#1534,#1535,#1536);
#1534 = CARTESIAN_POINT('',(108.,58.,2.));
#1535 = DIRECTION('',(1.,-0.,-0.));
#1536 = DIRECTION('',(0.,0.,-1.));
#1537 = ADVANCED_FACE('',(#1538),#1563,.F.);
#1538 = FACE_BOUND('',#1539,.T.);
#1539 = EDGE_LOOP('',(#1540,#1548,#1556,#1562));
#1540 = ORIENTED_EDGE('',*,*,#1541,.T.);
#1541 = EDGE_CURVE('',#1237,#1542,#1544,.T.);
#1542 = VERTEX_POINT('',#1543);
#1543 = CARTESIAN_POINT('',(104.9,55.1,4.32568421935));
#1544 = LINE('',#1545,#1546);
#1545 = CARTESIAN_POINT('',(104.9,58.,4.32568421935));
#1546 = VECTOR('',#1547,1.);
#1547 = DIRECTION('',(-0.,-1.,-0.));
#1548 = ORIENTED_EDGE('',*,*,#1549,.T.);
#1549 = EDGE_CURVE('',#1542,#1550,#1552,.T.);
#1550 = VERTEX_POINT('',#1551);
#1551 = CARTESIAN_POINT('',(104.9,55.1,7.67431578065));
#1552 = LINE('',#1553,#1554);
#1553 = CARTESIAN_POINT('',(104.9,55.1,4.32568421935));
#1554 = VECTOR('',#1555,1.);
#1555 = DIRECTION('',(-0.,-0.,1.));
#1556 = ORIENTED_EDGE('',*,*,#1557,.F.);
#1557 = EDGE_CURVE('',#1239,#1550,#1558,.T.);
#1558 = LINE('',#1559,#1560);
#1559 = CARTESIAN_POINT('',(104.9,58.,7.67431578065));
#1560 = VECTOR('',#1561,1.);
#1561 = DIRECTION('',(-0.,-1.,-0.));
#1562 = ORIENTED_EDGE('',*,*,#1236,.F.);
#1563 = PLANE('',#1564);
#1564 = AXIS2_PLACEMENT_3D('',#1565,#1566,#1567);
#1565 = CARTESIAN_POINT('',(104.9,58.,4.32568421935));
#1566 = DIRECTION('',(1.,-0.,-0.));
#1567 = DIRECTION('',(0.,0.,-1.));
#1568 = ADVANCED_FACE('',(#1569),#1587,.F.);
#1569 = FACE_BOUND('',#1570,.T.);
#1570 = EDGE_LOOP('',(#1571,#1579,#1585,#1586));
#1571 = ORIENTED_EDGE('',*,*,#1572,.T.);
#1572 = EDGE_CURVE('',#1271,#1573,#1575,.T.);
#1573 = VERTEX_POINT('',#1574);
#1574 = CARTESIAN_POINT('',(102.,55.1,2.6513684387));
#1575 = LINE('',#1576,#1577);
#1576 = CARTESIAN_POINT('',(102.,58.,2.6513684387));
#1577 = VECTOR('',#1578,1.);
#1578 = DIRECTION('',(-0.,-1.,-0.));
#1579 = ORIENTED_EDGE('',*,*,#1580,.T.);
#1580 = EDGE_CURVE('',#1573,#1542,#1581,.T.);
#1581 = LINE('',#1582,#1583);
#1582 = CARTESIAN_POINT('',(102.,55.1,2.6513684387));
#1583 = VECTOR('',#1584,1.);
#1584 = DIRECTION('',(0.866025403784,-0.,0.5));
#1585 = ORIENTED_EDGE('',*,*,#1541,.F.);
#1586 = ORIENTED_EDGE('',*,*,#1278,.F.);
#1587 = PLANE('',#1588);
#1588 = AXIS2_PLACEMENT_3D('',#1589,#1590,#1591);
#1589 = CARTESIAN_POINT('',(102.,58.,2.6513684387));
#1590 = DIRECTION('',(0.5,-0.,-0.866025403784));
#1591 = DIRECTION('',(-0.866025403784,0.,-0.5));
#1592 = ADVANCED_FACE('',(#1593),#1611,.F.);
#1593 = FACE_BOUND('',#1594,.T.);
#1594 = EDGE_LOOP('',(#1595,#1603,#1609,#1610));
#1595 = ORIENTED_EDGE('',*,*,#1596,.T.);
#1596 = EDGE_CURVE('',#1263,#1597,#1599,.T.);
#1597 = VERTEX_POINT('',#1598);
#1598 = CARTESIAN_POINT('',(99.1,55.1,4.32568421935));
#1599 = LINE('',#1600,#1601);
#1600 = CARTESIAN_POINT('',(99.1,58.,4.32568421935));
#1601 = VECTOR('',#1602,1.);
#1602 = DIRECTION('',(-0.,-1.,-0.));
#1603 = ORIENTED_EDGE('',*,*,#1604,.T.);
#1604 = EDGE_CURVE('',#1597,#1573,#1605,.T.);
#1605 = LINE('',#1606,#1607);
#1606 = CARTESIAN_POINT('',(99.1,55.1,4.32568421935));
#1607 = VECTOR('',#1608,1.);
#1608 = DIRECTION('',(0.866025403784,-0.,-0.5));
#1609 = ORIENTED_EDGE('',*,*,#1572,.F.);
#1610 = ORIENTED_EDGE('',*,*,#1270,.F.);
#1611 = PLANE('',#1612);
#1612 = AXIS2_PLACEMENT_3D('',#1613,#1614,#1615);
#1613 = CARTESIAN_POINT('',(99.1,58.,4.32568421935));
#1614 = DIRECTION('',(-0.5,-0.,-0.866025403784));
#1615 = DIRECTION('',(-0.866025403784,0.,0.5));
#1616 = ADVANCED_FACE('',(#1617),#1635,.F.);
#1617 = FACE_BOUND('',#1618,.T.);
#1618 = EDGE_LOOP('',(#1619,#1627,#1633,#1634));
#1619 = ORIENTED_EDGE('',*,*,#1620,.T.);
#1620 = EDGE_CURVE('',#1255,#1621,#1623,.T.);
#1621 = VERTEX_POINT('',#1622);
#1622 = CARTESIAN_POINT('',(99.1,55.1,7.67431578065));
#1623 = LINE('',#1624,#1625);
#1624 = CARTESIAN_POINT('',(99.1,58.,7.67431578065));
#1625 = VECTOR('',#1626,1.);
#1626 = DIRECTION('',(-0.,-1.,-0.));
#1627 = ORIENTED_EDGE('',*,*,#1628,.T.);
#1628 = EDGE_CURVE('',#1621,#1597,#1629,.T.);
#1629 = LINE('',#1630,#1631);
#1630 = CARTESIAN_POINT('',(99.1,55.1,7.67431578065));
#1631 = VECTOR('',#1632,1.);
#1632 = DIRECTION('',(-0.,-0.,-1.));
#1633 = ORIENTED_EDGE('',*,*,#1596,.F.);
#1634 = ORIENTED_EDGE('',*,*,#1262,.F.);
#1635 = PLANE('',#1636);
#1636 = AXIS2_PLACEMENT_3D('',#1637,#1638,#1639);
#1637 = CARTESIAN_POINT('',(99.1,58.,7.67431578065));
#1638 = DIRECTION('',(-1.,-0.,-0.));
#1639 = DIRECTION('',(0.,0.,1.));
#1640 = ADVANCED_FACE('',(#1641),#1659,.F.);
#1641 = FACE_BOUND('',#1642,.T.);
#1642 = EDGE_LOOP('',(#1643,#1651,#1657,#1658));
#1643 = ORIENTED_EDGE('',*,*,#1644,.T.);
#1644 = EDGE_CURVE('',#1247,#1645,#1647,.T.);
#1645 = VERTEX_POINT('',#1646);
#1646 = CARTESIAN_POINT('',(102.,55.1,9.3486315613));
#1647 = LINE('',#1648,#1649);
#1648 = CARTESIAN_POINT('',(102.,58.,9.3486315613));
#1649 = VECTOR('',#1650,1.);
#1650 = DIRECTION('',(-0.,-1.,-0.));
#1651 = ORIENTED_EDGE('',*,*,#1652,.T.);
#1652 = EDGE_CURVE('',#1645,#1621,#1653,.T.);
#1653 = LINE('',#1654,#1655);
#1654 = CARTESIAN_POINT('',(102.,55.1,9.3486315613));
#1655 = VECTOR('',#1656,1.);
#1656 = DIRECTION('',(-0.866025403784,-0.,-0.5));
#1657 = ORIENTED_EDGE('',*,*,#1620,.F.);
#1658 = ORIENTED_EDGE('',*,*,#1254,.F.);
#1659 = PLANE('',#1660);
#1660 = AXIS2_PLACEMENT_3D('',#1661,#1662,#1663);
#1661 = CARTESIAN_POINT('',(102.,58.,9.3486315613));
#1662 = DIRECTION('',(-0.5,-0.,0.866025403784));
#1663 = DIRECTION('',(0.866025403784,0.,0.5));
#1664 = ADVANCED_FACE('',(#1665),#1676,.F.);
#1665 = FACE_BOUND('',#1666,.T.);
#1666 = EDGE_LOOP('',(#1667,#1668,#1674,#1675));
#1667 = ORIENTED_EDGE('',*,*,#1557,.T.);
#1668 = ORIENTED_EDGE('',*,*,#1669,.T.);
#1669 = EDGE_CURVE('',#1550,#1645,#1670,.T.);
#1670 = LINE('',#1671,#1672);
#1671 = CARTESIAN_POINT('',(104.9,55.1,7.67431578065));
#1672 = VECTOR('',#1673,1.);
#1673 = DIRECTION('',(-0.866025403784,-0.,0.5));
#1674 = ORIENTED_EDGE('',*,*,#1644,.F.);
#1675 = ORIENTED_EDGE('',*,*,#1246,.F.);
#1676 = PLANE('',#1677);
#1677 = AXIS2_PLACEMENT_3D('',#1678,#1679,#1680);
#1678 = CARTESIAN_POINT('',(104.9,58.,7.67431578065));
#1679 = DIRECTION('',(0.5,-0.,0.866025403784));
#1680 = DIRECTION('',(0.866025403784,0.,-0.5));
#1681 = ADVANCED_FACE('',(#1682),#1701,.F.);
#1682 = FACE_BOUND('',#1683,.T.);
#1683 = EDGE_LOOP('',(#1684,#1685,#1693,#1700));
#1684 = ORIENTED_EDGE('',*,*,#1310,.F.);
#1685 = ORIENTED_EDGE('',*,*,#1686,.F.);
#1686 = EDGE_CURVE('',#1687,#1311,#1689,.T.);
#1687 = VERTEX_POINT('',#1688);
#1688 = CARTESIAN_POINT('',(103.75,46.5,4.6));
#1689 = LINE('',#1690,#1691);
#1690 = CARTESIAN_POINT('',(103.75,46.5,4.4));
#1691 = VECTOR('',#1692,1.);
#1692 = DIRECTION('',(-0.,-0.,1.));
#1693 = ORIENTED_EDGE('',*,*,#1694,.T.);
#1694 = EDGE_CURVE('',#1687,#1687,#1695,.T.);
#1695 = CIRCLE('',#1696,1.75);
#1696 = AXIS2_PLACEMENT_3D('',#1697,#1698,#1699);
#1697 = CARTESIAN_POINT('',(102.,46.5,4.6));
#1698 = DIRECTION('',(0.,0.,-1.));
#1699 = DIRECTION('',(1.,-0.,-0.));
#1700 = ORIENTED_EDGE('',*,*,#1686,.T.);
#1701 = CYLINDRICAL_SURFACE('',#1702,1.75);
#1702 = AXIS2_PLACEMENT_3D('',#1703,#1704,#1705);
#1703 = CARTESIAN_POINT('',(102.,46.5,4.4));
#1704 = DIRECTION('',(-0.,-0.,1.));
#1705 = DIRECTION('',(1.,-0.,-0.));
#1706 = ADVANCED_FACE('',(#1707),#1726,.F.);
#1707 = FACE_BOUND('',#1708,.T.);
#1708 = EDGE_LOOP('',(#1709,#1710,#1718,#1725));
#1709 = ORIENTED_EDGE('',*,*,#1321,.F.);
#1710 = ORIENTED_EDGE('',*,*,#1711,.F.);
#1711 = EDGE_CURVE('',#1712,#1322,#1714,.T.);
#1712 = VERTEX_POINT('',#1713);
#1713 = CARTESIAN_POINT('',(103.65,14.5,4.6));
#1714 = LINE('',#1715,#1716);
#1715 = CARTESIAN_POINT('',(103.65,14.5,4.4));
#1716 = VECTOR('',#1717,1.);
#1717 = DIRECTION('',(-0.,-0.,1.));
#1718 = ORIENTED_EDGE('',*,*,#1719,.T.);
#1719 = EDGE_CURVE('',#1712,#1712,#1720,.T.);
#1720 = CIRCLE('',#1721,1.65);
#1721 = AXIS2_PLACEMENT_3D('',#1722,#1723,#1724);
#1722 = CARTESIAN_POINT('',(102.,14.5,4.6));
#1723 = DIRECTION('',(0.,0.,-1.));
#1724 = DIRECTION('',(1.,-0.,-0.));
#1725 = ORIENTED_EDGE('',*,*,#1711,.T.);
#1726 = CYLINDRICAL_SURFACE('',#1727,1.65);
#1727 = AXIS2_PLACEMENT_3D('',#1728,#1729,#1730);
#1728 = CARTESIAN_POINT('',(102.,14.5,4.4));
#1729 = DIRECTION('',(-0.,-0.,1.));
#1730 = DIRECTION('',(1.,-0.,-0.));
#1731 = ADVANCED_FACE('',(#1732),#1757,.F.);
#1732 = FACE_BOUND('',#1733,.T.);
#1733 = EDGE_LOOP('',(#1734,#1742,#1743,#1751));
#1734 = ORIENTED_EDGE('',*,*,#1735,.T.);
#1735 = EDGE_CURVE('',#1736,#1357,#1738,.T.);
#1736 = VERTEX_POINT('',#1737);
#1737 = CARTESIAN_POINT('',(104.9,5.9,4.32568421935));
#1738 = LINE('',#1739,#1740);
#1739 = CARTESIAN_POINT('',(104.9,5.9,4.32568421935));
#1740 = VECTOR('',#1741,1.);
#1741 = DIRECTION('',(-0.,-1.,-0.));
#1742 = ORIENTED_EDGE('',*,*,#1356,.T.);
#1743 = ORIENTED_EDGE('',*,*,#1744,.F.);
#1744 = EDGE_CURVE('',#1745,#1359,#1747,.T.);
#1745 = VERTEX_POINT('',#1746);
#1746 = CARTESIAN_POINT('',(104.9,5.9,7.67431578065));
#1747 = LINE('',#1748,#1749);
#1748 = CARTESIAN_POINT('',(104.9,5.9,7.67431578065));
#1749 = VECTOR('',#1750,1.);
#1750 = DIRECTION('',(-0.,-1.,-0.));
#1751 = ORIENTED_EDGE('',*,*,#1752,.F.);
#1752 = EDGE_CURVE('',#1736,#1745,#1753,.T.);
#1753 = LINE('',#1754,#1755);
#1754 = CARTESIAN_POINT('',(104.9,5.9,4.32568421935));
#1755 = VECTOR('',#1756,1.);
#1756 = DIRECTION('',(-0.,-0.,1.));
#1757 = PLANE('',#1758);
#1758 = AXIS2_PLACEMENT_3D('',#1759,#1760,#1761);
#1759 = CARTESIAN_POINT('',(104.9,5.9,4.32568421935));
#1760 = DIRECTION('',(1.,-0.,-0.));
#1761 = DIRECTION('',(0.,0.,-1.));
#1762 = ADVANCED_FACE('',(#1763),#1781,.F.);
#1763 = FACE_BOUND('',#1764,.T.);
#1764 = EDGE_LOOP('',(#1765,#1773,#1774,#1775));
#1765 = ORIENTED_EDGE('',*,*,#1766,.T.);
#1766 = EDGE_CURVE('',#1767,#1391,#1769,.T.);
#1767 = VERTEX_POINT('',#1768);
#1768 = CARTESIAN_POINT('',(102.,5.9,2.6513684387));
#1769 = LINE('',#1770,#1771);
#1770 = CARTESIAN_POINT('',(102.,5.9,2.6513684387));
#1771 = VECTOR('',#1772,1.);
#1772 = DIRECTION('',(-0.,-1.,-0.));
#1773 = ORIENTED_EDGE('',*,*,#1398,.T.);
#1774 = ORIENTED_EDGE('',*,*,#1735,.F.);
#1775 = ORIENTED_EDGE('',*,*,#1776,.F.);
#1776 = EDGE_CURVE('',#1767,#1736,#1777,.T.);
#1777 = LINE('',#1778,#1779);
#1778 = CARTESIAN_POINT('',(102.,5.9,2.6513684387));
#1779 = VECTOR('',#1780,1.);
#1780 = DIRECTION('',(0.866025403784,-0.,0.5));
#1781 = PLANE('',#1782);
#1782 = AXIS2_PLACEMENT_3D('',#1783,#1784,#1785);
#1783 = CARTESIAN_POINT('',(102.,5.9,2.6513684387));
#1784 = DIRECTION('',(0.5,-0.,-0.866025403784));
#1785 = DIRECTION('',(-0.866025403784,0.,-0.5));
#1786 = ADVANCED_FACE('',(#1787),#1805,.F.);
#1787 = FACE_BOUND('',#1788,.T.);
#1788 = EDGE_LOOP('',(#1789,#1797,#1798,#1799));
#1789 = ORIENTED_EDGE('',*,*,#1790,.T.);
#1790 = EDGE_CURVE('',#1791,#1383,#1793,.T.);
#1791 = VERTEX_POINT('',#1792);
#1792 = CARTESIAN_POINT('',(99.1,5.9,4.32568421935));
#1793 = LINE('',#1794,#1795);
#1794 = CARTESIAN_POINT('',(99.1,5.9,4.32568421935));
#1795 = VECTOR('',#1796,1.);
#1796 = DIRECTION('',(-0.,-1.,-0.));
#1797 = ORIENTED_EDGE('',*,*,#1390,.T.);
#1798 = ORIENTED_EDGE('',*,*,#1766,.F.);
#1799 = ORIENTED_EDGE('',*,*,#1800,.F.);
#1800 = EDGE_CURVE('',#1791,#1767,#1801,.T.);
#1801 = LINE('',#1802,#1803);
#1802 = CARTESIAN_POINT('',(99.1,5.9,4.32568421935));
#1803 = VECTOR('',#1804,1.);
#1804 = DIRECTION('',(0.866025403784,-0.,-0.5));
#1805 = PLANE('',#1806);
#1806 = AXIS2_PLACEMENT_3D('',#1807,#1808,#1809);
#1807 = CARTESIAN_POINT('',(99.1,5.9,4.32568421935));
#1808 = DIRECTION('',(-0.5,-0.,-0.866025403784));
#1809 = DIRECTION('',(-0.866025403784,0.,0.5));
#1810 = ADVANCED_FACE('',(#1811),#1829,.F.);
#1811 = FACE_BOUND('',#1812,.T.);
#1812 = EDGE_LOOP('',(#1813,#1821,#1822,#1823));
#1813 = ORIENTED_EDGE('',*,*,#1814,.T.);
#1814 = EDGE_CURVE('',#1815,#1375,#1817,.T.);
#1815 = VERTEX_POINT('',#1816);
#1816 = CARTESIAN_POINT('',(99.1,5.9,7.67431578065));
#1817 = LINE('',#1818,#1819);
#1818 = CARTESIAN_POINT('',(99.1,5.9,7.67431578065));
#1819 = VECTOR('',#1820,1.);
#1820 = DIRECTION('',(-0.,-1.,-0.));
#1821 = ORIENTED_EDGE('',*,*,#1382,.T.);
#1822 = ORIENTED_EDGE('',*,*,#1790,.F.);
#1823 = ORIENTED_EDGE('',*,*,#1824,.F.);
#1824 = EDGE_CURVE('',#1815,#1791,#1825,.T.);
#1825 = LINE('',#1826,#1827);
#1826 = CARTESIAN_POINT('',(99.1,5.9,7.67431578065));
#1827 = VECTOR('',#1828,1.);
#1828 = DIRECTION('',(-0.,-0.,-1.));
#1829 = PLANE('',#1830);
#1830 = AXIS2_PLACEMENT_3D('',#1831,#1832,#1833);
#1831 = CARTESIAN_POINT('',(99.1,5.9,7.67431578065));
#1832 = DIRECTION('',(-1.,-0.,-0.));
#1833 = DIRECTION('',(0.,0.,1.));
#1834 = ADVANCED_FACE('',(#1835),#1853,.F.);
#1835 = FACE_BOUND('',#1836,.T.);
#1836 = EDGE_LOOP('',(#1837,#1845,#1846,#1847));
#1837 = ORIENTED_EDGE('',*,*,#1838,.T.);
#1838 = EDGE_CURVE('',#1839,#1367,#1841,.T.);
#1839 = VERTEX_POINT('',#1840);
#1840 = CARTESIAN_POINT('',(102.,5.9,9.3486315613));
#1841 = LINE('',#1842,#1843);
#1842 = CARTESIAN_POINT('',(102.,5.9,9.3486315613));
#1843 = VECTOR('',#1844,1.);
#1844 = DIRECTION('',(-0.,-1.,-0.));
#1845 = ORIENTED_EDGE('',*,*,#1374,.T.);
#1846 = ORIENTED_EDGE('',*,*,#1814,.F.);
#1847 = ORIENTED_EDGE('',*,*,#1848,.F.);
#1848 = EDGE_CURVE('',#1839,#1815,#1849,.T.);
#1849 = LINE('',#1850,#1851);
#1850 = CARTESIAN_POINT('',(102.,5.9,9.3486315613));
#1851 = VECTOR('',#1852,1.);
#1852 = DIRECTION('',(-0.866025403784,-0.,-0.5));
#1853 = PLANE('',#1854);
#1854 = AXIS2_PLACEMENT_3D('',#1855,#1856,#1857);
#1855 = CARTESIAN_POINT('',(102.,5.9,9.3486315613));
#1856 = DIRECTION('',(-0.5,-0.,0.866025403784));
#1857 = DIRECTION('',(0.866025403784,0.,0.5));
#1858 = ADVANCED_FACE('',(#1859),#1870,.F.);
#1859 = FACE_BOUND('',#1860,.T.);
#1860 = EDGE_LOOP('',(#1861,#1862,#1863,#1864));
#1861 = ORIENTED_EDGE('',*,*,#1744,.T.);
#1862 = ORIENTED_EDGE('',*,*,#1366,.T.);
#1863 = ORIENTED_EDGE('',*,*,#1838,.F.);
#1864 = ORIENTED_EDGE('',*,*,#1865,.F.);
#1865 = EDGE_CURVE('',#1745,#1839,#1866,.T.);
#1866 = LINE('',#1867,#1868);
#1867 = CARTESIAN_POINT('',(104.9,5.9,7.67431578065));
#1868 = VECTOR('',#1869,1.);
#1869 = DIRECTION('',(-0.866025403784,-0.,0.5));
#1870 = PLANE('',#1871);
#1871 = AXIS2_PLACEMENT_3D('',#1872,#1873,#1874);
#1872 = CARTESIAN_POINT('',(104.9,5.9,7.67431578065));
#1873 = DIRECTION('',(0.5,-0.,0.866025403784));
#1874 = DIRECTION('',(0.866025403784,0.,-0.5));
#1875 = ADVANCED_FACE('',(#1876),#1901,.T.);
#1876 = FACE_BOUND('',#1877,.F.);
#1877 = EDGE_LOOP('',(#1878,#1879,#1887,#1895));
#1878 = ORIENTED_EDGE('',*,*,#1423,.T.);
#1879 = ORIENTED_EDGE('',*,*,#1880,.T.);
#1880 = EDGE_CURVE('',#1426,#1881,#1883,.T.);
#1881 = VERTEX_POINT('',#1882);
#1882 = CARTESIAN_POINT('',(102.,43.1513684387,4.6));
#1883 = LINE('',#1884,#1885);
#1884 = CARTESIAN_POINT('',(102.,43.1513684387,1.8));
#1885 = VECTOR('',#1886,1.);
#1886 = DIRECTION('',(-0.,-0.,1.));
#1887 = ORIENTED_EDGE('',*,*,#1888,.T.);
#1888 = EDGE_CURVE('',#1881,#1889,#1891,.T.);
#1889 = VERTEX_POINT('',#1890);
#1890 = CARTESIAN_POINT('',(99.1,44.82568421935,4.6));
#1891 = LINE('',#1892,#1893);
#1892 = CARTESIAN_POINT('',(102.,43.1513684387,4.6));
#1893 = VECTOR('',#1894,1.);
#1894 = DIRECTION('',(-0.866025403784,0.5,0.));
#1895 = ORIENTED_EDGE('',*,*,#1896,.F.);
#1896 = EDGE_CURVE('',#1424,#1889,#1897,.T.);
#1897 = LINE('',#1898,#1899);
#1898 = CARTESIAN_POINT('',(99.1,44.82568421935,1.8));
#1899 = VECTOR('',#1900,1.);
#1900 = DIRECTION('',(-0.,-0.,1.));
#1901 = PLANE('',#1902);
#1902 = AXIS2_PLACEMENT_3D('',#1903,#1904,#1905);
#1903 = CARTESIAN_POINT('',(102.,43.1513684387,1.8));
#1904 = DIRECTION('',(0.5,0.866025403784,-0.));
#1905 = DIRECTION('',(0.866025403784,-0.5,-0.));
#1906 = ADVANCED_FACE('',(#1907),#1925,.T.);
#1907 = FACE_BOUND('',#1908,.F.);
#1908 = EDGE_LOOP('',(#1909,#1910,#1911,#1919));
#1909 = ORIENTED_EDGE('',*,*,#1465,.T.);
#1910 = ORIENTED_EDGE('',*,*,#1896,.T.);
#1911 = ORIENTED_EDGE('',*,*,#1912,.T.);
#1912 = EDGE_CURVE('',#1889,#1913,#1915,.T.);
#1913 = VERTEX_POINT('',#1914);
#1914 = CARTESIAN_POINT('',(99.1,48.17431578065,4.6));
#1915 = LINE('',#1916,#1917);
#1916 = CARTESIAN_POINT('',(99.1,44.82568421935,4.6));
#1917 = VECTOR('',#1918,1.);
#1918 = DIRECTION('',(-0.,1.,-0.));
#1919 = ORIENTED_EDGE('',*,*,#1920,.F.);
#1920 = EDGE_CURVE('',#1458,#1913,#1921,.T.);
#1921 = LINE('',#1922,#1923);
#1922 = CARTESIAN_POINT('',(99.1,48.17431578065,1.8));
#1923 = VECTOR('',#1924,1.);
#1924 = DIRECTION('',(-0.,-0.,1.));
#1925 = PLANE('',#1926);
#1926 = AXIS2_PLACEMENT_3D('',#1927,#1928,#1929);
#1927 = CARTESIAN_POINT('',(99.1,44.82568421935,1.8));
#1928 = DIRECTION('',(1.,-0.,-0.));
#1929 = DIRECTION('',(0.,-1.,0.));
#1930 = ADVANCED_FACE('',(#1931),#1949,.T.);
#1931 = FACE_BOUND('',#1932,.F.);
#1932 = EDGE_LOOP('',(#1933,#1934,#1935,#1943));
#1933 = ORIENTED_EDGE('',*,*,#1457,.T.);
#1934 = ORIENTED_EDGE('',*,*,#1920,.T.);
#1935 = ORIENTED_EDGE('',*,*,#1936,.T.);
#1936 = EDGE_CURVE('',#1913,#1937,#1939,.T.);
#1937 = VERTEX_POINT('',#1938);
#1938 = CARTESIAN_POINT('',(102.,49.8486315613,4.6));
#1939 = LINE('',#1940,#1941);
#1940 = CARTESIAN_POINT('',(99.1,48.17431578065,4.6));
#1941 = VECTOR('',#1942,1.);
#1942 = DIRECTION('',(0.866025403784,0.5,-0.));
#1943 = ORIENTED_EDGE('',*,*,#1944,.F.);
#1944 = EDGE_CURVE('',#1450,#1937,#1945,.T.);
#1945 = LINE('',#1946,#1947);
#1946 = CARTESIAN_POINT('',(102.,49.8486315613,1.8));
#1947 = VECTOR('',#1948,1.);
#1948 = DIRECTION('',(-0.,-0.,1.));
#1949 = PLANE('',#1950);
#1950 = AXIS2_PLACEMENT_3D('',#1951,#1952,#1953);
#1951 = CARTESIAN_POINT('',(99.1,48.17431578065,1.8));
#1952 = DIRECTION('',(0.5,-0.866025403784,-0.));
#1953 = DIRECTION('',(-0.866025403784,-0.5,0.));
#1954 = ADVANCED_FACE('',(#1955),#1973,.T.);
#1955 = FACE_BOUND('',#1956,.F.);
#1956 = EDGE_LOOP('',(#1957,#1958,#1959,#1967));
#1957 = ORIENTED_EDGE('',*,*,#1449,.T.);
#1958 = ORIENTED_EDGE('',*,*,#1944,.T.);
#1959 = ORIENTED_EDGE('',*,*,#1960,.T.);
#1960 = EDGE_CURVE('',#1937,#1961,#1963,.T.);
#1961 = VERTEX_POINT('',#1962);
#1962 = CARTESIAN_POINT('',(104.9,48.17431578065,4.6));
#1963 = LINE('',#1964,#1965);
#1964 = CARTESIAN_POINT('',(102.,49.8486315613,4.6));
#1965 = VECTOR('',#1966,1.);
#1966 = DIRECTION('',(0.866025403784,-0.5,-0.));
#1967 = ORIENTED_EDGE('',*,*,#1968,.F.);
#1968 = EDGE_CURVE('',#1442,#1961,#1969,.T.);
#1969 = LINE('',#1970,#1971);
#1970 = CARTESIAN_POINT('',(104.9,48.17431578065,1.8));
#1971 = VECTOR('',#1972,1.);
#1972 = DIRECTION('',(-0.,-0.,1.));
#1973 = PLANE('',#1974);
#1974 = AXIS2_PLACEMENT_3D('',#1975,#1976,#1977);
#1975 = CARTESIAN_POINT('',(102.,49.8486315613,1.8));
#1976 = DIRECTION('',(-0.5,-0.866025403784,-0.));
#1977 = DIRECTION('',(-0.866025403784,0.5,0.));
#1978 = ADVANCED_FACE('',(#1979),#1997,.T.);
#1979 = FACE_BOUND('',#1980,.F.);
#1980 = EDGE_LOOP('',(#1981,#1982,#1983,#1991));
#1981 = ORIENTED_EDGE('',*,*,#1441,.T.);
#1982 = ORIENTED_EDGE('',*,*,#1968,.T.);
#1983 = ORIENTED_EDGE('',*,*,#1984,.T.);
#1984 = EDGE_CURVE('',#1961,#1985,#1987,.T.);
#1985 = VERTEX_POINT('',#1986);
#1986 = CARTESIAN_POINT('',(104.9,44.82568421935,4.6));
#1987 = LINE('',#1988,#1989);
#1988 = CARTESIAN_POINT('',(104.9,48.17431578065,4.6));
#1989 = VECTOR('',#1990,1.);
#1990 = DIRECTION('',(-0.,-1.,-0.));
#1991 = ORIENTED_EDGE('',*,*,#1992,.F.);
#1992 = EDGE_CURVE('',#1434,#1985,#1993,.T.);
#1993 = LINE('',#1994,#1995);
#1994 = CARTESIAN_POINT('',(104.9,44.82568421935,1.8));
#1995 = VECTOR('',#1996,1.);
#1996 = DIRECTION('',(-0.,-0.,1.));
#1997 = PLANE('',#1998);
#1998 = AXIS2_PLACEMENT_3D('',#1999,#2000,#2001);
#1999 = CARTESIAN_POINT('',(104.9,48.17431578065,1.8));
#2000 = DIRECTION('',(-1.,-0.,-0.));
#2001 = DIRECTION('',(0.,1.,0.));
#2002 = ADVANCED_FACE('',(#2003),#2014,.T.);
#2003 = FACE_BOUND('',#2004,.F.);
#2004 = EDGE_LOOP('',(#2005,#2006,#2007,#2013));
#2005 = ORIENTED_EDGE('',*,*,#1433,.T.);
#2006 = ORIENTED_EDGE('',*,*,#1992,.T.);
#2007 = ORIENTED_EDGE('',*,*,#2008,.T.);
#2008 = EDGE_CURVE('',#1985,#1881,#2009,.T.);
#2009 = LINE('',#2010,#2011);
#2010 = CARTESIAN_POINT('',(104.9,44.82568421935,4.6));
#2011 = VECTOR('',#2012,1.);
#2012 = DIRECTION('',(-0.866025403784,-0.5,-0.));
#2013 = ORIENTED_EDGE('',*,*,#1880,.F.);
#2014 = PLANE('',#2015);
#2015 = AXIS2_PLACEMENT_3D('',#2016,#2017,#2018);
#2016 = CARTESIAN_POINT('',(104.9,44.82568421935,1.8));
#2017 = DIRECTION('',(-0.5,0.866025403784,0.));
#2018 = DIRECTION('',(0.866025403784,0.5,0.));
#2019 = ADVANCED_FACE('',(#2020),#2045,.T.);
#2020 = FACE_BOUND('',#2021,.F.);
#2021 = EDGE_LOOP('',(#2022,#2023,#2031,#2039));
#2022 = ORIENTED_EDGE('',*,*,#1473,.T.);
#2023 = ORIENTED_EDGE('',*,*,#2024,.T.);
#2024 = EDGE_CURVE('',#1476,#2025,#2027,.T.);
#2025 = VERTEX_POINT('',#2026);
#2026 = CARTESIAN_POINT('',(102.,11.1513684387,4.6));
#2027 = LINE('',#2028,#2029);
#2028 = CARTESIAN_POINT('',(102.,11.1513684387,1.8));
#2029 = VECTOR('',#2030,1.);
#2030 = DIRECTION('',(-0.,-0.,1.));
#2031 = ORIENTED_EDGE('',*,*,#2032,.T.);
#2032 = EDGE_CURVE('',#2025,#2033,#2035,.T.);
#2033 = VERTEX_POINT('',#2034);
#2034 = CARTESIAN_POINT('',(99.1,12.82568421935,4.6));
#2035 = LINE('',#2036,#2037);
#2036 = CARTESIAN_POINT('',(102.,11.1513684387,4.6));
#2037 = VECTOR('',#2038,1.);
#2038 = DIRECTION('',(-0.866025403784,0.5,0.));
#2039 = ORIENTED_EDGE('',*,*,#2040,.F.);
#2040 = EDGE_CURVE('',#1474,#2033,#2041,.T.);
#2041 = LINE('',#2042,#2043);
#2042 = CARTESIAN_POINT('',(99.1,12.82568421935,1.8));
#2043 = VECTOR('',#2044,1.);
#2044 = DIRECTION('',(-0.,-0.,1.));
#2045 = PLANE('',#2046);
#2046 = AXIS2_PLACEMENT_3D('',#2047,#2048,#2049);
#2047 = CARTESIAN_POINT('',(102.,11.1513684387,1.8));
#2048 = DIRECTION('',(0.5,0.866025403784,-0.));
#2049 = DIRECTION('',(0.866025403784,-0.5,-0.));
#2050 = ADVANCED_FACE('',(#2051),#2069,.T.);
#2051 = FACE_BOUND('',#2052,.F.);
#2052 = EDGE_LOOP('',(#2053,#2054,#2055,#2063));
#2053 = ORIENTED_EDGE('',*,*,#1515,.T.);
#2054 = ORIENTED_EDGE('',*,*,#2040,.T.);
#2055 = ORIENTED_EDGE('',*,*,#2056,.T.);
#2056 = EDGE_CURVE('',#2033,#2057,#2059,.T.);
#2057 = VERTEX_POINT('',#2058);
#2058 = CARTESIAN_POINT('',(99.1,16.17431578065,4.6));
#2059 = LINE('',#2060,#2061);
#2060 = CARTESIAN_POINT('',(99.1,12.82568421935,4.6));
#2061 = VECTOR('',#2062,1.);
#2062 = DIRECTION('',(-0.,1.,-0.));
#2063 = ORIENTED_EDGE('',*,*,#2064,.F.);
#2064 = EDGE_CURVE('',#1508,#2057,#2065,.T.);
#2065 = LINE('',#2066,#2067);
#2066 = CARTESIAN_POINT('',(99.1,16.17431578065,1.8));
#2067 = VECTOR('',#2068,1.);
#2068 = DIRECTION('',(-0.,-0.,1.));
#2069 = PLANE('',#2070);
#2070 = AXIS2_PLACEMENT_3D('',#2071,#2072,#2073);
#2071 = CARTESIAN_POINT('',(99.1,12.82568421935,1.8));
#2072 = DIRECTION('',(1.,-0.,-0.));
#2073 = DIRECTION('',(0.,-1.,0.));
#2074 = ADVANCED_FACE('',(#2075),#2093,.T.);
#2075 = FACE_BOUND('',#2076,.F.);
#2076 = EDGE_LOOP('',(#2077,#2078,#2086,#2092));
#2077 = ORIENTED_EDGE('',*,*,#1483,.T.);
#2078 = ORIENTED_EDGE('',*,*,#2079,.T.);
#2079 = EDGE_CURVE('',#1484,#2080,#2082,.T.);
#2080 = VERTEX_POINT('',#2081);
#2081 = CARTESIAN_POINT('',(104.9,12.82568421935,4.6));
#2082 = LINE('',#2083,#2084);
#2083 = CARTESIAN_POINT('',(104.9,12.82568421935,1.8));
#2084 = VECTOR('',#2085,1.);
#2085 = DIRECTION('',(-0.,-0.,1.));
#2086 = ORIENTED_EDGE('',*,*,#2087,.T.);
#2087 = EDGE_CURVE('',#2080,#2025,#2088,.T.);
#2088 = LINE('',#2089,#2090);
#2089 = CARTESIAN_POINT('',(104.9,12.82568421935,4.6));
#2090 = VECTOR('',#2091,1.);
#2091 = DIRECTION('',(-0.866025403784,-0.5,-0.));
#2092 = ORIENTED_EDGE('',*,*,#2024,.F.);
#2093 = PLANE('',#2094);
#2094 = AXIS2_PLACEMENT_3D('',#2095,#2096,#2097);
#2095 = CARTESIAN_POINT('',(104.9,12.82568421935,1.8));
#2096 = DIRECTION('',(-0.5,0.866025403784,0.));
#2097 = DIRECTION('',(0.866025403784,0.5,0.));
#2098 = ADVANCED_FACE('',(#2099),#2117,.T.);
#2099 = FACE_BOUND('',#2100,.F.);
#2100 = EDGE_LOOP('',(#2101,#2102,#2103,#2111));
#2101 = ORIENTED_EDGE('',*,*,#1507,.T.);
#2102 = ORIENTED_EDGE('',*,*,#2064,.T.);
#2103 = ORIENTED_EDGE('',*,*,#2104,.T.);
#2104 = EDGE_CURVE('',#2057,#2105,#2107,.T.);
#2105 = VERTEX_POINT('',#2106);
#2106 = CARTESIAN_POINT('',(102.,17.8486315613,4.6));
#2107 = LINE('',#2108,#2109);
#2108 = CARTESIAN_POINT('',(99.1,16.17431578065,4.6));
#2109 = VECTOR('',#2110,1.);
#2110 = DIRECTION('',(0.866025403784,0.5,-0.));
#2111 = ORIENTED_EDGE('',*,*,#2112,.F.);
#2112 = EDGE_CURVE('',#1500,#2105,#2113,.T.);
#2113 = LINE('',#2114,#2115);
#2114 = CARTESIAN_POINT('',(102.,17.8486315613,1.8));
#2115 = VECTOR('',#2116,1.);
#2116 = DIRECTION('',(-0.,-0.,1.));
#2117 = PLANE('',#2118);
#2118 = AXIS2_PLACEMENT_3D('',#2119,#2120,#2121);
#2119 = CARTESIAN_POINT('',(99.1,16.17431578065,1.8));
#2120 = DIRECTION('',(0.5,-0.866025403784,-0.));
#2121 = DIRECTION('',(-0.866025403784,-0.5,0.));
#2122 = ADVANCED_FACE('',(#2123),#2141,.T.);
#2123 = FACE_BOUND('',#2124,.F.);
#2124 = EDGE_LOOP('',(#2125,#2126,#2134,#2140));
#2125 = ORIENTED_EDGE('',*,*,#1491,.T.);
#2126 = ORIENTED_EDGE('',*,*,#2127,.T.);
#2127 = EDGE_CURVE('',#1492,#2128,#2130,.T.);
#2128 = VERTEX_POINT('',#2129);
#2129 = CARTESIAN_POINT('',(104.9,16.17431578065,4.6));
#2130 = LINE('',#2131,#2132);
#2131 = CARTESIAN_POINT('',(104.9,16.17431578065,1.8));
#2132 = VECTOR('',#2133,1.);
#2133 = DIRECTION('',(-0.,-0.,1.));
#2134 = ORIENTED_EDGE('',*,*,#2135,.T.);
#2135 = EDGE_CURVE('',#2128,#2080,#2136,.T.);
#2136 = LINE('',#2137,#2138);
#2137 = CARTESIAN_POINT('',(104.9,16.17431578065,4.6));
#2138 = VECTOR('',#2139,1.);
#2139 = DIRECTION('',(-0.,-1.,-0.));
#2140 = ORIENTED_EDGE('',*,*,#2079,.F.);
#2141 = PLANE('',#2142);
#2142 = AXIS2_PLACEMENT_3D('',#2143,#2144,#2145);
#2143 = CARTESIAN_POINT('',(104.9,16.17431578065,1.8));
#2144 = DIRECTION('',(-1.,-0.,-0.));
#2145 = DIRECTION('',(0.,1.,0.));
#2146 = ADVANCED_FACE('',(#2147),#2158,.T.);
#2147 = FACE_BOUND('',#2148,.F.);
#2148 = EDGE_LOOP('',(#2149,#2150,#2151,#2157));
#2149 = ORIENTED_EDGE('',*,*,#1499,.T.);
#2150 = ORIENTED_EDGE('',*,*,#2112,.T.);
#2151 = ORIENTED_EDGE('',*,*,#2152,.T.);
#2152 = EDGE_CURVE('',#2105,#2128,#2153,.T.);
#2153 = LINE('',#2154,#2155);
#2154 = CARTESIAN_POINT('',(102.,17.8486315613,4.6));
#2155 = VECTOR('',#2156,1.);
#2156 = DIRECTION('',(0.866025403784,-0.5,-0.));
#2157 = ORIENTED_EDGE('',*,*,#2127,.F.);
#2158 = PLANE('',#2159);
#2159 = AXIS2_PLACEMENT_3D('',#2160,#2161,#2162);
#2160 = CARTESIAN_POINT('',(102.,17.8486315613,1.8));
#2161 = DIRECTION('',(-0.5,-0.866025403784,-0.));
#2162 = DIRECTION('',(-0.866025403784,0.5,0.));
#2163 = ADVANCED_FACE('',(#2164,#2172),#2183,.T.);
#2164 = FACE_BOUND('',#2165,.F.);
#2165 = EDGE_LOOP('',(#2166,#2167,#2168,#2169,#2170,#2171));
#2166 = ORIENTED_EDGE('',*,*,#1669,.T.);
#2167 = ORIENTED_EDGE('',*,*,#1652,.T.);
#2168 = ORIENTED_EDGE('',*,*,#1628,.T.);
#2169 = ORIENTED_EDGE('',*,*,#1604,.T.);
#2170 = ORIENTED_EDGE('',*,*,#1580,.T.);
#2171 = ORIENTED_EDGE('',*,*,#1549,.T.);
#2172 = FACE_BOUND('',#2173,.F.);
#2173 = EDGE_LOOP('',(#2174));
#2174 = ORIENTED_EDGE('',*,*,#2175,.T.);
#2175 = EDGE_CURVE('',#2176,#2176,#2178,.T.);
#2176 = VERTEX_POINT('',#2177);
#2177 = CARTESIAN_POINT('',(102.,55.1,7.75));
#2178 = CIRCLE('',#2179,1.75);
#2179 = AXIS2_PLACEMENT_3D('',#2180,#2181,#2182);
#2180 = CARTESIAN_POINT('',(102.,55.1,6.));
#2181 = DIRECTION('',(0.,1.,0.));
#2182 = DIRECTION('',(-0.,-0.,1.));
#2183 = PLANE('',#2184);
#2184 = AXIS2_PLACEMENT_3D('',#2185,#2186,#2187);
#2185 = CARTESIAN_POINT('',(102.,55.1,6.));
#2186 = DIRECTION('',(-0.,1.,-0.));
#2187 = DIRECTION('',(0.,0.,1.));
#2188 = ADVANCED_FACE('',(#2189,#2197),#2200,.F.);
#2189 = FACE_BOUND('',#2190,.T.);
#2190 = EDGE_LOOP('',(#2191,#2192,#2193,#2194,#2195,#2196));
#2191 = ORIENTED_EDGE('',*,*,#2008,.T.);
#2192 = ORIENTED_EDGE('',*,*,#1888,.T.);
#2193 = ORIENTED_EDGE('',*,*,#1912,.T.);
#2194 = ORIENTED_EDGE('',*,*,#1936,.T.);
#2195 = ORIENTED_EDGE('',*,*,#1960,.T.);
#2196 = ORIENTED_EDGE('',*,*,#1984,.T.);
#2197 = FACE_BOUND('',#2198,.T.);
#2198 = EDGE_LOOP('',(#2199));
#2199 = ORIENTED_EDGE('',*,*,#1694,.F.);
#2200 = PLANE('',#2201);
#2201 = AXIS2_PLACEMENT_3D('',#2202,#2203,#2204);
#2202 = CARTESIAN_POINT('',(102.,46.5,4.6));
#2203 = DIRECTION('',(-0.,-0.,1.));
#2204 = DIRECTION('',(-1.,0.,0.));
#2205 = ADVANCED_FACE('',(#2206,#2214),#2217,.F.);
#2206 = FACE_BOUND('',#2207,.T.);
#2207 = EDGE_LOOP('',(#2208,#2209,#2210,#2211,#2212,#2213));
#2208 = ORIENTED_EDGE('',*,*,#2087,.T.);
#2209 = ORIENTED_EDGE('',*,*,#2032,.T.);
#2210 = ORIENTED_EDGE('',*,*,#2056,.T.);
#2211 = ORIENTED_EDGE('',*,*,#2104,.T.);
#2212 = ORIENTED_EDGE('',*,*,#2152,.T.);
#2213 = ORIENTED_EDGE('',*,*,#2135,.T.);
#2214 = FACE_BOUND('',#2215,.T.);
#2215 = EDGE_LOOP('',(#2216));
#2216 = ORIENTED_EDGE('',*,*,#1719,.F.);
#2217 = PLANE('',#2218);
#2218 = AXIS2_PLACEMENT_3D('',#2219,#2220,#2221);
#2219 = CARTESIAN_POINT('',(102.,14.5,4.6));
#2220 = DIRECTION('',(-0.,-0.,1.));
#2221 = DIRECTION('',(-1.,0.,0.));
#2222 = ADVANCED_FACE('',(#2223,#2231),#2242,.F.);
#2223 = FACE_BOUND('',#2224,.T.);
#2224 = EDGE_LOOP('',(#2225,#2226,#2227,#2228,#2229,#2230));
#2225 = ORIENTED_EDGE('',*,*,#1865,.T.);
#2226 = ORIENTED_EDGE('',*,*,#1848,.T.);
#2227 = ORIENTED_EDGE('',*,*,#1824,.T.);
#2228 = ORIENTED_EDGE('',*,*,#1800,.T.);
#2229 = ORIENTED_EDGE('',*,*,#1776,.T.);
#2230 = ORIENTED_EDGE('',*,*,#1752,.T.);
#2231 = FACE_BOUND('',#2232,.T.);
#2232 = EDGE_LOOP('',(#2233));
#2233 = ORIENTED_EDGE('',*,*,#2234,.T.);
#2234 = EDGE_CURVE('',#2235,#2235,#2237,.T.);
#2235 = VERTEX_POINT('',#2236);
#2236 = CARTESIAN_POINT('',(102.,5.9,7.75));
#2237 = CIRCLE('',#2238,1.75);
#2238 = AXIS2_PLACEMENT_3D('',#2239,#2240,#2241);
#2239 = CARTESIAN_POINT('',(102.,5.9,6.));
#2240 = DIRECTION('',(0.,1.,0.));
#2241 = DIRECTION('',(-0.,-0.,1.));
#2242 = PLANE('',#2243);
#2243 = AXIS2_PLACEMENT_3D('',#2244,#2245,#2246);
#2244 = CARTESIAN_POINT('',(102.,5.9,6.));
#2245 = DIRECTION('',(-0.,1.,-0.));
#2246 = DIRECTION('',(0.,0.,1.));
#2247 = ADVANCED_FACE('',(#2248),#2267,.F.);
#2248 = FACE_BOUND('',#2249,.T.);
#2249 = EDGE_LOOP('',(#2250,#2258,#2265,#2266));
#2250 = ORIENTED_EDGE('',*,*,#2251,.T.);
#2251 = EDGE_CURVE('',#2176,#2252,#2254,.T.);
#2252 = VERTEX_POINT('',#2253);
#2253 = CARTESIAN_POINT('',(102.,52.2,7.75));
#2254 = LINE('',#2255,#2256);
#2255 = CARTESIAN_POINT('',(102.,58.4,7.75));
#2256 = VECTOR('',#2257,1.);
#2257 = DIRECTION('',(-0.,-1.,-0.));
#2258 = ORIENTED_EDGE('',*,*,#2259,.F.);
#2259 = EDGE_CURVE('',#2252,#2252,#2260,.T.);
#2260 = CIRCLE('',#2261,1.75);
#2261 = AXIS2_PLACEMENT_3D('',#2262,#2263,#2264);
#2262 = CARTESIAN_POINT('',(102.,52.2,6.));
#2263 = DIRECTION('',(0.,1.,0.));
#2264 = DIRECTION('',(-0.,-0.,1.));
#2265 = ORIENTED_EDGE('',*,*,#2251,.F.);
#2266 = ORIENTED_EDGE('',*,*,#2175,.T.);
#2267 = CYLINDRICAL_SURFACE('',#2268,1.75);
#2268 = AXIS2_PLACEMENT_3D('',#2269,#2270,#2271);
#2269 = CARTESIAN_POINT('',(102.,58.4,6.));
#2270 = DIRECTION('',(-0.,-1.,-0.));
#2271 = DIRECTION('',(-0.,-0.,1.));
#2272 = ADVANCED_FACE('',(#2273),#2292,.F.);
#2273 = FACE_BOUND('',#2274,.T.);
#2274 = EDGE_LOOP('',(#2275,#2276,#2284,#2291));
#2275 = ORIENTED_EDGE('',*,*,#2234,.F.);
#2276 = ORIENTED_EDGE('',*,*,#2277,.F.);
#2277 = EDGE_CURVE('',#2278,#2235,#2280,.T.);
#2278 = VERTEX_POINT('',#2279);
#2279 = CARTESIAN_POINT('',(102.,8.4,7.75));
#2280 = LINE('',#2281,#2282);
#2281 = CARTESIAN_POINT('',(102.,8.4,7.75));
#2282 = VECTOR('',#2283,1.);
#2283 = DIRECTION('',(-0.,-1.,-0.));
#2284 = ORIENTED_EDGE('',*,*,#2285,.T.);
#2285 = EDGE_CURVE('',#2278,#2278,#2286,.T.);
#2286 = CIRCLE('',#2287,1.75);
#2287 = AXIS2_PLACEMENT_3D('',#2288,#2289,#2290);
#2288 = CARTESIAN_POINT('',(102.,8.4,6.));
#2289 = DIRECTION('',(0.,1.,0.));
#2290 = DIRECTION('',(-0.,-0.,1.));
#2291 = ORIENTED_EDGE('',*,*,#2277,.T.);
#2292 = CYLINDRICAL_SURFACE('',#2293,1.75);
#2293 = AXIS2_PLACEMENT_3D('',#2294,#2295,#2296);
#2294 = CARTESIAN_POINT('',(102.,8.4,6.));
#2295 = DIRECTION('',(-0.,-1.,-0.));
#2296 = DIRECTION('',(-0.,-0.,1.));
#2297 = ADVANCED_FACE('',(#2298),#2301,.F.);
#2298 = FACE_BOUND('',#2299,.T.);
#2299 = EDGE_LOOP('',(#2300));
#2300 = ORIENTED_EDGE('',*,*,#2259,.T.);
#2301 = PLANE('',#2302);
#2302 = AXIS2_PLACEMENT_3D('',#2303,#2304,#2305);
#2303 = CARTESIAN_POINT('',(102.,52.2,6.));
#2304 = DIRECTION('',(-0.,-1.,-0.));
#2305 = DIRECTION('',(0.,0.,-1.));
#2306 = ADVANCED_FACE('',(#2307),#2310,.T.);
#2307 = FACE_BOUND('',#2308,.T.);
#2308 = EDGE_LOOP('',(#2309));
#2309 = ORIENTED_EDGE('',*,*,#2285,.F.);
#2310 = PLANE('',#2311);
#2311 = AXIS2_PLACEMENT_3D('',#2312,#2313,#2314);
#2312 = CARTESIAN_POINT('',(102.,8.4,6.));
#2313 = DIRECTION('',(-0.,-1.,-0.));
#2314 = DIRECTION('',(0.,0.,-1.));
#2315 = ( GEOMETRIC_REPRESENTATION_CONTEXT(3) 
GLOBAL_UNCERTAINTY_ASSIGNED_CONTEXT((#2319)) 
GLOBAL_UNIT_ASSIGNED_CONTEXT((#2316,#2317,#2318)) REPRESENTATION_CONTEXT
('Context #1','3D Context with UNIT and UNCERTAINTY') );
#2316 = ( LENGTH_UNIT() NAMED_UNIT(*) SI_UNIT(.MILLI.,.METRE.) );
#2317 = ( NAMED_UNIT(*) PLANE_ANGLE_UNIT() SI_UNIT($,.RADIAN.) );
#2318 = ( NAMED_UNIT(*) SI_UNIT($,.STERADIAN.) SOLID_ANGLE_UNIT() );
#2319 = UNCERTAINTY_MEASURE_WITH_UNIT(LENGTH_MEASURE(1.E-07),#2316,
  'distance_accuracy_value','confusion accuracy');
#2320 = PRODUCT_RELATED_PRODUCT_CATEGORY('part',$,(#7));
ENDSEC;
END-ISO-10303-21;
