ISO-10303-21;
HEADER;
FILE_DESCRIPTION(('FreeCAD Model'),'2;1');
FILE_NAME('Open CASCADE Shape Model','2026-10-08T15:30:55',('FreeCAD'),(
    'FreeCAD'),'Open CASCADE STEP processor 7.8','FreeCAD','Unknown');
FILE_SCHEMA(('AUTOMOTIVE_DESIGN { 1 0 10303 214 1 1 1 1 }'));
ENDSEC;
DATA;
#1 = APPLICATION_PROTOCOL_DEFINITION('international standard',
  'automotive_design',2000,#2);
#2 = APPLICATION_CONTEXT(
  'core data for automotive mechanical design processes');
#3 = SHAPE_DEFINITION_REPRESENTATION(#4,#10);
#4 = PRODUCT_DEFINITION_SHAPE('','',#5);
#5 = PRODUCT_DEFINITION('design','',#6,#9);
#6 = PRODUCT_DEFINITION_FORMATION('','',#7);
#7 = PRODUCT('Open CASCADE STEP translator 7.8 15',
  'Open CASCADE STEP translator 7.8 15','',(#8));
#8 = PRODUCT_CONTEXT('',#2,'mechanical');
#9 = PRODUCT_DEFINITION_CONTEXT('part definition',#2,'design');
#10 = ADVANCED_BREP_SHAPE_REPRESENTATION('',(#11,#15),#2019);
#11 = AXIS2_PLACEMENT_3D('',#12,#13,#14);
#12 = CARTESIAN_POINT('',(0.,0.,0.));
#13 = DIRECTION('',(0.,0.,1.));
#14 = DIRECTION('',(1.,0.,-0.));
#15 = MANIFOLD_SOLID_BREP('',#16);
#16 = CLOSED_SHELL('',(#17,#365,#396,#421,#446,#470,#495,#527,#545,#577,
    #595,#627,#645,#677,#695,#727,#745,#777,#842,#907,#931,#1099,#1131,
    #1155,#1187,#1218,#1242,#1267,#1291,#1322,#1347,#1378,#1402,#1427,
    #1451,#1482,#1507,#1538,#1562,#1587,#1611,#1635,#1659,#1677,#1695,
    #1713,#1731,#1749,#1767,#1785,#1803,#1827,#1845,#1863,#1875,#1887,
    #1899,#1917,#1929,#1947,#1959,#1977,#1989,#2007));
#17 = ADVANCED_FACE('',(#18,#258,#309),#360,.T.);
#18 = FACE_BOUND('',#19,.T.);
#19 = EDGE_LOOP('',(#20,#30,#39,#47,#56,#64,#73,#81,#90,#98,#107,#115,
    #124,#132,#141,#149,#158,#166,#175,#183,#192,#200,#209,#217,#226,
    #234,#243,#251));
#20 = ORIENTED_EDGE('',*,*,#21,.F.);
#21 = EDGE_CURVE('',#22,#24,#26,.T.);
#22 = VERTEX_POINT('',#23);
#23 = CARTESIAN_POINT('',(0.137214489643,0.,0.));
#24 = VERTEX_POINT('',#25);
#25 = CARTESIAN_POINT('',(0.137214489643,0.,5.7));
#26 = LINE('',#27,#28);
#27 = CARTESIAN_POINT('',(0.137214489643,0.,0.));
#28 = VECTOR('',#29,1.);
#29 = DIRECTION('',(0.,0.,1.));
#30 = ORIENTED_EDGE('',*,*,#31,.T.);
#31 = EDGE_CURVE('',#22,#32,#34,.T.);
#32 = VERTEX_POINT('',#33);
#33 = CARTESIAN_POINT('',(91.195274817947,91.058060328304,0.));
#34 = CIRCLE('',#35,96.5);
#35 = AXIS2_PLACEMENT_3D('',#36,#37,#38);
#36 = CARTESIAN_POINT('',(-5.159264810565,96.354539628512,0.));
#37 = DIRECTION('',(0.,0.,1.));
#38 = DIRECTION('',(1.,0.,-0.));
#39 = ORIENTED_EDGE('',*,*,#40,.T.);
#40 = EDGE_CURVE('',#32,#41,#43,.T.);
#41 = VERTEX_POINT('',#42);
#42 = CARTESIAN_POINT('',(91.195274817947,91.058060328304,5.7));
#43 = LINE('',#44,#45);
#44 = CARTESIAN_POINT('',(91.195274817947,91.058060328304,0.));
#45 = VECTOR('',#46,1.);
#46 = DIRECTION('',(0.,0.,1.));
#47 = ORIENTED_EDGE('',*,*,#48,.F.);
#48 = EDGE_CURVE('',#49,#41,#51,.T.);
#49 = VERTEX_POINT('',#50);
#50 = CARTESIAN_POINT('',(90.599049241256,84.413212652298,5.7));
#51 = CIRCLE('',#52,96.5);
#52 = AXIS2_PLACEMENT_3D('',#53,#54,#55);
#53 = CARTESIAN_POINT('',(-5.159264810565,96.354539628512,5.7));
#54 = DIRECTION('',(0.,0.,1.));
#55 = DIRECTION('',(1.,0.,-0.));
#56 = ORIENTED_EDGE('',*,*,#57,.T.);
#57 = EDGE_CURVE('',#49,#58,#60,.T.);
#58 = VERTEX_POINT('',#59);
#59 = CARTESIAN_POINT('',(90.599049241256,84.4132126523,6.));
#60 = LINE('',#61,#62);
#61 = CARTESIAN_POINT('',(90.599049241256,84.413212652298,5.7));
#62 = VECTOR('',#63,1.);
#63 = DIRECTION('',(0.,0.,1.));
#64 = ORIENTED_EDGE('',*,*,#65,.F.);
#65 = EDGE_CURVE('',#66,#58,#68,.T.);
#66 = VERTEX_POINT('',#67);
#67 = CARTESIAN_POINT('',(88.25072076929,72.130076910604,6.));
#68 = CIRCLE('',#69,96.5);
#69 = AXIS2_PLACEMENT_3D('',#70,#71,#72);
#70 = CARTESIAN_POINT('',(-5.159264810565,96.354539628512,6.));
#71 = DIRECTION('',(0.,0.,1.));
#72 = DIRECTION('',(1.,0.,-0.));
#73 = ORIENTED_EDGE('',*,*,#74,.F.);
#74 = EDGE_CURVE('',#75,#66,#77,.T.);
#75 = VERTEX_POINT('',#76);
#76 = CARTESIAN_POINT('',(88.25072076929,72.130076910605,5.7));
#77 = LINE('',#78,#79);
#78 = CARTESIAN_POINT('',(88.25072076929,72.130076910605,5.7));
#79 = VECTOR('',#80,1.);
#80 = DIRECTION('',(0.,0.,1.));
#81 = ORIENTED_EDGE('',*,*,#82,.F.);
#82 = EDGE_CURVE('',#83,#75,#85,.T.);
#83 = VERTEX_POINT('',#84);
#84 = CARTESIAN_POINT('',(86.353725085725,65.733914549301,5.7));
#85 = CIRCLE('',#86,96.5);
#86 = AXIS2_PLACEMENT_3D('',#87,#88,#89);
#87 = CARTESIAN_POINT('',(-5.159264810565,96.354539628512,5.7));
#88 = DIRECTION('',(0.,0.,1.));
#89 = DIRECTION('',(1.,0.,-0.));
#90 = ORIENTED_EDGE('',*,*,#91,.T.);
#91 = EDGE_CURVE('',#83,#92,#94,.T.);
#92 = VERTEX_POINT('',#93);
#93 = CARTESIAN_POINT('',(86.353725085724,65.733914549299,6.));
#94 = LINE('',#95,#96);
#95 = CARTESIAN_POINT('',(86.353725085725,65.733914549301,5.7));
#96 = VECTOR('',#97,1.);
#97 = DIRECTION('',(0.,0.,1.));
#98 = ORIENTED_EDGE('',*,*,#99,.F.);
#99 = EDGE_CURVE('',#100,#92,#102,.T.);
#100 = VERTEX_POINT('',#101);
#101 = CARTESIAN_POINT('',(81.625449119933,54.156631765661,6.));
#102 = CIRCLE('',#103,96.5);
#103 = AXIS2_PLACEMENT_3D('',#104,#105,#106);
#104 = CARTESIAN_POINT('',(-5.159264810565,96.354539628512,6.));
#105 = DIRECTION('',(0.,0.,1.));
#106 = DIRECTION('',(1.,0.,-0.));
#107 = ORIENTED_EDGE('',*,*,#108,.F.);
#108 = EDGE_CURVE('',#109,#100,#111,.T.);
#109 = VERTEX_POINT('',#110);
#110 = CARTESIAN_POINT('',(81.625449119932,54.15663176566,5.7));
#111 = LINE('',#112,#113);
#112 = CARTESIAN_POINT('',(81.625449119932,54.15663176566,5.7));
#113 = VECTOR('',#114,1.);
#114 = DIRECTION('',(0.,0.,1.));
#115 = ORIENTED_EDGE('',*,*,#116,.F.);
#116 = EDGE_CURVE('',#117,#109,#119,.T.);
#117 = VERTEX_POINT('',#118);
#118 = CARTESIAN_POINT('',(78.502432355066,48.261188452219,5.7));
#119 = CIRCLE('',#120,96.5);
#120 = AXIS2_PLACEMENT_3D('',#121,#122,#123);
#121 = CARTESIAN_POINT('',(-5.159264810565,96.354539628512,5.7));
#122 = DIRECTION('',(0.,0.,1.));
#123 = DIRECTION('',(1.,0.,-0.));
#124 = ORIENTED_EDGE('',*,*,#125,.T.);
#125 = EDGE_CURVE('',#117,#126,#128,.T.);
#126 = VERTEX_POINT('',#127);
#127 = CARTESIAN_POINT('',(78.502432355065,48.261188452218,6.));
#128 = LINE('',#129,#130);
#129 = CARTESIAN_POINT('',(78.502432355066,48.261188452219,5.7));
#130 = VECTOR('',#131,1.);
#131 = DIRECTION('',(0.,0.,1.));
#132 = ORIENTED_EDGE('',*,*,#133,.F.);
#133 = EDGE_CURVE('',#134,#126,#136,.T.);
#134 = VERTEX_POINT('',#135);
#135 = CARTESIAN_POINT('',(71.580521402189,37.845948703582,6.));
#136 = CIRCLE('',#137,96.5);
#137 = AXIS2_PLACEMENT_3D('',#138,#139,#140);
#138 = CARTESIAN_POINT('',(-5.159264810565,96.354539628512,6.));
#139 = DIRECTION('',(0.,0.,1.));
#140 = DIRECTION('',(1.,0.,-0.));
#141 = ORIENTED_EDGE('',*,*,#142,.F.);
#142 = EDGE_CURVE('',#143,#134,#145,.T.);
#143 = VERTEX_POINT('',#144);
#144 = CARTESIAN_POINT('',(71.58052140219,37.845948703584,5.7));
#145 = LINE('',#146,#147);
#146 = CARTESIAN_POINT('',(71.58052140219,37.845948703584,5.7));
#147 = VECTOR('',#148,1.);
#148 = DIRECTION('',(0.,0.,1.));
#149 = ORIENTED_EDGE('',*,*,#150,.F.);
#150 = EDGE_CURVE('',#151,#143,#153,.T.);
#151 = VERTEX_POINT('',#152);
#152 = CARTESIAN_POINT('',(67.354542591975,32.683527888574,5.7));
#153 = CIRCLE('',#154,96.5);
#154 = AXIS2_PLACEMENT_3D('',#155,#156,#157);
#155 = CARTESIAN_POINT('',(-5.159264810565,96.354539628512,5.7));
#156 = DIRECTION('',(0.,0.,1.));
#157 = DIRECTION('',(1.,0.,-0.));
#158 = ORIENTED_EDGE('',*,*,#159,.T.);
#159 = EDGE_CURVE('',#151,#160,#162,.T.);
#160 = VERTEX_POINT('',#161);
#161 = CARTESIAN_POINT('',(67.354542591975,32.683527888574,6.));
#162 = LINE('',#163,#164);
#163 = CARTESIAN_POINT('',(67.354542591975,32.683527888574,5.7));
#164 = VECTOR('',#165,1.);
#165 = DIRECTION('',(0.,0.,1.));
#166 = ORIENTED_EDGE('',*,*,#167,.F.);
#167 = EDGE_CURVE('',#168,#160,#170,.T.);
#168 = VERTEX_POINT('',#169);
#169 = CARTESIAN_POINT('',(42.934086365728,12.692842462881,6.));
#170 = CIRCLE('',#171,96.5);
#171 = AXIS2_PLACEMENT_3D('',#172,#173,#174);
#172 = CARTESIAN_POINT('',(-5.159264810565,96.354539628512,6.));
#173 = DIRECTION('',(0.,0.,1.));
#174 = DIRECTION('',(1.,0.,-0.));
#175 = ORIENTED_EDGE('',*,*,#176,.F.);
#176 = EDGE_CURVE('',#177,#168,#179,.T.);
#177 = VERTEX_POINT('',#178);
#178 = CARTESIAN_POINT('',(42.934086365728,12.692842462881,5.7));
#179 = LINE('',#180,#181);
#180 = CARTESIAN_POINT('',(42.934086365728,12.692842462881,5.7));
#181 = VECTOR('',#182,1.);
#182 = DIRECTION('',(0.,0.,1.));
#183 = ORIENTED_EDGE('',*,*,#184,.F.);
#184 = EDGE_CURVE('',#185,#177,#187,.T.);
#185 = VERTEX_POINT('',#186);
#186 = CARTESIAN_POINT('',(37.038643052287,9.569825698015,5.7));
#187 = CIRCLE('',#188,96.5);
#188 = AXIS2_PLACEMENT_3D('',#189,#190,#191);
#189 = CARTESIAN_POINT('',(-5.159264810565,96.354539628512,5.7));
#190 = DIRECTION('',(0.,0.,1.));
#191 = DIRECTION('',(1.,0.,-0.));
#192 = ORIENTED_EDGE('',*,*,#193,.T.);
#193 = EDGE_CURVE('',#185,#194,#196,.T.);
#194 = VERTEX_POINT('',#195);
#195 = CARTESIAN_POINT('',(37.038643052284,9.569825698013,6.));
#196 = LINE('',#197,#198);
#197 = CARTESIAN_POINT('',(37.038643052287,9.569825698015,5.7));
#198 = VECTOR('',#199,1.);
#199 = DIRECTION('',(0.,0.,1.));
#200 = ORIENTED_EDGE('',*,*,#201,.F.);
#201 = EDGE_CURVE('',#202,#194,#204,.T.);
#202 = VERTEX_POINT('',#203);
#203 = CARTESIAN_POINT('',(25.461360268647,4.841549732223,6.));
#204 = CIRCLE('',#205,96.5);
#205 = AXIS2_PLACEMENT_3D('',#206,#207,#208);
#206 = CARTESIAN_POINT('',(-5.159264810565,96.354539628512,6.));
#207 = DIRECTION('',(0.,0.,1.));
#208 = DIRECTION('',(1.,0.,-0.));
#209 = ORIENTED_EDGE('',*,*,#210,.F.);
#210 = EDGE_CURVE('',#211,#202,#213,.T.);
#211 = VERTEX_POINT('',#212);
#212 = CARTESIAN_POINT('',(25.461360268646,4.841549732222,5.7));
#213 = LINE('',#214,#215);
#214 = CARTESIAN_POINT('',(25.461360268646,4.841549732222,5.7));
#215 = VECTOR('',#216,1.);
#216 = DIRECTION('',(0.,0.,1.));
#217 = ORIENTED_EDGE('',*,*,#218,.F.);
#218 = EDGE_CURVE('',#219,#211,#221,.T.);
#219 = VERTEX_POINT('',#220);
#220 = CARTESIAN_POINT('',(19.065197907342,2.944554048657,5.7));
#221 = CIRCLE('',#222,96.5);
#222 = AXIS2_PLACEMENT_3D('',#223,#224,#225);
#223 = CARTESIAN_POINT('',(-5.159264810565,96.354539628512,5.7));
#224 = DIRECTION('',(0.,0.,1.));
#225 = DIRECTION('',(1.,0.,-0.));
#226 = ORIENTED_EDGE('',*,*,#227,.T.);
#227 = EDGE_CURVE('',#219,#228,#230,.T.);
#228 = VERTEX_POINT('',#229);
#229 = CARTESIAN_POINT('',(19.065197907342,2.944554048657,6.));
#230 = LINE('',#231,#232);
#231 = CARTESIAN_POINT('',(19.065197907342,2.944554048657,5.7));
#232 = VECTOR('',#233,1.);
#233 = DIRECTION('',(0.,0.,1.));
#234 = ORIENTED_EDGE('',*,*,#235,.F.);
#235 = EDGE_CURVE('',#236,#228,#238,.T.);
#236 = VERTEX_POINT('',#237);
#237 = CARTESIAN_POINT('',(6.782062165649,0.596225576691,6.));
#238 = CIRCLE('',#239,96.5);
#239 = AXIS2_PLACEMENT_3D('',#240,#241,#242);
#240 = CARTESIAN_POINT('',(-5.159264810565,96.354539628512,6.));
#241 = DIRECTION('',(0.,0.,1.));
#242 = DIRECTION('',(1.,0.,-0.));
#243 = ORIENTED_EDGE('',*,*,#244,.F.);
#244 = EDGE_CURVE('',#245,#236,#247,.T.);
#245 = VERTEX_POINT('',#246);
#246 = CARTESIAN_POINT('',(6.782062165649,0.596225576691,5.7));
#247 = LINE('',#248,#249);
#248 = CARTESIAN_POINT('',(6.782062165649,0.596225576691,5.7));
#249 = VECTOR('',#250,1.);
#250 = DIRECTION('',(0.,0.,1.));
#251 = ORIENTED_EDGE('',*,*,#252,.F.);
#252 = EDGE_CURVE('',#24,#245,#253,.T.);
#253 = CIRCLE('',#254,96.5);
#254 = AXIS2_PLACEMENT_3D('',#255,#256,#257);
#255 = CARTESIAN_POINT('',(-5.159264810565,96.354539628512,5.7));
#256 = DIRECTION('',(0.,0.,1.));
#257 = DIRECTION('',(1.,0.,-0.));
#258 = FACE_BOUND('',#259,.T.);
#259 = EDGE_LOOP('',(#260));
#260 = ORIENTED_EDGE('',*,*,#261,.F.);
#261 = EDGE_CURVE('',#262,#262,#264,.T.);
#262 = VERTEX_POINT('',#263);
#263 = CARTESIAN_POINT('',(11.239861856054,1.258174584562,3.));
#264 = B_SPLINE_CURVE_WITH_KNOTS('',7,(#265,#266,#267,#268,#269,#270,
    #271,#272,#273,#274,#275,#276,#277,#278,#279,#280,#281,#282,#283,
    #284,#285,#286,#287,#288,#289,#290,#291,#292,#293,#294,#295,#296,
    #297,#298,#299,#300,#301,#302,#303,#304,#305,#306,#307,#308),
  .UNSPECIFIED.,.T.,.F.,(8,6,6,6,6,6,6,8),(0.,0.152892498419,
    0.285680451652,0.421825939638,0.588895877589,0.714586135056,
    0.837773843936,1.),.UNSPECIFIED.);
#265 = CARTESIAN_POINT('',(11.239861856054,1.258174584562,3.));
#266 = CARTESIAN_POINT('',(11.239861856054,1.258174584562,2.790990376566
    ));
#267 = CARTESIAN_POINT('',(11.268564989535,1.263124395479,2.582094204346
    ));
#268 = CARTESIAN_POINT('',(11.325924582246,1.273015764053,2.375796037567
    ));
#269 = CARTESIAN_POINT('',(11.412803862868,1.288054460103,2.174936835618
    ));
#270 = CARTESIAN_POINT('',(11.530613664784,1.308594074109,1.983282271018
    ));
#271 = CARTESIAN_POINT('',(11.680963802037,1.33511213486,1.80614074728)
  );
#272 = CARTESIAN_POINT('',(12.024559232937,1.396693627881,1.517383944096
    ));
#273 = CARTESIAN_POINT('',(12.21524870605,1.431193831464,1.395438366304)
  );
#274 = CARTESIAN_POINT('',(12.433075121922,1.471106027887,1.299781399811
    ));
#275 = CARTESIAN_POINT('',(12.67011465601,1.515260924705,1.240091357335)
  );
#276 = CARTESIAN_POINT('',(12.915756175894,1.561884137975,1.221587599022
    ));
#277 = CARTESIAN_POINT('',(13.158736549848,1.608796307969,1.24473735479)
  );
#278 = CARTESIAN_POINT('',(13.625068487988,1.700133007061,1.36674479917)
  );
#279 = CARTESIAN_POINT('',(13.839445701483,1.742834310831,1.465322651219
    ));
#280 = CARTESIAN_POINT('',(14.028413755162,1.781037269069,1.592273825897
    ));
#281 = CARTESIAN_POINT('',(14.190393291594,1.814162803528,1.740546342129
    ));
#282 = CARTESIAN_POINT('',(14.324960046273,1.841915499552,1.903949351148
    ));
#283 = CARTESIAN_POINT('',(14.432590296428,1.864242655028,2.077000804393
    ));
#284 = CARTESIAN_POINT('',(14.615125783689,1.902255215499,2.473177048285
    ));
#285 = CARTESIAN_POINT('',(14.678386520642,1.915559435233,2.701660593057
    ));
#286 = CARTESIAN_POINT('',(14.706374941431,1.921474705972,2.935196575927
    ));
#287 = CARTESIAN_POINT('',(14.699768897641,1.920080347578,3.170272094062
    ));
#288 = CARTESIAN_POINT('',(14.65821577967,1.911308142598,3.403161081008)
  );
#289 = CARTESIAN_POINT('',(14.580649924815,1.895026846741,3.629499853905
    ));
#290 = CARTESIAN_POINT('',(14.379182881446,1.853180558756,4.003741474664
    ));
#291 = CARTESIAN_POINT('',(14.270412838917,1.830684542532,4.159236795802
    ));
#292 = CARTESIAN_POINT('',(14.138478200258,1.803562616053,4.305316492853
    ));
#293 = CARTESIAN_POINT('',(13.983221638874,1.771911939927,4.437320302207
    ));
#294 = CARTESIAN_POINT('',(13.805263292314,1.736029626403,4.550154415405
    ));
#295 = CARTESIAN_POINT('',(13.606158904796,1.69642933856,4.638202556417)
  );
#296 = CARTESIAN_POINT('',(13.176148049388,1.612206558832,4.750707236524
    ));
#297 = CARTESIAN_POINT('',(12.951568897262,1.568799720638,4.774924968432
    ));
#298 = CARTESIAN_POINT('',(12.723563434905,1.525414173505,4.76347163803)
  );
#299 = CARTESIAN_POINT('',(12.501497153545,1.483876277423,4.716222895485
    ));
#300 = CARTESIAN_POINT('',(12.294375741404,1.445731923257,4.636946384804
    ));
#301 = CARTESIAN_POINT('',(12.109291980654,1.412067430499,4.533106255664
    ));
#302 = CARTESIAN_POINT('',(11.741051376031,1.345726654159,4.261272202121
    ));
#303 = CARTESIAN_POINT('',(11.569809162583,1.315432042557,4.077998681341
    ));
#304 = CARTESIAN_POINT('',(11.435889732386,1.292051731824,3.876635936398
    ));
#305 = CARTESIAN_POINT('',(11.337317236608,1.274980246182,3.663927736588
    ));
#306 = CARTESIAN_POINT('',(11.272366645993,1.263780020133,3.444723324724
    ));
#307 = CARTESIAN_POINT('',(11.239861856054,1.258174584562,3.222413932792
    ));
#308 = CARTESIAN_POINT('',(11.239861856054,1.258174584562,3.));
#309 = FACE_BOUND('',#310,.T.);
#310 = EDGE_LOOP('',(#311));
#311 = ORIENTED_EDGE('',*,*,#312,.F.);
#312 = EDGE_CURVE('',#313,#313,#315,.T.);
#313 = VERTEX_POINT('',#314);
#314 = CARTESIAN_POINT('',(89.937100233385,79.955412961893,3.));
#315 = B_SPLINE_CURVE_WITH_KNOTS('',7,(#316,#317,#318,#319,#320,#321,
    #322,#323,#324,#325,#326,#327,#328,#329,#330,#331,#332,#333,#334,
    #335,#336,#337,#338,#339,#340,#341,#342,#343,#344,#345,#346,#347,
    #348,#349,#350,#351,#352,#353,#354,#355,#356,#357,#358,#359),
  .UNSPECIFIED.,.T.,.F.,(8,6,6,6,6,6,6,8),(0.,0.152892498043,
    0.285680451333,0.421825939221,0.588895877353,0.714586134954,
    0.837773843724,1.),.UNSPECIFIED.);
#316 = CARTESIAN_POINT('',(89.937100233385,79.955412961893,3.));
#317 = CARTESIAN_POINT('',(89.937100233385,79.955412961893,
    3.209009623434));
#318 = CARTESIAN_POINT('',(89.932150422468,79.926709828412,
    3.417905795654));
#319 = CARTESIAN_POINT('',(89.922259053894,79.869350235701,
    3.624203962433));
#320 = CARTESIAN_POINT('',(89.907220357844,79.782470955079,
    3.825063164382));
#321 = CARTESIAN_POINT('',(89.886680743838,79.664661153162,
    4.016717728982));
#322 = CARTESIAN_POINT('',(89.860162683087,79.51431101591,4.19385925272)
  );
#323 = CARTESIAN_POINT('',(89.798581189983,79.170715584549,
    4.482616056291));
#324 = CARTESIAN_POINT('',(89.764080986557,78.980026112322,
    4.604561633116));
#325 = CARTESIAN_POINT('',(89.724168790165,78.762199696582,
    4.700218600298));
#326 = CARTESIAN_POINT('',(89.680013893148,78.525160161404,
    4.759908643007));
#327 = CARTESIAN_POINT('',(89.633390679862,78.279518641512,
    4.778412400637));
#328 = CARTESIAN_POINT('',(89.58647851009,78.036538268671,4.75526264536)
  );
#329 = CARTESIAN_POINT('',(89.495141810824,77.570206329642,
    4.633255200747));
#330 = CARTESIAN_POINT('',(89.452440507109,77.355829116437,
    4.534677348661));
#331 = CARTESIAN_POINT('',(89.414237548926,77.166861063028,
    4.407726174208));
#332 = CARTESIAN_POINT('',(89.381112014456,77.004881526529,
    4.259453658124));
#333 = CARTESIAN_POINT('',(89.353359318379,76.870314771595,4.0960506489)
  );
#334 = CARTESIAN_POINT('',(89.331032162888,76.762684521373,
    3.922999195289));
#335 = CARTESIAN_POINT('',(89.293019602448,76.580149034256,3.52682295171
    ));
#336 = CARTESIAN_POINT('',(89.279715382713,76.516888297304,
    3.298339406937));
#337 = CARTESIAN_POINT('',(89.273800111976,76.488899876517,
    3.064803424068));
#338 = CARTESIAN_POINT('',(89.275194470369,76.495505920307,
    2.829727905941));
#339 = CARTESIAN_POINT('',(89.283966675349,76.537059038277,
    2.596838918997));
#340 = CARTESIAN_POINT('',(89.300247971205,76.614624893128,
    2.370500146102));
#341 = CARTESIAN_POINT('',(89.342094259191,76.816091936501,
    1.996258525336));
#342 = CARTESIAN_POINT('',(89.364590275414,76.924861979029,
    1.840763204199));
#343 = CARTESIAN_POINT('',(89.391712201894,77.05679661769,1.694683507146
    ));
#344 = CARTESIAN_POINT('',(89.42336287802,77.212053179072,1.562679697793
    ));
#345 = CARTESIAN_POINT('',(89.459245191544,77.390011525633,
    1.449845584595));
#346 = CARTESIAN_POINT('',(89.498845479387,77.589115913151,
    1.361797443583));
#347 = CARTESIAN_POINT('',(89.583068259034,78.019126768146,
    1.249292763585));
#348 = CARTESIAN_POINT('',(89.626475097388,78.243705921078,
    1.225075031332));
#349 = CARTESIAN_POINT('',(89.66986064451,78.471711383421,1.236528362192
    ));
#350 = CARTESIAN_POINT('',(89.711398540449,78.693777664011,
    1.283777104597));
#351 = CARTESIAN_POINT('',(89.749542894632,78.900899076214,
    1.363053614808));
#352 = CARTESIAN_POINT('',(89.783207387511,79.085982837641,
    1.466893744593));
#353 = CARTESIAN_POINT('',(89.849548163788,79.454223441915,
    1.738727797879));
#354 = CARTESIAN_POINT('',(89.87984277539,79.625465655365,1.92200131866)
  );
#355 = CARTESIAN_POINT('',(89.903223086123,79.75938508556,2.123364063602
    ));
#356 = CARTESIAN_POINT('',(89.920294571766,79.857957581339,
    2.336072263411));
#357 = CARTESIAN_POINT('',(89.931494797814,79.922908171954,
    2.555276675277));
#358 = CARTESIAN_POINT('',(89.937100233385,79.955412961893,
    2.777586067208));
#359 = CARTESIAN_POINT('',(89.937100233385,79.955412961893,3.));
#360 = CYLINDRICAL_SURFACE('',#361,96.5);
#361 = AXIS2_PLACEMENT_3D('',#362,#363,#364);
#362 = CARTESIAN_POINT('',(-5.159264810565,96.354539628512,0.));
#363 = DIRECTION('',(0.,0.,1.));
#364 = DIRECTION('',(1.,0.,-0.));
#365 = ADVANCED_FACE('',(#366),#391,.F.);
#366 = FACE_BOUND('',#367,.F.);
#367 = EDGE_LOOP('',(#368,#369,#377,#385));
#368 = ORIENTED_EDGE('',*,*,#21,.F.);
#369 = ORIENTED_EDGE('',*,*,#370,.T.);
#370 = EDGE_CURVE('',#22,#371,#373,.T.);
#371 = VERTEX_POINT('',#372);
#372 = CARTESIAN_POINT('',(0.,2.496231596594,0.));
#373 = LINE('',#374,#375);
#374 = CARTESIAN_POINT('',(5.81789436085,-103.3439880989,0.));
#375 = VECTOR('',#376,1.);
#376 = DIRECTION('',(-5.488579585707E-02,0.998492638637,0.));
#377 = ORIENTED_EDGE('',*,*,#378,.T.);
#378 = EDGE_CURVE('',#371,#379,#381,.T.);
#379 = VERTEX_POINT('',#380);
#380 = CARTESIAN_POINT('',(0.,2.496231596594,5.7));
#381 = LINE('',#382,#383);
#382 = CARTESIAN_POINT('',(4.263256414561E-14,2.496231596594,0.));
#383 = VECTOR('',#384,1.);
#384 = DIRECTION('',(0.,0.,1.));
#385 = ORIENTED_EDGE('',*,*,#386,.F.);
#386 = EDGE_CURVE('',#24,#379,#387,.T.);
#387 = LINE('',#388,#389);
#388 = CARTESIAN_POINT('',(5.81789436085,-103.3439880989,5.7));
#389 = VECTOR('',#390,1.);
#390 = DIRECTION('',(-5.488579585707E-02,0.998492638637,0.));
#391 = PLANE('',#392);
#392 = AXIS2_PLACEMENT_3D('',#393,#394,#395);
#393 = CARTESIAN_POINT('',(16.795053532265,-303.0425158264,-404.));
#394 = DIRECTION('',(0.998492638637,5.488579585707E-02,0.));
#395 = DIRECTION('',(-5.488579585707E-02,0.998492638637,0.));
#396 = ADVANCED_FACE('',(#397),#416,.F.);
#397 = FACE_BOUND('',#398,.F.);
#398 = EDGE_LOOP('',(#399,#400,#401,#409));
#399 = ORIENTED_EDGE('',*,*,#370,.F.);
#400 = ORIENTED_EDGE('',*,*,#31,.T.);
#401 = ORIENTED_EDGE('',*,*,#402,.F.);
#402 = EDGE_CURVE('',#403,#32,#405,.T.);
#403 = VERTEX_POINT('',#404);
#404 = CARTESIAN_POINT('',(88.699043221353,91.195274817947,0.));
#405 = LINE('',#406,#407);
#406 = CARTESIAN_POINT('',(-204.857792538,107.33169879992,
    5.684341886081E-14));
#407 = VECTOR('',#408,1.);
#408 = DIRECTION('',(0.998492638637,-5.488579585707E-02,0.));
#409 = ORIENTED_EDGE('',*,*,#410,.F.);
#410 = EDGE_CURVE('',#371,#403,#411,.T.);
#411 = CIRCLE('',#412,94.);
#412 = AXIS2_PLACEMENT_3D('',#413,#414,#415);
#413 = CARTESIAN_POINT('',(-5.159264810565,96.354539628512,0.));
#414 = DIRECTION('',(0.,0.,1.));
#415 = DIRECTION('',(1.,0.,-0.));
#416 = PLANE('',#417);
#417 = AXIS2_PLACEMENT_3D('',#418,#419,#420);
#418 = CARTESIAN_POINT('',(-5.159264810565,96.354539628512,0.));
#419 = DIRECTION('',(0.,0.,1.));
#420 = DIRECTION('',(1.,0.,-0.));
#421 = ADVANCED_FACE('',(#422),#441,.T.);
#422 = FACE_BOUND('',#423,.T.);
#423 = EDGE_LOOP('',(#424,#425,#434,#440));
#424 = ORIENTED_EDGE('',*,*,#244,.T.);
#425 = ORIENTED_EDGE('',*,*,#426,.F.);
#426 = EDGE_CURVE('',#427,#236,#429,.T.);
#427 = VERTEX_POINT('',#428);
#428 = CARTESIAN_POINT('',(0.137214489643,0.,6.));
#429 = CIRCLE('',#430,96.5);
#430 = AXIS2_PLACEMENT_3D('',#431,#432,#433);
#431 = CARTESIAN_POINT('',(-5.159264810565,96.354539628512,6.));
#432 = DIRECTION('',(0.,0.,1.));
#433 = DIRECTION('',(1.,0.,-0.));
#434 = ORIENTED_EDGE('',*,*,#435,.F.);
#435 = EDGE_CURVE('',#24,#427,#436,.T.);
#436 = LINE('',#437,#438);
#437 = CARTESIAN_POINT('',(0.137214489643,0.,0.));
#438 = VECTOR('',#439,1.);
#439 = DIRECTION('',(0.,0.,1.));
#440 = ORIENTED_EDGE('',*,*,#252,.T.);
#441 = CYLINDRICAL_SURFACE('',#442,96.5);
#442 = AXIS2_PLACEMENT_3D('',#443,#444,#445);
#443 = CARTESIAN_POINT('',(-5.159264810565,96.354539628512,0.));
#444 = DIRECTION('',(0.,0.,1.));
#445 = DIRECTION('',(1.,0.,-0.));
#446 = ADVANCED_FACE('',(#447),#465,.F.);
#447 = FACE_BOUND('',#448,.F.);
#448 = EDGE_LOOP('',(#449,#457,#458,#459));
#449 = ORIENTED_EDGE('',*,*,#450,.F.);
#450 = EDGE_CURVE('',#403,#451,#453,.T.);
#451 = VERTEX_POINT('',#452);
#452 = CARTESIAN_POINT('',(88.699043221353,91.195274817947,5.7));
#453 = LINE('',#454,#455);
#454 = CARTESIAN_POINT('',(88.699043221353,91.195274817947,0.));
#455 = VECTOR('',#456,1.);
#456 = DIRECTION('',(0.,0.,1.));
#457 = ORIENTED_EDGE('',*,*,#402,.T.);
#458 = ORIENTED_EDGE('',*,*,#40,.T.);
#459 = ORIENTED_EDGE('',*,*,#460,.F.);
#460 = EDGE_CURVE('',#451,#41,#461,.T.);
#461 = LINE('',#462,#463);
#462 = CARTESIAN_POINT('',(-204.857792538,107.33169879992,5.7));
#463 = VECTOR('',#464,1.);
#464 = DIRECTION('',(0.998492638637,-5.488579585707E-02,0.));
#465 = PLANE('',#466);
#466 = AXIS2_PLACEMENT_3D('',#467,#468,#469);
#467 = CARTESIAN_POINT('',(-404.5563202655,118.30885797134,-404.));
#468 = DIRECTION('',(-5.488579585707E-02,-0.998492638637,0.));
#469 = DIRECTION('',(0.998492638637,-5.488579585707E-02,0.));
#470 = ADVANCED_FACE('',(#471),#490,.T.);
#471 = FACE_BOUND('',#472,.T.);
#472 = EDGE_LOOP('',(#473,#474,#482,#489));
#473 = ORIENTED_EDGE('',*,*,#48,.T.);
#474 = ORIENTED_EDGE('',*,*,#475,.T.);
#475 = EDGE_CURVE('',#41,#476,#478,.T.);
#476 = VERTEX_POINT('',#477);
#477 = CARTESIAN_POINT('',(91.195274817947,91.058060328304,6.));
#478 = LINE('',#479,#480);
#479 = CARTESIAN_POINT('',(91.195274817947,91.058060328304,0.));
#480 = VECTOR('',#481,1.);
#481 = DIRECTION('',(0.,0.,1.));
#482 = ORIENTED_EDGE('',*,*,#483,.F.);
#483 = EDGE_CURVE('',#58,#476,#484,.T.);
#484 = CIRCLE('',#485,96.5);
#485 = AXIS2_PLACEMENT_3D('',#486,#487,#488);
#486 = CARTESIAN_POINT('',(-5.159264810565,96.354539628512,6.));
#487 = DIRECTION('',(0.,0.,1.));
#488 = DIRECTION('',(1.,0.,-0.));
#489 = ORIENTED_EDGE('',*,*,#57,.F.);
#490 = CYLINDRICAL_SURFACE('',#491,96.5);
#491 = AXIS2_PLACEMENT_3D('',#492,#493,#494);
#492 = CARTESIAN_POINT('',(-5.159264810565,96.354539628512,0.));
#493 = DIRECTION('',(0.,0.,1.));
#494 = DIRECTION('',(1.,0.,-0.));
#495 = ADVANCED_FACE('',(#496),#522,.T.);
#496 = FACE_BOUND('',#497,.T.);
#497 = EDGE_LOOP('',(#498,#509,#515,#516));
#498 = ORIENTED_EDGE('',*,*,#499,.F.);
#499 = EDGE_CURVE('',#500,#502,#504,.T.);
#500 = VERTEX_POINT('',#501);
#501 = CARTESIAN_POINT('',(6.472701363156,3.077010914821,6.));
#502 = VERTEX_POINT('',#503);
#503 = CARTESIAN_POINT('',(18.437621152994,5.364501861607,6.));
#504 = CIRCLE('',#505,94.);
#505 = AXIS2_PLACEMENT_3D('',#506,#507,#508);
#506 = CARTESIAN_POINT('',(-5.159264810565,96.354539628512,6.));
#507 = DIRECTION('',(0.,0.,1.));
#508 = DIRECTION('',(1.,0.,-0.));
#509 = ORIENTED_EDGE('',*,*,#510,.T.);
#510 = EDGE_CURVE('',#500,#236,#511,.T.);
#511 = LINE('',#512,#513);
#512 = CARTESIAN_POINT('',(-29.90812900997,294.81736667891,6.));
#513 = VECTOR('',#514,1.);
#514 = DIRECTION('',(0.123744320997,-0.992314135252,0.));
#515 = ORIENTED_EDGE('',*,*,#235,.T.);
#516 = ORIENTED_EDGE('',*,*,#517,.T.);
#517 = EDGE_CURVE('',#228,#502,#518,.T.);
#518 = LINE('',#519,#520);
#519 = CARTESIAN_POINT('',(45.046875537428,-97.24128540745,6.));
#520 = VECTOR('',#521,1.);
#521 = DIRECTION('',(-0.25103070174,0.96797912518,0.));
#522 = PLANE('',#523);
#523 = AXIS2_PLACEMENT_3D('',#524,#525,#526);
#524 = CARTESIAN_POINT('',(-5.159264810565,96.354539628512,6.));
#525 = DIRECTION('',(0.,0.,1.));
#526 = DIRECTION('',(1.,0.,-0.));
#527 = ADVANCED_FACE('',(#528),#540,.T.);
#528 = FACE_BOUND('',#529,.T.);
#529 = EDGE_LOOP('',(#530,#531,#538,#539));
#530 = ORIENTED_EDGE('',*,*,#210,.T.);
#531 = ORIENTED_EDGE('',*,*,#532,.F.);
#532 = EDGE_CURVE('',#228,#202,#533,.T.);
#533 = CIRCLE('',#534,96.5);
#534 = AXIS2_PLACEMENT_3D('',#535,#536,#537);
#535 = CARTESIAN_POINT('',(-5.159264810565,96.354539628512,6.));
#536 = DIRECTION('',(0.,0.,1.));
#537 = DIRECTION('',(1.,0.,-0.));
#538 = ORIENTED_EDGE('',*,*,#227,.F.);
#539 = ORIENTED_EDGE('',*,*,#218,.T.);
#540 = CYLINDRICAL_SURFACE('',#541,96.5);
#541 = AXIS2_PLACEMENT_3D('',#542,#543,#544);
#542 = CARTESIAN_POINT('',(-5.159264810565,96.354539628512,0.));
#543 = DIRECTION('',(0.,0.,1.));
#544 = DIRECTION('',(1.,0.,-0.));
#545 = ADVANCED_FACE('',(#546),#572,.T.);
#546 = FACE_BOUND('',#547,.T.);
#547 = EDGE_LOOP('',(#548,#559,#565,#566));
#548 = ORIENTED_EDGE('',*,*,#549,.F.);
#549 = EDGE_CURVE('',#550,#552,#554,.T.);
#550 = VERTEX_POINT('',#551);
#551 = CARTESIAN_POINT('',(85.830772956341,72.757653664956,6.));
#552 = VERTEX_POINT('',#553);
#553 = CARTESIAN_POINT('',(88.118263903126,84.72257345479,6.));
#554 = CIRCLE('',#555,94.);
#555 = AXIS2_PLACEMENT_3D('',#556,#557,#558);
#556 = CARTESIAN_POINT('',(-5.159264810565,96.354539628512,6.));
#557 = DIRECTION('',(0.,0.,1.));
#558 = DIRECTION('',(1.,0.,-0.));
#559 = ORIENTED_EDGE('',*,*,#560,.T.);
#560 = EDGE_CURVE('',#550,#66,#561,.T.);
#561 = LINE('',#562,#563);
#562 = CARTESIAN_POINT('',(-198.7550898465,146.5606799765,6.));
#563 = VECTOR('',#564,1.);
#564 = DIRECTION('',(0.96797912518,-0.25103070174,0.));
#565 = ORIENTED_EDGE('',*,*,#65,.T.);
#566 = ORIENTED_EDGE('',*,*,#567,.T.);
#567 = EDGE_CURVE('',#58,#552,#568,.T.);
#568 = LINE('',#569,#570);
#569 = CARTESIAN_POINT('',(193.30356223984,71.605675429104,6.));
#570 = VECTOR('',#571,1.);
#571 = DIRECTION('',(-0.992314135252,0.123744320997,0.));
#572 = PLANE('',#573);
#573 = AXIS2_PLACEMENT_3D('',#574,#575,#576);
#574 = CARTESIAN_POINT('',(-5.159264810565,96.354539628512,6.));
#575 = DIRECTION('',(0.,0.,1.));
#576 = DIRECTION('',(1.,0.,-0.));
#577 = ADVANCED_FACE('',(#578),#590,.T.);
#578 = FACE_BOUND('',#579,.T.);
#579 = EDGE_LOOP('',(#580,#581,#588,#589));
#580 = ORIENTED_EDGE('',*,*,#74,.T.);
#581 = ORIENTED_EDGE('',*,*,#582,.F.);
#582 = EDGE_CURVE('',#92,#66,#583,.T.);
#583 = CIRCLE('',#584,96.5);
#584 = AXIS2_PLACEMENT_3D('',#585,#586,#587);
#585 = CARTESIAN_POINT('',(-5.159264810565,96.354539628512,6.));
#586 = DIRECTION('',(0.,0.,1.));
#587 = DIRECTION('',(1.,0.,-0.));
#588 = ORIENTED_EDGE('',*,*,#91,.F.);
#589 = ORIENTED_EDGE('',*,*,#82,.T.);
#590 = CYLINDRICAL_SURFACE('',#591,96.5);
#591 = AXIS2_PLACEMENT_3D('',#592,#593,#594);
#592 = CARTESIAN_POINT('',(-5.159264810565,96.354539628512,0.));
#593 = DIRECTION('',(0.,0.,1.));
#594 = DIRECTION('',(1.,0.,-0.));
#595 = ADVANCED_FACE('',(#596),#622,.T.);
#596 = FACE_BOUND('',#597,.T.);
#597 = EDGE_LOOP('',(#598,#609,#615,#616));
#598 = ORIENTED_EDGE('',*,*,#599,.F.);
#599 = EDGE_CURVE('',#600,#602,#604,.T.);
#600 = VERTEX_POINT('',#601);
#601 = CARTESIAN_POINT('',(24.668079826179,7.212352579276,6.));
#602 = VERTEX_POINT('',#603);
#603 = CARTESIAN_POINT('',(35.945433004028,11.818134349064,6.));
#604 = CIRCLE('',#605,94.);
#605 = AXIS2_PLACEMENT_3D('',#606,#607,#608);
#606 = CARTESIAN_POINT('',(-5.159264810565,96.354539628512,6.));
#607 = DIRECTION('',(0.,0.,1.));
#608 = DIRECTION('',(1.,0.,-0.));
#609 = ORIENTED_EDGE('',*,*,#610,.T.);
#610 = EDGE_CURVE('',#600,#202,#611,.T.);
#611 = LINE('',#612,#613);
#612 = CARTESIAN_POINT('',(-68.62170020789,286.01876739284,6.));
#613 = VECTOR('',#614,1.);
#614 = DIRECTION('',(0.317312176987,-0.948321138822,0.));
#615 = ORIENTED_EDGE('',*,*,#201,.T.);
#616 = ORIENTED_EDGE('',*,*,#617,.T.);
#617 = EDGE_CURVE('',#194,#602,#618,.T.);
#618 = LINE('',#619,#620);
#619 = CARTESIAN_POINT('',(82.297539050269,-83.51015245542,6.));
#620 = VECTOR('',#621,1.);
#621 = DIRECTION('',(-0.437284019304,0.89932346042,0.));
#622 = PLANE('',#623);
#623 = AXIS2_PLACEMENT_3D('',#624,#625,#626);
#624 = CARTESIAN_POINT('',(-5.159264810565,96.354539628512,6.));
#625 = DIRECTION('',(0.,0.,1.));
#626 = DIRECTION('',(1.,0.,-0.));
#627 = ADVANCED_FACE('',(#628),#640,.T.);
#628 = FACE_BOUND('',#629,.T.);
#629 = EDGE_LOOP('',(#630,#631,#638,#639));
#630 = ORIENTED_EDGE('',*,*,#176,.T.);
#631 = ORIENTED_EDGE('',*,*,#632,.F.);
#632 = EDGE_CURVE('',#194,#168,#633,.T.);
#633 = CIRCLE('',#634,96.5);
#634 = AXIS2_PLACEMENT_3D('',#635,#636,#637);
#635 = CARTESIAN_POINT('',(-5.159264810565,96.354539628512,6.));
#636 = DIRECTION('',(0.,0.,1.));
#637 = DIRECTION('',(1.,0.,-0.));
#638 = ORIENTED_EDGE('',*,*,#193,.F.);
#639 = ORIENTED_EDGE('',*,*,#184,.T.);
#640 = CYLINDRICAL_SURFACE('',#641,96.5);
#641 = AXIS2_PLACEMENT_3D('',#642,#643,#644);
#642 = CARTESIAN_POINT('',(-5.159264810565,96.354539628512,0.));
#643 = DIRECTION('',(0.,0.,1.));
#644 = DIRECTION('',(1.,0.,-0.));
#645 = ADVANCED_FACE('',(#646),#672,.T.);
#646 = FACE_BOUND('',#647,.T.);
#647 = EDGE_LOOP('',(#648,#659,#665,#666));
#648 = ORIENTED_EDGE('',*,*,#649,.F.);
#649 = EDGE_CURVE('',#650,#652,#654,.T.);
#650 = VERTEX_POINT('',#651);
#651 = CARTESIAN_POINT('',(79.377140468883,55.24984181392,6.));
#652 = VERTEX_POINT('',#653);
#653 = CARTESIAN_POINT('',(83.98292223867,66.527194991767,6.));
#654 = CIRCLE('',#655,94.);
#655 = AXIS2_PLACEMENT_3D('',#656,#657,#658);
#656 = CARTESIAN_POINT('',(-5.159264810565,96.354539628512,6.));
#657 = DIRECTION('',(0.,0.,1.));
#658 = DIRECTION('',(1.,0.,-0.));
#659 = ORIENTED_EDGE('',*,*,#660,.T.);
#660 = EDGE_CURVE('',#650,#100,#661,.T.);
#661 = LINE('',#662,#663);
#662 = CARTESIAN_POINT('',(-185.0239568944,183.81134348934,6.));
#663 = VECTOR('',#664,1.);
#664 = DIRECTION('',(0.89932346042,-0.437284019304,0.));
#665 = ORIENTED_EDGE('',*,*,#99,.T.);
#666 = ORIENTED_EDGE('',*,*,#667,.T.);
#667 = EDGE_CURVE('',#92,#652,#668,.T.);
#668 = LINE('',#669,#670);
#669 = CARTESIAN_POINT('',(184.50496295376,32.892104231183,6.));
#670 = VECTOR('',#671,1.);
#671 = DIRECTION('',(-0.948321138822,0.317312176987,0.));
#672 = PLANE('',#673);
#673 = AXIS2_PLACEMENT_3D('',#674,#675,#676);
#674 = CARTESIAN_POINT('',(-5.159264810565,96.354539628512,6.));
#675 = DIRECTION('',(0.,0.,1.));
#676 = DIRECTION('',(1.,0.,-0.));
#677 = ADVANCED_FACE('',(#678),#690,.T.);
#678 = FACE_BOUND('',#679,.T.);
#679 = EDGE_LOOP('',(#680,#681,#688,#689));
#680 = ORIENTED_EDGE('',*,*,#108,.T.);
#681 = ORIENTED_EDGE('',*,*,#682,.F.);
#682 = EDGE_CURVE('',#126,#100,#683,.T.);
#683 = CIRCLE('',#684,96.5);
#684 = AXIS2_PLACEMENT_3D('',#685,#686,#687);
#685 = CARTESIAN_POINT('',(-5.159264810565,96.354539628512,6.));
#686 = DIRECTION('',(0.,0.,1.));
#687 = DIRECTION('',(1.,0.,-0.));
#688 = ORIENTED_EDGE('',*,*,#125,.F.);
#689 = ORIENTED_EDGE('',*,*,#116,.T.);
#690 = CYLINDRICAL_SURFACE('',#691,96.5);
#691 = AXIS2_PLACEMENT_3D('',#692,#693,#694);
#692 = CARTESIAN_POINT('',(-5.159264810565,96.354539628512,0.));
#693 = DIRECTION('',(0.,0.,1.));
#694 = DIRECTION('',(1.,0.,-0.));
#695 = ADVANCED_FACE('',(#696),#722,.T.);
#696 = FACE_BOUND('',#697,.T.);
#697 = EDGE_LOOP('',(#698,#709,#715,#716));
#698 = ORIENTED_EDGE('',*,*,#699,.F.);
#699 = EDGE_CURVE('',#700,#702,#704,.T.);
#700 = VERTEX_POINT('',#701);
#701 = CARTESIAN_POINT('',(41.688144625409,14.860243943855,6.));
#702 = VERTEX_POINT('',#703);
#703 = CARTESIAN_POINT('',(65.475946545278,34.333035964739,6.));
#704 = CIRCLE('',#705,94.);
#705 = AXIS2_PLACEMENT_3D('',#706,#707,#708);
#706 = CARTESIAN_POINT('',(-5.159264810565,96.354539628512,6.));
#707 = DIRECTION('',(0.,0.,1.));
#708 = DIRECTION('',(1.,0.,-0.));
#709 = ORIENTED_EDGE('',*,*,#710,.T.);
#710 = EDGE_CURVE('',#700,#168,#711,.T.);
#711 = LINE('',#712,#713);
#712 = CARTESIAN_POINT('',(-104.834604036,269.7466581065,6.));
#713 = VECTOR('',#714,1.);
#714 = DIRECTION('',(0.498376696127,-0.86696059239,0.));
#715 = ORIENTED_EDGE('',*,*,#167,.T.);
#716 = ORIENTED_EDGE('',*,*,#717,.T.);
#717 = EDGE_CURVE('',#160,#702,#718,.T.);
#718 = LINE('',#719,#720);
#719 = CARTESIAN_POINT('',(145.12841892527,-35.60610646462,6.));
#720 = VECTOR('',#721,1.);
#721 = DIRECTION('',(-0.751438418679,0.659803230466,0.));
#722 = PLANE('',#723);
#723 = AXIS2_PLACEMENT_3D('',#724,#725,#726);
#724 = CARTESIAN_POINT('',(-5.159264810565,96.354539628512,6.));
#725 = DIRECTION('',(0.,0.,1.));
#726 = DIRECTION('',(1.,0.,-0.));
#727 = ADVANCED_FACE('',(#728),#740,.T.);
#728 = FACE_BOUND('',#729,.T.);
#729 = EDGE_LOOP('',(#730,#731,#738,#739));
#730 = ORIENTED_EDGE('',*,*,#142,.T.);
#731 = ORIENTED_EDGE('',*,*,#732,.F.);
#732 = EDGE_CURVE('',#160,#134,#733,.T.);
#733 = CIRCLE('',#734,96.5);
#734 = AXIS2_PLACEMENT_3D('',#735,#736,#737);
#735 = CARTESIAN_POINT('',(-5.159264810565,96.354539628512,6.));
#736 = DIRECTION('',(0.,0.,1.));
#737 = DIRECTION('',(1.,0.,-0.));
#738 = ORIENTED_EDGE('',*,*,#159,.F.);
#739 = ORIENTED_EDGE('',*,*,#150,.T.);
#740 = CYLINDRICAL_SURFACE('',#741,96.5);
#741 = AXIS2_PLACEMENT_3D('',#742,#743,#744);
#742 = CARTESIAN_POINT('',(-5.159264810565,96.354539628512,0.));
#743 = DIRECTION('',(0.,0.,1.));
#744 = DIRECTION('',(1.,0.,-0.));
#745 = ADVANCED_FACE('',(#746),#772,.T.);
#746 = FACE_BOUND('',#747,.T.);
#747 = EDGE_LOOP('',(#748,#759,#765,#766));
#748 = ORIENTED_EDGE('',*,*,#749,.F.);
#749 = EDGE_CURVE('',#750,#752,#754,.T.);
#750 = VERTEX_POINT('',#751);
#751 = CARTESIAN_POINT('',(69.592444039166,39.361715307857,6.));
#752 = VERTEX_POINT('',#753);
#753 = CARTESIAN_POINT('',(76.335030874091,49.507130192536,6.));
#754 = CIRCLE('',#755,94.);
#755 = AXIS2_PLACEMENT_3D('',#756,#757,#758);
#756 = CARTESIAN_POINT('',(-5.159264810565,96.354539628512,6.));
#757 = DIRECTION('',(0.,0.,1.));
#758 = DIRECTION('',(1.,0.,-0.));
#759 = ORIENTED_EDGE('',*,*,#760,.T.);
#760 = EDGE_CURVE('',#750,#134,#761,.T.);
#761 = LINE('',#762,#763);
#762 = CARTESIAN_POINT('',(-164.2054538525,217.61586797033,6.));
#763 = VECTOR('',#764,1.);
#764 = DIRECTION('',(0.79523094521,-0.606306641709,0.));
#765 = ORIENTED_EDGE('',*,*,#133,.T.);
#766 = ORIENTED_EDGE('',*,*,#767,.T.);
#767 = EDGE_CURVE('',#126,#752,#768,.T.);
#768 = LINE('',#769,#770);
#769 = CARTESIAN_POINT('',(168.23285366742,-3.320799596966,6.));
#770 = VECTOR('',#771,1.);
#771 = DIRECTION('',(-0.86696059239,0.498376696127,0.));
#772 = PLANE('',#773);
#773 = AXIS2_PLACEMENT_3D('',#774,#775,#776);
#774 = CARTESIAN_POINT('',(-5.159264810565,96.354539628512,6.));
#775 = DIRECTION('',(0.,0.,1.));
#776 = DIRECTION('',(1.,0.,-0.));
#777 = ADVANCED_FACE('',(#778),#837,.F.);
#778 = FACE_BOUND('',#779,.F.);
#779 = EDGE_LOOP('',(#780,#781,#789,#836));
#780 = ORIENTED_EDGE('',*,*,#261,.F.);
#781 = ORIENTED_EDGE('',*,*,#782,.F.);
#782 = EDGE_CURVE('',#783,#262,#785,.T.);
#783 = VERTEX_POINT('',#784);
#784 = CARTESIAN_POINT('',(10.770327268548,3.714115966953,3.));
#785 = LINE('',#786,#787);
#786 = CARTESIAN_POINT('',(10.20065099414,6.693857127918,3.));
#787 = VECTOR('',#788,1.);
#788 = DIRECTION('',(0.187782127999,-0.982210706725,6.162975822039E-33)
  );
#789 = ORIENTED_EDGE('',*,*,#790,.T.);
#790 = EDGE_CURVE('',#783,#783,#791,.T.);
#791 = B_SPLINE_CURVE_WITH_KNOTS('',7,(#792,#793,#794,#795,#796,#797,
    #798,#799,#800,#801,#802,#803,#804,#805,#806,#807,#808,#809,#810,
    #811,#812,#813,#814,#815,#816,#817,#818,#819,#820,#821,#822,#823,
    #824,#825,#826,#827,#828,#829,#830,#831,#832,#833,#834,#835),
  .UNSPECIFIED.,.T.,.F.,(8,6,6,6,6,6,6,8),(0.,0.152892567929,
    0.285680664047,0.421826206096,0.588895791644,0.714586082322,
    0.837773858624,1.),.UNSPECIFIED.);
#792 = CARTESIAN_POINT('',(10.770327268548,3.714115966953,3.));
#793 = CARTESIAN_POINT('',(10.770327268548,3.714115966953,2.790990056682
    ));
#794 = CARTESIAN_POINT('',(10.799033128722,3.719051990868,2.582093563604
    ));
#795 = CARTESIAN_POINT('',(10.856398171298,3.728915802624,2.375795192892
    ));
#796 = CARTESIAN_POINT('',(10.943285345508,3.743914205176,2.174935984713
    ));
#797 = CARTESIAN_POINT('',(11.06110495468,3.764402924054,1.983281616641)
  );
#798 = CARTESIAN_POINT('',(11.211465884044,3.790863828695,1.806140418798
    ));
#799 = CARTESIAN_POINT('',(11.555080838632,3.85233978728,1.517384145983)
  );
#800 = CARTESIAN_POINT('',(11.745779817391,3.886789771323,1.395438529973
    ));
#801 = CARTESIAN_POINT('',(11.96361472447,3.926657510335,1.299781501941)
  );
#802 = CARTESIAN_POINT('',(12.200659969553,3.970782567124,1.240091410556
    ));
#803 = CARTESIAN_POINT('',(12.446303193348,4.017397080436,1.22158758477)
  );
#804 = CARTESIAN_POINT('',(12.68928143415,4.064321033589,1.244737307897)
  );
#805 = CARTESIAN_POINT('',(13.155602871792,4.155713756471,1.366744805315
    ));
#806 = CARTESIAN_POINT('',(13.369971567676,4.198459071415,1.465322639704
    ));
#807 = CARTESIAN_POINT('',(13.55892930757,4.236715258621,1.592273717629)
  );
#808 = CARTESIAN_POINT('',(13.720898178137,4.269896148331,1.74054609087)
  );
#809 = CARTESIAN_POINT('',(13.855455012967,4.297700836542,1.903948989335
    ));
#810 = CARTESIAN_POINT('',(13.963076795256,4.320072930931,2.077000480121
    ));
#811 = CARTESIAN_POINT('',(14.145597079411,4.358165451273,2.473176899085
    ));
#812 = CARTESIAN_POINT('',(14.208851942683,4.371500736339,2.701660444801
    ));
#813 = CARTESIAN_POINT('',(14.236837653303,4.377430505924,2.935196636937
    ));
#814 = CARTESIAN_POINT('',(14.230232219849,4.376032767474,3.170272276325
    ));
#815 = CARTESIAN_POINT('',(14.188683071687,4.367239291086,3.403161374837
    ));
#816 = CARTESIAN_POINT('',(14.11112431345,4.350920721961,3.629500044055)
  );
#817 = CARTESIAN_POINT('',(13.909673579312,4.308988986143,4.003741712971
    ));
#818 = CARTESIAN_POINT('',(13.800911801042,4.286449298434,4.159237047965
    ));
#819 = CARTESIAN_POINT('',(13.668986481337,4.259278659216,4.305316650365
    ));
#820 = CARTESIAN_POINT('',(13.51373965896,4.227577492843,4.437320349488)
  );
#821 = CARTESIAN_POINT('',(13.335790548587,4.191647483196,4.550154398224
    ));
#822 = CARTESIAN_POINT('',(13.136693757874,4.152007824749,4.638202541046
    ));
#823 = CARTESIAN_POINT('',(12.70669259546,4.067733386769,4.750707267353)
  );
#824 = CARTESIAN_POINT('',(12.482115650737,4.024314442121,4.774924988139
    ));
#825 = CARTESIAN_POINT('',(12.254109117616,3.980934150364,4.763471610336
    ));
#826 = CARTESIAN_POINT('',(12.032038301148,3.939419786879,4.716222818159
    ));
#827 = CARTESIAN_POINT('',(11.824909751154,3.901312733955,4.636946243671
    ));
#828 = CARTESIAN_POINT('',(11.639817635568,3.8676924027,4.533106077349)
  );
#829 = CARTESIAN_POINT('',(11.271557802985,3.801455950407,4.261272535498
    ));
#830 = CARTESIAN_POINT('',(11.100303758909,3.771224084223,4.077999378255
    ));
#831 = CARTESIAN_POINT('',(10.966373344666,3.747900805668,3.876636870318
    ));
#832 = CARTESIAN_POINT('',(10.867791932979,3.730874812502,3.663928689418
    ));
#833 = CARTESIAN_POINT('',(10.802835158355,3.719705792459,3.444724066144
    ));
#834 = CARTESIAN_POINT('',(10.770327268548,3.714115966953,3.222414315166
    ));
#835 = CARTESIAN_POINT('',(10.770327268548,3.714115966953,3.));
#836 = ORIENTED_EDGE('',*,*,#782,.T.);
#837 = CYLINDRICAL_SURFACE('',#838,1.75);
#838 = AXIS2_PLACEMENT_3D('',#839,#840,#841);
#839 = CARTESIAN_POINT('',(11.919519730908,7.022475851915,3.));
#840 = DIRECTION('',(0.187782127999,-0.982210706725,0.));
#841 = DIRECTION('',(-0.982210706725,-0.187782127999,0.));
#842 = ADVANCED_FACE('',(#843),#902,.F.);
#843 = FACE_BOUND('',#844,.F.);
#844 = EDGE_LOOP('',(#845,#846,#854,#901));
#845 = ORIENTED_EDGE('',*,*,#312,.F.);
#846 = ORIENTED_EDGE('',*,*,#847,.F.);
#847 = EDGE_CURVE('',#848,#313,#850,.T.);
#848 = VERTEX_POINT('',#849);
#849 = CARTESIAN_POINT('',(87.481158850993,80.424947549398,3.));
#850 = LINE('',#851,#852);
#851 = CARTESIAN_POINT('',(84.501417690029,80.994623823807,3.));
#852 = VECTOR('',#853,1.);
#853 = DIRECTION('',(0.982210706725,-0.187782127999,6.162975822039E-33)
  );
#854 = ORIENTED_EDGE('',*,*,#855,.T.);
#855 = EDGE_CURVE('',#848,#848,#856,.T.);
#856 = B_SPLINE_CURVE_WITH_KNOTS('',7,(#857,#858,#859,#860,#861,#862,
    #863,#864,#865,#866,#867,#868,#869,#870,#871,#872,#873,#874,#875,
    #876,#877,#878,#879,#880,#881,#882,#883,#884,#885,#886,#887,#888,
    #889,#890,#891,#892,#893,#894,#895,#896,#897,#898,#899,#900),
  .UNSPECIFIED.,.T.,.F.,(8,6,6,6,6,6,6,8),(0.,0.15289256845,
    0.285680665021,0.421826207534,0.588895790572,0.714586081605,
    0.837773858215,1.),.UNSPECIFIED.);
#857 = CARTESIAN_POINT('',(87.481158850993,80.424947549398,3.));
#858 = CARTESIAN_POINT('',(87.481158850993,80.424947549398,
    3.209009943318));
#859 = CARTESIAN_POINT('',(87.476222827079,80.396241689225,
    3.417906436395));
#860 = CARTESIAN_POINT('',(87.466359015323,80.338876646648,
    3.624204807109));
#861 = CARTESIAN_POINT('',(87.451360612771,80.25198947244,3.825064015286
    ));
#862 = CARTESIAN_POINT('',(87.430871893893,80.134169863267,4.01671838336
    ));
#863 = CARTESIAN_POINT('',(87.404410989252,79.983808933903,
    4.193859581202));
#864 = CARTESIAN_POINT('',(87.342935030667,79.640193979315,
    4.482615854017));
#865 = CARTESIAN_POINT('',(87.308485046624,79.449495000555,
    4.604561470027));
#866 = CARTESIAN_POINT('',(87.268617307612,79.231660093479,
    4.700218498059));
#867 = CARTESIAN_POINT('',(87.224492250822,78.994614848392,
    4.759908589444));
#868 = CARTESIAN_POINT('',(87.177877737511,78.7489716246,4.77841241523)
  );
#869 = CARTESIAN_POINT('',(87.130953784358,78.505993383797,
    4.755262692103));
#870 = CARTESIAN_POINT('',(87.039561061476,78.039671946154,
    4.633255194685));
#871 = CARTESIAN_POINT('',(86.996815746531,77.82530325027,4.534677360296
    ));
#872 = CARTESIAN_POINT('',(86.958559559326,77.636345510378,
    4.407726282372));
#873 = CARTESIAN_POINT('',(86.925378669615,77.474376639809,4.25945390913
    ));
#874 = CARTESIAN_POINT('',(86.897573981405,77.339819804979,
    4.096051010665));
#875 = CARTESIAN_POINT('',(86.875201887016,77.232198022691,
    3.922999519879));
#876 = CARTESIAN_POINT('',(86.837109367061,77.049677740389,
    3.526823104938));
#877 = CARTESIAN_POINT('',(86.823774080835,76.986422871563,
    3.298339539386));
#878 = CARTESIAN_POINT('',(86.817844312342,76.95843716616,3.064803391545
    ));
#879 = CARTESIAN_POINT('',(86.819242051161,76.965042601411,
    2.829727695347));
#880 = CARTESIAN_POINT('',(86.828035525886,77.006591741574,
    2.596838640708));
#881 = CARTESIAN_POINT('',(86.844354096422,77.084150506594,
    2.370499952048));
#882 = CARTESIAN_POINT('',(86.886285831797,77.2856012386,1.996258287093)
  );
#883 = CARTESIAN_POINT('',(86.90882551951,77.39436301689,1.840762952025)
  );
#884 = CARTESIAN_POINT('',(86.935996158739,77.526288336649,
    1.694683349584));
#885 = CARTESIAN_POINT('',(86.967697325115,77.681535159037,
    1.562679650491));
#886 = CARTESIAN_POINT('',(87.003627334749,77.859484269354,
    1.449845601799));
#887 = CARTESIAN_POINT('',(87.043266993184,78.058581060006,
    1.361797458971));
#888 = CARTESIAN_POINT('',(87.127541431177,78.488582222484,
    1.249292732648));
#889 = CARTESIAN_POINT('',(87.170960375826,78.713159167213,
    1.225075011859));
#890 = CARTESIAN_POINT('',(87.214340667583,78.941165700335,
    1.236528389665));
#891 = CARTESIAN_POINT('',(87.255855031067,79.163236516794,
    1.283777181842));
#892 = CARTESIAN_POINT('',(87.293962083991,79.370365066791,
    1.363053756325));
#893 = CARTESIAN_POINT('',(87.327582415247,79.555457182381,
    1.466893922653));
#894 = CARTESIAN_POINT('',(87.39381886754,79.923717014962,1.738727464503
    ));
#895 = CARTESIAN_POINT('',(87.424050733724,80.094971059037,
    1.922000621744));
#896 = CARTESIAN_POINT('',(87.447374012278,80.228901473281,
    2.123363129683));
#897 = CARTESIAN_POINT('',(87.464400005445,80.327482884968,
    2.336071310583));
#898 = CARTESIAN_POINT('',(87.475569025488,80.392439659592,
    2.555275933855));
#899 = CARTESIAN_POINT('',(87.481158850993,80.424947549398,
    2.777585684835));
#900 = CARTESIAN_POINT('',(87.481158850993,80.424947549398,3.));
#901 = ORIENTED_EDGE('',*,*,#847,.T.);
#902 = CYLINDRICAL_SURFACE('',#903,1.75);
#903 = AXIS2_PLACEMENT_3D('',#904,#905,#906);
#904 = CARTESIAN_POINT('',(84.172798966032,79.275755087039,3.));
#905 = DIRECTION('',(0.982210706725,-0.187782127999,0.));
#906 = DIRECTION('',(0.187782127999,0.982210706725,0.));
#907 = ADVANCED_FACE('',(#908),#926,.F.);
#908 = FACE_BOUND('',#909,.F.);
#909 = EDGE_LOOP('',(#910,#911,#912,#920));
#910 = ORIENTED_EDGE('',*,*,#435,.F.);
#911 = ORIENTED_EDGE('',*,*,#386,.T.);
#912 = ORIENTED_EDGE('',*,*,#913,.T.);
#913 = EDGE_CURVE('',#379,#914,#916,.T.);
#914 = VERTEX_POINT('',#915);
#915 = CARTESIAN_POINT('',(0.,2.496231596594,6.));
#916 = LINE('',#917,#918);
#917 = CARTESIAN_POINT('',(4.263256414561E-14,2.496231596594,0.));
#918 = VECTOR('',#919,1.);
#919 = DIRECTION('',(0.,0.,1.));
#920 = ORIENTED_EDGE('',*,*,#921,.F.);
#921 = EDGE_CURVE('',#427,#914,#922,.T.);
#922 = LINE('',#923,#924);
#923 = CARTESIAN_POINT('',(5.81789436085,-103.3439880989,6.));
#924 = VECTOR('',#925,1.);
#925 = DIRECTION('',(-5.488579585707E-02,0.998492638637,0.));
#926 = PLANE('',#927);
#927 = AXIS2_PLACEMENT_3D('',#928,#929,#930);
#928 = CARTESIAN_POINT('',(16.795053532265,-303.0425158264,-404.));
#929 = DIRECTION('',(0.998492638637,5.488579585707E-02,0.));
#930 = DIRECTION('',(-5.488579585707E-02,0.998492638637,0.));
#931 = ADVANCED_FACE('',(#932,#1088,#1091),#1094,.F.);
#932 = FACE_BOUND('',#933,.F.);
#933 = EDGE_LOOP('',(#934,#935,#936,#937,#946,#952,#953,#961,#970,#976,
    #977,#985,#994,#1000,#1001,#1009,#1018,#1024,#1025,#1033,#1042,#1048
    ,#1049,#1057,#1066,#1072,#1073,#1081));
#934 = ORIENTED_EDGE('',*,*,#378,.F.);
#935 = ORIENTED_EDGE('',*,*,#410,.T.);
#936 = ORIENTED_EDGE('',*,*,#450,.T.);
#937 = ORIENTED_EDGE('',*,*,#938,.F.);
#938 = EDGE_CURVE('',#939,#451,#941,.T.);
#939 = VERTEX_POINT('',#940);
#940 = CARTESIAN_POINT('',(88.118263903126,84.72257345479,5.7));
#941 = CIRCLE('',#942,94.);
#942 = AXIS2_PLACEMENT_3D('',#943,#944,#945);
#943 = CARTESIAN_POINT('',(-5.159264810565,96.354539628512,5.7));
#944 = DIRECTION('',(0.,0.,1.));
#945 = DIRECTION('',(1.,0.,-0.));
#946 = ORIENTED_EDGE('',*,*,#947,.T.);
#947 = EDGE_CURVE('',#939,#552,#948,.T.);
#948 = LINE('',#949,#950);
#949 = CARTESIAN_POINT('',(88.118263903126,84.72257345479,5.7));
#950 = VECTOR('',#951,1.);
#951 = DIRECTION('',(0.,0.,1.));
#952 = ORIENTED_EDGE('',*,*,#549,.F.);
#953 = ORIENTED_EDGE('',*,*,#954,.F.);
#954 = EDGE_CURVE('',#955,#550,#957,.T.);
#955 = VERTEX_POINT('',#956);
#956 = CARTESIAN_POINT('',(85.830772956341,72.757653664955,5.7));
#957 = LINE('',#958,#959);
#958 = CARTESIAN_POINT('',(85.830772956341,72.757653664955,5.7));
#959 = VECTOR('',#960,1.);
#960 = DIRECTION('',(0.,0.,1.));
#961 = ORIENTED_EDGE('',*,*,#962,.F.);
#962 = EDGE_CURVE('',#963,#955,#965,.T.);
#963 = VERTEX_POINT('',#964);
#964 = CARTESIAN_POINT('',(83.98292223867,66.527194991767,5.7));
#965 = CIRCLE('',#966,94.);
#966 = AXIS2_PLACEMENT_3D('',#967,#968,#969);
#967 = CARTESIAN_POINT('',(-5.159264810565,96.354539628512,5.7));
#968 = DIRECTION('',(0.,0.,1.));
#969 = DIRECTION('',(1.,0.,-0.));
#970 = ORIENTED_EDGE('',*,*,#971,.T.);
#971 = EDGE_CURVE('',#963,#652,#972,.T.);
#972 = LINE('',#973,#974);
#973 = CARTESIAN_POINT('',(83.98292223867,66.527194991768,5.7));
#974 = VECTOR('',#975,1.);
#975 = DIRECTION('',(0.,0.,1.));
#976 = ORIENTED_EDGE('',*,*,#649,.F.);
#977 = ORIENTED_EDGE('',*,*,#978,.F.);
#978 = EDGE_CURVE('',#979,#650,#981,.T.);
#979 = VERTEX_POINT('',#980);
#980 = CARTESIAN_POINT('',(79.377140468883,55.24984181392,5.7));
#981 = LINE('',#982,#983);
#982 = CARTESIAN_POINT('',(79.377140468883,55.24984181392,5.7));
#983 = VECTOR('',#984,1.);
#984 = DIRECTION('',(0.,0.,1.));
#985 = ORIENTED_EDGE('',*,*,#986,.F.);
#986 = EDGE_CURVE('',#987,#979,#989,.T.);
#987 = VERTEX_POINT('',#988);
#988 = CARTESIAN_POINT('',(76.335030874091,49.507130192537,5.7));
#989 = CIRCLE('',#990,94.);
#990 = AXIS2_PLACEMENT_3D('',#991,#992,#993);
#991 = CARTESIAN_POINT('',(-5.159264810565,96.354539628512,5.7));
#992 = DIRECTION('',(0.,0.,1.));
#993 = DIRECTION('',(1.,0.,-0.));
#994 = ORIENTED_EDGE('',*,*,#995,.T.);
#995 = EDGE_CURVE('',#987,#752,#996,.T.);
#996 = LINE('',#997,#998);
#997 = CARTESIAN_POINT('',(76.335030874091,49.507130192537,5.7));
#998 = VECTOR('',#999,1.);
#999 = DIRECTION('',(0.,0.,1.));
#1000 = ORIENTED_EDGE('',*,*,#749,.F.);
#1001 = ORIENTED_EDGE('',*,*,#1002,.F.);
#1002 = EDGE_CURVE('',#1003,#750,#1005,.T.);
#1003 = VERTEX_POINT('',#1004);
#1004 = CARTESIAN_POINT('',(69.592444039166,39.361715307856,5.7));
#1005 = LINE('',#1006,#1007);
#1006 = CARTESIAN_POINT('',(69.592444039166,39.361715307856,5.7));
#1007 = VECTOR('',#1008,1.);
#1008 = DIRECTION('',(0.,0.,1.));
#1009 = ORIENTED_EDGE('',*,*,#1010,.F.);
#1010 = EDGE_CURVE('',#1011,#1003,#1013,.T.);
#1011 = VERTEX_POINT('',#1012);
#1012 = CARTESIAN_POINT('',(65.475946545277,34.333035964738,5.7));
#1013 = CIRCLE('',#1014,94.);
#1014 = AXIS2_PLACEMENT_3D('',#1015,#1016,#1017);
#1015 = CARTESIAN_POINT('',(-5.159264810565,96.354539628512,5.7));
#1016 = DIRECTION('',(0.,0.,1.));
#1017 = DIRECTION('',(1.,0.,-0.));
#1018 = ORIENTED_EDGE('',*,*,#1019,.T.);
#1019 = EDGE_CURVE('',#1011,#702,#1020,.T.);
#1020 = LINE('',#1021,#1022);
#1021 = CARTESIAN_POINT('',(65.475946545277,34.333035964738,5.7));
#1022 = VECTOR('',#1023,1.);
#1023 = DIRECTION('',(0.,0.,1.));
#1024 = ORIENTED_EDGE('',*,*,#699,.F.);
#1025 = ORIENTED_EDGE('',*,*,#1026,.F.);
#1026 = EDGE_CURVE('',#1027,#700,#1029,.T.);
#1027 = VERTEX_POINT('',#1028);
#1028 = CARTESIAN_POINT('',(41.68814462541,14.860243943856,5.7));
#1029 = LINE('',#1030,#1031);
#1030 = CARTESIAN_POINT('',(41.68814462541,14.860243943856,5.7));
#1031 = VECTOR('',#1032,1.);
#1032 = DIRECTION('',(0.,0.,1.));
#1033 = ORIENTED_EDGE('',*,*,#1034,.F.);
#1034 = EDGE_CURVE('',#1035,#1027,#1037,.T.);
#1035 = VERTEX_POINT('',#1036);
#1036 = CARTESIAN_POINT('',(35.945433004027,11.818134349064,5.7));
#1037 = CIRCLE('',#1038,94.);
#1038 = AXIS2_PLACEMENT_3D('',#1039,#1040,#1041);
#1039 = CARTESIAN_POINT('',(-5.159264810565,96.354539628512,5.7));
#1040 = DIRECTION('',(0.,0.,1.));
#1041 = DIRECTION('',(1.,0.,-0.));
#1042 = ORIENTED_EDGE('',*,*,#1043,.T.);
#1043 = EDGE_CURVE('',#1035,#602,#1044,.T.);
#1044 = LINE('',#1045,#1046);
#1045 = CARTESIAN_POINT('',(35.945433004027,11.818134349064,5.7));
#1046 = VECTOR('',#1047,1.);
#1047 = DIRECTION('',(0.,0.,1.));
#1048 = ORIENTED_EDGE('',*,*,#599,.F.);
#1049 = ORIENTED_EDGE('',*,*,#1050,.F.);
#1050 = EDGE_CURVE('',#1051,#600,#1053,.T.);
#1051 = VERTEX_POINT('',#1052);
#1052 = CARTESIAN_POINT('',(24.668079826179,7.212352579276,5.7));
#1053 = LINE('',#1054,#1055);
#1054 = CARTESIAN_POINT('',(24.668079826179,7.212352579276,5.7));
#1055 = VECTOR('',#1056,1.);
#1056 = DIRECTION('',(0.,0.,1.));
#1057 = ORIENTED_EDGE('',*,*,#1058,.F.);
#1058 = EDGE_CURVE('',#1059,#1051,#1061,.T.);
#1059 = VERTEX_POINT('',#1060);
#1060 = CARTESIAN_POINT('',(18.437621152992,5.364501861606,5.7));
#1061 = CIRCLE('',#1062,94.);
#1062 = AXIS2_PLACEMENT_3D('',#1063,#1064,#1065);
#1063 = CARTESIAN_POINT('',(-5.159264810565,96.354539628512,5.7));
#1064 = DIRECTION('',(0.,0.,1.));
#1065 = DIRECTION('',(1.,0.,-0.));
#1066 = ORIENTED_EDGE('',*,*,#1067,.T.);
#1067 = EDGE_CURVE('',#1059,#502,#1068,.T.);
#1068 = LINE('',#1069,#1070);
#1069 = CARTESIAN_POINT('',(18.437621152992,5.364501861606,5.7));
#1070 = VECTOR('',#1071,1.);
#1071 = DIRECTION('',(0.,0.,1.));
#1072 = ORIENTED_EDGE('',*,*,#499,.F.);
#1073 = ORIENTED_EDGE('',*,*,#1074,.F.);
#1074 = EDGE_CURVE('',#1075,#500,#1077,.T.);
#1075 = VERTEX_POINT('',#1076);
#1076 = CARTESIAN_POINT('',(6.472701363157,3.077010914821,5.7));
#1077 = LINE('',#1078,#1079);
#1078 = CARTESIAN_POINT('',(6.472701363157,3.077010914821,5.7));
#1079 = VECTOR('',#1080,1.);
#1080 = DIRECTION('',(0.,0.,1.));
#1081 = ORIENTED_EDGE('',*,*,#1082,.F.);
#1082 = EDGE_CURVE('',#379,#1075,#1083,.T.);
#1083 = CIRCLE('',#1084,94.);
#1084 = AXIS2_PLACEMENT_3D('',#1085,#1086,#1087);
#1085 = CARTESIAN_POINT('',(-5.159264810565,96.354539628512,5.7));
#1086 = DIRECTION('',(0.,0.,1.));
#1087 = DIRECTION('',(1.,0.,-0.));
#1088 = FACE_BOUND('',#1089,.F.);
#1089 = EDGE_LOOP('',(#1090));
#1090 = ORIENTED_EDGE('',*,*,#790,.F.);
#1091 = FACE_BOUND('',#1092,.F.);
#1092 = EDGE_LOOP('',(#1093));
#1093 = ORIENTED_EDGE('',*,*,#855,.F.);
#1094 = CYLINDRICAL_SURFACE('',#1095,94.);
#1095 = AXIS2_PLACEMENT_3D('',#1096,#1097,#1098);
#1096 = CARTESIAN_POINT('',(-5.159264810565,96.354539628512,0.));
#1097 = DIRECTION('',(0.,0.,1.));
#1098 = DIRECTION('',(1.,0.,-0.));
#1099 = ADVANCED_FACE('',(#1100),#1126,.T.);
#1100 = FACE_BOUND('',#1101,.T.);
#1101 = EDGE_LOOP('',(#1102,#1103,#1111,#1120));
#1102 = ORIENTED_EDGE('',*,*,#426,.T.);
#1103 = ORIENTED_EDGE('',*,*,#1104,.T.);
#1104 = EDGE_CURVE('',#236,#1105,#1107,.T.);
#1105 = VERTEX_POINT('',#1106);
#1106 = CARTESIAN_POINT('',(6.782062165649,0.596225576691,
    21.815614903208));
#1107 = LINE('',#1108,#1109);
#1108 = CARTESIAN_POINT('',(6.782062165649,0.596225576691,5.7));
#1109 = VECTOR('',#1110,1.);
#1110 = DIRECTION('',(0.,0.,1.));
#1111 = ORIENTED_EDGE('',*,*,#1112,.F.);
#1112 = EDGE_CURVE('',#1113,#1105,#1115,.T.);
#1113 = VERTEX_POINT('',#1114);
#1114 = CARTESIAN_POINT('',(0.137214489643,0.,21.815614903208));
#1115 = CIRCLE('',#1116,96.5);
#1116 = AXIS2_PLACEMENT_3D('',#1117,#1118,#1119);
#1117 = CARTESIAN_POINT('',(-5.159264810565,96.354539628512,
    21.815614903208));
#1118 = DIRECTION('',(0.,0.,1.));
#1119 = DIRECTION('',(1.,0.,-0.));
#1120 = ORIENTED_EDGE('',*,*,#1121,.F.);
#1121 = EDGE_CURVE('',#427,#1113,#1122,.T.);
#1122 = LINE('',#1123,#1124);
#1123 = CARTESIAN_POINT('',(0.137214489643,0.,5.7));
#1124 = VECTOR('',#1125,1.);
#1125 = DIRECTION('',(0.,0.,1.));
#1126 = CYLINDRICAL_SURFACE('',#1127,96.5);
#1127 = AXIS2_PLACEMENT_3D('',#1128,#1129,#1130);
#1128 = CARTESIAN_POINT('',(-5.159264810565,96.354539628512,5.7));
#1129 = DIRECTION('',(0.,0.,1.));
#1130 = DIRECTION('',(1.,0.,-0.));
#1131 = ADVANCED_FACE('',(#1132),#1150,.F.);
#1132 = FACE_BOUND('',#1133,.F.);
#1133 = EDGE_LOOP('',(#1134,#1142,#1143,#1144));
#1134 = ORIENTED_EDGE('',*,*,#1135,.F.);
#1135 = EDGE_CURVE('',#451,#1136,#1138,.T.);
#1136 = VERTEX_POINT('',#1137);
#1137 = CARTESIAN_POINT('',(88.699043221353,91.195274817947,6.));
#1138 = LINE('',#1139,#1140);
#1139 = CARTESIAN_POINT('',(88.699043221353,91.195274817947,0.));
#1140 = VECTOR('',#1141,1.);
#1141 = DIRECTION('',(0.,0.,1.));
#1142 = ORIENTED_EDGE('',*,*,#460,.T.);
#1143 = ORIENTED_EDGE('',*,*,#475,.T.);
#1144 = ORIENTED_EDGE('',*,*,#1145,.F.);
#1145 = EDGE_CURVE('',#1136,#476,#1146,.T.);
#1146 = LINE('',#1147,#1148);
#1147 = CARTESIAN_POINT('',(-204.857792538,107.33169879992,6.));
#1148 = VECTOR('',#1149,1.);
#1149 = DIRECTION('',(0.998492638637,-5.488579585707E-02,0.));
#1150 = PLANE('',#1151);
#1151 = AXIS2_PLACEMENT_3D('',#1152,#1153,#1154);
#1152 = CARTESIAN_POINT('',(-404.5563202655,118.30885797134,-404.));
#1153 = DIRECTION('',(-5.488579585707E-02,-0.998492638637,0.));
#1154 = DIRECTION('',(0.998492638637,-5.488579585707E-02,0.));
#1155 = ADVANCED_FACE('',(#1156),#1182,.T.);
#1156 = FACE_BOUND('',#1157,.T.);
#1157 = EDGE_LOOP('',(#1158,#1159,#1167,#1176));
#1158 = ORIENTED_EDGE('',*,*,#483,.T.);
#1159 = ORIENTED_EDGE('',*,*,#1160,.T.);
#1160 = EDGE_CURVE('',#476,#1161,#1163,.T.);
#1161 = VERTEX_POINT('',#1162);
#1162 = CARTESIAN_POINT('',(91.195274817947,91.058060328304,
    21.815614903208));
#1163 = LINE('',#1164,#1165);
#1164 = CARTESIAN_POINT('',(91.195274817947,91.058060328304,5.7));
#1165 = VECTOR('',#1166,1.);
#1166 = DIRECTION('',(0.,0.,1.));
#1167 = ORIENTED_EDGE('',*,*,#1168,.F.);
#1168 = EDGE_CURVE('',#1169,#1161,#1171,.T.);
#1169 = VERTEX_POINT('',#1170);
#1170 = CARTESIAN_POINT('',(90.599049241256,84.413212652298,
    21.815614903208));
#1171 = CIRCLE('',#1172,96.5);
#1172 = AXIS2_PLACEMENT_3D('',#1173,#1174,#1175);
#1173 = CARTESIAN_POINT('',(-5.159264810565,96.354539628512,
    21.815614903208));
#1174 = DIRECTION('',(0.,0.,1.));
#1175 = DIRECTION('',(1.,0.,-0.));
#1176 = ORIENTED_EDGE('',*,*,#1177,.F.);
#1177 = EDGE_CURVE('',#58,#1169,#1178,.T.);
#1178 = LINE('',#1179,#1180);
#1179 = CARTESIAN_POINT('',(90.599049241256,84.413212652298,5.7));
#1180 = VECTOR('',#1181,1.);
#1181 = DIRECTION('',(0.,0.,1.));
#1182 = CYLINDRICAL_SURFACE('',#1183,96.5);
#1183 = AXIS2_PLACEMENT_3D('',#1184,#1185,#1186);
#1184 = CARTESIAN_POINT('',(-5.159264810565,96.354539628512,5.7));
#1185 = DIRECTION('',(0.,0.,1.));
#1186 = DIRECTION('',(1.,0.,-0.));
#1187 = ADVANCED_FACE('',(#1188),#1213,.F.);
#1188 = FACE_BOUND('',#1189,.F.);
#1189 = EDGE_LOOP('',(#1190,#1198,#1199,#1207));
#1190 = ORIENTED_EDGE('',*,*,#1191,.F.);
#1191 = EDGE_CURVE('',#228,#1192,#1194,.T.);
#1192 = VERTEX_POINT('',#1193);
#1193 = CARTESIAN_POINT('',(19.065197907342,2.944554048657,
    21.815614903208));
#1194 = LINE('',#1195,#1196);
#1195 = CARTESIAN_POINT('',(19.065197907342,2.944554048657,5.7));
#1196 = VECTOR('',#1197,1.);
#1197 = DIRECTION('',(0.,0.,1.));
#1198 = ORIENTED_EDGE('',*,*,#517,.T.);
#1199 = ORIENTED_EDGE('',*,*,#1200,.T.);
#1200 = EDGE_CURVE('',#502,#1201,#1203,.T.);
#1201 = VERTEX_POINT('',#1202);
#1202 = CARTESIAN_POINT('',(18.437621152992,5.364501861606,
    21.815614903208));
#1203 = LINE('',#1204,#1205);
#1204 = CARTESIAN_POINT('',(18.437621152992,5.364501861606,5.7));
#1205 = VECTOR('',#1206,1.);
#1206 = DIRECTION('',(0.,0.,1.));
#1207 = ORIENTED_EDGE('',*,*,#1208,.F.);
#1208 = EDGE_CURVE('',#1192,#1201,#1209,.T.);
#1209 = LINE('',#1210,#1211);
#1210 = CARTESIAN_POINT('',(45.046875537428,-97.24128540745,
    21.815614903208));
#1211 = VECTOR('',#1212,1.);
#1212 = DIRECTION('',(-0.25103070174,0.96797912518,0.));
#1213 = PLANE('',#1214);
#1214 = AXIS2_PLACEMENT_3D('',#1215,#1216,#1217);
#1215 = CARTESIAN_POINT('',(95.253015885421,-290.8371104434,-404.));
#1216 = DIRECTION('',(0.96797912518,0.25103070174,0.));
#1217 = DIRECTION('',(-0.25103070174,0.96797912518,0.));
#1218 = ADVANCED_FACE('',(#1219),#1237,.F.);
#1219 = FACE_BOUND('',#1220,.F.);
#1220 = EDGE_LOOP('',(#1221,#1229,#1230,#1231));
#1221 = ORIENTED_EDGE('',*,*,#1222,.F.);
#1222 = EDGE_CURVE('',#500,#1223,#1225,.T.);
#1223 = VERTEX_POINT('',#1224);
#1224 = CARTESIAN_POINT('',(6.472701363157,3.077010914821,
    21.815614903208));
#1225 = LINE('',#1226,#1227);
#1226 = CARTESIAN_POINT('',(6.472701363157,3.077010914821,5.7));
#1227 = VECTOR('',#1228,1.);
#1228 = DIRECTION('',(0.,0.,1.));
#1229 = ORIENTED_EDGE('',*,*,#510,.T.);
#1230 = ORIENTED_EDGE('',*,*,#1104,.T.);
#1231 = ORIENTED_EDGE('',*,*,#1232,.F.);
#1232 = EDGE_CURVE('',#1223,#1105,#1233,.T.);
#1233 = LINE('',#1234,#1235);
#1234 = CARTESIAN_POINT('',(-29.90812900997,294.81736667891,
    21.815614903208));
#1235 = VECTOR('',#1236,1.);
#1236 = DIRECTION('',(0.123744320997,-0.992314135252,0.));
#1237 = PLANE('',#1238);
#1238 = AXIS2_PLACEMENT_3D('',#1239,#1240,#1241);
#1239 = CARTESIAN_POINT('',(-54.65699320938,493.28019372932,-404.));
#1240 = DIRECTION('',(-0.992314135252,-0.123744320997,0.));
#1241 = DIRECTION('',(0.123744320997,-0.992314135252,0.));
#1242 = ADVANCED_FACE('',(#1243),#1262,.T.);
#1243 = FACE_BOUND('',#1244,.T.);
#1244 = EDGE_LOOP('',(#1245,#1246,#1254,#1261));
#1245 = ORIENTED_EDGE('',*,*,#532,.T.);
#1246 = ORIENTED_EDGE('',*,*,#1247,.T.);
#1247 = EDGE_CURVE('',#202,#1248,#1250,.T.);
#1248 = VERTEX_POINT('',#1249);
#1249 = CARTESIAN_POINT('',(25.461360268646,4.841549732222,
    21.815614903208));
#1250 = LINE('',#1251,#1252);
#1251 = CARTESIAN_POINT('',(25.461360268646,4.841549732222,5.7));
#1252 = VECTOR('',#1253,1.);
#1253 = DIRECTION('',(0.,0.,1.));
#1254 = ORIENTED_EDGE('',*,*,#1255,.F.);
#1255 = EDGE_CURVE('',#1192,#1248,#1256,.T.);
#1256 = CIRCLE('',#1257,96.5);
#1257 = AXIS2_PLACEMENT_3D('',#1258,#1259,#1260);
#1258 = CARTESIAN_POINT('',(-5.159264810565,96.354539628512,
    21.815614903208));
#1259 = DIRECTION('',(0.,0.,1.));
#1260 = DIRECTION('',(1.,0.,-0.));
#1261 = ORIENTED_EDGE('',*,*,#1191,.F.);
#1262 = CYLINDRICAL_SURFACE('',#1263,96.5);
#1263 = AXIS2_PLACEMENT_3D('',#1264,#1265,#1266);
#1264 = CARTESIAN_POINT('',(-5.159264810565,96.354539628512,5.7));
#1265 = DIRECTION('',(0.,0.,1.));
#1266 = DIRECTION('',(1.,0.,-0.));
#1267 = ADVANCED_FACE('',(#1268),#1286,.F.);
#1268 = FACE_BOUND('',#1269,.F.);
#1269 = EDGE_LOOP('',(#1270,#1271,#1272,#1280));
#1270 = ORIENTED_EDGE('',*,*,#1177,.F.);
#1271 = ORIENTED_EDGE('',*,*,#567,.T.);
#1272 = ORIENTED_EDGE('',*,*,#1273,.T.);
#1273 = EDGE_CURVE('',#552,#1274,#1276,.T.);
#1274 = VERTEX_POINT('',#1275);
#1275 = CARTESIAN_POINT('',(88.118263903126,84.72257345479,
    21.815614903208));
#1276 = LINE('',#1277,#1278);
#1277 = CARTESIAN_POINT('',(88.118263903126,84.72257345479,5.7));
#1278 = VECTOR('',#1279,1.);
#1279 = DIRECTION('',(0.,0.,1.));
#1280 = ORIENTED_EDGE('',*,*,#1281,.F.);
#1281 = EDGE_CURVE('',#1169,#1274,#1282,.T.);
#1282 = LINE('',#1283,#1284);
#1283 = CARTESIAN_POINT('',(193.30356223984,71.605675429104,
    21.815614903208));
#1284 = VECTOR('',#1285,1.);
#1285 = DIRECTION('',(-0.992314135252,0.123744320997,0.));
#1286 = PLANE('',#1287);
#1287 = AXIS2_PLACEMENT_3D('',#1288,#1289,#1290);
#1288 = CARTESIAN_POINT('',(391.76638929024,46.856811229696,-404.));
#1289 = DIRECTION('',(0.123744320997,0.992314135252,0.));
#1290 = DIRECTION('',(-0.992314135252,0.123744320997,0.));
#1291 = ADVANCED_FACE('',(#1292),#1317,.F.);
#1292 = FACE_BOUND('',#1293,.F.);
#1293 = EDGE_LOOP('',(#1294,#1302,#1303,#1311));
#1294 = ORIENTED_EDGE('',*,*,#1295,.F.);
#1295 = EDGE_CURVE('',#550,#1296,#1298,.T.);
#1296 = VERTEX_POINT('',#1297);
#1297 = CARTESIAN_POINT('',(85.830772956341,72.757653664955,
    21.815614903208));
#1298 = LINE('',#1299,#1300);
#1299 = CARTESIAN_POINT('',(85.830772956341,72.757653664955,5.7));
#1300 = VECTOR('',#1301,1.);
#1301 = DIRECTION('',(0.,0.,1.));
#1302 = ORIENTED_EDGE('',*,*,#560,.T.);
#1303 = ORIENTED_EDGE('',*,*,#1304,.T.);
#1304 = EDGE_CURVE('',#66,#1305,#1307,.T.);
#1305 = VERTEX_POINT('',#1306);
#1306 = CARTESIAN_POINT('',(88.25072076929,72.130076910605,
    21.815614903208));
#1307 = LINE('',#1308,#1309);
#1308 = CARTESIAN_POINT('',(88.25072076929,72.130076910605,5.7));
#1309 = VECTOR('',#1310,1.);
#1310 = DIRECTION('',(0.,0.,1.));
#1311 = ORIENTED_EDGE('',*,*,#1312,.F.);
#1312 = EDGE_CURVE('',#1296,#1305,#1313,.T.);
#1313 = LINE('',#1314,#1315);
#1314 = CARTESIAN_POINT('',(-198.7550898465,146.5606799765,
    21.815614903208));
#1315 = VECTOR('',#1316,1.);
#1316 = DIRECTION('',(0.96797912518,-0.25103070174,0.));
#1317 = PLANE('',#1318);
#1318 = AXIS2_PLACEMENT_3D('',#1319,#1320,#1321);
#1319 = CARTESIAN_POINT('',(-392.3509148825,196.76682032449,-404.));
#1320 = DIRECTION('',(-0.25103070174,-0.96797912518,0.));
#1321 = DIRECTION('',(0.96797912518,-0.25103070174,0.));
#1322 = ADVANCED_FACE('',(#1323),#1342,.T.);
#1323 = FACE_BOUND('',#1324,.T.);
#1324 = EDGE_LOOP('',(#1325,#1326,#1327,#1336));
#1325 = ORIENTED_EDGE('',*,*,#582,.T.);
#1326 = ORIENTED_EDGE('',*,*,#1304,.T.);
#1327 = ORIENTED_EDGE('',*,*,#1328,.F.);
#1328 = EDGE_CURVE('',#1329,#1305,#1331,.T.);
#1329 = VERTEX_POINT('',#1330);
#1330 = CARTESIAN_POINT('',(86.353725085725,65.733914549301,
    21.815614903208));
#1331 = CIRCLE('',#1332,96.5);
#1332 = AXIS2_PLACEMENT_3D('',#1333,#1334,#1335);
#1333 = CARTESIAN_POINT('',(-5.159264810565,96.354539628512,
    21.815614903208));
#1334 = DIRECTION('',(0.,0.,1.));
#1335 = DIRECTION('',(1.,0.,-0.));
#1336 = ORIENTED_EDGE('',*,*,#1337,.F.);
#1337 = EDGE_CURVE('',#92,#1329,#1338,.T.);
#1338 = LINE('',#1339,#1340);
#1339 = CARTESIAN_POINT('',(86.353725085725,65.733914549301,5.7));
#1340 = VECTOR('',#1341,1.);
#1341 = DIRECTION('',(0.,0.,1.));
#1342 = CYLINDRICAL_SURFACE('',#1343,96.5);
#1343 = AXIS2_PLACEMENT_3D('',#1344,#1345,#1346);
#1344 = CARTESIAN_POINT('',(-5.159264810565,96.354539628512,5.7));
#1345 = DIRECTION('',(0.,0.,1.));
#1346 = DIRECTION('',(1.,0.,-0.));
#1347 = ADVANCED_FACE('',(#1348),#1373,.F.);
#1348 = FACE_BOUND('',#1349,.F.);
#1349 = EDGE_LOOP('',(#1350,#1358,#1359,#1367));
#1350 = ORIENTED_EDGE('',*,*,#1351,.F.);
#1351 = EDGE_CURVE('',#194,#1352,#1354,.T.);
#1352 = VERTEX_POINT('',#1353);
#1353 = CARTESIAN_POINT('',(37.038643052287,9.569825698015,
    21.815614903208));
#1354 = LINE('',#1355,#1356);
#1355 = CARTESIAN_POINT('',(37.038643052287,9.569825698015,5.7));
#1356 = VECTOR('',#1357,1.);
#1357 = DIRECTION('',(0.,0.,1.));
#1358 = ORIENTED_EDGE('',*,*,#617,.T.);
#1359 = ORIENTED_EDGE('',*,*,#1360,.T.);
#1360 = EDGE_CURVE('',#602,#1361,#1363,.T.);
#1361 = VERTEX_POINT('',#1362);
#1362 = CARTESIAN_POINT('',(35.945433004027,11.818134349064,
    21.815614903208));
#1363 = LINE('',#1364,#1365);
#1364 = CARTESIAN_POINT('',(35.945433004027,11.818134349064,5.7));
#1365 = VECTOR('',#1366,1.);
#1366 = DIRECTION('',(0.,0.,1.));
#1367 = ORIENTED_EDGE('',*,*,#1368,.F.);
#1368 = EDGE_CURVE('',#1352,#1361,#1369,.T.);
#1369 = LINE('',#1370,#1371);
#1370 = CARTESIAN_POINT('',(82.297539050269,-83.51015245542,
    21.815614903208));
#1371 = VECTOR('',#1372,1.);
#1372 = DIRECTION('',(-0.437284019304,0.89932346042,0.));
#1373 = PLANE('',#1374);
#1374 = AXIS2_PLACEMENT_3D('',#1375,#1376,#1377);
#1375 = CARTESIAN_POINT('',(169.7543429111,-263.3748445393,-404.));
#1376 = DIRECTION('',(0.89932346042,0.437284019304,0.));
#1377 = DIRECTION('',(-0.437284019304,0.89932346042,0.));
#1378 = ADVANCED_FACE('',(#1379),#1397,.F.);
#1379 = FACE_BOUND('',#1380,.F.);
#1380 = EDGE_LOOP('',(#1381,#1389,#1390,#1391));
#1381 = ORIENTED_EDGE('',*,*,#1382,.F.);
#1382 = EDGE_CURVE('',#600,#1383,#1385,.T.);
#1383 = VERTEX_POINT('',#1384);
#1384 = CARTESIAN_POINT('',(24.668079826179,7.212352579276,
    21.815614903208));
#1385 = LINE('',#1386,#1387);
#1386 = CARTESIAN_POINT('',(24.668079826179,7.212352579276,5.7));
#1387 = VECTOR('',#1388,1.);
#1388 = DIRECTION('',(0.,0.,1.));
#1389 = ORIENTED_EDGE('',*,*,#610,.T.);
#1390 = ORIENTED_EDGE('',*,*,#1247,.T.);
#1391 = ORIENTED_EDGE('',*,*,#1392,.F.);
#1392 = EDGE_CURVE('',#1383,#1248,#1393,.T.);
#1393 = LINE('',#1394,#1395);
#1394 = CARTESIAN_POINT('',(-68.62170020789,286.01876739284,
    21.815614903208));
#1395 = VECTOR('',#1396,1.);
#1396 = DIRECTION('',(0.317312176987,-0.948321138822,0.));
#1397 = PLANE('',#1398);
#1398 = AXIS2_PLACEMENT_3D('',#1399,#1400,#1401);
#1399 = CARTESIAN_POINT('',(-132.0841356052,475.68299515717,-404.));
#1400 = DIRECTION('',(-0.948321138822,-0.317312176987,0.));
#1401 = DIRECTION('',(0.317312176987,-0.948321138822,0.));
#1402 = ADVANCED_FACE('',(#1403),#1422,.T.);
#1403 = FACE_BOUND('',#1404,.T.);
#1404 = EDGE_LOOP('',(#1405,#1406,#1414,#1421));
#1405 = ORIENTED_EDGE('',*,*,#632,.T.);
#1406 = ORIENTED_EDGE('',*,*,#1407,.T.);
#1407 = EDGE_CURVE('',#168,#1408,#1410,.T.);
#1408 = VERTEX_POINT('',#1409);
#1409 = CARTESIAN_POINT('',(42.934086365728,12.692842462881,
    21.815614903208));
#1410 = LINE('',#1411,#1412);
#1411 = CARTESIAN_POINT('',(42.934086365728,12.692842462881,5.7));
#1412 = VECTOR('',#1413,1.);
#1413 = DIRECTION('',(0.,0.,1.));
#1414 = ORIENTED_EDGE('',*,*,#1415,.F.);
#1415 = EDGE_CURVE('',#1352,#1408,#1416,.T.);
#1416 = CIRCLE('',#1417,96.5);
#1417 = AXIS2_PLACEMENT_3D('',#1418,#1419,#1420);
#1418 = CARTESIAN_POINT('',(-5.159264810565,96.354539628512,
    21.815614903208));
#1419 = DIRECTION('',(0.,0.,1.));
#1420 = DIRECTION('',(1.,0.,-0.));
#1421 = ORIENTED_EDGE('',*,*,#1351,.F.);
#1422 = CYLINDRICAL_SURFACE('',#1423,96.5);
#1423 = AXIS2_PLACEMENT_3D('',#1424,#1425,#1426);
#1424 = CARTESIAN_POINT('',(-5.159264810565,96.354539628512,5.7));
#1425 = DIRECTION('',(0.,0.,1.));
#1426 = DIRECTION('',(1.,0.,-0.));
#1427 = ADVANCED_FACE('',(#1428),#1446,.F.);
#1428 = FACE_BOUND('',#1429,.F.);
#1429 = EDGE_LOOP('',(#1430,#1431,#1432,#1440));
#1430 = ORIENTED_EDGE('',*,*,#1337,.F.);
#1431 = ORIENTED_EDGE('',*,*,#667,.T.);
#1432 = ORIENTED_EDGE('',*,*,#1433,.T.);
#1433 = EDGE_CURVE('',#652,#1434,#1436,.T.);
#1434 = VERTEX_POINT('',#1435);
#1435 = CARTESIAN_POINT('',(83.98292223867,66.527194991767,
    21.815614903208));
#1436 = LINE('',#1437,#1438);
#1437 = CARTESIAN_POINT('',(83.98292223867,66.527194991768,5.7));
#1438 = VECTOR('',#1439,1.);
#1439 = DIRECTION('',(0.,0.,1.));
#1440 = ORIENTED_EDGE('',*,*,#1441,.F.);
#1441 = EDGE_CURVE('',#1329,#1434,#1442,.T.);
#1442 = LINE('',#1443,#1444);
#1443 = CARTESIAN_POINT('',(184.50496295376,32.892104231183,
    21.815614903208));
#1444 = VECTOR('',#1445,1.);
#1445 = DIRECTION('',(-0.948321138822,0.317312176987,0.));
#1446 = PLANE('',#1447);
#1447 = AXIS2_PLACEMENT_3D('',#1448,#1449,#1450);
#1448 = CARTESIAN_POINT('',(374.16919071809,-30.57033116614,-404.));
#1449 = DIRECTION('',(0.317312176987,0.948321138822,0.));
#1450 = DIRECTION('',(-0.948321138822,0.317312176987,0.));
#1451 = ADVANCED_FACE('',(#1452),#1477,.F.);
#1452 = FACE_BOUND('',#1453,.F.);
#1453 = EDGE_LOOP('',(#1454,#1462,#1463,#1471));
#1454 = ORIENTED_EDGE('',*,*,#1455,.F.);
#1455 = EDGE_CURVE('',#650,#1456,#1458,.T.);
#1456 = VERTEX_POINT('',#1457);
#1457 = CARTESIAN_POINT('',(79.377140468883,55.24984181392,
    21.815614903208));
#1458 = LINE('',#1459,#1460);
#1459 = CARTESIAN_POINT('',(79.377140468883,55.24984181392,5.7));
#1460 = VECTOR('',#1461,1.);
#1461 = DIRECTION('',(0.,0.,1.));
#1462 = ORIENTED_EDGE('',*,*,#660,.T.);
#1463 = ORIENTED_EDGE('',*,*,#1464,.T.);
#1464 = EDGE_CURVE('',#100,#1465,#1467,.T.);
#1465 = VERTEX_POINT('',#1466);
#1466 = CARTESIAN_POINT('',(81.625449119932,54.15663176566,
    21.815614903208));
#1467 = LINE('',#1468,#1469);
#1468 = CARTESIAN_POINT('',(81.625449119932,54.15663176566,5.7));
#1469 = VECTOR('',#1470,1.);
#1470 = DIRECTION('',(0.,0.,1.));
#1471 = ORIENTED_EDGE('',*,*,#1472,.F.);
#1472 = EDGE_CURVE('',#1456,#1465,#1473,.T.);
#1473 = LINE('',#1474,#1475);
#1474 = CARTESIAN_POINT('',(-185.0239568944,183.81134348934,
    21.815614903208));
#1475 = VECTOR('',#1476,1.);
#1476 = DIRECTION('',(0.89932346042,-0.437284019304,0.));
#1477 = PLANE('',#1478);
#1478 = AXIS2_PLACEMENT_3D('',#1479,#1480,#1481);
#1479 = CARTESIAN_POINT('',(-364.8886489784,271.26814735017,-404.));
#1480 = DIRECTION('',(-0.437284019304,-0.89932346042,0.));
#1481 = DIRECTION('',(0.89932346042,-0.437284019304,0.));
#1482 = ADVANCED_FACE('',(#1483),#1502,.T.);
#1483 = FACE_BOUND('',#1484,.T.);
#1484 = EDGE_LOOP('',(#1485,#1486,#1487,#1496));
#1485 = ORIENTED_EDGE('',*,*,#682,.T.);
#1486 = ORIENTED_EDGE('',*,*,#1464,.T.);
#1487 = ORIENTED_EDGE('',*,*,#1488,.F.);
#1488 = EDGE_CURVE('',#1489,#1465,#1491,.T.);
#1489 = VERTEX_POINT('',#1490);
#1490 = CARTESIAN_POINT('',(78.502432355066,48.261188452219,
    21.815614903208));
#1491 = CIRCLE('',#1492,96.5);
#1492 = AXIS2_PLACEMENT_3D('',#1493,#1494,#1495);
#1493 = CARTESIAN_POINT('',(-5.159264810565,96.354539628512,
    21.815614903208));
#1494 = DIRECTION('',(0.,0.,1.));
#1495 = DIRECTION('',(1.,0.,-0.));
#1496 = ORIENTED_EDGE('',*,*,#1497,.F.);
#1497 = EDGE_CURVE('',#126,#1489,#1498,.T.);
#1498 = LINE('',#1499,#1500);
#1499 = CARTESIAN_POINT('',(78.502432355066,48.261188452219,5.7));
#1500 = VECTOR('',#1501,1.);
#1501 = DIRECTION('',(0.,0.,1.));
#1502 = CYLINDRICAL_SURFACE('',#1503,96.5);
#1503 = AXIS2_PLACEMENT_3D('',#1504,#1505,#1506);
#1504 = CARTESIAN_POINT('',(-5.159264810565,96.354539628512,5.7));
#1505 = DIRECTION('',(0.,0.,1.));
#1506 = DIRECTION('',(1.,0.,-0.));
#1507 = ADVANCED_FACE('',(#1508),#1533,.F.);
#1508 = FACE_BOUND('',#1509,.F.);
#1509 = EDGE_LOOP('',(#1510,#1518,#1519,#1527));
#1510 = ORIENTED_EDGE('',*,*,#1511,.F.);
#1511 = EDGE_CURVE('',#160,#1512,#1514,.T.);
#1512 = VERTEX_POINT('',#1513);
#1513 = CARTESIAN_POINT('',(67.354542591975,32.683527888574,
    21.815614903208));
#1514 = LINE('',#1515,#1516);
#1515 = CARTESIAN_POINT('',(67.354542591975,32.683527888574,5.7));
#1516 = VECTOR('',#1517,1.);
#1517 = DIRECTION('',(0.,0.,1.));
#1518 = ORIENTED_EDGE('',*,*,#717,.T.);
#1519 = ORIENTED_EDGE('',*,*,#1520,.T.);
#1520 = EDGE_CURVE('',#702,#1521,#1523,.T.);
#1521 = VERTEX_POINT('',#1522);
#1522 = CARTESIAN_POINT('',(65.475946545277,34.333035964738,
    21.815614903208));
#1523 = LINE('',#1524,#1525);
#1524 = CARTESIAN_POINT('',(65.475946545277,34.333035964738,5.7));
#1525 = VECTOR('',#1526,1.);
#1526 = DIRECTION('',(0.,0.,1.));
#1527 = ORIENTED_EDGE('',*,*,#1528,.F.);
#1528 = EDGE_CURVE('',#1512,#1521,#1529,.T.);
#1529 = LINE('',#1530,#1531);
#1530 = CARTESIAN_POINT('',(145.12841892527,-35.60610646462,
    21.815614903208));
#1531 = VECTOR('',#1532,1.);
#1532 = DIRECTION('',(-0.751438418679,0.659803230466,0.));
#1533 = PLANE('',#1534);
#1534 = AXIS2_PLACEMENT_3D('',#1535,#1536,#1537);
#1535 = CARTESIAN_POINT('',(295.4161026611,-167.5667525577,-404.));
#1536 = DIRECTION('',(0.659803230466,0.751438418679,0.));
#1537 = DIRECTION('',(-0.751438418679,0.659803230466,0.));
#1538 = ADVANCED_FACE('',(#1539),#1557,.F.);
#1539 = FACE_BOUND('',#1540,.F.);
#1540 = EDGE_LOOP('',(#1541,#1549,#1550,#1551));
#1541 = ORIENTED_EDGE('',*,*,#1542,.F.);
#1542 = EDGE_CURVE('',#700,#1543,#1545,.T.);
#1543 = VERTEX_POINT('',#1544);
#1544 = CARTESIAN_POINT('',(41.68814462541,14.860243943856,
    21.815614903208));
#1545 = LINE('',#1546,#1547);
#1546 = CARTESIAN_POINT('',(41.68814462541,14.860243943856,5.7));
#1547 = VECTOR('',#1548,1.);
#1548 = DIRECTION('',(0.,0.,1.));
#1549 = ORIENTED_EDGE('',*,*,#710,.T.);
#1550 = ORIENTED_EDGE('',*,*,#1407,.T.);
#1551 = ORIENTED_EDGE('',*,*,#1552,.F.);
#1552 = EDGE_CURVE('',#1543,#1408,#1553,.T.);
#1553 = LINE('',#1554,#1555);
#1554 = CARTESIAN_POINT('',(-104.834604036,269.7466581065,
    21.815614903208));
#1555 = VECTOR('',#1556,1.);
#1556 = DIRECTION('',(0.498376696127,-0.86696059239,0.));
#1557 = PLANE('',#1558);
#1558 = AXIS2_PLACEMENT_3D('',#1559,#1560,#1561);
#1559 = CARTESIAN_POINT('',(-204.5099432615,443.13877658449,-404.));
#1560 = DIRECTION('',(-0.86696059239,-0.498376696127,0.));
#1561 = DIRECTION('',(0.498376696127,-0.86696059239,0.));
#1562 = ADVANCED_FACE('',(#1563),#1582,.T.);
#1563 = FACE_BOUND('',#1564,.T.);
#1564 = EDGE_LOOP('',(#1565,#1566,#1574,#1581));
#1565 = ORIENTED_EDGE('',*,*,#732,.T.);
#1566 = ORIENTED_EDGE('',*,*,#1567,.T.);
#1567 = EDGE_CURVE('',#134,#1568,#1570,.T.);
#1568 = VERTEX_POINT('',#1569);
#1569 = CARTESIAN_POINT('',(71.58052140219,37.845948703584,
    21.815614903208));
#1570 = LINE('',#1571,#1572);
#1571 = CARTESIAN_POINT('',(71.58052140219,37.845948703584,5.7));
#1572 = VECTOR('',#1573,1.);
#1573 = DIRECTION('',(0.,0.,1.));
#1574 = ORIENTED_EDGE('',*,*,#1575,.F.);
#1575 = EDGE_CURVE('',#1512,#1568,#1576,.T.);
#1576 = CIRCLE('',#1577,96.5);
#1577 = AXIS2_PLACEMENT_3D('',#1578,#1579,#1580);
#1578 = CARTESIAN_POINT('',(-5.159264810565,96.354539628512,
    21.815614903208));
#1579 = DIRECTION('',(0.,0.,1.));
#1580 = DIRECTION('',(1.,0.,-0.));
#1581 = ORIENTED_EDGE('',*,*,#1511,.F.);
#1582 = CYLINDRICAL_SURFACE('',#1583,96.5);
#1583 = AXIS2_PLACEMENT_3D('',#1584,#1585,#1586);
#1584 = CARTESIAN_POINT('',(-5.159264810565,96.354539628512,5.7));
#1585 = DIRECTION('',(0.,0.,1.));
#1586 = DIRECTION('',(1.,0.,-0.));
#1587 = ADVANCED_FACE('',(#1588),#1606,.F.);
#1588 = FACE_BOUND('',#1589,.F.);
#1589 = EDGE_LOOP('',(#1590,#1591,#1592,#1600));
#1590 = ORIENTED_EDGE('',*,*,#1497,.F.);
#1591 = ORIENTED_EDGE('',*,*,#767,.T.);
#1592 = ORIENTED_EDGE('',*,*,#1593,.T.);
#1593 = EDGE_CURVE('',#752,#1594,#1596,.T.);
#1594 = VERTEX_POINT('',#1595);
#1595 = CARTESIAN_POINT('',(76.335030874091,49.507130192537,
    21.815614903208));
#1596 = LINE('',#1597,#1598);
#1597 = CARTESIAN_POINT('',(76.335030874091,49.507130192537,5.7));
#1598 = VECTOR('',#1599,1.);
#1599 = DIRECTION('',(0.,0.,1.));
#1600 = ORIENTED_EDGE('',*,*,#1601,.F.);
#1601 = EDGE_CURVE('',#1489,#1594,#1602,.T.);
#1602 = LINE('',#1603,#1604);
#1603 = CARTESIAN_POINT('',(168.23285366742,-3.320799596966,
    21.815614903208));
#1604 = VECTOR('',#1605,1.);
#1605 = DIRECTION('',(-0.86696059239,0.498376696127,0.));
#1606 = PLANE('',#1607);
#1607 = AXIS2_PLACEMENT_3D('',#1608,#1609,#1610);
#1608 = CARTESIAN_POINT('',(341.62497214541,-102.9961388224,-404.));
#1609 = DIRECTION('',(0.498376696127,0.86696059239,0.));
#1610 = DIRECTION('',(-0.86696059239,0.498376696127,0.));
#1611 = ADVANCED_FACE('',(#1612),#1630,.F.);
#1612 = FACE_BOUND('',#1613,.F.);
#1613 = EDGE_LOOP('',(#1614,#1622,#1623,#1624));
#1614 = ORIENTED_EDGE('',*,*,#1615,.F.);
#1615 = EDGE_CURVE('',#750,#1616,#1618,.T.);
#1616 = VERTEX_POINT('',#1617);
#1617 = CARTESIAN_POINT('',(69.592444039166,39.361715307856,
    21.815614903208));
#1618 = LINE('',#1619,#1620);
#1619 = CARTESIAN_POINT('',(69.592444039166,39.361715307856,5.7));
#1620 = VECTOR('',#1621,1.);
#1621 = DIRECTION('',(0.,0.,1.));
#1622 = ORIENTED_EDGE('',*,*,#760,.T.);
#1623 = ORIENTED_EDGE('',*,*,#1567,.T.);
#1624 = ORIENTED_EDGE('',*,*,#1625,.F.);
#1625 = EDGE_CURVE('',#1616,#1568,#1626,.T.);
#1626 = LINE('',#1627,#1628);
#1627 = CARTESIAN_POINT('',(-164.2054538525,217.61586797033,
    21.815614903208));
#1628 = VECTOR('',#1629,1.);
#1629 = DIRECTION('',(0.79523094521,-0.606306641709,0.));
#1630 = PLANE('',#1631);
#1631 = AXIS2_PLACEMENT_3D('',#1632,#1633,#1634);
#1632 = CARTESIAN_POINT('',(-323.2516428945,338.87719631215,-404.));
#1633 = DIRECTION('',(-0.606306641709,-0.79523094521,0.));
#1634 = DIRECTION('',(0.79523094521,-0.606306641709,0.));
#1635 = ADVANCED_FACE('',(#1636),#1654,.F.);
#1636 = FACE_BOUND('',#1637,.F.);
#1637 = EDGE_LOOP('',(#1638,#1639,#1640,#1648));
#1638 = ORIENTED_EDGE('',*,*,#1121,.F.);
#1639 = ORIENTED_EDGE('',*,*,#921,.T.);
#1640 = ORIENTED_EDGE('',*,*,#1641,.T.);
#1641 = EDGE_CURVE('',#914,#1642,#1644,.T.);
#1642 = VERTEX_POINT('',#1643);
#1643 = CARTESIAN_POINT('',(0.,2.496231596594,21.815614903208));
#1644 = LINE('',#1645,#1646);
#1645 = CARTESIAN_POINT('',(4.263256414561E-14,2.496231596594,5.7));
#1646 = VECTOR('',#1647,1.);
#1647 = DIRECTION('',(0.,0.,1.));
#1648 = ORIENTED_EDGE('',*,*,#1649,.F.);
#1649 = EDGE_CURVE('',#1113,#1642,#1650,.T.);
#1650 = LINE('',#1651,#1652);
#1651 = CARTESIAN_POINT('',(5.81789436085,-103.3439880989,
    21.815614903208));
#1652 = VECTOR('',#1653,1.);
#1653 = DIRECTION('',(-5.488579585707E-02,0.998492638637,0.));
#1654 = PLANE('',#1655);
#1655 = AXIS2_PLACEMENT_3D('',#1656,#1657,#1658);
#1656 = CARTESIAN_POINT('',(16.795053532265,-303.0425158264,-404.));
#1657 = DIRECTION('',(0.998492638637,5.488579585707E-02,0.));
#1658 = DIRECTION('',(-5.488579585707E-02,0.998492638637,0.));
#1659 = ADVANCED_FACE('',(#1660),#1672,.F.);
#1660 = FACE_BOUND('',#1661,.F.);
#1661 = EDGE_LOOP('',(#1662,#1663,#1664,#1665));
#1662 = ORIENTED_EDGE('',*,*,#913,.F.);
#1663 = ORIENTED_EDGE('',*,*,#1082,.T.);
#1664 = ORIENTED_EDGE('',*,*,#1074,.T.);
#1665 = ORIENTED_EDGE('',*,*,#1666,.F.);
#1666 = EDGE_CURVE('',#914,#500,#1667,.T.);
#1667 = CIRCLE('',#1668,94.);
#1668 = AXIS2_PLACEMENT_3D('',#1669,#1670,#1671);
#1669 = CARTESIAN_POINT('',(-5.159264810565,96.354539628512,6.));
#1670 = DIRECTION('',(0.,0.,1.));
#1671 = DIRECTION('',(1.,0.,-0.));
#1672 = CYLINDRICAL_SURFACE('',#1673,94.);
#1673 = AXIS2_PLACEMENT_3D('',#1674,#1675,#1676);
#1674 = CARTESIAN_POINT('',(-5.159264810565,96.354539628512,0.));
#1675 = DIRECTION('',(0.,0.,1.));
#1676 = DIRECTION('',(1.,0.,-0.));
#1677 = ADVANCED_FACE('',(#1678),#1690,.F.);
#1678 = FACE_BOUND('',#1679,.F.);
#1679 = EDGE_LOOP('',(#1680,#1681,#1682,#1689));
#1680 = ORIENTED_EDGE('',*,*,#938,.T.);
#1681 = ORIENTED_EDGE('',*,*,#1135,.T.);
#1682 = ORIENTED_EDGE('',*,*,#1683,.F.);
#1683 = EDGE_CURVE('',#552,#1136,#1684,.T.);
#1684 = CIRCLE('',#1685,94.);
#1685 = AXIS2_PLACEMENT_3D('',#1686,#1687,#1688);
#1686 = CARTESIAN_POINT('',(-5.159264810565,96.354539628512,6.));
#1687 = DIRECTION('',(0.,0.,1.));
#1688 = DIRECTION('',(1.,0.,-0.));
#1689 = ORIENTED_EDGE('',*,*,#947,.F.);
#1690 = CYLINDRICAL_SURFACE('',#1691,94.);
#1691 = AXIS2_PLACEMENT_3D('',#1692,#1693,#1694);
#1692 = CARTESIAN_POINT('',(-5.159264810565,96.354539628512,0.));
#1693 = DIRECTION('',(0.,0.,1.));
#1694 = DIRECTION('',(1.,0.,-0.));
#1695 = ADVANCED_FACE('',(#1696),#1708,.F.);
#1696 = FACE_BOUND('',#1697,.F.);
#1697 = EDGE_LOOP('',(#1698,#1699,#1706,#1707));
#1698 = ORIENTED_EDGE('',*,*,#1050,.T.);
#1699 = ORIENTED_EDGE('',*,*,#1700,.F.);
#1700 = EDGE_CURVE('',#502,#600,#1701,.T.);
#1701 = CIRCLE('',#1702,94.);
#1702 = AXIS2_PLACEMENT_3D('',#1703,#1704,#1705);
#1703 = CARTESIAN_POINT('',(-5.159264810565,96.354539628512,6.));
#1704 = DIRECTION('',(0.,0.,1.));
#1705 = DIRECTION('',(1.,0.,-0.));
#1706 = ORIENTED_EDGE('',*,*,#1067,.F.);
#1707 = ORIENTED_EDGE('',*,*,#1058,.T.);
#1708 = CYLINDRICAL_SURFACE('',#1709,94.);
#1709 = AXIS2_PLACEMENT_3D('',#1710,#1711,#1712);
#1710 = CARTESIAN_POINT('',(-5.159264810565,96.354539628512,0.));
#1711 = DIRECTION('',(0.,0.,1.));
#1712 = DIRECTION('',(1.,0.,-0.));
#1713 = ADVANCED_FACE('',(#1714),#1726,.F.);
#1714 = FACE_BOUND('',#1715,.F.);
#1715 = EDGE_LOOP('',(#1716,#1717,#1724,#1725));
#1716 = ORIENTED_EDGE('',*,*,#954,.T.);
#1717 = ORIENTED_EDGE('',*,*,#1718,.F.);
#1718 = EDGE_CURVE('',#652,#550,#1719,.T.);
#1719 = CIRCLE('',#1720,94.);
#1720 = AXIS2_PLACEMENT_3D('',#1721,#1722,#1723);
#1721 = CARTESIAN_POINT('',(-5.159264810565,96.354539628512,6.));
#1722 = DIRECTION('',(0.,0.,1.));
#1723 = DIRECTION('',(1.,0.,-0.));
#1724 = ORIENTED_EDGE('',*,*,#971,.F.);
#1725 = ORIENTED_EDGE('',*,*,#962,.T.);
#1726 = CYLINDRICAL_SURFACE('',#1727,94.);
#1727 = AXIS2_PLACEMENT_3D('',#1728,#1729,#1730);
#1728 = CARTESIAN_POINT('',(-5.159264810565,96.354539628512,0.));
#1729 = DIRECTION('',(0.,0.,1.));
#1730 = DIRECTION('',(1.,0.,-0.));
#1731 = ADVANCED_FACE('',(#1732),#1744,.F.);
#1732 = FACE_BOUND('',#1733,.F.);
#1733 = EDGE_LOOP('',(#1734,#1735,#1742,#1743));
#1734 = ORIENTED_EDGE('',*,*,#1026,.T.);
#1735 = ORIENTED_EDGE('',*,*,#1736,.F.);
#1736 = EDGE_CURVE('',#602,#700,#1737,.T.);
#1737 = CIRCLE('',#1738,94.);
#1738 = AXIS2_PLACEMENT_3D('',#1739,#1740,#1741);
#1739 = CARTESIAN_POINT('',(-5.159264810565,96.354539628512,6.));
#1740 = DIRECTION('',(0.,0.,1.));
#1741 = DIRECTION('',(1.,0.,-0.));
#1742 = ORIENTED_EDGE('',*,*,#1043,.F.);
#1743 = ORIENTED_EDGE('',*,*,#1034,.T.);
#1744 = CYLINDRICAL_SURFACE('',#1745,94.);
#1745 = AXIS2_PLACEMENT_3D('',#1746,#1747,#1748);
#1746 = CARTESIAN_POINT('',(-5.159264810565,96.354539628512,0.));
#1747 = DIRECTION('',(0.,0.,1.));
#1748 = DIRECTION('',(1.,0.,-0.));
#1749 = ADVANCED_FACE('',(#1750),#1762,.F.);
#1750 = FACE_BOUND('',#1751,.F.);
#1751 = EDGE_LOOP('',(#1752,#1753,#1760,#1761));
#1752 = ORIENTED_EDGE('',*,*,#978,.T.);
#1753 = ORIENTED_EDGE('',*,*,#1754,.F.);
#1754 = EDGE_CURVE('',#752,#650,#1755,.T.);
#1755 = CIRCLE('',#1756,94.);
#1756 = AXIS2_PLACEMENT_3D('',#1757,#1758,#1759);
#1757 = CARTESIAN_POINT('',(-5.159264810565,96.354539628512,6.));
#1758 = DIRECTION('',(0.,0.,1.));
#1759 = DIRECTION('',(1.,0.,-0.));
#1760 = ORIENTED_EDGE('',*,*,#995,.F.);
#1761 = ORIENTED_EDGE('',*,*,#986,.T.);
#1762 = CYLINDRICAL_SURFACE('',#1763,94.);
#1763 = AXIS2_PLACEMENT_3D('',#1764,#1765,#1766);
#1764 = CARTESIAN_POINT('',(-5.159264810565,96.354539628512,0.));
#1765 = DIRECTION('',(0.,0.,1.));
#1766 = DIRECTION('',(1.,0.,-0.));
#1767 = ADVANCED_FACE('',(#1768),#1780,.F.);
#1768 = FACE_BOUND('',#1769,.F.);
#1769 = EDGE_LOOP('',(#1770,#1771,#1778,#1779));
#1770 = ORIENTED_EDGE('',*,*,#1002,.T.);
#1771 = ORIENTED_EDGE('',*,*,#1772,.F.);
#1772 = EDGE_CURVE('',#702,#750,#1773,.T.);
#1773 = CIRCLE('',#1774,94.);
#1774 = AXIS2_PLACEMENT_3D('',#1775,#1776,#1777);
#1775 = CARTESIAN_POINT('',(-5.159264810565,96.354539628512,6.));
#1776 = DIRECTION('',(0.,0.,1.));
#1777 = DIRECTION('',(1.,0.,-0.));
#1778 = ORIENTED_EDGE('',*,*,#1019,.F.);
#1779 = ORIENTED_EDGE('',*,*,#1010,.T.);
#1780 = CYLINDRICAL_SURFACE('',#1781,94.);
#1781 = AXIS2_PLACEMENT_3D('',#1782,#1783,#1784);
#1782 = CARTESIAN_POINT('',(-5.159264810565,96.354539628512,0.));
#1783 = DIRECTION('',(0.,0.,1.));
#1784 = DIRECTION('',(1.,0.,-0.));
#1785 = ADVANCED_FACE('',(#1786),#1798,.T.);
#1786 = FACE_BOUND('',#1787,.T.);
#1787 = EDGE_LOOP('',(#1788,#1789,#1790,#1791));
#1788 = ORIENTED_EDGE('',*,*,#1649,.F.);
#1789 = ORIENTED_EDGE('',*,*,#1112,.T.);
#1790 = ORIENTED_EDGE('',*,*,#1232,.F.);
#1791 = ORIENTED_EDGE('',*,*,#1792,.F.);
#1792 = EDGE_CURVE('',#1642,#1223,#1793,.T.);
#1793 = CIRCLE('',#1794,94.);
#1794 = AXIS2_PLACEMENT_3D('',#1795,#1796,#1797);
#1795 = CARTESIAN_POINT('',(-5.159264810565,96.354539628512,
    21.815614903208));
#1796 = DIRECTION('',(0.,0.,1.));
#1797 = DIRECTION('',(1.,0.,-0.));
#1798 = PLANE('',#1799);
#1799 = AXIS2_PLACEMENT_3D('',#1800,#1801,#1802);
#1800 = CARTESIAN_POINT('',(-5.159264810565,96.354539628512,
    21.815614903208));
#1801 = DIRECTION('',(0.,0.,1.));
#1802 = DIRECTION('',(1.,0.,-0.));
#1803 = ADVANCED_FACE('',(#1804),#1822,.F.);
#1804 = FACE_BOUND('',#1805,.F.);
#1805 = EDGE_LOOP('',(#1806,#1814,#1815,#1816));
#1806 = ORIENTED_EDGE('',*,*,#1807,.F.);
#1807 = EDGE_CURVE('',#1136,#1808,#1810,.T.);
#1808 = VERTEX_POINT('',#1809);
#1809 = CARTESIAN_POINT('',(88.699043221353,91.195274817947,
    21.815614903208));
#1810 = LINE('',#1811,#1812);
#1811 = CARTESIAN_POINT('',(88.699043221353,91.195274817947,5.7));
#1812 = VECTOR('',#1813,1.);
#1813 = DIRECTION('',(0.,0.,1.));
#1814 = ORIENTED_EDGE('',*,*,#1145,.T.);
#1815 = ORIENTED_EDGE('',*,*,#1160,.T.);
#1816 = ORIENTED_EDGE('',*,*,#1817,.F.);
#1817 = EDGE_CURVE('',#1808,#1161,#1818,.T.);
#1818 = LINE('',#1819,#1820);
#1819 = CARTESIAN_POINT('',(-204.857792538,107.33169879992,
    21.815614903208));
#1820 = VECTOR('',#1821,1.);
#1821 = DIRECTION('',(0.998492638637,-5.488579585707E-02,0.));
#1822 = PLANE('',#1823);
#1823 = AXIS2_PLACEMENT_3D('',#1824,#1825,#1826);
#1824 = CARTESIAN_POINT('',(-404.5563202655,118.30885797134,-404.));
#1825 = DIRECTION('',(-5.488579585707E-02,-0.998492638637,0.));
#1826 = DIRECTION('',(0.998492638637,-5.488579585707E-02,0.));
#1827 = ADVANCED_FACE('',(#1828),#1840,.T.);
#1828 = FACE_BOUND('',#1829,.T.);
#1829 = EDGE_LOOP('',(#1830,#1831,#1832,#1833));
#1830 = ORIENTED_EDGE('',*,*,#1281,.F.);
#1831 = ORIENTED_EDGE('',*,*,#1168,.T.);
#1832 = ORIENTED_EDGE('',*,*,#1817,.F.);
#1833 = ORIENTED_EDGE('',*,*,#1834,.F.);
#1834 = EDGE_CURVE('',#1274,#1808,#1835,.T.);
#1835 = CIRCLE('',#1836,94.);
#1836 = AXIS2_PLACEMENT_3D('',#1837,#1838,#1839);
#1837 = CARTESIAN_POINT('',(-5.159264810565,96.354539628512,
    21.815614903208));
#1838 = DIRECTION('',(0.,0.,1.));
#1839 = DIRECTION('',(1.,0.,-0.));
#1840 = PLANE('',#1841);
#1841 = AXIS2_PLACEMENT_3D('',#1842,#1843,#1844);
#1842 = CARTESIAN_POINT('',(-5.159264810565,96.354539628512,
    21.815614903208));
#1843 = DIRECTION('',(0.,0.,1.));
#1844 = DIRECTION('',(1.,0.,-0.));
#1845 = ADVANCED_FACE('',(#1846),#1858,.T.);
#1846 = FACE_BOUND('',#1847,.T.);
#1847 = EDGE_LOOP('',(#1848,#1849,#1850,#1851));
#1848 = ORIENTED_EDGE('',*,*,#1208,.F.);
#1849 = ORIENTED_EDGE('',*,*,#1255,.T.);
#1850 = ORIENTED_EDGE('',*,*,#1392,.F.);
#1851 = ORIENTED_EDGE('',*,*,#1852,.F.);
#1852 = EDGE_CURVE('',#1201,#1383,#1853,.T.);
#1853 = CIRCLE('',#1854,94.);
#1854 = AXIS2_PLACEMENT_3D('',#1855,#1856,#1857);
#1855 = CARTESIAN_POINT('',(-5.159264810565,96.354539628512,
    21.815614903208));
#1856 = DIRECTION('',(0.,0.,1.));
#1857 = DIRECTION('',(1.,0.,-0.));
#1858 = PLANE('',#1859);
#1859 = AXIS2_PLACEMENT_3D('',#1860,#1861,#1862);
#1860 = CARTESIAN_POINT('',(-5.159264810565,96.354539628512,
    21.815614903208));
#1861 = DIRECTION('',(0.,0.,1.));
#1862 = DIRECTION('',(1.,0.,-0.));
#1863 = ADVANCED_FACE('',(#1864),#1870,.F.);
#1864 = FACE_BOUND('',#1865,.F.);
#1865 = EDGE_LOOP('',(#1866,#1867,#1868,#1869));
#1866 = ORIENTED_EDGE('',*,*,#1200,.F.);
#1867 = ORIENTED_EDGE('',*,*,#1700,.T.);
#1868 = ORIENTED_EDGE('',*,*,#1382,.T.);
#1869 = ORIENTED_EDGE('',*,*,#1852,.F.);
#1870 = CYLINDRICAL_SURFACE('',#1871,94.);
#1871 = AXIS2_PLACEMENT_3D('',#1872,#1873,#1874);
#1872 = CARTESIAN_POINT('',(-5.159264810565,96.354539628512,5.7));
#1873 = DIRECTION('',(0.,0.,1.));
#1874 = DIRECTION('',(1.,0.,-0.));
#1875 = ADVANCED_FACE('',(#1876),#1882,.F.);
#1876 = FACE_BOUND('',#1877,.F.);
#1877 = EDGE_LOOP('',(#1878,#1879,#1880,#1881));
#1878 = ORIENTED_EDGE('',*,*,#1641,.F.);
#1879 = ORIENTED_EDGE('',*,*,#1666,.T.);
#1880 = ORIENTED_EDGE('',*,*,#1222,.T.);
#1881 = ORIENTED_EDGE('',*,*,#1792,.F.);
#1882 = CYLINDRICAL_SURFACE('',#1883,94.);
#1883 = AXIS2_PLACEMENT_3D('',#1884,#1885,#1886);
#1884 = CARTESIAN_POINT('',(-5.159264810565,96.354539628512,5.7));
#1885 = DIRECTION('',(0.,0.,1.));
#1886 = DIRECTION('',(1.,0.,-0.));
#1887 = ADVANCED_FACE('',(#1888),#1894,.F.);
#1888 = FACE_BOUND('',#1889,.F.);
#1889 = EDGE_LOOP('',(#1890,#1891,#1892,#1893));
#1890 = ORIENTED_EDGE('',*,*,#1273,.F.);
#1891 = ORIENTED_EDGE('',*,*,#1683,.T.);
#1892 = ORIENTED_EDGE('',*,*,#1807,.T.);
#1893 = ORIENTED_EDGE('',*,*,#1834,.F.);
#1894 = CYLINDRICAL_SURFACE('',#1895,94.);
#1895 = AXIS2_PLACEMENT_3D('',#1896,#1897,#1898);
#1896 = CARTESIAN_POINT('',(-5.159264810565,96.354539628512,5.7));
#1897 = DIRECTION('',(0.,0.,1.));
#1898 = DIRECTION('',(1.,0.,-0.));
#1899 = ADVANCED_FACE('',(#1900),#1912,.F.);
#1900 = FACE_BOUND('',#1901,.F.);
#1901 = EDGE_LOOP('',(#1902,#1903,#1904,#1905));
#1902 = ORIENTED_EDGE('',*,*,#1433,.F.);
#1903 = ORIENTED_EDGE('',*,*,#1718,.T.);
#1904 = ORIENTED_EDGE('',*,*,#1295,.T.);
#1905 = ORIENTED_EDGE('',*,*,#1906,.F.);
#1906 = EDGE_CURVE('',#1434,#1296,#1907,.T.);
#1907 = CIRCLE('',#1908,94.);
#1908 = AXIS2_PLACEMENT_3D('',#1909,#1910,#1911);
#1909 = CARTESIAN_POINT('',(-5.159264810565,96.354539628512,
    21.815614903208));
#1910 = DIRECTION('',(0.,0.,1.));
#1911 = DIRECTION('',(1.,0.,-0.));
#1912 = CYLINDRICAL_SURFACE('',#1913,94.);
#1913 = AXIS2_PLACEMENT_3D('',#1914,#1915,#1916);
#1914 = CARTESIAN_POINT('',(-5.159264810565,96.354539628512,5.7));
#1915 = DIRECTION('',(0.,0.,1.));
#1916 = DIRECTION('',(1.,0.,-0.));
#1917 = ADVANCED_FACE('',(#1918),#1924,.T.);
#1918 = FACE_BOUND('',#1919,.T.);
#1919 = EDGE_LOOP('',(#1920,#1921,#1922,#1923));
#1920 = ORIENTED_EDGE('',*,*,#1441,.F.);
#1921 = ORIENTED_EDGE('',*,*,#1328,.T.);
#1922 = ORIENTED_EDGE('',*,*,#1312,.F.);
#1923 = ORIENTED_EDGE('',*,*,#1906,.F.);
#1924 = PLANE('',#1925);
#1925 = AXIS2_PLACEMENT_3D('',#1926,#1927,#1928);
#1926 = CARTESIAN_POINT('',(-5.159264810565,96.354539628512,
    21.815614903208));
#1927 = DIRECTION('',(0.,0.,1.));
#1928 = DIRECTION('',(1.,0.,-0.));
#1929 = ADVANCED_FACE('',(#1930),#1942,.T.);
#1930 = FACE_BOUND('',#1931,.T.);
#1931 = EDGE_LOOP('',(#1932,#1933,#1934,#1935));
#1932 = ORIENTED_EDGE('',*,*,#1368,.F.);
#1933 = ORIENTED_EDGE('',*,*,#1415,.T.);
#1934 = ORIENTED_EDGE('',*,*,#1552,.F.);
#1935 = ORIENTED_EDGE('',*,*,#1936,.F.);
#1936 = EDGE_CURVE('',#1361,#1543,#1937,.T.);
#1937 = CIRCLE('',#1938,94.);
#1938 = AXIS2_PLACEMENT_3D('',#1939,#1940,#1941);
#1939 = CARTESIAN_POINT('',(-5.159264810565,96.354539628512,
    21.815614903208));
#1940 = DIRECTION('',(0.,0.,1.));
#1941 = DIRECTION('',(1.,0.,-0.));
#1942 = PLANE('',#1943);
#1943 = AXIS2_PLACEMENT_3D('',#1944,#1945,#1946);
#1944 = CARTESIAN_POINT('',(-5.159264810565,96.354539628512,
    21.815614903208));
#1945 = DIRECTION('',(0.,0.,1.));
#1946 = DIRECTION('',(1.,0.,-0.));
#1947 = ADVANCED_FACE('',(#1948),#1954,.F.);
#1948 = FACE_BOUND('',#1949,.F.);
#1949 = EDGE_LOOP('',(#1950,#1951,#1952,#1953));
#1950 = ORIENTED_EDGE('',*,*,#1360,.F.);
#1951 = ORIENTED_EDGE('',*,*,#1736,.T.);
#1952 = ORIENTED_EDGE('',*,*,#1542,.T.);
#1953 = ORIENTED_EDGE('',*,*,#1936,.F.);
#1954 = CYLINDRICAL_SURFACE('',#1955,94.);
#1955 = AXIS2_PLACEMENT_3D('',#1956,#1957,#1958);
#1956 = CARTESIAN_POINT('',(-5.159264810565,96.354539628512,5.7));
#1957 = DIRECTION('',(0.,0.,1.));
#1958 = DIRECTION('',(1.,0.,-0.));
#1959 = ADVANCED_FACE('',(#1960),#1972,.F.);
#1960 = FACE_BOUND('',#1961,.F.);
#1961 = EDGE_LOOP('',(#1962,#1963,#1964,#1965));
#1962 = ORIENTED_EDGE('',*,*,#1593,.F.);
#1963 = ORIENTED_EDGE('',*,*,#1754,.T.);
#1964 = ORIENTED_EDGE('',*,*,#1455,.T.);
#1965 = ORIENTED_EDGE('',*,*,#1966,.F.);
#1966 = EDGE_CURVE('',#1594,#1456,#1967,.T.);
#1967 = CIRCLE('',#1968,94.);
#1968 = AXIS2_PLACEMENT_3D('',#1969,#1970,#1971);
#1969 = CARTESIAN_POINT('',(-5.159264810565,96.354539628512,
    21.815614903208));
#1970 = DIRECTION('',(0.,0.,1.));
#1971 = DIRECTION('',(1.,0.,-0.));
#1972 = CYLINDRICAL_SURFACE('',#1973,94.);
#1973 = AXIS2_PLACEMENT_3D('',#1974,#1975,#1976);
#1974 = CARTESIAN_POINT('',(-5.159264810565,96.354539628512,5.7));
#1975 = DIRECTION('',(0.,0.,1.));
#1976 = DIRECTION('',(1.,0.,-0.));
#1977 = ADVANCED_FACE('',(#1978),#1984,.T.);
#1978 = FACE_BOUND('',#1979,.T.);
#1979 = EDGE_LOOP('',(#1980,#1981,#1982,#1983));
#1980 = ORIENTED_EDGE('',*,*,#1601,.F.);
#1981 = ORIENTED_EDGE('',*,*,#1488,.T.);
#1982 = ORIENTED_EDGE('',*,*,#1472,.F.);
#1983 = ORIENTED_EDGE('',*,*,#1966,.F.);
#1984 = PLANE('',#1985);
#1985 = AXIS2_PLACEMENT_3D('',#1986,#1987,#1988);
#1986 = CARTESIAN_POINT('',(-5.159264810565,96.354539628512,
    21.815614903208));
#1987 = DIRECTION('',(0.,0.,1.));
#1988 = DIRECTION('',(1.,0.,-0.));
#1989 = ADVANCED_FACE('',(#1990),#2002,.T.);
#1990 = FACE_BOUND('',#1991,.T.);
#1991 = EDGE_LOOP('',(#1992,#1993,#1994,#1995));
#1992 = ORIENTED_EDGE('',*,*,#1528,.F.);
#1993 = ORIENTED_EDGE('',*,*,#1575,.T.);
#1994 = ORIENTED_EDGE('',*,*,#1625,.F.);
#1995 = ORIENTED_EDGE('',*,*,#1996,.F.);
#1996 = EDGE_CURVE('',#1521,#1616,#1997,.T.);
#1997 = CIRCLE('',#1998,94.);
#1998 = AXIS2_PLACEMENT_3D('',#1999,#2000,#2001);
#1999 = CARTESIAN_POINT('',(-5.159264810565,96.354539628512,
    21.815614903208));
#2000 = DIRECTION('',(0.,0.,1.));
#2001 = DIRECTION('',(1.,0.,-0.));
#2002 = PLANE('',#2003);
#2003 = AXIS2_PLACEMENT_3D('',#2004,#2005,#2006);
#2004 = CARTESIAN_POINT('',(-5.159264810565,96.354539628512,
    21.815614903208));
#2005 = DIRECTION('',(0.,0.,1.));
#2006 = DIRECTION('',(1.,0.,-0.));
#2007 = ADVANCED_FACE('',(#2008),#2014,.F.);
#2008 = FACE_BOUND('',#2009,.F.);
#2009 = EDGE_LOOP('',(#2010,#2011,#2012,#2013));
#2010 = ORIENTED_EDGE('',*,*,#1520,.F.);
#2011 = ORIENTED_EDGE('',*,*,#1772,.T.);
#2012 = ORIENTED_EDGE('',*,*,#1615,.T.);
#2013 = ORIENTED_EDGE('',*,*,#1996,.F.);
#2014 = CYLINDRICAL_SURFACE('',#2015,94.);
#2015 = AXIS2_PLACEMENT_3D('',#2016,#2017,#2018);
#2016 = CARTESIAN_POINT('',(-5.159264810565,96.354539628512,5.7));
#2017 = DIRECTION('',(0.,0.,1.));
#2018 = DIRECTION('',(1.,0.,-0.));
#2019 = ( GEOMETRIC_REPRESENTATION_CONTEXT(3) 
GLOBAL_UNCERTAINTY_ASSIGNED_CONTEXT((#2023)) 
GLOBAL_UNIT_ASSIGNED_CONTEXT((#2020,#2021,#2022)) REPRESENTATION_CONTEXT
('Context #1','3D Context with UNIT and UNCERTAINTY') );
#2020 = ( LENGTH_UNIT() NAMED_UNIT(*) SI_UNIT(.MILLI.,.METRE.) );
#2021 = ( NAMED_UNIT(*) PLANE_ANGLE_UNIT() SI_UNIT($,.RADIAN.) );
#2022 = ( NAMED_UNIT(*) SI_UNIT($,.STERADIAN.) SOLID_ANGLE_UNIT() );
#2023 = UNCERTAINTY_MEASURE_WITH_UNIT(LENGTH_MEASURE(2.E-07),#2020,
  'distance_accuracy_value','confusion accuracy');
#2024 = PRODUCT_RELATED_PRODUCT_CATEGORY('part',$,(#7));
ENDSEC;
END-ISO-10303-21;
