ISO-10303-21;
HEADER;
FILE_DESCRIPTION(('FreeCAD Model'),'2;1');
FILE_NAME('Open CASCADE Shape Model','2026-10-08T15:31:03',('FreeCAD'),(
    'FreeCAD'),'Open CASCADE STEP processor 7.8','FreeCAD','Unknown');
FILE_SCHEMA(('AUTOMOTIVE_DESIGN { 1 0 10303 214 1 1 1 1 }'));
ENDSEC;
DATA;
#1 = APPLICATION_PROTOCOL_DEFINITION('international standard',
  'automotive_design',2000,#2);
#2 = APPLICATION_CONTEXT(
  'core data for automotive mechanical design processes');
#3 = SHAPE_DEFINITION_REPRESENTATION(#4,#10);
#4 = PRODUCT_DEFINITION_SHAPE('','',#5);
#5 = PRODUCT_DEFINITION('design','',#6,#9);
#6 = PRODUCT_DEFINITION_FORMATION('','',#7);
#7 = PRODUCT('Open CASCADE STEP translator 7.8 47',
  'Open CASCADE STEP translator 7.8 47','',(#8));
#8 = PRODUCT_CONTEXT('',#2,'mechanical');
#9 = PRODUCT_DEFINITION_CONTEXT('part definition',#2,'design');
#10 = ADVANCED_BREP_SHAPE_REPRESENTATION('',(#11,#15),#969);
#11 = AXIS2_PLACEMENT_3D('',#12,#13,#14);
#12 = CARTESIAN_POINT('',(0.,0.,0.));
#13 = DIRECTION('',(0.,0.,1.));
#14 = DIRECTION('',(1.,0.,-0.));
#15 = MANIFOLD_SOLID_BREP('',#16);
#16 = CLOSED_SHELL('',(#17,#97,#128,#226,#257,#281,#298,#322,#346,#363,
    #406,#431,#456,#488,#505,#522,#546,#579,#596,#627,#651,#668,#692,
    #709,#726,#736,#769,#787,#805,#824,#848,#881,#914,#932,#950));
#17 = ADVANCED_FACE('',(#18),#92,.F.);
#18 = FACE_BOUND('',#19,.F.);
#19 = EDGE_LOOP('',(#20,#30,#38,#46,#54,#62,#70,#78,#86));
#20 = ORIENTED_EDGE('',*,*,#21,.F.);
#21 = EDGE_CURVE('',#22,#24,#26,.T.);
#22 = VERTEX_POINT('',#23);
#23 = CARTESIAN_POINT('',(196.88453871196,-25.53350216993,
    27.038399272182));
#24 = VERTEX_POINT('',#25);
#25 = CARTESIAN_POINT('',(176.69577392154,-0.871073827542,
    29.898190259852));
#26 = LINE('',#27,#28);
#27 = CARTESIAN_POINT('',(196.88453871196,-25.53350216993,
    27.038399272182));
#28 = VECTOR('',#29,1.);
#29 = DIRECTION('',(-0.630898899701,0.7707008857,8.936846836468E-02));
#30 = ORIENTED_EDGE('',*,*,#31,.F.);
#31 = EDGE_CURVE('',#32,#22,#34,.T.);
#32 = VERTEX_POINT('',#33);
#33 = CARTESIAN_POINT('',(195.9787950052,-24.42705313769,11.10242114479)
  );
#34 = LINE('',#35,#36);
#35 = CARTESIAN_POINT('',(195.9787950052,-24.42705313769,11.10242114479)
  );
#36 = VECTOR('',#37,1.);
#37 = DIRECTION('',(5.660898167254E-02,-6.915306451523E-02,
    0.995998632962));
#38 = ORIENTED_EDGE('',*,*,#39,.T.);
#39 = EDGE_CURVE('',#32,#40,#42,.T.);
#40 = VERTEX_POINT('',#41);
#41 = CARTESIAN_POINT('',(175.79003021478,0.235375204702,13.96221213246)
  );
#42 = LINE('',#43,#44);
#43 = CARTESIAN_POINT('',(195.9787950052,-24.42705313769,11.10242114479)
  );
#44 = VECTOR('',#45,1.);
#45 = DIRECTION('',(-0.630898899701,0.7707008857,8.936846836468E-02));
#46 = ORIENTED_EDGE('',*,*,#47,.T.);
#47 = EDGE_CURVE('',#40,#48,#50,.T.);
#48 = VERTEX_POINT('',#49);
#49 = CARTESIAN_POINT('',(176.01646614147,-4.123705335916E-02,
    17.946206664308));
#50 = LINE('',#51,#52);
#51 = CARTESIAN_POINT('',(175.79003021478,0.235375204702,13.96221213246)
  );
#52 = VECTOR('',#53,1.);
#53 = DIRECTION('',(5.660898167254E-02,-6.915306451523E-02,
    0.995998632962));
#54 = ORIENTED_EDGE('',*,*,#55,.T.);
#55 = EDGE_CURVE('',#48,#56,#58,.T.);
#56 = VERTEX_POINT('',#57);
#57 = CARTESIAN_POINT('',(177.59371339072,-1.967989267609,
    17.722785493396));
#58 = LINE('',#59,#60);
#59 = CARTESIAN_POINT('',(186.89947216131,-13.33582733168,
    16.404600585017));
#60 = VECTOR('',#61,1.);
#61 = DIRECTION('',(0.630898899701,-0.7707008857,-8.936846836468E-02));
#62 = ORIENTED_EDGE('',*,*,#63,.T.);
#63 = EDGE_CURVE('',#56,#64,#66,.T.);
#64 = VERTEX_POINT('',#65);
#65 = CARTESIAN_POINT('',(177.82014931741,-2.24460152567,21.706780025244
    ));
#66 = LINE('',#67,#68);
#67 = CARTESIAN_POINT('',(177.48049542737,-1.829683138578,
    15.730788227472));
#68 = VECTOR('',#69,1.);
#69 = DIRECTION('',(5.660898167254E-02,-6.915306451523E-02,
    0.995998632962));
#70 = ORIENTED_EDGE('',*,*,#71,.T.);
#71 = EDGE_CURVE('',#64,#72,#74,.T.);
#72 = VERTEX_POINT('',#73);
#73 = CARTESIAN_POINT('',(178.0465852441,-2.521213783731,25.690774557092
    ));
#74 = LINE('',#75,#76);
#75 = CARTESIAN_POINT('',(177.48049542737,-1.829683138578,
    15.730788227472));
#76 = VECTOR('',#77,1.);
#77 = DIRECTION('',(5.660898167254E-02,-6.915306451523E-02,
    0.995998632962));
#78 = ORIENTED_EDGE('',*,*,#79,.F.);
#79 = EDGE_CURVE('',#80,#72,#82,.T.);
#80 = VERTEX_POINT('',#81);
#81 = CARTESIAN_POINT('',(176.46933799485,-0.594461569481,
    25.914195728004));
#82 = LINE('',#83,#84);
#83 = CARTESIAN_POINT('',(187.35234401469,-13.8890518478,24.372589648713
    ));
#84 = VECTOR('',#85,1.);
#85 = DIRECTION('',(0.630898899701,-0.7707008857,-8.936846836468E-02));
#86 = ORIENTED_EDGE('',*,*,#87,.T.);
#87 = EDGE_CURVE('',#80,#24,#88,.T.);
#88 = LINE('',#89,#90);
#89 = CARTESIAN_POINT('',(175.79003021478,0.235375204702,13.96221213246)
  );
#90 = VECTOR('',#91,1.);
#91 = DIRECTION('',(5.660898167254E-02,-6.915306451523E-02,
    0.995998632962));
#92 = PLANE('',#93);
#93 = AXIS2_PLACEMENT_3D('',#94,#95,#96);
#94 = CARTESIAN_POINT('',(195.9787950052,-24.42705313769,11.10242114479)
  );
#95 = DIRECTION('',(0.773797132038,0.633433499627,0.));
#96 = DIRECTION('',(5.660898167254E-02,-6.915306451523E-02,
    0.995998632962));
#97 = ADVANCED_FACE('',(#98),#123,.T.);
#98 = FACE_BOUND('',#99,.T.);
#99 = EDGE_LOOP('',(#100,#101,#109,#117));
#100 = ORIENTED_EDGE('',*,*,#21,.F.);
#101 = ORIENTED_EDGE('',*,*,#102,.T.);
#102 = EDGE_CURVE('',#22,#103,#105,.T.);
#103 = VERTEX_POINT('',#104);
#104 = CARTESIAN_POINT('',(215.45566988088,-10.33109817889,
    27.038399272182));
#105 = LINE('',#106,#107);
#106 = CARTESIAN_POINT('',(196.88453871196,-25.53350216993,
    27.038399272182));
#107 = VECTOR('',#108,1.);
#108 = DIRECTION('',(0.773797132038,0.633433499627,0.));
#109 = ORIENTED_EDGE('',*,*,#110,.T.);
#110 = EDGE_CURVE('',#103,#111,#113,.T.);
#111 = VERTEX_POINT('',#112);
#112 = CARTESIAN_POINT('',(195.26690509045,14.331330163504,
    29.898190259852));
#113 = LINE('',#114,#115);
#114 = CARTESIAN_POINT('',(215.45566988088,-10.33109817889,
    27.038399272182));
#115 = VECTOR('',#116,1.);
#116 = DIRECTION('',(-0.630898899701,0.7707008857,8.936846836468E-02));
#117 = ORIENTED_EDGE('',*,*,#118,.F.);
#118 = EDGE_CURVE('',#24,#111,#119,.T.);
#119 = LINE('',#120,#121);
#120 = CARTESIAN_POINT('',(176.69577392154,-0.871073827542,
    29.898190259852));
#121 = VECTOR('',#122,1.);
#122 = DIRECTION('',(0.773797132038,0.633433499627,0.));
#123 = PLANE('',#124);
#124 = AXIS2_PLACEMENT_3D('',#125,#126,#127);
#125 = CARTESIAN_POINT('',(196.88453871196,-25.53350216993,
    27.038399272182));
#126 = DIRECTION('',(5.660898167254E-02,-6.915306451523E-02,
    0.995998632962));
#127 = DIRECTION('',(0.773797132038,0.633433499627,0.));
#128 = ADVANCED_FACE('',(#129,#202),#221,.T.);
#129 = FACE_BOUND('',#130,.T.);
#130 = EDGE_LOOP('',(#131,#141,#147,#148,#156,#164,#170,#171,#172,#180,
    #188,#196));
#131 = ORIENTED_EDGE('',*,*,#132,.F.);
#132 = EDGE_CURVE('',#133,#135,#137,.T.);
#133 = VERTEX_POINT('',#134);
#134 = CARTESIAN_POINT('',(194.36116138369,15.437779195748,
    13.96221213246));
#135 = VERTEX_POINT('',#136);
#136 = CARTESIAN_POINT('',(194.58759731038,15.161166937687,
    17.946206664308));
#137 = LINE('',#138,#139);
#138 = CARTESIAN_POINT('',(194.36116138369,15.437779195748,
    13.96221213246));
#139 = VECTOR('',#140,1.);
#140 = DIRECTION('',(5.660898167254E-02,-6.915306451523E-02,
    0.995998632962));
#141 = ORIENTED_EDGE('',*,*,#142,.F.);
#142 = EDGE_CURVE('',#40,#133,#143,.T.);
#143 = LINE('',#144,#145);
#144 = CARTESIAN_POINT('',(175.79003021478,0.235375204702,13.96221213246
    ));
#145 = VECTOR('',#146,1.);
#146 = DIRECTION('',(0.773797132038,0.633433499627,0.));
#147 = ORIENTED_EDGE('',*,*,#47,.T.);
#148 = ORIENTED_EDGE('',*,*,#149,.T.);
#149 = EDGE_CURVE('',#48,#150,#152,.T.);
#150 = VERTEX_POINT('',#151);
#151 = CARTESIAN_POINT('',(177.56406040554,1.225629945895,
    17.946206664308));
#152 = LINE('',#153,#154);
#153 = CARTESIAN_POINT('',(172.92127761332,-2.574971051867,
    17.946206664308));
#154 = VECTOR('',#155,1.);
#155 = DIRECTION('',(0.773797132038,0.633433499627,0.));
#156 = ORIENTED_EDGE('',*,*,#157,.T.);
#157 = EDGE_CURVE('',#150,#158,#160,.T.);
#158 = VERTEX_POINT('',#159);
#159 = CARTESIAN_POINT('',(178.01693225892,0.672405429773,
    25.914195728004));
#160 = LINE('',#161,#162);
#161 = CARTESIAN_POINT('',(177.56406040554,1.225629945895,
    17.946206664308));
#162 = VECTOR('',#163,1.);
#163 = DIRECTION('',(5.660898167254E-02,-6.915306451523E-02,
    0.995998632962));
#164 = ORIENTED_EDGE('',*,*,#165,.F.);
#165 = EDGE_CURVE('',#80,#158,#166,.T.);
#166 = LINE('',#167,#168);
#167 = CARTESIAN_POINT('',(173.3741494667,-3.128195567989,
    25.914195728004));
#168 = VECTOR('',#169,1.);
#169 = DIRECTION('',(0.773797132038,0.633433499627,0.));
#170 = ORIENTED_EDGE('',*,*,#87,.T.);
#171 = ORIENTED_EDGE('',*,*,#118,.T.);
#172 = ORIENTED_EDGE('',*,*,#173,.F.);
#173 = EDGE_CURVE('',#174,#111,#176,.T.);
#174 = VERTEX_POINT('',#175);
#175 = CARTESIAN_POINT('',(195.04046916376,14.607942421565,
    25.914195728004));
#176 = LINE('',#177,#178);
#177 = CARTESIAN_POINT('',(194.36116138369,15.437779195748,
    13.96221213246));
#178 = VECTOR('',#179,1.);
#179 = DIRECTION('',(5.660898167254E-02,-6.915306451523E-02,
    0.995998632962));
#180 = ORIENTED_EDGE('',*,*,#181,.F.);
#181 = EDGE_CURVE('',#182,#174,#184,.T.);
#182 = VERTEX_POINT('',#183);
#183 = CARTESIAN_POINT('',(193.49287489969,13.341075422311,
    25.914195728004));
#184 = LINE('',#185,#186);
#185 = CARTESIAN_POINT('',(193.49287489969,13.341075422311,
    25.914195728004));
#186 = VECTOR('',#187,1.);
#187 = DIRECTION('',(0.773797132038,0.633433499627,0.));
#188 = ORIENTED_EDGE('',*,*,#189,.F.);
#189 = EDGE_CURVE('',#190,#182,#192,.T.);
#190 = VERTEX_POINT('',#191);
#191 = CARTESIAN_POINT('',(193.04000304631,13.894299938433,
    17.946206664308));
#192 = LINE('',#193,#194);
#193 = CARTESIAN_POINT('',(193.04000304631,13.894299938433,
    17.946206664308));
#194 = VECTOR('',#195,1.);
#195 = DIRECTION('',(5.660898167254E-02,-6.915306451523E-02,
    0.995998632962));
#196 = ORIENTED_EDGE('',*,*,#197,.T.);
#197 = EDGE_CURVE('',#190,#135,#198,.T.);
#198 = LINE('',#199,#200);
#199 = CARTESIAN_POINT('',(193.04000304631,13.894299938433,
    17.946206664308));
#200 = VECTOR('',#201,1.);
#201 = DIRECTION('',(0.773797132038,0.633433499627,0.));
#202 = FACE_BOUND('',#203,.T.);
#203 = EDGE_LOOP('',(#204,#215));
#204 = ORIENTED_EDGE('',*,*,#205,.F.);
#205 = EDGE_CURVE('',#206,#208,#210,.T.);
#206 = VERTEX_POINT('',#207);
#207 = CARTESIAN_POINT('',(186.4502081283,7.922399801783,22.926199829118
    ));
#208 = VERTEX_POINT('',#209);
#209 = CARTESIAN_POINT('',(184.71994514027,6.505999437392,
    22.926199829118));
#210 = CIRCLE('',#211,1.5);
#211 = AXIS2_PLACEMENT_3D('',#212,#213,#214);
#212 = CARTESIAN_POINT('',(185.52846765262,7.283352684103,
    21.930201196156));
#213 = DIRECTION('',(-0.630898899701,0.7707008857,8.936846836468E-02));
#214 = DIRECTION('',(5.660898167254E-02,-6.915306451523E-02,
    0.995998632962));
#215 = ORIENTED_EDGE('',*,*,#216,.F.);
#216 = EDGE_CURVE('',#208,#206,#217,.T.);
#217 = LINE('',#218,#219);
#218 = CARTESIAN_POINT('',(179.97504742701,2.621806747293,
    22.926199829118));
#219 = VECTOR('',#220,1.);
#220 = DIRECTION('',(0.773797132038,0.633433499627,0.));
#221 = PLANE('',#222);
#222 = AXIS2_PLACEMENT_3D('',#223,#224,#225);
#223 = CARTESIAN_POINT('',(175.79003021478,0.235375204702,13.96221213246
    ));
#224 = DIRECTION('',(-0.630898899701,0.7707008857,8.936846836468E-02));
#225 = DIRECTION('',(5.660898167254E-02,-6.915306451523E-02,
    0.995998632962));
#226 = ADVANCED_FACE('',(#227),#252,.T.);
#227 = FACE_BOUND('',#228,.T.);
#228 = EDGE_LOOP('',(#229,#237,#245,#251));
#229 = ORIENTED_EDGE('',*,*,#230,.F.);
#230 = EDGE_CURVE('',#231,#80,#233,.T.);
#231 = VERTEX_POINT('',#232);
#232 = CARTESIAN_POINT('',(173.3741494667,-3.128195567989,
    25.914195728004));
#233 = LINE('',#234,#235);
#234 = CARTESIAN_POINT('',(173.3741494667,-3.128195567989,
    25.914195728004));
#235 = VECTOR('',#236,1.);
#236 = DIRECTION('',(0.773797132038,0.633433499627,0.));
#237 = ORIENTED_EDGE('',*,*,#238,.F.);
#238 = EDGE_CURVE('',#239,#231,#241,.T.);
#239 = VERTEX_POINT('',#240);
#240 = CARTESIAN_POINT('',(174.95139671595,-5.054947782238,
    25.690774557092));
#241 = LINE('',#242,#243);
#242 = CARTESIAN_POINT('',(174.95139671595,-5.054947782238,
    25.690774557092));
#243 = VECTOR('',#244,1.);
#244 = DIRECTION('',(-0.630898899701,0.7707008857,8.936846836468E-02));
#245 = ORIENTED_EDGE('',*,*,#246,.T.);
#246 = EDGE_CURVE('',#239,#72,#247,.T.);
#247 = LINE('',#248,#249);
#248 = CARTESIAN_POINT('',(174.95139671595,-5.054947782238,
    25.690774557092));
#249 = VECTOR('',#250,1.);
#250 = DIRECTION('',(0.773797132038,0.633433499627,0.));
#251 = ORIENTED_EDGE('',*,*,#79,.F.);
#252 = PLANE('',#253);
#253 = AXIS2_PLACEMENT_3D('',#254,#255,#256);
#254 = CARTESIAN_POINT('',(174.95139671595,-5.054947782238,
    25.690774557092));
#255 = DIRECTION('',(5.660898167254E-02,-6.915306451523E-02,
    0.995998632962));
#256 = DIRECTION('',(0.773797132038,0.633433499627,0.));
#257 = ADVANCED_FACE('',(#258),#276,.F.);
#258 = FACE_BOUND('',#259,.F.);
#259 = EDGE_LOOP('',(#260,#268,#275));
#260 = ORIENTED_EDGE('',*,*,#261,.F.);
#261 = EDGE_CURVE('',#262,#56,#264,.T.);
#262 = VERTEX_POINT('',#263);
#263 = CARTESIAN_POINT('',(174.49852486257,-4.501723266116,
    17.722785493396));
#264 = LINE('',#265,#266);
#265 = CARTESIAN_POINT('',(174.49852486257,-4.501723266116,
    17.722785493396));
#266 = VECTOR('',#267,1.);
#267 = DIRECTION('',(0.773797132038,0.633433499627,0.));
#268 = ORIENTED_EDGE('',*,*,#269,.F.);
#269 = EDGE_CURVE('',#64,#262,#270,.T.);
#270 = CIRCLE('',#271,4.);
#271 = AXIS2_PLACEMENT_3D('',#272,#273,#274);
#272 = CARTESIAN_POINT('',(174.72496078926,-4.778335524177,
    21.706780025244));
#273 = DIRECTION('',(-0.630898899701,0.7707008857,8.936846836468E-02));
#274 = DIRECTION('',(5.660898167254E-02,-6.915306451523E-02,
    0.995998632962));
#275 = ORIENTED_EDGE('',*,*,#63,.F.);
#276 = PLANE('',#277);
#277 = AXIS2_PLACEMENT_3D('',#278,#279,#280);
#278 = CARTESIAN_POINT('',(174.49852486257,-4.501723266116,
    17.722785493396));
#279 = DIRECTION('',(-0.630898899701,0.7707008857,8.936846836468E-02));
#280 = DIRECTION('',(5.660898167254E-02,-6.915306451523E-02,
    0.995998632962));
#281 = ADVANCED_FACE('',(#282),#293,.F.);
#282 = FACE_BOUND('',#283,.F.);
#283 = EDGE_LOOP('',(#284,#291,#292));
#284 = ORIENTED_EDGE('',*,*,#285,.F.);
#285 = EDGE_CURVE('',#239,#64,#286,.T.);
#286 = CIRCLE('',#287,4.);
#287 = AXIS2_PLACEMENT_3D('',#288,#289,#290);
#288 = CARTESIAN_POINT('',(174.72496078926,-4.778335524177,
    21.706780025244));
#289 = DIRECTION('',(-0.630898899701,0.7707008857,8.936846836468E-02));
#290 = DIRECTION('',(5.660898167254E-02,-6.915306451523E-02,
    0.995998632962));
#291 = ORIENTED_EDGE('',*,*,#246,.T.);
#292 = ORIENTED_EDGE('',*,*,#71,.F.);
#293 = PLANE('',#294);
#294 = AXIS2_PLACEMENT_3D('',#295,#296,#297);
#295 = CARTESIAN_POINT('',(174.49852486257,-4.501723266116,
    17.722785493396));
#296 = DIRECTION('',(-0.630898899701,0.7707008857,8.936846836468E-02));
#297 = DIRECTION('',(5.660898167254E-02,-6.915306451523E-02,
    0.995998632962));
#298 = ADVANCED_FACE('',(#299),#317,.F.);
#299 = FACE_BOUND('',#300,.F.);
#300 = EDGE_LOOP('',(#301,#309,#315,#316));
#301 = ORIENTED_EDGE('',*,*,#302,.F.);
#302 = EDGE_CURVE('',#303,#48,#305,.T.);
#303 = VERTEX_POINT('',#304);
#304 = CARTESIAN_POINT('',(172.92127761332,-2.574971051867,
    17.946206664308));
#305 = LINE('',#306,#307);
#306 = CARTESIAN_POINT('',(172.92127761332,-2.574971051867,
    17.946206664308));
#307 = VECTOR('',#308,1.);
#308 = DIRECTION('',(0.773797132038,0.633433499627,0.));
#309 = ORIENTED_EDGE('',*,*,#310,.F.);
#310 = EDGE_CURVE('',#262,#303,#311,.T.);
#311 = LINE('',#312,#313);
#312 = CARTESIAN_POINT('',(174.49852486257,-4.501723266116,
    17.722785493396));
#313 = VECTOR('',#314,1.);
#314 = DIRECTION('',(-0.630898899701,0.7707008857,8.936846836468E-02));
#315 = ORIENTED_EDGE('',*,*,#261,.T.);
#316 = ORIENTED_EDGE('',*,*,#55,.F.);
#317 = PLANE('',#318);
#318 = AXIS2_PLACEMENT_3D('',#319,#320,#321);
#319 = CARTESIAN_POINT('',(174.49852486257,-4.501723266116,
    17.722785493396));
#320 = DIRECTION('',(5.660898167254E-02,-6.915306451523E-02,
    0.995998632962));
#321 = DIRECTION('',(0.773797132038,0.633433499627,0.));
#322 = ADVANCED_FACE('',(#323),#341,.F.);
#323 = FACE_BOUND('',#324,.F.);
#324 = EDGE_LOOP('',(#325,#326,#334,#340));
#325 = ORIENTED_EDGE('',*,*,#39,.F.);
#326 = ORIENTED_EDGE('',*,*,#327,.T.);
#327 = EDGE_CURVE('',#32,#328,#330,.T.);
#328 = VERTEX_POINT('',#329);
#329 = CARTESIAN_POINT('',(214.54992617412,-9.224649146648,
    11.10242114479));
#330 = LINE('',#331,#332);
#331 = CARTESIAN_POINT('',(195.9787950052,-24.42705313769,11.10242114479
    ));
#332 = VECTOR('',#333,1.);
#333 = DIRECTION('',(0.773797132038,0.633433499627,0.));
#334 = ORIENTED_EDGE('',*,*,#335,.T.);
#335 = EDGE_CURVE('',#328,#133,#336,.T.);
#336 = LINE('',#337,#338);
#337 = CARTESIAN_POINT('',(214.54992617412,-9.224649146648,
    11.10242114479));
#338 = VECTOR('',#339,1.);
#339 = DIRECTION('',(-0.630898899701,0.7707008857,8.936846836468E-02));
#340 = ORIENTED_EDGE('',*,*,#142,.F.);
#341 = PLANE('',#342);
#342 = AXIS2_PLACEMENT_3D('',#343,#344,#345);
#343 = CARTESIAN_POINT('',(195.9787950052,-24.42705313769,11.10242114479
    ));
#344 = DIRECTION('',(5.660898167254E-02,-6.915306451523E-02,
    0.995998632962));
#345 = DIRECTION('',(0.773797132038,0.633433499627,0.));
#346 = ADVANCED_FACE('',(#347),#358,.F.);
#347 = FACE_BOUND('',#348,.F.);
#348 = EDGE_LOOP('',(#349,#350,#351,#352));
#349 = ORIENTED_EDGE('',*,*,#327,.F.);
#350 = ORIENTED_EDGE('',*,*,#31,.T.);
#351 = ORIENTED_EDGE('',*,*,#102,.T.);
#352 = ORIENTED_EDGE('',*,*,#353,.F.);
#353 = EDGE_CURVE('',#328,#103,#354,.T.);
#354 = LINE('',#355,#356);
#355 = CARTESIAN_POINT('',(214.54992617412,-9.224649146648,
    11.10242114479));
#356 = VECTOR('',#357,1.);
#357 = DIRECTION('',(5.660898167254E-02,-6.915306451523E-02,
    0.995998632962));
#358 = PLANE('',#359);
#359 = AXIS2_PLACEMENT_3D('',#360,#361,#362);
#360 = CARTESIAN_POINT('',(195.9787950052,-24.42705313769,11.10242114479
    ));
#361 = DIRECTION('',(-0.630898899701,0.7707008857,8.936846836468E-02));
#362 = DIRECTION('',(5.660898167254E-02,-6.915306451523E-02,
    0.995998632962));
#363 = ADVANCED_FACE('',(#364),#401,.T.);
#364 = FACE_BOUND('',#365,.T.);
#365 = EDGE_LOOP('',(#366,#367,#368,#369,#370,#378,#386,#394,#400));
#366 = ORIENTED_EDGE('',*,*,#110,.F.);
#367 = ORIENTED_EDGE('',*,*,#353,.F.);
#368 = ORIENTED_EDGE('',*,*,#335,.T.);
#369 = ORIENTED_EDGE('',*,*,#132,.T.);
#370 = ORIENTED_EDGE('',*,*,#371,.T.);
#371 = EDGE_CURVE('',#135,#372,#374,.T.);
#372 = VERTEX_POINT('',#373);
#373 = CARTESIAN_POINT('',(196.16484455963,13.234414723437,
    17.722785493396));
#374 = LINE('',#375,#376);
#375 = CARTESIAN_POINT('',(205.47060333022,1.866576659364,
    16.404600585017));
#376 = VECTOR('',#377,1.);
#377 = DIRECTION('',(0.630898899701,-0.7707008857,-8.936846836468E-02));
#378 = ORIENTED_EDGE('',*,*,#379,.T.);
#379 = EDGE_CURVE('',#372,#380,#382,.T.);
#380 = VERTEX_POINT('',#381);
#381 = CARTESIAN_POINT('',(196.39128048632,12.957802465376,
    21.706780025244));
#382 = LINE('',#383,#384);
#383 = CARTESIAN_POINT('',(196.05162659629,13.372720852467,
    15.730788227472));
#384 = VECTOR('',#385,1.);
#385 = DIRECTION('',(5.660898167254E-02,-6.915306451523E-02,
    0.995998632962));
#386 = ORIENTED_EDGE('',*,*,#387,.T.);
#387 = EDGE_CURVE('',#380,#388,#390,.T.);
#388 = VERTEX_POINT('',#389);
#389 = CARTESIAN_POINT('',(196.61771641301,12.681190207315,
    25.690774557092));
#390 = LINE('',#391,#392);
#391 = CARTESIAN_POINT('',(196.05162659629,13.372720852467,
    15.730788227472));
#392 = VECTOR('',#393,1.);
#393 = DIRECTION('',(5.660898167254E-02,-6.915306451523E-02,
    0.995998632962));
#394 = ORIENTED_EDGE('',*,*,#395,.F.);
#395 = EDGE_CURVE('',#174,#388,#396,.T.);
#396 = LINE('',#397,#398);
#397 = CARTESIAN_POINT('',(205.9234751836,1.313352143242,24.372589648713
    ));
#398 = VECTOR('',#399,1.);
#399 = DIRECTION('',(0.630898899701,-0.7707008857,-8.936846836468E-02));
#400 = ORIENTED_EDGE('',*,*,#173,.T.);
#401 = PLANE('',#402);
#402 = AXIS2_PLACEMENT_3D('',#403,#404,#405);
#403 = CARTESIAN_POINT('',(214.54992617412,-9.224649146648,
    11.10242114479));
#404 = DIRECTION('',(0.773797132038,0.633433499627,0.));
#405 = DIRECTION('',(5.660898167254E-02,-6.915306451523E-02,
    0.995998632962));
#406 = ADVANCED_FACE('',(#407),#426,.T.);
#407 = FACE_BOUND('',#408,.T.);
#408 = EDGE_LOOP('',(#409,#417,#418,#419,#420));
#409 = ORIENTED_EDGE('',*,*,#410,.F.);
#410 = EDGE_CURVE('',#135,#411,#413,.T.);
#411 = VERTEX_POINT('',#412);
#412 = CARTESIAN_POINT('',(194.81403323613,14.884554680772,
    21.930201179651));
#413 = LINE('',#414,#415);
#414 = CARTESIAN_POINT('',(194.36116138369,15.437779195748,
    13.96221213246));
#415 = VECTOR('',#416,1.);
#416 = DIRECTION('',(5.660898167254E-02,-6.915306451523E-02,
    0.995998632962));
#417 = ORIENTED_EDGE('',*,*,#197,.F.);
#418 = ORIENTED_EDGE('',*,*,#189,.T.);
#419 = ORIENTED_EDGE('',*,*,#181,.T.);
#420 = ORIENTED_EDGE('',*,*,#421,.F.);
#421 = EDGE_CURVE('',#411,#174,#422,.T.);
#422 = LINE('',#423,#424);
#423 = CARTESIAN_POINT('',(194.36116138369,15.437779195748,
    13.96221213246));
#424 = VECTOR('',#425,1.);
#425 = DIRECTION('',(5.660898167254E-02,-6.915306451523E-02,
    0.995998632962));
#426 = PLANE('',#427);
#427 = AXIS2_PLACEMENT_3D('',#428,#429,#430);
#428 = CARTESIAN_POINT('',(175.79003021478,0.235375204702,13.96221213246
    ));
#429 = DIRECTION('',(-0.630898899701,0.7707008857,8.936846836468E-02));
#430 = DIRECTION('',(5.660898167254E-02,-6.915306451523E-02,
    0.995998632962));
#431 = ADVANCED_FACE('',(#432),#451,.T.);
#432 = FACE_BOUND('',#433,.T.);
#433 = EDGE_LOOP('',(#434,#435,#443,#449,#450));
#434 = ORIENTED_EDGE('',*,*,#149,.F.);
#435 = ORIENTED_EDGE('',*,*,#436,.T.);
#436 = EDGE_CURVE('',#48,#437,#439,.T.);
#437 = VERTEX_POINT('',#438);
#438 = CARTESIAN_POINT('',(176.24290206816,-0.31784931142,
    21.930201196156));
#439 = LINE('',#440,#441);
#440 = CARTESIAN_POINT('',(175.79003021478,0.235375204702,13.96221213246
    ));
#441 = VECTOR('',#442,1.);
#442 = DIRECTION('',(5.660898167254E-02,-6.915306451523E-02,
    0.995998632962));
#443 = ORIENTED_EDGE('',*,*,#444,.T.);
#444 = EDGE_CURVE('',#437,#80,#445,.T.);
#445 = LINE('',#446,#447);
#446 = CARTESIAN_POINT('',(175.79003021478,0.235375204702,13.96221213246
    ));
#447 = VECTOR('',#448,1.);
#448 = DIRECTION('',(5.660898167254E-02,-6.915306451523E-02,
    0.995998632962));
#449 = ORIENTED_EDGE('',*,*,#165,.T.);
#450 = ORIENTED_EDGE('',*,*,#157,.F.);
#451 = PLANE('',#452);
#452 = AXIS2_PLACEMENT_3D('',#453,#454,#455);
#453 = CARTESIAN_POINT('',(175.79003021478,0.235375204702,13.96221213246
    ));
#454 = DIRECTION('',(-0.630898899701,0.7707008857,8.936846836468E-02));
#455 = DIRECTION('',(5.660898167254E-02,-6.915306451523E-02,
    0.995998632962));
#456 = ADVANCED_FACE('',(#457),#483,.T.);
#457 = FACE_BOUND('',#458,.T.);
#458 = EDGE_LOOP('',(#459,#470,#476,#477));
#459 = ORIENTED_EDGE('',*,*,#460,.F.);
#460 = EDGE_CURVE('',#461,#463,#465,.T.);
#461 = VERTEX_POINT('',#462);
#462 = CARTESIAN_POINT('',(182.16009561034,13.163165824542,
    23.533905413998));
#463 = VERTEX_POINT('',#464);
#464 = CARTESIAN_POINT('',(180.42983262231,11.746765460151,
    23.533905413998));
#465 = CIRCLE('',#466,1.5);
#466 = AXIS2_PLACEMENT_3D('',#467,#468,#469);
#467 = CARTESIAN_POINT('',(181.23835513465,12.524118706862,
    22.537906781036));
#468 = DIRECTION('',(-0.630898899701,0.7707008857,8.936846836468E-02));
#469 = DIRECTION('',(5.660898167254E-02,-6.915306451523E-02,
    0.995998632962));
#470 = ORIENTED_EDGE('',*,*,#471,.F.);
#471 = EDGE_CURVE('',#206,#461,#472,.T.);
#472 = LINE('',#473,#474);
#473 = CARTESIAN_POINT('',(188.02745537756,5.995647587534,
    22.702778658206));
#474 = VECTOR('',#475,1.);
#475 = DIRECTION('',(-0.630898899701,0.7707008857,8.936846836468E-02));
#476 = ORIENTED_EDGE('',*,*,#205,.T.);
#477 = ORIENTED_EDGE('',*,*,#478,.T.);
#478 = EDGE_CURVE('',#208,#463,#479,.T.);
#479 = LINE('',#480,#481);
#480 = CARTESIAN_POINT('',(186.29719238952,4.579247223142,
    22.702778658206));
#481 = VECTOR('',#482,1.);
#482 = DIRECTION('',(-0.630898899701,0.7707008857,8.936846836468E-02));
#483 = CYLINDRICAL_SURFACE('',#484,1.5);
#484 = AXIS2_PLACEMENT_3D('',#485,#486,#487);
#485 = CARTESIAN_POINT('',(187.10571490187,5.356600469853,
    21.706780025244));
#486 = DIRECTION('',(-0.630898899701,0.7707008857,8.936846836468E-02));
#487 = DIRECTION('',(5.660898167254E-02,-6.915306451523E-02,
    0.995998632962));
#488 = ADVANCED_FACE('',(#489),#500,.T.);
#489 = FACE_BOUND('',#490,.T.);
#490 = EDGE_LOOP('',(#491,#492,#493,#494));
#491 = ORIENTED_EDGE('',*,*,#478,.F.);
#492 = ORIENTED_EDGE('',*,*,#216,.T.);
#493 = ORIENTED_EDGE('',*,*,#471,.T.);
#494 = ORIENTED_EDGE('',*,*,#495,.F.);
#495 = EDGE_CURVE('',#463,#461,#496,.T.);
#496 = LINE('',#497,#498);
#497 = CARTESIAN_POINT('',(180.32771770128,11.663173767813,
    23.533905413998));
#498 = VECTOR('',#499,1.);
#499 = DIRECTION('',(0.773797132038,0.633433499627,0.));
#500 = PLANE('',#501);
#501 = AXIS2_PLACEMENT_3D('',#502,#503,#504);
#502 = CARTESIAN_POINT('',(185.5432805033,3.318513213421,22.658094424024
    ));
#503 = DIRECTION('',(5.660898167254E-02,-6.915306451523E-02,
    0.995998632962));
#504 = DIRECTION('',(0.773797132038,0.633433499627,0.));
#505 = ADVANCED_FACE('',(#506),#517,.T.);
#506 = FACE_BOUND('',#507,.T.);
#507 = EDGE_LOOP('',(#508,#515,#516));
#508 = ORIENTED_EDGE('',*,*,#509,.F.);
#509 = EDGE_CURVE('',#231,#437,#510,.T.);
#510 = CIRCLE('',#511,4.);
#511 = AXIS2_PLACEMENT_3D('',#512,#513,#514);
#512 = CARTESIAN_POINT('',(173.14771354001,-2.851583309928,
    21.930201196156));
#513 = DIRECTION('',(-0.630898899701,0.7707008857,8.936846836468E-02));
#514 = DIRECTION('',(5.660898167254E-02,-6.915306451523E-02,
    0.995998632962));
#515 = ORIENTED_EDGE('',*,*,#230,.T.);
#516 = ORIENTED_EDGE('',*,*,#444,.F.);
#517 = PLANE('',#518);
#518 = AXIS2_PLACEMENT_3D('',#519,#520,#521);
#519 = CARTESIAN_POINT('',(172.92127761332,-2.574971051867,
    17.946206664308));
#520 = DIRECTION('',(-0.630898899701,0.7707008857,8.936846836468E-02));
#521 = DIRECTION('',(5.660898167254E-02,-6.915306451523E-02,
    0.995998632962));
#522 = ADVANCED_FACE('',(#523),#541,.T.);
#523 = FACE_BOUND('',#524,.T.);
#524 = EDGE_LOOP('',(#525,#532,#533,#540));
#525 = ORIENTED_EDGE('',*,*,#526,.F.);
#526 = EDGE_CURVE('',#303,#231,#527,.T.);
#527 = CIRCLE('',#528,4.);
#528 = AXIS2_PLACEMENT_3D('',#529,#530,#531);
#529 = CARTESIAN_POINT('',(173.14771354001,-2.851583309928,
    21.930201196156));
#530 = DIRECTION('',(-0.630898899701,0.7707008857,8.936846836468E-02));
#531 = DIRECTION('',(5.660898167254E-02,-6.915306451523E-02,
    0.995998632962));
#532 = ORIENTED_EDGE('',*,*,#310,.F.);
#533 = ORIENTED_EDGE('',*,*,#534,.T.);
#534 = EDGE_CURVE('',#262,#239,#535,.T.);
#535 = CIRCLE('',#536,4.);
#536 = AXIS2_PLACEMENT_3D('',#537,#538,#539);
#537 = CARTESIAN_POINT('',(174.72496078926,-4.778335524177,
    21.706780025244));
#538 = DIRECTION('',(-0.630898899701,0.7707008857,8.936846836468E-02));
#539 = DIRECTION('',(5.660898167254E-02,-6.915306451523E-02,
    0.995998632962));
#540 = ORIENTED_EDGE('',*,*,#238,.T.);
#541 = CYLINDRICAL_SURFACE('',#542,4.);
#542 = AXIS2_PLACEMENT_3D('',#543,#544,#545);
#543 = CARTESIAN_POINT('',(174.72496078926,-4.778335524177,
    21.706780025244));
#544 = DIRECTION('',(-0.630898899701,0.7707008857,8.936846836468E-02));
#545 = DIRECTION('',(5.660898167254E-02,-6.915306451523E-02,
    0.995998632962));
#546 = ADVANCED_FACE('',(#547),#574,.F.);
#547 = FACE_BOUND('',#548,.F.);
#548 = EDGE_LOOP('',(#549,#550,#551,#559,#568));
#549 = ORIENTED_EDGE('',*,*,#285,.T.);
#550 = ORIENTED_EDGE('',*,*,#269,.T.);
#551 = ORIENTED_EDGE('',*,*,#552,.T.);
#552 = EDGE_CURVE('',#262,#553,#555,.T.);
#553 = VERTEX_POINT('',#554);
#554 = CARTESIAN_POINT('',(174.61174282591,-4.640029395147,
    19.71478275932));
#555 = LINE('',#556,#557);
#556 = CARTESIAN_POINT('',(174.49852486257,-4.501723266116,
    17.722785493396));
#557 = VECTOR('',#558,1.);
#558 = DIRECTION('',(5.660898167254E-02,-6.915306451523E-02,
    0.995998632962));
#559 = ORIENTED_EDGE('',*,*,#560,.F.);
#560 = EDGE_CURVE('',#561,#553,#563,.T.);
#561 = VERTEX_POINT('',#562);
#562 = CARTESIAN_POINT('',(174.8381787526,-4.916641653208,
    23.698777291168));
#563 = CIRCLE('',#564,2.);
#564 = AXIS2_PLACEMENT_3D('',#565,#566,#567);
#565 = CARTESIAN_POINT('',(174.72496078926,-4.778335524177,
    21.706780025244));
#566 = DIRECTION('',(-0.630898899701,0.7707008857,8.936846836468E-02));
#567 = DIRECTION('',(5.660898167254E-02,-6.915306451523E-02,
    0.995998632962));
#568 = ORIENTED_EDGE('',*,*,#569,.T.);
#569 = EDGE_CURVE('',#561,#239,#570,.T.);
#570 = LINE('',#571,#572);
#571 = CARTESIAN_POINT('',(174.49852486257,-4.501723266116,
    17.722785493396));
#572 = VECTOR('',#573,1.);
#573 = DIRECTION('',(5.660898167254E-02,-6.915306451523E-02,
    0.995998632962));
#574 = PLANE('',#575);
#575 = AXIS2_PLACEMENT_3D('',#576,#577,#578);
#576 = CARTESIAN_POINT('',(174.49852486257,-4.501723266116,
    17.722785493396));
#577 = DIRECTION('',(-0.630898899701,0.7707008857,8.936846836468E-02));
#578 = DIRECTION('',(5.660898167254E-02,-6.915306451523E-02,
    0.995998632962));
#579 = ADVANCED_FACE('',(#580),#591,.T.);
#580 = FACE_BOUND('',#581,.T.);
#581 = EDGE_LOOP('',(#582,#583,#590));
#582 = ORIENTED_EDGE('',*,*,#302,.F.);
#583 = ORIENTED_EDGE('',*,*,#584,.F.);
#584 = EDGE_CURVE('',#437,#303,#585,.T.);
#585 = CIRCLE('',#586,4.);
#586 = AXIS2_PLACEMENT_3D('',#587,#588,#589);
#587 = CARTESIAN_POINT('',(173.14771354001,-2.851583309928,
    21.930201196156));
#588 = DIRECTION('',(-0.630898899701,0.7707008857,8.936846836468E-02));
#589 = DIRECTION('',(5.660898167254E-02,-6.915306451523E-02,
    0.995998632962));
#590 = ORIENTED_EDGE('',*,*,#436,.F.);
#591 = PLANE('',#592);
#592 = AXIS2_PLACEMENT_3D('',#593,#594,#595);
#593 = CARTESIAN_POINT('',(172.92127761332,-2.574971051867,
    17.946206664308));
#594 = DIRECTION('',(-0.630898899701,0.7707008857,8.936846836468E-02));
#595 = DIRECTION('',(5.660898167254E-02,-6.915306451523E-02,
    0.995998632962));
#596 = ADVANCED_FACE('',(#597),#622,.T.);
#597 = FACE_BOUND('',#598,.T.);
#598 = EDGE_LOOP('',(#599,#600,#608,#616));
#599 = ORIENTED_EDGE('',*,*,#395,.T.);
#600 = ORIENTED_EDGE('',*,*,#601,.T.);
#601 = EDGE_CURVE('',#388,#602,#604,.T.);
#602 = VERTEX_POINT('',#603);
#603 = CARTESIAN_POINT('',(199.71290494117,15.214924205823,
    25.690774557092));
#604 = LINE('',#605,#606);
#605 = CARTESIAN_POINT('',(195.07012214894,11.414323208061,
    25.690774557092));
#606 = VECTOR('',#607,1.);
#607 = DIRECTION('',(0.773797132038,0.633433499627,0.));
#608 = ORIENTED_EDGE('',*,*,#609,.T.);
#609 = EDGE_CURVE('',#602,#610,#612,.T.);
#610 = VERTEX_POINT('',#611);
#611 = CARTESIAN_POINT('',(198.13565769192,17.141676420072,
    25.914195728004));
#612 = LINE('',#613,#614);
#613 = CARTESIAN_POINT('',(199.71290494117,15.214924205823,
    25.690774557092));
#614 = VECTOR('',#615,1.);
#615 = DIRECTION('',(-0.630898899701,0.7707008857,8.936846836468E-02));
#616 = ORIENTED_EDGE('',*,*,#617,.F.);
#617 = EDGE_CURVE('',#174,#610,#618,.T.);
#618 = LINE('',#619,#620);
#619 = CARTESIAN_POINT('',(193.49287489969,13.341075422311,
    25.914195728004));
#620 = VECTOR('',#621,1.);
#621 = DIRECTION('',(0.773797132038,0.633433499627,0.));
#622 = PLANE('',#623);
#623 = AXIS2_PLACEMENT_3D('',#624,#625,#626);
#624 = CARTESIAN_POINT('',(195.07012214894,11.414323208061,
    25.690774557092));
#625 = DIRECTION('',(5.660898167254E-02,-6.915306451523E-02,
    0.995998632962));
#626 = DIRECTION('',(0.773797132038,0.633433499627,0.));
#627 = ADVANCED_FACE('',(#628),#646,.F.);
#628 = FACE_BOUND('',#629,.F.);
#629 = EDGE_LOOP('',(#630,#638,#639));
#630 = ORIENTED_EDGE('',*,*,#631,.F.);
#631 = EDGE_CURVE('',#372,#632,#634,.T.);
#632 = VERTEX_POINT('',#633);
#633 = CARTESIAN_POINT('',(199.26003308779,15.768148721945,
    17.722785493396));
#634 = LINE('',#635,#636);
#635 = CARTESIAN_POINT('',(194.61725029556,11.967547724183,
    17.722785493396));
#636 = VECTOR('',#637,1.);
#637 = DIRECTION('',(0.773797132038,0.633433499627,0.));
#638 = ORIENTED_EDGE('',*,*,#379,.T.);
#639 = ORIENTED_EDGE('',*,*,#640,.F.);
#640 = EDGE_CURVE('',#632,#380,#641,.T.);
#641 = CIRCLE('',#642,4.);
#642 = AXIS2_PLACEMENT_3D('',#643,#644,#645);
#643 = CARTESIAN_POINT('',(199.48646901448,15.491536463884,
    21.706780025244));
#644 = DIRECTION('',(-0.630898899701,0.7707008857,8.936846836468E-02));
#645 = DIRECTION('',(5.660898167254E-02,-6.915306451523E-02,
    0.995998632962));
#646 = PLANE('',#647);
#647 = AXIS2_PLACEMENT_3D('',#648,#649,#650);
#648 = CARTESIAN_POINT('',(194.61725029556,11.967547724183,
    17.722785493396));
#649 = DIRECTION('',(-0.630898899701,0.7707008857,8.936846836468E-02));
#650 = DIRECTION('',(5.660898167254E-02,-6.915306451523E-02,
    0.995998632962));
#651 = ADVANCED_FACE('',(#652),#663,.F.);
#652 = FACE_BOUND('',#653,.F.);
#653 = EDGE_LOOP('',(#654,#661,#662));
#654 = ORIENTED_EDGE('',*,*,#655,.F.);
#655 = EDGE_CURVE('',#380,#602,#656,.T.);
#656 = CIRCLE('',#657,4.);
#657 = AXIS2_PLACEMENT_3D('',#658,#659,#660);
#658 = CARTESIAN_POINT('',(199.48646901448,15.491536463884,
    21.706780025244));
#659 = DIRECTION('',(-0.630898899701,0.7707008857,8.936846836468E-02));
#660 = DIRECTION('',(5.660898167254E-02,-6.915306451523E-02,
    0.995998632962));
#661 = ORIENTED_EDGE('',*,*,#387,.T.);
#662 = ORIENTED_EDGE('',*,*,#601,.T.);
#663 = PLANE('',#664);
#664 = AXIS2_PLACEMENT_3D('',#665,#666,#667);
#665 = CARTESIAN_POINT('',(194.61725029556,11.967547724183,
    17.722785493396));
#666 = DIRECTION('',(-0.630898899701,0.7707008857,8.936846836468E-02));
#667 = DIRECTION('',(5.660898167254E-02,-6.915306451523E-02,
    0.995998632962));
#668 = ADVANCED_FACE('',(#669),#687,.F.);
#669 = FACE_BOUND('',#670,.F.);
#670 = EDGE_LOOP('',(#671,#672,#673,#681));
#671 = ORIENTED_EDGE('',*,*,#371,.T.);
#672 = ORIENTED_EDGE('',*,*,#631,.T.);
#673 = ORIENTED_EDGE('',*,*,#674,.T.);
#674 = EDGE_CURVE('',#632,#675,#677,.T.);
#675 = VERTEX_POINT('',#676);
#676 = CARTESIAN_POINT('',(197.68278583854,17.694900936194,
    17.946206664308));
#677 = LINE('',#678,#679);
#678 = CARTESIAN_POINT('',(199.26003308779,15.768148721945,
    17.722785493396));
#679 = VECTOR('',#680,1.);
#680 = DIRECTION('',(-0.630898899701,0.7707008857,8.936846836468E-02));
#681 = ORIENTED_EDGE('',*,*,#682,.F.);
#682 = EDGE_CURVE('',#135,#675,#683,.T.);
#683 = LINE('',#684,#685);
#684 = CARTESIAN_POINT('',(193.04000304631,13.894299938433,
    17.946206664308));
#685 = VECTOR('',#686,1.);
#686 = DIRECTION('',(0.773797132038,0.633433499627,0.));
#687 = PLANE('',#688);
#688 = AXIS2_PLACEMENT_3D('',#689,#690,#691);
#689 = CARTESIAN_POINT('',(194.61725029556,11.967547724183,
    17.722785493396));
#690 = DIRECTION('',(5.660898167254E-02,-6.915306451523E-02,
    0.995998632962));
#691 = DIRECTION('',(0.773797132038,0.633433499627,0.));
#692 = ADVANCED_FACE('',(#693),#704,.T.);
#693 = FACE_BOUND('',#694,.T.);
#694 = EDGE_LOOP('',(#695,#696,#697));
#695 = ORIENTED_EDGE('',*,*,#682,.F.);
#696 = ORIENTED_EDGE('',*,*,#410,.T.);
#697 = ORIENTED_EDGE('',*,*,#698,.F.);
#698 = EDGE_CURVE('',#675,#411,#699,.T.);
#699 = CIRCLE('',#700,4.);
#700 = AXIS2_PLACEMENT_3D('',#701,#702,#703);
#701 = CARTESIAN_POINT('',(197.90922176523,17.418288678133,
    21.930201196156));
#702 = DIRECTION('',(-0.630898899701,0.7707008857,8.936846836468E-02));
#703 = DIRECTION('',(5.660898167254E-02,-6.915306451523E-02,
    0.995998632962));
#704 = PLANE('',#705);
#705 = AXIS2_PLACEMENT_3D('',#706,#707,#708);
#706 = CARTESIAN_POINT('',(193.04000304631,13.894299938433,
    17.946206664308));
#707 = DIRECTION('',(-0.630898899701,0.7707008857,8.936846836468E-02));
#708 = DIRECTION('',(5.660898167254E-02,-6.915306451523E-02,
    0.995998632962));
#709 = ADVANCED_FACE('',(#710),#721,.T.);
#710 = FACE_BOUND('',#711,.T.);
#711 = EDGE_LOOP('',(#712,#719,#720));
#712 = ORIENTED_EDGE('',*,*,#713,.F.);
#713 = EDGE_CURVE('',#411,#610,#714,.T.);
#714 = CIRCLE('',#715,4.);
#715 = AXIS2_PLACEMENT_3D('',#716,#717,#718);
#716 = CARTESIAN_POINT('',(197.90922176523,17.418288678133,
    21.930201196156));
#717 = DIRECTION('',(-0.630898899701,0.7707008857,8.936846836468E-02));
#718 = DIRECTION('',(5.660898167254E-02,-6.915306451523E-02,
    0.995998632962));
#719 = ORIENTED_EDGE('',*,*,#421,.T.);
#720 = ORIENTED_EDGE('',*,*,#617,.T.);
#721 = PLANE('',#722);
#722 = AXIS2_PLACEMENT_3D('',#723,#724,#725);
#723 = CARTESIAN_POINT('',(193.04000304631,13.894299938433,
    17.946206664308));
#724 = DIRECTION('',(-0.630898899701,0.7707008857,8.936846836468E-02));
#725 = DIRECTION('',(5.660898167254E-02,-6.915306451523E-02,
    0.995998632962));
#726 = ADVANCED_FACE('',(#727),#731,.T.);
#727 = FACE_BOUND('',#728,.T.);
#728 = EDGE_LOOP('',(#729,#730));
#729 = ORIENTED_EDGE('',*,*,#495,.T.);
#730 = ORIENTED_EDGE('',*,*,#460,.T.);
#731 = PLANE('',#732);
#732 = AXIS2_PLACEMENT_3D('',#733,#734,#735);
#733 = CARTESIAN_POINT('',(181.23835513465,12.524118706862,
    22.537906781036));
#734 = DIRECTION('',(-0.630898899701,0.7707008857,8.936846836468E-02));
#735 = DIRECTION('',(5.660898167254E-02,-6.915306451523E-02,
    0.995998632962));
#736 = ADVANCED_FACE('',(#737),#764,.T.);
#737 = FACE_BOUND('',#738,.T.);
#738 = EDGE_LOOP('',(#739,#740,#741,#749,#758));
#739 = ORIENTED_EDGE('',*,*,#509,.T.);
#740 = ORIENTED_EDGE('',*,*,#584,.T.);
#741 = ORIENTED_EDGE('',*,*,#742,.T.);
#742 = EDGE_CURVE('',#303,#743,#745,.T.);
#743 = VERTEX_POINT('',#744);
#744 = CARTESIAN_POINT('',(173.03449557666,-2.713277180897,
    19.938203930232));
#745 = LINE('',#746,#747);
#746 = CARTESIAN_POINT('',(172.92127761332,-2.574971051867,
    17.946206664308));
#747 = VECTOR('',#748,1.);
#748 = DIRECTION('',(5.660898167254E-02,-6.915306451523E-02,
    0.995998632962));
#749 = ORIENTED_EDGE('',*,*,#750,.F.);
#750 = EDGE_CURVE('',#751,#743,#753,.T.);
#751 = VERTEX_POINT('',#752);
#752 = CARTESIAN_POINT('',(173.26093150335,-2.989889438958,
    23.92219846208));
#753 = CIRCLE('',#754,2.);
#754 = AXIS2_PLACEMENT_3D('',#755,#756,#757);
#755 = CARTESIAN_POINT('',(173.14771354001,-2.851583309928,
    21.930201196156));
#756 = DIRECTION('',(-0.630898899701,0.7707008857,8.936846836468E-02));
#757 = DIRECTION('',(5.660898167254E-02,-6.915306451523E-02,
    0.995998632962));
#758 = ORIENTED_EDGE('',*,*,#759,.T.);
#759 = EDGE_CURVE('',#751,#231,#760,.T.);
#760 = LINE('',#761,#762);
#761 = CARTESIAN_POINT('',(172.92127761332,-2.574971051867,
    17.946206664308));
#762 = VECTOR('',#763,1.);
#763 = DIRECTION('',(5.660898167254E-02,-6.915306451523E-02,
    0.995998632962));
#764 = PLANE('',#765);
#765 = AXIS2_PLACEMENT_3D('',#766,#767,#768);
#766 = CARTESIAN_POINT('',(172.92127761332,-2.574971051867,
    17.946206664308));
#767 = DIRECTION('',(-0.630898899701,0.7707008857,8.936846836468E-02));
#768 = DIRECTION('',(5.660898167254E-02,-6.915306451523E-02,
    0.995998632962));
#769 = ADVANCED_FACE('',(#770),#782,.T.);
#770 = FACE_BOUND('',#771,.T.);
#771 = EDGE_LOOP('',(#772,#773,#780,#781));
#772 = ORIENTED_EDGE('',*,*,#759,.F.);
#773 = ORIENTED_EDGE('',*,*,#774,.F.);
#774 = EDGE_CURVE('',#743,#751,#775,.T.);
#775 = CIRCLE('',#776,2.);
#776 = AXIS2_PLACEMENT_3D('',#777,#778,#779);
#777 = CARTESIAN_POINT('',(173.14771354001,-2.851583309928,
    21.930201196156));
#778 = DIRECTION('',(-0.630898899701,0.7707008857,8.936846836468E-02));
#779 = DIRECTION('',(5.660898167254E-02,-6.915306451523E-02,
    0.995998632962));
#780 = ORIENTED_EDGE('',*,*,#742,.F.);
#781 = ORIENTED_EDGE('',*,*,#526,.T.);
#782 = PLANE('',#783);
#783 = AXIS2_PLACEMENT_3D('',#784,#785,#786);
#784 = CARTESIAN_POINT('',(173.14771354001,-2.851583309928,
    21.930201196156));
#785 = DIRECTION('',(-0.630898899701,0.7707008857,8.936846836468E-02));
#786 = DIRECTION('',(5.660898167254E-02,-6.915306451523E-02,
    0.995998632962));
#787 = ADVANCED_FACE('',(#788),#800,.F.);
#788 = FACE_BOUND('',#789,.F.);
#789 = EDGE_LOOP('',(#790,#791,#798,#799));
#790 = ORIENTED_EDGE('',*,*,#569,.F.);
#791 = ORIENTED_EDGE('',*,*,#792,.F.);
#792 = EDGE_CURVE('',#553,#561,#793,.T.);
#793 = CIRCLE('',#794,2.);
#794 = AXIS2_PLACEMENT_3D('',#795,#796,#797);
#795 = CARTESIAN_POINT('',(174.72496078926,-4.778335524177,
    21.706780025244));
#796 = DIRECTION('',(-0.630898899701,0.7707008857,8.936846836468E-02));
#797 = DIRECTION('',(5.660898167254E-02,-6.915306451523E-02,
    0.995998632962));
#798 = ORIENTED_EDGE('',*,*,#552,.F.);
#799 = ORIENTED_EDGE('',*,*,#534,.T.);
#800 = PLANE('',#801);
#801 = AXIS2_PLACEMENT_3D('',#802,#803,#804);
#802 = CARTESIAN_POINT('',(174.72496078926,-4.778335524177,
    21.706780025244));
#803 = DIRECTION('',(-0.630898899701,0.7707008857,8.936846836468E-02));
#804 = DIRECTION('',(5.660898167254E-02,-6.915306451523E-02,
    0.995998632962));
#805 = ADVANCED_FACE('',(#806),#819,.F.);
#806 = FACE_BOUND('',#807,.F.);
#807 = EDGE_LOOP('',(#808,#809,#815,#816,#817,#818));
#808 = ORIENTED_EDGE('',*,*,#750,.F.);
#809 = ORIENTED_EDGE('',*,*,#810,.F.);
#810 = EDGE_CURVE('',#561,#751,#811,.T.);
#811 = LINE('',#812,#813);
#812 = CARTESIAN_POINT('',(175.4690776523,-5.687342538908,
    23.609408822803));
#813 = VECTOR('',#814,1.);
#814 = DIRECTION('',(-0.630898899701,0.7707008857,8.936846836468E-02));
#815 = ORIENTED_EDGE('',*,*,#560,.T.);
#816 = ORIENTED_EDGE('',*,*,#792,.T.);
#817 = ORIENTED_EDGE('',*,*,#810,.T.);
#818 = ORIENTED_EDGE('',*,*,#774,.F.);
#819 = CYLINDRICAL_SURFACE('',#820,2.);
#820 = AXIS2_PLACEMENT_3D('',#821,#822,#823);
#821 = CARTESIAN_POINT('',(175.35585968896,-5.549036409877,
    21.617411556879));
#822 = DIRECTION('',(-0.630898899701,0.7707008857,8.936846836468E-02));
#823 = DIRECTION('',(5.660898167254E-02,-6.915306451523E-02,
    0.995998632962));
#824 = ADVANCED_FACE('',(#825),#843,.T.);
#825 = FACE_BOUND('',#826,.T.);
#826 = EDGE_LOOP('',(#827,#834,#835,#842));
#827 = ORIENTED_EDGE('',*,*,#828,.F.);
#828 = EDGE_CURVE('',#610,#675,#829,.T.);
#829 = CIRCLE('',#830,4.);
#830 = AXIS2_PLACEMENT_3D('',#831,#832,#833);
#831 = CARTESIAN_POINT('',(197.90922176523,17.418288678133,
    21.930201196156));
#832 = DIRECTION('',(-0.630898899701,0.7707008857,8.936846836468E-02));
#833 = DIRECTION('',(5.660898167254E-02,-6.915306451523E-02,
    0.995998632962));
#834 = ORIENTED_EDGE('',*,*,#609,.F.);
#835 = ORIENTED_EDGE('',*,*,#836,.T.);
#836 = EDGE_CURVE('',#602,#632,#837,.T.);
#837 = CIRCLE('',#838,4.);
#838 = AXIS2_PLACEMENT_3D('',#839,#840,#841);
#839 = CARTESIAN_POINT('',(199.48646901448,15.491536463884,
    21.706780025244));
#840 = DIRECTION('',(-0.630898899701,0.7707008857,8.936846836468E-02));
#841 = DIRECTION('',(5.660898167254E-02,-6.915306451523E-02,
    0.995998632962));
#842 = ORIENTED_EDGE('',*,*,#674,.T.);
#843 = CYLINDRICAL_SURFACE('',#844,4.);
#844 = AXIS2_PLACEMENT_3D('',#845,#846,#847);
#845 = CARTESIAN_POINT('',(199.48646901448,15.491536463884,
    21.706780025244));
#846 = DIRECTION('',(-0.630898899701,0.7707008857,8.936846836468E-02));
#847 = DIRECTION('',(5.660898167254E-02,-6.915306451523E-02,
    0.995998632962));
#848 = ADVANCED_FACE('',(#849),#876,.F.);
#849 = FACE_BOUND('',#850,.F.);
#850 = EDGE_LOOP('',(#851,#859,#868,#874,#875));
#851 = ORIENTED_EDGE('',*,*,#852,.F.);
#852 = EDGE_CURVE('',#853,#602,#855,.T.);
#853 = VERTEX_POINT('',#854);
#854 = CARTESIAN_POINT('',(199.59968697782,15.353230334853,
    23.698777291168));
#855 = LINE('',#856,#857);
#856 = CARTESIAN_POINT('',(199.26003308779,15.768148721945,
    17.722785493396));
#857 = VECTOR('',#858,1.);
#858 = DIRECTION('',(5.660898167254E-02,-6.915306451523E-02,
    0.995998632962));
#859 = ORIENTED_EDGE('',*,*,#860,.F.);
#860 = EDGE_CURVE('',#861,#853,#863,.T.);
#861 = VERTEX_POINT('',#862);
#862 = CARTESIAN_POINT('',(199.37325105113,15.629842592914,
    19.71478275932));
#863 = CIRCLE('',#864,2.);
#864 = AXIS2_PLACEMENT_3D('',#865,#866,#867);
#865 = CARTESIAN_POINT('',(199.48646901448,15.491536463884,
    21.706780025244));
#866 = DIRECTION('',(-0.630898899701,0.7707008857,8.936846836468E-02));
#867 = DIRECTION('',(5.660898167254E-02,-6.915306451523E-02,
    0.995998632962));
#868 = ORIENTED_EDGE('',*,*,#869,.F.);
#869 = EDGE_CURVE('',#632,#861,#870,.T.);
#870 = LINE('',#871,#872);
#871 = CARTESIAN_POINT('',(199.26003308779,15.768148721945,
    17.722785493396));
#872 = VECTOR('',#873,1.);
#873 = DIRECTION('',(5.660898167254E-02,-6.915306451523E-02,
    0.995998632962));
#874 = ORIENTED_EDGE('',*,*,#640,.T.);
#875 = ORIENTED_EDGE('',*,*,#655,.T.);
#876 = PLANE('',#877);
#877 = AXIS2_PLACEMENT_3D('',#878,#879,#880);
#878 = CARTESIAN_POINT('',(194.61725029556,11.967547724183,
    17.722785493396));
#879 = DIRECTION('',(-0.630898899701,0.7707008857,8.936846836468E-02));
#880 = DIRECTION('',(5.660898167254E-02,-6.915306451523E-02,
    0.995998632962));
#881 = ADVANCED_FACE('',(#882),#909,.T.);
#882 = FACE_BOUND('',#883,.T.);
#883 = EDGE_LOOP('',(#884,#892,#901,#907,#908));
#884 = ORIENTED_EDGE('',*,*,#885,.F.);
#885 = EDGE_CURVE('',#886,#610,#888,.T.);
#886 = VERTEX_POINT('',#887);
#887 = CARTESIAN_POINT('',(198.02243972857,17.279982549103,
    23.92219846208));
#888 = LINE('',#889,#890);
#889 = CARTESIAN_POINT('',(197.68278583854,17.694900936194,
    17.946206664308));
#890 = VECTOR('',#891,1.);
#891 = DIRECTION('',(5.660898167254E-02,-6.915306451523E-02,
    0.995998632962));
#892 = ORIENTED_EDGE('',*,*,#893,.F.);
#893 = EDGE_CURVE('',#894,#886,#896,.T.);
#894 = VERTEX_POINT('',#895);
#895 = CARTESIAN_POINT('',(197.79600380188,17.556594807164,
    19.938203930232));
#896 = CIRCLE('',#897,2.);
#897 = AXIS2_PLACEMENT_3D('',#898,#899,#900);
#898 = CARTESIAN_POINT('',(197.90922176523,17.418288678133,
    21.930201196156));
#899 = DIRECTION('',(-0.630898899701,0.7707008857,8.936846836468E-02));
#900 = DIRECTION('',(5.660898167254E-02,-6.915306451523E-02,
    0.995998632962));
#901 = ORIENTED_EDGE('',*,*,#902,.F.);
#902 = EDGE_CURVE('',#675,#894,#903,.T.);
#903 = LINE('',#904,#905);
#904 = CARTESIAN_POINT('',(197.68278583854,17.694900936194,
    17.946206664308));
#905 = VECTOR('',#906,1.);
#906 = DIRECTION('',(5.660898167254E-02,-6.915306451523E-02,
    0.995998632962));
#907 = ORIENTED_EDGE('',*,*,#698,.T.);
#908 = ORIENTED_EDGE('',*,*,#713,.T.);
#909 = PLANE('',#910);
#910 = AXIS2_PLACEMENT_3D('',#911,#912,#913);
#911 = CARTESIAN_POINT('',(193.04000304631,13.894299938433,
    17.946206664308));
#912 = DIRECTION('',(-0.630898899701,0.7707008857,8.936846836468E-02));
#913 = DIRECTION('',(5.660898167254E-02,-6.915306451523E-02,
    0.995998632962));
#914 = ADVANCED_FACE('',(#915),#927,.T.);
#915 = FACE_BOUND('',#916,.T.);
#916 = EDGE_LOOP('',(#917,#924,#925,#926));
#917 = ORIENTED_EDGE('',*,*,#918,.F.);
#918 = EDGE_CURVE('',#886,#894,#919,.T.);
#919 = CIRCLE('',#920,2.);
#920 = AXIS2_PLACEMENT_3D('',#921,#922,#923);
#921 = CARTESIAN_POINT('',(197.90922176523,17.418288678133,
    21.930201196156));
#922 = DIRECTION('',(-0.630898899701,0.7707008857,8.936846836468E-02));
#923 = DIRECTION('',(5.660898167254E-02,-6.915306451523E-02,
    0.995998632962));
#924 = ORIENTED_EDGE('',*,*,#885,.T.);
#925 = ORIENTED_EDGE('',*,*,#828,.T.);
#926 = ORIENTED_EDGE('',*,*,#902,.T.);
#927 = PLANE('',#928);
#928 = AXIS2_PLACEMENT_3D('',#929,#930,#931);
#929 = CARTESIAN_POINT('',(197.90922176523,17.418288678133,
    21.930201196156));
#930 = DIRECTION('',(-0.630898899701,0.7707008857,8.936846836468E-02));
#931 = DIRECTION('',(5.660898167254E-02,-6.915306451523E-02,
    0.995998632962));
#932 = ADVANCED_FACE('',(#933),#945,.F.);
#933 = FACE_BOUND('',#934,.F.);
#934 = EDGE_LOOP('',(#935,#942,#943,#944));
#935 = ORIENTED_EDGE('',*,*,#936,.F.);
#936 = EDGE_CURVE('',#853,#861,#937,.T.);
#937 = CIRCLE('',#938,2.);
#938 = AXIS2_PLACEMENT_3D('',#939,#940,#941);
#939 = CARTESIAN_POINT('',(199.48646901448,15.491536463884,
    21.706780025244));
#940 = DIRECTION('',(-0.630898899701,0.7707008857,8.936846836468E-02));
#941 = DIRECTION('',(5.660898167254E-02,-6.915306451523E-02,
    0.995998632962));
#942 = ORIENTED_EDGE('',*,*,#852,.T.);
#943 = ORIENTED_EDGE('',*,*,#836,.T.);
#944 = ORIENTED_EDGE('',*,*,#869,.T.);
#945 = PLANE('',#946);
#946 = AXIS2_PLACEMENT_3D('',#947,#948,#949);
#947 = CARTESIAN_POINT('',(199.48646901448,15.491536463884,
    21.706780025244));
#948 = DIRECTION('',(-0.630898899701,0.7707008857,8.936846836468E-02));
#949 = DIRECTION('',(5.660898167254E-02,-6.915306451523E-02,
    0.995998632962));
#950 = ADVANCED_FACE('',(#951),#964,.F.);
#951 = FACE_BOUND('',#952,.F.);
#952 = EDGE_LOOP('',(#953,#954,#960,#961,#962,#963));
#953 = ORIENTED_EDGE('',*,*,#918,.F.);
#954 = ORIENTED_EDGE('',*,*,#955,.F.);
#955 = EDGE_CURVE('',#853,#886,#956,.T.);
#956 = LINE('',#957,#958);
#957 = CARTESIAN_POINT('',(200.23058587752,14.582529449153,
    23.609408822803));
#958 = VECTOR('',#959,1.);
#959 = DIRECTION('',(-0.630898899701,0.7707008857,8.936846836468E-02));
#960 = ORIENTED_EDGE('',*,*,#936,.T.);
#961 = ORIENTED_EDGE('',*,*,#860,.T.);
#962 = ORIENTED_EDGE('',*,*,#955,.T.);
#963 = ORIENTED_EDGE('',*,*,#893,.F.);
#964 = CYLINDRICAL_SURFACE('',#965,2.);
#965 = AXIS2_PLACEMENT_3D('',#966,#967,#968);
#966 = CARTESIAN_POINT('',(200.11736791418,14.720835578184,
    21.617411556879));
#967 = DIRECTION('',(-0.630898899701,0.7707008857,8.936846836468E-02));
#968 = DIRECTION('',(5.660898167254E-02,-6.915306451523E-02,
    0.995998632962));
#969 = ( GEOMETRIC_REPRESENTATION_CONTEXT(3) 
GLOBAL_UNCERTAINTY_ASSIGNED_CONTEXT((#973)) GLOBAL_UNIT_ASSIGNED_CONTEXT
((#970,#971,#972)) REPRESENTATION_CONTEXT('Context #1',
  '3D Context with UNIT and UNCERTAINTY') );
#970 = ( LENGTH_UNIT() NAMED_UNIT(*) SI_UNIT(.MILLI.,.METRE.) );
#971 = ( NAMED_UNIT(*) PLANE_ANGLE_UNIT() SI_UNIT($,.RADIAN.) );
#972 = ( NAMED_UNIT(*) SI_UNIT($,.STERADIAN.) SOLID_ANGLE_UNIT() );
#973 = UNCERTAINTY_MEASURE_WITH_UNIT(LENGTH_MEASURE(1.E-07),#970,
  'distance_accuracy_value','confusion accuracy');
#974 = PRODUCT_RELATED_PRODUCT_CATEGORY('part',$,(#7));
ENDSEC;
END-ISO-10303-21;
