ISO-10303-21;
HEADER;
FILE_DESCRIPTION(('FreeCAD Model'),'2;1');
FILE_NAME('Open CASCADE Shape Model','2026-09-26T09:28:59',('FreeCAD'),(
    'FreeCAD'),'Open CASCADE STEP processor 7.8','FreeCAD','Unknown');
FILE_SCHEMA(('AUTOMOTIVE_DESIGN { 1 0 10303 214 1 1 1 1 }'));
ENDSEC;
DATA;
#1 = APPLICATION_PROTOCOL_DEFINITION('international standard',
  'automotive_design',2000,#2);
#2 = APPLICATION_CONTEXT(
  'core data for automotive mechanical design processes');
#3 = SHAPE_DEFINITION_REPRESENTATION(#4,#10);
#4 = PRODUCT_DEFINITION_SHAPE('','',#5);
#5 = PRODUCT_DEFINITION('design','',#6,#9);
#6 = PRODUCT_DEFINITION_FORMATION('','',#7);
#7 = PRODUCT('Open CASCADE STEP translator 7.8 5',
  'Open CASCADE STEP translator 7.8 5','',(#8));
#8 = PRODUCT_CONTEXT('',#2,'mechanical');
#9 = PRODUCT_DEFINITION_CONTEXT('part definition',#2,'design');
#10 = ADVANCED_BREP_SHAPE_REPRESENTATION('',(#11,#15),#351);
#11 = AXIS2_PLACEMENT_3D('',#12,#13,#14);
#12 = CARTESIAN_POINT('',(0.,0.,0.));
#13 = DIRECTION('',(0.,0.,1.));
#14 = DIRECTION('',(1.,0.,-0.));
#15 = MANIFOLD_SOLID_BREP('',#16);
#16 = CLOSED_SHELL('',(#17,#50,#70,#90,#115,#140,#166,#186,#212,#237,
    #262,#288,#308,#334));
#17 = ADVANCED_FACE('',(#18),#45,.T.);
#18 = FACE_BOUND('',#19,.T.);
#19 = EDGE_LOOP('',(#20,#29,#37,#44));
#20 = ORIENTED_EDGE('',*,*,#21,.F.);
#21 = EDGE_CURVE('',#22,#22,#24,.T.);
#22 = VERTEX_POINT('',#23);
#23 = CARTESIAN_POINT('',(8.1,1.983927814619E-15,8.95488693396));
#24 = CIRCLE('',#25,8.1);
#25 = AXIS2_PLACEMENT_3D('',#26,#27,#28);
#26 = CARTESIAN_POINT('',(8.947729491297E-15,0.,8.95488693396));
#27 = DIRECTION('',(1.110223024625E-16,0.,-1.));
#28 = DIRECTION('',(1.,0.,1.110223024625E-16));
#29 = ORIENTED_EDGE('',*,*,#30,.F.);
#30 = EDGE_CURVE('',#31,#22,#33,.T.);
#31 = VERTEX_POINT('',#32);
#32 = CARTESIAN_POINT('',(2.9,7.102951435055E-16,60.694233663504));
#33 = LINE('',#34,#35);
#34 = CARTESIAN_POINT('',(2.9,7.102951435055E-16,60.694233663504));
#35 = VECTOR('',#36,1.);
#36 = DIRECTION('',(0.1,2.449293598295E-17,-0.994987437107));
#37 = ORIENTED_EDGE('',*,*,#38,.T.);
#38 = EDGE_CURVE('',#31,#31,#39,.T.);
#39 = CIRCLE('',#40,2.9);
#40 = AXIS2_PLACEMENT_3D('',#41,#42,#43);
#41 = CARTESIAN_POINT('',(3.203508089477E-15,0.,60.694233663504));
#42 = DIRECTION('',(1.110223024625E-16,0.,-1.));
#43 = DIRECTION('',(1.,0.,1.110223024625E-16));
#44 = ORIENTED_EDGE('',*,*,#30,.T.);
#45 = CONICAL_SURFACE('',#46,2.9,0.100167421162);
#46 = AXIS2_PLACEMENT_3D('',#47,#48,#49);
#47 = CARTESIAN_POINT('',(3.203508089477E-15,0.,60.694233663504));
#48 = DIRECTION('',(1.110223024625E-16,0.,-1.));
#49 = DIRECTION('',(1.,0.,1.110223024625E-16));
#50 = ADVANCED_FACE('',(#51,#54),#65,.T.);
#51 = FACE_BOUND('',#52,.T.);
#52 = EDGE_LOOP('',(#53));
#53 = ORIENTED_EDGE('',*,*,#21,.T.);
#54 = FACE_BOUND('',#55,.T.);
#55 = EDGE_LOOP('',(#56));
#56 = ORIENTED_EDGE('',*,*,#57,.F.);
#57 = EDGE_CURVE('',#58,#58,#60,.T.);
#58 = VERTEX_POINT('',#59);
#59 = CARTESIAN_POINT('',(5.510340635769,1.349644204361E-15,
    8.95488693396));
#60 = CIRCLE('',#61,5.510340635769);
#61 = AXIS2_PLACEMENT_3D('',#62,#63,#64);
#62 = CARTESIAN_POINT('',(8.947729491297E-15,0.,8.95488693396));
#63 = DIRECTION('',(1.110223024625E-16,0.,-1.));
#64 = DIRECTION('',(1.,0.,1.110223024625E-16));
#65 = PLANE('',#66);
#66 = AXIS2_PLACEMENT_3D('',#67,#68,#69);
#67 = CARTESIAN_POINT('',(8.947729491297E-15,0.,8.95488693396));
#68 = DIRECTION('',(1.110223024625E-16,0.,-1.));
#69 = DIRECTION('',(1.,0.,1.110223024625E-16));
#70 = ADVANCED_FACE('',(#71,#74),#85,.F.);
#71 = FACE_BOUND('',#72,.F.);
#72 = EDGE_LOOP('',(#73));
#73 = ORIENTED_EDGE('',*,*,#38,.T.);
#74 = FACE_BOUND('',#75,.F.);
#75 = EDGE_LOOP('',(#76));
#76 = ORIENTED_EDGE('',*,*,#77,.F.);
#77 = EDGE_CURVE('',#78,#78,#80,.T.);
#78 = VERTEX_POINT('',#79);
#79 = CARTESIAN_POINT('',(1.85,4.531193156845E-16,60.694233663504));
#80 = CIRCLE('',#81,1.85);
#81 = AXIS2_PLACEMENT_3D('',#82,#83,#84);
#82 = CARTESIAN_POINT('',(3.203508089477E-15,0.,60.694233663504));
#83 = DIRECTION('',(1.110223024625E-16,0.,-1.));
#84 = DIRECTION('',(1.,0.,1.110223024625E-16));
#85 = PLANE('',#86);
#86 = AXIS2_PLACEMENT_3D('',#87,#88,#89);
#87 = CARTESIAN_POINT('',(3.203508089477E-15,0.,60.694233663504));
#88 = DIRECTION('',(1.110223024625E-16,0.,-1.));
#89 = DIRECTION('',(1.,0.,1.110223024625E-16));
#90 = ADVANCED_FACE('',(#91),#110,.T.);
#91 = FACE_BOUND('',#92,.T.);
#92 = EDGE_LOOP('',(#93,#94,#102,#109));
#93 = ORIENTED_EDGE('',*,*,#57,.T.);
#94 = ORIENTED_EDGE('',*,*,#95,.T.);
#95 = EDGE_CURVE('',#58,#96,#98,.T.);
#96 = VERTEX_POINT('',#97);
#97 = CARTESIAN_POINT('',(5.510340635769,6.748221021806E-16,
    7.44848918471));
#98 = LINE('',#99,#100);
#99 = CARTESIAN_POINT('',(5.510340635769,1.349644204361E-15,
    9.10488693396));
#100 = VECTOR('',#101,1.);
#101 = DIRECTION('',(1.110223024625E-16,0.,-1.));
#102 = ORIENTED_EDGE('',*,*,#103,.F.);
#103 = EDGE_CURVE('',#96,#96,#104,.T.);
#104 = CIRCLE('',#105,5.510340635769);
#105 = AXIS2_PLACEMENT_3D('',#106,#107,#108);
#106 = CARTESIAN_POINT('',(9.114973237843E-15,0.,7.44848918471));
#107 = DIRECTION('',(1.110223024625E-16,0.,-1.));
#108 = DIRECTION('',(1.,0.,1.110223024625E-16));
#109 = ORIENTED_EDGE('',*,*,#95,.F.);
#110 = CYLINDRICAL_SURFACE('',#111,5.510340635769);
#111 = AXIS2_PLACEMENT_3D('',#112,#113,#114);
#112 = CARTESIAN_POINT('',(8.931076145928E-15,0.,9.10488693396));
#113 = DIRECTION('',(1.110223024625E-16,0.,-1.));
#114 = DIRECTION('',(1.,0.,1.110223024625E-16));
#115 = ADVANCED_FACE('',(#116),#135,.F.);
#116 = FACE_BOUND('',#117,.F.);
#117 = EDGE_LOOP('',(#118,#127,#133,#134));
#118 = ORIENTED_EDGE('',*,*,#119,.F.);
#119 = EDGE_CURVE('',#120,#120,#122,.T.);
#120 = VERTEX_POINT('',#121);
#121 = CARTESIAN_POINT('',(1.85,4.531193156845E-16,0.));
#122 = CIRCLE('',#123,1.85);
#123 = AXIS2_PLACEMENT_3D('',#124,#125,#126);
#124 = CARTESIAN_POINT('',(9.941921656997E-15,0.,0.));
#125 = DIRECTION('',(1.110223024625E-16,0.,-1.));
#126 = DIRECTION('',(1.,0.,1.110223024625E-16));
#127 = ORIENTED_EDGE('',*,*,#128,.F.);
#128 = EDGE_CURVE('',#78,#120,#129,.T.);
#129 = LINE('',#130,#131);
#130 = CARTESIAN_POINT('',(1.85,4.531193156845E-16,61.694233663504));
#131 = VECTOR('',#132,1.);
#132 = DIRECTION('',(1.110223024625E-16,0.,-1.));
#133 = ORIENTED_EDGE('',*,*,#77,.T.);
#134 = ORIENTED_EDGE('',*,*,#128,.T.);
#135 = CYLINDRICAL_SURFACE('',#136,1.85);
#136 = AXIS2_PLACEMENT_3D('',#137,#138,#139);
#137 = CARTESIAN_POINT('',(3.092485787014E-15,0.,61.694233663504));
#138 = DIRECTION('',(1.110223024625E-16,0.,-1.));
#139 = DIRECTION('',(1.,0.,1.110223024625E-16));
#140 = ADVANCED_FACE('',(#141),#161,.F.);
#141 = FACE_BOUND('',#142,.F.);
#142 = EDGE_LOOP('',(#143,#152,#159,#160));
#143 = ORIENTED_EDGE('',*,*,#144,.F.);
#144 = EDGE_CURVE('',#145,#96,#147,.T.);
#145 = VERTEX_POINT('',#146);
#146 = CARTESIAN_POINT('',(4.910340635769,0.,5.317418341193));
#147 = CIRCLE('',#148,1.15);
#148 = AXIS2_PLACEMENT_3D('',#149,#150,#151);
#149 = CARTESIAN_POINT('',(4.910340635769,0.,6.467418341193));
#150 = DIRECTION('',(0.,1.,0.));
#151 = DIRECTION('',(1.110223024625E-16,0.,-1.));
#152 = ORIENTED_EDGE('',*,*,#153,.T.);
#153 = EDGE_CURVE('',#145,#145,#154,.T.);
#154 = CIRCLE('',#155,4.910340635769);
#155 = AXIS2_PLACEMENT_3D('',#156,#157,#158);
#156 = CARTESIAN_POINT('',(9.351569629601E-15,0.,5.317418341193));
#157 = DIRECTION('',(1.110223024625E-16,0.,-1.));
#158 = DIRECTION('',(1.,0.,1.110223024625E-16));
#159 = ORIENTED_EDGE('',*,*,#144,.T.);
#160 = ORIENTED_EDGE('',*,*,#103,.F.);
#161 = TOROIDAL_SURFACE('',#162,4.910340635769,1.15);
#162 = AXIS2_PLACEMENT_3D('',#163,#164,#165);
#163 = CARTESIAN_POINT('',(9.223893981769E-15,0.,6.467418341193));
#164 = DIRECTION('',(1.110223024625E-16,0.,-1.));
#165 = DIRECTION('',(1.,0.,1.110223024625E-16));
#166 = ADVANCED_FACE('',(#167,#178),#181,.T.);
#167 = FACE_BOUND('',#168,.T.);
#168 = EDGE_LOOP('',(#169));
#169 = ORIENTED_EDGE('',*,*,#170,.T.);
#170 = EDGE_CURVE('',#171,#171,#173,.T.);
#171 = VERTEX_POINT('',#172);
#172 = CARTESIAN_POINT('',(5.165925815925,1.265286903021E-15,0.));
#173 = CIRCLE('',#174,5.165925815925);
#174 = AXIS2_PLACEMENT_3D('',#175,#176,#177);
#175 = CARTESIAN_POINT('',(9.941921656997E-15,0.,0.));
#176 = DIRECTION('',(1.110223024625E-16,0.,-1.));
#177 = DIRECTION('',(1.,0.,1.110223024625E-16));
#178 = FACE_BOUND('',#179,.T.);
#179 = EDGE_LOOP('',(#180));
#180 = ORIENTED_EDGE('',*,*,#119,.F.);
#181 = PLANE('',#182);
#182 = AXIS2_PLACEMENT_3D('',#183,#184,#185);
#183 = CARTESIAN_POINT('',(9.941921656997E-15,0.,0.));
#184 = DIRECTION('',(1.110223024625E-16,0.,-1.));
#185 = DIRECTION('',(1.,0.,1.110223024625E-16));
#186 = ADVANCED_FACE('',(#187),#207,.F.);
#187 = FACE_BOUND('',#188,.F.);
#188 = EDGE_LOOP('',(#189,#198,#199,#200));
#189 = ORIENTED_EDGE('',*,*,#190,.T.);
#190 = EDGE_CURVE('',#191,#145,#193,.T.);
#191 = VERTEX_POINT('',#192);
#192 = CARTESIAN_POINT('',(5.510340635769,6.748221021806E-16,
    5.486347497676));
#193 = CIRCLE('',#194,1.15);
#194 = AXIS2_PLACEMENT_3D('',#195,#196,#197);
#195 = CARTESIAN_POINT('',(4.910340635769,0.,6.467418341193));
#196 = DIRECTION('',(0.,1.,0.));
#197 = DIRECTION('',(1.110223024625E-16,0.,-1.));
#198 = ORIENTED_EDGE('',*,*,#153,.F.);
#199 = ORIENTED_EDGE('',*,*,#190,.F.);
#200 = ORIENTED_EDGE('',*,*,#201,.T.);
#201 = EDGE_CURVE('',#191,#191,#202,.T.);
#202 = CIRCLE('',#203,5.510340635769);
#203 = AXIS2_PLACEMENT_3D('',#204,#205,#206);
#204 = CARTESIAN_POINT('',(9.332814725695E-15,0.,5.486347497676));
#205 = DIRECTION('',(1.110223024625E-16,0.,-1.));
#206 = DIRECTION('',(1.,0.,1.110223024625E-16));
#207 = TOROIDAL_SURFACE('',#208,4.910340635769,1.15);
#208 = AXIS2_PLACEMENT_3D('',#209,#210,#211);
#209 = CARTESIAN_POINT('',(9.223893981769E-15,0.,6.467418341193));
#210 = DIRECTION('',(1.110223024625E-16,0.,-1.));
#211 = DIRECTION('',(1.,0.,1.110223024625E-16));
#212 = ADVANCED_FACE('',(#213),#232,.T.);
#213 = FACE_BOUND('',#214,.T.);
#214 = EDGE_LOOP('',(#215,#224,#230,#231));
#215 = ORIENTED_EDGE('',*,*,#216,.T.);
#216 = EDGE_CURVE('',#217,#217,#219,.T.);
#217 = VERTEX_POINT('',#218);
#218 = CARTESIAN_POINT('',(5.165925815925,6.326434515106E-16,
    1.506397749249));
#219 = CIRCLE('',#220,5.165925815925);
#220 = AXIS2_PLACEMENT_3D('',#221,#222,#223);
#221 = CARTESIAN_POINT('',(9.774677910451E-15,0.,1.506397749249));
#222 = DIRECTION('',(1.110223024625E-16,0.,-1.));
#223 = DIRECTION('',(1.,0.,1.110223024625E-16));
#224 = ORIENTED_EDGE('',*,*,#225,.T.);
#225 = EDGE_CURVE('',#217,#171,#226,.T.);
#226 = LINE('',#227,#228);
#227 = CARTESIAN_POINT('',(5.165925815925,1.265286903021E-15,
    4.52744346698));
#228 = VECTOR('',#229,1.);
#229 = DIRECTION('',(1.110223024625E-16,0.,-1.));
#230 = ORIENTED_EDGE('',*,*,#170,.F.);
#231 = ORIENTED_EDGE('',*,*,#225,.F.);
#232 = CYLINDRICAL_SURFACE('',#233,5.165925815925);
#233 = AXIS2_PLACEMENT_3D('',#234,#235,#236);
#234 = CARTESIAN_POINT('',(9.439274459024E-15,0.,4.52744346698));
#235 = DIRECTION('',(1.110223024625E-16,0.,-1.));
#236 = DIRECTION('',(1.,0.,1.110223024625E-16));
#237 = ADVANCED_FACE('',(#238),#257,.T.);
#238 = FACE_BOUND('',#239,.T.);
#239 = EDGE_LOOP('',(#240,#241,#249,#256));
#240 = ORIENTED_EDGE('',*,*,#201,.T.);
#241 = ORIENTED_EDGE('',*,*,#242,.T.);
#242 = EDGE_CURVE('',#191,#243,#245,.T.);
#243 = VERTEX_POINT('',#244);
#244 = CARTESIAN_POINT('',(5.510340635769,1.349644204361E-15,
    4.47744346698));
#245 = LINE('',#246,#247);
#246 = CARTESIAN_POINT('',(5.510340635769,1.349644204361E-15,
    9.10488693396));
#247 = VECTOR('',#248,1.);
#248 = DIRECTION('',(1.110223024625E-16,0.,-1.));
#249 = ORIENTED_EDGE('',*,*,#250,.F.);
#250 = EDGE_CURVE('',#243,#243,#251,.T.);
#251 = CIRCLE('',#252,5.510340635769);
#252 = AXIS2_PLACEMENT_3D('',#253,#254,#255);
#253 = CARTESIAN_POINT('',(9.444825574147E-15,0.,4.47744346698));
#254 = DIRECTION('',(1.110223024625E-16,0.,-1.));
#255 = DIRECTION('',(1.,0.,1.110223024625E-16));
#256 = ORIENTED_EDGE('',*,*,#242,.F.);
#257 = CYLINDRICAL_SURFACE('',#258,5.510340635769);
#258 = AXIS2_PLACEMENT_3D('',#259,#260,#261);
#259 = CARTESIAN_POINT('',(8.931076145928E-15,0.,9.10488693396));
#260 = DIRECTION('',(1.110223024625E-16,0.,-1.));
#261 = DIRECTION('',(1.,0.,1.110223024625E-16));
#262 = ADVANCED_FACE('',(#263),#283,.F.);
#263 = FACE_BOUND('',#264,.F.);
#264 = EDGE_LOOP('',(#265,#274,#281,#282));
#265 = ORIENTED_EDGE('',*,*,#266,.T.);
#266 = EDGE_CURVE('',#217,#267,#269,.T.);
#267 = VERTEX_POINT('',#268);
#268 = CARTESIAN_POINT('',(4.565925815925,0.,1.337468592767));
#269 = CIRCLE('',#270,1.15);
#270 = AXIS2_PLACEMENT_3D('',#271,#272,#273);
#271 = CARTESIAN_POINT('',(4.565925815925,0.,2.487468592767));
#272 = DIRECTION('',(0.,1.,0.));
#273 = DIRECTION('',(1.110223024625E-16,0.,-1.));
#274 = ORIENTED_EDGE('',*,*,#275,.F.);
#275 = EDGE_CURVE('',#267,#267,#276,.T.);
#276 = CIRCLE('',#277,4.565925815925);
#277 = AXIS2_PLACEMENT_3D('',#278,#279,#280);
#278 = CARTESIAN_POINT('',(9.793432814357E-15,0.,1.337468592767));
#279 = DIRECTION('',(1.110223024625E-16,0.,-1.));
#280 = DIRECTION('',(1.,0.,1.110223024625E-16));
#281 = ORIENTED_EDGE('',*,*,#266,.F.);
#282 = ORIENTED_EDGE('',*,*,#216,.T.);
#283 = TOROIDAL_SURFACE('',#284,4.565925815925,1.15);
#284 = AXIS2_PLACEMENT_3D('',#285,#286,#287);
#285 = CARTESIAN_POINT('',(9.665757166525E-15,0.,2.487468592767));
#286 = DIRECTION('',(1.110223024625E-16,0.,-1.));
#287 = DIRECTION('',(1.,0.,1.110223024625E-16));
#288 = ADVANCED_FACE('',(#289,#292),#303,.T.);
#289 = FACE_BOUND('',#290,.T.);
#290 = EDGE_LOOP('',(#291));
#291 = ORIENTED_EDGE('',*,*,#250,.T.);
#292 = FACE_BOUND('',#293,.T.);
#293 = EDGE_LOOP('',(#294));
#294 = ORIENTED_EDGE('',*,*,#295,.F.);
#295 = EDGE_CURVE('',#296,#296,#298,.T.);
#296 = VERTEX_POINT('',#297);
#297 = CARTESIAN_POINT('',(5.165925815925,1.265286903021E-15,
    4.47744346698));
#298 = CIRCLE('',#299,5.165925815925);
#299 = AXIS2_PLACEMENT_3D('',#300,#301,#302);
#300 = CARTESIAN_POINT('',(9.444825574147E-15,0.,4.47744346698));
#301 = DIRECTION('',(1.110223024625E-16,0.,-1.));
#302 = DIRECTION('',(1.,0.,1.110223024625E-16));
#303 = PLANE('',#304);
#304 = AXIS2_PLACEMENT_3D('',#305,#306,#307);
#305 = CARTESIAN_POINT('',(9.444825574147E-15,0.,4.47744346698));
#306 = DIRECTION('',(1.110223024625E-16,0.,-1.));
#307 = DIRECTION('',(1.,0.,1.110223024625E-16));
#308 = ADVANCED_FACE('',(#309),#329,.F.);
#309 = FACE_BOUND('',#310,.F.);
#310 = EDGE_LOOP('',(#311,#320,#321,#322));
#311 = ORIENTED_EDGE('',*,*,#312,.F.);
#312 = EDGE_CURVE('',#267,#313,#315,.T.);
#313 = VERTEX_POINT('',#314);
#314 = CARTESIAN_POINT('',(5.165925815925,6.326434515106E-16,
    3.468539436284));
#315 = CIRCLE('',#316,1.15);
#316 = AXIS2_PLACEMENT_3D('',#317,#318,#319);
#317 = CARTESIAN_POINT('',(4.565925815925,0.,2.487468592767));
#318 = DIRECTION('',(0.,1.,0.));
#319 = DIRECTION('',(1.110223024625E-16,0.,-1.));
#320 = ORIENTED_EDGE('',*,*,#275,.T.);
#321 = ORIENTED_EDGE('',*,*,#312,.T.);
#322 = ORIENTED_EDGE('',*,*,#323,.F.);
#323 = EDGE_CURVE('',#313,#313,#324,.T.);
#324 = CIRCLE('',#325,5.165925815925);
#325 = AXIS2_PLACEMENT_3D('',#326,#327,#328);
#326 = CARTESIAN_POINT('',(9.556836422599E-15,0.,3.468539436284));
#327 = DIRECTION('',(1.110223024625E-16,0.,-1.));
#328 = DIRECTION('',(1.,0.,1.110223024625E-16));
#329 = TOROIDAL_SURFACE('',#330,4.565925815925,1.15);
#330 = AXIS2_PLACEMENT_3D('',#331,#332,#333);
#331 = CARTESIAN_POINT('',(9.665757166525E-15,0.,2.487468592767));
#332 = DIRECTION('',(1.110223024625E-16,0.,-1.));
#333 = DIRECTION('',(1.,0.,1.110223024625E-16));
#334 = ADVANCED_FACE('',(#335),#346,.T.);
#335 = FACE_BOUND('',#336,.T.);
#336 = EDGE_LOOP('',(#337,#338,#344,#345));
#337 = ORIENTED_EDGE('',*,*,#295,.T.);
#338 = ORIENTED_EDGE('',*,*,#339,.T.);
#339 = EDGE_CURVE('',#296,#313,#340,.T.);
#340 = LINE('',#341,#342);
#341 = CARTESIAN_POINT('',(5.165925815925,1.265286903021E-15,
    4.52744346698));
#342 = VECTOR('',#343,1.);
#343 = DIRECTION('',(1.110223024625E-16,0.,-1.));
#344 = ORIENTED_EDGE('',*,*,#323,.F.);
#345 = ORIENTED_EDGE('',*,*,#339,.F.);
#346 = CYLINDRICAL_SURFACE('',#347,5.165925815925);
#347 = AXIS2_PLACEMENT_3D('',#348,#349,#350);
#348 = CARTESIAN_POINT('',(9.439274459024E-15,0.,4.52744346698));
#349 = DIRECTION('',(1.110223024625E-16,0.,-1.));
#350 = DIRECTION('',(1.,0.,1.110223024625E-16));
#351 = ( GEOMETRIC_REPRESENTATION_CONTEXT(3) 
GLOBAL_UNCERTAINTY_ASSIGNED_CONTEXT((#355)) GLOBAL_UNIT_ASSIGNED_CONTEXT
((#352,#353,#354)) REPRESENTATION_CONTEXT('Context #1',
  '3D Context with UNIT and UNCERTAINTY') );
#352 = ( LENGTH_UNIT() NAMED_UNIT(*) SI_UNIT(.MILLI.,.METRE.) );
#353 = ( NAMED_UNIT(*) PLANE_ANGLE_UNIT() SI_UNIT($,.RADIAN.) );
#354 = ( NAMED_UNIT(*) SI_UNIT($,.STERADIAN.) SOLID_ANGLE_UNIT() );
#355 = UNCERTAINTY_MEASURE_WITH_UNIT(LENGTH_MEASURE(1.E-07),#352,
  'distance_accuracy_value','confusion accuracy');
#356 = PRODUCT_RELATED_PRODUCT_CATEGORY('part',$,(#7));
ENDSEC;
END-ISO-10303-21;
