ISO-10303-21;
HEADER;
FILE_DESCRIPTION(('FreeCAD Model'),'2;1');
FILE_NAME('Open CASCADE Shape Model','2026-09-26T10:02:26',('FreeCAD'),(
    'FreeCAD'),'Open CASCADE STEP processor 7.8','FreeCAD','Unknown');
FILE_SCHEMA(('AUTOMOTIVE_DESIGN { 1 0 10303 214 1 1 1 1 }'));
ENDSEC;
DATA;
#1 = APPLICATION_PROTOCOL_DEFINITION('international standard',
  'automotive_design',2000,#2);
#2 = APPLICATION_CONTEXT(
  'core data for automotive mechanical design processes');
#3 = SHAPE_DEFINITION_REPRESENTATION(#4,#10);
#4 = PRODUCT_DEFINITION_SHAPE('','',#5);
#5 = PRODUCT_DEFINITION('design','',#6,#9);
#6 = PRODUCT_DEFINITION_FORMATION('','',#7);
#7 = PRODUCT('Open CASCADE STEP translator 7.8 6',
  'Open CASCADE STEP translator 7.8 6','',(#8));
#8 = PRODUCT_CONTEXT('',#2,'mechanical');
#9 = PRODUCT_DEFINITION_CONTEXT('part definition',#2,'design');
#10 = ADVANCED_BREP_SHAPE_REPRESENTATION('',(#11,#15),#480);
#11 = AXIS2_PLACEMENT_3D('',#12,#13,#14);
#12 = CARTESIAN_POINT('',(0.,0.,0.));
#13 = DIRECTION('',(0.,0.,1.));
#14 = DIRECTION('',(1.,0.,-0.));
#15 = MANIFOLD_SOLID_BREP('',#16);
#16 = CLOSED_SHELL('',(#17,#50,#70,#90,#115,#140,#166,#175,#201,#226,
    #246,#271,#297,#323,#348,#368,#393,#421,#453,#470));
#17 = ADVANCED_FACE('',(#18),#45,.T.);
#18 = FACE_BOUND('',#19,.T.);
#19 = EDGE_LOOP('',(#20,#29,#37,#44));
#20 = ORIENTED_EDGE('',*,*,#21,.F.);
#21 = EDGE_CURVE('',#22,#22,#24,.T.);
#22 = VERTEX_POINT('',#23);
#23 = CARTESIAN_POINT('',(8.1,1.983927814619E-15,17.00095121949));
#24 = CIRCLE('',#25,8.1);
#25 = AXIS2_PLACEMENT_3D('',#26,#27,#28);
#26 = CARTESIAN_POINT('',(8.947729491297E-15,0.,17.00095121949));
#27 = DIRECTION('',(1.110223024625E-16,0.,-1.));
#28 = DIRECTION('',(1.,0.,1.110223024625E-16));
#29 = ORIENTED_EDGE('',*,*,#30,.F.);
#30 = EDGE_CURVE('',#31,#22,#33,.T.);
#31 = VERTEX_POINT('',#32);
#32 = CARTESIAN_POINT('',(2.9,7.102951435055E-16,68.740297949034));
#33 = LINE('',#34,#35);
#34 = CARTESIAN_POINT('',(2.9,7.102951435055E-16,68.740297949034));
#35 = VECTOR('',#36,1.);
#36 = DIRECTION('',(0.1,2.449293598295E-17,-0.994987437107));
#37 = ORIENTED_EDGE('',*,*,#38,.T.);
#38 = EDGE_CURVE('',#31,#31,#39,.T.);
#39 = CIRCLE('',#40,2.9);
#40 = AXIS2_PLACEMENT_3D('',#41,#42,#43);
#41 = CARTESIAN_POINT('',(3.203508089477E-15,0.,68.740297949034));
#42 = DIRECTION('',(1.110223024625E-16,0.,-1.));
#43 = DIRECTION('',(1.,0.,1.110223024625E-16));
#44 = ORIENTED_EDGE('',*,*,#30,.T.);
#45 = CONICAL_SURFACE('',#46,2.9,0.100167421162);
#46 = AXIS2_PLACEMENT_3D('',#47,#48,#49);
#47 = CARTESIAN_POINT('',(3.203508089477E-15,0.,68.740297949034));
#48 = DIRECTION('',(1.110223024625E-16,0.,-1.));
#49 = DIRECTION('',(1.,0.,1.110223024625E-16));
#50 = ADVANCED_FACE('',(#51,#54),#65,.T.);
#51 = FACE_BOUND('',#52,.T.);
#52 = EDGE_LOOP('',(#53));
#53 = ORIENTED_EDGE('',*,*,#21,.T.);
#54 = FACE_BOUND('',#55,.T.);
#55 = EDGE_LOOP('',(#56));
#56 = ORIENTED_EDGE('',*,*,#57,.F.);
#57 = EDGE_CURVE('',#58,#58,#60,.T.);
#58 = VERTEX_POINT('',#59);
#59 = CARTESIAN_POINT('',(5.510340635769,1.349644204361E-15,
    17.00095121949));
#60 = CIRCLE('',#61,5.510340635769);
#61 = AXIS2_PLACEMENT_3D('',#62,#63,#64);
#62 = CARTESIAN_POINT('',(8.947729491297E-15,0.,17.00095121949));
#63 = DIRECTION('',(1.110223024625E-16,0.,-1.));
#64 = DIRECTION('',(1.,0.,1.110223024625E-16));
#65 = PLANE('',#66);
#66 = AXIS2_PLACEMENT_3D('',#67,#68,#69);
#67 = CARTESIAN_POINT('',(8.947729491297E-15,0.,17.00095121949));
#68 = DIRECTION('',(1.110223024625E-16,0.,-1.));
#69 = DIRECTION('',(1.,0.,1.110223024625E-16));
#70 = ADVANCED_FACE('',(#71,#74),#85,.F.);
#71 = FACE_BOUND('',#72,.F.);
#72 = EDGE_LOOP('',(#73));
#73 = ORIENTED_EDGE('',*,*,#38,.T.);
#74 = FACE_BOUND('',#75,.F.);
#75 = EDGE_LOOP('',(#76));
#76 = ORIENTED_EDGE('',*,*,#77,.F.);
#77 = EDGE_CURVE('',#78,#78,#80,.T.);
#78 = VERTEX_POINT('',#79);
#79 = CARTESIAN_POINT('',(1.85,4.531193156845E-16,68.740297949034));
#80 = CIRCLE('',#81,1.85);
#81 = AXIS2_PLACEMENT_3D('',#82,#83,#84);
#82 = CARTESIAN_POINT('',(3.203508089477E-15,0.,68.740297949034));
#83 = DIRECTION('',(1.110223024625E-16,0.,-1.));
#84 = DIRECTION('',(1.,0.,1.110223024625E-16));
#85 = PLANE('',#86);
#86 = AXIS2_PLACEMENT_3D('',#87,#88,#89);
#87 = CARTESIAN_POINT('',(3.203508089477E-15,0.,68.740297949034));
#88 = DIRECTION('',(1.110223024625E-16,0.,-1.));
#89 = DIRECTION('',(1.,0.,1.110223024625E-16));
#90 = ADVANCED_FACE('',(#91),#110,.T.);
#91 = FACE_BOUND('',#92,.T.);
#92 = EDGE_LOOP('',(#93,#94,#102,#109));
#93 = ORIENTED_EDGE('',*,*,#57,.T.);
#94 = ORIENTED_EDGE('',*,*,#95,.T.);
#95 = EDGE_CURVE('',#58,#96,#98,.T.);
#96 = VERTEX_POINT('',#97);
#97 = CARTESIAN_POINT('',(5.510340635769,6.748221021806E-16,
    15.494553470241));
#98 = LINE('',#99,#100);
#99 = CARTESIAN_POINT('',(5.510340635769,1.349644204361E-15,
    17.15095121949));
#100 = VECTOR('',#101,1.);
#101 = DIRECTION('',(1.110223024625E-16,0.,-1.));
#102 = ORIENTED_EDGE('',*,*,#103,.F.);
#103 = EDGE_CURVE('',#96,#96,#104,.T.);
#104 = CIRCLE('',#105,5.510340635769);
#105 = AXIS2_PLACEMENT_3D('',#106,#107,#108);
#106 = CARTESIAN_POINT('',(9.114973237843E-15,0.,15.494553470241));
#107 = DIRECTION('',(1.110223024625E-16,0.,-1.));
#108 = DIRECTION('',(1.,0.,1.110223024625E-16));
#109 = ORIENTED_EDGE('',*,*,#95,.F.);
#110 = CYLINDRICAL_SURFACE('',#111,5.510340635769);
#111 = AXIS2_PLACEMENT_3D('',#112,#113,#114);
#112 = CARTESIAN_POINT('',(8.931076145928E-15,0.,17.15095121949));
#113 = DIRECTION('',(1.110223024625E-16,0.,-1.));
#114 = DIRECTION('',(1.,0.,1.110223024625E-16));
#115 = ADVANCED_FACE('',(#116),#135,.F.);
#116 = FACE_BOUND('',#117,.F.);
#117 = EDGE_LOOP('',(#118,#126,#133,#134));
#118 = ORIENTED_EDGE('',*,*,#119,.T.);
#119 = EDGE_CURVE('',#78,#120,#122,.T.);
#120 = VERTEX_POINT('',#121);
#121 = CARTESIAN_POINT('',(1.85,4.531193156845E-16,48.740297949034));
#122 = LINE('',#123,#124);
#123 = CARTESIAN_POINT('',(1.85,4.531193156845E-16,69.040297949034));
#124 = VECTOR('',#125,1.);
#125 = DIRECTION('',(1.110223024625E-16,0.,-1.));
#126 = ORIENTED_EDGE('',*,*,#127,.F.);
#127 = EDGE_CURVE('',#120,#120,#128,.T.);
#128 = CIRCLE('',#129,1.85);
#129 = AXIS2_PLACEMENT_3D('',#130,#131,#132);
#130 = CARTESIAN_POINT('',(5.423954138727E-15,0.,48.740297949034));
#131 = DIRECTION('',(1.110223024625E-16,0.,-1.));
#132 = DIRECTION('',(1.,0.,1.110223024625E-16));
#133 = ORIENTED_EDGE('',*,*,#119,.F.);
#134 = ORIENTED_EDGE('',*,*,#77,.T.);
#135 = CYLINDRICAL_SURFACE('',#136,1.85);
#136 = AXIS2_PLACEMENT_3D('',#137,#138,#139);
#137 = CARTESIAN_POINT('',(3.170201398738E-15,0.,69.040297949034));
#138 = DIRECTION('',(1.110223024625E-16,0.,-1.));
#139 = DIRECTION('',(1.,0.,1.110223024625E-16));
#140 = ADVANCED_FACE('',(#141),#161,.F.);
#141 = FACE_BOUND('',#142,.F.);
#142 = EDGE_LOOP('',(#143,#152,#159,#160));
#143 = ORIENTED_EDGE('',*,*,#144,.F.);
#144 = EDGE_CURVE('',#145,#96,#147,.T.);
#145 = VERTEX_POINT('',#146);
#146 = CARTESIAN_POINT('',(4.910340635769,0.,13.363482626723));
#147 = CIRCLE('',#148,1.15);
#148 = AXIS2_PLACEMENT_3D('',#149,#150,#151);
#149 = CARTESIAN_POINT('',(4.910340635769,0.,14.513482626724));
#150 = DIRECTION('',(0.,1.,0.));
#151 = DIRECTION('',(1.110223024625E-16,0.,-1.));
#152 = ORIENTED_EDGE('',*,*,#153,.T.);
#153 = EDGE_CURVE('',#145,#145,#154,.T.);
#154 = CIRCLE('',#155,4.910340635769);
#155 = AXIS2_PLACEMENT_3D('',#156,#157,#158);
#156 = CARTESIAN_POINT('',(9.351569629601E-15,0.,13.363482626723));
#157 = DIRECTION('',(1.110223024625E-16,0.,-1.));
#158 = DIRECTION('',(1.,0.,1.110223024625E-16));
#159 = ORIENTED_EDGE('',*,*,#144,.T.);
#160 = ORIENTED_EDGE('',*,*,#103,.F.);
#161 = TOROIDAL_SURFACE('',#162,4.910340635769,1.15);
#162 = AXIS2_PLACEMENT_3D('',#163,#164,#165);
#163 = CARTESIAN_POINT('',(9.223893981769E-15,0.,14.513482626724));
#164 = DIRECTION('',(1.110223024625E-16,0.,-1.));
#165 = DIRECTION('',(1.,0.,1.110223024625E-16));
#166 = ADVANCED_FACE('',(#167),#170,.F.);
#167 = FACE_BOUND('',#168,.F.);
#168 = EDGE_LOOP('',(#169));
#169 = ORIENTED_EDGE('',*,*,#127,.T.);
#170 = PLANE('',#171);
#171 = AXIS2_PLACEMENT_3D('',#172,#173,#174);
#172 = CARTESIAN_POINT('',(5.423954138727E-15,0.,48.740297949034));
#173 = DIRECTION('',(1.110223024625E-16,0.,-1.));
#174 = DIRECTION('',(1.,0.,1.110223024625E-16));
#175 = ADVANCED_FACE('',(#176),#196,.F.);
#176 = FACE_BOUND('',#177,.F.);
#177 = EDGE_LOOP('',(#178,#187,#188,#189));
#178 = ORIENTED_EDGE('',*,*,#179,.T.);
#179 = EDGE_CURVE('',#180,#145,#182,.T.);
#180 = VERTEX_POINT('',#181);
#181 = CARTESIAN_POINT('',(5.510340635769,6.748221021806E-16,
    13.532411783206));
#182 = CIRCLE('',#183,1.15);
#183 = AXIS2_PLACEMENT_3D('',#184,#185,#186);
#184 = CARTESIAN_POINT('',(4.910340635769,0.,14.513482626724));
#185 = DIRECTION('',(0.,1.,0.));
#186 = DIRECTION('',(1.110223024625E-16,0.,-1.));
#187 = ORIENTED_EDGE('',*,*,#153,.F.);
#188 = ORIENTED_EDGE('',*,*,#179,.F.);
#189 = ORIENTED_EDGE('',*,*,#190,.T.);
#190 = EDGE_CURVE('',#180,#180,#191,.T.);
#191 = CIRCLE('',#192,5.510340635769);
#192 = AXIS2_PLACEMENT_3D('',#193,#194,#195);
#193 = CARTESIAN_POINT('',(9.332814725695E-15,0.,13.532411783206));
#194 = DIRECTION('',(1.110223024625E-16,0.,-1.));
#195 = DIRECTION('',(1.,0.,1.110223024625E-16));
#196 = TOROIDAL_SURFACE('',#197,4.910340635769,1.15);
#197 = AXIS2_PLACEMENT_3D('',#198,#199,#200);
#198 = CARTESIAN_POINT('',(9.223893981769E-15,0.,14.513482626724));
#199 = DIRECTION('',(1.110223024625E-16,0.,-1.));
#200 = DIRECTION('',(1.,0.,1.110223024625E-16));
#201 = ADVANCED_FACE('',(#202),#221,.T.);
#202 = FACE_BOUND('',#203,.T.);
#203 = EDGE_LOOP('',(#204,#205,#213,#220));
#204 = ORIENTED_EDGE('',*,*,#190,.T.);
#205 = ORIENTED_EDGE('',*,*,#206,.T.);
#206 = EDGE_CURVE('',#180,#207,#209,.T.);
#207 = VERTEX_POINT('',#208);
#208 = CARTESIAN_POINT('',(5.510340635769,1.349644204361E-15,
    12.52350775251));
#209 = LINE('',#210,#211);
#210 = CARTESIAN_POINT('',(5.510340635769,1.349644204361E-15,
    17.15095121949));
#211 = VECTOR('',#212,1.);
#212 = DIRECTION('',(1.110223024625E-16,0.,-1.));
#213 = ORIENTED_EDGE('',*,*,#214,.F.);
#214 = EDGE_CURVE('',#207,#207,#215,.T.);
#215 = CIRCLE('',#216,5.510340635769);
#216 = AXIS2_PLACEMENT_3D('',#217,#218,#219);
#217 = CARTESIAN_POINT('',(9.444825574147E-15,0.,12.52350775251));
#218 = DIRECTION('',(1.110223024625E-16,0.,-1.));
#219 = DIRECTION('',(1.,0.,1.110223024625E-16));
#220 = ORIENTED_EDGE('',*,*,#206,.F.);
#221 = CYLINDRICAL_SURFACE('',#222,5.510340635769);
#222 = AXIS2_PLACEMENT_3D('',#223,#224,#225);
#223 = CARTESIAN_POINT('',(8.931076145928E-15,0.,17.15095121949));
#224 = DIRECTION('',(1.110223024625E-16,0.,-1.));
#225 = DIRECTION('',(1.,0.,1.110223024625E-16));
#226 = ADVANCED_FACE('',(#227,#230),#241,.T.);
#227 = FACE_BOUND('',#228,.T.);
#228 = EDGE_LOOP('',(#229));
#229 = ORIENTED_EDGE('',*,*,#214,.T.);
#230 = FACE_BOUND('',#231,.T.);
#231 = EDGE_LOOP('',(#232));
#232 = ORIENTED_EDGE('',*,*,#233,.F.);
#233 = EDGE_CURVE('',#234,#234,#236,.T.);
#234 = VERTEX_POINT('',#235);
#235 = CARTESIAN_POINT('',(5.165925815925,1.265286903021E-15,
    12.52350775251));
#236 = CIRCLE('',#237,5.165925815925);
#237 = AXIS2_PLACEMENT_3D('',#238,#239,#240);
#238 = CARTESIAN_POINT('',(9.444825574147E-15,0.,12.52350775251));
#239 = DIRECTION('',(1.110223024625E-16,0.,-1.));
#240 = DIRECTION('',(1.,0.,1.110223024625E-16));
#241 = PLANE('',#242);
#242 = AXIS2_PLACEMENT_3D('',#243,#244,#245);
#243 = CARTESIAN_POINT('',(9.444825574147E-15,0.,12.52350775251));
#244 = DIRECTION('',(1.110223024625E-16,0.,-1.));
#245 = DIRECTION('',(1.,0.,1.110223024625E-16));
#246 = ADVANCED_FACE('',(#247),#266,.T.);
#247 = FACE_BOUND('',#248,.T.);
#248 = EDGE_LOOP('',(#249,#250,#258,#265));
#249 = ORIENTED_EDGE('',*,*,#233,.T.);
#250 = ORIENTED_EDGE('',*,*,#251,.T.);
#251 = EDGE_CURVE('',#234,#252,#254,.T.);
#252 = VERTEX_POINT('',#253);
#253 = CARTESIAN_POINT('',(5.165925815925,6.326434515106E-16,
    11.514603721814));
#254 = LINE('',#255,#256);
#255 = CARTESIAN_POINT('',(5.165925815925,1.265286903021E-15,
    12.57350775251));
#256 = VECTOR('',#257,1.);
#257 = DIRECTION('',(1.110223024625E-16,0.,-1.));
#258 = ORIENTED_EDGE('',*,*,#259,.F.);
#259 = EDGE_CURVE('',#252,#252,#260,.T.);
#260 = CIRCLE('',#261,5.165925815925);
#261 = AXIS2_PLACEMENT_3D('',#262,#263,#264);
#262 = CARTESIAN_POINT('',(9.556836422599E-15,0.,11.514603721814));
#263 = DIRECTION('',(1.110223024625E-16,0.,-1.));
#264 = DIRECTION('',(1.,0.,1.110223024625E-16));
#265 = ORIENTED_EDGE('',*,*,#251,.F.);
#266 = CYLINDRICAL_SURFACE('',#267,5.165925815925);
#267 = AXIS2_PLACEMENT_3D('',#268,#269,#270);
#268 = CARTESIAN_POINT('',(9.439274459024E-15,0.,12.57350775251));
#269 = DIRECTION('',(1.110223024625E-16,0.,-1.));
#270 = DIRECTION('',(1.,0.,1.110223024625E-16));
#271 = ADVANCED_FACE('',(#272),#292,.F.);
#272 = FACE_BOUND('',#273,.F.);
#273 = EDGE_LOOP('',(#274,#283,#290,#291));
#274 = ORIENTED_EDGE('',*,*,#275,.F.);
#275 = EDGE_CURVE('',#276,#252,#278,.T.);
#276 = VERTEX_POINT('',#277);
#277 = CARTESIAN_POINT('',(4.565925815925,0.,9.383532878297));
#278 = CIRCLE('',#279,1.15);
#279 = AXIS2_PLACEMENT_3D('',#280,#281,#282);
#280 = CARTESIAN_POINT('',(4.565925815925,0.,10.533532878297));
#281 = DIRECTION('',(0.,1.,0.));
#282 = DIRECTION('',(1.110223024625E-16,0.,-1.));
#283 = ORIENTED_EDGE('',*,*,#284,.T.);
#284 = EDGE_CURVE('',#276,#276,#285,.T.);
#285 = CIRCLE('',#286,4.565925815925);
#286 = AXIS2_PLACEMENT_3D('',#287,#288,#289);
#287 = CARTESIAN_POINT('',(9.793432814357E-15,0.,9.383532878297));
#288 = DIRECTION('',(1.110223024625E-16,0.,-1.));
#289 = DIRECTION('',(1.,0.,1.110223024625E-16));
#290 = ORIENTED_EDGE('',*,*,#275,.T.);
#291 = ORIENTED_EDGE('',*,*,#259,.F.);
#292 = TOROIDAL_SURFACE('',#293,4.565925815925,1.15);
#293 = AXIS2_PLACEMENT_3D('',#294,#295,#296);
#294 = CARTESIAN_POINT('',(9.665757166525E-15,0.,10.533532878297));
#295 = DIRECTION('',(1.110223024625E-16,0.,-1.));
#296 = DIRECTION('',(1.,0.,1.110223024625E-16));
#297 = ADVANCED_FACE('',(#298),#318,.F.);
#298 = FACE_BOUND('',#299,.F.);
#299 = EDGE_LOOP('',(#300,#309,#310,#311));
#300 = ORIENTED_EDGE('',*,*,#301,.T.);
#301 = EDGE_CURVE('',#302,#276,#304,.T.);
#302 = VERTEX_POINT('',#303);
#303 = CARTESIAN_POINT('',(5.165925815925,6.326434515106E-16,
    9.55246203478));
#304 = CIRCLE('',#305,1.15);
#305 = AXIS2_PLACEMENT_3D('',#306,#307,#308);
#306 = CARTESIAN_POINT('',(4.565925815925,0.,10.533532878297));
#307 = DIRECTION('',(0.,1.,0.));
#308 = DIRECTION('',(1.110223024625E-16,0.,-1.));
#309 = ORIENTED_EDGE('',*,*,#284,.F.);
#310 = ORIENTED_EDGE('',*,*,#301,.F.);
#311 = ORIENTED_EDGE('',*,*,#312,.T.);
#312 = EDGE_CURVE('',#302,#302,#313,.T.);
#313 = CIRCLE('',#314,5.165925815925);
#314 = AXIS2_PLACEMENT_3D('',#315,#316,#317);
#315 = CARTESIAN_POINT('',(9.774677910451E-15,0.,9.55246203478));
#316 = DIRECTION('',(1.110223024625E-16,0.,-1.));
#317 = DIRECTION('',(1.,0.,1.110223024625E-16));
#318 = TOROIDAL_SURFACE('',#319,4.565925815925,1.15);
#319 = AXIS2_PLACEMENT_3D('',#320,#321,#322);
#320 = CARTESIAN_POINT('',(9.665757166525E-15,0.,10.533532878297));
#321 = DIRECTION('',(1.110223024625E-16,0.,-1.));
#322 = DIRECTION('',(1.,0.,1.110223024625E-16));
#323 = ADVANCED_FACE('',(#324),#343,.T.);
#324 = FACE_BOUND('',#325,.T.);
#325 = EDGE_LOOP('',(#326,#327,#335,#342));
#326 = ORIENTED_EDGE('',*,*,#312,.T.);
#327 = ORIENTED_EDGE('',*,*,#328,.T.);
#328 = EDGE_CURVE('',#302,#329,#331,.T.);
#329 = VERTEX_POINT('',#330);
#330 = CARTESIAN_POINT('',(5.165925815925,1.265286903021E-15,
    8.04606428553));
#331 = LINE('',#332,#333);
#332 = CARTESIAN_POINT('',(5.165925815925,1.265286903021E-15,
    12.57350775251));
#333 = VECTOR('',#334,1.);
#334 = DIRECTION('',(1.110223024625E-16,0.,-1.));
#335 = ORIENTED_EDGE('',*,*,#336,.F.);
#336 = EDGE_CURVE('',#329,#329,#337,.T.);
#337 = CIRCLE('',#338,5.165925815925);
#338 = AXIS2_PLACEMENT_3D('',#339,#340,#341);
#339 = CARTESIAN_POINT('',(9.941921656997E-15,0.,8.04606428553));
#340 = DIRECTION('',(1.110223024625E-16,0.,-1.));
#341 = DIRECTION('',(1.,0.,1.110223024625E-16));
#342 = ORIENTED_EDGE('',*,*,#328,.F.);
#343 = CYLINDRICAL_SURFACE('',#344,5.165925815925);
#344 = AXIS2_PLACEMENT_3D('',#345,#346,#347);
#345 = CARTESIAN_POINT('',(9.439274459024E-15,0.,12.57350775251));
#346 = DIRECTION('',(1.110223024625E-16,0.,-1.));
#347 = DIRECTION('',(1.,0.,1.110223024625E-16));
#348 = ADVANCED_FACE('',(#349,#352),#363,.T.);
#349 = FACE_BOUND('',#350,.T.);
#350 = EDGE_LOOP('',(#351));
#351 = ORIENTED_EDGE('',*,*,#336,.T.);
#352 = FACE_BOUND('',#353,.T.);
#353 = EDGE_LOOP('',(#354));
#354 = ORIENTED_EDGE('',*,*,#355,.F.);
#355 = EDGE_CURVE('',#356,#356,#358,.T.);
#356 = VERTEX_POINT('',#357);
#357 = CARTESIAN_POINT('',(3.5,8.572527594031E-16,8.04606428553));
#358 = CIRCLE('',#359,3.5);
#359 = AXIS2_PLACEMENT_3D('',#360,#361,#362);
#360 = CARTESIAN_POINT('',(9.941921656997E-15,0.,8.04606428553));
#361 = DIRECTION('',(1.110223024625E-16,0.,-1.));
#362 = DIRECTION('',(1.,0.,1.110223024625E-16));
#363 = PLANE('',#364);
#364 = AXIS2_PLACEMENT_3D('',#365,#366,#367);
#365 = CARTESIAN_POINT('',(9.941921656997E-15,0.,8.04606428553));
#366 = DIRECTION('',(1.110223024625E-16,0.,-1.));
#367 = DIRECTION('',(1.,0.,1.110223024625E-16));
#368 = ADVANCED_FACE('',(#369),#388,.T.);
#369 = FACE_BOUND('',#370,.T.);
#370 = EDGE_LOOP('',(#371,#379,#386,#387));
#371 = ORIENTED_EDGE('',*,*,#372,.T.);
#372 = EDGE_CURVE('',#356,#373,#375,.T.);
#373 = VERTEX_POINT('',#374);
#374 = CARTESIAN_POINT('',(3.5,8.572527594031E-16,0.));
#375 = LINE('',#376,#377);
#376 = CARTESIAN_POINT('',(3.5,8.572527594031E-16,8.19606428553));
#377 = VECTOR('',#378,1.);
#378 = DIRECTION('',(1.110223024625E-16,0.,-1.));
#379 = ORIENTED_EDGE('',*,*,#380,.F.);
#380 = EDGE_CURVE('',#373,#373,#381,.T.);
#381 = CIRCLE('',#382,3.5);
#382 = AXIS2_PLACEMENT_3D('',#383,#384,#385);
#383 = CARTESIAN_POINT('',(1.083521423974E-14,0.,0.));
#384 = DIRECTION('',(1.110223024625E-16,0.,-1.));
#385 = DIRECTION('',(1.,0.,1.110223024625E-16));
#386 = ORIENTED_EDGE('',*,*,#372,.F.);
#387 = ORIENTED_EDGE('',*,*,#355,.T.);
#388 = CYLINDRICAL_SURFACE('',#389,3.5);
#389 = AXIS2_PLACEMENT_3D('',#390,#391,#392);
#390 = CARTESIAN_POINT('',(9.925268311628E-15,0.,8.19606428553));
#391 = DIRECTION('',(1.110223024625E-16,0.,-1.));
#392 = DIRECTION('',(1.,0.,1.110223024625E-16));
#393 = ADVANCED_FACE('',(#394,#397),#416,.T.);
#394 = FACE_BOUND('',#395,.T.);
#395 = EDGE_LOOP('',(#396));
#396 = ORIENTED_EDGE('',*,*,#380,.T.);
#397 = FACE_BOUND('',#398,.T.);
#398 = EDGE_LOOP('',(#399,#410));
#399 = ORIENTED_EDGE('',*,*,#400,.F.);
#400 = EDGE_CURVE('',#401,#403,#405,.T.);
#401 = VERTEX_POINT('',#402);
#402 = CARTESIAN_POINT('',(1.,-1.312440474841,0.));
#403 = VERTEX_POINT('',#404);
#404 = CARTESIAN_POINT('',(1.,1.312440474841,0.));
#405 = CIRCLE('',#406,1.65);
#406 = AXIS2_PLACEMENT_3D('',#407,#408,#409);
#407 = CARTESIAN_POINT('',(1.083521423974E-14,0.,0.));
#408 = DIRECTION('',(1.110223024625E-16,0.,-1.));
#409 = DIRECTION('',(1.,0.,1.110223024625E-16));
#410 = ORIENTED_EDGE('',*,*,#411,.F.);
#411 = EDGE_CURVE('',#403,#401,#412,.T.);
#412 = LINE('',#413,#414);
#413 = CARTESIAN_POINT('',(1.,-1.25,0.));
#414 = VECTOR('',#415,1.);
#415 = DIRECTION('',(0.,-1.,0.));
#416 = PLANE('',#417);
#417 = AXIS2_PLACEMENT_3D('',#418,#419,#420);
#418 = CARTESIAN_POINT('',(1.083521423974E-14,0.,0.));
#419 = DIRECTION('',(1.110223024625E-16,0.,-1.));
#420 = DIRECTION('',(1.,0.,1.110223024625E-16));
#421 = ADVANCED_FACE('',(#422),#448,.F.);
#422 = FACE_BOUND('',#423,.F.);
#423 = EDGE_LOOP('',(#424,#425,#433,#442));
#424 = ORIENTED_EDGE('',*,*,#400,.F.);
#425 = ORIENTED_EDGE('',*,*,#426,.F.);
#426 = EDGE_CURVE('',#427,#401,#429,.T.);
#427 = VERTEX_POINT('',#428);
#428 = CARTESIAN_POINT('',(1.,-1.312440474841,10.));
#429 = LINE('',#430,#431);
#430 = CARTESIAN_POINT('',(1.,-1.312440474841,10.));
#431 = VECTOR('',#432,1.);
#432 = DIRECTION('',(1.110223024625E-16,0.,-1.));
#433 = ORIENTED_EDGE('',*,*,#434,.T.);
#434 = EDGE_CURVE('',#427,#435,#437,.T.);
#435 = VERTEX_POINT('',#436);
#436 = CARTESIAN_POINT('',(1.,1.312440474841,10.));
#437 = CIRCLE('',#438,1.65);
#438 = AXIS2_PLACEMENT_3D('',#439,#440,#441);
#439 = CARTESIAN_POINT('',(9.724991215113E-15,0.,10.));
#440 = DIRECTION('',(1.110223024625E-16,0.,-1.));
#441 = DIRECTION('',(1.,0.,1.110223024625E-16));
#442 = ORIENTED_EDGE('',*,*,#443,.T.);
#443 = EDGE_CURVE('',#435,#403,#444,.T.);
#444 = LINE('',#445,#446);
#445 = CARTESIAN_POINT('',(1.,1.312440474841,10.));
#446 = VECTOR('',#447,1.);
#447 = DIRECTION('',(1.110223024625E-16,0.,-1.));
#448 = CYLINDRICAL_SURFACE('',#449,1.65);
#449 = AXIS2_PLACEMENT_3D('',#450,#451,#452);
#450 = CARTESIAN_POINT('',(9.724991215113E-15,0.,10.));
#451 = DIRECTION('',(1.110223024625E-16,0.,-1.));
#452 = DIRECTION('',(1.,0.,1.110223024625E-16));
#453 = ADVANCED_FACE('',(#454),#465,.F.);
#454 = FACE_BOUND('',#455,.F.);
#455 = EDGE_LOOP('',(#456,#457,#463,#464));
#456 = ORIENTED_EDGE('',*,*,#443,.F.);
#457 = ORIENTED_EDGE('',*,*,#458,.T.);
#458 = EDGE_CURVE('',#435,#427,#459,.T.);
#459 = LINE('',#460,#461);
#460 = CARTESIAN_POINT('',(1.,-1.25,10.));
#461 = VECTOR('',#462,1.);
#462 = DIRECTION('',(0.,-1.,0.));
#463 = ORIENTED_EDGE('',*,*,#426,.T.);
#464 = ORIENTED_EDGE('',*,*,#411,.F.);
#465 = PLANE('',#466);
#466 = AXIS2_PLACEMENT_3D('',#467,#468,#469);
#467 = CARTESIAN_POINT('',(1.,-2.5,10.5));
#468 = DIRECTION('',(1.,0.,1.110223024625E-16));
#469 = DIRECTION('',(1.110223024625E-16,0.,-1.));
#470 = ADVANCED_FACE('',(#471),#475,.T.);
#471 = FACE_BOUND('',#472,.T.);
#472 = EDGE_LOOP('',(#473,#474));
#473 = ORIENTED_EDGE('',*,*,#458,.T.);
#474 = ORIENTED_EDGE('',*,*,#434,.T.);
#475 = PLANE('',#476);
#476 = AXIS2_PLACEMENT_3D('',#477,#478,#479);
#477 = CARTESIAN_POINT('',(9.724991215113E-15,0.,10.));
#478 = DIRECTION('',(1.110223024625E-16,0.,-1.));
#479 = DIRECTION('',(1.,0.,1.110223024625E-16));
#480 = ( GEOMETRIC_REPRESENTATION_CONTEXT(3) 
GLOBAL_UNCERTAINTY_ASSIGNED_CONTEXT((#484)) GLOBAL_UNIT_ASSIGNED_CONTEXT
((#481,#482,#483)) REPRESENTATION_CONTEXT('Context #1',
  '3D Context with UNIT and UNCERTAINTY') );
#481 = ( LENGTH_UNIT() NAMED_UNIT(*) SI_UNIT(.MILLI.,.METRE.) );
#482 = ( NAMED_UNIT(*) PLANE_ANGLE_UNIT() SI_UNIT($,.RADIAN.) );
#483 = ( NAMED_UNIT(*) SI_UNIT($,.STERADIAN.) SOLID_ANGLE_UNIT() );
#484 = UNCERTAINTY_MEASURE_WITH_UNIT(LENGTH_MEASURE(1.E-07),#481,
  'distance_accuracy_value','confusion accuracy');
#485 = PRODUCT_RELATED_PRODUCT_CATEGORY('part',$,(#7));
ENDSEC;
END-ISO-10303-21;
