ISO-10303-21;
HEADER;
FILE_DESCRIPTION(('FreeCAD Model'),'2;1');
FILE_NAME('Open CASCADE Shape Model','2026-08-09T00:47:56',('FreeCAD'),(
    'FreeCAD'),'Open CASCADE STEP processor 7.8','FreeCAD','Unknown');
FILE_SCHEMA(('AUTOMOTIVE_DESIGN { 1 0 10303 214 1 1 1 1 }'));
ENDSEC;
DATA;
#1 = APPLICATION_PROTOCOL_DEFINITION('international standard',
  'automotive_design',2000,#2);
#2 = APPLICATION_CONTEXT(
  'core data for automotive mechanical design processes');
#3 = SHAPE_DEFINITION_REPRESENTATION(#4,#10);
#4 = PRODUCT_DEFINITION_SHAPE('','',#5);
#5 = PRODUCT_DEFINITION('design','',#6,#9);
#6 = PRODUCT_DEFINITION_FORMATION('','',#7);
#7 = PRODUCT('Open CASCADE STEP translator 7.8 5',
  'Open CASCADE STEP translator 7.8 5','',(#8));
#8 = PRODUCT_CONTEXT('',#2,'mechanical');
#9 = PRODUCT_DEFINITION_CONTEXT('part definition',#2,'design');
#10 = ADVANCED_BREP_SHAPE_REPRESENTATION('',(#11,#15),#552);
#11 = AXIS2_PLACEMENT_3D('',#12,#13,#14);
#12 = CARTESIAN_POINT('',(0.,0.,0.));
#13 = DIRECTION('',(0.,0.,1.));
#14 = DIRECTION('',(1.,0.,-0.));
#15 = MANIFOLD_SOLID_BREP('',#16);
#16 = CLOSED_SHELL('',(#17,#126,#294,#314,#334,#391,#408,#425,#450,#475,
    #485,#498,#518,#543));
#17 = ADVANCED_FACE('',(#18),#121,.T.);
#18 = FACE_BOUND('',#19,.T.);
#19 = EDGE_LOOP('',(#20,#30,#37,#38,#69,#77,#84,#85,#104));
#20 = ORIENTED_EDGE('',*,*,#21,.T.);
#21 = EDGE_CURVE('',#22,#24,#26,.T.);
#22 = VERTEX_POINT('',#23);
#23 = CARTESIAN_POINT('',(-1.259320677518E-14,7.6,12.5));
#24 = VERTEX_POINT('',#25);
#25 = CARTESIAN_POINT('',(-3.061616997868E-15,51.5,12.5));
#26 = LINE('',#27,#28);
#27 = CARTESIAN_POINT('',(-3.061616997868E-15,1.5,12.5));
#28 = VECTOR('',#29,1.);
#29 = DIRECTION('',(0.,1.,0.));
#30 = ORIENTED_EDGE('',*,*,#31,.F.);
#31 = EDGE_CURVE('',#24,#24,#32,.T.);
#32 = CIRCLE('',#33,12.5);
#33 = AXIS2_PLACEMENT_3D('',#34,#35,#36);
#34 = CARTESIAN_POINT('',(0.,51.5,0.));
#35 = DIRECTION('',(0.,1.,0.));
#36 = DIRECTION('',(0.,-0.,1.));
#37 = ORIENTED_EDGE('',*,*,#21,.F.);
#38 = ORIENTED_EDGE('',*,*,#39,.T.);
#39 = EDGE_CURVE('',#22,#40,#42,.T.);
#40 = VERTEX_POINT('',#41);
#41 = CARTESIAN_POINT('',(-1.204199191944E-14,4.4,12.5));
#42 = B_SPLINE_CURVE_WITH_KNOTS('',7,(#43,#44,#45,#46,#47,#48,#49,#50,
    #51,#52,#53,#54,#55,#56,#57,#58,#59,#60,#61,#62,#63,#64,#65,#66,#67,
    #68),.UNSPECIFIED.,.F.,.F.,(8,6,6,6,8),(0.,0.257863975061,
    0.500052319038,0.742223229316,1.),.UNSPECIFIED.);
#43 = CARTESIAN_POINT('',(6.615568637942E-16,7.6,12.5));
#44 = CARTESIAN_POINT('',(0.219302198804,7.6,12.5));
#45 = CARTESIAN_POINT('',(0.432955743824,7.564932173107,12.495511165347)
  );
#46 = CARTESIAN_POINT('',(0.634486959357,7.498045995857,12.486950566107)
  );
#47 = CARTESIAN_POINT('',(0.818490401509,7.403844417597,12.4755000417));
#48 = CARTESIAN_POINT('',(0.980824050479,7.288032170813,12.462806080723)
  );
#49 = CARTESIAN_POINT('',(1.119023573434,7.157436070114,12.450335872601)
  );
#50 = CARTESIAN_POINT('',(1.33970101111,6.890682871543,12.428464776612)
  );
#51 = CARTESIAN_POINT('',(1.427612061803,6.752255754471,12.418670074461)
  );
#52 = CARTESIAN_POINT('',(1.49707536615,6.607401946197,12.410309268135)
  );
#53 = CARTESIAN_POINT('',(1.548670688147,6.458224416956,12.403801778308)
  );
#54 = CARTESIAN_POINT('',(1.582882554791,6.306374406503,12.399386295201)
  );
#55 = CARTESIAN_POINT('',(1.6,6.153217496498,12.397177098033));
#56 = CARTESIAN_POINT('',(1.6,5.846793532718,12.397177098033));
#57 = CARTESIAN_POINT('',(1.582885025154,5.693640408326,12.399385976028)
  );
#58 = CARTESIAN_POINT('',(1.548675162537,5.541784642128,12.403801201079)
  );
#59 = CARTESIAN_POINT('',(1.497077218549,5.392594689352,12.410309073734)
  );
#60 = CARTESIAN_POINT('',(1.42760611117,5.247729701024,12.418670912317)
  );
#61 = CARTESIAN_POINT('',(1.339688772323,5.109302334305,12.428465989584)
  );
#62 = CARTESIAN_POINT('',(1.119066895524,4.842616297298,12.450331578997)
  );
#63 = CARTESIAN_POINT('',(0.980865976475,4.711990712237,12.462802857295)
  );
#64 = CARTESIAN_POINT('',(0.818487359476,4.596133294088,12.475501771228)
  );
#65 = CARTESIAN_POINT('',(0.634420021552,4.501909773316,12.486956239878)
  );
#66 = CARTESIAN_POINT('',(0.432843713673,4.435036489777,12.495515175151)
  );
#67 = CARTESIAN_POINT('',(0.219204190926,4.4,12.5));
#68 = CARTESIAN_POINT('',(8.575003516578E-16,4.4,12.5));
#69 = ORIENTED_EDGE('',*,*,#70,.F.);
#70 = EDGE_CURVE('',#71,#40,#73,.T.);
#71 = VERTEX_POINT('',#72);
#72 = CARTESIAN_POINT('',(-3.061616997868E-15,1.5,12.5));
#73 = LINE('',#74,#75);
#74 = CARTESIAN_POINT('',(-3.061616997868E-15,1.5,12.5));
#75 = VECTOR('',#76,1.);
#76 = DIRECTION('',(0.,1.,0.));
#77 = ORIENTED_EDGE('',*,*,#78,.T.);
#78 = EDGE_CURVE('',#71,#71,#79,.T.);
#79 = CIRCLE('',#80,12.5);
#80 = AXIS2_PLACEMENT_3D('',#81,#82,#83);
#81 = CARTESIAN_POINT('',(0.,1.5,0.));
#82 = DIRECTION('',(0.,1.,0.));
#83 = DIRECTION('',(0.,-0.,1.));
#84 = ORIENTED_EDGE('',*,*,#70,.T.);
#85 = ORIENTED_EDGE('',*,*,#86,.T.);
#86 = EDGE_CURVE('',#40,#87,#89,.T.);
#87 = VERTEX_POINT('',#88);
#88 = CARTESIAN_POINT('',(-1.6,6.,12.397177098033));
#89 = B_SPLINE_CURVE_WITH_KNOTS('',7,(#90,#91,#92,#93,#94,#95,#96,#97,
    #98,#99,#100,#101,#102,#103),.UNSPECIFIED.,.F.,.F.,(8,6,8),(0.,
    0.455175281881,1.),.UNSPECIFIED.);
#90 = CARTESIAN_POINT('',(-6.661338147751E-16,4.4,12.5));
#91 = CARTESIAN_POINT('',(-0.192759295466,4.4,12.5));
#92 = CARTESIAN_POINT('',(-0.38196512997,4.427092886367,12.496532021173)
  );
#93 = CARTESIAN_POINT('',(-0.562821274857,4.479481550944,12.489826755072
    ));
#94 = CARTESIAN_POINT('',(-0.73106550262,4.554260437274,12.48061758622)
  );
#95 = CARTESIAN_POINT('',(-0.883231287087,4.647483898855,12.470009436039
    ));
#96 = CARTESIAN_POINT('',(-1.01696358939,4.754221889593,12.459092350168)
  );
#97 = CARTESIAN_POINT('',(-1.268311290073,5.005569590276,12.436249195255
    ));
#98 = CARTESIAN_POINT('',(-1.380656226444,5.156589083364,12.424266939373
    ));
#99 = CARTESIAN_POINT('',(-1.469181296626,5.317123996618,12.413816250289
    ));
#100 = CARTESIAN_POINT('',(-1.534804339824,5.483980701415,
    12.405591569872));
#101 = CARTESIAN_POINT('',(-1.578265791129,5.654725493903,
    12.399982100046));
#102 = CARTESIAN_POINT('',(-1.6,5.827351337698,12.397177098033));
#103 = CARTESIAN_POINT('',(-1.6,6.,12.397177098033));
#104 = ORIENTED_EDGE('',*,*,#105,.T.);
#105 = EDGE_CURVE('',#87,#22,#106,.T.);
#106 = B_SPLINE_CURVE_WITH_KNOTS('',7,(#107,#108,#109,#110,#111,#112,
    #113,#114,#115,#116,#117,#118,#119,#120),.UNSPECIFIED.,.F.,.F.,(8,6,
    8),(0.,0.484338584499,1.),.UNSPECIFIED.);
#107 = CARTESIAN_POINT('',(-1.6,6.,12.397177098033));
#108 = CARTESIAN_POINT('',(-1.6,6.153206467282,12.397177098033));
#109 = CARTESIAN_POINT('',(-1.582885025154,6.306359591674,
    12.399385976028));
#110 = CARTESIAN_POINT('',(-1.548675162537,6.458215357872,
    12.403801201079));
#111 = CARTESIAN_POINT('',(-1.497077218549,6.607405310647,
    12.410309073734));
#112 = CARTESIAN_POINT('',(-1.42760611117,6.752270298976,12.418670912317
    ));
#113 = CARTESIAN_POINT('',(-1.339688772323,6.890697665695,
    12.428465989584));
#114 = CARTESIAN_POINT('',(-1.119042333443,7.157413393158,
    12.450334013317));
#115 = CARTESIAN_POINT('',(-0.980844824761,7.288019111421,
    12.462804428367));
#116 = CARTESIAN_POINT('',(-0.81849402007,7.403851064882,12.475500388851
    ));
#117 = CARTESIAN_POINT('',(-0.634461828039,7.49806475332,12.48695296041)
  );
#118 = CARTESIAN_POINT('',(-0.432906585362,7.564946895288,
    12.495513052536));
#119 = CARTESIAN_POINT('',(-0.219256173196,7.6,12.5));
#120 = CARTESIAN_POINT('',(-8.881784197001E-16,7.6,12.5));
#121 = CYLINDRICAL_SURFACE('',#122,12.5);
#122 = AXIS2_PLACEMENT_3D('',#123,#124,#125);
#123 = CARTESIAN_POINT('',(0.,1.5,0.));
#124 = DIRECTION('',(0.,1.,0.));
#125 = DIRECTION('',(0.,-0.,1.));
#126 = ADVANCED_FACE('',(#127),#289,.F.);
#127 = FACE_BOUND('',#128,.F.);
#128 = EDGE_LOOP('',(#129,#158,#164,#165,#166,#167,#168,#203,#212,#282)
  );
#129 = ORIENTED_EDGE('',*,*,#130,.F.);
#130 = EDGE_CURVE('',#131,#133,#135,.T.);
#131 = VERTEX_POINT('',#132);
#132 = CARTESIAN_POINT('',(-1.6,6.,0.403112887415));
#133 = VERTEX_POINT('',#134);
#134 = CARTESIAN_POINT('',(-1.312440474841,6.915150260886,1.));
#135 = B_SPLINE_CURVE_WITH_KNOTS('',6,(#136,#137,#138,#139,#140,#141,
    #142,#143,#144,#145,#146,#147,#148,#149,#150,#151,#152,#153,#154,
    #155,#156,#157),.UNSPECIFIED.,.F.,.F.,(7,5,5,5,7),(0.,0.177290007149
    ,0.424246386363,0.762833193768,1.),.UNSPECIFIED.);
#136 = CARTESIAN_POINT('',(-1.6,6.,0.403112887415));
#137 = CARTESIAN_POINT('',(-1.6,6.034013086741,0.403112887415));
#138 = CARTESIAN_POINT('',(-1.599132280398,6.067579136073,0.406556599119
    ));
#139 = CARTESIAN_POINT('',(-1.597439946578,6.100721409271,0.413275358496
    ));
#140 = CARTESIAN_POINT('',(-1.594956264109,6.133379811638,0.422894622669
    ));
#141 = CARTESIAN_POINT('',(-1.591737647053,6.16530118677,0.434816053861)
  );
#142 = CARTESIAN_POINT('',(-1.582689905256,6.23862566624,0.466871048386)
  );
#143 = CARTESIAN_POINT('',(-1.576196221353,6.279924605391,0.488871739911
    ));
#144 = CARTESIAN_POINT('',(-1.568612763502,6.319935768132,0.513031071365
    ));
#145 = CARTESIAN_POINT('',(-1.560051732892,6.358692557563,0.538476759031
    ));
#146 = CARTESIAN_POINT('',(-1.550600638819,6.396408064565,0.56479596312)
  );
#147 = CARTESIAN_POINT('',(-1.525694415323,6.484849830719,0.629576967884
    ));
#148 = CARTESIAN_POINT('',(-1.509377588146,6.53498031522,0.668753366076)
  );
#149 = CARTESIAN_POINT('',(-1.491267271845,6.583920270505,0.708628923016
    ));
#150 = CARTESIAN_POINT('',(-1.471445021058,6.631747222922,0.74876310836)
  );
#151 = CARTESIAN_POINT('',(-1.449844255613,6.678728970062,0.789089756725
    ));
#152 = CARTESIAN_POINT('',(-1.409635879606,6.757800712399,0.858202487005
    ));
#153 = CARTESIAN_POINT('',(-1.392139182989,6.789999602596,0.886707977117
    ));
#154 = CARTESIAN_POINT('',(-1.373693021187,6.821835201039,0.91518717523)
  );
#155 = CARTESIAN_POINT('',(-1.354278363524,6.853308738438,0.943589793199
    ));
#156 = CARTESIAN_POINT('',(-1.333871108508,6.884416039164,0.971873568973
    ));
#157 = CARTESIAN_POINT('',(-1.312440474841,6.915150260886,1.));
#158 = ORIENTED_EDGE('',*,*,#159,.F.);
#159 = EDGE_CURVE('',#87,#131,#160,.T.);
#160 = LINE('',#161,#162);
#161 = CARTESIAN_POINT('',(-1.6,6.,12.5));
#162 = VECTOR('',#163,1.);
#163 = DIRECTION('',(0.,0.,-1.));
#164 = ORIENTED_EDGE('',*,*,#105,.T.);
#165 = ORIENTED_EDGE('',*,*,#39,.T.);
#166 = ORIENTED_EDGE('',*,*,#86,.T.);
#167 = ORIENTED_EDGE('',*,*,#159,.T.);
#168 = ORIENTED_EDGE('',*,*,#169,.F.);
#169 = EDGE_CURVE('',#170,#131,#172,.T.);
#170 = VERTEX_POINT('',#171);
#171 = CARTESIAN_POINT('',(-1.312440474841,5.084849739114,1.));
#172 = B_SPLINE_CURVE_WITH_KNOTS('',8,(#173,#174,#175,#176,#177,#178,
    #179,#180,#181,#182,#183,#184,#185,#186,#187,#188,#189,#190,#191,
    #192,#193,#194,#195,#196,#197,#198,#199,#200,#201,#202),
  .UNSPECIFIED.,.F.,.F.,(9,7,7,7,9),(0.,0.233231798464,0.727543094622,
    0.858294731641,1.),.UNSPECIFIED.);
#173 = CARTESIAN_POINT('',(-1.312440474841,5.084849739114,1.));
#174 = CARTESIAN_POINT('',(-1.328420587196,5.107767228344,0.979027053753
    ));
#175 = CARTESIAN_POINT('',(-1.343858802844,5.130882315994,0.957970754152
    ));
#176 = CARTESIAN_POINT('',(-1.358765904295,5.154192571948,0.93684463808)
  );
#177 = CARTESIAN_POINT('',(-1.373151284404,5.177696134636,0.915663024067
    ));
#178 = CARTESIAN_POINT('',(-1.387023112464,5.201391995237,0.89444145493)
  );
#179 = CARTESIAN_POINT('',(-1.400388500293,5.225280281882,0.873197140408
    ));
#180 = CARTESIAN_POINT('',(-1.413253668325,5.249362543858,0.851949399794
    ));
#181 = CARTESIAN_POINT('',(-1.451842019968,5.325099972569,0.785726752444
    ));
#182 = CARTESIAN_POINT('',(-1.475193725734,5.376180084442,0.741921509328
    ));
#183 = CARTESIAN_POINT('',(-1.496465907262,5.427906325894,0.698573290089
    ));
#184 = CARTESIAN_POINT('',(-1.515986324612,5.48110843559,0.655262295071)
  );
#185 = CARTESIAN_POINT('',(-1.533734822132,5.536249446957,0.612106680231
    ));
#186 = CARTESIAN_POINT('',(-1.549423857687,5.593274969727,0.569958270982
    ));
#187 = CARTESIAN_POINT('',(-1.56281993659,5.651755229264,0.530490402937)
  );
#188 = CARTESIAN_POINT('',(-1.576656081342,5.727212317185,0.486567973584
    ));
#189 = CARTESIAN_POINT('',(-1.57939726622,5.74318201803,0.477652126306)
  );
#190 = CARTESIAN_POINT('',(-1.581980791103,5.759345789504,0.469046537638
    ));
#191 = CARTESIAN_POINT('',(-1.584401292085,5.775712615231,0.460795928817
    ));
#192 = CARTESIAN_POINT('',(-1.586652619947,5.792291861613,0.452951398547
    ));
#193 = CARTESIAN_POINT('',(-1.588727840149,5.809093277823,0.445570423));
#194 = CARTESIAN_POINT('',(-1.590619232834,5.826126995808,0.438716855813
    ));
#195 = CARTESIAN_POINT('',(-1.594159690441,5.862127394945,0.42568091419)
  );
#196 = CARTESIAN_POINT('',(-1.595784508108,5.881234382628,0.419567158074
    ));
#197 = CARTESIAN_POINT('',(-1.597166661334,5.900625980055,0.414263472541
    ));
#198 = CARTESIAN_POINT('',(-1.598288608354,5.920230775973,0.409887206875
    ));
#199 = CARTESIAN_POINT('',(-1.599139162731,5.93999906311,0.406529885811)
  );
#200 = CARTESIAN_POINT('',(-1.599711305947,5.959897440139,0.404257848489
    ));
#201 = CARTESIAN_POINT('',(-1.6,5.979903413628,0.403112887415));
#202 = CARTESIAN_POINT('',(-1.6,6.,0.403112887415));
#203 = ORIENTED_EDGE('',*,*,#204,.F.);
#204 = EDGE_CURVE('',#205,#170,#207,.T.);
#205 = VERTEX_POINT('',#206);
#206 = CARTESIAN_POINT('',(1.312440474841,5.084849739114,1.));
#207 = CIRCLE('',#208,1.6);
#208 = AXIS2_PLACEMENT_3D('',#209,#210,#211);
#209 = CARTESIAN_POINT('',(0.,6.,1.));
#210 = DIRECTION('',(0.,0.,-1.));
#211 = DIRECTION('',(-1.,0.,-0.));
#212 = ORIENTED_EDGE('',*,*,#213,.F.);
#213 = EDGE_CURVE('',#214,#205,#216,.T.);
#214 = VERTEX_POINT('',#215);
#215 = CARTESIAN_POINT('',(1.312440474841,6.915150260886,1.));
#216 = B_SPLINE_CURVE_WITH_KNOTS('',8,(#217,#218,#219,#220,#221,#222,
    #223,#224,#225,#226,#227,#228,#229,#230,#231,#232,#233,#234,#235,
    #236,#237,#238,#239,#240,#241,#242,#243,#244,#245,#246,#247,#248,
    #249,#250,#251,#252,#253,#254,#255,#256,#257,#258,#259,#260,#261,
    #262,#263,#264,#265,#266,#267,#268,#269,#270,#271,#272,#273,#274,
    #275,#276,#277,#278,#279,#280,#281),.UNSPECIFIED.,.F.,.F.,(9,7,7,7,7
    ,7,7,7,7,9),(0.,0.116285966682,0.362742355962,0.427933242228,
    0.498585487757,0.552137850836,0.587885848205,0.711591916727,
    0.881197751293,1.),.UNSPECIFIED.);
#217 = CARTESIAN_POINT('',(1.312440474841,6.915150260886,1.));
#218 = CARTESIAN_POINT('',(1.328420587196,6.892232771656,0.979027053753)
  );
#219 = CARTESIAN_POINT('',(1.343858802844,6.869117684006,0.957970754152)
  );
#220 = CARTESIAN_POINT('',(1.358765904295,6.845807428052,0.93684463808)
  );
#221 = CARTESIAN_POINT('',(1.373151284404,6.822303865364,0.915663024067)
  );
#222 = CARTESIAN_POINT('',(1.387023112464,6.798608004763,0.89444145493)
  );
#223 = CARTESIAN_POINT('',(1.400388500293,6.774719718118,0.873197140408)
  );
#224 = CARTESIAN_POINT('',(1.413253668325,6.750637456142,0.851949399794)
  );
#225 = CARTESIAN_POINT('',(1.451842019967,6.674900027431,0.785726752444)
  );
#226 = CARTESIAN_POINT('',(1.475193725734,6.623819915558,0.741921509327)
  );
#227 = CARTESIAN_POINT('',(1.496465907261,6.572093674108,0.69857329009)
  );
#228 = CARTESIAN_POINT('',(1.515986324612,6.518891564409,0.65526229507)
  );
#229 = CARTESIAN_POINT('',(1.533734822132,6.463750553043,0.612106680231)
  );
#230 = CARTESIAN_POINT('',(1.549423857687,6.406725030272,0.569958270982)
  );
#231 = CARTESIAN_POINT('',(1.56281993659,6.348244770737,0.530490402937)
  );
#232 = CARTESIAN_POINT('',(1.576656082701,6.272787675402,0.486567969269)
  );
#233 = CARTESIAN_POINT('',(1.579397266916,6.256817979715,0.477652124269)
  );
#234 = CARTESIAN_POINT('',(1.581980790677,6.240654215317,0.469046539272)
  );
#235 = CARTESIAN_POINT('',(1.584401291045,6.224287392267,0.460795932331)
  );
#236 = CARTESIAN_POINT('',(1.58665261917,6.207708142197,0.452951400981)
  );
#237 = CARTESIAN_POINT('',(1.588727840284,6.190906718305,0.445570422242)
  );
#238 = CARTESIAN_POINT('',(1.590619233702,6.173872995363,0.438716852616)
  );
#239 = CARTESIAN_POINT('',(1.594159690443,6.137872605039,0.425680914184)
  );
#240 = CARTESIAN_POINT('',(1.595784508108,6.118765617367,0.419567158074)
  );
#241 = CARTESIAN_POINT('',(1.597166661333,6.099374019955,0.414263472544)
  );
#242 = CARTESIAN_POINT('',(1.598288608353,6.079769224042,0.409887206878)
  );
#243 = CARTESIAN_POINT('',(1.599139162731,6.060000936897,0.40652988581)
  );
#244 = CARTESIAN_POINT('',(1.599711305947,6.040102559854,0.404257848487)
  );
#245 = CARTESIAN_POINT('',(1.6,6.020096586356,0.403112887415));
#246 = CARTESIAN_POINT('',(1.6,5.984767367532,0.403112887415));
#247 = CARTESIAN_POINT('',(1.599834263971,5.969564257786,0.403770476282)
  );
#248 = CARTESIAN_POINT('',(1.599503910978,5.954403329373,0.405081980068)
  );
#249 = CARTESIAN_POINT('',(1.599010738685,5.939302093132,0.407033246774)
  );
#250 = CARTESIAN_POINT('',(1.598357680628,5.924283019642,0.409599698164)
  );
#251 = CARTESIAN_POINT('',(1.597549263504,5.909373646732,0.412746381575)
  );
#252 = CARTESIAN_POINT('',(1.596592064444,5.894606686992,0.416428021728)
  );
#253 = CARTESIAN_POINT('',(1.594762953355,5.8702831231,0.423366713424));
#254 = CARTESIAN_POINT('',(1.593967725192,5.860615839544,0.426361131127)
  );
#255 = CARTESIAN_POINT('',(1.593110904919,5.851017143685,0.42956044627)
  );
#256 = CARTESIAN_POINT('',(1.592193970638,5.841486528991,0.432952735729)
  );
#257 = CARTESIAN_POINT('',(1.591218457448,5.832024123331,0.436526032622)
  );
#258 = CARTESIAN_POINT('',(1.590185957439,5.822630688981,0.440268326317)
  );
#259 = CARTESIAN_POINT('',(1.589098119697,5.813307622617,0.444167562428)
  );
#260 = CARTESIAN_POINT('',(1.584006591518,5.77204498915,0.462206196994)
  );
#261 = CARTESIAN_POINT('',(1.579399244059,5.740774281413,0.47799072579)
  );
#262 = CARTESIAN_POINT('',(1.574183595396,5.710210579968,0.495142855624)
  );
#263 = CARTESIAN_POINT('',(1.568403283625,5.680333026149,0.513306719125)
  );
#264 = CARTESIAN_POINT('',(1.562096626602,5.651108205769,0.53220892816)
  );
#265 = CARTESIAN_POINT('',(1.55528856956,5.622464498129,0.551672167374)
  );
#266 = CARTESIAN_POINT('',(1.547974551233,5.594266723034,0.571626408228)
  );
#267 = CARTESIAN_POINT('',(1.529294883611,5.527935398419,0.620212161801)
  );
#268 = CARTESIAN_POINT('',(1.517467610519,5.49012101389,0.649226494618)
  );
#269 = CARTESIAN_POINT('',(1.504657849522,5.452912252661,0.678797165177)
  );
#270 = CARTESIAN_POINT('',(1.490900428741,5.41631823011,0.708684343388)
  );
#271 = CARTESIAN_POINT('',(1.476210028613,5.38030007289,0.738750183062)
  );
#272 = CARTESIAN_POINT('',(1.460571609397,5.344779102203,0.768937749708)
  );
#273 = CARTESIAN_POINT('',(1.443932861684,5.309645984016,0.799250638977)
  );
#274 = CARTESIAN_POINT('',(1.41377657968,5.250342177263,0.851085186686)
  );
#275 = CARTESIAN_POINT('',(1.400854177857,5.22611315209,0.872456528091)
  );
#276 = CARTESIAN_POINT('',(1.387425914126,5.20208042191,0.893824959645)
  );
#277 = CARTESIAN_POINT('',(1.373485486359,5.17824238347,0.915170765199)
  );
#278 = CARTESIAN_POINT('',(1.359025678223,5.154598885555,0.936476405614)
  );
#279 = CARTESIAN_POINT('',(1.344038186778,5.131150935449,0.95772606163)
  );
#280 = CARTESIAN_POINT('',(1.328513450091,5.107900405405,0.97890517673)
  );
#281 = CARTESIAN_POINT('',(1.312440474841,5.084849739114,1.));
#282 = ORIENTED_EDGE('',*,*,#283,.F.);
#283 = EDGE_CURVE('',#133,#214,#284,.T.);
#284 = CIRCLE('',#285,1.6);
#285 = AXIS2_PLACEMENT_3D('',#286,#287,#288);
#286 = CARTESIAN_POINT('',(0.,6.,1.));
#287 = DIRECTION('',(0.,0.,-1.));
#288 = DIRECTION('',(-1.,0.,-0.));
#289 = CYLINDRICAL_SURFACE('',#290,1.6);
#290 = AXIS2_PLACEMENT_3D('',#291,#292,#293);
#291 = CARTESIAN_POINT('',(0.,6.,12.5));
#292 = DIRECTION('',(0.,0.,-1.));
#293 = DIRECTION('',(-1.,0.,-0.));
#294 = ADVANCED_FACE('',(#295,#306),#309,.T.);
#295 = FACE_BOUND('',#296,.T.);
#296 = EDGE_LOOP('',(#297));
#297 = ORIENTED_EDGE('',*,*,#298,.T.);
#298 = EDGE_CURVE('',#299,#299,#301,.T.);
#299 = VERTEX_POINT('',#300);
#300 = CARTESIAN_POINT('',(-3.429011037613E-15,1.5,14.));
#301 = CIRCLE('',#302,14.);
#302 = AXIS2_PLACEMENT_3D('',#303,#304,#305);
#303 = CARTESIAN_POINT('',(0.,1.5,0.));
#304 = DIRECTION('',(0.,1.,0.));
#305 = DIRECTION('',(0.,-0.,1.));
#306 = FACE_BOUND('',#307,.T.);
#307 = EDGE_LOOP('',(#308));
#308 = ORIENTED_EDGE('',*,*,#78,.F.);
#309 = PLANE('',#310);
#310 = AXIS2_PLACEMENT_3D('',#311,#312,#313);
#311 = CARTESIAN_POINT('',(0.,1.5,0.));
#312 = DIRECTION('',(0.,1.,0.));
#313 = DIRECTION('',(0.,-0.,1.));
#314 = ADVANCED_FACE('',(#315,#326),#329,.F.);
#315 = FACE_BOUND('',#316,.F.);
#316 = EDGE_LOOP('',(#317));
#317 = ORIENTED_EDGE('',*,*,#318,.T.);
#318 = EDGE_CURVE('',#319,#319,#321,.T.);
#319 = VERTEX_POINT('',#320);
#320 = CARTESIAN_POINT('',(-3.429011037613E-15,51.5,14.));
#321 = CIRCLE('',#322,14.);
#322 = AXIS2_PLACEMENT_3D('',#323,#324,#325);
#323 = CARTESIAN_POINT('',(0.,51.5,0.));
#324 = DIRECTION('',(0.,1.,0.));
#325 = DIRECTION('',(0.,-0.,1.));
#326 = FACE_BOUND('',#327,.F.);
#327 = EDGE_LOOP('',(#328));
#328 = ORIENTED_EDGE('',*,*,#31,.F.);
#329 = PLANE('',#330);
#330 = AXIS2_PLACEMENT_3D('',#331,#332,#333);
#331 = CARTESIAN_POINT('',(0.,51.5,0.));
#332 = DIRECTION('',(0.,1.,0.));
#333 = DIRECTION('',(0.,-0.,1.));
#334 = ADVANCED_FACE('',(#335),#386,.F.);
#335 = FACE_BOUND('',#336,.F.);
#336 = EDGE_LOOP('',(#337,#348,#354,#355,#363,#372,#378,#379,#380));
#337 = ORIENTED_EDGE('',*,*,#338,.F.);
#338 = EDGE_CURVE('',#339,#341,#343,.T.);
#339 = VERTEX_POINT('',#340);
#340 = CARTESIAN_POINT('',(1.312440474841,13.5,1.));
#341 = VERTEX_POINT('',#342);
#342 = CARTESIAN_POINT('',(-1.312440474841,13.5,1.));
#343 = CIRCLE('',#344,1.65);
#344 = AXIS2_PLACEMENT_3D('',#345,#346,#347);
#345 = CARTESIAN_POINT('',(0.,13.5,0.));
#346 = DIRECTION('',(0.,1.,0.));
#347 = DIRECTION('',(0.,-0.,1.));
#348 = ORIENTED_EDGE('',*,*,#349,.F.);
#349 = EDGE_CURVE('',#214,#339,#350,.T.);
#350 = LINE('',#351,#352);
#351 = CARTESIAN_POINT('',(1.312440474841,-0.5,1.));
#352 = VECTOR('',#353,1.);
#353 = DIRECTION('',(0.,1.,0.));
#354 = ORIENTED_EDGE('',*,*,#213,.T.);
#355 = ORIENTED_EDGE('',*,*,#356,.F.);
#356 = EDGE_CURVE('',#357,#205,#359,.T.);
#357 = VERTEX_POINT('',#358);
#358 = CARTESIAN_POINT('',(1.312440474841,0.,1.));
#359 = LINE('',#360,#361);
#360 = CARTESIAN_POINT('',(1.312440474841,-0.5,1.));
#361 = VECTOR('',#362,1.);
#362 = DIRECTION('',(0.,1.,0.));
#363 = ORIENTED_EDGE('',*,*,#364,.T.);
#364 = EDGE_CURVE('',#357,#365,#367,.T.);
#365 = VERTEX_POINT('',#366);
#366 = CARTESIAN_POINT('',(-1.312440474841,0.,1.));
#367 = CIRCLE('',#368,1.65);
#368 = AXIS2_PLACEMENT_3D('',#369,#370,#371);
#369 = CARTESIAN_POINT('',(0.,0.,0.));
#370 = DIRECTION('',(0.,1.,0.));
#371 = DIRECTION('',(0.,-0.,1.));
#372 = ORIENTED_EDGE('',*,*,#373,.T.);
#373 = EDGE_CURVE('',#365,#170,#374,.T.);
#374 = LINE('',#375,#376);
#375 = CARTESIAN_POINT('',(-1.312440474841,-0.5,1.));
#376 = VECTOR('',#377,1.);
#377 = DIRECTION('',(0.,1.,0.));
#378 = ORIENTED_EDGE('',*,*,#169,.T.);
#379 = ORIENTED_EDGE('',*,*,#130,.T.);
#380 = ORIENTED_EDGE('',*,*,#381,.T.);
#381 = EDGE_CURVE('',#133,#341,#382,.T.);
#382 = LINE('',#383,#384);
#383 = CARTESIAN_POINT('',(-1.312440474841,-0.5,1.));
#384 = VECTOR('',#385,1.);
#385 = DIRECTION('',(0.,1.,0.));
#386 = CYLINDRICAL_SURFACE('',#387,1.65);
#387 = AXIS2_PLACEMENT_3D('',#388,#389,#390);
#388 = CARTESIAN_POINT('',(0.,-0.5,0.));
#389 = DIRECTION('',(0.,1.,0.));
#390 = DIRECTION('',(0.,-0.,1.));
#391 = ADVANCED_FACE('',(#392),#403,.F.);
#392 = FACE_BOUND('',#393,.F.);
#393 = EDGE_LOOP('',(#394,#395,#396,#397));
#394 = ORIENTED_EDGE('',*,*,#381,.F.);
#395 = ORIENTED_EDGE('',*,*,#283,.T.);
#396 = ORIENTED_EDGE('',*,*,#349,.T.);
#397 = ORIENTED_EDGE('',*,*,#398,.F.);
#398 = EDGE_CURVE('',#341,#339,#399,.T.);
#399 = LINE('',#400,#401);
#400 = CARTESIAN_POINT('',(-1.25,13.5,1.));
#401 = VECTOR('',#402,1.);
#402 = DIRECTION('',(1.,0.,0.));
#403 = PLANE('',#404);
#404 = AXIS2_PLACEMENT_3D('',#405,#406,#407);
#405 = CARTESIAN_POINT('',(-2.5,-1.,1.));
#406 = DIRECTION('',(0.,0.,1.));
#407 = DIRECTION('',(1.,0.,-0.));
#408 = ADVANCED_FACE('',(#409),#420,.F.);
#409 = FACE_BOUND('',#410,.F.);
#410 = EDGE_LOOP('',(#411,#412,#418,#419));
#411 = ORIENTED_EDGE('',*,*,#373,.F.);
#412 = ORIENTED_EDGE('',*,*,#413,.T.);
#413 = EDGE_CURVE('',#365,#357,#414,.T.);
#414 = LINE('',#415,#416);
#415 = CARTESIAN_POINT('',(-1.25,0.,1.));
#416 = VECTOR('',#417,1.);
#417 = DIRECTION('',(1.,0.,0.));
#418 = ORIENTED_EDGE('',*,*,#356,.T.);
#419 = ORIENTED_EDGE('',*,*,#204,.T.);
#420 = PLANE('',#421);
#421 = AXIS2_PLACEMENT_3D('',#422,#423,#424);
#422 = CARTESIAN_POINT('',(-2.5,-1.,1.));
#423 = DIRECTION('',(0.,0.,1.));
#424 = DIRECTION('',(1.,0.,-0.));
#425 = ADVANCED_FACE('',(#426),#445,.T.);
#426 = FACE_BOUND('',#427,.T.);
#427 = EDGE_LOOP('',(#428,#429,#437,#444));
#428 = ORIENTED_EDGE('',*,*,#298,.F.);
#429 = ORIENTED_EDGE('',*,*,#430,.F.);
#430 = EDGE_CURVE('',#431,#299,#433,.T.);
#431 = VERTEX_POINT('',#432);
#432 = CARTESIAN_POINT('',(-3.429011037613E-15,0.,14.));
#433 = LINE('',#434,#435);
#434 = CARTESIAN_POINT('',(-3.429011037613E-15,0.,14.));
#435 = VECTOR('',#436,1.);
#436 = DIRECTION('',(0.,1.,0.));
#437 = ORIENTED_EDGE('',*,*,#438,.T.);
#438 = EDGE_CURVE('',#431,#431,#439,.T.);
#439 = CIRCLE('',#440,14.);
#440 = AXIS2_PLACEMENT_3D('',#441,#442,#443);
#441 = CARTESIAN_POINT('',(0.,0.,0.));
#442 = DIRECTION('',(0.,1.,0.));
#443 = DIRECTION('',(0.,-0.,1.));
#444 = ORIENTED_EDGE('',*,*,#430,.T.);
#445 = CYLINDRICAL_SURFACE('',#446,14.);
#446 = AXIS2_PLACEMENT_3D('',#447,#448,#449);
#447 = CARTESIAN_POINT('',(0.,0.,0.));
#448 = DIRECTION('',(0.,1.,0.));
#449 = DIRECTION('',(0.,-0.,1.));
#450 = ADVANCED_FACE('',(#451),#470,.T.);
#451 = FACE_BOUND('',#452,.T.);
#452 = EDGE_LOOP('',(#453,#462,#468,#469));
#453 = ORIENTED_EDGE('',*,*,#454,.F.);
#454 = EDGE_CURVE('',#455,#455,#457,.T.);
#455 = VERTEX_POINT('',#456);
#456 = CARTESIAN_POINT('',(-3.429011037613E-15,53.,14.));
#457 = CIRCLE('',#458,14.);
#458 = AXIS2_PLACEMENT_3D('',#459,#460,#461);
#459 = CARTESIAN_POINT('',(0.,53.,0.));
#460 = DIRECTION('',(0.,1.,0.));
#461 = DIRECTION('',(0.,-0.,1.));
#462 = ORIENTED_EDGE('',*,*,#463,.F.);
#463 = EDGE_CURVE('',#319,#455,#464,.T.);
#464 = LINE('',#465,#466);
#465 = CARTESIAN_POINT('',(-3.429011037613E-15,51.5,14.));
#466 = VECTOR('',#467,1.);
#467 = DIRECTION('',(0.,1.,0.));
#468 = ORIENTED_EDGE('',*,*,#318,.T.);
#469 = ORIENTED_EDGE('',*,*,#463,.T.);
#470 = CYLINDRICAL_SURFACE('',#471,14.);
#471 = AXIS2_PLACEMENT_3D('',#472,#473,#474);
#472 = CARTESIAN_POINT('',(0.,51.5,0.));
#473 = DIRECTION('',(0.,1.,0.));
#474 = DIRECTION('',(0.,-0.,1.));
#475 = ADVANCED_FACE('',(#476),#480,.F.);
#476 = FACE_BOUND('',#477,.F.);
#477 = EDGE_LOOP('',(#478,#479));
#478 = ORIENTED_EDGE('',*,*,#398,.T.);
#479 = ORIENTED_EDGE('',*,*,#338,.T.);
#480 = PLANE('',#481);
#481 = AXIS2_PLACEMENT_3D('',#482,#483,#484);
#482 = CARTESIAN_POINT('',(0.,13.5,0.));
#483 = DIRECTION('',(0.,1.,0.));
#484 = DIRECTION('',(0.,-0.,1.));
#485 = ADVANCED_FACE('',(#486,#489),#493,.F.);
#486 = FACE_BOUND('',#487,.F.);
#487 = EDGE_LOOP('',(#488));
#488 = ORIENTED_EDGE('',*,*,#438,.T.);
#489 = FACE_BOUND('',#490,.F.);
#490 = EDGE_LOOP('',(#491,#492));
#491 = ORIENTED_EDGE('',*,*,#364,.F.);
#492 = ORIENTED_EDGE('',*,*,#413,.F.);
#493 = PLANE('',#494);
#494 = AXIS2_PLACEMENT_3D('',#495,#496,#497);
#495 = CARTESIAN_POINT('',(0.,0.,0.));
#496 = DIRECTION('',(0.,1.,0.));
#497 = DIRECTION('',(0.,-0.,1.));
#498 = ADVANCED_FACE('',(#499,#502),#513,.T.);
#499 = FACE_BOUND('',#500,.T.);
#500 = EDGE_LOOP('',(#501));
#501 = ORIENTED_EDGE('',*,*,#454,.T.);
#502 = FACE_BOUND('',#503,.T.);
#503 = EDGE_LOOP('',(#504));
#504 = ORIENTED_EDGE('',*,*,#505,.F.);
#505 = EDGE_CURVE('',#506,#506,#508,.T.);
#506 = VERTEX_POINT('',#507);
#507 = CARTESIAN_POINT('',(-6.490628035481E-16,53.,2.65));
#508 = CIRCLE('',#509,2.65);
#509 = AXIS2_PLACEMENT_3D('',#510,#511,#512);
#510 = CARTESIAN_POINT('',(0.,53.,0.));
#511 = DIRECTION('',(0.,1.,0.));
#512 = DIRECTION('',(0.,-0.,1.));
#513 = PLANE('',#514);
#514 = AXIS2_PLACEMENT_3D('',#515,#516,#517);
#515 = CARTESIAN_POINT('',(0.,53.,0.));
#516 = DIRECTION('',(0.,1.,0.));
#517 = DIRECTION('',(0.,-0.,1.));
#518 = ADVANCED_FACE('',(#519),#538,.F.);
#519 = FACE_BOUND('',#520,.F.);
#520 = EDGE_LOOP('',(#521,#522,#530,#537));
#521 = ORIENTED_EDGE('',*,*,#505,.F.);
#522 = ORIENTED_EDGE('',*,*,#523,.F.);
#523 = EDGE_CURVE('',#524,#506,#526,.T.);
#524 = VERTEX_POINT('',#525);
#525 = CARTESIAN_POINT('',(-6.490628035481E-16,14.,2.65));
#526 = LINE('',#527,#528);
#527 = CARTESIAN_POINT('',(-6.490628035481E-16,14.,2.65));
#528 = VECTOR('',#529,1.);
#529 = DIRECTION('',(0.,1.,0.));
#530 = ORIENTED_EDGE('',*,*,#531,.T.);
#531 = EDGE_CURVE('',#524,#524,#532,.T.);
#532 = CIRCLE('',#533,2.65);
#533 = AXIS2_PLACEMENT_3D('',#534,#535,#536);
#534 = CARTESIAN_POINT('',(0.,14.,0.));
#535 = DIRECTION('',(0.,1.,0.));
#536 = DIRECTION('',(0.,-0.,1.));
#537 = ORIENTED_EDGE('',*,*,#523,.T.);
#538 = CYLINDRICAL_SURFACE('',#539,2.65);
#539 = AXIS2_PLACEMENT_3D('',#540,#541,#542);
#540 = CARTESIAN_POINT('',(0.,14.,0.));
#541 = DIRECTION('',(0.,1.,0.));
#542 = DIRECTION('',(0.,-0.,1.));
#543 = ADVANCED_FACE('',(#544),#547,.T.);
#544 = FACE_BOUND('',#545,.F.);
#545 = EDGE_LOOP('',(#546));
#546 = ORIENTED_EDGE('',*,*,#531,.F.);
#547 = PLANE('',#548);
#548 = AXIS2_PLACEMENT_3D('',#549,#550,#551);
#549 = CARTESIAN_POINT('',(0.,14.,0.));
#550 = DIRECTION('',(0.,1.,0.));
#551 = DIRECTION('',(0.,-0.,1.));
#552 = ( GEOMETRIC_REPRESENTATION_CONTEXT(3) 
GLOBAL_UNCERTAINTY_ASSIGNED_CONTEXT((#556)) GLOBAL_UNIT_ASSIGNED_CONTEXT
((#553,#554,#555)) REPRESENTATION_CONTEXT('Context #1',
  '3D Context with UNIT and UNCERTAINTY') );
#553 = ( LENGTH_UNIT() NAMED_UNIT(*) SI_UNIT(.MILLI.,.METRE.) );
#554 = ( NAMED_UNIT(*) PLANE_ANGLE_UNIT() SI_UNIT($,.RADIAN.) );
#555 = ( NAMED_UNIT(*) SI_UNIT($,.STERADIAN.) SOLID_ANGLE_UNIT() );
#556 = UNCERTAINTY_MEASURE_WITH_UNIT(LENGTH_MEASURE(1.E-07),#553,
  'distance_accuracy_value','confusion accuracy');
#557 = PRODUCT_RELATED_PRODUCT_CATEGORY('part',$,(#7));
ENDSEC;
END-ISO-10303-21;
