ISO-10303-21;
HEADER;
FILE_DESCRIPTION(('FreeCAD Model'),'2;1');
FILE_NAME('Open CASCADE Shape Model','2026-09-26T01:42:07',('FreeCAD'),(
    'FreeCAD'),'Open CASCADE STEP processor 7.8','FreeCAD','Unknown');
FILE_SCHEMA(('AUTOMOTIVE_DESIGN { 1 0 10303 214 1 1 1 1 }'));
ENDSEC;
DATA;
#1 = APPLICATION_PROTOCOL_DEFINITION('international standard',
  'automotive_design',2000,#2);
#2 = APPLICATION_CONTEXT(
  'core data for automotive mechanical design processes');
#3 = SHAPE_DEFINITION_REPRESENTATION(#4,#10);
#4 = PRODUCT_DEFINITION_SHAPE('','',#5);
#5 = PRODUCT_DEFINITION('design','',#6,#9);
#6 = PRODUCT_DEFINITION_FORMATION('','',#7);
#7 = PRODUCT('Open CASCADE STEP translator 7.8 22',
  'Open CASCADE STEP translator 7.8 22','',(#8));
#8 = PRODUCT_CONTEXT('',#2,'mechanical');
#9 = PRODUCT_DEFINITION_CONTEXT('part definition',#2,'design');
#10 = SHAPE_REPRESENTATION('',(#11,#15,#1234),#1641);
#11 = AXIS2_PLACEMENT_3D('',#12,#13,#14);
#12 = CARTESIAN_POINT('',(0.,0.,0.));
#13 = DIRECTION('',(0.,0.,1.));
#14 = DIRECTION('',(1.,0.,-0.));
#15 = MANIFOLD_SOLID_BREP('',#16);
#16 = CLOSED_SHELL('',(#17,#57,#200,#224,#360,#377,#394,#411,#428,#445,
    #467,#484,#501,#513,#530,#555,#572,#603,#620,#645,#676,#704,#763,
    #780,#803,#862,#887,#909,#926,#943,#960,#977,#989,#1014,#1073,#1132,
    #1154,#1171,#1188,#1205,#1222));
#17 = ADVANCED_FACE('',(#18),#52,.F.);
#18 = FACE_BOUND('',#19,.T.);
#19 = EDGE_LOOP('',(#20,#30,#38,#46));
#20 = ORIENTED_EDGE('',*,*,#21,.F.);
#21 = EDGE_CURVE('',#22,#24,#26,.T.);
#22 = VERTEX_POINT('',#23);
#23 = CARTESIAN_POINT('',(146.,87.,0.));
#24 = VERTEX_POINT('',#25);
#25 = CARTESIAN_POINT('',(146.,87.,35.));
#26 = LINE('',#27,#28);
#27 = CARTESIAN_POINT('',(146.,87.,0.));
#28 = VECTOR('',#29,1.);
#29 = DIRECTION('',(0.,0.,1.));
#30 = ORIENTED_EDGE('',*,*,#31,.T.);
#31 = EDGE_CURVE('',#22,#32,#34,.T.);
#32 = VERTEX_POINT('',#33);
#33 = CARTESIAN_POINT('',(149.,87.,0.));
#34 = LINE('',#35,#36);
#35 = CARTESIAN_POINT('',(146.,87.,0.));
#36 = VECTOR('',#37,1.);
#37 = DIRECTION('',(1.,-1.110223024625E-16,-0.));
#38 = ORIENTED_EDGE('',*,*,#39,.T.);
#39 = EDGE_CURVE('',#32,#40,#42,.T.);
#40 = VERTEX_POINT('',#41);
#41 = CARTESIAN_POINT('',(149.,87.,35.));
#42 = LINE('',#43,#44);
#43 = CARTESIAN_POINT('',(149.,87.,0.));
#44 = VECTOR('',#45,1.);
#45 = DIRECTION('',(0.,0.,1.));
#46 = ORIENTED_EDGE('',*,*,#47,.F.);
#47 = EDGE_CURVE('',#24,#40,#48,.T.);
#48 = LINE('',#49,#50);
#49 = CARTESIAN_POINT('',(146.,87.,35.));
#50 = VECTOR('',#51,1.);
#51 = DIRECTION('',(1.,-1.110223024625E-16,-0.));
#52 = PLANE('',#53);
#53 = AXIS2_PLACEMENT_3D('',#54,#55,#56);
#54 = CARTESIAN_POINT('',(146.,87.,0.));
#55 = DIRECTION('',(1.110223024625E-16,1.,0.));
#56 = DIRECTION('',(0.,0.,-1.));
#57 = ADVANCED_FACE('',(#58,#115,#126,#162,#173,#184),#195,.F.);
#58 = FACE_BOUND('',#59,.T.);
#59 = EDGE_LOOP('',(#60,#70,#76,#77,#85,#93,#101,#109));
#60 = ORIENTED_EDGE('',*,*,#61,.F.);
#61 = EDGE_CURVE('',#62,#64,#66,.T.);
#62 = VERTEX_POINT('',#63);
#63 = CARTESIAN_POINT('',(146.,207.,0.));
#64 = VERTEX_POINT('',#65);
#65 = CARTESIAN_POINT('',(146.,207.,35.));
#66 = LINE('',#67,#68);
#67 = CARTESIAN_POINT('',(146.,207.,0.));
#68 = VECTOR('',#69,1.);
#69 = DIRECTION('',(0.,0.,1.));
#70 = ORIENTED_EDGE('',*,*,#71,.F.);
#71 = EDGE_CURVE('',#22,#62,#72,.T.);
#72 = LINE('',#73,#74);
#73 = CARTESIAN_POINT('',(146.,87.,0.));
#74 = VECTOR('',#75,1.);
#75 = DIRECTION('',(1.110223024625E-16,1.,0.));
#76 = ORIENTED_EDGE('',*,*,#21,.T.);
#77 = ORIENTED_EDGE('',*,*,#78,.T.);
#78 = EDGE_CURVE('',#24,#79,#81,.T.);
#79 = VERTEX_POINT('',#80);
#80 = CARTESIAN_POINT('',(146.,195.5,35.));
#81 = LINE('',#82,#83);
#82 = CARTESIAN_POINT('',(146.,87.,35.));
#83 = VECTOR('',#84,1.);
#84 = DIRECTION('',(1.110223024625E-16,1.,0.));
#85 = ORIENTED_EDGE('',*,*,#86,.F.);
#86 = EDGE_CURVE('',#87,#79,#89,.T.);
#87 = VERTEX_POINT('',#88);
#88 = CARTESIAN_POINT('',(146.,195.5,34.8));
#89 = LINE('',#90,#91);
#90 = CARTESIAN_POINT('',(146.,195.5,34.8));
#91 = VECTOR('',#92,1.);
#92 = DIRECTION('',(0.,0.,1.));
#93 = ORIENTED_EDGE('',*,*,#94,.T.);
#94 = EDGE_CURVE('',#87,#95,#97,.T.);
#95 = VERTEX_POINT('',#96);
#96 = CARTESIAN_POINT('',(146.,206.5,34.8));
#97 = LINE('',#98,#99);
#98 = CARTESIAN_POINT('',(146.,195.5,34.8));
#99 = VECTOR('',#100,1.);
#100 = DIRECTION('',(1.110223024625E-16,1.,0.));
#101 = ORIENTED_EDGE('',*,*,#102,.T.);
#102 = EDGE_CURVE('',#95,#103,#105,.T.);
#103 = VERTEX_POINT('',#104);
#104 = CARTESIAN_POINT('',(146.,206.5,35.));
#105 = LINE('',#106,#107);
#106 = CARTESIAN_POINT('',(146.,206.5,34.8));
#107 = VECTOR('',#108,1.);
#108 = DIRECTION('',(0.,0.,1.));
#109 = ORIENTED_EDGE('',*,*,#110,.T.);
#110 = EDGE_CURVE('',#103,#64,#111,.T.);
#111 = LINE('',#112,#113);
#112 = CARTESIAN_POINT('',(146.,87.,35.));
#113 = VECTOR('',#114,1.);
#114 = DIRECTION('',(1.110223024625E-16,1.,0.));
#115 = FACE_BOUND('',#116,.T.);
#116 = EDGE_LOOP('',(#117));
#117 = ORIENTED_EDGE('',*,*,#118,.F.);
#118 = EDGE_CURVE('',#119,#119,#121,.T.);
#119 = VERTEX_POINT('',#120);
#120 = CARTESIAN_POINT('',(146.,111.,8.6));
#121 = CIRCLE('',#122,1.6);
#122 = AXIS2_PLACEMENT_3D('',#123,#124,#125);
#123 = CARTESIAN_POINT('',(146.,111.,7.));
#124 = DIRECTION('',(-1.,1.110223024625E-16,0.));
#125 = DIRECTION('',(0.,0.,1.));
#126 = FACE_BOUND('',#127,.T.);
#127 = EDGE_LOOP('',(#128,#139,#147,#156));
#128 = ORIENTED_EDGE('',*,*,#129,.F.);
#129 = EDGE_CURVE('',#130,#132,#134,.T.);
#130 = VERTEX_POINT('',#131);
#131 = CARTESIAN_POINT('',(146.,93.,22.75));
#132 = VERTEX_POINT('',#133);
#133 = CARTESIAN_POINT('',(146.,93.,27.25));
#134 = CIRCLE('',#135,2.25);
#135 = AXIS2_PLACEMENT_3D('',#136,#137,#138);
#136 = CARTESIAN_POINT('',(146.,93.,25.));
#137 = DIRECTION('',(-1.,1.110223024625E-16,0.));
#138 = DIRECTION('',(0.,0.,1.));
#139 = ORIENTED_EDGE('',*,*,#140,.T.);
#140 = EDGE_CURVE('',#130,#141,#143,.T.);
#141 = VERTEX_POINT('',#142);
#142 = CARTESIAN_POINT('',(146.,101.,22.75));
#143 = LINE('',#144,#145);
#144 = CARTESIAN_POINT('',(146.,90.,22.75));
#145 = VECTOR('',#146,1.);
#146 = DIRECTION('',(1.110223024625E-16,1.,0.));
#147 = ORIENTED_EDGE('',*,*,#148,.F.);
#148 = EDGE_CURVE('',#149,#141,#151,.T.);
#149 = VERTEX_POINT('',#150);
#150 = CARTESIAN_POINT('',(146.,101.,27.25));
#151 = CIRCLE('',#152,2.25);
#152 = AXIS2_PLACEMENT_3D('',#153,#154,#155);
#153 = CARTESIAN_POINT('',(146.,101.,25.));
#154 = DIRECTION('',(-1.,1.110223024625E-16,0.));
#155 = DIRECTION('',(0.,0.,1.));
#156 = ORIENTED_EDGE('',*,*,#157,.F.);
#157 = EDGE_CURVE('',#132,#149,#158,.T.);
#158 = LINE('',#159,#160);
#159 = CARTESIAN_POINT('',(146.,90.,27.25));
#160 = VECTOR('',#161,1.);
#161 = DIRECTION('',(1.110223024625E-16,1.,0.));
#162 = FACE_BOUND('',#163,.T.);
#163 = EDGE_LOOP('',(#164));
#164 = ORIENTED_EDGE('',*,*,#165,.F.);
#165 = EDGE_CURVE('',#166,#166,#168,.T.);
#166 = VERTEX_POINT('',#167);
#167 = CARTESIAN_POINT('',(146.,183.,8.6));
#168 = CIRCLE('',#169,1.6);
#169 = AXIS2_PLACEMENT_3D('',#170,#171,#172);
#170 = CARTESIAN_POINT('',(146.,183.,7.));
#171 = DIRECTION('',(-1.,1.110223024625E-16,0.));
#172 = DIRECTION('',(0.,0.,1.));
#173 = FACE_BOUND('',#174,.T.);
#174 = EDGE_LOOP('',(#175));
#175 = ORIENTED_EDGE('',*,*,#176,.F.);
#176 = EDGE_CURVE('',#177,#177,#179,.T.);
#177 = VERTEX_POINT('',#178);
#178 = CARTESIAN_POINT('',(146.,201.,11.3));
#179 = CIRCLE('',#180,2.3);
#180 = AXIS2_PLACEMENT_3D('',#181,#182,#183);
#181 = CARTESIAN_POINT('',(146.,201.,9.));
#182 = DIRECTION('',(-1.,1.110223024625E-16,0.));
#183 = DIRECTION('',(0.,0.,1.));
#184 = FACE_BOUND('',#185,.T.);
#185 = EDGE_LOOP('',(#186));
#186 = ORIENTED_EDGE('',*,*,#187,.F.);
#187 = EDGE_CURVE('',#188,#188,#190,.T.);
#188 = VERTEX_POINT('',#189);
#189 = CARTESIAN_POINT('',(146.,201.,29.));
#190 = CIRCLE('',#191,4.);
#191 = AXIS2_PLACEMENT_3D('',#192,#193,#194);
#192 = CARTESIAN_POINT('',(146.,201.,25.));
#193 = DIRECTION('',(-1.,1.110223024625E-16,0.));
#194 = DIRECTION('',(0.,0.,1.));
#195 = PLANE('',#196);
#196 = AXIS2_PLACEMENT_3D('',#197,#198,#199);
#197 = CARTESIAN_POINT('',(146.,87.,0.));
#198 = DIRECTION('',(1.,-1.110223024625E-16,-0.));
#199 = DIRECTION('',(0.,0.,-1.));
#200 = ADVANCED_FACE('',(#201),#219,.T.);
#201 = FACE_BOUND('',#202,.F.);
#202 = EDGE_LOOP('',(#203,#211,#212,#213));
#203 = ORIENTED_EDGE('',*,*,#204,.F.);
#204 = EDGE_CURVE('',#40,#205,#207,.T.);
#205 = VERTEX_POINT('',#206);
#206 = CARTESIAN_POINT('',(149.,195.5,35.));
#207 = LINE('',#208,#209);
#208 = CARTESIAN_POINT('',(149.,87.,35.));
#209 = VECTOR('',#210,1.);
#210 = DIRECTION('',(1.110223024625E-16,1.,0.));
#211 = ORIENTED_EDGE('',*,*,#47,.F.);
#212 = ORIENTED_EDGE('',*,*,#78,.T.);
#213 = ORIENTED_EDGE('',*,*,#214,.T.);
#214 = EDGE_CURVE('',#79,#205,#215,.T.);
#215 = LINE('',#216,#217);
#216 = CARTESIAN_POINT('',(146.,195.5,35.));
#217 = VECTOR('',#218,1.);
#218 = DIRECTION('',(1.,-1.110223024625E-16,-0.));
#219 = PLANE('',#220);
#220 = AXIS2_PLACEMENT_3D('',#221,#222,#223);
#221 = CARTESIAN_POINT('',(146.,87.,35.));
#222 = DIRECTION('',(0.,0.,1.));
#223 = DIRECTION('',(-1.110223024625E-16,-1.,0.));
#224 = ADVANCED_FACE('',(#225,#275,#286,#322,#333,#344),#355,.T.);
#225 = FACE_BOUND('',#226,.F.);
#226 = EDGE_LOOP('',(#227,#237,#243,#244,#245,#253,#261,#269));
#227 = ORIENTED_EDGE('',*,*,#228,.F.);
#228 = EDGE_CURVE('',#229,#231,#233,.T.);
#229 = VERTEX_POINT('',#230);
#230 = CARTESIAN_POINT('',(149.,207.,0.));
#231 = VERTEX_POINT('',#232);
#232 = CARTESIAN_POINT('',(149.,207.,35.));
#233 = LINE('',#234,#235);
#234 = CARTESIAN_POINT('',(149.,207.,0.));
#235 = VECTOR('',#236,1.);
#236 = DIRECTION('',(0.,0.,1.));
#237 = ORIENTED_EDGE('',*,*,#238,.F.);
#238 = EDGE_CURVE('',#32,#229,#239,.T.);
#239 = LINE('',#240,#241);
#240 = CARTESIAN_POINT('',(149.,87.,0.));
#241 = VECTOR('',#242,1.);
#242 = DIRECTION('',(1.110223024625E-16,1.,0.));
#243 = ORIENTED_EDGE('',*,*,#39,.T.);
#244 = ORIENTED_EDGE('',*,*,#204,.T.);
#245 = ORIENTED_EDGE('',*,*,#246,.F.);
#246 = EDGE_CURVE('',#247,#205,#249,.T.);
#247 = VERTEX_POINT('',#248);
#248 = CARTESIAN_POINT('',(149.,195.5,34.8));
#249 = LINE('',#250,#251);
#250 = CARTESIAN_POINT('',(149.,195.5,34.8));
#251 = VECTOR('',#252,1.);
#252 = DIRECTION('',(0.,0.,1.));
#253 = ORIENTED_EDGE('',*,*,#254,.T.);
#254 = EDGE_CURVE('',#247,#255,#257,.T.);
#255 = VERTEX_POINT('',#256);
#256 = CARTESIAN_POINT('',(149.,206.5,34.8));
#257 = LINE('',#258,#259);
#258 = CARTESIAN_POINT('',(149.,195.5,34.8));
#259 = VECTOR('',#260,1.);
#260 = DIRECTION('',(1.110223024625E-16,1.,0.));
#261 = ORIENTED_EDGE('',*,*,#262,.T.);
#262 = EDGE_CURVE('',#255,#263,#265,.T.);
#263 = VERTEX_POINT('',#264);
#264 = CARTESIAN_POINT('',(149.,206.5,35.));
#265 = LINE('',#266,#267);
#266 = CARTESIAN_POINT('',(149.,206.5,34.8));
#267 = VECTOR('',#268,1.);
#268 = DIRECTION('',(0.,0.,1.));
#269 = ORIENTED_EDGE('',*,*,#270,.T.);
#270 = EDGE_CURVE('',#263,#231,#271,.T.);
#271 = LINE('',#272,#273);
#272 = CARTESIAN_POINT('',(149.,87.,35.));
#273 = VECTOR('',#274,1.);
#274 = DIRECTION('',(1.110223024625E-16,1.,0.));
#275 = FACE_BOUND('',#276,.F.);
#276 = EDGE_LOOP('',(#277));
#277 = ORIENTED_EDGE('',*,*,#278,.F.);
#278 = EDGE_CURVE('',#279,#279,#281,.T.);
#279 = VERTEX_POINT('',#280);
#280 = CARTESIAN_POINT('',(149.,111.,8.6));
#281 = CIRCLE('',#282,1.6);
#282 = AXIS2_PLACEMENT_3D('',#283,#284,#285);
#283 = CARTESIAN_POINT('',(149.,111.,7.));
#284 = DIRECTION('',(-1.,1.110223024625E-16,0.));
#285 = DIRECTION('',(0.,0.,1.));
#286 = FACE_BOUND('',#287,.F.);
#287 = EDGE_LOOP('',(#288,#299,#307,#316));
#288 = ORIENTED_EDGE('',*,*,#289,.F.);
#289 = EDGE_CURVE('',#290,#292,#294,.T.);
#290 = VERTEX_POINT('',#291);
#291 = CARTESIAN_POINT('',(149.,93.,22.75));
#292 = VERTEX_POINT('',#293);
#293 = CARTESIAN_POINT('',(149.,93.,27.25));
#294 = CIRCLE('',#295,2.25);
#295 = AXIS2_PLACEMENT_3D('',#296,#297,#298);
#296 = CARTESIAN_POINT('',(149.,93.,25.));
#297 = DIRECTION('',(-1.,1.110223024625E-16,0.));
#298 = DIRECTION('',(0.,0.,1.));
#299 = ORIENTED_EDGE('',*,*,#300,.T.);
#300 = EDGE_CURVE('',#290,#301,#303,.T.);
#301 = VERTEX_POINT('',#302);
#302 = CARTESIAN_POINT('',(149.,101.,22.75));
#303 = LINE('',#304,#305);
#304 = CARTESIAN_POINT('',(149.,90.,22.75));
#305 = VECTOR('',#306,1.);
#306 = DIRECTION('',(1.110223024625E-16,1.,0.));
#307 = ORIENTED_EDGE('',*,*,#308,.F.);
#308 = EDGE_CURVE('',#309,#301,#311,.T.);
#309 = VERTEX_POINT('',#310);
#310 = CARTESIAN_POINT('',(149.,101.,27.25));
#311 = CIRCLE('',#312,2.25);
#312 = AXIS2_PLACEMENT_3D('',#313,#314,#315);
#313 = CARTESIAN_POINT('',(149.,101.,25.));
#314 = DIRECTION('',(-1.,1.110223024625E-16,0.));
#315 = DIRECTION('',(0.,0.,1.));
#316 = ORIENTED_EDGE('',*,*,#317,.F.);
#317 = EDGE_CURVE('',#292,#309,#318,.T.);
#318 = LINE('',#319,#320);
#319 = CARTESIAN_POINT('',(149.,90.,27.25));
#320 = VECTOR('',#321,1.);
#321 = DIRECTION('',(1.110223024625E-16,1.,0.));
#322 = FACE_BOUND('',#323,.F.);
#323 = EDGE_LOOP('',(#324));
#324 = ORIENTED_EDGE('',*,*,#325,.F.);
#325 = EDGE_CURVE('',#326,#326,#328,.T.);
#326 = VERTEX_POINT('',#327);
#327 = CARTESIAN_POINT('',(149.,183.,8.6));
#328 = CIRCLE('',#329,1.6);
#329 = AXIS2_PLACEMENT_3D('',#330,#331,#332);
#330 = CARTESIAN_POINT('',(149.,183.,7.));
#331 = DIRECTION('',(-1.,1.110223024625E-16,0.));
#332 = DIRECTION('',(0.,0.,1.));
#333 = FACE_BOUND('',#334,.F.);
#334 = EDGE_LOOP('',(#335));
#335 = ORIENTED_EDGE('',*,*,#336,.F.);
#336 = EDGE_CURVE('',#337,#337,#339,.T.);
#337 = VERTEX_POINT('',#338);
#338 = CARTESIAN_POINT('',(149.,201.,14.214656965084));
#339 = CIRCLE('',#340,5.214656965084);
#340 = AXIS2_PLACEMENT_3D('',#341,#342,#343);
#341 = CARTESIAN_POINT('',(149.,201.,9.));
#342 = DIRECTION('',(-1.,1.110223024625E-16,0.));
#343 = DIRECTION('',(0.,0.,1.));
#344 = FACE_BOUND('',#345,.F.);
#345 = EDGE_LOOP('',(#346));
#346 = ORIENTED_EDGE('',*,*,#347,.F.);
#347 = EDGE_CURVE('',#348,#348,#350,.T.);
#348 = VERTEX_POINT('',#349);
#349 = CARTESIAN_POINT('',(149.,201.,29.));
#350 = CIRCLE('',#351,4.);
#351 = AXIS2_PLACEMENT_3D('',#352,#353,#354);
#352 = CARTESIAN_POINT('',(149.,201.,25.));
#353 = DIRECTION('',(-1.,1.110223024625E-16,0.));
#354 = DIRECTION('',(0.,0.,1.));
#355 = PLANE('',#356);
#356 = AXIS2_PLACEMENT_3D('',#357,#358,#359);
#357 = CARTESIAN_POINT('',(149.,87.,0.));
#358 = DIRECTION('',(1.,-1.110223024625E-16,-0.));
#359 = DIRECTION('',(0.,0.,-1.));
#360 = ADVANCED_FACE('',(#361),#372,.F.);
#361 = FACE_BOUND('',#362,.T.);
#362 = EDGE_LOOP('',(#363,#364,#365,#371));
#363 = ORIENTED_EDGE('',*,*,#31,.F.);
#364 = ORIENTED_EDGE('',*,*,#71,.T.);
#365 = ORIENTED_EDGE('',*,*,#366,.T.);
#366 = EDGE_CURVE('',#62,#229,#367,.T.);
#367 = LINE('',#368,#369);
#368 = CARTESIAN_POINT('',(146.,207.,0.));
#369 = VECTOR('',#370,1.);
#370 = DIRECTION('',(1.,-1.110223024625E-16,-0.));
#371 = ORIENTED_EDGE('',*,*,#238,.F.);
#372 = PLANE('',#373);
#373 = AXIS2_PLACEMENT_3D('',#374,#375,#376);
#374 = CARTESIAN_POINT('',(146.,87.,0.));
#375 = DIRECTION('',(0.,0.,1.));
#376 = DIRECTION('',(-1.110223024625E-16,-1.,0.));
#377 = ADVANCED_FACE('',(#378),#389,.T.);
#378 = FACE_BOUND('',#379,.F.);
#379 = EDGE_LOOP('',(#380,#381,#382,#383));
#380 = ORIENTED_EDGE('',*,*,#61,.F.);
#381 = ORIENTED_EDGE('',*,*,#366,.T.);
#382 = ORIENTED_EDGE('',*,*,#228,.T.);
#383 = ORIENTED_EDGE('',*,*,#384,.F.);
#384 = EDGE_CURVE('',#64,#231,#385,.T.);
#385 = LINE('',#386,#387);
#386 = CARTESIAN_POINT('',(146.,207.,35.));
#387 = VECTOR('',#388,1.);
#388 = DIRECTION('',(1.,-1.110223024625E-16,-0.));
#389 = PLANE('',#390);
#390 = AXIS2_PLACEMENT_3D('',#391,#392,#393);
#391 = CARTESIAN_POINT('',(146.,207.,0.));
#392 = DIRECTION('',(1.110223024625E-16,1.,0.));
#393 = DIRECTION('',(0.,0.,-1.));
#394 = ADVANCED_FACE('',(#395),#406,.T.);
#395 = FACE_BOUND('',#396,.F.);
#396 = EDGE_LOOP('',(#397,#398,#404,#405));
#397 = ORIENTED_EDGE('',*,*,#270,.F.);
#398 = ORIENTED_EDGE('',*,*,#399,.F.);
#399 = EDGE_CURVE('',#103,#263,#400,.T.);
#400 = LINE('',#401,#402);
#401 = CARTESIAN_POINT('',(146.,206.5,35.));
#402 = VECTOR('',#403,1.);
#403 = DIRECTION('',(1.,-1.110223024625E-16,-0.));
#404 = ORIENTED_EDGE('',*,*,#110,.T.);
#405 = ORIENTED_EDGE('',*,*,#384,.T.);
#406 = PLANE('',#407);
#407 = AXIS2_PLACEMENT_3D('',#408,#409,#410);
#408 = CARTESIAN_POINT('',(146.,87.,35.));
#409 = DIRECTION('',(0.,0.,1.));
#410 = DIRECTION('',(-1.110223024625E-16,-1.,0.));
#411 = ADVANCED_FACE('',(#412),#423,.F.);
#412 = FACE_BOUND('',#413,.T.);
#413 = EDGE_LOOP('',(#414,#420,#421,#422));
#414 = ORIENTED_EDGE('',*,*,#415,.T.);
#415 = EDGE_CURVE('',#79,#103,#416,.T.);
#416 = LINE('',#417,#418);
#417 = CARTESIAN_POINT('',(146.,87.,35.));
#418 = VECTOR('',#419,1.);
#419 = DIRECTION('',(1.110223024625E-16,1.,0.));
#420 = ORIENTED_EDGE('',*,*,#102,.F.);
#421 = ORIENTED_EDGE('',*,*,#94,.F.);
#422 = ORIENTED_EDGE('',*,*,#86,.T.);
#423 = PLANE('',#424);
#424 = AXIS2_PLACEMENT_3D('',#425,#426,#427);
#425 = CARTESIAN_POINT('',(146.,87.,0.));
#426 = DIRECTION('',(1.,-1.110223024625E-16,-0.));
#427 = DIRECTION('',(0.,0.,-1.));
#428 = ADVANCED_FACE('',(#429),#440,.F.);
#429 = FACE_BOUND('',#430,.T.);
#430 = EDGE_LOOP('',(#431,#432,#438,#439));
#431 = ORIENTED_EDGE('',*,*,#278,.F.);
#432 = ORIENTED_EDGE('',*,*,#433,.F.);
#433 = EDGE_CURVE('',#119,#279,#434,.T.);
#434 = LINE('',#435,#436);
#435 = CARTESIAN_POINT('',(145.,111.,8.6));
#436 = VECTOR('',#437,1.);
#437 = DIRECTION('',(1.,-1.110223024625E-16,-0.));
#438 = ORIENTED_EDGE('',*,*,#118,.T.);
#439 = ORIENTED_EDGE('',*,*,#433,.T.);
#440 = CYLINDRICAL_SURFACE('',#441,1.6);
#441 = AXIS2_PLACEMENT_3D('',#442,#443,#444);
#442 = CARTESIAN_POINT('',(145.,111.,7.));
#443 = DIRECTION('',(1.,-1.110223024625E-16,-0.));
#444 = DIRECTION('',(0.,0.,1.));
#445 = ADVANCED_FACE('',(#446),#462,.F.);
#446 = FACE_BOUND('',#447,.T.);
#447 = EDGE_LOOP('',(#448,#449,#455,#456));
#448 = ORIENTED_EDGE('',*,*,#129,.T.);
#449 = ORIENTED_EDGE('',*,*,#450,.T.);
#450 = EDGE_CURVE('',#132,#292,#451,.T.);
#451 = LINE('',#452,#453);
#452 = CARTESIAN_POINT('',(145.,93.,27.25));
#453 = VECTOR('',#454,1.);
#454 = DIRECTION('',(1.,-1.110223024625E-16,-0.));
#455 = ORIENTED_EDGE('',*,*,#289,.F.);
#456 = ORIENTED_EDGE('',*,*,#457,.F.);
#457 = EDGE_CURVE('',#130,#290,#458,.T.);
#458 = LINE('',#459,#460);
#459 = CARTESIAN_POINT('',(145.,93.,22.75));
#460 = VECTOR('',#461,1.);
#461 = DIRECTION('',(1.,-1.110223024625E-16,-0.));
#462 = CYLINDRICAL_SURFACE('',#463,2.25);
#463 = AXIS2_PLACEMENT_3D('',#464,#465,#466);
#464 = CARTESIAN_POINT('',(145.,93.,25.));
#465 = DIRECTION('',(1.,-1.110223024625E-16,-0.));
#466 = DIRECTION('',(0.,0.,1.));
#467 = ADVANCED_FACE('',(#468),#479,.T.);
#468 = FACE_BOUND('',#469,.F.);
#469 = EDGE_LOOP('',(#470,#471,#472,#478));
#470 = ORIENTED_EDGE('',*,*,#457,.F.);
#471 = ORIENTED_EDGE('',*,*,#140,.T.);
#472 = ORIENTED_EDGE('',*,*,#473,.T.);
#473 = EDGE_CURVE('',#141,#301,#474,.T.);
#474 = LINE('',#475,#476);
#475 = CARTESIAN_POINT('',(145.,101.,22.75));
#476 = VECTOR('',#477,1.);
#477 = DIRECTION('',(1.,-1.110223024625E-16,-0.));
#478 = ORIENTED_EDGE('',*,*,#300,.F.);
#479 = PLANE('',#480);
#480 = AXIS2_PLACEMENT_3D('',#481,#482,#483);
#481 = CARTESIAN_POINT('',(145.,93.,22.75));
#482 = DIRECTION('',(0.,0.,1.));
#483 = DIRECTION('',(-1.110223024625E-16,-1.,0.));
#484 = ADVANCED_FACE('',(#485),#496,.F.);
#485 = FACE_BOUND('',#486,.T.);
#486 = EDGE_LOOP('',(#487,#488,#489,#495));
#487 = ORIENTED_EDGE('',*,*,#450,.F.);
#488 = ORIENTED_EDGE('',*,*,#157,.T.);
#489 = ORIENTED_EDGE('',*,*,#490,.T.);
#490 = EDGE_CURVE('',#149,#309,#491,.T.);
#491 = LINE('',#492,#493);
#492 = CARTESIAN_POINT('',(145.,101.,27.25));
#493 = VECTOR('',#494,1.);
#494 = DIRECTION('',(1.,-1.110223024625E-16,-0.));
#495 = ORIENTED_EDGE('',*,*,#317,.F.);
#496 = PLANE('',#497);
#497 = AXIS2_PLACEMENT_3D('',#498,#499,#500);
#498 = CARTESIAN_POINT('',(145.,93.,27.25));
#499 = DIRECTION('',(0.,0.,1.));
#500 = DIRECTION('',(-1.110223024625E-16,-1.,0.));
#501 = ADVANCED_FACE('',(#502),#508,.F.);
#502 = FACE_BOUND('',#503,.T.);
#503 = EDGE_LOOP('',(#504,#505,#506,#507));
#504 = ORIENTED_EDGE('',*,*,#308,.F.);
#505 = ORIENTED_EDGE('',*,*,#490,.F.);
#506 = ORIENTED_EDGE('',*,*,#148,.T.);
#507 = ORIENTED_EDGE('',*,*,#473,.T.);
#508 = CYLINDRICAL_SURFACE('',#509,2.25);
#509 = AXIS2_PLACEMENT_3D('',#510,#511,#512);
#510 = CARTESIAN_POINT('',(145.,101.,25.));
#511 = DIRECTION('',(1.,-1.110223024625E-16,-0.));
#512 = DIRECTION('',(0.,0.,1.));
#513 = ADVANCED_FACE('',(#514),#525,.F.);
#514 = FACE_BOUND('',#515,.T.);
#515 = EDGE_LOOP('',(#516,#517,#523,#524));
#516 = ORIENTED_EDGE('',*,*,#325,.F.);
#517 = ORIENTED_EDGE('',*,*,#518,.F.);
#518 = EDGE_CURVE('',#166,#326,#519,.T.);
#519 = LINE('',#520,#521);
#520 = CARTESIAN_POINT('',(145.,183.,8.6));
#521 = VECTOR('',#522,1.);
#522 = DIRECTION('',(1.,-1.110223024625E-16,-0.));
#523 = ORIENTED_EDGE('',*,*,#165,.T.);
#524 = ORIENTED_EDGE('',*,*,#518,.T.);
#525 = CYLINDRICAL_SURFACE('',#526,1.6);
#526 = AXIS2_PLACEMENT_3D('',#527,#528,#529);
#527 = CARTESIAN_POINT('',(145.,183.,7.));
#528 = DIRECTION('',(1.,-1.110223024625E-16,-0.));
#529 = DIRECTION('',(0.,0.,1.));
#530 = ADVANCED_FACE('',(#531),#550,.F.);
#531 = FACE_BOUND('',#532,.T.);
#532 = EDGE_LOOP('',(#533,#542,#548,#549));
#533 = ORIENTED_EDGE('',*,*,#534,.F.);
#534 = EDGE_CURVE('',#535,#535,#537,.T.);
#535 = VERTEX_POINT('',#536);
#536 = CARTESIAN_POINT('',(147.2,201.,11.3));
#537 = CIRCLE('',#538,2.3);
#538 = AXIS2_PLACEMENT_3D('',#539,#540,#541);
#539 = CARTESIAN_POINT('',(147.2,201.,9.));
#540 = DIRECTION('',(-1.,1.110223024625E-16,0.));
#541 = DIRECTION('',(0.,0.,1.));
#542 = ORIENTED_EDGE('',*,*,#543,.F.);
#543 = EDGE_CURVE('',#177,#535,#544,.T.);
#544 = LINE('',#545,#546);
#545 = CARTESIAN_POINT('',(145.,201.,11.3));
#546 = VECTOR('',#547,1.);
#547 = DIRECTION('',(1.,-1.110223024625E-16,-0.));
#548 = ORIENTED_EDGE('',*,*,#176,.T.);
#549 = ORIENTED_EDGE('',*,*,#543,.T.);
#550 = CYLINDRICAL_SURFACE('',#551,2.3);
#551 = AXIS2_PLACEMENT_3D('',#552,#553,#554);
#552 = CARTESIAN_POINT('',(145.,201.,9.));
#553 = DIRECTION('',(1.,-1.110223024625E-16,-0.));
#554 = DIRECTION('',(0.,0.,1.));
#555 = ADVANCED_FACE('',(#556),#567,.F.);
#556 = FACE_BOUND('',#557,.T.);
#557 = EDGE_LOOP('',(#558,#559,#565,#566));
#558 = ORIENTED_EDGE('',*,*,#347,.F.);
#559 = ORIENTED_EDGE('',*,*,#560,.F.);
#560 = EDGE_CURVE('',#188,#348,#561,.T.);
#561 = LINE('',#562,#563);
#562 = CARTESIAN_POINT('',(145.,201.,29.));
#563 = VECTOR('',#564,1.);
#564 = DIRECTION('',(1.,-1.110223024625E-16,-0.));
#565 = ORIENTED_EDGE('',*,*,#187,.T.);
#566 = ORIENTED_EDGE('',*,*,#560,.T.);
#567 = CYLINDRICAL_SURFACE('',#568,4.);
#568 = AXIS2_PLACEMENT_3D('',#569,#570,#571);
#569 = CARTESIAN_POINT('',(145.,201.,25.));
#570 = DIRECTION('',(1.,-1.110223024625E-16,-0.));
#571 = DIRECTION('',(0.,0.,1.));
#572 = ADVANCED_FACE('',(#573),#598,.F.);
#573 = FACE_BOUND('',#574,.T.);
#574 = EDGE_LOOP('',(#575,#583,#584,#592));
#575 = ORIENTED_EDGE('',*,*,#576,.F.);
#576 = EDGE_CURVE('',#79,#577,#579,.T.);
#577 = VERTEX_POINT('',#578);
#578 = CARTESIAN_POINT('',(146.,195.5,46.5));
#579 = LINE('',#580,#581);
#580 = CARTESIAN_POINT('',(146.,195.5,34.8));
#581 = VECTOR('',#582,1.);
#582 = DIRECTION('',(0.,0.,1.));
#583 = ORIENTED_EDGE('',*,*,#214,.T.);
#584 = ORIENTED_EDGE('',*,*,#585,.T.);
#585 = EDGE_CURVE('',#205,#586,#588,.T.);
#586 = VERTEX_POINT('',#587);
#587 = CARTESIAN_POINT('',(149.,195.5,46.5));
#588 = LINE('',#589,#590);
#589 = CARTESIAN_POINT('',(149.,195.5,34.8));
#590 = VECTOR('',#591,1.);
#591 = DIRECTION('',(0.,0.,1.));
#592 = ORIENTED_EDGE('',*,*,#593,.F.);
#593 = EDGE_CURVE('',#577,#586,#594,.T.);
#594 = LINE('',#595,#596);
#595 = CARTESIAN_POINT('',(146.,195.5,46.5));
#596 = VECTOR('',#597,1.);
#597 = DIRECTION('',(1.,-1.110223024625E-16,-0.));
#598 = PLANE('',#599);
#599 = AXIS2_PLACEMENT_3D('',#600,#601,#602);
#600 = CARTESIAN_POINT('',(146.,195.5,34.8));
#601 = DIRECTION('',(1.110223024625E-16,1.,0.));
#602 = DIRECTION('',(0.,0.,-1.));
#603 = ADVANCED_FACE('',(#604),#615,.T.);
#604 = FACE_BOUND('',#605,.F.);
#605 = EDGE_LOOP('',(#606,#612,#613,#614));
#606 = ORIENTED_EDGE('',*,*,#607,.T.);
#607 = EDGE_CURVE('',#205,#263,#608,.T.);
#608 = LINE('',#609,#610);
#609 = CARTESIAN_POINT('',(149.,87.,35.));
#610 = VECTOR('',#611,1.);
#611 = DIRECTION('',(1.110223024625E-16,1.,0.));
#612 = ORIENTED_EDGE('',*,*,#262,.F.);
#613 = ORIENTED_EDGE('',*,*,#254,.F.);
#614 = ORIENTED_EDGE('',*,*,#246,.T.);
#615 = PLANE('',#616);
#616 = AXIS2_PLACEMENT_3D('',#617,#618,#619);
#617 = CARTESIAN_POINT('',(149.,87.,0.));
#618 = DIRECTION('',(1.,-1.110223024625E-16,-0.));
#619 = DIRECTION('',(0.,0.,-1.));
#620 = ADVANCED_FACE('',(#621),#640,.T.);
#621 = FACE_BOUND('',#622,.F.);
#622 = EDGE_LOOP('',(#623,#631,#638,#639));
#623 = ORIENTED_EDGE('',*,*,#624,.T.);
#624 = EDGE_CURVE('',#337,#625,#627,.T.);
#625 = VERTEX_POINT('',#626);
#626 = CARTESIAN_POINT('',(150.6,201.,14.214656965084));
#627 = LINE('',#628,#629);
#628 = CARTESIAN_POINT('',(148.8,201.,14.214656965084));
#629 = VECTOR('',#630,1.);
#630 = DIRECTION('',(1.,-1.110223024625E-16,-0.));
#631 = ORIENTED_EDGE('',*,*,#632,.F.);
#632 = EDGE_CURVE('',#625,#625,#633,.T.);
#633 = CIRCLE('',#634,5.214656965084);
#634 = AXIS2_PLACEMENT_3D('',#635,#636,#637);
#635 = CARTESIAN_POINT('',(150.6,201.,9.));
#636 = DIRECTION('',(-1.,1.110223024625E-16,0.));
#637 = DIRECTION('',(0.,0.,1.));
#638 = ORIENTED_EDGE('',*,*,#624,.F.);
#639 = ORIENTED_EDGE('',*,*,#336,.T.);
#640 = CYLINDRICAL_SURFACE('',#641,5.214656965084);
#641 = AXIS2_PLACEMENT_3D('',#642,#643,#644);
#642 = CARTESIAN_POINT('',(148.8,201.,9.));
#643 = DIRECTION('',(1.,-1.110223024625E-16,-0.));
#644 = DIRECTION('',(0.,0.,1.));
#645 = ADVANCED_FACE('',(#646),#671,.T.);
#646 = FACE_BOUND('',#647,.F.);
#647 = EDGE_LOOP('',(#648,#656,#657,#665));
#648 = ORIENTED_EDGE('',*,*,#649,.F.);
#649 = EDGE_CURVE('',#103,#650,#652,.T.);
#650 = VERTEX_POINT('',#651);
#651 = CARTESIAN_POINT('',(146.,206.5,46.5));
#652 = LINE('',#653,#654);
#653 = CARTESIAN_POINT('',(146.,206.5,34.8));
#654 = VECTOR('',#655,1.);
#655 = DIRECTION('',(0.,0.,1.));
#656 = ORIENTED_EDGE('',*,*,#399,.T.);
#657 = ORIENTED_EDGE('',*,*,#658,.T.);
#658 = EDGE_CURVE('',#263,#659,#661,.T.);
#659 = VERTEX_POINT('',#660);
#660 = CARTESIAN_POINT('',(149.,206.5,46.5));
#661 = LINE('',#662,#663);
#662 = CARTESIAN_POINT('',(149.,206.5,34.8));
#663 = VECTOR('',#664,1.);
#664 = DIRECTION('',(0.,0.,1.));
#665 = ORIENTED_EDGE('',*,*,#666,.F.);
#666 = EDGE_CURVE('',#650,#659,#667,.T.);
#667 = LINE('',#668,#669);
#668 = CARTESIAN_POINT('',(146.,206.5,46.5));
#669 = VECTOR('',#670,1.);
#670 = DIRECTION('',(1.,-1.110223024625E-16,-0.));
#671 = PLANE('',#672);
#672 = AXIS2_PLACEMENT_3D('',#673,#674,#675);
#673 = CARTESIAN_POINT('',(146.,206.5,34.8));
#674 = DIRECTION('',(1.110223024625E-16,1.,0.));
#675 = DIRECTION('',(0.,0.,-1.));
#676 = ADVANCED_FACE('',(#677,#688),#699,.F.);
#677 = FACE_BOUND('',#678,.T.);
#678 = EDGE_LOOP('',(#679,#680,#681,#687));
#679 = ORIENTED_EDGE('',*,*,#415,.F.);
#680 = ORIENTED_EDGE('',*,*,#576,.T.);
#681 = ORIENTED_EDGE('',*,*,#682,.T.);
#682 = EDGE_CURVE('',#577,#650,#683,.T.);
#683 = LINE('',#684,#685);
#684 = CARTESIAN_POINT('',(146.,195.5,46.5));
#685 = VECTOR('',#686,1.);
#686 = DIRECTION('',(1.110223024625E-16,1.,0.));
#687 = ORIENTED_EDGE('',*,*,#649,.F.);
#688 = FACE_BOUND('',#689,.T.);
#689 = EDGE_LOOP('',(#690));
#690 = ORIENTED_EDGE('',*,*,#691,.F.);
#691 = EDGE_CURVE('',#692,#692,#694,.T.);
#692 = VERTEX_POINT('',#693);
#693 = CARTESIAN_POINT('',(146.,201.,43.3));
#694 = CIRCLE('',#695,2.3);
#695 = AXIS2_PLACEMENT_3D('',#696,#697,#698);
#696 = CARTESIAN_POINT('',(146.,201.,41.));
#697 = DIRECTION('',(-1.,1.110223024625E-16,0.));
#698 = DIRECTION('',(0.,0.,1.));
#699 = PLANE('',#700);
#700 = AXIS2_PLACEMENT_3D('',#701,#702,#703);
#701 = CARTESIAN_POINT('',(146.,195.5,34.8));
#702 = DIRECTION('',(1.,-1.110223024625E-16,-0.));
#703 = DIRECTION('',(0.,0.,-1.));
#704 = ADVANCED_FACE('',(#705,#755),#758,.F.);
#705 = FACE_BOUND('',#706,.T.);
#706 = EDGE_LOOP('',(#707,#717,#725,#733,#741,#749));
#707 = ORIENTED_EDGE('',*,*,#708,.T.);
#708 = EDGE_CURVE('',#709,#711,#713,.T.);
#709 = VERTEX_POINT('',#710);
#710 = CARTESIAN_POINT('',(147.2,204.65,11.107328482542));
#711 = VERTEX_POINT('',#712);
#712 = CARTESIAN_POINT('',(147.2,201.,13.214656965084));
#713 = LINE('',#714,#715);
#714 = CARTESIAN_POINT('',(147.2,204.65,11.107328482542));
#715 = VECTOR('',#716,1.);
#716 = DIRECTION('',(-9.614813431918E-17,-0.866025403784,0.5));
#717 = ORIENTED_EDGE('',*,*,#718,.T.);
#718 = EDGE_CURVE('',#711,#719,#721,.T.);
#719 = VERTEX_POINT('',#720);
#720 = CARTESIAN_POINT('',(147.2,197.35,11.107328482542));
#721 = LINE('',#722,#723);
#722 = CARTESIAN_POINT('',(147.2,201.,13.214656965084));
#723 = VECTOR('',#724,1.);
#724 = DIRECTION('',(-9.614813431918E-17,-0.866025403784,-0.5));
#725 = ORIENTED_EDGE('',*,*,#726,.T.);
#726 = EDGE_CURVE('',#719,#727,#729,.T.);
#727 = VERTEX_POINT('',#728);
#728 = CARTESIAN_POINT('',(147.2,197.35,6.892671517458));
#729 = LINE('',#730,#731);
#730 = CARTESIAN_POINT('',(147.2,197.35,11.107328482542));
#731 = VECTOR('',#732,1.);
#732 = DIRECTION('',(0.,-0.,-1.));
#733 = ORIENTED_EDGE('',*,*,#734,.T.);
#734 = EDGE_CURVE('',#727,#735,#737,.T.);
#735 = VERTEX_POINT('',#736);
#736 = CARTESIAN_POINT('',(147.2,201.,4.785343034916));
#737 = LINE('',#738,#739);
#738 = CARTESIAN_POINT('',(147.2,197.35,6.892671517458));
#739 = VECTOR('',#740,1.);
#740 = DIRECTION('',(9.614813431918E-17,0.866025403784,-0.5));
#741 = ORIENTED_EDGE('',*,*,#742,.T.);
#742 = EDGE_CURVE('',#735,#743,#745,.T.);
#743 = VERTEX_POINT('',#744);
#744 = CARTESIAN_POINT('',(147.2,204.65,6.892671517458));
#745 = LINE('',#746,#747);
#746 = CARTESIAN_POINT('',(147.2,201.,4.785343034916));
#747 = VECTOR('',#748,1.);
#748 = DIRECTION('',(9.614813431918E-17,0.866025403784,0.5));
#749 = ORIENTED_EDGE('',*,*,#750,.T.);
#750 = EDGE_CURVE('',#743,#709,#751,.T.);
#751 = LINE('',#752,#753);
#752 = CARTESIAN_POINT('',(147.2,204.65,6.892671517458));
#753 = VECTOR('',#754,1.);
#754 = DIRECTION('',(3.743416898486E-31,3.371770189823E-15,1.));
#755 = FACE_BOUND('',#756,.T.);
#756 = EDGE_LOOP('',(#757));
#757 = ORIENTED_EDGE('',*,*,#534,.T.);
#758 = PLANE('',#759);
#759 = AXIS2_PLACEMENT_3D('',#760,#761,#762);
#760 = CARTESIAN_POINT('',(147.2,201.,9.));
#761 = DIRECTION('',(-1.,1.110223024625E-16,0.));
#762 = DIRECTION('',(0.,0.,1.));
#763 = ADVANCED_FACE('',(#764),#775,.T.);
#764 = FACE_BOUND('',#765,.F.);
#765 = EDGE_LOOP('',(#766,#767,#768,#769));
#766 = ORIENTED_EDGE('',*,*,#593,.F.);
#767 = ORIENTED_EDGE('',*,*,#682,.T.);
#768 = ORIENTED_EDGE('',*,*,#666,.T.);
#769 = ORIENTED_EDGE('',*,*,#770,.F.);
#770 = EDGE_CURVE('',#586,#659,#771,.T.);
#771 = LINE('',#772,#773);
#772 = CARTESIAN_POINT('',(149.,195.5,46.5));
#773 = VECTOR('',#774,1.);
#774 = DIRECTION('',(1.110223024625E-16,1.,0.));
#775 = PLANE('',#776);
#776 = AXIS2_PLACEMENT_3D('',#777,#778,#779);
#777 = CARTESIAN_POINT('',(146.,195.5,46.5));
#778 = DIRECTION('',(0.,0.,1.));
#779 = DIRECTION('',(-1.110223024625E-16,-1.,0.));
#780 = ADVANCED_FACE('',(#781,#787),#798,.T.);
#781 = FACE_BOUND('',#782,.F.);
#782 = EDGE_LOOP('',(#783,#784,#785,#786));
#783 = ORIENTED_EDGE('',*,*,#607,.F.);
#784 = ORIENTED_EDGE('',*,*,#585,.T.);
#785 = ORIENTED_EDGE('',*,*,#770,.T.);
#786 = ORIENTED_EDGE('',*,*,#658,.F.);
#787 = FACE_BOUND('',#788,.F.);
#788 = EDGE_LOOP('',(#789));
#789 = ORIENTED_EDGE('',*,*,#790,.F.);
#790 = EDGE_CURVE('',#791,#791,#793,.T.);
#791 = VERTEX_POINT('',#792);
#792 = CARTESIAN_POINT('',(149.,201.,46.214656965084));
#793 = CIRCLE('',#794,5.214656965084);
#794 = AXIS2_PLACEMENT_3D('',#795,#796,#797);
#795 = CARTESIAN_POINT('',(149.,201.,41.));
#796 = DIRECTION('',(-1.,1.110223024625E-16,0.));
#797 = DIRECTION('',(0.,0.,1.));
#798 = PLANE('',#799);
#799 = AXIS2_PLACEMENT_3D('',#800,#801,#802);
#800 = CARTESIAN_POINT('',(149.,195.5,34.8));
#801 = DIRECTION('',(1.,-1.110223024625E-16,-0.));
#802 = DIRECTION('',(0.,0.,-1.));
#803 = ADVANCED_FACE('',(#804,#807),#857,.T.);
#804 = FACE_BOUND('',#805,.F.);
#805 = EDGE_LOOP('',(#806));
#806 = ORIENTED_EDGE('',*,*,#632,.T.);
#807 = FACE_BOUND('',#808,.F.);
#808 = EDGE_LOOP('',(#809,#819,#827,#835,#843,#851));
#809 = ORIENTED_EDGE('',*,*,#810,.F.);
#810 = EDGE_CURVE('',#811,#813,#815,.T.);
#811 = VERTEX_POINT('',#812);
#812 = CARTESIAN_POINT('',(150.6,201.,13.214656965084));
#813 = VERTEX_POINT('',#814);
#814 = CARTESIAN_POINT('',(150.6,204.65,11.107328482542));
#815 = LINE('',#816,#817);
#816 = CARTESIAN_POINT('',(150.6,203.7375,11.634160603178));
#817 = VECTOR('',#818,1.);
#818 = DIRECTION('',(9.614813431918E-17,0.866025403784,-0.5));
#819 = ORIENTED_EDGE('',*,*,#820,.F.);
#820 = EDGE_CURVE('',#821,#811,#823,.T.);
#821 = VERTEX_POINT('',#822);
#822 = CARTESIAN_POINT('',(150.6,197.35,11.107328482542));
#823 = LINE('',#824,#825);
#824 = CARTESIAN_POINT('',(150.6,200.0875,12.687824844449));
#825 = VECTOR('',#826,1.);
#826 = DIRECTION('',(9.614813431918E-17,0.866025403784,0.5));
#827 = ORIENTED_EDGE('',*,*,#828,.F.);
#828 = EDGE_CURVE('',#829,#821,#831,.T.);
#829 = VERTEX_POINT('',#830);
#830 = CARTESIAN_POINT('',(150.6,197.35,6.892671517458));
#831 = LINE('',#832,#833);
#832 = CARTESIAN_POINT('',(150.6,197.35,10.053664241271));
#833 = VECTOR('',#834,1.);
#834 = DIRECTION('',(0.,0.,1.));
#835 = ORIENTED_EDGE('',*,*,#836,.F.);
#836 = EDGE_CURVE('',#837,#829,#839,.T.);
#837 = VERTEX_POINT('',#838);
#838 = CARTESIAN_POINT('',(150.6,201.,4.785343034916));
#839 = LINE('',#840,#841);
#840 = CARTESIAN_POINT('',(150.6,198.2625,6.365839396822));
#841 = VECTOR('',#842,1.);
#842 = DIRECTION('',(-9.614813431918E-17,-0.866025403784,0.5));
#843 = ORIENTED_EDGE('',*,*,#844,.F.);
#844 = EDGE_CURVE('',#845,#837,#847,.T.);
#845 = VERTEX_POINT('',#846);
#846 = CARTESIAN_POINT('',(150.6,204.65,6.892671517458));
#847 = LINE('',#848,#849);
#848 = CARTESIAN_POINT('',(150.6,201.9125,5.312175155551));
#849 = VECTOR('',#850,1.);
#850 = DIRECTION('',(-9.614813431918E-17,-0.866025403784,-0.5));
#851 = ORIENTED_EDGE('',*,*,#852,.F.);
#852 = EDGE_CURVE('',#813,#845,#853,.T.);
#853 = LINE('',#854,#855);
#854 = CARTESIAN_POINT('',(150.6,204.65,7.946335758729));
#855 = VECTOR('',#856,1.);
#856 = DIRECTION('',(-3.743416898486E-31,-3.371770189823E-15,-1.));
#857 = PLANE('',#858);
#858 = AXIS2_PLACEMENT_3D('',#859,#860,#861);
#859 = CARTESIAN_POINT('',(150.6,201.,9.));
#860 = DIRECTION('',(1.,-1.110223024625E-16,-0.));
#861 = DIRECTION('',(0.,0.,-1.));
#862 = ADVANCED_FACE('',(#863),#882,.F.);
#863 = FACE_BOUND('',#864,.T.);
#864 = EDGE_LOOP('',(#865,#874,#880,#881));
#865 = ORIENTED_EDGE('',*,*,#866,.F.);
#866 = EDGE_CURVE('',#867,#867,#869,.T.);
#867 = VERTEX_POINT('',#868);
#868 = CARTESIAN_POINT('',(147.2,201.,43.3));
#869 = CIRCLE('',#870,2.3);
#870 = AXIS2_PLACEMENT_3D('',#871,#872,#873);
#871 = CARTESIAN_POINT('',(147.2,201.,41.));
#872 = DIRECTION('',(-1.,1.110223024625E-16,0.));
#873 = DIRECTION('',(0.,0.,1.));
#874 = ORIENTED_EDGE('',*,*,#875,.F.);
#875 = EDGE_CURVE('',#692,#867,#876,.T.);
#876 = LINE('',#877,#878);
#877 = CARTESIAN_POINT('',(145.,201.,43.3));
#878 = VECTOR('',#879,1.);
#879 = DIRECTION('',(1.,-1.110223024625E-16,-0.));
#880 = ORIENTED_EDGE('',*,*,#691,.T.);
#881 = ORIENTED_EDGE('',*,*,#875,.T.);
#882 = CYLINDRICAL_SURFACE('',#883,2.3);
#883 = AXIS2_PLACEMENT_3D('',#884,#885,#886);
#884 = CARTESIAN_POINT('',(145.,201.,41.));
#885 = DIRECTION('',(1.,-1.110223024625E-16,-0.));
#886 = DIRECTION('',(0.,0.,1.));
#887 = ADVANCED_FACE('',(#888),#904,.F.);
#888 = FACE_BOUND('',#889,.T.);
#889 = EDGE_LOOP('',(#890,#891,#897,#898));
#890 = ORIENTED_EDGE('',*,*,#708,.F.);
#891 = ORIENTED_EDGE('',*,*,#892,.T.);
#892 = EDGE_CURVE('',#709,#813,#893,.T.);
#893 = LINE('',#894,#895);
#894 = CARTESIAN_POINT('',(147.2,204.65,11.107328482542));
#895 = VECTOR('',#896,1.);
#896 = DIRECTION('',(1.,-1.110223024625E-16,-0.));
#897 = ORIENTED_EDGE('',*,*,#810,.F.);
#898 = ORIENTED_EDGE('',*,*,#899,.F.);
#899 = EDGE_CURVE('',#711,#811,#900,.T.);
#900 = LINE('',#901,#902);
#901 = CARTESIAN_POINT('',(147.2,201.,13.214656965084));
#902 = VECTOR('',#903,1.);
#903 = DIRECTION('',(1.,-1.110223024625E-16,-0.));
#904 = PLANE('',#905);
#905 = AXIS2_PLACEMENT_3D('',#906,#907,#908);
#906 = CARTESIAN_POINT('',(147.2,204.65,11.107328482542));
#907 = DIRECTION('',(5.551115123126E-17,0.5,0.866025403784));
#908 = DIRECTION('',(9.614813431918E-17,0.866025403784,-0.5));
#909 = ADVANCED_FACE('',(#910),#921,.F.);
#910 = FACE_BOUND('',#911,.T.);
#911 = EDGE_LOOP('',(#912,#913,#919,#920));
#912 = ORIENTED_EDGE('',*,*,#750,.F.);
#913 = ORIENTED_EDGE('',*,*,#914,.T.);
#914 = EDGE_CURVE('',#743,#845,#915,.T.);
#915 = LINE('',#916,#917);
#916 = CARTESIAN_POINT('',(147.2,204.65,6.892671517458));
#917 = VECTOR('',#918,1.);
#918 = DIRECTION('',(1.,-1.110223024625E-16,-0.));
#919 = ORIENTED_EDGE('',*,*,#852,.F.);
#920 = ORIENTED_EDGE('',*,*,#892,.F.);
#921 = PLANE('',#922);
#922 = AXIS2_PLACEMENT_3D('',#923,#924,#925);
#923 = CARTESIAN_POINT('',(147.2,204.65,6.892671517458));
#924 = DIRECTION('',(1.110223024625E-16,1.,-3.371770189823E-15));
#925 = DIRECTION('',(-3.743416898486E-31,-3.371770189823E-15,-1.));
#926 = ADVANCED_FACE('',(#927),#938,.F.);
#927 = FACE_BOUND('',#928,.T.);
#928 = EDGE_LOOP('',(#929,#930,#931,#932));
#929 = ORIENTED_EDGE('',*,*,#718,.F.);
#930 = ORIENTED_EDGE('',*,*,#899,.T.);
#931 = ORIENTED_EDGE('',*,*,#820,.F.);
#932 = ORIENTED_EDGE('',*,*,#933,.F.);
#933 = EDGE_CURVE('',#719,#821,#934,.T.);
#934 = LINE('',#935,#936);
#935 = CARTESIAN_POINT('',(147.2,197.35,11.107328482542));
#936 = VECTOR('',#937,1.);
#937 = DIRECTION('',(1.,-1.110223024625E-16,-0.));
#938 = PLANE('',#939);
#939 = AXIS2_PLACEMENT_3D('',#940,#941,#942);
#940 = CARTESIAN_POINT('',(147.2,201.,13.214656965084));
#941 = DIRECTION('',(-5.551115123126E-17,-0.5,0.866025403784));
#942 = DIRECTION('',(9.614813431918E-17,0.866025403784,0.5));
#943 = ADVANCED_FACE('',(#944),#955,.F.);
#944 = FACE_BOUND('',#945,.T.);
#945 = EDGE_LOOP('',(#946,#947,#953,#954));
#946 = ORIENTED_EDGE('',*,*,#742,.F.);
#947 = ORIENTED_EDGE('',*,*,#948,.T.);
#948 = EDGE_CURVE('',#735,#837,#949,.T.);
#949 = LINE('',#950,#951);
#950 = CARTESIAN_POINT('',(147.2,201.,4.785343034916));
#951 = VECTOR('',#952,1.);
#952 = DIRECTION('',(1.,-1.110223024625E-16,-0.));
#953 = ORIENTED_EDGE('',*,*,#844,.F.);
#954 = ORIENTED_EDGE('',*,*,#914,.F.);
#955 = PLANE('',#956);
#956 = AXIS2_PLACEMENT_3D('',#957,#958,#959);
#957 = CARTESIAN_POINT('',(147.2,201.,4.785343034916));
#958 = DIRECTION('',(5.551115123126E-17,0.5,-0.866025403784));
#959 = DIRECTION('',(-9.614813431918E-17,-0.866025403784,-0.5));
#960 = ADVANCED_FACE('',(#961),#972,.F.);
#961 = FACE_BOUND('',#962,.T.);
#962 = EDGE_LOOP('',(#963,#964,#965,#966));
#963 = ORIENTED_EDGE('',*,*,#726,.F.);
#964 = ORIENTED_EDGE('',*,*,#933,.T.);
#965 = ORIENTED_EDGE('',*,*,#828,.F.);
#966 = ORIENTED_EDGE('',*,*,#967,.F.);
#967 = EDGE_CURVE('',#727,#829,#968,.T.);
#968 = LINE('',#969,#970);
#969 = CARTESIAN_POINT('',(147.2,197.35,6.892671517458));
#970 = VECTOR('',#971,1.);
#971 = DIRECTION('',(1.,-1.110223024625E-16,-0.));
#972 = PLANE('',#973);
#973 = AXIS2_PLACEMENT_3D('',#974,#975,#976);
#974 = CARTESIAN_POINT('',(147.2,197.35,11.107328482542));
#975 = DIRECTION('',(-1.110223024625E-16,-1.,-0.));
#976 = DIRECTION('',(0.,0.,1.));
#977 = ADVANCED_FACE('',(#978),#984,.F.);
#978 = FACE_BOUND('',#979,.T.);
#979 = EDGE_LOOP('',(#980,#981,#982,#983));
#980 = ORIENTED_EDGE('',*,*,#734,.F.);
#981 = ORIENTED_EDGE('',*,*,#967,.T.);
#982 = ORIENTED_EDGE('',*,*,#836,.F.);
#983 = ORIENTED_EDGE('',*,*,#948,.F.);
#984 = PLANE('',#985);
#985 = AXIS2_PLACEMENT_3D('',#986,#987,#988);
#986 = CARTESIAN_POINT('',(147.2,197.35,6.892671517458));
#987 = DIRECTION('',(-5.551115123126E-17,-0.5,-0.866025403784));
#988 = DIRECTION('',(-9.614813431918E-17,-0.866025403784,0.5));
#989 = ADVANCED_FACE('',(#990),#1009,.T.);
#990 = FACE_BOUND('',#991,.F.);
#991 = EDGE_LOOP('',(#992,#1000,#1007,#1008));
#992 = ORIENTED_EDGE('',*,*,#993,.T.);
#993 = EDGE_CURVE('',#791,#994,#996,.T.);
#994 = VERTEX_POINT('',#995);
#995 = CARTESIAN_POINT('',(150.6,201.,46.214656965084));
#996 = LINE('',#997,#998);
#997 = CARTESIAN_POINT('',(148.8,201.,46.214656965084));
#998 = VECTOR('',#999,1.);
#999 = DIRECTION('',(1.,-1.110223024625E-16,-0.));
#1000 = ORIENTED_EDGE('',*,*,#1001,.F.);
#1001 = EDGE_CURVE('',#994,#994,#1002,.T.);
#1002 = CIRCLE('',#1003,5.214656965084);
#1003 = AXIS2_PLACEMENT_3D('',#1004,#1005,#1006);
#1004 = CARTESIAN_POINT('',(150.6,201.,41.));
#1005 = DIRECTION('',(-1.,1.110223024625E-16,0.));
#1006 = DIRECTION('',(0.,0.,1.));
#1007 = ORIENTED_EDGE('',*,*,#993,.F.);
#1008 = ORIENTED_EDGE('',*,*,#790,.T.);
#1009 = CYLINDRICAL_SURFACE('',#1010,5.214656965084);
#1010 = AXIS2_PLACEMENT_3D('',#1011,#1012,#1013);
#1011 = CARTESIAN_POINT('',(148.8,201.,41.));
#1012 = DIRECTION('',(1.,-1.110223024625E-16,-0.));
#1013 = DIRECTION('',(0.,0.,1.));
#1014 = ADVANCED_FACE('',(#1015,#1065),#1068,.F.);
#1015 = FACE_BOUND('',#1016,.T.);
#1016 = EDGE_LOOP('',(#1017,#1027,#1035,#1043,#1051,#1059));
#1017 = ORIENTED_EDGE('',*,*,#1018,.T.);
#1018 = EDGE_CURVE('',#1019,#1021,#1023,.T.);
#1019 = VERTEX_POINT('',#1020);
#1020 = CARTESIAN_POINT('',(147.2,204.65,43.107328482542));
#1021 = VERTEX_POINT('',#1022);
#1022 = CARTESIAN_POINT('',(147.2,201.,45.214656965084));
#1023 = LINE('',#1024,#1025);
#1024 = CARTESIAN_POINT('',(147.2,204.65,43.107328482542));
#1025 = VECTOR('',#1026,1.);
#1026 = DIRECTION('',(-9.614813431918E-17,-0.866025403784,0.5));
#1027 = ORIENTED_EDGE('',*,*,#1028,.T.);
#1028 = EDGE_CURVE('',#1021,#1029,#1031,.T.);
#1029 = VERTEX_POINT('',#1030);
#1030 = CARTESIAN_POINT('',(147.2,197.35,43.107328482542));
#1031 = LINE('',#1032,#1033);
#1032 = CARTESIAN_POINT('',(147.2,201.,45.214656965084));
#1033 = VECTOR('',#1034,1.);
#1034 = DIRECTION('',(-9.614813431918E-17,-0.866025403784,-0.5));
#1035 = ORIENTED_EDGE('',*,*,#1036,.T.);
#1036 = EDGE_CURVE('',#1029,#1037,#1039,.T.);
#1037 = VERTEX_POINT('',#1038);
#1038 = CARTESIAN_POINT('',(147.2,197.35,38.892671517458));
#1039 = LINE('',#1040,#1041);
#1040 = CARTESIAN_POINT('',(147.2,197.35,43.107328482542));
#1041 = VECTOR('',#1042,1.);
#1042 = DIRECTION('',(0.,-0.,-1.));
#1043 = ORIENTED_EDGE('',*,*,#1044,.T.);
#1044 = EDGE_CURVE('',#1037,#1045,#1047,.T.);
#1045 = VERTEX_POINT('',#1046);
#1046 = CARTESIAN_POINT('',(147.2,201.,36.785343034916));
#1047 = LINE('',#1048,#1049);
#1048 = CARTESIAN_POINT('',(147.2,197.35,38.892671517458));
#1049 = VECTOR('',#1050,1.);
#1050 = DIRECTION('',(9.614813431918E-17,0.866025403784,-0.5));
#1051 = ORIENTED_EDGE('',*,*,#1052,.T.);
#1052 = EDGE_CURVE('',#1045,#1053,#1055,.T.);
#1053 = VERTEX_POINT('',#1054);
#1054 = CARTESIAN_POINT('',(147.2,204.65,38.892671517458));
#1055 = LINE('',#1056,#1057);
#1056 = CARTESIAN_POINT('',(147.2,201.,36.785343034916));
#1057 = VECTOR('',#1058,1.);
#1058 = DIRECTION('',(9.614813431918E-17,0.866025403784,0.5));
#1059 = ORIENTED_EDGE('',*,*,#1060,.T.);
#1060 = EDGE_CURVE('',#1053,#1019,#1061,.T.);
#1061 = LINE('',#1062,#1063);
#1062 = CARTESIAN_POINT('',(147.2,204.65,38.892671517458));
#1063 = VECTOR('',#1064,1.);
#1064 = DIRECTION('',(3.743416898486E-31,3.371770189823E-15,1.));
#1065 = FACE_BOUND('',#1066,.T.);
#1066 = EDGE_LOOP('',(#1067));
#1067 = ORIENTED_EDGE('',*,*,#866,.T.);
#1068 = PLANE('',#1069);
#1069 = AXIS2_PLACEMENT_3D('',#1070,#1071,#1072);
#1070 = CARTESIAN_POINT('',(147.2,201.,41.));
#1071 = DIRECTION('',(-1.,1.110223024625E-16,0.));
#1072 = DIRECTION('',(0.,0.,1.));
#1073 = ADVANCED_FACE('',(#1074,#1077),#1127,.T.);
#1074 = FACE_BOUND('',#1075,.F.);
#1075 = EDGE_LOOP('',(#1076));
#1076 = ORIENTED_EDGE('',*,*,#1001,.T.);
#1077 = FACE_BOUND('',#1078,.F.);
#1078 = EDGE_LOOP('',(#1079,#1089,#1097,#1105,#1113,#1121));
#1079 = ORIENTED_EDGE('',*,*,#1080,.F.);
#1080 = EDGE_CURVE('',#1081,#1083,#1085,.T.);
#1081 = VERTEX_POINT('',#1082);
#1082 = CARTESIAN_POINT('',(150.6,201.,45.214656965084));
#1083 = VERTEX_POINT('',#1084);
#1084 = CARTESIAN_POINT('',(150.6,204.65,43.107328482542));
#1085 = LINE('',#1086,#1087);
#1086 = CARTESIAN_POINT('',(150.6,203.7375,43.634160603178));
#1087 = VECTOR('',#1088,1.);
#1088 = DIRECTION('',(9.614813431918E-17,0.866025403784,-0.5));
#1089 = ORIENTED_EDGE('',*,*,#1090,.F.);
#1090 = EDGE_CURVE('',#1091,#1081,#1093,.T.);
#1091 = VERTEX_POINT('',#1092);
#1092 = CARTESIAN_POINT('',(150.6,197.35,43.107328482542));
#1093 = LINE('',#1094,#1095);
#1094 = CARTESIAN_POINT('',(150.6,200.0875,44.687824844449));
#1095 = VECTOR('',#1096,1.);
#1096 = DIRECTION('',(9.614813431918E-17,0.866025403784,0.5));
#1097 = ORIENTED_EDGE('',*,*,#1098,.F.);
#1098 = EDGE_CURVE('',#1099,#1091,#1101,.T.);
#1099 = VERTEX_POINT('',#1100);
#1100 = CARTESIAN_POINT('',(150.6,197.35,38.892671517458));
#1101 = LINE('',#1102,#1103);
#1102 = CARTESIAN_POINT('',(150.6,197.35,42.053664241271));
#1103 = VECTOR('',#1104,1.);
#1104 = DIRECTION('',(0.,0.,1.));
#1105 = ORIENTED_EDGE('',*,*,#1106,.F.);
#1106 = EDGE_CURVE('',#1107,#1099,#1109,.T.);
#1107 = VERTEX_POINT('',#1108);
#1108 = CARTESIAN_POINT('',(150.6,201.,36.785343034916));
#1109 = LINE('',#1110,#1111);
#1110 = CARTESIAN_POINT('',(150.6,198.2625,38.365839396822));
#1111 = VECTOR('',#1112,1.);
#1112 = DIRECTION('',(-9.614813431918E-17,-0.866025403784,0.5));
#1113 = ORIENTED_EDGE('',*,*,#1114,.F.);
#1114 = EDGE_CURVE('',#1115,#1107,#1117,.T.);
#1115 = VERTEX_POINT('',#1116);
#1116 = CARTESIAN_POINT('',(150.6,204.65,38.892671517458));
#1117 = LINE('',#1118,#1119);
#1118 = CARTESIAN_POINT('',(150.6,201.9125,37.312175155551));
#1119 = VECTOR('',#1120,1.);
#1120 = DIRECTION('',(-9.614813431918E-17,-0.866025403784,-0.5));
#1121 = ORIENTED_EDGE('',*,*,#1122,.F.);
#1122 = EDGE_CURVE('',#1083,#1115,#1123,.T.);
#1123 = LINE('',#1124,#1125);
#1124 = CARTESIAN_POINT('',(150.6,204.65,39.946335758729));
#1125 = VECTOR('',#1126,1.);
#1126 = DIRECTION('',(-3.743416898486E-31,-3.371770189823E-15,-1.));
#1127 = PLANE('',#1128);
#1128 = AXIS2_PLACEMENT_3D('',#1129,#1130,#1131);
#1129 = CARTESIAN_POINT('',(150.6,201.,41.));
#1130 = DIRECTION('',(1.,-1.110223024625E-16,-0.));
#1131 = DIRECTION('',(0.,0.,-1.));
#1132 = ADVANCED_FACE('',(#1133),#1149,.F.);
#1133 = FACE_BOUND('',#1134,.T.);
#1134 = EDGE_LOOP('',(#1135,#1136,#1142,#1143));
#1135 = ORIENTED_EDGE('',*,*,#1018,.F.);
#1136 = ORIENTED_EDGE('',*,*,#1137,.T.);
#1137 = EDGE_CURVE('',#1019,#1083,#1138,.T.);
#1138 = LINE('',#1139,#1140);
#1139 = CARTESIAN_POINT('',(147.2,204.65,43.107328482542));
#1140 = VECTOR('',#1141,1.);
#1141 = DIRECTION('',(1.,-1.110223024625E-16,-0.));
#1142 = ORIENTED_EDGE('',*,*,#1080,.F.);
#1143 = ORIENTED_EDGE('',*,*,#1144,.F.);
#1144 = EDGE_CURVE('',#1021,#1081,#1145,.T.);
#1145 = LINE('',#1146,#1147);
#1146 = CARTESIAN_POINT('',(147.2,201.,45.214656965084));
#1147 = VECTOR('',#1148,1.);
#1148 = DIRECTION('',(1.,-1.110223024625E-16,-0.));
#1149 = PLANE('',#1150);
#1150 = AXIS2_PLACEMENT_3D('',#1151,#1152,#1153);
#1151 = CARTESIAN_POINT('',(147.2,204.65,43.107328482542));
#1152 = DIRECTION('',(5.551115123126E-17,0.5,0.866025403784));
#1153 = DIRECTION('',(9.614813431918E-17,0.866025403784,-0.5));
#1154 = ADVANCED_FACE('',(#1155),#1166,.F.);
#1155 = FACE_BOUND('',#1156,.T.);
#1156 = EDGE_LOOP('',(#1157,#1158,#1164,#1165));
#1157 = ORIENTED_EDGE('',*,*,#1060,.F.);
#1158 = ORIENTED_EDGE('',*,*,#1159,.T.);
#1159 = EDGE_CURVE('',#1053,#1115,#1160,.T.);
#1160 = LINE('',#1161,#1162);
#1161 = CARTESIAN_POINT('',(147.2,204.65,38.892671517458));
#1162 = VECTOR('',#1163,1.);
#1163 = DIRECTION('',(1.,-1.110223024625E-16,-0.));
#1164 = ORIENTED_EDGE('',*,*,#1122,.F.);
#1165 = ORIENTED_EDGE('',*,*,#1137,.F.);
#1166 = PLANE('',#1167);
#1167 = AXIS2_PLACEMENT_3D('',#1168,#1169,#1170);
#1168 = CARTESIAN_POINT('',(147.2,204.65,38.892671517458));
#1169 = DIRECTION('',(1.110223024625E-16,1.,-3.371770189823E-15));
#1170 = DIRECTION('',(-3.743416898486E-31,-3.371770189823E-15,-1.));
#1171 = ADVANCED_FACE('',(#1172),#1183,.F.);
#1172 = FACE_BOUND('',#1173,.T.);
#1173 = EDGE_LOOP('',(#1174,#1175,#1176,#1177));
#1174 = ORIENTED_EDGE('',*,*,#1028,.F.);
#1175 = ORIENTED_EDGE('',*,*,#1144,.T.);
#1176 = ORIENTED_EDGE('',*,*,#1090,.F.);
#1177 = ORIENTED_EDGE('',*,*,#1178,.F.);
#1178 = EDGE_CURVE('',#1029,#1091,#1179,.T.);
#1179 = LINE('',#1180,#1181);
#1180 = CARTESIAN_POINT('',(147.2,197.35,43.107328482542));
#1181 = VECTOR('',#1182,1.);
#1182 = DIRECTION('',(1.,-1.110223024625E-16,-0.));
#1183 = PLANE('',#1184);
#1184 = AXIS2_PLACEMENT_3D('',#1185,#1186,#1187);
#1185 = CARTESIAN_POINT('',(147.2,201.,45.214656965084));
#1186 = DIRECTION('',(-5.551115123126E-17,-0.5,0.866025403784));
#1187 = DIRECTION('',(9.614813431918E-17,0.866025403784,0.5));
#1188 = ADVANCED_FACE('',(#1189),#1200,.F.);
#1189 = FACE_BOUND('',#1190,.T.);
#1190 = EDGE_LOOP('',(#1191,#1192,#1198,#1199));
#1191 = ORIENTED_EDGE('',*,*,#1052,.F.);
#1192 = ORIENTED_EDGE('',*,*,#1193,.T.);
#1193 = EDGE_CURVE('',#1045,#1107,#1194,.T.);
#1194 = LINE('',#1195,#1196);
#1195 = CARTESIAN_POINT('',(147.2,201.,36.785343034916));
#1196 = VECTOR('',#1197,1.);
#1197 = DIRECTION('',(1.,-1.110223024625E-16,-0.));
#1198 = ORIENTED_EDGE('',*,*,#1114,.F.);
#1199 = ORIENTED_EDGE('',*,*,#1159,.F.);
#1200 = PLANE('',#1201);
#1201 = AXIS2_PLACEMENT_3D('',#1202,#1203,#1204);
#1202 = CARTESIAN_POINT('',(147.2,201.,36.785343034916));
#1203 = DIRECTION('',(5.551115123126E-17,0.5,-0.866025403784));
#1204 = DIRECTION('',(-9.614813431918E-17,-0.866025403784,-0.5));
#1205 = ADVANCED_FACE('',(#1206),#1217,.F.);
#1206 = FACE_BOUND('',#1207,.T.);
#1207 = EDGE_LOOP('',(#1208,#1209,#1210,#1211));
#1208 = ORIENTED_EDGE('',*,*,#1036,.F.);
#1209 = ORIENTED_EDGE('',*,*,#1178,.T.);
#1210 = ORIENTED_EDGE('',*,*,#1098,.F.);
#1211 = ORIENTED_EDGE('',*,*,#1212,.F.);
#1212 = EDGE_CURVE('',#1037,#1099,#1213,.T.);
#1213 = LINE('',#1214,#1215);
#1214 = CARTESIAN_POINT('',(147.2,197.35,38.892671517458));
#1215 = VECTOR('',#1216,1.);
#1216 = DIRECTION('',(1.,-1.110223024625E-16,-0.));
#1217 = PLANE('',#1218);
#1218 = AXIS2_PLACEMENT_3D('',#1219,#1220,#1221);
#1219 = CARTESIAN_POINT('',(147.2,197.35,43.107328482542));
#1220 = DIRECTION('',(-1.110223024625E-16,-1.,-0.));
#1221 = DIRECTION('',(0.,0.,1.));
#1222 = ADVANCED_FACE('',(#1223),#1229,.F.);
#1223 = FACE_BOUND('',#1224,.T.);
#1224 = EDGE_LOOP('',(#1225,#1226,#1227,#1228));
#1225 = ORIENTED_EDGE('',*,*,#1044,.F.);
#1226 = ORIENTED_EDGE('',*,*,#1212,.T.);
#1227 = ORIENTED_EDGE('',*,*,#1106,.F.);
#1228 = ORIENTED_EDGE('',*,*,#1193,.F.);
#1229 = PLANE('',#1230);
#1230 = AXIS2_PLACEMENT_3D('',#1231,#1232,#1233);
#1231 = CARTESIAN_POINT('',(147.2,197.35,38.892671517458));
#1232 = DIRECTION('',(-5.551115123126E-17,-0.5,-0.866025403784));
#1233 = DIRECTION('',(-9.614813431918E-17,-0.866025403784,0.5));
#1234 = MANIFOLD_SOLID_BREP('',#1235);
#1235 = CLOSED_SHELL('',(#1236,#1276,#1376,#1400,#1493,#1510,#1522,#1539
    ,#1561,#1578,#1595,#1607,#1624));
#1236 = ADVANCED_FACE('',(#1237),#1271,.F.);
#1237 = FACE_BOUND('',#1238,.T.);
#1238 = EDGE_LOOP('',(#1239,#1249,#1257,#1265));
#1239 = ORIENTED_EDGE('',*,*,#1240,.F.);
#1240 = EDGE_CURVE('',#1241,#1243,#1245,.T.);
#1241 = VERTEX_POINT('',#1242);
#1242 = CARTESIAN_POINT('',(204.,87.,0.));
#1243 = VERTEX_POINT('',#1244);
#1244 = CARTESIAN_POINT('',(204.,87.,35.));
#1245 = LINE('',#1246,#1247);
#1246 = CARTESIAN_POINT('',(204.,87.,0.));
#1247 = VECTOR('',#1248,1.);
#1248 = DIRECTION('',(0.,0.,1.));
#1249 = ORIENTED_EDGE('',*,*,#1250,.T.);
#1250 = EDGE_CURVE('',#1241,#1251,#1253,.T.);
#1251 = VERTEX_POINT('',#1252);
#1252 = CARTESIAN_POINT('',(207.,87.,0.));
#1253 = LINE('',#1254,#1255);
#1254 = CARTESIAN_POINT('',(204.,87.,0.));
#1255 = VECTOR('',#1256,1.);
#1256 = DIRECTION('',(1.,-1.110223024625E-16,-0.));
#1257 = ORIENTED_EDGE('',*,*,#1258,.T.);
#1258 = EDGE_CURVE('',#1251,#1259,#1261,.T.);
#1259 = VERTEX_POINT('',#1260);
#1260 = CARTESIAN_POINT('',(207.,87.,35.));
#1261 = LINE('',#1262,#1263);
#1262 = CARTESIAN_POINT('',(207.,87.,0.));
#1263 = VECTOR('',#1264,1.);
#1264 = DIRECTION('',(0.,0.,1.));
#1265 = ORIENTED_EDGE('',*,*,#1266,.F.);
#1266 = EDGE_CURVE('',#1243,#1259,#1267,.T.);
#1267 = LINE('',#1268,#1269);
#1268 = CARTESIAN_POINT('',(204.,87.,35.));
#1269 = VECTOR('',#1270,1.);
#1270 = DIRECTION('',(1.,-1.110223024625E-16,-0.));
#1271 = PLANE('',#1272);
#1272 = AXIS2_PLACEMENT_3D('',#1273,#1274,#1275);
#1273 = CARTESIAN_POINT('',(204.,87.,0.));
#1274 = DIRECTION('',(1.110223024625E-16,1.,0.));
#1275 = DIRECTION('',(0.,0.,-1.));
#1276 = ADVANCED_FACE('',(#1277,#1302,#1313,#1349,#1360),#1371,.F.);
#1277 = FACE_BOUND('',#1278,.T.);
#1278 = EDGE_LOOP('',(#1279,#1287,#1288,#1296));
#1279 = ORIENTED_EDGE('',*,*,#1280,.F.);
#1280 = EDGE_CURVE('',#1241,#1281,#1283,.T.);
#1281 = VERTEX_POINT('',#1282);
#1282 = CARTESIAN_POINT('',(204.,207.,0.));
#1283 = LINE('',#1284,#1285);
#1284 = CARTESIAN_POINT('',(204.,87.,0.));
#1285 = VECTOR('',#1286,1.);
#1286 = DIRECTION('',(1.110223024625E-16,1.,0.));
#1287 = ORIENTED_EDGE('',*,*,#1240,.T.);
#1288 = ORIENTED_EDGE('',*,*,#1289,.T.);
#1289 = EDGE_CURVE('',#1243,#1290,#1292,.T.);
#1290 = VERTEX_POINT('',#1291);
#1291 = CARTESIAN_POINT('',(204.,207.,35.));
#1292 = LINE('',#1293,#1294);
#1293 = CARTESIAN_POINT('',(204.,87.,35.));
#1294 = VECTOR('',#1295,1.);
#1295 = DIRECTION('',(1.110223024625E-16,1.,0.));
#1296 = ORIENTED_EDGE('',*,*,#1297,.F.);
#1297 = EDGE_CURVE('',#1281,#1290,#1298,.T.);
#1298 = LINE('',#1299,#1300);
#1299 = CARTESIAN_POINT('',(204.,207.,0.));
#1300 = VECTOR('',#1301,1.);
#1301 = DIRECTION('',(0.,0.,1.));
#1302 = FACE_BOUND('',#1303,.T.);
#1303 = EDGE_LOOP('',(#1304));
#1304 = ORIENTED_EDGE('',*,*,#1305,.F.);
#1305 = EDGE_CURVE('',#1306,#1306,#1308,.T.);
#1306 = VERTEX_POINT('',#1307);
#1307 = CARTESIAN_POINT('',(204.,111.,8.6));
#1308 = CIRCLE('',#1309,1.6);
#1309 = AXIS2_PLACEMENT_3D('',#1310,#1311,#1312);
#1310 = CARTESIAN_POINT('',(204.,111.,7.));
#1311 = DIRECTION('',(-1.,1.110223024625E-16,0.));
#1312 = DIRECTION('',(0.,0.,1.));
#1313 = FACE_BOUND('',#1314,.T.);
#1314 = EDGE_LOOP('',(#1315,#1326,#1334,#1343));
#1315 = ORIENTED_EDGE('',*,*,#1316,.F.);
#1316 = EDGE_CURVE('',#1317,#1319,#1321,.T.);
#1317 = VERTEX_POINT('',#1318);
#1318 = CARTESIAN_POINT('',(204.,93.,22.75));
#1319 = VERTEX_POINT('',#1320);
#1320 = CARTESIAN_POINT('',(204.,93.,27.25));
#1321 = CIRCLE('',#1322,2.25);
#1322 = AXIS2_PLACEMENT_3D('',#1323,#1324,#1325);
#1323 = CARTESIAN_POINT('',(204.,93.,25.));
#1324 = DIRECTION('',(-1.,1.110223024625E-16,0.));
#1325 = DIRECTION('',(0.,0.,1.));
#1326 = ORIENTED_EDGE('',*,*,#1327,.T.);
#1327 = EDGE_CURVE('',#1317,#1328,#1330,.T.);
#1328 = VERTEX_POINT('',#1329);
#1329 = CARTESIAN_POINT('',(204.,101.,22.75));
#1330 = LINE('',#1331,#1332);
#1331 = CARTESIAN_POINT('',(204.,90.,22.75));
#1332 = VECTOR('',#1333,1.);
#1333 = DIRECTION('',(1.110223024625E-16,1.,0.));
#1334 = ORIENTED_EDGE('',*,*,#1335,.F.);
#1335 = EDGE_CURVE('',#1336,#1328,#1338,.T.);
#1336 = VERTEX_POINT('',#1337);
#1337 = CARTESIAN_POINT('',(204.,101.,27.25));
#1338 = CIRCLE('',#1339,2.25);
#1339 = AXIS2_PLACEMENT_3D('',#1340,#1341,#1342);
#1340 = CARTESIAN_POINT('',(204.,101.,25.));
#1341 = DIRECTION('',(-1.,1.110223024625E-16,0.));
#1342 = DIRECTION('',(0.,0.,1.));
#1343 = ORIENTED_EDGE('',*,*,#1344,.F.);
#1344 = EDGE_CURVE('',#1319,#1336,#1345,.T.);
#1345 = LINE('',#1346,#1347);
#1346 = CARTESIAN_POINT('',(204.,90.,27.25));
#1347 = VECTOR('',#1348,1.);
#1348 = DIRECTION('',(1.110223024625E-16,1.,0.));
#1349 = FACE_BOUND('',#1350,.T.);
#1350 = EDGE_LOOP('',(#1351));
#1351 = ORIENTED_EDGE('',*,*,#1352,.F.);
#1352 = EDGE_CURVE('',#1353,#1353,#1355,.T.);
#1353 = VERTEX_POINT('',#1354);
#1354 = CARTESIAN_POINT('',(204.,183.,8.6));
#1355 = CIRCLE('',#1356,1.6);
#1356 = AXIS2_PLACEMENT_3D('',#1357,#1358,#1359);
#1357 = CARTESIAN_POINT('',(204.,183.,7.));
#1358 = DIRECTION('',(-1.,1.110223024625E-16,0.));
#1359 = DIRECTION('',(0.,0.,1.));
#1360 = FACE_BOUND('',#1361,.T.);
#1361 = EDGE_LOOP('',(#1362));
#1362 = ORIENTED_EDGE('',*,*,#1363,.F.);
#1363 = EDGE_CURVE('',#1364,#1364,#1366,.T.);
#1364 = VERTEX_POINT('',#1365);
#1365 = CARTESIAN_POINT('',(204.,201.,27.2));
#1366 = CIRCLE('',#1367,2.2);
#1367 = AXIS2_PLACEMENT_3D('',#1368,#1369,#1370);
#1368 = CARTESIAN_POINT('',(204.,201.,25.));
#1369 = DIRECTION('',(-1.,1.110223024625E-16,0.));
#1370 = DIRECTION('',(0.,0.,1.));
#1371 = PLANE('',#1372);
#1372 = AXIS2_PLACEMENT_3D('',#1373,#1374,#1375);
#1373 = CARTESIAN_POINT('',(204.,87.,0.));
#1374 = DIRECTION('',(1.,-1.110223024625E-16,-0.));
#1375 = DIRECTION('',(0.,0.,-1.));
#1376 = ADVANCED_FACE('',(#1377),#1395,.T.);
#1377 = FACE_BOUND('',#1378,.F.);
#1378 = EDGE_LOOP('',(#1379,#1380,#1381,#1389));
#1379 = ORIENTED_EDGE('',*,*,#1266,.F.);
#1380 = ORIENTED_EDGE('',*,*,#1289,.T.);
#1381 = ORIENTED_EDGE('',*,*,#1382,.T.);
#1382 = EDGE_CURVE('',#1290,#1383,#1385,.T.);
#1383 = VERTEX_POINT('',#1384);
#1384 = CARTESIAN_POINT('',(207.,207.,35.));
#1385 = LINE('',#1386,#1387);
#1386 = CARTESIAN_POINT('',(204.,207.,35.));
#1387 = VECTOR('',#1388,1.);
#1388 = DIRECTION('',(1.,-1.110223024625E-16,-0.));
#1389 = ORIENTED_EDGE('',*,*,#1390,.F.);
#1390 = EDGE_CURVE('',#1259,#1383,#1391,.T.);
#1391 = LINE('',#1392,#1393);
#1392 = CARTESIAN_POINT('',(207.,87.,35.));
#1393 = VECTOR('',#1394,1.);
#1394 = DIRECTION('',(1.110223024625E-16,1.,0.));
#1395 = PLANE('',#1396);
#1396 = AXIS2_PLACEMENT_3D('',#1397,#1398,#1399);
#1397 = CARTESIAN_POINT('',(204.,87.,35.));
#1398 = DIRECTION('',(0.,0.,1.));
#1399 = DIRECTION('',(-1.110223024625E-16,-1.,0.));
#1400 = ADVANCED_FACE('',(#1401,#1419,#1430,#1466,#1477),#1488,.T.);
#1401 = FACE_BOUND('',#1402,.F.);
#1402 = EDGE_LOOP('',(#1403,#1411,#1412,#1413));
#1403 = ORIENTED_EDGE('',*,*,#1404,.F.);
#1404 = EDGE_CURVE('',#1251,#1405,#1407,.T.);
#1405 = VERTEX_POINT('',#1406);
#1406 = CARTESIAN_POINT('',(207.,207.,0.));
#1407 = LINE('',#1408,#1409);
#1408 = CARTESIAN_POINT('',(207.,87.,0.));
#1409 = VECTOR('',#1410,1.);
#1410 = DIRECTION('',(1.110223024625E-16,1.,0.));
#1411 = ORIENTED_EDGE('',*,*,#1258,.T.);
#1412 = ORIENTED_EDGE('',*,*,#1390,.T.);
#1413 = ORIENTED_EDGE('',*,*,#1414,.F.);
#1414 = EDGE_CURVE('',#1405,#1383,#1415,.T.);
#1415 = LINE('',#1416,#1417);
#1416 = CARTESIAN_POINT('',(207.,207.,0.));
#1417 = VECTOR('',#1418,1.);
#1418 = DIRECTION('',(0.,0.,1.));
#1419 = FACE_BOUND('',#1420,.F.);
#1420 = EDGE_LOOP('',(#1421));
#1421 = ORIENTED_EDGE('',*,*,#1422,.F.);
#1422 = EDGE_CURVE('',#1423,#1423,#1425,.T.);
#1423 = VERTEX_POINT('',#1424);
#1424 = CARTESIAN_POINT('',(207.,111.,8.6));
#1425 = CIRCLE('',#1426,1.6);
#1426 = AXIS2_PLACEMENT_3D('',#1427,#1428,#1429);
#1427 = CARTESIAN_POINT('',(207.,111.,7.));
#1428 = DIRECTION('',(-1.,1.110223024625E-16,0.));
#1429 = DIRECTION('',(0.,0.,1.));
#1430 = FACE_BOUND('',#1431,.F.);
#1431 = EDGE_LOOP('',(#1432,#1443,#1451,#1460));
#1432 = ORIENTED_EDGE('',*,*,#1433,.F.);
#1433 = EDGE_CURVE('',#1434,#1436,#1438,.T.);
#1434 = VERTEX_POINT('',#1435);
#1435 = CARTESIAN_POINT('',(207.,93.,22.75));
#1436 = VERTEX_POINT('',#1437);
#1437 = CARTESIAN_POINT('',(207.,93.,27.25));
#1438 = CIRCLE('',#1439,2.25);
#1439 = AXIS2_PLACEMENT_3D('',#1440,#1441,#1442);
#1440 = CARTESIAN_POINT('',(207.,93.,25.));
#1441 = DIRECTION('',(-1.,1.110223024625E-16,0.));
#1442 = DIRECTION('',(0.,0.,1.));
#1443 = ORIENTED_EDGE('',*,*,#1444,.T.);
#1444 = EDGE_CURVE('',#1434,#1445,#1447,.T.);
#1445 = VERTEX_POINT('',#1446);
#1446 = CARTESIAN_POINT('',(207.,101.,22.75));
#1447 = LINE('',#1448,#1449);
#1448 = CARTESIAN_POINT('',(207.,90.,22.75));
#1449 = VECTOR('',#1450,1.);
#1450 = DIRECTION('',(1.110223024625E-16,1.,0.));
#1451 = ORIENTED_EDGE('',*,*,#1452,.F.);
#1452 = EDGE_CURVE('',#1453,#1445,#1455,.T.);
#1453 = VERTEX_POINT('',#1454);
#1454 = CARTESIAN_POINT('',(207.,101.,27.25));
#1455 = CIRCLE('',#1456,2.25);
#1456 = AXIS2_PLACEMENT_3D('',#1457,#1458,#1459);
#1457 = CARTESIAN_POINT('',(207.,101.,25.));
#1458 = DIRECTION('',(-1.,1.110223024625E-16,0.));
#1459 = DIRECTION('',(0.,0.,1.));
#1460 = ORIENTED_EDGE('',*,*,#1461,.F.);
#1461 = EDGE_CURVE('',#1436,#1453,#1462,.T.);
#1462 = LINE('',#1463,#1464);
#1463 = CARTESIAN_POINT('',(207.,90.,27.25));
#1464 = VECTOR('',#1465,1.);
#1465 = DIRECTION('',(1.110223024625E-16,1.,0.));
#1466 = FACE_BOUND('',#1467,.F.);
#1467 = EDGE_LOOP('',(#1468));
#1468 = ORIENTED_EDGE('',*,*,#1469,.F.);
#1469 = EDGE_CURVE('',#1470,#1470,#1472,.T.);
#1470 = VERTEX_POINT('',#1471);
#1471 = CARTESIAN_POINT('',(207.,183.,8.6));
#1472 = CIRCLE('',#1473,1.6);
#1473 = AXIS2_PLACEMENT_3D('',#1474,#1475,#1476);
#1474 = CARTESIAN_POINT('',(207.,183.,7.));
#1475 = DIRECTION('',(-1.,1.110223024625E-16,0.));
#1476 = DIRECTION('',(0.,0.,1.));
#1477 = FACE_BOUND('',#1478,.F.);
#1478 = EDGE_LOOP('',(#1479));
#1479 = ORIENTED_EDGE('',*,*,#1480,.F.);
#1480 = EDGE_CURVE('',#1481,#1481,#1483,.T.);
#1481 = VERTEX_POINT('',#1482);
#1482 = CARTESIAN_POINT('',(207.,201.,27.2));
#1483 = CIRCLE('',#1484,2.2);
#1484 = AXIS2_PLACEMENT_3D('',#1485,#1486,#1487);
#1485 = CARTESIAN_POINT('',(207.,201.,25.));
#1486 = DIRECTION('',(-1.,1.110223024625E-16,0.));
#1487 = DIRECTION('',(0.,0.,1.));
#1488 = PLANE('',#1489);
#1489 = AXIS2_PLACEMENT_3D('',#1490,#1491,#1492);
#1490 = CARTESIAN_POINT('',(207.,87.,0.));
#1491 = DIRECTION('',(1.,-1.110223024625E-16,-0.));
#1492 = DIRECTION('',(0.,0.,-1.));
#1493 = ADVANCED_FACE('',(#1494),#1505,.F.);
#1494 = FACE_BOUND('',#1495,.T.);
#1495 = EDGE_LOOP('',(#1496,#1497,#1498,#1504));
#1496 = ORIENTED_EDGE('',*,*,#1250,.F.);
#1497 = ORIENTED_EDGE('',*,*,#1280,.T.);
#1498 = ORIENTED_EDGE('',*,*,#1499,.T.);
#1499 = EDGE_CURVE('',#1281,#1405,#1500,.T.);
#1500 = LINE('',#1501,#1502);
#1501 = CARTESIAN_POINT('',(204.,207.,0.));
#1502 = VECTOR('',#1503,1.);
#1503 = DIRECTION('',(1.,-1.110223024625E-16,-0.));
#1504 = ORIENTED_EDGE('',*,*,#1404,.F.);
#1505 = PLANE('',#1506);
#1506 = AXIS2_PLACEMENT_3D('',#1507,#1508,#1509);
#1507 = CARTESIAN_POINT('',(204.,87.,0.));
#1508 = DIRECTION('',(0.,0.,1.));
#1509 = DIRECTION('',(-1.110223024625E-16,-1.,0.));
#1510 = ADVANCED_FACE('',(#1511),#1517,.T.);
#1511 = FACE_BOUND('',#1512,.F.);
#1512 = EDGE_LOOP('',(#1513,#1514,#1515,#1516));
#1513 = ORIENTED_EDGE('',*,*,#1297,.F.);
#1514 = ORIENTED_EDGE('',*,*,#1499,.T.);
#1515 = ORIENTED_EDGE('',*,*,#1414,.T.);
#1516 = ORIENTED_EDGE('',*,*,#1382,.F.);
#1517 = PLANE('',#1518);
#1518 = AXIS2_PLACEMENT_3D('',#1519,#1520,#1521);
#1519 = CARTESIAN_POINT('',(204.,207.,0.));
#1520 = DIRECTION('',(1.110223024625E-16,1.,0.));
#1521 = DIRECTION('',(0.,0.,-1.));
#1522 = ADVANCED_FACE('',(#1523),#1534,.F.);
#1523 = FACE_BOUND('',#1524,.T.);
#1524 = EDGE_LOOP('',(#1525,#1526,#1532,#1533));
#1525 = ORIENTED_EDGE('',*,*,#1422,.F.);
#1526 = ORIENTED_EDGE('',*,*,#1527,.F.);
#1527 = EDGE_CURVE('',#1306,#1423,#1528,.T.);
#1528 = LINE('',#1529,#1530);
#1529 = CARTESIAN_POINT('',(203.,111.,8.6));
#1530 = VECTOR('',#1531,1.);
#1531 = DIRECTION('',(1.,-1.110223024625E-16,-0.));
#1532 = ORIENTED_EDGE('',*,*,#1305,.T.);
#1533 = ORIENTED_EDGE('',*,*,#1527,.T.);
#1534 = CYLINDRICAL_SURFACE('',#1535,1.6);
#1535 = AXIS2_PLACEMENT_3D('',#1536,#1537,#1538);
#1536 = CARTESIAN_POINT('',(203.,111.,7.));
#1537 = DIRECTION('',(1.,-1.110223024625E-16,-0.));
#1538 = DIRECTION('',(0.,0.,1.));
#1539 = ADVANCED_FACE('',(#1540),#1556,.F.);
#1540 = FACE_BOUND('',#1541,.T.);
#1541 = EDGE_LOOP('',(#1542,#1543,#1549,#1550));
#1542 = ORIENTED_EDGE('',*,*,#1316,.T.);
#1543 = ORIENTED_EDGE('',*,*,#1544,.T.);
#1544 = EDGE_CURVE('',#1319,#1436,#1545,.T.);
#1545 = LINE('',#1546,#1547);
#1546 = CARTESIAN_POINT('',(203.,93.,27.25));
#1547 = VECTOR('',#1548,1.);
#1548 = DIRECTION('',(1.,-1.110223024625E-16,-0.));
#1549 = ORIENTED_EDGE('',*,*,#1433,.F.);
#1550 = ORIENTED_EDGE('',*,*,#1551,.F.);
#1551 = EDGE_CURVE('',#1317,#1434,#1552,.T.);
#1552 = LINE('',#1553,#1554);
#1553 = CARTESIAN_POINT('',(203.,93.,22.75));
#1554 = VECTOR('',#1555,1.);
#1555 = DIRECTION('',(1.,-1.110223024625E-16,-0.));
#1556 = CYLINDRICAL_SURFACE('',#1557,2.25);
#1557 = AXIS2_PLACEMENT_3D('',#1558,#1559,#1560);
#1558 = CARTESIAN_POINT('',(203.,93.,25.));
#1559 = DIRECTION('',(1.,-1.110223024625E-16,-0.));
#1560 = DIRECTION('',(0.,0.,1.));
#1561 = ADVANCED_FACE('',(#1562),#1573,.T.);
#1562 = FACE_BOUND('',#1563,.F.);
#1563 = EDGE_LOOP('',(#1564,#1565,#1566,#1572));
#1564 = ORIENTED_EDGE('',*,*,#1551,.F.);
#1565 = ORIENTED_EDGE('',*,*,#1327,.T.);
#1566 = ORIENTED_EDGE('',*,*,#1567,.T.);
#1567 = EDGE_CURVE('',#1328,#1445,#1568,.T.);
#1568 = LINE('',#1569,#1570);
#1569 = CARTESIAN_POINT('',(203.,101.,22.75));
#1570 = VECTOR('',#1571,1.);
#1571 = DIRECTION('',(1.,-1.110223024625E-16,-0.));
#1572 = ORIENTED_EDGE('',*,*,#1444,.F.);
#1573 = PLANE('',#1574);
#1574 = AXIS2_PLACEMENT_3D('',#1575,#1576,#1577);
#1575 = CARTESIAN_POINT('',(203.,93.,22.75));
#1576 = DIRECTION('',(0.,0.,1.));
#1577 = DIRECTION('',(-1.110223024625E-16,-1.,0.));
#1578 = ADVANCED_FACE('',(#1579),#1590,.F.);
#1579 = FACE_BOUND('',#1580,.T.);
#1580 = EDGE_LOOP('',(#1581,#1582,#1583,#1589));
#1581 = ORIENTED_EDGE('',*,*,#1544,.F.);
#1582 = ORIENTED_EDGE('',*,*,#1344,.T.);
#1583 = ORIENTED_EDGE('',*,*,#1584,.T.);
#1584 = EDGE_CURVE('',#1336,#1453,#1585,.T.);
#1585 = LINE('',#1586,#1587);
#1586 = CARTESIAN_POINT('',(203.,101.,27.25));
#1587 = VECTOR('',#1588,1.);
#1588 = DIRECTION('',(1.,-1.110223024625E-16,-0.));
#1589 = ORIENTED_EDGE('',*,*,#1461,.F.);
#1590 = PLANE('',#1591);
#1591 = AXIS2_PLACEMENT_3D('',#1592,#1593,#1594);
#1592 = CARTESIAN_POINT('',(203.,93.,27.25));
#1593 = DIRECTION('',(0.,0.,1.));
#1594 = DIRECTION('',(-1.110223024625E-16,-1.,0.));
#1595 = ADVANCED_FACE('',(#1596),#1602,.F.);
#1596 = FACE_BOUND('',#1597,.T.);
#1597 = EDGE_LOOP('',(#1598,#1599,#1600,#1601));
#1598 = ORIENTED_EDGE('',*,*,#1452,.F.);
#1599 = ORIENTED_EDGE('',*,*,#1584,.F.);
#1600 = ORIENTED_EDGE('',*,*,#1335,.T.);
#1601 = ORIENTED_EDGE('',*,*,#1567,.T.);
#1602 = CYLINDRICAL_SURFACE('',#1603,2.25);
#1603 = AXIS2_PLACEMENT_3D('',#1604,#1605,#1606);
#1604 = CARTESIAN_POINT('',(203.,101.,25.));
#1605 = DIRECTION('',(1.,-1.110223024625E-16,-0.));
#1606 = DIRECTION('',(0.,0.,1.));
#1607 = ADVANCED_FACE('',(#1608),#1619,.F.);
#1608 = FACE_BOUND('',#1609,.T.);
#1609 = EDGE_LOOP('',(#1610,#1611,#1617,#1618));
#1610 = ORIENTED_EDGE('',*,*,#1469,.F.);
#1611 = ORIENTED_EDGE('',*,*,#1612,.F.);
#1612 = EDGE_CURVE('',#1353,#1470,#1613,.T.);
#1613 = LINE('',#1614,#1615);
#1614 = CARTESIAN_POINT('',(203.,183.,8.6));
#1615 = VECTOR('',#1616,1.);
#1616 = DIRECTION('',(1.,-1.110223024625E-16,-0.));
#1617 = ORIENTED_EDGE('',*,*,#1352,.T.);
#1618 = ORIENTED_EDGE('',*,*,#1612,.T.);
#1619 = CYLINDRICAL_SURFACE('',#1620,1.6);
#1620 = AXIS2_PLACEMENT_3D('',#1621,#1622,#1623);
#1621 = CARTESIAN_POINT('',(203.,183.,7.));
#1622 = DIRECTION('',(1.,-1.110223024625E-16,-0.));
#1623 = DIRECTION('',(0.,0.,1.));
#1624 = ADVANCED_FACE('',(#1625),#1636,.F.);
#1625 = FACE_BOUND('',#1626,.T.);
#1626 = EDGE_LOOP('',(#1627,#1628,#1634,#1635));
#1627 = ORIENTED_EDGE('',*,*,#1480,.F.);
#1628 = ORIENTED_EDGE('',*,*,#1629,.F.);
#1629 = EDGE_CURVE('',#1364,#1481,#1630,.T.);
#1630 = LINE('',#1631,#1632);
#1631 = CARTESIAN_POINT('',(203.,201.,27.2));
#1632 = VECTOR('',#1633,1.);
#1633 = DIRECTION('',(1.,-1.110223024625E-16,-0.));
#1634 = ORIENTED_EDGE('',*,*,#1363,.T.);
#1635 = ORIENTED_EDGE('',*,*,#1629,.T.);
#1636 = CYLINDRICAL_SURFACE('',#1637,2.2);
#1637 = AXIS2_PLACEMENT_3D('',#1638,#1639,#1640);
#1638 = CARTESIAN_POINT('',(203.,201.,25.));
#1639 = DIRECTION('',(1.,-1.110223024625E-16,-0.));
#1640 = DIRECTION('',(0.,0.,1.));
#1641 = ( GEOMETRIC_REPRESENTATION_CONTEXT(3) 
GLOBAL_UNCERTAINTY_ASSIGNED_CONTEXT((#1645)) 
GLOBAL_UNIT_ASSIGNED_CONTEXT((#1642,#1643,#1644)) REPRESENTATION_CONTEXT
('Context #1','3D Context with UNIT and UNCERTAINTY') );
#1642 = ( LENGTH_UNIT() NAMED_UNIT(*) SI_UNIT(.MILLI.,.METRE.) );
#1643 = ( NAMED_UNIT(*) PLANE_ANGLE_UNIT() SI_UNIT($,.RADIAN.) );
#1644 = ( NAMED_UNIT(*) SI_UNIT($,.STERADIAN.) SOLID_ANGLE_UNIT() );
#1645 = UNCERTAINTY_MEASURE_WITH_UNIT(LENGTH_MEASURE(1.E-07),#1642,
  'distance_accuracy_value','confusion accuracy');
#1646 = PRODUCT_RELATED_PRODUCT_CATEGORY('part',$,(#7));
ENDSEC;
END-ISO-10303-21;
