ISO-10303-21;
HEADER;
FILE_DESCRIPTION(('FreeCAD Model'),'2;1');
FILE_NAME('Open CASCADE Shape Model','2026-08-09T02:21:39',('FreeCAD'),(
    'FreeCAD'),'Open CASCADE STEP processor 7.8','FreeCAD','Unknown');
FILE_SCHEMA(('AUTOMOTIVE_DESIGN { 1 0 10303 214 1 1 1 1 }'));
ENDSEC;
DATA;
#1 = APPLICATION_PROTOCOL_DEFINITION('international standard',
  'automotive_design',2000,#2);
#2 = APPLICATION_CONTEXT(
  'core data for automotive mechanical design processes');
#3 = SHAPE_DEFINITION_REPRESENTATION(#4,#10);
#4 = PRODUCT_DEFINITION_SHAPE('','',#5);
#5 = PRODUCT_DEFINITION('design','',#6,#9);
#6 = PRODUCT_DEFINITION_FORMATION('','',#7);
#7 = PRODUCT('Open CASCADE STEP translator 7.8 26',
  'Open CASCADE STEP translator 7.8 26','',(#8));
#8 = PRODUCT_CONTEXT('',#2,'mechanical');
#9 = PRODUCT_DEFINITION_CONTEXT('part definition',#2,'design');
#10 = ADVANCED_BREP_SHAPE_REPRESENTATION('',(#11,#15),#609);
#11 = AXIS2_PLACEMENT_3D('',#12,#13,#14);
#12 = CARTESIAN_POINT('',(0.,0.,0.));
#13 = DIRECTION('',(0.,0.,1.));
#14 = DIRECTION('',(1.,0.,-0.));
#15 = MANIFOLD_SOLID_BREP('',#16);
#16 = CLOSED_SHELL('',(#17,#59,#90,#122,#153,#185,#209,#242,#275,#299,
    #321,#337,#362,#395,#411,#427,#459,#491,#522,#533,#544,#575,#586,
    #597));
#17 = ADVANCED_FACE('',(#18),#54,.T.);
#18 = FACE_BOUND('',#19,.T.);
#19 = EDGE_LOOP('',(#20,#30,#39,#47));
#20 = ORIENTED_EDGE('',*,*,#21,.T.);
#21 = EDGE_CURVE('',#22,#24,#26,.T.);
#22 = VERTEX_POINT('',#23);
#23 = CARTESIAN_POINT('',(176.,77.5,31.));
#24 = VERTEX_POINT('',#25);
#25 = CARTESIAN_POINT('',(126.,77.5,31.));
#26 = LINE('',#27,#28);
#27 = CARTESIAN_POINT('',(176.,77.5,31.));
#28 = VECTOR('',#29,1.);
#29 = DIRECTION('',(-1.,1.110223024625E-16,0.));
#30 = ORIENTED_EDGE('',*,*,#31,.F.);
#31 = EDGE_CURVE('',#32,#24,#34,.T.);
#32 = VERTEX_POINT('',#33);
#33 = CARTESIAN_POINT('',(126.,77.5,19.));
#34 = CIRCLE('',#35,6.);
#35 = AXIS2_PLACEMENT_3D('',#36,#37,#38);
#36 = CARTESIAN_POINT('',(126.,77.5,25.));
#37 = DIRECTION('',(-1.,1.110223024625E-16,0.));
#38 = DIRECTION('',(0.,0.,1.));
#39 = ORIENTED_EDGE('',*,*,#40,.F.);
#40 = EDGE_CURVE('',#41,#32,#43,.T.);
#41 = VERTEX_POINT('',#42);
#42 = CARTESIAN_POINT('',(176.,77.5,19.));
#43 = LINE('',#44,#45);
#44 = CARTESIAN_POINT('',(176.,77.5,19.));
#45 = VECTOR('',#46,1.);
#46 = DIRECTION('',(-1.,1.110223024625E-16,0.));
#47 = ORIENTED_EDGE('',*,*,#48,.T.);
#48 = EDGE_CURVE('',#41,#22,#49,.T.);
#49 = CIRCLE('',#50,6.);
#50 = AXIS2_PLACEMENT_3D('',#51,#52,#53);
#51 = CARTESIAN_POINT('',(176.,77.5,25.));
#52 = DIRECTION('',(-1.,1.110223024625E-16,0.));
#53 = DIRECTION('',(0.,0.,1.));
#54 = CYLINDRICAL_SURFACE('',#55,6.);
#55 = AXIS2_PLACEMENT_3D('',#56,#57,#58);
#56 = CARTESIAN_POINT('',(176.,77.5,25.));
#57 = DIRECTION('',(-1.,1.110223024625E-16,0.));
#58 = DIRECTION('',(0.,0.,1.));
#59 = ADVANCED_FACE('',(#60),#85,.F.);
#60 = FACE_BOUND('',#61,.F.);
#61 = EDGE_LOOP('',(#62,#63,#71,#79));
#62 = ORIENTED_EDGE('',*,*,#21,.T.);
#63 = ORIENTED_EDGE('',*,*,#64,.T.);
#64 = EDGE_CURVE('',#24,#65,#67,.T.);
#65 = VERTEX_POINT('',#66);
#66 = CARTESIAN_POINT('',(126.,185.5,31.));
#67 = LINE('',#68,#69);
#68 = CARTESIAN_POINT('',(126.,77.5,31.));
#69 = VECTOR('',#70,1.);
#70 = DIRECTION('',(1.110223024625E-16,1.,0.));
#71 = ORIENTED_EDGE('',*,*,#72,.F.);
#72 = EDGE_CURVE('',#73,#65,#75,.T.);
#73 = VERTEX_POINT('',#74);
#74 = CARTESIAN_POINT('',(176.,185.5,31.));
#75 = LINE('',#76,#77);
#76 = CARTESIAN_POINT('',(176.,185.5,31.));
#77 = VECTOR('',#78,1.);
#78 = DIRECTION('',(-1.,1.110223024625E-16,0.));
#79 = ORIENTED_EDGE('',*,*,#80,.F.);
#80 = EDGE_CURVE('',#22,#73,#81,.T.);
#81 = LINE('',#82,#83);
#82 = CARTESIAN_POINT('',(176.,77.5,31.));
#83 = VECTOR('',#84,1.);
#84 = DIRECTION('',(1.110223024625E-16,1.,0.));
#85 = PLANE('',#86);
#86 = AXIS2_PLACEMENT_3D('',#87,#88,#89);
#87 = CARTESIAN_POINT('',(176.,77.5,31.));
#88 = DIRECTION('',(0.,0.,-1.));
#89 = DIRECTION('',(1.110223024625E-16,1.,0.));
#90 = ADVANCED_FACE('',(#91),#117,.F.);
#91 = FACE_BOUND('',#92,.F.);
#92 = EDGE_LOOP('',(#93,#101,#102,#110));
#93 = ORIENTED_EDGE('',*,*,#94,.F.);
#94 = EDGE_CURVE('',#41,#95,#97,.T.);
#95 = VERTEX_POINT('',#96);
#96 = CARTESIAN_POINT('',(176.,77.5,20.));
#97 = LINE('',#98,#99);
#98 = CARTESIAN_POINT('',(176.,77.5,19.));
#99 = VECTOR('',#100,1.);
#100 = DIRECTION('',(0.,0.,1.));
#101 = ORIENTED_EDGE('',*,*,#48,.T.);
#102 = ORIENTED_EDGE('',*,*,#103,.F.);
#103 = EDGE_CURVE('',#104,#22,#106,.T.);
#104 = VERTEX_POINT('',#105);
#105 = CARTESIAN_POINT('',(176.,77.5,30.));
#106 = LINE('',#107,#108);
#107 = CARTESIAN_POINT('',(176.,77.5,19.));
#108 = VECTOR('',#109,1.);
#109 = DIRECTION('',(0.,0.,1.));
#110 = ORIENTED_EDGE('',*,*,#111,.F.);
#111 = EDGE_CURVE('',#95,#104,#112,.T.);
#112 = CIRCLE('',#113,5.);
#113 = AXIS2_PLACEMENT_3D('',#114,#115,#116);
#114 = CARTESIAN_POINT('',(176.,77.5,25.));
#115 = DIRECTION('',(-1.,1.110223024625E-16,0.));
#116 = DIRECTION('',(0.,0.,1.));
#117 = PLANE('',#118);
#118 = AXIS2_PLACEMENT_3D('',#119,#120,#121);
#119 = CARTESIAN_POINT('',(176.,77.5,25.));
#120 = DIRECTION('',(-1.,1.110223024625E-16,0.));
#121 = DIRECTION('',(0.,0.,1.));
#122 = ADVANCED_FACE('',(#123),#148,.F.);
#123 = FACE_BOUND('',#124,.F.);
#124 = EDGE_LOOP('',(#125,#135,#141,#142));
#125 = ORIENTED_EDGE('',*,*,#126,.T.);
#126 = EDGE_CURVE('',#127,#129,#131,.T.);
#127 = VERTEX_POINT('',#128);
#128 = CARTESIAN_POINT('',(176.,185.5,19.));
#129 = VERTEX_POINT('',#130);
#130 = CARTESIAN_POINT('',(126.,185.5,19.));
#131 = LINE('',#132,#133);
#132 = CARTESIAN_POINT('',(176.,185.5,19.));
#133 = VECTOR('',#134,1.);
#134 = DIRECTION('',(-1.,1.110223024625E-16,0.));
#135 = ORIENTED_EDGE('',*,*,#136,.T.);
#136 = EDGE_CURVE('',#129,#32,#137,.T.);
#137 = LINE('',#138,#139);
#138 = CARTESIAN_POINT('',(126.,185.5,19.));
#139 = VECTOR('',#140,1.);
#140 = DIRECTION('',(-1.110223024625E-16,-1.,0.));
#141 = ORIENTED_EDGE('',*,*,#40,.F.);
#142 = ORIENTED_EDGE('',*,*,#143,.F.);
#143 = EDGE_CURVE('',#127,#41,#144,.T.);
#144 = LINE('',#145,#146);
#145 = CARTESIAN_POINT('',(176.,185.5,19.));
#146 = VECTOR('',#147,1.);
#147 = DIRECTION('',(-1.110223024625E-16,-1.,0.));
#148 = PLANE('',#149);
#149 = AXIS2_PLACEMENT_3D('',#150,#151,#152);
#150 = CARTESIAN_POINT('',(176.,185.5,19.));
#151 = DIRECTION('',(0.,0.,1.));
#152 = DIRECTION('',(-1.110223024625E-16,-1.,0.));
#153 = ADVANCED_FACE('',(#154),#180,.T.);
#154 = FACE_BOUND('',#155,.T.);
#155 = EDGE_LOOP('',(#156,#164,#165,#173));
#156 = ORIENTED_EDGE('',*,*,#157,.F.);
#157 = EDGE_CURVE('',#32,#158,#160,.T.);
#158 = VERTEX_POINT('',#159);
#159 = CARTESIAN_POINT('',(126.,77.5,20.));
#160 = LINE('',#161,#162);
#161 = CARTESIAN_POINT('',(126.,77.5,19.));
#162 = VECTOR('',#163,1.);
#163 = DIRECTION('',(0.,0.,1.));
#164 = ORIENTED_EDGE('',*,*,#31,.T.);
#165 = ORIENTED_EDGE('',*,*,#166,.F.);
#166 = EDGE_CURVE('',#167,#24,#169,.T.);
#167 = VERTEX_POINT('',#168);
#168 = CARTESIAN_POINT('',(126.,77.5,30.));
#169 = LINE('',#170,#171);
#170 = CARTESIAN_POINT('',(126.,77.5,19.));
#171 = VECTOR('',#172,1.);
#172 = DIRECTION('',(0.,0.,1.));
#173 = ORIENTED_EDGE('',*,*,#174,.F.);
#174 = EDGE_CURVE('',#158,#167,#175,.T.);
#175 = CIRCLE('',#176,5.);
#176 = AXIS2_PLACEMENT_3D('',#177,#178,#179);
#177 = CARTESIAN_POINT('',(126.,77.5,25.));
#178 = DIRECTION('',(-1.,1.110223024625E-16,0.));
#179 = DIRECTION('',(0.,0.,1.));
#180 = PLANE('',#181);
#181 = AXIS2_PLACEMENT_3D('',#182,#183,#184);
#182 = CARTESIAN_POINT('',(126.,77.5,25.));
#183 = DIRECTION('',(-1.,1.110223024625E-16,0.));
#184 = DIRECTION('',(0.,0.,1.));
#185 = ADVANCED_FACE('',(#186),#204,.T.);
#186 = FACE_BOUND('',#187,.T.);
#187 = EDGE_LOOP('',(#188,#195,#196,#203));
#188 = ORIENTED_EDGE('',*,*,#189,.F.);
#189 = EDGE_CURVE('',#65,#129,#190,.T.);
#190 = CIRCLE('',#191,6.);
#191 = AXIS2_PLACEMENT_3D('',#192,#193,#194);
#192 = CARTESIAN_POINT('',(126.,185.5,25.));
#193 = DIRECTION('',(-1.,1.110223024625E-16,0.));
#194 = DIRECTION('',(0.,0.,1.));
#195 = ORIENTED_EDGE('',*,*,#72,.F.);
#196 = ORIENTED_EDGE('',*,*,#197,.T.);
#197 = EDGE_CURVE('',#73,#127,#198,.T.);
#198 = CIRCLE('',#199,6.);
#199 = AXIS2_PLACEMENT_3D('',#200,#201,#202);
#200 = CARTESIAN_POINT('',(176.,185.5,25.));
#201 = DIRECTION('',(-1.,1.110223024625E-16,0.));
#202 = DIRECTION('',(0.,0.,1.));
#203 = ORIENTED_EDGE('',*,*,#126,.T.);
#204 = CYLINDRICAL_SURFACE('',#205,6.);
#205 = AXIS2_PLACEMENT_3D('',#206,#207,#208);
#206 = CARTESIAN_POINT('',(176.,185.5,25.));
#207 = DIRECTION('',(-1.,1.110223024625E-16,0.));
#208 = DIRECTION('',(0.,0.,1.));
#209 = ADVANCED_FACE('',(#210),#237,.F.);
#210 = FACE_BOUND('',#211,.F.);
#211 = EDGE_LOOP('',(#212,#221,#222,#231));
#212 = ORIENTED_EDGE('',*,*,#213,.F.);
#213 = EDGE_CURVE('',#22,#214,#216,.T.);
#214 = VERTEX_POINT('',#215);
#215 = CARTESIAN_POINT('',(176.,80.816624790355,30.));
#216 = CIRCLE('',#217,6.);
#217 = AXIS2_PLACEMENT_3D('',#218,#219,#220);
#218 = CARTESIAN_POINT('',(176.,77.5,25.));
#219 = DIRECTION('',(-1.,1.110223024625E-16,0.));
#220 = DIRECTION('',(0.,0.,1.));
#221 = ORIENTED_EDGE('',*,*,#80,.T.);
#222 = ORIENTED_EDGE('',*,*,#223,.F.);
#223 = EDGE_CURVE('',#224,#73,#226,.T.);
#224 = VERTEX_POINT('',#225);
#225 = CARTESIAN_POINT('',(176.,182.18337520964,30.));
#226 = CIRCLE('',#227,6.);
#227 = AXIS2_PLACEMENT_3D('',#228,#229,#230);
#228 = CARTESIAN_POINT('',(176.,185.5,25.));
#229 = DIRECTION('',(-1.,1.110223024625E-16,0.));
#230 = DIRECTION('',(0.,0.,1.));
#231 = ORIENTED_EDGE('',*,*,#232,.F.);
#232 = EDGE_CURVE('',#214,#224,#233,.T.);
#233 = LINE('',#234,#235);
#234 = CARTESIAN_POINT('',(176.,77.5,30.));
#235 = VECTOR('',#236,1.);
#236 = DIRECTION('',(1.110223024625E-16,1.,0.));
#237 = PLANE('',#238);
#238 = AXIS2_PLACEMENT_3D('',#239,#240,#241);
#239 = CARTESIAN_POINT('',(176.,131.5,25.));
#240 = DIRECTION('',(-1.,1.110223024625E-16,0.));
#241 = DIRECTION('',(0.,0.,1.));
#242 = ADVANCED_FACE('',(#243),#270,.T.);
#243 = FACE_BOUND('',#244,.T.);
#244 = EDGE_LOOP('',(#245,#254,#255,#264));
#245 = ORIENTED_EDGE('',*,*,#246,.F.);
#246 = EDGE_CURVE('',#24,#247,#249,.T.);
#247 = VERTEX_POINT('',#248);
#248 = CARTESIAN_POINT('',(126.,80.816624790355,30.));
#249 = CIRCLE('',#250,6.);
#250 = AXIS2_PLACEMENT_3D('',#251,#252,#253);
#251 = CARTESIAN_POINT('',(126.,77.5,25.));
#252 = DIRECTION('',(-1.,1.110223024625E-16,0.));
#253 = DIRECTION('',(0.,0.,1.));
#254 = ORIENTED_EDGE('',*,*,#64,.T.);
#255 = ORIENTED_EDGE('',*,*,#256,.F.);
#256 = EDGE_CURVE('',#257,#65,#259,.T.);
#257 = VERTEX_POINT('',#258);
#258 = CARTESIAN_POINT('',(126.,182.18337520964,30.));
#259 = CIRCLE('',#260,6.);
#260 = AXIS2_PLACEMENT_3D('',#261,#262,#263);
#261 = CARTESIAN_POINT('',(126.,185.5,25.));
#262 = DIRECTION('',(-1.,1.110223024625E-16,0.));
#263 = DIRECTION('',(0.,0.,1.));
#264 = ORIENTED_EDGE('',*,*,#265,.F.);
#265 = EDGE_CURVE('',#247,#257,#266,.T.);
#266 = LINE('',#267,#268);
#267 = CARTESIAN_POINT('',(126.,77.5,30.));
#268 = VECTOR('',#269,1.);
#269 = DIRECTION('',(1.110223024625E-16,1.,0.));
#270 = PLANE('',#271);
#271 = AXIS2_PLACEMENT_3D('',#272,#273,#274);
#272 = CARTESIAN_POINT('',(126.,131.5,25.));
#273 = DIRECTION('',(-1.,1.110223024625E-16,0.));
#274 = DIRECTION('',(0.,0.,1.));
#275 = ADVANCED_FACE('',(#276),#294,.F.);
#276 = FACE_BOUND('',#277,.F.);
#277 = EDGE_LOOP('',(#278,#287,#288));
#278 = ORIENTED_EDGE('',*,*,#279,.T.);
#279 = EDGE_CURVE('',#280,#41,#282,.T.);
#280 = VERTEX_POINT('',#281);
#281 = CARTESIAN_POINT('',(176.,80.816624790355,20.));
#282 = CIRCLE('',#283,6.);
#283 = AXIS2_PLACEMENT_3D('',#284,#285,#286);
#284 = CARTESIAN_POINT('',(176.,77.5,25.));
#285 = DIRECTION('',(-1.,1.110223024625E-16,0.));
#286 = DIRECTION('',(0.,0.,1.));
#287 = ORIENTED_EDGE('',*,*,#94,.T.);
#288 = ORIENTED_EDGE('',*,*,#289,.F.);
#289 = EDGE_CURVE('',#280,#95,#290,.T.);
#290 = LINE('',#291,#292);
#291 = CARTESIAN_POINT('',(176.,185.5,20.));
#292 = VECTOR('',#293,1.);
#293 = DIRECTION('',(-1.110223024625E-16,-1.,0.));
#294 = PLANE('',#295);
#295 = AXIS2_PLACEMENT_3D('',#296,#297,#298);
#296 = CARTESIAN_POINT('',(176.,77.5,25.));
#297 = DIRECTION('',(-1.,1.110223024625E-16,0.));
#298 = DIRECTION('',(0.,0.,1.));
#299 = ADVANCED_FACE('',(#300),#316,.F.);
#300 = FACE_BOUND('',#301,.F.);
#301 = EDGE_LOOP('',(#302,#308,#309,#315));
#302 = ORIENTED_EDGE('',*,*,#303,.T.);
#303 = EDGE_CURVE('',#104,#167,#304,.T.);
#304 = LINE('',#305,#306);
#305 = CARTESIAN_POINT('',(176.,77.5,30.));
#306 = VECTOR('',#307,1.);
#307 = DIRECTION('',(-1.,1.110223024625E-16,0.));
#308 = ORIENTED_EDGE('',*,*,#174,.F.);
#309 = ORIENTED_EDGE('',*,*,#310,.F.);
#310 = EDGE_CURVE('',#95,#158,#311,.T.);
#311 = LINE('',#312,#313);
#312 = CARTESIAN_POINT('',(176.,77.5,20.));
#313 = VECTOR('',#314,1.);
#314 = DIRECTION('',(-1.,1.110223024625E-16,0.));
#315 = ORIENTED_EDGE('',*,*,#111,.T.);
#316 = CYLINDRICAL_SURFACE('',#317,5.);
#317 = AXIS2_PLACEMENT_3D('',#318,#319,#320);
#318 = CARTESIAN_POINT('',(176.,77.5,25.));
#319 = DIRECTION('',(-1.,1.110223024625E-16,0.));
#320 = DIRECTION('',(0.,0.,1.));
#321 = ADVANCED_FACE('',(#322),#332,.F.);
#322 = FACE_BOUND('',#323,.F.);
#323 = EDGE_LOOP('',(#324,#330,#331));
#324 = ORIENTED_EDGE('',*,*,#325,.F.);
#325 = EDGE_CURVE('',#104,#214,#326,.T.);
#326 = LINE('',#327,#328);
#327 = CARTESIAN_POINT('',(176.,77.5,30.));
#328 = VECTOR('',#329,1.);
#329 = DIRECTION('',(1.110223024625E-16,1.,0.));
#330 = ORIENTED_EDGE('',*,*,#103,.T.);
#331 = ORIENTED_EDGE('',*,*,#213,.T.);
#332 = PLANE('',#333);
#333 = AXIS2_PLACEMENT_3D('',#334,#335,#336);
#334 = CARTESIAN_POINT('',(176.,77.5,25.));
#335 = DIRECTION('',(-1.,1.110223024625E-16,0.));
#336 = DIRECTION('',(0.,0.,1.));
#337 = ADVANCED_FACE('',(#338),#357,.F.);
#338 = FACE_BOUND('',#339,.F.);
#339 = EDGE_LOOP('',(#340,#341,#349,#356));
#340 = ORIENTED_EDGE('',*,*,#279,.F.);
#341 = ORIENTED_EDGE('',*,*,#342,.F.);
#342 = EDGE_CURVE('',#343,#280,#345,.T.);
#343 = VERTEX_POINT('',#344);
#344 = CARTESIAN_POINT('',(176.,182.18337520964,20.));
#345 = LINE('',#346,#347);
#346 = CARTESIAN_POINT('',(176.,185.5,20.));
#347 = VECTOR('',#348,1.);
#348 = DIRECTION('',(-1.110223024625E-16,-1.,0.));
#349 = ORIENTED_EDGE('',*,*,#350,.F.);
#350 = EDGE_CURVE('',#127,#343,#351,.T.);
#351 = CIRCLE('',#352,6.);
#352 = AXIS2_PLACEMENT_3D('',#353,#354,#355);
#353 = CARTESIAN_POINT('',(176.,185.5,25.));
#354 = DIRECTION('',(-1.,1.110223024625E-16,0.));
#355 = DIRECTION('',(0.,0.,1.));
#356 = ORIENTED_EDGE('',*,*,#143,.T.);
#357 = PLANE('',#358);
#358 = AXIS2_PLACEMENT_3D('',#359,#360,#361);
#359 = CARTESIAN_POINT('',(176.,131.5,25.));
#360 = DIRECTION('',(-1.,1.110223024625E-16,0.));
#361 = DIRECTION('',(0.,0.,1.));
#362 = ADVANCED_FACE('',(#363),#390,.T.);
#363 = FACE_BOUND('',#364,.T.);
#364 = EDGE_LOOP('',(#365,#374,#382,#389));
#365 = ORIENTED_EDGE('',*,*,#366,.F.);
#366 = EDGE_CURVE('',#367,#32,#369,.T.);
#367 = VERTEX_POINT('',#368);
#368 = CARTESIAN_POINT('',(126.,80.816624790355,20.));
#369 = CIRCLE('',#370,6.);
#370 = AXIS2_PLACEMENT_3D('',#371,#372,#373);
#371 = CARTESIAN_POINT('',(126.,77.5,25.));
#372 = DIRECTION('',(-1.,1.110223024625E-16,0.));
#373 = DIRECTION('',(0.,0.,1.));
#374 = ORIENTED_EDGE('',*,*,#375,.F.);
#375 = EDGE_CURVE('',#376,#367,#378,.T.);
#376 = VERTEX_POINT('',#377);
#377 = CARTESIAN_POINT('',(126.,182.18337520964,20.));
#378 = LINE('',#379,#380);
#379 = CARTESIAN_POINT('',(126.,185.5,20.));
#380 = VECTOR('',#381,1.);
#381 = DIRECTION('',(-1.110223024625E-16,-1.,0.));
#382 = ORIENTED_EDGE('',*,*,#383,.F.);
#383 = EDGE_CURVE('',#129,#376,#384,.T.);
#384 = CIRCLE('',#385,6.);
#385 = AXIS2_PLACEMENT_3D('',#386,#387,#388);
#386 = CARTESIAN_POINT('',(126.,185.5,25.));
#387 = DIRECTION('',(-1.,1.110223024625E-16,0.));
#388 = DIRECTION('',(0.,0.,1.));
#389 = ORIENTED_EDGE('',*,*,#136,.T.);
#390 = PLANE('',#391);
#391 = AXIS2_PLACEMENT_3D('',#392,#393,#394);
#392 = CARTESIAN_POINT('',(126.,131.5,25.));
#393 = DIRECTION('',(-1.,1.110223024625E-16,0.));
#394 = DIRECTION('',(0.,0.,1.));
#395 = ADVANCED_FACE('',(#396),#406,.T.);
#396 = FACE_BOUND('',#397,.T.);
#397 = EDGE_LOOP('',(#398,#399,#400));
#398 = ORIENTED_EDGE('',*,*,#366,.T.);
#399 = ORIENTED_EDGE('',*,*,#157,.T.);
#400 = ORIENTED_EDGE('',*,*,#401,.F.);
#401 = EDGE_CURVE('',#367,#158,#402,.T.);
#402 = LINE('',#403,#404);
#403 = CARTESIAN_POINT('',(126.,185.5,20.));
#404 = VECTOR('',#405,1.);
#405 = DIRECTION('',(-1.110223024625E-16,-1.,0.));
#406 = PLANE('',#407);
#407 = AXIS2_PLACEMENT_3D('',#408,#409,#410);
#408 = CARTESIAN_POINT('',(126.,77.5,25.));
#409 = DIRECTION('',(-1.,1.110223024625E-16,0.));
#410 = DIRECTION('',(0.,0.,1.));
#411 = ADVANCED_FACE('',(#412),#422,.T.);
#412 = FACE_BOUND('',#413,.T.);
#413 = EDGE_LOOP('',(#414,#420,#421));
#414 = ORIENTED_EDGE('',*,*,#415,.F.);
#415 = EDGE_CURVE('',#167,#247,#416,.T.);
#416 = LINE('',#417,#418);
#417 = CARTESIAN_POINT('',(126.,77.5,30.));
#418 = VECTOR('',#419,1.);
#419 = DIRECTION('',(1.110223024625E-16,1.,0.));
#420 = ORIENTED_EDGE('',*,*,#166,.T.);
#421 = ORIENTED_EDGE('',*,*,#246,.T.);
#422 = PLANE('',#423);
#423 = AXIS2_PLACEMENT_3D('',#424,#425,#426);
#424 = CARTESIAN_POINT('',(126.,77.5,25.));
#425 = DIRECTION('',(-1.,1.110223024625E-16,0.));
#426 = DIRECTION('',(0.,0.,1.));
#427 = ADVANCED_FACE('',(#428),#454,.T.);
#428 = FACE_BOUND('',#429,.T.);
#429 = EDGE_LOOP('',(#430,#438,#439,#447));
#430 = ORIENTED_EDGE('',*,*,#431,.F.);
#431 = EDGE_CURVE('',#65,#432,#434,.T.);
#432 = VERTEX_POINT('',#433);
#433 = CARTESIAN_POINT('',(126.,185.5,30.));
#434 = LINE('',#435,#436);
#435 = CARTESIAN_POINT('',(126.,185.5,31.));
#436 = VECTOR('',#437,1.);
#437 = DIRECTION('',(0.,0.,-1.));
#438 = ORIENTED_EDGE('',*,*,#189,.T.);
#439 = ORIENTED_EDGE('',*,*,#440,.F.);
#440 = EDGE_CURVE('',#441,#129,#443,.T.);
#441 = VERTEX_POINT('',#442);
#442 = CARTESIAN_POINT('',(126.,185.5,20.));
#443 = LINE('',#444,#445);
#444 = CARTESIAN_POINT('',(126.,185.5,31.));
#445 = VECTOR('',#446,1.);
#446 = DIRECTION('',(0.,0.,-1.));
#447 = ORIENTED_EDGE('',*,*,#448,.F.);
#448 = EDGE_CURVE('',#432,#441,#449,.T.);
#449 = CIRCLE('',#450,5.);
#450 = AXIS2_PLACEMENT_3D('',#451,#452,#453);
#451 = CARTESIAN_POINT('',(126.,185.5,25.));
#452 = DIRECTION('',(-1.,1.110223024625E-16,0.));
#453 = DIRECTION('',(0.,0.,1.));
#454 = PLANE('',#455);
#455 = AXIS2_PLACEMENT_3D('',#456,#457,#458);
#456 = CARTESIAN_POINT('',(126.,185.5,25.));
#457 = DIRECTION('',(-1.,1.110223024625E-16,0.));
#458 = DIRECTION('',(0.,0.,1.));
#459 = ADVANCED_FACE('',(#460),#486,.F.);
#460 = FACE_BOUND('',#461,.F.);
#461 = EDGE_LOOP('',(#462,#470,#471,#479));
#462 = ORIENTED_EDGE('',*,*,#463,.F.);
#463 = EDGE_CURVE('',#73,#464,#466,.T.);
#464 = VERTEX_POINT('',#465);
#465 = CARTESIAN_POINT('',(176.,185.5,30.));
#466 = LINE('',#467,#468);
#467 = CARTESIAN_POINT('',(176.,185.5,31.));
#468 = VECTOR('',#469,1.);
#469 = DIRECTION('',(0.,0.,-1.));
#470 = ORIENTED_EDGE('',*,*,#197,.T.);
#471 = ORIENTED_EDGE('',*,*,#472,.F.);
#472 = EDGE_CURVE('',#473,#127,#475,.T.);
#473 = VERTEX_POINT('',#474);
#474 = CARTESIAN_POINT('',(176.,185.5,20.));
#475 = LINE('',#476,#477);
#476 = CARTESIAN_POINT('',(176.,185.5,31.));
#477 = VECTOR('',#478,1.);
#478 = DIRECTION('',(0.,0.,-1.));
#479 = ORIENTED_EDGE('',*,*,#480,.F.);
#480 = EDGE_CURVE('',#464,#473,#481,.T.);
#481 = CIRCLE('',#482,5.);
#482 = AXIS2_PLACEMENT_3D('',#483,#484,#485);
#483 = CARTESIAN_POINT('',(176.,185.5,25.));
#484 = DIRECTION('',(-1.,1.110223024625E-16,0.));
#485 = DIRECTION('',(0.,0.,1.));
#486 = PLANE('',#487);
#487 = AXIS2_PLACEMENT_3D('',#488,#489,#490);
#488 = CARTESIAN_POINT('',(176.,185.5,25.));
#489 = DIRECTION('',(-1.,1.110223024625E-16,0.));
#490 = DIRECTION('',(0.,0.,1.));
#491 = ADVANCED_FACE('',(#492),#517,.T.);
#492 = FACE_BOUND('',#493,.T.);
#493 = EDGE_LOOP('',(#494,#495,#496,#497,#503,#509,#515,#516));
#494 = ORIENTED_EDGE('',*,*,#303,.T.);
#495 = ORIENTED_EDGE('',*,*,#415,.T.);
#496 = ORIENTED_EDGE('',*,*,#265,.T.);
#497 = ORIENTED_EDGE('',*,*,#498,.T.);
#498 = EDGE_CURVE('',#257,#432,#499,.T.);
#499 = LINE('',#500,#501);
#500 = CARTESIAN_POINT('',(126.,77.5,30.));
#501 = VECTOR('',#502,1.);
#502 = DIRECTION('',(1.110223024625E-16,1.,0.));
#503 = ORIENTED_EDGE('',*,*,#504,.F.);
#504 = EDGE_CURVE('',#464,#432,#505,.T.);
#505 = LINE('',#506,#507);
#506 = CARTESIAN_POINT('',(176.,185.5,30.));
#507 = VECTOR('',#508,1.);
#508 = DIRECTION('',(-1.,1.110223024625E-16,0.));
#509 = ORIENTED_EDGE('',*,*,#510,.F.);
#510 = EDGE_CURVE('',#224,#464,#511,.T.);
#511 = LINE('',#512,#513);
#512 = CARTESIAN_POINT('',(176.,77.5,30.));
#513 = VECTOR('',#514,1.);
#514 = DIRECTION('',(1.110223024625E-16,1.,0.));
#515 = ORIENTED_EDGE('',*,*,#232,.F.);
#516 = ORIENTED_EDGE('',*,*,#325,.F.);
#517 = PLANE('',#518);
#518 = AXIS2_PLACEMENT_3D('',#519,#520,#521);
#519 = CARTESIAN_POINT('',(176.,77.5,30.));
#520 = DIRECTION('',(0.,0.,-1.));
#521 = DIRECTION('',(1.110223024625E-16,1.,0.));
#522 = ADVANCED_FACE('',(#523),#528,.F.);
#523 = FACE_BOUND('',#524,.F.);
#524 = EDGE_LOOP('',(#525,#526,#527));
#525 = ORIENTED_EDGE('',*,*,#510,.F.);
#526 = ORIENTED_EDGE('',*,*,#223,.T.);
#527 = ORIENTED_EDGE('',*,*,#463,.T.);
#528 = PLANE('',#529);
#529 = AXIS2_PLACEMENT_3D('',#530,#531,#532);
#530 = CARTESIAN_POINT('',(176.,185.5,25.));
#531 = DIRECTION('',(-1.,1.110223024625E-16,0.));
#532 = DIRECTION('',(0.,0.,1.));
#533 = ADVANCED_FACE('',(#534),#539,.T.);
#534 = FACE_BOUND('',#535,.T.);
#535 = EDGE_LOOP('',(#536,#537,#538));
#536 = ORIENTED_EDGE('',*,*,#498,.F.);
#537 = ORIENTED_EDGE('',*,*,#256,.T.);
#538 = ORIENTED_EDGE('',*,*,#431,.T.);
#539 = PLANE('',#540);
#540 = AXIS2_PLACEMENT_3D('',#541,#542,#543);
#541 = CARTESIAN_POINT('',(126.,185.5,25.));
#542 = DIRECTION('',(-1.,1.110223024625E-16,0.));
#543 = DIRECTION('',(0.,0.,1.));
#544 = ADVANCED_FACE('',(#545),#570,.T.);
#545 = FACE_BOUND('',#546,.T.);
#546 = EDGE_LOOP('',(#547,#553,#559,#560,#561,#562,#563,#564));
#547 = ORIENTED_EDGE('',*,*,#548,.T.);
#548 = EDGE_CURVE('',#473,#441,#549,.T.);
#549 = LINE('',#550,#551);
#550 = CARTESIAN_POINT('',(176.,185.5,20.));
#551 = VECTOR('',#552,1.);
#552 = DIRECTION('',(-1.,1.110223024625E-16,0.));
#553 = ORIENTED_EDGE('',*,*,#554,.T.);
#554 = EDGE_CURVE('',#441,#376,#555,.T.);
#555 = LINE('',#556,#557);
#556 = CARTESIAN_POINT('',(126.,185.5,20.));
#557 = VECTOR('',#558,1.);
#558 = DIRECTION('',(-1.110223024625E-16,-1.,0.));
#559 = ORIENTED_EDGE('',*,*,#375,.T.);
#560 = ORIENTED_EDGE('',*,*,#401,.T.);
#561 = ORIENTED_EDGE('',*,*,#310,.F.);
#562 = ORIENTED_EDGE('',*,*,#289,.F.);
#563 = ORIENTED_EDGE('',*,*,#342,.F.);
#564 = ORIENTED_EDGE('',*,*,#565,.F.);
#565 = EDGE_CURVE('',#473,#343,#566,.T.);
#566 = LINE('',#567,#568);
#567 = CARTESIAN_POINT('',(176.,185.5,20.));
#568 = VECTOR('',#569,1.);
#569 = DIRECTION('',(-1.110223024625E-16,-1.,0.));
#570 = PLANE('',#571);
#571 = AXIS2_PLACEMENT_3D('',#572,#573,#574);
#572 = CARTESIAN_POINT('',(176.,185.5,20.));
#573 = DIRECTION('',(0.,0.,1.));
#574 = DIRECTION('',(-1.110223024625E-16,-1.,0.));
#575 = ADVANCED_FACE('',(#576),#581,.F.);
#576 = FACE_BOUND('',#577,.F.);
#577 = EDGE_LOOP('',(#578,#579,#580));
#578 = ORIENTED_EDGE('',*,*,#472,.T.);
#579 = ORIENTED_EDGE('',*,*,#350,.T.);
#580 = ORIENTED_EDGE('',*,*,#565,.F.);
#581 = PLANE('',#582);
#582 = AXIS2_PLACEMENT_3D('',#583,#584,#585);
#583 = CARTESIAN_POINT('',(176.,185.5,25.));
#584 = DIRECTION('',(-1.,1.110223024625E-16,0.));
#585 = DIRECTION('',(0.,0.,1.));
#586 = ADVANCED_FACE('',(#587),#592,.T.);
#587 = FACE_BOUND('',#588,.T.);
#588 = EDGE_LOOP('',(#589,#590,#591));
#589 = ORIENTED_EDGE('',*,*,#440,.T.);
#590 = ORIENTED_EDGE('',*,*,#383,.T.);
#591 = ORIENTED_EDGE('',*,*,#554,.F.);
#592 = PLANE('',#593);
#593 = AXIS2_PLACEMENT_3D('',#594,#595,#596);
#594 = CARTESIAN_POINT('',(126.,185.5,25.));
#595 = DIRECTION('',(-1.,1.110223024625E-16,0.));
#596 = DIRECTION('',(0.,0.,1.));
#597 = ADVANCED_FACE('',(#598),#604,.F.);
#598 = FACE_BOUND('',#599,.F.);
#599 = EDGE_LOOP('',(#600,#601,#602,#603));
#600 = ORIENTED_EDGE('',*,*,#448,.F.);
#601 = ORIENTED_EDGE('',*,*,#504,.F.);
#602 = ORIENTED_EDGE('',*,*,#480,.T.);
#603 = ORIENTED_EDGE('',*,*,#548,.T.);
#604 = CYLINDRICAL_SURFACE('',#605,5.);
#605 = AXIS2_PLACEMENT_3D('',#606,#607,#608);
#606 = CARTESIAN_POINT('',(176.,185.5,25.));
#607 = DIRECTION('',(-1.,1.110223024625E-16,0.));
#608 = DIRECTION('',(0.,0.,1.));
#609 = ( GEOMETRIC_REPRESENTATION_CONTEXT(3) 
GLOBAL_UNCERTAINTY_ASSIGNED_CONTEXT((#613)) GLOBAL_UNIT_ASSIGNED_CONTEXT
((#610,#611,#612)) REPRESENTATION_CONTEXT('Context #1',
  '3D Context with UNIT and UNCERTAINTY') );
#610 = ( LENGTH_UNIT() NAMED_UNIT(*) SI_UNIT(.MILLI.,.METRE.) );
#611 = ( NAMED_UNIT(*) PLANE_ANGLE_UNIT() SI_UNIT($,.RADIAN.) );
#612 = ( NAMED_UNIT(*) SI_UNIT($,.STERADIAN.) SOLID_ANGLE_UNIT() );
#613 = UNCERTAINTY_MEASURE_WITH_UNIT(LENGTH_MEASURE(1.E-07),#610,
  'distance_accuracy_value','confusion accuracy');
#614 = PRODUCT_RELATED_PRODUCT_CATEGORY('part',$,(#7));
ENDSEC;
END-ISO-10303-21;
