ISO-10303-21;
HEADER;
FILE_DESCRIPTION(('FreeCAD Model'),'2;1');
FILE_NAME('Open CASCADE Shape Model','2026-08-09T02:21:38',('FreeCAD'),(
    'FreeCAD'),'Open CASCADE STEP processor 7.8','FreeCAD','Unknown');
FILE_SCHEMA(('AUTOMOTIVE_DESIGN { 1 0 10303 214 1 1 1 1 }'));
ENDSEC;
DATA;
#1 = APPLICATION_PROTOCOL_DEFINITION('international standard',
  'automotive_design',2000,#2);
#2 = APPLICATION_CONTEXT(
  'core data for automotive mechanical design processes');
#3 = SHAPE_DEFINITION_REPRESENTATION(#4,#10);
#4 = PRODUCT_DEFINITION_SHAPE('','',#5);
#5 = PRODUCT_DEFINITION('design','',#6,#9);
#6 = PRODUCT_DEFINITION_FORMATION('','',#7);
#7 = PRODUCT('Open CASCADE STEP translator 7.8 25',
  'Open CASCADE STEP translator 7.8 25','',(#8));
#8 = PRODUCT_CONTEXT('',#2,'mechanical');
#9 = PRODUCT_DEFINITION_CONTEXT('part definition',#2,'design');
#10 = ADVANCED_BREP_SHAPE_REPRESENTATION('',(#11,#15),#231);
#11 = AXIS2_PLACEMENT_3D('',#12,#13,#14);
#12 = CARTESIAN_POINT('',(0.,0.,0.));
#13 = DIRECTION('',(0.,0.,1.));
#14 = DIRECTION('',(1.,0.,-0.));
#15 = MANIFOLD_SOLID_BREP('',#16);
#16 = CLOSED_SHELL('',(#17,#57,#104,#128,#152,#185,#202,#219));
#17 = ADVANCED_FACE('',(#18),#52,.F.);
#18 = FACE_BOUND('',#19,.F.);
#19 = EDGE_LOOP('',(#20,#30,#38,#46));
#20 = ORIENTED_EDGE('',*,*,#21,.F.);
#21 = EDGE_CURVE('',#22,#24,#26,.T.);
#22 = VERTEX_POINT('',#23);
#23 = CARTESIAN_POINT('',(178.5,77.5,27.));
#24 = VERTEX_POINT('',#25);
#25 = CARTESIAN_POINT('',(178.5,77.5,28.8));
#26 = LINE('',#27,#28);
#27 = CARTESIAN_POINT('',(178.5,77.5,27.));
#28 = VECTOR('',#29,1.);
#29 = DIRECTION('',(0.,0.,1.));
#30 = ORIENTED_EDGE('',*,*,#31,.T.);
#31 = EDGE_CURVE('',#22,#32,#34,.T.);
#32 = VERTEX_POINT('',#33);
#33 = CARTESIAN_POINT('',(123.5,77.5,27.));
#34 = LINE('',#35,#36);
#35 = CARTESIAN_POINT('',(178.5,77.5,27.));
#36 = VECTOR('',#37,1.);
#37 = DIRECTION('',(-1.,1.110223024625E-16,0.));
#38 = ORIENTED_EDGE('',*,*,#39,.T.);
#39 = EDGE_CURVE('',#32,#40,#42,.T.);
#40 = VERTEX_POINT('',#41);
#41 = CARTESIAN_POINT('',(123.5,77.5,28.8));
#42 = LINE('',#43,#44);
#43 = CARTESIAN_POINT('',(123.5,77.5,27.));
#44 = VECTOR('',#45,1.);
#45 = DIRECTION('',(0.,0.,1.));
#46 = ORIENTED_EDGE('',*,*,#47,.F.);
#47 = EDGE_CURVE('',#24,#40,#48,.T.);
#48 = LINE('',#49,#50);
#49 = CARTESIAN_POINT('',(178.5,77.5,28.8));
#50 = VECTOR('',#51,1.);
#51 = DIRECTION('',(-1.,1.110223024625E-16,0.));
#52 = PLANE('',#53);
#53 = AXIS2_PLACEMENT_3D('',#54,#55,#56);
#54 = CARTESIAN_POINT('',(178.5,77.5,27.));
#55 = DIRECTION('',(1.110223024625E-16,1.,0.));
#56 = DIRECTION('',(0.,0.,1.));
#57 = ADVANCED_FACE('',(#58),#99,.F.);
#58 = FACE_BOUND('',#59,.F.);
#59 = EDGE_LOOP('',(#60,#70,#76,#77,#85,#93));
#60 = ORIENTED_EDGE('',*,*,#61,.F.);
#61 = EDGE_CURVE('',#62,#64,#66,.T.);
#62 = VERTEX_POINT('',#63);
#63 = CARTESIAN_POINT('',(178.5,185.5,27.));
#64 = VERTEX_POINT('',#65);
#65 = CARTESIAN_POINT('',(178.5,185.5,28.8));
#66 = LINE('',#67,#68);
#67 = CARTESIAN_POINT('',(178.5,185.5,27.));
#68 = VECTOR('',#69,1.);
#69 = DIRECTION('',(0.,0.,1.));
#70 = ORIENTED_EDGE('',*,*,#71,.F.);
#71 = EDGE_CURVE('',#22,#62,#72,.T.);
#72 = LINE('',#73,#74);
#73 = CARTESIAN_POINT('',(178.5,77.5,27.));
#74 = VECTOR('',#75,1.);
#75 = DIRECTION('',(1.110223024625E-16,1.,0.));
#76 = ORIENTED_EDGE('',*,*,#21,.T.);
#77 = ORIENTED_EDGE('',*,*,#78,.T.);
#78 = EDGE_CURVE('',#24,#79,#81,.T.);
#79 = VERTEX_POINT('',#80);
#80 = CARTESIAN_POINT('',(178.5,78.7,30.));
#81 = LINE('',#82,#83);
#82 = CARTESIAN_POINT('',(178.5,77.35,28.65));
#83 = VECTOR('',#84,1.);
#84 = DIRECTION('',(7.850462293419E-17,0.707106781187,0.707106781187));
#85 = ORIENTED_EDGE('',*,*,#86,.T.);
#86 = EDGE_CURVE('',#79,#87,#89,.T.);
#87 = VERTEX_POINT('',#88);
#88 = CARTESIAN_POINT('',(178.5,184.3,30.));
#89 = LINE('',#90,#91);
#90 = CARTESIAN_POINT('',(178.5,77.5,30.));
#91 = VECTOR('',#92,1.);
#92 = DIRECTION('',(1.110223024625E-16,1.,0.));
#93 = ORIENTED_EDGE('',*,*,#94,.F.);
#94 = EDGE_CURVE('',#64,#87,#95,.T.);
#95 = LINE('',#96,#97);
#96 = CARTESIAN_POINT('',(178.5,158.65,55.65));
#97 = VECTOR('',#98,1.);
#98 = DIRECTION('',(-7.850462293419E-17,-0.707106781187,0.707106781187)
  );
#99 = PLANE('',#100);
#100 = AXIS2_PLACEMENT_3D('',#101,#102,#103);
#101 = CARTESIAN_POINT('',(178.5,77.5,27.));
#102 = DIRECTION('',(-1.,1.110223024625E-16,0.));
#103 = DIRECTION('',(0.,0.,1.));
#104 = ADVANCED_FACE('',(#105),#123,.F.);
#105 = FACE_BOUND('',#106,.F.);
#106 = EDGE_LOOP('',(#107,#108,#109,#117));
#107 = ORIENTED_EDGE('',*,*,#78,.F.);
#108 = ORIENTED_EDGE('',*,*,#47,.T.);
#109 = ORIENTED_EDGE('',*,*,#110,.T.);
#110 = EDGE_CURVE('',#40,#111,#113,.T.);
#111 = VERTEX_POINT('',#112);
#112 = CARTESIAN_POINT('',(123.5,78.7,30.));
#113 = LINE('',#114,#115);
#114 = CARTESIAN_POINT('',(123.5,77.35,28.65));
#115 = VECTOR('',#116,1.);
#116 = DIRECTION('',(7.850462293419E-17,0.707106781187,0.707106781187));
#117 = ORIENTED_EDGE('',*,*,#118,.F.);
#118 = EDGE_CURVE('',#79,#111,#119,.T.);
#119 = LINE('',#120,#121);
#120 = CARTESIAN_POINT('',(178.5,78.7,30.));
#121 = VECTOR('',#122,1.);
#122 = DIRECTION('',(-1.,1.110223024625E-16,0.));
#123 = PLANE('',#124);
#124 = AXIS2_PLACEMENT_3D('',#125,#126,#127);
#125 = CARTESIAN_POINT('',(178.5,78.1,29.4));
#126 = DIRECTION('',(7.850462293419E-17,0.707106781187,-0.707106781187)
  );
#127 = DIRECTION('',(-1.,1.110223024625E-16,0.));
#128 = ADVANCED_FACE('',(#129),#147,.F.);
#129 = FACE_BOUND('',#130,.F.);
#130 = EDGE_LOOP('',(#131,#132,#133,#141));
#131 = ORIENTED_EDGE('',*,*,#31,.F.);
#132 = ORIENTED_EDGE('',*,*,#71,.T.);
#133 = ORIENTED_EDGE('',*,*,#134,.T.);
#134 = EDGE_CURVE('',#62,#135,#137,.T.);
#135 = VERTEX_POINT('',#136);
#136 = CARTESIAN_POINT('',(123.5,185.5,27.));
#137 = LINE('',#138,#139);
#138 = CARTESIAN_POINT('',(178.5,185.5,27.));
#139 = VECTOR('',#140,1.);
#140 = DIRECTION('',(-1.,1.110223024625E-16,0.));
#141 = ORIENTED_EDGE('',*,*,#142,.F.);
#142 = EDGE_CURVE('',#32,#135,#143,.T.);
#143 = LINE('',#144,#145);
#144 = CARTESIAN_POINT('',(123.5,77.5,27.));
#145 = VECTOR('',#146,1.);
#146 = DIRECTION('',(1.110223024625E-16,1.,0.));
#147 = PLANE('',#148);
#148 = AXIS2_PLACEMENT_3D('',#149,#150,#151);
#149 = CARTESIAN_POINT('',(178.5,77.5,27.));
#150 = DIRECTION('',(0.,0.,1.));
#151 = DIRECTION('',(1.110223024625E-16,1.,0.));
#152 = ADVANCED_FACE('',(#153),#180,.T.);
#153 = FACE_BOUND('',#154,.T.);
#154 = EDGE_LOOP('',(#155,#163,#164,#165,#166,#174));
#155 = ORIENTED_EDGE('',*,*,#156,.F.);
#156 = EDGE_CURVE('',#135,#157,#159,.T.);
#157 = VERTEX_POINT('',#158);
#158 = CARTESIAN_POINT('',(123.5,185.5,28.8));
#159 = LINE('',#160,#161);
#160 = CARTESIAN_POINT('',(123.5,185.5,27.));
#161 = VECTOR('',#162,1.);
#162 = DIRECTION('',(0.,0.,1.));
#163 = ORIENTED_EDGE('',*,*,#142,.F.);
#164 = ORIENTED_EDGE('',*,*,#39,.T.);
#165 = ORIENTED_EDGE('',*,*,#110,.T.);
#166 = ORIENTED_EDGE('',*,*,#167,.T.);
#167 = EDGE_CURVE('',#111,#168,#170,.T.);
#168 = VERTEX_POINT('',#169);
#169 = CARTESIAN_POINT('',(123.5,184.3,30.));
#170 = LINE('',#171,#172);
#171 = CARTESIAN_POINT('',(123.5,77.5,30.));
#172 = VECTOR('',#173,1.);
#173 = DIRECTION('',(1.110223024625E-16,1.,0.));
#174 = ORIENTED_EDGE('',*,*,#175,.F.);
#175 = EDGE_CURVE('',#157,#168,#176,.T.);
#176 = LINE('',#177,#178);
#177 = CARTESIAN_POINT('',(123.5,158.65,55.65));
#178 = VECTOR('',#179,1.);
#179 = DIRECTION('',(-7.850462293419E-17,-0.707106781187,0.707106781187)
  );
#180 = PLANE('',#181);
#181 = AXIS2_PLACEMENT_3D('',#182,#183,#184);
#182 = CARTESIAN_POINT('',(123.5,77.5,27.));
#183 = DIRECTION('',(-1.,1.110223024625E-16,0.));
#184 = DIRECTION('',(0.,0.,1.));
#185 = ADVANCED_FACE('',(#186),#197,.T.);
#186 = FACE_BOUND('',#187,.T.);
#187 = EDGE_LOOP('',(#188,#189,#190,#191));
#188 = ORIENTED_EDGE('',*,*,#61,.F.);
#189 = ORIENTED_EDGE('',*,*,#134,.T.);
#190 = ORIENTED_EDGE('',*,*,#156,.T.);
#191 = ORIENTED_EDGE('',*,*,#192,.F.);
#192 = EDGE_CURVE('',#64,#157,#193,.T.);
#193 = LINE('',#194,#195);
#194 = CARTESIAN_POINT('',(178.5,185.5,28.8));
#195 = VECTOR('',#196,1.);
#196 = DIRECTION('',(-1.,1.110223024625E-16,0.));
#197 = PLANE('',#198);
#198 = AXIS2_PLACEMENT_3D('',#199,#200,#201);
#199 = CARTESIAN_POINT('',(178.5,185.5,27.));
#200 = DIRECTION('',(1.110223024625E-16,1.,0.));
#201 = DIRECTION('',(0.,0.,1.));
#202 = ADVANCED_FACE('',(#203),#214,.T.);
#203 = FACE_BOUND('',#204,.T.);
#204 = EDGE_LOOP('',(#205,#206,#207,#208));
#205 = ORIENTED_EDGE('',*,*,#94,.F.);
#206 = ORIENTED_EDGE('',*,*,#192,.T.);
#207 = ORIENTED_EDGE('',*,*,#175,.T.);
#208 = ORIENTED_EDGE('',*,*,#209,.F.);
#209 = EDGE_CURVE('',#87,#168,#210,.T.);
#210 = LINE('',#211,#212);
#211 = CARTESIAN_POINT('',(178.5,184.3,30.));
#212 = VECTOR('',#213,1.);
#213 = DIRECTION('',(-1.,1.110223024625E-16,0.));
#214 = PLANE('',#215);
#215 = AXIS2_PLACEMENT_3D('',#216,#217,#218);
#216 = CARTESIAN_POINT('',(178.5,184.9,29.4));
#217 = DIRECTION('',(6.442841347715E-17,0.707106781187,0.707106781187));
#218 = DIRECTION('',(-1.,1.01068919302E-16,-9.953383160478E-18));
#219 = ADVANCED_FACE('',(#220),#226,.T.);
#220 = FACE_BOUND('',#221,.T.);
#221 = EDGE_LOOP('',(#222,#223,#224,#225));
#222 = ORIENTED_EDGE('',*,*,#167,.F.);
#223 = ORIENTED_EDGE('',*,*,#118,.F.);
#224 = ORIENTED_EDGE('',*,*,#86,.T.);
#225 = ORIENTED_EDGE('',*,*,#209,.T.);
#226 = PLANE('',#227);
#227 = AXIS2_PLACEMENT_3D('',#228,#229,#230);
#228 = CARTESIAN_POINT('',(178.5,77.5,30.));
#229 = DIRECTION('',(0.,0.,1.));
#230 = DIRECTION('',(1.110223024625E-16,1.,0.));
#231 = ( GEOMETRIC_REPRESENTATION_CONTEXT(3) 
GLOBAL_UNCERTAINTY_ASSIGNED_CONTEXT((#235)) GLOBAL_UNIT_ASSIGNED_CONTEXT
((#232,#233,#234)) REPRESENTATION_CONTEXT('Context #1',
  '3D Context with UNIT and UNCERTAINTY') );
#232 = ( LENGTH_UNIT() NAMED_UNIT(*) SI_UNIT(.MILLI.,.METRE.) );
#233 = ( NAMED_UNIT(*) PLANE_ANGLE_UNIT() SI_UNIT($,.RADIAN.) );
#234 = ( NAMED_UNIT(*) SI_UNIT($,.STERADIAN.) SOLID_ANGLE_UNIT() );
#235 = UNCERTAINTY_MEASURE_WITH_UNIT(LENGTH_MEASURE(1.E-07),#232,
  'distance_accuracy_value','confusion accuracy');
#236 = PRODUCT_RELATED_PRODUCT_CATEGORY('part',$,(#7));
ENDSEC;
END-ISO-10303-21;
