ISO-10303-21;
HEADER;
FILE_DESCRIPTION(('FreeCAD Model'),'2;1');
FILE_NAME('Open CASCADE Shape Model','2026-09-26T11:04:31',('FreeCAD'),(
    'FreeCAD'),'Open CASCADE STEP processor 7.8','FreeCAD','Unknown');
FILE_SCHEMA(('AUTOMOTIVE_DESIGN { 1 0 10303 214 1 1 1 1 }'));
ENDSEC;
DATA;
#1 = APPLICATION_PROTOCOL_DEFINITION('international standard',
  'automotive_design',2000,#2);
#2 = APPLICATION_CONTEXT(
  'core data for automotive mechanical design processes');
#3 = SHAPE_DEFINITION_REPRESENTATION(#4,#10);
#4 = PRODUCT_DEFINITION_SHAPE('','',#5);
#5 = PRODUCT_DEFINITION('design','',#6,#9);
#6 = PRODUCT_DEFINITION_FORMATION('','',#7);
#7 = PRODUCT('Open CASCADE STEP translator 7.8 31',
  'Open CASCADE STEP translator 7.8 31','',(#8));
#8 = PRODUCT_CONTEXT('',#2,'mechanical');
#9 = PRODUCT_DEFINITION_CONTEXT('part definition',#2,'design');
#10 = ADVANCED_BREP_SHAPE_REPRESENTATION('',(#11,#15),#1044);
#11 = AXIS2_PLACEMENT_3D('',#12,#13,#14);
#12 = CARTESIAN_POINT('',(0.,0.,0.));
#13 = DIRECTION('',(0.,0.,1.));
#14 = DIRECTION('',(1.,0.,-0.));
#15 = MANIFOLD_SOLID_BREP('',#16);
#16 = CLOSED_SHELL('',(#17,#57,#88,#152,#250,#298,#310,#341,#365,#382,
    #406,#431,#456,#488,#505,#536,#560,#577,#601,#634,#651,#684,#708,
    #725,#742,#759,#769,#793,#835,#863,#905,#924,#945,#987,#1005,#1023)
  );
#17 = ADVANCED_FACE('',(#18),#52,.F.);
#18 = FACE_BOUND('',#19,.T.);
#19 = EDGE_LOOP('',(#20,#30,#38,#46));
#20 = ORIENTED_EDGE('',*,*,#21,.F.);
#21 = EDGE_CURVE('',#22,#24,#26,.T.);
#22 = VERTEX_POINT('',#23);
#23 = CARTESIAN_POINT('',(114.,193.,13.));
#24 = VERTEX_POINT('',#25);
#25 = CARTESIAN_POINT('',(114.,193.,37.));
#26 = LINE('',#27,#28);
#27 = CARTESIAN_POINT('',(114.,193.,13.));
#28 = VECTOR('',#29,1.);
#29 = DIRECTION('',(0.,0.,1.));
#30 = ORIENTED_EDGE('',*,*,#31,.T.);
#31 = EDGE_CURVE('',#22,#32,#34,.T.);
#32 = VERTEX_POINT('',#33);
#33 = CARTESIAN_POINT('',(146.,193.,13.));
#34 = LINE('',#35,#36);
#35 = CARTESIAN_POINT('',(114.,193.,13.));
#36 = VECTOR('',#37,1.);
#37 = DIRECTION('',(1.,-1.110223024625E-16,-0.));
#38 = ORIENTED_EDGE('',*,*,#39,.T.);
#39 = EDGE_CURVE('',#32,#40,#42,.T.);
#40 = VERTEX_POINT('',#41);
#41 = CARTESIAN_POINT('',(146.,193.,37.));
#42 = LINE('',#43,#44);
#43 = CARTESIAN_POINT('',(146.,193.,13.));
#44 = VECTOR('',#45,1.);
#45 = DIRECTION('',(0.,0.,1.));
#46 = ORIENTED_EDGE('',*,*,#47,.F.);
#47 = EDGE_CURVE('',#24,#40,#48,.T.);
#48 = LINE('',#49,#50);
#49 = CARTESIAN_POINT('',(114.,193.,37.));
#50 = VECTOR('',#51,1.);
#51 = DIRECTION('',(1.,-1.110223024625E-16,-0.));
#52 = PLANE('',#53);
#53 = AXIS2_PLACEMENT_3D('',#54,#55,#56);
#54 = CARTESIAN_POINT('',(114.,193.,13.));
#55 = DIRECTION('',(1.110223024625E-16,1.,0.));
#56 = DIRECTION('',(0.,0.,-1.));
#57 = ADVANCED_FACE('',(#58),#83,.F.);
#58 = FACE_BOUND('',#59,.T.);
#59 = EDGE_LOOP('',(#60,#68,#69,#77));
#60 = ORIENTED_EDGE('',*,*,#61,.F.);
#61 = EDGE_CURVE('',#22,#62,#64,.T.);
#62 = VERTEX_POINT('',#63);
#63 = CARTESIAN_POINT('',(114.,209.,13.));
#64 = LINE('',#65,#66);
#65 = CARTESIAN_POINT('',(114.,193.,13.));
#66 = VECTOR('',#67,1.);
#67 = DIRECTION('',(1.110223024625E-16,1.,0.));
#68 = ORIENTED_EDGE('',*,*,#21,.T.);
#69 = ORIENTED_EDGE('',*,*,#70,.T.);
#70 = EDGE_CURVE('',#24,#71,#73,.T.);
#71 = VERTEX_POINT('',#72);
#72 = CARTESIAN_POINT('',(114.,209.,37.));
#73 = LINE('',#74,#75);
#74 = CARTESIAN_POINT('',(114.,193.,37.));
#75 = VECTOR('',#76,1.);
#76 = DIRECTION('',(1.110223024625E-16,1.,0.));
#77 = ORIENTED_EDGE('',*,*,#78,.F.);
#78 = EDGE_CURVE('',#62,#71,#79,.T.);
#79 = LINE('',#80,#81);
#80 = CARTESIAN_POINT('',(114.,209.,13.));
#81 = VECTOR('',#82,1.);
#82 = DIRECTION('',(0.,0.,1.));
#83 = PLANE('',#84);
#84 = AXIS2_PLACEMENT_3D('',#85,#86,#87);
#85 = CARTESIAN_POINT('',(114.,193.,13.));
#86 = DIRECTION('',(1.,-1.110223024625E-16,-0.));
#87 = DIRECTION('',(0.,0.,-1.));
#88 = ADVANCED_FACE('',(#89),#147,.T.);
#89 = FACE_BOUND('',#90,.F.);
#90 = EDGE_LOOP('',(#91,#99,#100,#101,#109,#117,#125,#133,#141));
#91 = ORIENTED_EDGE('',*,*,#92,.F.);
#92 = EDGE_CURVE('',#40,#93,#95,.T.);
#93 = VERTEX_POINT('',#94);
#94 = CARTESIAN_POINT('',(146.,197.,37.));
#95 = LINE('',#96,#97);
#96 = CARTESIAN_POINT('',(146.,193.,37.));
#97 = VECTOR('',#98,1.);
#98 = DIRECTION('',(1.110223024625E-16,1.,0.));
#99 = ORIENTED_EDGE('',*,*,#47,.F.);
#100 = ORIENTED_EDGE('',*,*,#70,.T.);
#101 = ORIENTED_EDGE('',*,*,#102,.T.);
#102 = EDGE_CURVE('',#71,#103,#105,.T.);
#103 = VERTEX_POINT('',#104);
#104 = CARTESIAN_POINT('',(146.,209.,37.));
#105 = LINE('',#106,#107);
#106 = CARTESIAN_POINT('',(114.,209.,37.));
#107 = VECTOR('',#108,1.);
#108 = DIRECTION('',(1.,-1.110223024625E-16,-0.));
#109 = ORIENTED_EDGE('',*,*,#110,.F.);
#110 = EDGE_CURVE('',#111,#103,#113,.T.);
#111 = VERTEX_POINT('',#112);
#112 = CARTESIAN_POINT('',(146.,205.,37.));
#113 = LINE('',#114,#115);
#114 = CARTESIAN_POINT('',(146.,193.,37.));
#115 = VECTOR('',#116,1.);
#116 = DIRECTION('',(1.110223024625E-16,1.,0.));
#117 = ORIENTED_EDGE('',*,*,#118,.F.);
#118 = EDGE_CURVE('',#119,#111,#121,.T.);
#119 = VERTEX_POINT('',#120);
#120 = CARTESIAN_POINT('',(143.5,205.,37.));
#121 = LINE('',#122,#123);
#122 = CARTESIAN_POINT('',(128.75,205.,37.));
#123 = VECTOR('',#124,1.);
#124 = DIRECTION('',(1.,-1.110223024625E-16,-0.));
#125 = ORIENTED_EDGE('',*,*,#126,.T.);
#126 = EDGE_CURVE('',#119,#127,#129,.T.);
#127 = VERTEX_POINT('',#128);
#128 = CARTESIAN_POINT('',(143.5,201.,37.));
#129 = LINE('',#130,#131);
#130 = CARTESIAN_POINT('',(143.5,195.,37.));
#131 = VECTOR('',#132,1.);
#132 = DIRECTION('',(-1.110223024625E-16,-1.,0.));
#133 = ORIENTED_EDGE('',*,*,#134,.T.);
#134 = EDGE_CURVE('',#127,#135,#137,.T.);
#135 = VERTEX_POINT('',#136);
#136 = CARTESIAN_POINT('',(143.5,197.,37.));
#137 = LINE('',#138,#139);
#138 = CARTESIAN_POINT('',(143.5,195.,37.));
#139 = VECTOR('',#140,1.);
#140 = DIRECTION('',(-1.110223024625E-16,-1.,0.));
#141 = ORIENTED_EDGE('',*,*,#142,.T.);
#142 = EDGE_CURVE('',#135,#93,#143,.T.);
#143 = LINE('',#144,#145);
#144 = CARTESIAN_POINT('',(128.75,197.,37.));
#145 = VECTOR('',#146,1.);
#146 = DIRECTION('',(1.,-1.110223024625E-16,-0.));
#147 = PLANE('',#148);
#148 = AXIS2_PLACEMENT_3D('',#149,#150,#151);
#149 = CARTESIAN_POINT('',(114.,193.,37.));
#150 = DIRECTION('',(0.,0.,1.));
#151 = DIRECTION('',(-1.110223024625E-16,-1.,0.));
#152 = ADVANCED_FACE('',(#153,#226),#245,.T.);
#153 = FACE_BOUND('',#154,.F.);
#154 = EDGE_LOOP('',(#155,#163,#164,#165,#173,#181,#187,#188,#196,#204,
    #212,#220));
#155 = ORIENTED_EDGE('',*,*,#156,.F.);
#156 = EDGE_CURVE('',#32,#157,#159,.T.);
#157 = VERTEX_POINT('',#158);
#158 = CARTESIAN_POINT('',(146.,197.,13.));
#159 = LINE('',#160,#161);
#160 = CARTESIAN_POINT('',(146.,193.,13.));
#161 = VECTOR('',#162,1.);
#162 = DIRECTION('',(1.110223024625E-16,1.,0.));
#163 = ORIENTED_EDGE('',*,*,#39,.T.);
#164 = ORIENTED_EDGE('',*,*,#92,.T.);
#165 = ORIENTED_EDGE('',*,*,#166,.F.);
#166 = EDGE_CURVE('',#167,#93,#169,.T.);
#167 = VERTEX_POINT('',#168);
#168 = CARTESIAN_POINT('',(146.,197.,35.));
#169 = LINE('',#170,#171);
#170 = CARTESIAN_POINT('',(146.,197.,35.));
#171 = VECTOR('',#172,1.);
#172 = DIRECTION('',(0.,0.,1.));
#173 = ORIENTED_EDGE('',*,*,#174,.T.);
#174 = EDGE_CURVE('',#167,#175,#177,.T.);
#175 = VERTEX_POINT('',#176);
#176 = CARTESIAN_POINT('',(146.,205.,35.));
#177 = LINE('',#178,#179);
#178 = CARTESIAN_POINT('',(146.,197.,35.));
#179 = VECTOR('',#180,1.);
#180 = DIRECTION('',(1.110223024625E-16,1.,0.));
#181 = ORIENTED_EDGE('',*,*,#182,.T.);
#182 = EDGE_CURVE('',#175,#111,#183,.T.);
#183 = LINE('',#184,#185);
#184 = CARTESIAN_POINT('',(146.,205.,35.));
#185 = VECTOR('',#186,1.);
#186 = DIRECTION('',(0.,0.,1.));
#187 = ORIENTED_EDGE('',*,*,#110,.T.);
#188 = ORIENTED_EDGE('',*,*,#189,.F.);
#189 = EDGE_CURVE('',#190,#103,#192,.T.);
#190 = VERTEX_POINT('',#191);
#191 = CARTESIAN_POINT('',(146.,209.,13.));
#192 = LINE('',#193,#194);
#193 = CARTESIAN_POINT('',(146.,209.,13.));
#194 = VECTOR('',#195,1.);
#195 = DIRECTION('',(0.,0.,1.));
#196 = ORIENTED_EDGE('',*,*,#197,.F.);
#197 = EDGE_CURVE('',#198,#190,#200,.T.);
#198 = VERTEX_POINT('',#199);
#199 = CARTESIAN_POINT('',(146.,205.,13.));
#200 = LINE('',#201,#202);
#201 = CARTESIAN_POINT('',(146.,193.,13.));
#202 = VECTOR('',#203,1.);
#203 = DIRECTION('',(1.110223024625E-16,1.,0.));
#204 = ORIENTED_EDGE('',*,*,#205,.T.);
#205 = EDGE_CURVE('',#198,#206,#208,.T.);
#206 = VERTEX_POINT('',#207);
#207 = CARTESIAN_POINT('',(146.,205.,15.));
#208 = LINE('',#209,#210);
#209 = CARTESIAN_POINT('',(146.,205.,9.));
#210 = VECTOR('',#211,1.);
#211 = DIRECTION('',(0.,0.,1.));
#212 = ORIENTED_EDGE('',*,*,#213,.F.);
#213 = EDGE_CURVE('',#214,#206,#216,.T.);
#214 = VERTEX_POINT('',#215);
#215 = CARTESIAN_POINT('',(146.,197.,15.));
#216 = LINE('',#217,#218);
#217 = CARTESIAN_POINT('',(146.,197.,15.));
#218 = VECTOR('',#219,1.);
#219 = DIRECTION('',(1.110223024625E-16,1.,0.));
#220 = ORIENTED_EDGE('',*,*,#221,.F.);
#221 = EDGE_CURVE('',#157,#214,#222,.T.);
#222 = LINE('',#223,#224);
#223 = CARTESIAN_POINT('',(146.,197.,9.));
#224 = VECTOR('',#225,1.);
#225 = DIRECTION('',(0.,0.,1.));
#226 = FACE_BOUND('',#227,.F.);
#227 = EDGE_LOOP('',(#228,#239));
#228 = ORIENTED_EDGE('',*,*,#229,.F.);
#229 = EDGE_CURVE('',#230,#232,#234,.T.);
#230 = VERTEX_POINT('',#231);
#231 = CARTESIAN_POINT('',(146.,202.11803398875,26.));
#232 = VERTEX_POINT('',#233);
#233 = CARTESIAN_POINT('',(146.,199.88196601125,26.));
#234 = CIRCLE('',#235,1.5);
#235 = AXIS2_PLACEMENT_3D('',#236,#237,#238);
#236 = CARTESIAN_POINT('',(146.,201.,25.));
#237 = DIRECTION('',(-1.,1.110223024625E-16,0.));
#238 = DIRECTION('',(0.,0.,1.));
#239 = ORIENTED_EDGE('',*,*,#240,.F.);
#240 = EDGE_CURVE('',#232,#230,#241,.T.);
#241 = LINE('',#242,#243);
#242 = CARTESIAN_POINT('',(146.,195.75,26.));
#243 = VECTOR('',#244,1.);
#244 = DIRECTION('',(1.110223024625E-16,1.,0.));
#245 = PLANE('',#246);
#246 = AXIS2_PLACEMENT_3D('',#247,#248,#249);
#247 = CARTESIAN_POINT('',(146.,193.,13.));
#248 = DIRECTION('',(1.,-1.110223024625E-16,-0.));
#249 = DIRECTION('',(0.,0.,-1.));
#250 = ADVANCED_FACE('',(#251),#293,.F.);
#251 = FACE_BOUND('',#252,.T.);
#252 = EDGE_LOOP('',(#253,#254,#255,#256,#262,#263,#271,#279,#287));
#253 = ORIENTED_EDGE('',*,*,#156,.F.);
#254 = ORIENTED_EDGE('',*,*,#31,.F.);
#255 = ORIENTED_EDGE('',*,*,#61,.T.);
#256 = ORIENTED_EDGE('',*,*,#257,.T.);
#257 = EDGE_CURVE('',#62,#190,#258,.T.);
#258 = LINE('',#259,#260);
#259 = CARTESIAN_POINT('',(114.,209.,13.));
#260 = VECTOR('',#261,1.);
#261 = DIRECTION('',(1.,-1.110223024625E-16,-0.));
#262 = ORIENTED_EDGE('',*,*,#197,.F.);
#263 = ORIENTED_EDGE('',*,*,#264,.F.);
#264 = EDGE_CURVE('',#265,#198,#267,.T.);
#265 = VERTEX_POINT('',#266);
#266 = CARTESIAN_POINT('',(143.5,205.,13.));
#267 = LINE('',#268,#269);
#268 = CARTESIAN_POINT('',(128.75,205.,13.));
#269 = VECTOR('',#270,1.);
#270 = DIRECTION('',(1.,-1.110223024625E-16,-0.));
#271 = ORIENTED_EDGE('',*,*,#272,.T.);
#272 = EDGE_CURVE('',#265,#273,#275,.T.);
#273 = VERTEX_POINT('',#274);
#274 = CARTESIAN_POINT('',(143.5,201.,13.));
#275 = LINE('',#276,#277);
#276 = CARTESIAN_POINT('',(143.5,195.,13.));
#277 = VECTOR('',#278,1.);
#278 = DIRECTION('',(-1.110223024625E-16,-1.,0.));
#279 = ORIENTED_EDGE('',*,*,#280,.T.);
#280 = EDGE_CURVE('',#273,#281,#283,.T.);
#281 = VERTEX_POINT('',#282);
#282 = CARTESIAN_POINT('',(143.5,197.,13.));
#283 = LINE('',#284,#285);
#284 = CARTESIAN_POINT('',(143.5,195.,13.));
#285 = VECTOR('',#286,1.);
#286 = DIRECTION('',(-1.110223024625E-16,-1.,0.));
#287 = ORIENTED_EDGE('',*,*,#288,.T.);
#288 = EDGE_CURVE('',#281,#157,#289,.T.);
#289 = LINE('',#290,#291);
#290 = CARTESIAN_POINT('',(128.75,197.,13.));
#291 = VECTOR('',#292,1.);
#292 = DIRECTION('',(1.,-1.110223024625E-16,-0.));
#293 = PLANE('',#294);
#294 = AXIS2_PLACEMENT_3D('',#295,#296,#297);
#295 = CARTESIAN_POINT('',(114.,193.,13.));
#296 = DIRECTION('',(0.,0.,1.));
#297 = DIRECTION('',(-1.110223024625E-16,-1.,0.));
#298 = ADVANCED_FACE('',(#299),#305,.T.);
#299 = FACE_BOUND('',#300,.F.);
#300 = EDGE_LOOP('',(#301,#302,#303,#304));
#301 = ORIENTED_EDGE('',*,*,#78,.F.);
#302 = ORIENTED_EDGE('',*,*,#257,.T.);
#303 = ORIENTED_EDGE('',*,*,#189,.T.);
#304 = ORIENTED_EDGE('',*,*,#102,.F.);
#305 = PLANE('',#306);
#306 = AXIS2_PLACEMENT_3D('',#307,#308,#309);
#307 = CARTESIAN_POINT('',(114.,209.,13.));
#308 = DIRECTION('',(1.110223024625E-16,1.,0.));
#309 = DIRECTION('',(0.,0.,-1.));
#310 = ADVANCED_FACE('',(#311),#336,.F.);
#311 = FACE_BOUND('',#312,.T.);
#312 = EDGE_LOOP('',(#313,#321,#322,#330));
#313 = ORIENTED_EDGE('',*,*,#314,.F.);
#314 = EDGE_CURVE('',#135,#315,#317,.T.);
#315 = VERTEX_POINT('',#316);
#316 = CARTESIAN_POINT('',(143.5,197.,41.));
#317 = LINE('',#318,#319);
#318 = CARTESIAN_POINT('',(143.5,197.,35.));
#319 = VECTOR('',#320,1.);
#320 = DIRECTION('',(0.,0.,1.));
#321 = ORIENTED_EDGE('',*,*,#142,.T.);
#322 = ORIENTED_EDGE('',*,*,#323,.T.);
#323 = EDGE_CURVE('',#93,#324,#326,.T.);
#324 = VERTEX_POINT('',#325);
#325 = CARTESIAN_POINT('',(146.,197.,41.));
#326 = LINE('',#327,#328);
#327 = CARTESIAN_POINT('',(146.,197.,35.));
#328 = VECTOR('',#329,1.);
#329 = DIRECTION('',(0.,0.,1.));
#330 = ORIENTED_EDGE('',*,*,#331,.F.);
#331 = EDGE_CURVE('',#315,#324,#332,.T.);
#332 = LINE('',#333,#334);
#333 = CARTESIAN_POINT('',(143.5,197.,41.));
#334 = VECTOR('',#335,1.);
#335 = DIRECTION('',(1.,-1.110223024625E-16,-0.));
#336 = PLANE('',#337);
#337 = AXIS2_PLACEMENT_3D('',#338,#339,#340);
#338 = CARTESIAN_POINT('',(143.5,197.,35.));
#339 = DIRECTION('',(1.110223024625E-16,1.,0.));
#340 = DIRECTION('',(0.,0.,-1.));
#341 = ADVANCED_FACE('',(#342),#360,.F.);
#342 = FACE_BOUND('',#343,.T.);
#343 = EDGE_LOOP('',(#344,#352,#353));
#344 = ORIENTED_EDGE('',*,*,#345,.F.);
#345 = EDGE_CURVE('',#119,#346,#348,.T.);
#346 = VERTEX_POINT('',#347);
#347 = CARTESIAN_POINT('',(143.5,205.,41.));
#348 = LINE('',#349,#350);
#349 = CARTESIAN_POINT('',(143.5,205.,35.));
#350 = VECTOR('',#351,1.);
#351 = DIRECTION('',(0.,0.,1.));
#352 = ORIENTED_EDGE('',*,*,#126,.T.);
#353 = ORIENTED_EDGE('',*,*,#354,.F.);
#354 = EDGE_CURVE('',#346,#127,#355,.T.);
#355 = CIRCLE('',#356,4.);
#356 = AXIS2_PLACEMENT_3D('',#357,#358,#359);
#357 = CARTESIAN_POINT('',(143.5,201.,41.));
#358 = DIRECTION('',(-1.,1.110223024625E-16,0.));
#359 = DIRECTION('',(0.,0.,1.));
#360 = PLANE('',#361);
#361 = AXIS2_PLACEMENT_3D('',#362,#363,#364);
#362 = CARTESIAN_POINT('',(143.5,197.,35.));
#363 = DIRECTION('',(1.,-1.110223024625E-16,-0.));
#364 = DIRECTION('',(0.,0.,-1.));
#365 = ADVANCED_FACE('',(#366),#377,.F.);
#366 = FACE_BOUND('',#367,.T.);
#367 = EDGE_LOOP('',(#368,#375,#376));
#368 = ORIENTED_EDGE('',*,*,#369,.F.);
#369 = EDGE_CURVE('',#127,#315,#370,.T.);
#370 = CIRCLE('',#371,4.);
#371 = AXIS2_PLACEMENT_3D('',#372,#373,#374);
#372 = CARTESIAN_POINT('',(143.5,201.,41.));
#373 = DIRECTION('',(-1.,1.110223024625E-16,0.));
#374 = DIRECTION('',(0.,0.,1.));
#375 = ORIENTED_EDGE('',*,*,#134,.T.);
#376 = ORIENTED_EDGE('',*,*,#314,.T.);
#377 = PLANE('',#378);
#378 = AXIS2_PLACEMENT_3D('',#379,#380,#381);
#379 = CARTESIAN_POINT('',(143.5,197.,35.));
#380 = DIRECTION('',(1.,-1.110223024625E-16,-0.));
#381 = DIRECTION('',(0.,0.,-1.));
#382 = ADVANCED_FACE('',(#383),#401,.T.);
#383 = FACE_BOUND('',#384,.F.);
#384 = EDGE_LOOP('',(#385,#386,#387,#395));
#385 = ORIENTED_EDGE('',*,*,#345,.F.);
#386 = ORIENTED_EDGE('',*,*,#118,.T.);
#387 = ORIENTED_EDGE('',*,*,#388,.T.);
#388 = EDGE_CURVE('',#111,#389,#391,.T.);
#389 = VERTEX_POINT('',#390);
#390 = CARTESIAN_POINT('',(146.,205.,41.));
#391 = LINE('',#392,#393);
#392 = CARTESIAN_POINT('',(146.,205.,35.));
#393 = VECTOR('',#394,1.);
#394 = DIRECTION('',(0.,0.,1.));
#395 = ORIENTED_EDGE('',*,*,#396,.F.);
#396 = EDGE_CURVE('',#346,#389,#397,.T.);
#397 = LINE('',#398,#399);
#398 = CARTESIAN_POINT('',(143.5,205.,41.));
#399 = VECTOR('',#400,1.);
#400 = DIRECTION('',(1.,-1.110223024625E-16,-0.));
#401 = PLANE('',#402);
#402 = AXIS2_PLACEMENT_3D('',#403,#404,#405);
#403 = CARTESIAN_POINT('',(143.5,205.,35.));
#404 = DIRECTION('',(1.110223024625E-16,1.,0.));
#405 = DIRECTION('',(0.,0.,-1.));
#406 = ADVANCED_FACE('',(#407),#426,.T.);
#407 = FACE_BOUND('',#408,.F.);
#408 = EDGE_LOOP('',(#409,#417,#418,#419,#420));
#409 = ORIENTED_EDGE('',*,*,#410,.F.);
#410 = EDGE_CURVE('',#157,#411,#413,.T.);
#411 = VERTEX_POINT('',#412);
#412 = CARTESIAN_POINT('',(146.,201.,13.));
#413 = LINE('',#414,#415);
#414 = CARTESIAN_POINT('',(146.,193.,13.));
#415 = VECTOR('',#416,1.);
#416 = DIRECTION('',(1.110223024625E-16,1.,0.));
#417 = ORIENTED_EDGE('',*,*,#221,.T.);
#418 = ORIENTED_EDGE('',*,*,#213,.T.);
#419 = ORIENTED_EDGE('',*,*,#205,.F.);
#420 = ORIENTED_EDGE('',*,*,#421,.F.);
#421 = EDGE_CURVE('',#411,#198,#422,.T.);
#422 = LINE('',#423,#424);
#423 = CARTESIAN_POINT('',(146.,193.,13.));
#424 = VECTOR('',#425,1.);
#425 = DIRECTION('',(1.110223024625E-16,1.,0.));
#426 = PLANE('',#427);
#427 = AXIS2_PLACEMENT_3D('',#428,#429,#430);
#428 = CARTESIAN_POINT('',(146.,193.,13.));
#429 = DIRECTION('',(1.,-1.110223024625E-16,-0.));
#430 = DIRECTION('',(0.,0.,-1.));
#431 = ADVANCED_FACE('',(#432),#451,.T.);
#432 = FACE_BOUND('',#433,.F.);
#433 = EDGE_LOOP('',(#434,#435,#443,#449,#450));
#434 = ORIENTED_EDGE('',*,*,#166,.T.);
#435 = ORIENTED_EDGE('',*,*,#436,.T.);
#436 = EDGE_CURVE('',#93,#437,#439,.T.);
#437 = VERTEX_POINT('',#438);
#438 = CARTESIAN_POINT('',(146.,201.,37.));
#439 = LINE('',#440,#441);
#440 = CARTESIAN_POINT('',(146.,193.,37.));
#441 = VECTOR('',#442,1.);
#442 = DIRECTION('',(1.110223024625E-16,1.,0.));
#443 = ORIENTED_EDGE('',*,*,#444,.T.);
#444 = EDGE_CURVE('',#437,#111,#445,.T.);
#445 = LINE('',#446,#447);
#446 = CARTESIAN_POINT('',(146.,193.,37.));
#447 = VECTOR('',#448,1.);
#448 = DIRECTION('',(1.110223024625E-16,1.,0.));
#449 = ORIENTED_EDGE('',*,*,#182,.F.);
#450 = ORIENTED_EDGE('',*,*,#174,.F.);
#451 = PLANE('',#452);
#452 = AXIS2_PLACEMENT_3D('',#453,#454,#455);
#453 = CARTESIAN_POINT('',(146.,193.,13.));
#454 = DIRECTION('',(1.,-1.110223024625E-16,-0.));
#455 = DIRECTION('',(0.,0.,-1.));
#456 = ADVANCED_FACE('',(#457),#483,.T.);
#457 = FACE_BOUND('',#458,.F.);
#458 = EDGE_LOOP('',(#459,#470,#476,#477));
#459 = ORIENTED_EDGE('',*,*,#460,.F.);
#460 = EDGE_CURVE('',#461,#463,#465,.T.);
#461 = VERTEX_POINT('',#462);
#462 = CARTESIAN_POINT('',(152.8,202.11803398875,26.));
#463 = VERTEX_POINT('',#464);
#464 = CARTESIAN_POINT('',(152.8,199.88196601125,26.));
#465 = CIRCLE('',#466,1.5);
#466 = AXIS2_PLACEMENT_3D('',#467,#468,#469);
#467 = CARTESIAN_POINT('',(152.8,201.,25.));
#468 = DIRECTION('',(-1.,1.110223024625E-16,0.));
#469 = DIRECTION('',(0.,0.,1.));
#470 = ORIENTED_EDGE('',*,*,#471,.F.);
#471 = EDGE_CURVE('',#230,#461,#472,.T.);
#472 = LINE('',#473,#474);
#473 = CARTESIAN_POINT('',(143.5,202.11803398875,26.));
#474 = VECTOR('',#475,1.);
#475 = DIRECTION('',(1.,-1.110223024625E-16,-0.));
#476 = ORIENTED_EDGE('',*,*,#229,.T.);
#477 = ORIENTED_EDGE('',*,*,#478,.T.);
#478 = EDGE_CURVE('',#232,#463,#479,.T.);
#479 = LINE('',#480,#481);
#480 = CARTESIAN_POINT('',(143.5,199.88196601125,26.));
#481 = VECTOR('',#482,1.);
#482 = DIRECTION('',(1.,-1.110223024625E-16,-0.));
#483 = CYLINDRICAL_SURFACE('',#484,1.5);
#484 = AXIS2_PLACEMENT_3D('',#485,#486,#487);
#485 = CARTESIAN_POINT('',(143.5,201.,25.));
#486 = DIRECTION('',(1.,-1.110223024625E-16,-0.));
#487 = DIRECTION('',(0.,0.,1.));
#488 = ADVANCED_FACE('',(#489),#500,.T.);
#489 = FACE_BOUND('',#490,.F.);
#490 = EDGE_LOOP('',(#491,#492,#493,#494));
#491 = ORIENTED_EDGE('',*,*,#478,.F.);
#492 = ORIENTED_EDGE('',*,*,#240,.T.);
#493 = ORIENTED_EDGE('',*,*,#471,.T.);
#494 = ORIENTED_EDGE('',*,*,#495,.F.);
#495 = EDGE_CURVE('',#463,#461,#496,.T.);
#496 = LINE('',#497,#498);
#497 = CARTESIAN_POINT('',(152.8,199.75,26.));
#498 = VECTOR('',#499,1.);
#499 = DIRECTION('',(1.110223024625E-16,1.,0.));
#500 = PLANE('',#501);
#501 = AXIS2_PLACEMENT_3D('',#502,#503,#504);
#502 = CARTESIAN_POINT('',(143.,198.5,26.));
#503 = DIRECTION('',(0.,0.,1.));
#504 = DIRECTION('',(-1.110223024625E-16,-1.,0.));
#505 = ADVANCED_FACE('',(#506),#531,.F.);
#506 = FACE_BOUND('',#507,.T.);
#507 = EDGE_LOOP('',(#508,#516,#524,#530));
#508 = ORIENTED_EDGE('',*,*,#509,.F.);
#509 = EDGE_CURVE('',#510,#281,#512,.T.);
#510 = VERTEX_POINT('',#511);
#511 = CARTESIAN_POINT('',(143.5,197.,9.));
#512 = LINE('',#513,#514);
#513 = CARTESIAN_POINT('',(143.5,197.,9.));
#514 = VECTOR('',#515,1.);
#515 = DIRECTION('',(0.,0.,1.));
#516 = ORIENTED_EDGE('',*,*,#517,.T.);
#517 = EDGE_CURVE('',#510,#518,#520,.T.);
#518 = VERTEX_POINT('',#519);
#519 = CARTESIAN_POINT('',(146.,197.,9.));
#520 = LINE('',#521,#522);
#521 = CARTESIAN_POINT('',(143.5,197.,9.));
#522 = VECTOR('',#523,1.);
#523 = DIRECTION('',(1.,-1.110223024625E-16,-0.));
#524 = ORIENTED_EDGE('',*,*,#525,.T.);
#525 = EDGE_CURVE('',#518,#157,#526,.T.);
#526 = LINE('',#527,#528);
#527 = CARTESIAN_POINT('',(146.,197.,9.));
#528 = VECTOR('',#529,1.);
#529 = DIRECTION('',(0.,0.,1.));
#530 = ORIENTED_EDGE('',*,*,#288,.F.);
#531 = PLANE('',#532);
#532 = AXIS2_PLACEMENT_3D('',#533,#534,#535);
#533 = CARTESIAN_POINT('',(143.5,197.,9.));
#534 = DIRECTION('',(1.110223024625E-16,1.,0.));
#535 = DIRECTION('',(0.,0.,-1.));
#536 = ADVANCED_FACE('',(#537),#555,.F.);
#537 = FACE_BOUND('',#538,.T.);
#538 = EDGE_LOOP('',(#539,#547,#554));
#539 = ORIENTED_EDGE('',*,*,#540,.F.);
#540 = EDGE_CURVE('',#541,#265,#543,.T.);
#541 = VERTEX_POINT('',#542);
#542 = CARTESIAN_POINT('',(143.5,205.,9.));
#543 = LINE('',#544,#545);
#544 = CARTESIAN_POINT('',(143.5,205.,9.));
#545 = VECTOR('',#546,1.);
#546 = DIRECTION('',(0.,0.,1.));
#547 = ORIENTED_EDGE('',*,*,#548,.F.);
#548 = EDGE_CURVE('',#273,#541,#549,.T.);
#549 = CIRCLE('',#550,4.);
#550 = AXIS2_PLACEMENT_3D('',#551,#552,#553);
#551 = CARTESIAN_POINT('',(143.5,201.,9.));
#552 = DIRECTION('',(-1.,1.110223024625E-16,0.));
#553 = DIRECTION('',(0.,0.,1.));
#554 = ORIENTED_EDGE('',*,*,#272,.F.);
#555 = PLANE('',#556);
#556 = AXIS2_PLACEMENT_3D('',#557,#558,#559);
#557 = CARTESIAN_POINT('',(143.5,197.,9.));
#558 = DIRECTION('',(1.,-1.110223024625E-16,-0.));
#559 = DIRECTION('',(0.,0.,-1.));
#560 = ADVANCED_FACE('',(#561),#572,.F.);
#561 = FACE_BOUND('',#562,.T.);
#562 = EDGE_LOOP('',(#563,#570,#571));
#563 = ORIENTED_EDGE('',*,*,#564,.F.);
#564 = EDGE_CURVE('',#510,#273,#565,.T.);
#565 = CIRCLE('',#566,4.);
#566 = AXIS2_PLACEMENT_3D('',#567,#568,#569);
#567 = CARTESIAN_POINT('',(143.5,201.,9.));
#568 = DIRECTION('',(-1.,1.110223024625E-16,0.));
#569 = DIRECTION('',(0.,0.,1.));
#570 = ORIENTED_EDGE('',*,*,#509,.T.);
#571 = ORIENTED_EDGE('',*,*,#280,.F.);
#572 = PLANE('',#573);
#573 = AXIS2_PLACEMENT_3D('',#574,#575,#576);
#574 = CARTESIAN_POINT('',(143.5,197.,9.));
#575 = DIRECTION('',(1.,-1.110223024625E-16,-0.));
#576 = DIRECTION('',(0.,0.,-1.));
#577 = ADVANCED_FACE('',(#578),#596,.T.);
#578 = FACE_BOUND('',#579,.F.);
#579 = EDGE_LOOP('',(#580,#581,#589,#595));
#580 = ORIENTED_EDGE('',*,*,#540,.F.);
#581 = ORIENTED_EDGE('',*,*,#582,.T.);
#582 = EDGE_CURVE('',#541,#583,#585,.T.);
#583 = VERTEX_POINT('',#584);
#584 = CARTESIAN_POINT('',(146.,205.,9.));
#585 = LINE('',#586,#587);
#586 = CARTESIAN_POINT('',(143.5,205.,9.));
#587 = VECTOR('',#588,1.);
#588 = DIRECTION('',(1.,-1.110223024625E-16,-0.));
#589 = ORIENTED_EDGE('',*,*,#590,.T.);
#590 = EDGE_CURVE('',#583,#198,#591,.T.);
#591 = LINE('',#592,#593);
#592 = CARTESIAN_POINT('',(146.,205.,9.));
#593 = VECTOR('',#594,1.);
#594 = DIRECTION('',(0.,0.,1.));
#595 = ORIENTED_EDGE('',*,*,#264,.F.);
#596 = PLANE('',#597);
#597 = AXIS2_PLACEMENT_3D('',#598,#599,#600);
#598 = CARTESIAN_POINT('',(143.5,205.,9.));
#599 = DIRECTION('',(1.110223024625E-16,1.,0.));
#600 = DIRECTION('',(0.,0.,-1.));
#601 = ADVANCED_FACE('',(#602),#629,.T.);
#602 = FACE_BOUND('',#603,.F.);
#603 = EDGE_LOOP('',(#604,#614,#621,#622));
#604 = ORIENTED_EDGE('',*,*,#605,.T.);
#605 = EDGE_CURVE('',#606,#608,#610,.T.);
#606 = VERTEX_POINT('',#607);
#607 = CARTESIAN_POINT('',(143.5,201.,45.));
#608 = VERTEX_POINT('',#609);
#609 = CARTESIAN_POINT('',(146.,201.,45.));
#610 = LINE('',#611,#612);
#611 = CARTESIAN_POINT('',(143.5,201.,45.));
#612 = VECTOR('',#613,1.);
#613 = DIRECTION('',(1.,-1.110223024625E-16,-0.));
#614 = ORIENTED_EDGE('',*,*,#615,.F.);
#615 = EDGE_CURVE('',#324,#608,#616,.T.);
#616 = CIRCLE('',#617,4.);
#617 = AXIS2_PLACEMENT_3D('',#618,#619,#620);
#618 = CARTESIAN_POINT('',(146.,201.,41.));
#619 = DIRECTION('',(-1.,1.110223024625E-16,0.));
#620 = DIRECTION('',(0.,0.,1.));
#621 = ORIENTED_EDGE('',*,*,#331,.F.);
#622 = ORIENTED_EDGE('',*,*,#623,.T.);
#623 = EDGE_CURVE('',#315,#606,#624,.T.);
#624 = CIRCLE('',#625,4.);
#625 = AXIS2_PLACEMENT_3D('',#626,#627,#628);
#626 = CARTESIAN_POINT('',(143.5,201.,41.));
#627 = DIRECTION('',(-1.,1.110223024625E-16,0.));
#628 = DIRECTION('',(0.,0.,1.));
#629 = CYLINDRICAL_SURFACE('',#630,4.);
#630 = AXIS2_PLACEMENT_3D('',#631,#632,#633);
#631 = CARTESIAN_POINT('',(143.5,201.,41.));
#632 = DIRECTION('',(1.,-1.110223024625E-16,-0.));
#633 = DIRECTION('',(0.,0.,1.));
#634 = ADVANCED_FACE('',(#635),#646,.T.);
#635 = FACE_BOUND('',#636,.F.);
#636 = EDGE_LOOP('',(#637,#638,#639));
#637 = ORIENTED_EDGE('',*,*,#436,.F.);
#638 = ORIENTED_EDGE('',*,*,#323,.T.);
#639 = ORIENTED_EDGE('',*,*,#640,.F.);
#640 = EDGE_CURVE('',#437,#324,#641,.T.);
#641 = CIRCLE('',#642,4.);
#642 = AXIS2_PLACEMENT_3D('',#643,#644,#645);
#643 = CARTESIAN_POINT('',(146.,201.,41.));
#644 = DIRECTION('',(-1.,1.110223024625E-16,0.));
#645 = DIRECTION('',(0.,0.,1.));
#646 = PLANE('',#647);
#647 = AXIS2_PLACEMENT_3D('',#648,#649,#650);
#648 = CARTESIAN_POINT('',(146.,197.,35.));
#649 = DIRECTION('',(1.,-1.110223024625E-16,-0.));
#650 = DIRECTION('',(0.,0.,-1.));
#651 = ADVANCED_FACE('',(#652),#679,.F.);
#652 = FACE_BOUND('',#653,.T.);
#653 = EDGE_LOOP('',(#654,#655,#663,#672,#678));
#654 = ORIENTED_EDGE('',*,*,#369,.T.);
#655 = ORIENTED_EDGE('',*,*,#656,.T.);
#656 = EDGE_CURVE('',#315,#657,#659,.T.);
#657 = VERTEX_POINT('',#658);
#658 = CARTESIAN_POINT('',(143.5,199.,41.));
#659 = LINE('',#660,#661);
#660 = CARTESIAN_POINT('',(143.5,197.,41.));
#661 = VECTOR('',#662,1.);
#662 = DIRECTION('',(1.110223024625E-16,1.,0.));
#663 = ORIENTED_EDGE('',*,*,#664,.F.);
#664 = EDGE_CURVE('',#665,#657,#667,.T.);
#665 = VERTEX_POINT('',#666);
#666 = CARTESIAN_POINT('',(143.5,203.,41.));
#667 = CIRCLE('',#668,2.);
#668 = AXIS2_PLACEMENT_3D('',#669,#670,#671);
#669 = CARTESIAN_POINT('',(143.5,201.,41.));
#670 = DIRECTION('',(-1.,1.110223024625E-16,0.));
#671 = DIRECTION('',(0.,0.,1.));
#672 = ORIENTED_EDGE('',*,*,#673,.T.);
#673 = EDGE_CURVE('',#665,#346,#674,.T.);
#674 = LINE('',#675,#676);
#675 = CARTESIAN_POINT('',(143.5,197.,41.));
#676 = VECTOR('',#677,1.);
#677 = DIRECTION('',(1.110223024625E-16,1.,0.));
#678 = ORIENTED_EDGE('',*,*,#354,.T.);
#679 = PLANE('',#680);
#680 = AXIS2_PLACEMENT_3D('',#681,#682,#683);
#681 = CARTESIAN_POINT('',(143.5,197.,35.));
#682 = DIRECTION('',(1.,-1.110223024625E-16,-0.));
#683 = DIRECTION('',(0.,0.,-1.));
#684 = ADVANCED_FACE('',(#685),#703,.T.);
#685 = FACE_BOUND('',#686,.F.);
#686 = EDGE_LOOP('',(#687,#694,#695,#702));
#687 = ORIENTED_EDGE('',*,*,#688,.F.);
#688 = EDGE_CURVE('',#608,#389,#689,.T.);
#689 = CIRCLE('',#690,4.);
#690 = AXIS2_PLACEMENT_3D('',#691,#692,#693);
#691 = CARTESIAN_POINT('',(146.,201.,41.));
#692 = DIRECTION('',(-1.,1.110223024625E-16,0.));
#693 = DIRECTION('',(0.,0.,1.));
#694 = ORIENTED_EDGE('',*,*,#605,.F.);
#695 = ORIENTED_EDGE('',*,*,#696,.T.);
#696 = EDGE_CURVE('',#606,#346,#697,.T.);
#697 = CIRCLE('',#698,4.);
#698 = AXIS2_PLACEMENT_3D('',#699,#700,#701);
#699 = CARTESIAN_POINT('',(143.5,201.,41.));
#700 = DIRECTION('',(-1.,1.110223024625E-16,0.));
#701 = DIRECTION('',(0.,0.,1.));
#702 = ORIENTED_EDGE('',*,*,#396,.T.);
#703 = CYLINDRICAL_SURFACE('',#704,4.);
#704 = AXIS2_PLACEMENT_3D('',#705,#706,#707);
#705 = CARTESIAN_POINT('',(143.5,201.,41.));
#706 = DIRECTION('',(1.,-1.110223024625E-16,-0.));
#707 = DIRECTION('',(0.,0.,1.));
#708 = ADVANCED_FACE('',(#709),#720,.T.);
#709 = FACE_BOUND('',#710,.F.);
#710 = EDGE_LOOP('',(#711,#712,#719));
#711 = ORIENTED_EDGE('',*,*,#444,.F.);
#712 = ORIENTED_EDGE('',*,*,#713,.F.);
#713 = EDGE_CURVE('',#389,#437,#714,.T.);
#714 = CIRCLE('',#715,4.);
#715 = AXIS2_PLACEMENT_3D('',#716,#717,#718);
#716 = CARTESIAN_POINT('',(146.,201.,41.));
#717 = DIRECTION('',(-1.,1.110223024625E-16,0.));
#718 = DIRECTION('',(0.,0.,1.));
#719 = ORIENTED_EDGE('',*,*,#388,.F.);
#720 = PLANE('',#721);
#721 = AXIS2_PLACEMENT_3D('',#722,#723,#724);
#722 = CARTESIAN_POINT('',(146.,197.,35.));
#723 = DIRECTION('',(1.,-1.110223024625E-16,-0.));
#724 = DIRECTION('',(0.,0.,-1.));
#725 = ADVANCED_FACE('',(#726),#737,.T.);
#726 = FACE_BOUND('',#727,.F.);
#727 = EDGE_LOOP('',(#728,#735,#736));
#728 = ORIENTED_EDGE('',*,*,#729,.F.);
#729 = EDGE_CURVE('',#518,#411,#730,.T.);
#730 = CIRCLE('',#731,4.);
#731 = AXIS2_PLACEMENT_3D('',#732,#733,#734);
#732 = CARTESIAN_POINT('',(146.,201.,9.));
#733 = DIRECTION('',(-1.,1.110223024625E-16,0.));
#734 = DIRECTION('',(0.,0.,1.));
#735 = ORIENTED_EDGE('',*,*,#525,.T.);
#736 = ORIENTED_EDGE('',*,*,#410,.T.);
#737 = PLANE('',#738);
#738 = AXIS2_PLACEMENT_3D('',#739,#740,#741);
#739 = CARTESIAN_POINT('',(146.,197.,9.));
#740 = DIRECTION('',(1.,-1.110223024625E-16,-0.));
#741 = DIRECTION('',(0.,0.,-1.));
#742 = ADVANCED_FACE('',(#743),#754,.T.);
#743 = FACE_BOUND('',#744,.F.);
#744 = EDGE_LOOP('',(#745,#746,#753));
#745 = ORIENTED_EDGE('',*,*,#590,.F.);
#746 = ORIENTED_EDGE('',*,*,#747,.F.);
#747 = EDGE_CURVE('',#411,#583,#748,.T.);
#748 = CIRCLE('',#749,4.);
#749 = AXIS2_PLACEMENT_3D('',#750,#751,#752);
#750 = CARTESIAN_POINT('',(146.,201.,9.));
#751 = DIRECTION('',(-1.,1.110223024625E-16,0.));
#752 = DIRECTION('',(0.,0.,1.));
#753 = ORIENTED_EDGE('',*,*,#421,.T.);
#754 = PLANE('',#755);
#755 = AXIS2_PLACEMENT_3D('',#756,#757,#758);
#756 = CARTESIAN_POINT('',(146.,197.,9.));
#757 = DIRECTION('',(1.,-1.110223024625E-16,-0.));
#758 = DIRECTION('',(0.,0.,-1.));
#759 = ADVANCED_FACE('',(#760),#764,.T.);
#760 = FACE_BOUND('',#761,.F.);
#761 = EDGE_LOOP('',(#762,#763));
#762 = ORIENTED_EDGE('',*,*,#495,.T.);
#763 = ORIENTED_EDGE('',*,*,#460,.T.);
#764 = PLANE('',#765);
#765 = AXIS2_PLACEMENT_3D('',#766,#767,#768);
#766 = CARTESIAN_POINT('',(152.8,201.,25.));
#767 = DIRECTION('',(1.,-1.110223024625E-16,-0.));
#768 = DIRECTION('',(0.,0.,-1.));
#769 = ADVANCED_FACE('',(#770),#788,.T.);
#770 = FACE_BOUND('',#771,.F.);
#771 = EDGE_LOOP('',(#772,#779,#780,#787));
#772 = ORIENTED_EDGE('',*,*,#773,.F.);
#773 = EDGE_CURVE('',#583,#518,#774,.T.);
#774 = CIRCLE('',#775,4.);
#775 = AXIS2_PLACEMENT_3D('',#776,#777,#778);
#776 = CARTESIAN_POINT('',(146.,201.,9.));
#777 = DIRECTION('',(-1.,1.110223024625E-16,0.));
#778 = DIRECTION('',(0.,0.,1.));
#779 = ORIENTED_EDGE('',*,*,#582,.F.);
#780 = ORIENTED_EDGE('',*,*,#781,.T.);
#781 = EDGE_CURVE('',#541,#510,#782,.T.);
#782 = CIRCLE('',#783,4.);
#783 = AXIS2_PLACEMENT_3D('',#784,#785,#786);
#784 = CARTESIAN_POINT('',(143.5,201.,9.));
#785 = DIRECTION('',(-1.,1.110223024625E-16,0.));
#786 = DIRECTION('',(0.,0.,1.));
#787 = ORIENTED_EDGE('',*,*,#517,.T.);
#788 = CYLINDRICAL_SURFACE('',#789,4.);
#789 = AXIS2_PLACEMENT_3D('',#790,#791,#792);
#790 = CARTESIAN_POINT('',(143.5,201.,9.));
#791 = DIRECTION('',(1.,-1.110223024625E-16,-0.));
#792 = DIRECTION('',(0.,0.,1.));
#793 = ADVANCED_FACE('',(#794),#830,.F.);
#794 = FACE_BOUND('',#795,.T.);
#795 = EDGE_LOOP('',(#796,#797,#798,#806,#815,#824));
#796 = ORIENTED_EDGE('',*,*,#564,.T.);
#797 = ORIENTED_EDGE('',*,*,#548,.T.);
#798 = ORIENTED_EDGE('',*,*,#799,.F.);
#799 = EDGE_CURVE('',#800,#541,#802,.T.);
#800 = VERTEX_POINT('',#801);
#801 = CARTESIAN_POINT('',(143.5,203.,9.));
#802 = LINE('',#803,#804);
#803 = CARTESIAN_POINT('',(143.5,197.,9.));
#804 = VECTOR('',#805,1.);
#805 = DIRECTION('',(1.110223024625E-16,1.,0.));
#806 = ORIENTED_EDGE('',*,*,#807,.F.);
#807 = EDGE_CURVE('',#808,#800,#810,.T.);
#808 = VERTEX_POINT('',#809);
#809 = CARTESIAN_POINT('',(143.5,201.,11.));
#810 = CIRCLE('',#811,2.);
#811 = AXIS2_PLACEMENT_3D('',#812,#813,#814);
#812 = CARTESIAN_POINT('',(143.5,201.,9.));
#813 = DIRECTION('',(-1.,1.110223024625E-16,0.));
#814 = DIRECTION('',(0.,0.,1.));
#815 = ORIENTED_EDGE('',*,*,#816,.F.);
#816 = EDGE_CURVE('',#817,#808,#819,.T.);
#817 = VERTEX_POINT('',#818);
#818 = CARTESIAN_POINT('',(143.5,199.,9.));
#819 = CIRCLE('',#820,2.);
#820 = AXIS2_PLACEMENT_3D('',#821,#822,#823);
#821 = CARTESIAN_POINT('',(143.5,201.,9.));
#822 = DIRECTION('',(-1.,1.110223024625E-16,0.));
#823 = DIRECTION('',(0.,0.,1.));
#824 = ORIENTED_EDGE('',*,*,#825,.F.);
#825 = EDGE_CURVE('',#510,#817,#826,.T.);
#826 = LINE('',#827,#828);
#827 = CARTESIAN_POINT('',(143.5,197.,9.));
#828 = VECTOR('',#829,1.);
#829 = DIRECTION('',(1.110223024625E-16,1.,0.));
#830 = PLANE('',#831);
#831 = AXIS2_PLACEMENT_3D('',#832,#833,#834);
#832 = CARTESIAN_POINT('',(143.5,197.,9.));
#833 = DIRECTION('',(1.,-1.110223024625E-16,-0.));
#834 = DIRECTION('',(0.,0.,-1.));
#835 = ADVANCED_FACE('',(#836),#858,.F.);
#836 = FACE_BOUND('',#837,.T.);
#837 = EDGE_LOOP('',(#838,#839,#840,#841,#842,#851));
#838 = ORIENTED_EDGE('',*,*,#656,.F.);
#839 = ORIENTED_EDGE('',*,*,#623,.T.);
#840 = ORIENTED_EDGE('',*,*,#696,.T.);
#841 = ORIENTED_EDGE('',*,*,#673,.F.);
#842 = ORIENTED_EDGE('',*,*,#843,.F.);
#843 = EDGE_CURVE('',#844,#665,#846,.T.);
#844 = VERTEX_POINT('',#845);
#845 = CARTESIAN_POINT('',(143.5,201.,43.));
#846 = CIRCLE('',#847,2.);
#847 = AXIS2_PLACEMENT_3D('',#848,#849,#850);
#848 = CARTESIAN_POINT('',(143.5,201.,41.));
#849 = DIRECTION('',(-1.,1.110223024625E-16,0.));
#850 = DIRECTION('',(0.,0.,1.));
#851 = ORIENTED_EDGE('',*,*,#852,.F.);
#852 = EDGE_CURVE('',#657,#844,#853,.T.);
#853 = CIRCLE('',#854,2.);
#854 = AXIS2_PLACEMENT_3D('',#855,#856,#857);
#855 = CARTESIAN_POINT('',(143.5,201.,41.));
#856 = DIRECTION('',(-1.,1.110223024625E-16,0.));
#857 = DIRECTION('',(0.,0.,1.));
#858 = PLANE('',#859);
#859 = AXIS2_PLACEMENT_3D('',#860,#861,#862);
#860 = CARTESIAN_POINT('',(143.5,201.,41.));
#861 = DIRECTION('',(1.,-1.110223024625E-16,-0.));
#862 = DIRECTION('',(0.,0.,-1.));
#863 = ADVANCED_FACE('',(#864),#900,.T.);
#864 = FACE_BOUND('',#865,.F.);
#865 = EDGE_LOOP('',(#866,#874,#875,#876,#884,#893));
#866 = ORIENTED_EDGE('',*,*,#867,.F.);
#867 = EDGE_CURVE('',#324,#868,#870,.T.);
#868 = VERTEX_POINT('',#869);
#869 = CARTESIAN_POINT('',(146.,199.,41.));
#870 = LINE('',#871,#872);
#871 = CARTESIAN_POINT('',(146.,197.,41.));
#872 = VECTOR('',#873,1.);
#873 = DIRECTION('',(1.110223024625E-16,1.,0.));
#874 = ORIENTED_EDGE('',*,*,#615,.T.);
#875 = ORIENTED_EDGE('',*,*,#688,.T.);
#876 = ORIENTED_EDGE('',*,*,#877,.F.);
#877 = EDGE_CURVE('',#878,#389,#880,.T.);
#878 = VERTEX_POINT('',#879);
#879 = CARTESIAN_POINT('',(146.,203.,41.));
#880 = LINE('',#881,#882);
#881 = CARTESIAN_POINT('',(146.,197.,41.));
#882 = VECTOR('',#883,1.);
#883 = DIRECTION('',(1.110223024625E-16,1.,0.));
#884 = ORIENTED_EDGE('',*,*,#885,.F.);
#885 = EDGE_CURVE('',#886,#878,#888,.T.);
#886 = VERTEX_POINT('',#887);
#887 = CARTESIAN_POINT('',(146.,201.,43.));
#888 = CIRCLE('',#889,2.);
#889 = AXIS2_PLACEMENT_3D('',#890,#891,#892);
#890 = CARTESIAN_POINT('',(146.,201.,41.));
#891 = DIRECTION('',(-1.,1.110223024625E-16,0.));
#892 = DIRECTION('',(0.,0.,1.));
#893 = ORIENTED_EDGE('',*,*,#894,.F.);
#894 = EDGE_CURVE('',#868,#886,#895,.T.);
#895 = CIRCLE('',#896,2.);
#896 = AXIS2_PLACEMENT_3D('',#897,#898,#899);
#897 = CARTESIAN_POINT('',(146.,201.,41.));
#898 = DIRECTION('',(-1.,1.110223024625E-16,0.));
#899 = DIRECTION('',(0.,0.,1.));
#900 = PLANE('',#901);
#901 = AXIS2_PLACEMENT_3D('',#902,#903,#904);
#902 = CARTESIAN_POINT('',(146.,201.,41.));
#903 = DIRECTION('',(1.,-1.110223024625E-16,-0.));
#904 = DIRECTION('',(0.,0.,-1.));
#905 = ADVANCED_FACE('',(#906),#919,.T.);
#906 = FACE_BOUND('',#907,.F.);
#907 = EDGE_LOOP('',(#908,#909,#910,#911,#912));
#908 = ORIENTED_EDGE('',*,*,#877,.T.);
#909 = ORIENTED_EDGE('',*,*,#713,.T.);
#910 = ORIENTED_EDGE('',*,*,#640,.T.);
#911 = ORIENTED_EDGE('',*,*,#867,.T.);
#912 = ORIENTED_EDGE('',*,*,#913,.F.);
#913 = EDGE_CURVE('',#878,#868,#914,.T.);
#914 = CIRCLE('',#915,2.);
#915 = AXIS2_PLACEMENT_3D('',#916,#917,#918);
#916 = CARTESIAN_POINT('',(146.,201.,41.));
#917 = DIRECTION('',(-1.,1.110223024625E-16,0.));
#918 = DIRECTION('',(0.,0.,1.));
#919 = PLANE('',#920);
#920 = AXIS2_PLACEMENT_3D('',#921,#922,#923);
#921 = CARTESIAN_POINT('',(146.,197.,35.));
#922 = DIRECTION('',(1.,-1.110223024625E-16,-0.));
#923 = DIRECTION('',(0.,0.,-1.));
#924 = ADVANCED_FACE('',(#925),#940,.F.);
#925 = FACE_BOUND('',#926,.T.);
#926 = EDGE_LOOP('',(#927,#928,#934,#935,#936,#937,#938,#939));
#927 = ORIENTED_EDGE('',*,*,#885,.F.);
#928 = ORIENTED_EDGE('',*,*,#929,.F.);
#929 = EDGE_CURVE('',#844,#886,#930,.T.);
#930 = LINE('',#931,#932);
#931 = CARTESIAN_POINT('',(142.5,201.,43.));
#932 = VECTOR('',#933,1.);
#933 = DIRECTION('',(1.,-1.110223024625E-16,-0.));
#934 = ORIENTED_EDGE('',*,*,#843,.T.);
#935 = ORIENTED_EDGE('',*,*,#664,.T.);
#936 = ORIENTED_EDGE('',*,*,#852,.T.);
#937 = ORIENTED_EDGE('',*,*,#929,.T.);
#938 = ORIENTED_EDGE('',*,*,#894,.F.);
#939 = ORIENTED_EDGE('',*,*,#913,.F.);
#940 = CYLINDRICAL_SURFACE('',#941,2.);
#941 = AXIS2_PLACEMENT_3D('',#942,#943,#944);
#942 = CARTESIAN_POINT('',(142.5,201.,41.));
#943 = DIRECTION('',(1.,-1.110223024625E-16,-0.));
#944 = DIRECTION('',(0.,0.,1.));
#945 = ADVANCED_FACE('',(#946),#982,.T.);
#946 = FACE_BOUND('',#947,.F.);
#947 = EDGE_LOOP('',(#948,#949,#950,#958,#967,#976));
#948 = ORIENTED_EDGE('',*,*,#729,.T.);
#949 = ORIENTED_EDGE('',*,*,#747,.T.);
#950 = ORIENTED_EDGE('',*,*,#951,.F.);
#951 = EDGE_CURVE('',#952,#583,#954,.T.);
#952 = VERTEX_POINT('',#953);
#953 = CARTESIAN_POINT('',(146.,203.,9.));
#954 = LINE('',#955,#956);
#955 = CARTESIAN_POINT('',(146.,197.,9.));
#956 = VECTOR('',#957,1.);
#957 = DIRECTION('',(1.110223024625E-16,1.,0.));
#958 = ORIENTED_EDGE('',*,*,#959,.F.);
#959 = EDGE_CURVE('',#960,#952,#962,.T.);
#960 = VERTEX_POINT('',#961);
#961 = CARTESIAN_POINT('',(146.,201.,11.));
#962 = CIRCLE('',#963,2.);
#963 = AXIS2_PLACEMENT_3D('',#964,#965,#966);
#964 = CARTESIAN_POINT('',(146.,201.,9.));
#965 = DIRECTION('',(-1.,1.110223024625E-16,0.));
#966 = DIRECTION('',(0.,0.,1.));
#967 = ORIENTED_EDGE('',*,*,#968,.F.);
#968 = EDGE_CURVE('',#969,#960,#971,.T.);
#969 = VERTEX_POINT('',#970);
#970 = CARTESIAN_POINT('',(146.,199.,9.));
#971 = CIRCLE('',#972,2.);
#972 = AXIS2_PLACEMENT_3D('',#973,#974,#975);
#973 = CARTESIAN_POINT('',(146.,201.,9.));
#974 = DIRECTION('',(-1.,1.110223024625E-16,0.));
#975 = DIRECTION('',(0.,0.,1.));
#976 = ORIENTED_EDGE('',*,*,#977,.F.);
#977 = EDGE_CURVE('',#518,#969,#978,.T.);
#978 = LINE('',#979,#980);
#979 = CARTESIAN_POINT('',(146.,197.,9.));
#980 = VECTOR('',#981,1.);
#981 = DIRECTION('',(1.110223024625E-16,1.,0.));
#982 = PLANE('',#983);
#983 = AXIS2_PLACEMENT_3D('',#984,#985,#986);
#984 = CARTESIAN_POINT('',(146.,197.,9.));
#985 = DIRECTION('',(1.,-1.110223024625E-16,-0.));
#986 = DIRECTION('',(0.,0.,-1.));
#987 = ADVANCED_FACE('',(#988),#1000,.T.);
#988 = FACE_BOUND('',#989,.F.);
#989 = EDGE_LOOP('',(#990,#991,#992,#999));
#990 = ORIENTED_EDGE('',*,*,#773,.T.);
#991 = ORIENTED_EDGE('',*,*,#977,.T.);
#992 = ORIENTED_EDGE('',*,*,#993,.F.);
#993 = EDGE_CURVE('',#952,#969,#994,.T.);
#994 = CIRCLE('',#995,2.);
#995 = AXIS2_PLACEMENT_3D('',#996,#997,#998);
#996 = CARTESIAN_POINT('',(146.,201.,9.));
#997 = DIRECTION('',(-1.,1.110223024625E-16,0.));
#998 = DIRECTION('',(0.,0.,1.));
#999 = ORIENTED_EDGE('',*,*,#951,.T.);
#1000 = PLANE('',#1001);
#1001 = AXIS2_PLACEMENT_3D('',#1002,#1003,#1004);
#1002 = CARTESIAN_POINT('',(146.,201.,9.));
#1003 = DIRECTION('',(1.,-1.110223024625E-16,-0.));
#1004 = DIRECTION('',(0.,0.,-1.));
#1005 = ADVANCED_FACE('',(#1006),#1018,.F.);
#1006 = FACE_BOUND('',#1007,.T.);
#1007 = EDGE_LOOP('',(#1008,#1009,#1010,#1017));
#1008 = ORIENTED_EDGE('',*,*,#781,.T.);
#1009 = ORIENTED_EDGE('',*,*,#825,.T.);
#1010 = ORIENTED_EDGE('',*,*,#1011,.F.);
#1011 = EDGE_CURVE('',#800,#817,#1012,.T.);
#1012 = CIRCLE('',#1013,2.);
#1013 = AXIS2_PLACEMENT_3D('',#1014,#1015,#1016);
#1014 = CARTESIAN_POINT('',(143.5,201.,9.));
#1015 = DIRECTION('',(-1.,1.110223024625E-16,0.));
#1016 = DIRECTION('',(0.,0.,1.));
#1017 = ORIENTED_EDGE('',*,*,#799,.T.);
#1018 = PLANE('',#1019);
#1019 = AXIS2_PLACEMENT_3D('',#1020,#1021,#1022);
#1020 = CARTESIAN_POINT('',(143.5,201.,9.));
#1021 = DIRECTION('',(1.,-1.110223024625E-16,-0.));
#1022 = DIRECTION('',(0.,0.,-1.));
#1023 = ADVANCED_FACE('',(#1024),#1039,.F.);
#1024 = FACE_BOUND('',#1025,.T.);
#1025 = EDGE_LOOP('',(#1026,#1027,#1033,#1034,#1035,#1036,#1037,#1038));
#1026 = ORIENTED_EDGE('',*,*,#959,.F.);
#1027 = ORIENTED_EDGE('',*,*,#1028,.F.);
#1028 = EDGE_CURVE('',#808,#960,#1029,.T.);
#1029 = LINE('',#1030,#1031);
#1030 = CARTESIAN_POINT('',(142.5,201.,11.));
#1031 = VECTOR('',#1032,1.);
#1032 = DIRECTION('',(1.,-1.110223024625E-16,-0.));
#1033 = ORIENTED_EDGE('',*,*,#807,.T.);
#1034 = ORIENTED_EDGE('',*,*,#1011,.T.);
#1035 = ORIENTED_EDGE('',*,*,#816,.T.);
#1036 = ORIENTED_EDGE('',*,*,#1028,.T.);
#1037 = ORIENTED_EDGE('',*,*,#968,.F.);
#1038 = ORIENTED_EDGE('',*,*,#993,.F.);
#1039 = CYLINDRICAL_SURFACE('',#1040,2.);
#1040 = AXIS2_PLACEMENT_3D('',#1041,#1042,#1043);
#1041 = CARTESIAN_POINT('',(142.5,201.,9.));
#1042 = DIRECTION('',(1.,-1.110223024625E-16,-0.));
#1043 = DIRECTION('',(0.,0.,1.));
#1044 = ( GEOMETRIC_REPRESENTATION_CONTEXT(3) 
GLOBAL_UNCERTAINTY_ASSIGNED_CONTEXT((#1048)) 
GLOBAL_UNIT_ASSIGNED_CONTEXT((#1045,#1046,#1047)) REPRESENTATION_CONTEXT
('Context #1','3D Context with UNIT and UNCERTAINTY') );
#1045 = ( LENGTH_UNIT() NAMED_UNIT(*) SI_UNIT(.MILLI.,.METRE.) );
#1046 = ( NAMED_UNIT(*) PLANE_ANGLE_UNIT() SI_UNIT($,.RADIAN.) );
#1047 = ( NAMED_UNIT(*) SI_UNIT($,.STERADIAN.) SOLID_ANGLE_UNIT() );
#1048 = UNCERTAINTY_MEASURE_WITH_UNIT(LENGTH_MEASURE(1.E-07),#1045,
  'distance_accuracy_value','confusion accuracy');
#1049 = PRODUCT_RELATED_PRODUCT_CATEGORY('part',$,(#7));
ENDSEC;
END-ISO-10303-21;
