ISO-10303-21;
HEADER;
FILE_DESCRIPTION(('FreeCAD Model'),'2;1');
FILE_NAME('Open CASCADE Shape Model','2026-08-10T11:05:55',('FreeCAD'),(
    'FreeCAD'),'Open CASCADE STEP processor 7.8','FreeCAD','Unknown');
FILE_SCHEMA(('AUTOMOTIVE_DESIGN { 1 0 10303 214 1 1 1 1 }'));
ENDSEC;
DATA;
#1 = APPLICATION_PROTOCOL_DEFINITION('international standard',
  'automotive_design',2000,#2);
#2 = APPLICATION_CONTEXT(
  'core data for automotive mechanical design processes');
#3 = SHAPE_DEFINITION_REPRESENTATION(#4,#10);
#4 = PRODUCT_DEFINITION_SHAPE('','',#5);
#5 = PRODUCT_DEFINITION('design','',#6,#9);
#6 = PRODUCT_DEFINITION_FORMATION('','',#7);
#7 = PRODUCT('Open CASCADE STEP translator 7.8 31',
  'Open CASCADE STEP translator 7.8 31','',(#8));
#8 = PRODUCT_CONTEXT('',#2,'mechanical');
#9 = PRODUCT_DEFINITION_CONTEXT('part definition',#2,'design');
#10 = ADVANCED_BREP_SHAPE_REPRESENTATION('',(#11,#15),#231);
#11 = AXIS2_PLACEMENT_3D('',#12,#13,#14);
#12 = CARTESIAN_POINT('',(0.,0.,0.));
#13 = DIRECTION('',(0.,0.,1.));
#14 = DIRECTION('',(1.,0.,-0.));
#15 = MANIFOLD_SOLID_BREP('',#16);
#16 = CLOSED_SHELL('',(#17,#73,#104,#128,#152,#176,#200,#217));
#17 = ADVANCED_FACE('',(#18),#68,.F.);
#18 = FACE_BOUND('',#19,.F.);
#19 = EDGE_LOOP('',(#20,#30,#38,#46,#54,#62));
#20 = ORIENTED_EDGE('',*,*,#21,.F.);
#21 = EDGE_CURVE('',#22,#24,#26,.T.);
#22 = VERTEX_POINT('',#23);
#23 = CARTESIAN_POINT('',(178.5,87.5,15.5));
#24 = VERTEX_POINT('',#25);
#25 = CARTESIAN_POINT('',(178.5,87.5,17.3));
#26 = LINE('',#27,#28);
#27 = CARTESIAN_POINT('',(178.5,87.5,15.5));
#28 = VECTOR('',#29,1.);
#29 = DIRECTION('',(0.,0.,1.));
#30 = ORIENTED_EDGE('',*,*,#31,.T.);
#31 = EDGE_CURVE('',#22,#32,#34,.T.);
#32 = VERTEX_POINT('',#33);
#33 = CARTESIAN_POINT('',(123.5,87.5,15.5));
#34 = LINE('',#35,#36);
#35 = CARTESIAN_POINT('',(178.5,87.5,15.5));
#36 = VECTOR('',#37,1.);
#37 = DIRECTION('',(-1.,1.110223024625E-16,0.));
#38 = ORIENTED_EDGE('',*,*,#39,.T.);
#39 = EDGE_CURVE('',#32,#40,#42,.T.);
#40 = VERTEX_POINT('',#41);
#41 = CARTESIAN_POINT('',(123.5,87.5,17.3));
#42 = LINE('',#43,#44);
#43 = CARTESIAN_POINT('',(123.5,87.5,15.5));
#44 = VECTOR('',#45,1.);
#45 = DIRECTION('',(0.,0.,1.));
#46 = ORIENTED_EDGE('',*,*,#47,.T.);
#47 = EDGE_CURVE('',#40,#48,#50,.T.);
#48 = VERTEX_POINT('',#49);
#49 = CARTESIAN_POINT('',(124.7,87.5,18.5));
#50 = LINE('',#51,#52);
#51 = CARTESIAN_POINT('',(137.1,87.5,30.9));
#52 = VECTOR('',#53,1.);
#53 = DIRECTION('',(0.707106781187,-7.850462293419E-17,0.707106781187));
#54 = ORIENTED_EDGE('',*,*,#55,.F.);
#55 = EDGE_CURVE('',#56,#48,#58,.T.);
#56 = VERTEX_POINT('',#57);
#57 = CARTESIAN_POINT('',(177.3,87.5,18.5));
#58 = LINE('',#59,#60);
#59 = CARTESIAN_POINT('',(178.5,87.5,18.5));
#60 = VECTOR('',#61,1.);
#61 = DIRECTION('',(-1.,1.110223024625E-16,0.));
#62 = ORIENTED_EDGE('',*,*,#63,.F.);
#63 = EDGE_CURVE('',#24,#56,#64,.T.);
#64 = LINE('',#65,#66);
#65 = CARTESIAN_POINT('',(178.65,87.5,17.15));
#66 = VECTOR('',#67,1.);
#67 = DIRECTION('',(-0.707106781187,7.850462293419E-17,0.707106781187));
#68 = PLANE('',#69);
#69 = AXIS2_PLACEMENT_3D('',#70,#71,#72);
#70 = CARTESIAN_POINT('',(178.5,87.5,15.5));
#71 = DIRECTION('',(1.110223024625E-16,1.,0.));
#72 = DIRECTION('',(0.,0.,1.));
#73 = ADVANCED_FACE('',(#74),#99,.F.);
#74 = FACE_BOUND('',#75,.F.);
#75 = EDGE_LOOP('',(#76,#86,#92,#93));
#76 = ORIENTED_EDGE('',*,*,#77,.F.);
#77 = EDGE_CURVE('',#78,#80,#82,.T.);
#78 = VERTEX_POINT('',#79);
#79 = CARTESIAN_POINT('',(178.5,175.5,15.5));
#80 = VERTEX_POINT('',#81);
#81 = CARTESIAN_POINT('',(178.5,175.5,17.3));
#82 = LINE('',#83,#84);
#83 = CARTESIAN_POINT('',(178.5,175.5,15.5));
#84 = VECTOR('',#85,1.);
#85 = DIRECTION('',(0.,0.,1.));
#86 = ORIENTED_EDGE('',*,*,#87,.F.);
#87 = EDGE_CURVE('',#22,#78,#88,.T.);
#88 = LINE('',#89,#90);
#89 = CARTESIAN_POINT('',(178.5,87.5,15.5));
#90 = VECTOR('',#91,1.);
#91 = DIRECTION('',(1.110223024625E-16,1.,0.));
#92 = ORIENTED_EDGE('',*,*,#21,.T.);
#93 = ORIENTED_EDGE('',*,*,#94,.T.);
#94 = EDGE_CURVE('',#24,#80,#95,.T.);
#95 = LINE('',#96,#97);
#96 = CARTESIAN_POINT('',(178.5,87.5,17.3));
#97 = VECTOR('',#98,1.);
#98 = DIRECTION('',(1.110223024625E-16,1.,0.));
#99 = PLANE('',#100);
#100 = AXIS2_PLACEMENT_3D('',#101,#102,#103);
#101 = CARTESIAN_POINT('',(178.5,87.5,15.5));
#102 = DIRECTION('',(-1.,1.110223024625E-16,0.));
#103 = DIRECTION('',(0.,0.,1.));
#104 = ADVANCED_FACE('',(#105),#123,.F.);
#105 = FACE_BOUND('',#106,.T.);
#106 = EDGE_LOOP('',(#107,#108,#109,#117));
#107 = ORIENTED_EDGE('',*,*,#63,.F.);
#108 = ORIENTED_EDGE('',*,*,#94,.T.);
#109 = ORIENTED_EDGE('',*,*,#110,.T.);
#110 = EDGE_CURVE('',#80,#111,#113,.T.);
#111 = VERTEX_POINT('',#112);
#112 = CARTESIAN_POINT('',(177.3,175.5,18.5));
#113 = LINE('',#114,#115);
#114 = CARTESIAN_POINT('',(178.65,175.5,17.15));
#115 = VECTOR('',#116,1.);
#116 = DIRECTION('',(-0.707106781187,7.850462293419E-17,0.707106781187)
  );
#117 = ORIENTED_EDGE('',*,*,#118,.F.);
#118 = EDGE_CURVE('',#56,#111,#119,.T.);
#119 = LINE('',#120,#121);
#120 = CARTESIAN_POINT('',(177.3,87.5,18.5));
#121 = VECTOR('',#122,1.);
#122 = DIRECTION('',(1.110223024625E-16,1.,0.));
#123 = PLANE('',#124);
#124 = AXIS2_PLACEMENT_3D('',#125,#126,#127);
#125 = CARTESIAN_POINT('',(177.9,87.5,17.9));
#126 = DIRECTION('',(-0.707106781187,7.850462293419E-17,-0.707106781187)
  );
#127 = DIRECTION('',(-1.110223024625E-16,-1.,0.));
#128 = ADVANCED_FACE('',(#129),#147,.F.);
#129 = FACE_BOUND('',#130,.F.);
#130 = EDGE_LOOP('',(#131,#132,#133,#141));
#131 = ORIENTED_EDGE('',*,*,#31,.F.);
#132 = ORIENTED_EDGE('',*,*,#87,.T.);
#133 = ORIENTED_EDGE('',*,*,#134,.T.);
#134 = EDGE_CURVE('',#78,#135,#137,.T.);
#135 = VERTEX_POINT('',#136);
#136 = CARTESIAN_POINT('',(123.5,175.5,15.5));
#137 = LINE('',#138,#139);
#138 = CARTESIAN_POINT('',(178.5,175.5,15.5));
#139 = VECTOR('',#140,1.);
#140 = DIRECTION('',(-1.,1.110223024625E-16,0.));
#141 = ORIENTED_EDGE('',*,*,#142,.F.);
#142 = EDGE_CURVE('',#32,#135,#143,.T.);
#143 = LINE('',#144,#145);
#144 = CARTESIAN_POINT('',(123.5,87.5,15.5));
#145 = VECTOR('',#146,1.);
#146 = DIRECTION('',(1.110223024625E-16,1.,0.));
#147 = PLANE('',#148);
#148 = AXIS2_PLACEMENT_3D('',#149,#150,#151);
#149 = CARTESIAN_POINT('',(178.5,87.5,15.5));
#150 = DIRECTION('',(0.,0.,1.));
#151 = DIRECTION('',(1.110223024625E-16,1.,0.));
#152 = ADVANCED_FACE('',(#153),#171,.T.);
#153 = FACE_BOUND('',#154,.T.);
#154 = EDGE_LOOP('',(#155,#156,#157,#165));
#155 = ORIENTED_EDGE('',*,*,#55,.F.);
#156 = ORIENTED_EDGE('',*,*,#118,.T.);
#157 = ORIENTED_EDGE('',*,*,#158,.T.);
#158 = EDGE_CURVE('',#111,#159,#161,.T.);
#159 = VERTEX_POINT('',#160);
#160 = CARTESIAN_POINT('',(124.7,175.5,18.5));
#161 = LINE('',#162,#163);
#162 = CARTESIAN_POINT('',(178.5,175.5,18.5));
#163 = VECTOR('',#164,1.);
#164 = DIRECTION('',(-1.,1.110223024625E-16,0.));
#165 = ORIENTED_EDGE('',*,*,#166,.F.);
#166 = EDGE_CURVE('',#48,#159,#167,.T.);
#167 = LINE('',#168,#169);
#168 = CARTESIAN_POINT('',(124.7,87.5,18.5));
#169 = VECTOR('',#170,1.);
#170 = DIRECTION('',(1.110223024625E-16,1.,0.));
#171 = PLANE('',#172);
#172 = AXIS2_PLACEMENT_3D('',#173,#174,#175);
#173 = CARTESIAN_POINT('',(178.5,87.5,18.5));
#174 = DIRECTION('',(0.,0.,1.));
#175 = DIRECTION('',(1.110223024625E-16,1.,0.));
#176 = ADVANCED_FACE('',(#177),#195,.T.);
#177 = FACE_BOUND('',#178,.T.);
#178 = EDGE_LOOP('',(#179,#187,#188,#189));
#179 = ORIENTED_EDGE('',*,*,#180,.F.);
#180 = EDGE_CURVE('',#135,#181,#183,.T.);
#181 = VERTEX_POINT('',#182);
#182 = CARTESIAN_POINT('',(123.5,175.5,17.3));
#183 = LINE('',#184,#185);
#184 = CARTESIAN_POINT('',(123.5,175.5,15.5));
#185 = VECTOR('',#186,1.);
#186 = DIRECTION('',(0.,0.,1.));
#187 = ORIENTED_EDGE('',*,*,#142,.F.);
#188 = ORIENTED_EDGE('',*,*,#39,.T.);
#189 = ORIENTED_EDGE('',*,*,#190,.T.);
#190 = EDGE_CURVE('',#40,#181,#191,.T.);
#191 = LINE('',#192,#193);
#192 = CARTESIAN_POINT('',(123.5,87.5,17.3));
#193 = VECTOR('',#194,1.);
#194 = DIRECTION('',(1.110223024625E-16,1.,0.));
#195 = PLANE('',#196);
#196 = AXIS2_PLACEMENT_3D('',#197,#198,#199);
#197 = CARTESIAN_POINT('',(123.5,87.5,15.5));
#198 = DIRECTION('',(-1.,1.110223024625E-16,0.));
#199 = DIRECTION('',(0.,0.,1.));
#200 = ADVANCED_FACE('',(#201),#212,.T.);
#201 = FACE_BOUND('',#202,.F.);
#202 = EDGE_LOOP('',(#203,#204,#205,#211));
#203 = ORIENTED_EDGE('',*,*,#47,.F.);
#204 = ORIENTED_EDGE('',*,*,#190,.T.);
#205 = ORIENTED_EDGE('',*,*,#206,.T.);
#206 = EDGE_CURVE('',#181,#159,#207,.T.);
#207 = LINE('',#208,#209);
#208 = CARTESIAN_POINT('',(137.1,175.5,30.9));
#209 = VECTOR('',#210,1.);
#210 = DIRECTION('',(0.707106781187,-7.850462293419E-17,0.707106781187)
  );
#211 = ORIENTED_EDGE('',*,*,#166,.F.);
#212 = PLANE('',#213);
#213 = AXIS2_PLACEMENT_3D('',#214,#215,#216);
#214 = CARTESIAN_POINT('',(124.1,87.5,17.9));
#215 = DIRECTION('',(-0.707106781187,6.442841347715E-17,0.707106781187)
  );
#216 = DIRECTION('',(-1.01068919302E-16,-1.,-9.953383160478E-18));
#217 = ADVANCED_FACE('',(#218),#226,.T.);
#218 = FACE_BOUND('',#219,.T.);
#219 = EDGE_LOOP('',(#220,#221,#222,#223,#224,#225));
#220 = ORIENTED_EDGE('',*,*,#77,.F.);
#221 = ORIENTED_EDGE('',*,*,#134,.T.);
#222 = ORIENTED_EDGE('',*,*,#180,.T.);
#223 = ORIENTED_EDGE('',*,*,#206,.T.);
#224 = ORIENTED_EDGE('',*,*,#158,.F.);
#225 = ORIENTED_EDGE('',*,*,#110,.F.);
#226 = PLANE('',#227);
#227 = AXIS2_PLACEMENT_3D('',#228,#229,#230);
#228 = CARTESIAN_POINT('',(178.5,175.5,15.5));
#229 = DIRECTION('',(1.110223024625E-16,1.,0.));
#230 = DIRECTION('',(0.,0.,1.));
#231 = ( GEOMETRIC_REPRESENTATION_CONTEXT(3) 
GLOBAL_UNCERTAINTY_ASSIGNED_CONTEXT((#235)) GLOBAL_UNIT_ASSIGNED_CONTEXT
((#232,#233,#234)) REPRESENTATION_CONTEXT('Context #1',
  '3D Context with UNIT and UNCERTAINTY') );
#232 = ( LENGTH_UNIT() NAMED_UNIT(*) SI_UNIT(.MILLI.,.METRE.) );
#233 = ( NAMED_UNIT(*) PLANE_ANGLE_UNIT() SI_UNIT($,.RADIAN.) );
#234 = ( NAMED_UNIT(*) SI_UNIT($,.STERADIAN.) SOLID_ANGLE_UNIT() );
#235 = UNCERTAINTY_MEASURE_WITH_UNIT(LENGTH_MEASURE(1.E-07),#232,
  'distance_accuracy_value','confusion accuracy');
#236 = PRODUCT_RELATED_PRODUCT_CATEGORY('part',$,(#7));
ENDSEC;
END-ISO-10303-21;
