ISO-10303-21;
HEADER;
FILE_DESCRIPTION(('FreeCAD Model'),'2;1');
FILE_NAME('Open CASCADE Shape Model','2026-09-26T02:33:30',('FreeCAD'),(
    'FreeCAD'),'Open CASCADE STEP processor 7.8','FreeCAD','Unknown');
FILE_SCHEMA(('AUTOMOTIVE_DESIGN { 1 0 10303 214 1 1 1 1 }'));
ENDSEC;
DATA;
#1 = APPLICATION_PROTOCOL_DEFINITION('international standard',
  'automotive_design',2000,#2);
#2 = APPLICATION_CONTEXT(
  'core data for automotive mechanical design processes');
#3 = SHAPE_DEFINITION_REPRESENTATION(#4,#10);
#4 = PRODUCT_DEFINITION_SHAPE('','',#5);
#5 = PRODUCT_DEFINITION('design','',#6,#9);
#6 = PRODUCT_DEFINITION_FORMATION('','',#7);
#7 = PRODUCT('Open CASCADE STEP translator 7.8 37',
  'Open CASCADE STEP translator 7.8 37','',(#8));
#8 = PRODUCT_CONTEXT('',#2,'mechanical');
#9 = PRODUCT_DEFINITION_CONTEXT('part definition',#2,'design');
#10 = SHAPE_REPRESENTATION('',(#11,#15,#336),#657);
#11 = AXIS2_PLACEMENT_3D('',#12,#13,#14);
#12 = CARTESIAN_POINT('',(0.,0.,0.));
#13 = DIRECTION('',(0.,0.,1.));
#14 = DIRECTION('',(1.,0.,-0.));
#15 = MANIFOLD_SOLID_BREP('',#16);
#16 = CLOSED_SHELL('',(#17,#89,#120,#155,#179,#203,#227,#251,#275,#303,
    #319));
#17 = ADVANCED_FACE('',(#18),#84,.F.);
#18 = FACE_BOUND('',#19,.T.);
#19 = EDGE_LOOP('',(#20,#30,#38,#46,#54,#62,#70,#78));
#20 = ORIENTED_EDGE('',*,*,#21,.F.);
#21 = EDGE_CURVE('',#22,#24,#26,.T.);
#22 = VERTEX_POINT('',#23);
#23 = CARTESIAN_POINT('',(140.,88.,31.));
#24 = VERTEX_POINT('',#25);
#25 = CARTESIAN_POINT('',(145.95,88.,31.));
#26 = LINE('',#27,#28);
#27 = CARTESIAN_POINT('',(140.,88.,31.));
#28 = VECTOR('',#29,1.);
#29 = DIRECTION('',(1.,-1.110223024625E-16,-0.));
#30 = ORIENTED_EDGE('',*,*,#31,.F.);
#31 = EDGE_CURVE('',#32,#22,#34,.T.);
#32 = VERTEX_POINT('',#33);
#33 = CARTESIAN_POINT('',(140.,88.,13.));
#34 = LINE('',#35,#36);
#35 = CARTESIAN_POINT('',(140.,88.,13.));
#36 = VECTOR('',#37,1.);
#37 = DIRECTION('',(0.,0.,1.));
#38 = ORIENTED_EDGE('',*,*,#39,.T.);
#39 = EDGE_CURVE('',#32,#40,#42,.T.);
#40 = VERTEX_POINT('',#41);
#41 = CARTESIAN_POINT('',(145.95,88.,13.));
#42 = LINE('',#43,#44);
#43 = CARTESIAN_POINT('',(140.,88.,13.));
#44 = VECTOR('',#45,1.);
#45 = DIRECTION('',(1.,-1.110223024625E-16,-0.));
#46 = ORIENTED_EDGE('',*,*,#47,.T.);
#47 = EDGE_CURVE('',#40,#48,#50,.T.);
#48 = VERTEX_POINT('',#49);
#49 = CARTESIAN_POINT('',(145.95,88.,13.85));
#50 = LINE('',#51,#52);
#51 = CARTESIAN_POINT('',(145.95,88.,13.));
#52 = VECTOR('',#53,1.);
#53 = DIRECTION('',(0.,0.,1.));
#54 = ORIENTED_EDGE('',*,*,#55,.T.);
#55 = EDGE_CURVE('',#48,#56,#58,.T.);
#56 = VERTEX_POINT('',#57);
#57 = CARTESIAN_POINT('',(143.35,88.,13.85));
#58 = LINE('',#59,#60);
#59 = CARTESIAN_POINT('',(141.675,88.,13.85));
#60 = VECTOR('',#61,1.);
#61 = DIRECTION('',(-1.,1.110223024625E-16,0.));
#62 = ORIENTED_EDGE('',*,*,#63,.T.);
#63 = EDGE_CURVE('',#56,#64,#66,.T.);
#64 = VERTEX_POINT('',#65);
#65 = CARTESIAN_POINT('',(143.35,88.,17.15));
#66 = LINE('',#67,#68);
#67 = CARTESIAN_POINT('',(143.35,88.,13.425));
#68 = VECTOR('',#69,1.);
#69 = DIRECTION('',(0.,0.,1.));
#70 = ORIENTED_EDGE('',*,*,#71,.F.);
#71 = EDGE_CURVE('',#72,#64,#74,.T.);
#72 = VERTEX_POINT('',#73);
#73 = CARTESIAN_POINT('',(145.95,88.,17.15));
#74 = LINE('',#75,#76);
#75 = CARTESIAN_POINT('',(141.675,88.,17.15));
#76 = VECTOR('',#77,1.);
#77 = DIRECTION('',(-1.,1.110223024625E-16,0.));
#78 = ORIENTED_EDGE('',*,*,#79,.T.);
#79 = EDGE_CURVE('',#72,#24,#80,.T.);
#80 = LINE('',#81,#82);
#81 = CARTESIAN_POINT('',(145.95,88.,13.));
#82 = VECTOR('',#83,1.);
#83 = DIRECTION('',(0.,0.,1.));
#84 = PLANE('',#85);
#85 = AXIS2_PLACEMENT_3D('',#86,#87,#88);
#86 = CARTESIAN_POINT('',(140.,88.,13.));
#87 = DIRECTION('',(1.110223024625E-16,1.,0.));
#88 = DIRECTION('',(0.,0.,-1.));
#89 = ADVANCED_FACE('',(#90),#115,.T.);
#90 = FACE_BOUND('',#91,.F.);
#91 = EDGE_LOOP('',(#92,#93,#101,#109));
#92 = ORIENTED_EDGE('',*,*,#21,.F.);
#93 = ORIENTED_EDGE('',*,*,#94,.T.);
#94 = EDGE_CURVE('',#22,#95,#97,.T.);
#95 = VERTEX_POINT('',#96);
#96 = CARTESIAN_POINT('',(140.,99.,31.));
#97 = LINE('',#98,#99);
#98 = CARTESIAN_POINT('',(140.,88.,31.));
#99 = VECTOR('',#100,1.);
#100 = DIRECTION('',(1.110223024625E-16,1.,0.));
#101 = ORIENTED_EDGE('',*,*,#102,.T.);
#102 = EDGE_CURVE('',#95,#103,#105,.T.);
#103 = VERTEX_POINT('',#104);
#104 = CARTESIAN_POINT('',(145.95,99.,31.));
#105 = LINE('',#106,#107);
#106 = CARTESIAN_POINT('',(140.,99.,31.));
#107 = VECTOR('',#108,1.);
#108 = DIRECTION('',(1.,-1.110223024625E-16,-0.));
#109 = ORIENTED_EDGE('',*,*,#110,.F.);
#110 = EDGE_CURVE('',#24,#103,#111,.T.);
#111 = LINE('',#112,#113);
#112 = CARTESIAN_POINT('',(145.95,88.,31.));
#113 = VECTOR('',#114,1.);
#114 = DIRECTION('',(1.110223024625E-16,1.,0.));
#115 = PLANE('',#116);
#116 = AXIS2_PLACEMENT_3D('',#117,#118,#119);
#117 = CARTESIAN_POINT('',(140.,88.,31.));
#118 = DIRECTION('',(0.,0.,1.));
#119 = DIRECTION('',(-1.110223024625E-16,-1.,0.));
#120 = ADVANCED_FACE('',(#121,#139),#150,.T.);
#121 = FACE_BOUND('',#122,.F.);
#122 = EDGE_LOOP('',(#123,#131,#137,#138));
#123 = ORIENTED_EDGE('',*,*,#124,.F.);
#124 = EDGE_CURVE('',#125,#103,#127,.T.);
#125 = VERTEX_POINT('',#126);
#126 = CARTESIAN_POINT('',(145.95,99.,17.15));
#127 = LINE('',#128,#129);
#128 = CARTESIAN_POINT('',(145.95,99.,13.));
#129 = VECTOR('',#130,1.);
#130 = DIRECTION('',(0.,0.,1.));
#131 = ORIENTED_EDGE('',*,*,#132,.F.);
#132 = EDGE_CURVE('',#72,#125,#133,.T.);
#133 = LINE('',#134,#135);
#134 = CARTESIAN_POINT('',(145.95,87.9,17.15));
#135 = VECTOR('',#136,1.);
#136 = DIRECTION('',(1.110223024625E-16,1.,0.));
#137 = ORIENTED_EDGE('',*,*,#79,.T.);
#138 = ORIENTED_EDGE('',*,*,#110,.T.);
#139 = FACE_BOUND('',#140,.F.);
#140 = EDGE_LOOP('',(#141));
#141 = ORIENTED_EDGE('',*,*,#142,.F.);
#142 = EDGE_CURVE('',#143,#143,#145,.T.);
#143 = VERTEX_POINT('',#144);
#144 = CARTESIAN_POINT('',(145.95,93.,27.1));
#145 = CIRCLE('',#146,2.1);
#146 = AXIS2_PLACEMENT_3D('',#147,#148,#149);
#147 = CARTESIAN_POINT('',(145.95,93.,25.));
#148 = DIRECTION('',(-1.,1.110223024625E-16,0.));
#149 = DIRECTION('',(0.,0.,1.));
#150 = PLANE('',#151);
#151 = AXIS2_PLACEMENT_3D('',#152,#153,#154);
#152 = CARTESIAN_POINT('',(145.95,88.,13.));
#153 = DIRECTION('',(1.,-1.110223024625E-16,-0.));
#154 = DIRECTION('',(0.,0.,-1.));
#155 = ADVANCED_FACE('',(#156),#174,.F.);
#156 = FACE_BOUND('',#157,.T.);
#157 = EDGE_LOOP('',(#158,#159,#167,#173));
#158 = ORIENTED_EDGE('',*,*,#71,.T.);
#159 = ORIENTED_EDGE('',*,*,#160,.T.);
#160 = EDGE_CURVE('',#64,#161,#163,.T.);
#161 = VERTEX_POINT('',#162);
#162 = CARTESIAN_POINT('',(143.35,99.,17.15));
#163 = LINE('',#164,#165);
#164 = CARTESIAN_POINT('',(143.35,87.8,17.15));
#165 = VECTOR('',#166,1.);
#166 = DIRECTION('',(1.110223024625E-16,1.,0.));
#167 = ORIENTED_EDGE('',*,*,#168,.F.);
#168 = EDGE_CURVE('',#125,#161,#169,.T.);
#169 = LINE('',#170,#171);
#170 = CARTESIAN_POINT('',(141.675,99.,17.15));
#171 = VECTOR('',#172,1.);
#172 = DIRECTION('',(-1.,1.110223024625E-16,0.));
#173 = ORIENTED_EDGE('',*,*,#132,.F.);
#174 = PLANE('',#175);
#175 = AXIS2_PLACEMENT_3D('',#176,#177,#178);
#176 = CARTESIAN_POINT('',(143.35,87.8,17.15));
#177 = DIRECTION('',(0.,0.,1.));
#178 = DIRECTION('',(-1.110223024625E-16,-1.,0.));
#179 = ADVANCED_FACE('',(#180),#198,.T.);
#180 = FACE_BOUND('',#181,.F.);
#181 = EDGE_LOOP('',(#182,#190,#191,#192));
#182 = ORIENTED_EDGE('',*,*,#183,.F.);
#183 = EDGE_CURVE('',#56,#184,#186,.T.);
#184 = VERTEX_POINT('',#185);
#185 = CARTESIAN_POINT('',(143.35,99.,13.85));
#186 = LINE('',#187,#188);
#187 = CARTESIAN_POINT('',(143.35,87.8,13.85));
#188 = VECTOR('',#189,1.);
#189 = DIRECTION('',(1.110223024625E-16,1.,0.));
#190 = ORIENTED_EDGE('',*,*,#63,.T.);
#191 = ORIENTED_EDGE('',*,*,#160,.T.);
#192 = ORIENTED_EDGE('',*,*,#193,.F.);
#193 = EDGE_CURVE('',#184,#161,#194,.T.);
#194 = LINE('',#195,#196);
#195 = CARTESIAN_POINT('',(143.35,99.,13.425));
#196 = VECTOR('',#197,1.);
#197 = DIRECTION('',(0.,0.,1.));
#198 = PLANE('',#199);
#199 = AXIS2_PLACEMENT_3D('',#200,#201,#202);
#200 = CARTESIAN_POINT('',(143.35,87.8,13.85));
#201 = DIRECTION('',(1.,-1.110223024625E-16,-0.));
#202 = DIRECTION('',(0.,0.,-1.));
#203 = ADVANCED_FACE('',(#204),#222,.T.);
#204 = FACE_BOUND('',#205,.F.);
#205 = EDGE_LOOP('',(#206,#207,#208,#216));
#206 = ORIENTED_EDGE('',*,*,#55,.T.);
#207 = ORIENTED_EDGE('',*,*,#183,.T.);
#208 = ORIENTED_EDGE('',*,*,#209,.F.);
#209 = EDGE_CURVE('',#210,#184,#212,.T.);
#210 = VERTEX_POINT('',#211);
#211 = CARTESIAN_POINT('',(145.95,99.,13.85));
#212 = LINE('',#213,#214);
#213 = CARTESIAN_POINT('',(141.675,99.,13.85));
#214 = VECTOR('',#215,1.);
#215 = DIRECTION('',(-1.,1.110223024625E-16,0.));
#216 = ORIENTED_EDGE('',*,*,#217,.F.);
#217 = EDGE_CURVE('',#48,#210,#218,.T.);
#218 = LINE('',#219,#220);
#219 = CARTESIAN_POINT('',(145.95,87.9,13.85));
#220 = VECTOR('',#221,1.);
#221 = DIRECTION('',(1.110223024625E-16,1.,0.));
#222 = PLANE('',#223);
#223 = AXIS2_PLACEMENT_3D('',#224,#225,#226);
#224 = CARTESIAN_POINT('',(143.35,87.8,13.85));
#225 = DIRECTION('',(0.,0.,1.));
#226 = DIRECTION('',(-1.110223024625E-16,-1.,0.));
#227 = ADVANCED_FACE('',(#228),#246,.T.);
#228 = FACE_BOUND('',#229,.F.);
#229 = EDGE_LOOP('',(#230,#238,#244,#245));
#230 = ORIENTED_EDGE('',*,*,#231,.F.);
#231 = EDGE_CURVE('',#232,#210,#234,.T.);
#232 = VERTEX_POINT('',#233);
#233 = CARTESIAN_POINT('',(145.95,99.,13.));
#234 = LINE('',#235,#236);
#235 = CARTESIAN_POINT('',(145.95,99.,13.));
#236 = VECTOR('',#237,1.);
#237 = DIRECTION('',(0.,0.,1.));
#238 = ORIENTED_EDGE('',*,*,#239,.F.);
#239 = EDGE_CURVE('',#40,#232,#240,.T.);
#240 = LINE('',#241,#242);
#241 = CARTESIAN_POINT('',(145.95,88.,13.));
#242 = VECTOR('',#243,1.);
#243 = DIRECTION('',(1.110223024625E-16,1.,0.));
#244 = ORIENTED_EDGE('',*,*,#47,.T.);
#245 = ORIENTED_EDGE('',*,*,#217,.T.);
#246 = PLANE('',#247);
#247 = AXIS2_PLACEMENT_3D('',#248,#249,#250);
#248 = CARTESIAN_POINT('',(145.95,88.,13.));
#249 = DIRECTION('',(1.,-1.110223024625E-16,-0.));
#250 = DIRECTION('',(0.,0.,-1.));
#251 = ADVANCED_FACE('',(#252),#270,.F.);
#252 = FACE_BOUND('',#253,.T.);
#253 = EDGE_LOOP('',(#254,#255,#263,#269));
#254 = ORIENTED_EDGE('',*,*,#39,.F.);
#255 = ORIENTED_EDGE('',*,*,#256,.T.);
#256 = EDGE_CURVE('',#32,#257,#259,.T.);
#257 = VERTEX_POINT('',#258);
#258 = CARTESIAN_POINT('',(140.,99.,13.));
#259 = LINE('',#260,#261);
#260 = CARTESIAN_POINT('',(140.,88.,13.));
#261 = VECTOR('',#262,1.);
#262 = DIRECTION('',(1.110223024625E-16,1.,0.));
#263 = ORIENTED_EDGE('',*,*,#264,.T.);
#264 = EDGE_CURVE('',#257,#232,#265,.T.);
#265 = LINE('',#266,#267);
#266 = CARTESIAN_POINT('',(140.,99.,13.));
#267 = VECTOR('',#268,1.);
#268 = DIRECTION('',(1.,-1.110223024625E-16,-0.));
#269 = ORIENTED_EDGE('',*,*,#239,.F.);
#270 = PLANE('',#271);
#271 = AXIS2_PLACEMENT_3D('',#272,#273,#274);
#272 = CARTESIAN_POINT('',(140.,88.,13.));
#273 = DIRECTION('',(0.,0.,1.));
#274 = DIRECTION('',(-1.110223024625E-16,-1.,0.));
#275 = ADVANCED_FACE('',(#276,#287),#298,.F.);
#276 = FACE_BOUND('',#277,.T.);
#277 = EDGE_LOOP('',(#278,#279,#280,#281));
#278 = ORIENTED_EDGE('',*,*,#256,.F.);
#279 = ORIENTED_EDGE('',*,*,#31,.T.);
#280 = ORIENTED_EDGE('',*,*,#94,.T.);
#281 = ORIENTED_EDGE('',*,*,#282,.F.);
#282 = EDGE_CURVE('',#257,#95,#283,.T.);
#283 = LINE('',#284,#285);
#284 = CARTESIAN_POINT('',(140.,99.,13.));
#285 = VECTOR('',#286,1.);
#286 = DIRECTION('',(0.,0.,1.));
#287 = FACE_BOUND('',#288,.T.);
#288 = EDGE_LOOP('',(#289));
#289 = ORIENTED_EDGE('',*,*,#290,.F.);
#290 = EDGE_CURVE('',#291,#291,#293,.T.);
#291 = VERTEX_POINT('',#292);
#292 = CARTESIAN_POINT('',(140.,93.,27.1));
#293 = CIRCLE('',#294,2.1);
#294 = AXIS2_PLACEMENT_3D('',#295,#296,#297);
#295 = CARTESIAN_POINT('',(140.,93.,25.));
#296 = DIRECTION('',(-1.,1.110223024625E-16,0.));
#297 = DIRECTION('',(0.,0.,1.));
#298 = PLANE('',#299);
#299 = AXIS2_PLACEMENT_3D('',#300,#301,#302);
#300 = CARTESIAN_POINT('',(140.,88.,13.));
#301 = DIRECTION('',(1.,-1.110223024625E-16,-0.));
#302 = DIRECTION('',(0.,0.,-1.));
#303 = ADVANCED_FACE('',(#304),#314,.T.);
#304 = FACE_BOUND('',#305,.F.);
#305 = EDGE_LOOP('',(#306,#307,#308,#309,#310,#311,#312,#313));
#306 = ORIENTED_EDGE('',*,*,#102,.F.);
#307 = ORIENTED_EDGE('',*,*,#282,.F.);
#308 = ORIENTED_EDGE('',*,*,#264,.T.);
#309 = ORIENTED_EDGE('',*,*,#231,.T.);
#310 = ORIENTED_EDGE('',*,*,#209,.T.);
#311 = ORIENTED_EDGE('',*,*,#193,.T.);
#312 = ORIENTED_EDGE('',*,*,#168,.F.);
#313 = ORIENTED_EDGE('',*,*,#124,.T.);
#314 = PLANE('',#315);
#315 = AXIS2_PLACEMENT_3D('',#316,#317,#318);
#316 = CARTESIAN_POINT('',(140.,99.,13.));
#317 = DIRECTION('',(1.110223024625E-16,1.,0.));
#318 = DIRECTION('',(0.,0.,-1.));
#319 = ADVANCED_FACE('',(#320),#331,.F.);
#320 = FACE_BOUND('',#321,.T.);
#321 = EDGE_LOOP('',(#322,#323,#329,#330));
#322 = ORIENTED_EDGE('',*,*,#142,.F.);
#323 = ORIENTED_EDGE('',*,*,#324,.F.);
#324 = EDGE_CURVE('',#291,#143,#325,.T.);
#325 = LINE('',#326,#327);
#326 = CARTESIAN_POINT('',(139.5,93.,27.1));
#327 = VECTOR('',#328,1.);
#328 = DIRECTION('',(1.,-1.110223024625E-16,-0.));
#329 = ORIENTED_EDGE('',*,*,#290,.T.);
#330 = ORIENTED_EDGE('',*,*,#324,.T.);
#331 = CYLINDRICAL_SURFACE('',#332,2.1);
#332 = AXIS2_PLACEMENT_3D('',#333,#334,#335);
#333 = CARTESIAN_POINT('',(139.5,93.,25.));
#334 = DIRECTION('',(1.,-1.110223024625E-16,-0.));
#335 = DIRECTION('',(0.,0.,1.));
#336 = MANIFOLD_SOLID_BREP('',#337);
#337 = CLOSED_SHELL('',(#338,#410,#441,#476,#500,#524,#548,#572,#596,
    #624,#640));
#338 = ADVANCED_FACE('',(#339),#405,.F.);
#339 = FACE_BOUND('',#340,.F.);
#340 = EDGE_LOOP('',(#341,#351,#359,#367,#375,#383,#391,#399));
#341 = ORIENTED_EDGE('',*,*,#342,.F.);
#342 = EDGE_CURVE('',#343,#345,#347,.T.);
#343 = VERTEX_POINT('',#344);
#344 = CARTESIAN_POINT('',(213.,88.,31.));
#345 = VERTEX_POINT('',#346);
#346 = CARTESIAN_POINT('',(207.05,88.,31.));
#347 = LINE('',#348,#349);
#348 = CARTESIAN_POINT('',(213.,88.,31.));
#349 = VECTOR('',#350,1.);
#350 = DIRECTION('',(-1.,1.110223024625E-16,0.));
#351 = ORIENTED_EDGE('',*,*,#352,.F.);
#352 = EDGE_CURVE('',#353,#343,#355,.T.);
#353 = VERTEX_POINT('',#354);
#354 = CARTESIAN_POINT('',(213.,88.,13.));
#355 = LINE('',#356,#357);
#356 = CARTESIAN_POINT('',(213.,88.,13.));
#357 = VECTOR('',#358,1.);
#358 = DIRECTION('',(0.,0.,1.));
#359 = ORIENTED_EDGE('',*,*,#360,.T.);
#360 = EDGE_CURVE('',#353,#361,#363,.T.);
#361 = VERTEX_POINT('',#362);
#362 = CARTESIAN_POINT('',(207.05,88.,13.));
#363 = LINE('',#364,#365);
#364 = CARTESIAN_POINT('',(213.,88.,13.));
#365 = VECTOR('',#366,1.);
#366 = DIRECTION('',(-1.,1.110223024625E-16,0.));
#367 = ORIENTED_EDGE('',*,*,#368,.T.);
#368 = EDGE_CURVE('',#361,#369,#371,.T.);
#369 = VERTEX_POINT('',#370);
#370 = CARTESIAN_POINT('',(207.05,88.,13.85));
#371 = LINE('',#372,#373);
#372 = CARTESIAN_POINT('',(207.05,88.,13.));
#373 = VECTOR('',#374,1.);
#374 = DIRECTION('',(0.,0.,1.));
#375 = ORIENTED_EDGE('',*,*,#376,.T.);
#376 = EDGE_CURVE('',#369,#377,#379,.T.);
#377 = VERTEX_POINT('',#378);
#378 = CARTESIAN_POINT('',(209.65,88.,13.85));
#379 = LINE('',#380,#381);
#380 = CARTESIAN_POINT('',(211.325,88.,13.85));
#381 = VECTOR('',#382,1.);
#382 = DIRECTION('',(1.,-1.110223024625E-16,-0.));
#383 = ORIENTED_EDGE('',*,*,#384,.T.);
#384 = EDGE_CURVE('',#377,#385,#387,.T.);
#385 = VERTEX_POINT('',#386);
#386 = CARTESIAN_POINT('',(209.65,88.,17.15));
#387 = LINE('',#388,#389);
#388 = CARTESIAN_POINT('',(209.65,88.,13.425));
#389 = VECTOR('',#390,1.);
#390 = DIRECTION('',(0.,0.,1.));
#391 = ORIENTED_EDGE('',*,*,#392,.F.);
#392 = EDGE_CURVE('',#393,#385,#395,.T.);
#393 = VERTEX_POINT('',#394);
#394 = CARTESIAN_POINT('',(207.05,88.,17.15));
#395 = LINE('',#396,#397);
#396 = CARTESIAN_POINT('',(211.325,88.,17.15));
#397 = VECTOR('',#398,1.);
#398 = DIRECTION('',(1.,-1.110223024625E-16,-0.));
#399 = ORIENTED_EDGE('',*,*,#400,.T.);
#400 = EDGE_CURVE('',#393,#345,#401,.T.);
#401 = LINE('',#402,#403);
#402 = CARTESIAN_POINT('',(207.05,88.,13.));
#403 = VECTOR('',#404,1.);
#404 = DIRECTION('',(0.,0.,1.));
#405 = PLANE('',#406);
#406 = AXIS2_PLACEMENT_3D('',#407,#408,#409);
#407 = CARTESIAN_POINT('',(213.,88.,13.));
#408 = DIRECTION('',(1.110223024625E-16,1.,0.));
#409 = DIRECTION('',(0.,0.,1.));
#410 = ADVANCED_FACE('',(#411),#436,.T.);
#411 = FACE_BOUND('',#412,.T.);
#412 = EDGE_LOOP('',(#413,#414,#422,#430));
#413 = ORIENTED_EDGE('',*,*,#342,.F.);
#414 = ORIENTED_EDGE('',*,*,#415,.T.);
#415 = EDGE_CURVE('',#343,#416,#418,.T.);
#416 = VERTEX_POINT('',#417);
#417 = CARTESIAN_POINT('',(213.,99.,31.));
#418 = LINE('',#419,#420);
#419 = CARTESIAN_POINT('',(213.,88.,31.));
#420 = VECTOR('',#421,1.);
#421 = DIRECTION('',(1.110223024625E-16,1.,0.));
#422 = ORIENTED_EDGE('',*,*,#423,.T.);
#423 = EDGE_CURVE('',#416,#424,#426,.T.);
#424 = VERTEX_POINT('',#425);
#425 = CARTESIAN_POINT('',(207.05,99.,31.));
#426 = LINE('',#427,#428);
#427 = CARTESIAN_POINT('',(213.,99.,31.));
#428 = VECTOR('',#429,1.);
#429 = DIRECTION('',(-1.,1.110223024625E-16,0.));
#430 = ORIENTED_EDGE('',*,*,#431,.F.);
#431 = EDGE_CURVE('',#345,#424,#432,.T.);
#432 = LINE('',#433,#434);
#433 = CARTESIAN_POINT('',(207.05,88.,31.));
#434 = VECTOR('',#435,1.);
#435 = DIRECTION('',(1.110223024625E-16,1.,0.));
#436 = PLANE('',#437);
#437 = AXIS2_PLACEMENT_3D('',#438,#439,#440);
#438 = CARTESIAN_POINT('',(213.,88.,31.));
#439 = DIRECTION('',(0.,0.,1.));
#440 = DIRECTION('',(1.110223024625E-16,1.,0.));
#441 = ADVANCED_FACE('',(#442,#460),#471,.T.);
#442 = FACE_BOUND('',#443,.T.);
#443 = EDGE_LOOP('',(#444,#452,#458,#459));
#444 = ORIENTED_EDGE('',*,*,#445,.F.);
#445 = EDGE_CURVE('',#446,#424,#448,.T.);
#446 = VERTEX_POINT('',#447);
#447 = CARTESIAN_POINT('',(207.05,99.,17.15));
#448 = LINE('',#449,#450);
#449 = CARTESIAN_POINT('',(207.05,99.,13.));
#450 = VECTOR('',#451,1.);
#451 = DIRECTION('',(0.,0.,1.));
#452 = ORIENTED_EDGE('',*,*,#453,.F.);
#453 = EDGE_CURVE('',#393,#446,#454,.T.);
#454 = LINE('',#455,#456);
#455 = CARTESIAN_POINT('',(207.05,87.9,17.15));
#456 = VECTOR('',#457,1.);
#457 = DIRECTION('',(1.110223024625E-16,1.,0.));
#458 = ORIENTED_EDGE('',*,*,#400,.T.);
#459 = ORIENTED_EDGE('',*,*,#431,.T.);
#460 = FACE_BOUND('',#461,.T.);
#461 = EDGE_LOOP('',(#462));
#462 = ORIENTED_EDGE('',*,*,#463,.F.);
#463 = EDGE_CURVE('',#464,#464,#466,.T.);
#464 = VERTEX_POINT('',#465);
#465 = CARTESIAN_POINT('',(207.05,93.,27.1));
#466 = CIRCLE('',#467,2.1);
#467 = AXIS2_PLACEMENT_3D('',#468,#469,#470);
#468 = CARTESIAN_POINT('',(207.05,93.,25.));
#469 = DIRECTION('',(-1.,1.110223024625E-16,0.));
#470 = DIRECTION('',(0.,0.,1.));
#471 = PLANE('',#472);
#472 = AXIS2_PLACEMENT_3D('',#473,#474,#475);
#473 = CARTESIAN_POINT('',(207.05,88.,13.));
#474 = DIRECTION('',(-1.,1.110223024625E-16,0.));
#475 = DIRECTION('',(0.,0.,1.));
#476 = ADVANCED_FACE('',(#477),#495,.F.);
#477 = FACE_BOUND('',#478,.F.);
#478 = EDGE_LOOP('',(#479,#480,#488,#494));
#479 = ORIENTED_EDGE('',*,*,#392,.T.);
#480 = ORIENTED_EDGE('',*,*,#481,.T.);
#481 = EDGE_CURVE('',#385,#482,#484,.T.);
#482 = VERTEX_POINT('',#483);
#483 = CARTESIAN_POINT('',(209.65,99.,17.15));
#484 = LINE('',#485,#486);
#485 = CARTESIAN_POINT('',(209.65,87.8,17.15));
#486 = VECTOR('',#487,1.);
#487 = DIRECTION('',(1.110223024625E-16,1.,0.));
#488 = ORIENTED_EDGE('',*,*,#489,.F.);
#489 = EDGE_CURVE('',#446,#482,#490,.T.);
#490 = LINE('',#491,#492);
#491 = CARTESIAN_POINT('',(211.325,99.,17.15));
#492 = VECTOR('',#493,1.);
#493 = DIRECTION('',(1.,-1.110223024625E-16,-0.));
#494 = ORIENTED_EDGE('',*,*,#453,.F.);
#495 = PLANE('',#496);
#496 = AXIS2_PLACEMENT_3D('',#497,#498,#499);
#497 = CARTESIAN_POINT('',(209.65,87.8,17.15));
#498 = DIRECTION('',(0.,0.,1.));
#499 = DIRECTION('',(1.110223024625E-16,1.,0.));
#500 = ADVANCED_FACE('',(#501),#519,.T.);
#501 = FACE_BOUND('',#502,.T.);
#502 = EDGE_LOOP('',(#503,#511,#512,#513));
#503 = ORIENTED_EDGE('',*,*,#504,.F.);
#504 = EDGE_CURVE('',#377,#505,#507,.T.);
#505 = VERTEX_POINT('',#506);
#506 = CARTESIAN_POINT('',(209.65,99.,13.85));
#507 = LINE('',#508,#509);
#508 = CARTESIAN_POINT('',(209.65,87.8,13.85));
#509 = VECTOR('',#510,1.);
#510 = DIRECTION('',(1.110223024625E-16,1.,0.));
#511 = ORIENTED_EDGE('',*,*,#384,.T.);
#512 = ORIENTED_EDGE('',*,*,#481,.T.);
#513 = ORIENTED_EDGE('',*,*,#514,.F.);
#514 = EDGE_CURVE('',#505,#482,#515,.T.);
#515 = LINE('',#516,#517);
#516 = CARTESIAN_POINT('',(209.65,99.,13.425));
#517 = VECTOR('',#518,1.);
#518 = DIRECTION('',(0.,0.,1.));
#519 = PLANE('',#520);
#520 = AXIS2_PLACEMENT_3D('',#521,#522,#523);
#521 = CARTESIAN_POINT('',(209.65,87.8,13.85));
#522 = DIRECTION('',(-1.,1.110223024625E-16,0.));
#523 = DIRECTION('',(0.,0.,1.));
#524 = ADVANCED_FACE('',(#525),#543,.T.);
#525 = FACE_BOUND('',#526,.T.);
#526 = EDGE_LOOP('',(#527,#528,#529,#537));
#527 = ORIENTED_EDGE('',*,*,#376,.T.);
#528 = ORIENTED_EDGE('',*,*,#504,.T.);
#529 = ORIENTED_EDGE('',*,*,#530,.F.);
#530 = EDGE_CURVE('',#531,#505,#533,.T.);
#531 = VERTEX_POINT('',#532);
#532 = CARTESIAN_POINT('',(207.05,99.,13.85));
#533 = LINE('',#534,#535);
#534 = CARTESIAN_POINT('',(211.325,99.,13.85));
#535 = VECTOR('',#536,1.);
#536 = DIRECTION('',(1.,-1.110223024625E-16,-0.));
#537 = ORIENTED_EDGE('',*,*,#538,.F.);
#538 = EDGE_CURVE('',#369,#531,#539,.T.);
#539 = LINE('',#540,#541);
#540 = CARTESIAN_POINT('',(207.05,87.9,13.85));
#541 = VECTOR('',#542,1.);
#542 = DIRECTION('',(1.110223024625E-16,1.,0.));
#543 = PLANE('',#544);
#544 = AXIS2_PLACEMENT_3D('',#545,#546,#547);
#545 = CARTESIAN_POINT('',(209.65,87.8,13.85));
#546 = DIRECTION('',(0.,0.,1.));
#547 = DIRECTION('',(1.110223024625E-16,1.,0.));
#548 = ADVANCED_FACE('',(#549),#567,.T.);
#549 = FACE_BOUND('',#550,.T.);
#550 = EDGE_LOOP('',(#551,#559,#565,#566));
#551 = ORIENTED_EDGE('',*,*,#552,.F.);
#552 = EDGE_CURVE('',#553,#531,#555,.T.);
#553 = VERTEX_POINT('',#554);
#554 = CARTESIAN_POINT('',(207.05,99.,13.));
#555 = LINE('',#556,#557);
#556 = CARTESIAN_POINT('',(207.05,99.,13.));
#557 = VECTOR('',#558,1.);
#558 = DIRECTION('',(0.,0.,1.));
#559 = ORIENTED_EDGE('',*,*,#560,.F.);
#560 = EDGE_CURVE('',#361,#553,#561,.T.);
#561 = LINE('',#562,#563);
#562 = CARTESIAN_POINT('',(207.05,88.,13.));
#563 = VECTOR('',#564,1.);
#564 = DIRECTION('',(1.110223024625E-16,1.,0.));
#565 = ORIENTED_EDGE('',*,*,#368,.T.);
#566 = ORIENTED_EDGE('',*,*,#538,.T.);
#567 = PLANE('',#568);
#568 = AXIS2_PLACEMENT_3D('',#569,#570,#571);
#569 = CARTESIAN_POINT('',(207.05,88.,13.));
#570 = DIRECTION('',(-1.,1.110223024625E-16,0.));
#571 = DIRECTION('',(0.,0.,1.));
#572 = ADVANCED_FACE('',(#573),#591,.F.);
#573 = FACE_BOUND('',#574,.F.);
#574 = EDGE_LOOP('',(#575,#576,#584,#590));
#575 = ORIENTED_EDGE('',*,*,#360,.F.);
#576 = ORIENTED_EDGE('',*,*,#577,.T.);
#577 = EDGE_CURVE('',#353,#578,#580,.T.);
#578 = VERTEX_POINT('',#579);
#579 = CARTESIAN_POINT('',(213.,99.,13.));
#580 = LINE('',#581,#582);
#581 = CARTESIAN_POINT('',(213.,88.,13.));
#582 = VECTOR('',#583,1.);
#583 = DIRECTION('',(1.110223024625E-16,1.,0.));
#584 = ORIENTED_EDGE('',*,*,#585,.T.);
#585 = EDGE_CURVE('',#578,#553,#586,.T.);
#586 = LINE('',#587,#588);
#587 = CARTESIAN_POINT('',(213.,99.,13.));
#588 = VECTOR('',#589,1.);
#589 = DIRECTION('',(-1.,1.110223024625E-16,0.));
#590 = ORIENTED_EDGE('',*,*,#560,.F.);
#591 = PLANE('',#592);
#592 = AXIS2_PLACEMENT_3D('',#593,#594,#595);
#593 = CARTESIAN_POINT('',(213.,88.,13.));
#594 = DIRECTION('',(0.,0.,1.));
#595 = DIRECTION('',(1.110223024625E-16,1.,0.));
#596 = ADVANCED_FACE('',(#597,#608),#619,.F.);
#597 = FACE_BOUND('',#598,.F.);
#598 = EDGE_LOOP('',(#599,#600,#601,#602));
#599 = ORIENTED_EDGE('',*,*,#577,.F.);
#600 = ORIENTED_EDGE('',*,*,#352,.T.);
#601 = ORIENTED_EDGE('',*,*,#415,.T.);
#602 = ORIENTED_EDGE('',*,*,#603,.F.);
#603 = EDGE_CURVE('',#578,#416,#604,.T.);
#604 = LINE('',#605,#606);
#605 = CARTESIAN_POINT('',(213.,99.,13.));
#606 = VECTOR('',#607,1.);
#607 = DIRECTION('',(0.,0.,1.));
#608 = FACE_BOUND('',#609,.F.);
#609 = EDGE_LOOP('',(#610));
#610 = ORIENTED_EDGE('',*,*,#611,.F.);
#611 = EDGE_CURVE('',#612,#612,#614,.T.);
#612 = VERTEX_POINT('',#613);
#613 = CARTESIAN_POINT('',(213.,93.,27.1));
#614 = CIRCLE('',#615,2.1);
#615 = AXIS2_PLACEMENT_3D('',#616,#617,#618);
#616 = CARTESIAN_POINT('',(213.,93.,25.));
#617 = DIRECTION('',(-1.,1.110223024625E-16,0.));
#618 = DIRECTION('',(0.,0.,1.));
#619 = PLANE('',#620);
#620 = AXIS2_PLACEMENT_3D('',#621,#622,#623);
#621 = CARTESIAN_POINT('',(213.,88.,13.));
#622 = DIRECTION('',(-1.,1.110223024625E-16,0.));
#623 = DIRECTION('',(0.,0.,1.));
#624 = ADVANCED_FACE('',(#625),#635,.T.);
#625 = FACE_BOUND('',#626,.T.);
#626 = EDGE_LOOP('',(#627,#628,#629,#630,#631,#632,#633,#634));
#627 = ORIENTED_EDGE('',*,*,#423,.F.);
#628 = ORIENTED_EDGE('',*,*,#603,.F.);
#629 = ORIENTED_EDGE('',*,*,#585,.T.);
#630 = ORIENTED_EDGE('',*,*,#552,.T.);
#631 = ORIENTED_EDGE('',*,*,#530,.T.);
#632 = ORIENTED_EDGE('',*,*,#514,.T.);
#633 = ORIENTED_EDGE('',*,*,#489,.F.);
#634 = ORIENTED_EDGE('',*,*,#445,.T.);
#635 = PLANE('',#636);
#636 = AXIS2_PLACEMENT_3D('',#637,#638,#639);
#637 = CARTESIAN_POINT('',(213.,99.,13.));
#638 = DIRECTION('',(1.110223024625E-16,1.,0.));
#639 = DIRECTION('',(0.,0.,1.));
#640 = ADVANCED_FACE('',(#641),#652,.F.);
#641 = FACE_BOUND('',#642,.F.);
#642 = EDGE_LOOP('',(#643,#644,#650,#651));
#643 = ORIENTED_EDGE('',*,*,#463,.F.);
#644 = ORIENTED_EDGE('',*,*,#645,.F.);
#645 = EDGE_CURVE('',#612,#464,#646,.T.);
#646 = LINE('',#647,#648);
#647 = CARTESIAN_POINT('',(213.5,93.,27.1));
#648 = VECTOR('',#649,1.);
#649 = DIRECTION('',(-1.,1.110223024625E-16,0.));
#650 = ORIENTED_EDGE('',*,*,#611,.T.);
#651 = ORIENTED_EDGE('',*,*,#645,.T.);
#652 = CYLINDRICAL_SURFACE('',#653,2.1);
#653 = AXIS2_PLACEMENT_3D('',#654,#655,#656);
#654 = CARTESIAN_POINT('',(213.5,93.,25.));
#655 = DIRECTION('',(-1.,1.110223024625E-16,0.));
#656 = DIRECTION('',(0.,0.,1.));
#657 = ( GEOMETRIC_REPRESENTATION_CONTEXT(3) 
GLOBAL_UNCERTAINTY_ASSIGNED_CONTEXT((#661)) GLOBAL_UNIT_ASSIGNED_CONTEXT
((#658,#659,#660)) REPRESENTATION_CONTEXT('Context #1',
  '3D Context with UNIT and UNCERTAINTY') );
#658 = ( LENGTH_UNIT() NAMED_UNIT(*) SI_UNIT(.MILLI.,.METRE.) );
#659 = ( NAMED_UNIT(*) PLANE_ANGLE_UNIT() SI_UNIT($,.RADIAN.) );
#660 = ( NAMED_UNIT(*) SI_UNIT($,.STERADIAN.) SOLID_ANGLE_UNIT() );
#661 = UNCERTAINTY_MEASURE_WITH_UNIT(LENGTH_MEASURE(1.E-07),#658,
  'distance_accuracy_value','confusion accuracy');
#662 = PRODUCT_RELATED_PRODUCT_CATEGORY('part',$,(#7));
ENDSEC;
END-ISO-10303-21;
