ISO-10303-21;
HEADER;
FILE_DESCRIPTION(('FreeCAD Model'),'2;1');
FILE_NAME('Open CASCADE Shape Model','2026-09-26T12:11:06',('FreeCAD'),(
    'FreeCAD'),'Open CASCADE STEP processor 7.8','FreeCAD','Unknown');
FILE_SCHEMA(('AUTOMOTIVE_DESIGN { 1 0 10303 214 1 1 1 1 }'));
ENDSEC;
DATA;
#1 = APPLICATION_PROTOCOL_DEFINITION('international standard',
  'automotive_design',2000,#2);
#2 = APPLICATION_CONTEXT(
  'core data for automotive mechanical design processes');
#3 = SHAPE_DEFINITION_REPRESENTATION(#4,#10);
#4 = PRODUCT_DEFINITION_SHAPE('','',#5);
#5 = PRODUCT_DEFINITION('design','',#6,#9);
#6 = PRODUCT_DEFINITION_FORMATION('','',#7);
#7 = PRODUCT('Open CASCADE STEP translator 7.8 7',
  'Open CASCADE STEP translator 7.8 7','',(#8));
#8 = PRODUCT_CONTEXT('',#2,'mechanical');
#9 = PRODUCT_DEFINITION_CONTEXT('part definition',#2,'design');
#10 = ADVANCED_BREP_SHAPE_REPRESENTATION('',(#11,#15),#651);
#11 = AXIS2_PLACEMENT_3D('',#12,#13,#14);
#12 = CARTESIAN_POINT('',(0.,0.,0.));
#13 = DIRECTION('',(0.,0.,1.));
#14 = DIRECTION('',(1.,0.,-0.));
#15 = MANIFOLD_SOLID_BREP('',#16);
#16 = CLOSED_SHELL('',(#17,#57,#122,#146,#204,#285,#343,#374,#398,#422,
    #439,#470,#494,#518,#535,#552,#570,#581,#598,#616,#627,#639));
#17 = ADVANCED_FACE('',(#18),#52,.F.);
#18 = FACE_BOUND('',#19,.T.);
#19 = EDGE_LOOP('',(#20,#30,#38,#46));
#20 = ORIENTED_EDGE('',*,*,#21,.F.);
#21 = EDGE_CURVE('',#22,#24,#26,.T.);
#22 = VERTEX_POINT('',#23);
#23 = CARTESIAN_POINT('',(0.,56.05,7.105427357601E-15));
#24 = VERTEX_POINT('',#25);
#25 = CARTESIAN_POINT('',(0.,56.05,3.));
#26 = LINE('',#27,#28);
#27 = CARTESIAN_POINT('',(0.,56.05,7.105427357601E-15));
#28 = VECTOR('',#29,1.);
#29 = DIRECTION('',(-0.,-0.,1.));
#30 = ORIENTED_EDGE('',*,*,#31,.T.);
#31 = EDGE_CURVE('',#22,#32,#34,.T.);
#32 = VERTEX_POINT('',#33);
#33 = CARTESIAN_POINT('',(0.,1.05,7.105427357601E-15));
#34 = LINE('',#35,#36);
#35 = CARTESIAN_POINT('',(0.,56.05,7.105427357601E-15));
#36 = VECTOR('',#37,1.);
#37 = DIRECTION('',(-0.,-1.,-0.));
#38 = ORIENTED_EDGE('',*,*,#39,.T.);
#39 = EDGE_CURVE('',#32,#40,#42,.T.);
#40 = VERTEX_POINT('',#41);
#41 = CARTESIAN_POINT('',(0.,1.05,3.));
#42 = LINE('',#43,#44);
#43 = CARTESIAN_POINT('',(0.,1.05,7.105427357601E-15));
#44 = VECTOR('',#45,1.);
#45 = DIRECTION('',(-0.,-0.,1.));
#46 = ORIENTED_EDGE('',*,*,#47,.F.);
#47 = EDGE_CURVE('',#24,#40,#48,.T.);
#48 = LINE('',#49,#50);
#49 = CARTESIAN_POINT('',(0.,56.05,3.));
#50 = VECTOR('',#51,1.);
#51 = DIRECTION('',(-0.,-1.,-0.));
#52 = PLANE('',#53);
#53 = AXIS2_PLACEMENT_3D('',#54,#55,#56);
#54 = CARTESIAN_POINT('',(0.,56.05,7.105427357601E-15));
#55 = DIRECTION('',(1.,-0.,-0.));
#56 = DIRECTION('',(0.,0.,-1.));
#57 = ADVANCED_FACE('',(#58,#83),#117,.F.);
#58 = FACE_BOUND('',#59,.T.);
#59 = EDGE_LOOP('',(#60,#68,#69,#77));
#60 = ORIENTED_EDGE('',*,*,#61,.F.);
#61 = EDGE_CURVE('',#22,#62,#64,.T.);
#62 = VERTEX_POINT('',#63);
#63 = CARTESIAN_POINT('',(88.13437811163,56.05,7.105427357601E-15));
#64 = LINE('',#65,#66);
#65 = CARTESIAN_POINT('',(0.,56.05,7.105427357601E-15));
#66 = VECTOR('',#67,1.);
#67 = DIRECTION('',(1.,-0.,-0.));
#68 = ORIENTED_EDGE('',*,*,#21,.T.);
#69 = ORIENTED_EDGE('',*,*,#70,.T.);
#70 = EDGE_CURVE('',#24,#71,#73,.T.);
#71 = VERTEX_POINT('',#72);
#72 = CARTESIAN_POINT('',(88.13437811163,56.05,3.));
#73 = LINE('',#74,#75);
#74 = CARTESIAN_POINT('',(0.,56.05,3.));
#75 = VECTOR('',#76,1.);
#76 = DIRECTION('',(1.,-0.,-0.));
#77 = ORIENTED_EDGE('',*,*,#78,.F.);
#78 = EDGE_CURVE('',#62,#71,#79,.T.);
#79 = LINE('',#80,#81);
#80 = CARTESIAN_POINT('',(88.13437811163,56.05,7.105427357601E-15));
#81 = VECTOR('',#82,1.);
#82 = DIRECTION('',(-0.,-0.,1.));
#83 = FACE_BOUND('',#84,.T.);
#84 = EDGE_LOOP('',(#85,#95,#103,#111));
#85 = ORIENTED_EDGE('',*,*,#86,.F.);
#86 = EDGE_CURVE('',#87,#89,#91,.T.);
#87 = VERTEX_POINT('',#88);
#88 = CARTESIAN_POINT('',(4.,56.05,0.8));
#89 = VERTEX_POINT('',#90);
#90 = CARTESIAN_POINT('',(4.,56.05,2.2));
#91 = LINE('',#92,#93);
#92 = CARTESIAN_POINT('',(4.,56.05,0.8));
#93 = VECTOR('',#94,1.);
#94 = DIRECTION('',(-0.,-0.,1.));
#95 = ORIENTED_EDGE('',*,*,#96,.T.);
#96 = EDGE_CURVE('',#87,#97,#99,.T.);
#97 = VERTEX_POINT('',#98);
#98 = CARTESIAN_POINT('',(84.13437811163,56.05,0.8));
#99 = LINE('',#100,#101);
#100 = CARTESIAN_POINT('',(4.,56.05,0.8));
#101 = VECTOR('',#102,1.);
#102 = DIRECTION('',(1.,-0.,-0.));
#103 = ORIENTED_EDGE('',*,*,#104,.T.);
#104 = EDGE_CURVE('',#97,#105,#107,.T.);
#105 = VERTEX_POINT('',#106);
#106 = CARTESIAN_POINT('',(84.13437811163,56.05,2.2));
#107 = LINE('',#108,#109);
#108 = CARTESIAN_POINT('',(84.13437811163,56.05,0.8));
#109 = VECTOR('',#110,1.);
#110 = DIRECTION('',(-0.,-0.,1.));
#111 = ORIENTED_EDGE('',*,*,#112,.F.);
#112 = EDGE_CURVE('',#89,#105,#113,.T.);
#113 = LINE('',#114,#115);
#114 = CARTESIAN_POINT('',(4.,56.05,2.2));
#115 = VECTOR('',#116,1.);
#116 = DIRECTION('',(1.,-0.,-0.));
#117 = PLANE('',#118);
#118 = AXIS2_PLACEMENT_3D('',#119,#120,#121);
#119 = CARTESIAN_POINT('',(0.,56.05,7.105427357601E-15));
#120 = DIRECTION('',(-0.,-1.,-0.));
#121 = DIRECTION('',(0.,0.,-1.));
#122 = ADVANCED_FACE('',(#123),#141,.T.);
#123 = FACE_BOUND('',#124,.F.);
#124 = EDGE_LOOP('',(#125,#126,#127,#135));
#125 = ORIENTED_EDGE('',*,*,#47,.F.);
#126 = ORIENTED_EDGE('',*,*,#70,.T.);
#127 = ORIENTED_EDGE('',*,*,#128,.T.);
#128 = EDGE_CURVE('',#71,#129,#131,.T.);
#129 = VERTEX_POINT('',#130);
#130 = CARTESIAN_POINT('',(88.13437811163,1.05,3.));
#131 = LINE('',#132,#133);
#132 = CARTESIAN_POINT('',(88.13437811163,56.05,3.));
#133 = VECTOR('',#134,1.);
#134 = DIRECTION('',(-0.,-1.,-0.));
#135 = ORIENTED_EDGE('',*,*,#136,.F.);
#136 = EDGE_CURVE('',#40,#129,#137,.T.);
#137 = LINE('',#138,#139);
#138 = CARTESIAN_POINT('',(0.,1.05,3.));
#139 = VECTOR('',#140,1.);
#140 = DIRECTION('',(1.,-0.,-0.));
#141 = PLANE('',#142);
#142 = AXIS2_PLACEMENT_3D('',#143,#144,#145);
#143 = CARTESIAN_POINT('',(0.,56.05,3.));
#144 = DIRECTION('',(-0.,-0.,1.));
#145 = DIRECTION('',(-1.,0.,0.));
#146 = ADVANCED_FACE('',(#147,#165),#199,.T.);
#147 = FACE_BOUND('',#148,.F.);
#148 = EDGE_LOOP('',(#149,#157,#158,#159));
#149 = ORIENTED_EDGE('',*,*,#150,.F.);
#150 = EDGE_CURVE('',#32,#151,#153,.T.);
#151 = VERTEX_POINT('',#152);
#152 = CARTESIAN_POINT('',(88.13437811163,1.05,7.105427357601E-15));
#153 = LINE('',#154,#155);
#154 = CARTESIAN_POINT('',(0.,1.05,7.105427357601E-15));
#155 = VECTOR('',#156,1.);
#156 = DIRECTION('',(1.,-0.,-0.));
#157 = ORIENTED_EDGE('',*,*,#39,.T.);
#158 = ORIENTED_EDGE('',*,*,#136,.T.);
#159 = ORIENTED_EDGE('',*,*,#160,.F.);
#160 = EDGE_CURVE('',#151,#129,#161,.T.);
#161 = LINE('',#162,#163);
#162 = CARTESIAN_POINT('',(88.13437811163,1.05,7.105427357601E-15));
#163 = VECTOR('',#164,1.);
#164 = DIRECTION('',(-0.,-0.,1.));
#165 = FACE_BOUND('',#166,.F.);
#166 = EDGE_LOOP('',(#167,#177,#185,#193));
#167 = ORIENTED_EDGE('',*,*,#168,.F.);
#168 = EDGE_CURVE('',#169,#171,#173,.T.);
#169 = VERTEX_POINT('',#170);
#170 = CARTESIAN_POINT('',(4.,1.05,0.8));
#171 = VERTEX_POINT('',#172);
#172 = CARTESIAN_POINT('',(4.,1.05,2.2));
#173 = LINE('',#174,#175);
#174 = CARTESIAN_POINT('',(4.,1.05,0.8));
#175 = VECTOR('',#176,1.);
#176 = DIRECTION('',(-0.,-0.,1.));
#177 = ORIENTED_EDGE('',*,*,#178,.T.);
#178 = EDGE_CURVE('',#169,#179,#181,.T.);
#179 = VERTEX_POINT('',#180);
#180 = CARTESIAN_POINT('',(84.13437811163,1.05,0.8));
#181 = LINE('',#182,#183);
#182 = CARTESIAN_POINT('',(4.,1.05,0.8));
#183 = VECTOR('',#184,1.);
#184 = DIRECTION('',(1.,-0.,-0.));
#185 = ORIENTED_EDGE('',*,*,#186,.T.);
#186 = EDGE_CURVE('',#179,#187,#189,.T.);
#187 = VERTEX_POINT('',#188);
#188 = CARTESIAN_POINT('',(84.13437811163,1.05,2.2));
#189 = LINE('',#190,#191);
#190 = CARTESIAN_POINT('',(84.13437811163,1.05,0.8));
#191 = VECTOR('',#192,1.);
#192 = DIRECTION('',(-0.,-0.,1.));
#193 = ORIENTED_EDGE('',*,*,#194,.F.);
#194 = EDGE_CURVE('',#171,#187,#195,.T.);
#195 = LINE('',#196,#197);
#196 = CARTESIAN_POINT('',(4.,1.05,2.2));
#197 = VECTOR('',#198,1.);
#198 = DIRECTION('',(1.,-0.,-0.));
#199 = PLANE('',#200);
#200 = AXIS2_PLACEMENT_3D('',#201,#202,#203);
#201 = CARTESIAN_POINT('',(0.,1.05,7.105427357601E-15));
#202 = DIRECTION('',(-0.,-1.,-0.));
#203 = DIRECTION('',(0.,0.,-1.));
#204 = ADVANCED_FACE('',(#205),#280,.F.);
#205 = FACE_BOUND('',#206,.T.);
#206 = EDGE_LOOP('',(#207,#215,#216,#217,#218,#226,#234,#242,#250,#258,
    #266,#274));
#207 = ORIENTED_EDGE('',*,*,#208,.T.);
#208 = EDGE_CURVE('',#209,#151,#211,.T.);
#209 = VERTEX_POINT('',#210);
#210 = CARTESIAN_POINT('',(88.13437811163,1.85,7.105427357601E-15));
#211 = LINE('',#212,#213);
#212 = CARTESIAN_POINT('',(88.13437811163,56.05,7.105427357601E-15));
#213 = VECTOR('',#214,1.);
#214 = DIRECTION('',(-0.,-1.,-0.));
#215 = ORIENTED_EDGE('',*,*,#150,.F.);
#216 = ORIENTED_EDGE('',*,*,#31,.F.);
#217 = ORIENTED_EDGE('',*,*,#61,.T.);
#218 = ORIENTED_EDGE('',*,*,#219,.T.);
#219 = EDGE_CURVE('',#62,#220,#222,.T.);
#220 = VERTEX_POINT('',#221);
#221 = CARTESIAN_POINT('',(88.13437811163,55.25,7.105427357601E-15));
#222 = LINE('',#223,#224);
#223 = CARTESIAN_POINT('',(88.13437811163,56.05,7.105427357601E-15));
#224 = VECTOR('',#225,1.);
#225 = DIRECTION('',(-0.,-1.,-0.));
#226 = ORIENTED_EDGE('',*,*,#227,.T.);
#227 = EDGE_CURVE('',#220,#228,#230,.T.);
#228 = VERTEX_POINT('',#229);
#229 = CARTESIAN_POINT('',(86.554182806538,55.25,3.552713678801E-15));
#230 = LINE('',#231,#232);
#231 = CARTESIAN_POINT('',(46.638545701634,55.25,7.105427357601E-15));
#232 = VECTOR('',#233,1.);
#233 = DIRECTION('',(-1.,-0.,-0.));
#234 = ORIENTED_EDGE('',*,*,#235,.T.);
#235 = EDGE_CURVE('',#228,#236,#238,.T.);
#236 = VERTEX_POINT('',#237);
#237 = CARTESIAN_POINT('',(86.554182806538,53.35,3.552713678801E-15));
#238 = LINE('',#239,#240);
#239 = CARTESIAN_POINT('',(86.554182806538,55.25,7.105427357601E-15));
#240 = VECTOR('',#241,1.);
#241 = DIRECTION('',(-0.,-1.,-0.));
#242 = ORIENTED_EDGE('',*,*,#243,.F.);
#243 = EDGE_CURVE('',#244,#236,#246,.T.);
#244 = VERTEX_POINT('',#245);
#245 = CARTESIAN_POINT('',(88.13437811163,53.35,7.105427357601E-15));
#246 = LINE('',#247,#248);
#247 = CARTESIAN_POINT('',(46.638545701634,53.35,7.105427357601E-15));
#248 = VECTOR('',#249,1.);
#249 = DIRECTION('',(-1.,-0.,-0.));
#250 = ORIENTED_EDGE('',*,*,#251,.T.);
#251 = EDGE_CURVE('',#244,#252,#254,.T.);
#252 = VERTEX_POINT('',#253);
#253 = CARTESIAN_POINT('',(88.13437811163,3.75,7.105427357601E-15));
#254 = LINE('',#255,#256);
#255 = CARTESIAN_POINT('',(88.13437811163,56.05,7.105427357601E-15));
#256 = VECTOR('',#257,1.);
#257 = DIRECTION('',(-0.,-1.,-0.));
#258 = ORIENTED_EDGE('',*,*,#259,.T.);
#259 = EDGE_CURVE('',#252,#260,#262,.T.);
#260 = VERTEX_POINT('',#261);
#261 = CARTESIAN_POINT('',(86.554182806538,3.75,3.552713678801E-15));
#262 = LINE('',#263,#264);
#263 = CARTESIAN_POINT('',(46.638545701634,3.75,7.105427357601E-15));
#264 = VECTOR('',#265,1.);
#265 = DIRECTION('',(-1.,-0.,-0.));
#266 = ORIENTED_EDGE('',*,*,#267,.T.);
#267 = EDGE_CURVE('',#260,#268,#270,.T.);
#268 = VERTEX_POINT('',#269);
#269 = CARTESIAN_POINT('',(86.554182806538,1.85,3.552713678801E-15));
#270 = LINE('',#271,#272);
#271 = CARTESIAN_POINT('',(86.554182806538,3.75,7.105427357601E-15));
#272 = VECTOR('',#273,1.);
#273 = DIRECTION('',(-0.,-1.,-0.));
#274 = ORIENTED_EDGE('',*,*,#275,.F.);
#275 = EDGE_CURVE('',#209,#268,#276,.T.);
#276 = LINE('',#277,#278);
#277 = CARTESIAN_POINT('',(46.638545701634,1.85,7.105427357601E-15));
#278 = VECTOR('',#279,1.);
#279 = DIRECTION('',(-1.,-0.,-0.));
#280 = PLANE('',#281);
#281 = AXIS2_PLACEMENT_3D('',#282,#283,#284);
#282 = CARTESIAN_POINT('',(0.,56.05,7.105427357601E-15));
#283 = DIRECTION('',(-0.,-0.,1.));
#284 = DIRECTION('',(-1.,0.,0.));
#285 = ADVANCED_FACE('',(#286),#338,.T.);
#286 = FACE_BOUND('',#287,.F.);
#287 = EDGE_LOOP('',(#288,#289,#290,#291,#292,#300,#308,#314,#315,#323,
    #331,#337));
#288 = ORIENTED_EDGE('',*,*,#160,.T.);
#289 = ORIENTED_EDGE('',*,*,#128,.F.);
#290 = ORIENTED_EDGE('',*,*,#78,.F.);
#291 = ORIENTED_EDGE('',*,*,#219,.T.);
#292 = ORIENTED_EDGE('',*,*,#293,.T.);
#293 = EDGE_CURVE('',#220,#294,#296,.T.);
#294 = VERTEX_POINT('',#295);
#295 = CARTESIAN_POINT('',(88.13437811163,55.25,2.79894725176));
#296 = LINE('',#297,#298);
#297 = CARTESIAN_POINT('',(88.13437811163,55.25,-0.975));
#298 = VECTOR('',#299,1.);
#299 = DIRECTION('',(-0.,-0.,1.));
#300 = ORIENTED_EDGE('',*,*,#301,.T.);
#301 = EDGE_CURVE('',#294,#302,#304,.T.);
#302 = VERTEX_POINT('',#303);
#303 = CARTESIAN_POINT('',(88.13437811163,53.35,2.79894725176));
#304 = LINE('',#305,#306);
#305 = CARTESIAN_POINT('',(88.13437811163,55.25,2.79894725176));
#306 = VECTOR('',#307,1.);
#307 = DIRECTION('',(-0.,-1.,-0.));
#308 = ORIENTED_EDGE('',*,*,#309,.F.);
#309 = EDGE_CURVE('',#244,#302,#310,.T.);
#310 = LINE('',#311,#312);
#311 = CARTESIAN_POINT('',(88.13437811163,53.35,-0.975));
#312 = VECTOR('',#313,1.);
#313 = DIRECTION('',(-0.,-0.,1.));
#314 = ORIENTED_EDGE('',*,*,#251,.T.);
#315 = ORIENTED_EDGE('',*,*,#316,.T.);
#316 = EDGE_CURVE('',#252,#317,#319,.T.);
#317 = VERTEX_POINT('',#318);
#318 = CARTESIAN_POINT('',(88.13437811163,3.75,2.79894725176));
#319 = LINE('',#320,#321);
#320 = CARTESIAN_POINT('',(88.13437811163,3.75,-0.975));
#321 = VECTOR('',#322,1.);
#322 = DIRECTION('',(-0.,-0.,1.));
#323 = ORIENTED_EDGE('',*,*,#324,.T.);
#324 = EDGE_CURVE('',#317,#325,#327,.T.);
#325 = VERTEX_POINT('',#326);
#326 = CARTESIAN_POINT('',(88.13437811163,1.85,2.79894725176));
#327 = LINE('',#328,#329);
#328 = CARTESIAN_POINT('',(88.13437811163,3.75,2.79894725176));
#329 = VECTOR('',#330,1.);
#330 = DIRECTION('',(-0.,-1.,-0.));
#331 = ORIENTED_EDGE('',*,*,#332,.F.);
#332 = EDGE_CURVE('',#209,#325,#333,.T.);
#333 = LINE('',#334,#335);
#334 = CARTESIAN_POINT('',(88.13437811163,1.85,-0.975));
#335 = VECTOR('',#336,1.);
#336 = DIRECTION('',(-0.,-0.,1.));
#337 = ORIENTED_EDGE('',*,*,#208,.T.);
#338 = PLANE('',#339);
#339 = AXIS2_PLACEMENT_3D('',#340,#341,#342);
#340 = CARTESIAN_POINT('',(88.13437811163,56.05,7.105427357601E-15));
#341 = DIRECTION('',(1.,-0.,-0.));
#342 = DIRECTION('',(0.,0.,-1.));
#343 = ADVANCED_FACE('',(#344),#369,.F.);
#344 = FACE_BOUND('',#345,.T.);
#345 = EDGE_LOOP('',(#346,#356,#362,#363));
#346 = ORIENTED_EDGE('',*,*,#347,.F.);
#347 = EDGE_CURVE('',#348,#350,#352,.T.);
#348 = VERTEX_POINT('',#349);
#349 = CARTESIAN_POINT('',(4.,57.1,0.8));
#350 = VERTEX_POINT('',#351);
#351 = CARTESIAN_POINT('',(4.,57.1,2.2));
#352 = LINE('',#353,#354);
#353 = CARTESIAN_POINT('',(4.,57.1,0.8));
#354 = VECTOR('',#355,1.);
#355 = DIRECTION('',(-0.,-0.,1.));
#356 = ORIENTED_EDGE('',*,*,#357,.T.);
#357 = EDGE_CURVE('',#348,#87,#358,.T.);
#358 = LINE('',#359,#360);
#359 = CARTESIAN_POINT('',(4.,57.1,0.8));
#360 = VECTOR('',#361,1.);
#361 = DIRECTION('',(-0.,-1.,-0.));
#362 = ORIENTED_EDGE('',*,*,#86,.T.);
#363 = ORIENTED_EDGE('',*,*,#364,.F.);
#364 = EDGE_CURVE('',#350,#89,#365,.T.);
#365 = LINE('',#366,#367);
#366 = CARTESIAN_POINT('',(4.,57.1,2.2));
#367 = VECTOR('',#368,1.);
#368 = DIRECTION('',(-0.,-1.,-0.));
#369 = PLANE('',#370);
#370 = AXIS2_PLACEMENT_3D('',#371,#372,#373);
#371 = CARTESIAN_POINT('',(4.,57.1,0.8));
#372 = DIRECTION('',(1.,-0.,-0.));
#373 = DIRECTION('',(0.,0.,-1.));
#374 = ADVANCED_FACE('',(#375),#393,.T.);
#375 = FACE_BOUND('',#376,.F.);
#376 = EDGE_LOOP('',(#377,#378,#386,#392));
#377 = ORIENTED_EDGE('',*,*,#364,.F.);
#378 = ORIENTED_EDGE('',*,*,#379,.T.);
#379 = EDGE_CURVE('',#350,#380,#382,.T.);
#380 = VERTEX_POINT('',#381);
#381 = CARTESIAN_POINT('',(84.13437811163,57.1,2.2));
#382 = LINE('',#383,#384);
#383 = CARTESIAN_POINT('',(4.,57.1,2.2));
#384 = VECTOR('',#385,1.);
#385 = DIRECTION('',(1.,-0.,-0.));
#386 = ORIENTED_EDGE('',*,*,#387,.T.);
#387 = EDGE_CURVE('',#380,#105,#388,.T.);
#388 = LINE('',#389,#390);
#389 = CARTESIAN_POINT('',(84.13437811163,57.1,2.2));
#390 = VECTOR('',#391,1.);
#391 = DIRECTION('',(-0.,-1.,-0.));
#392 = ORIENTED_EDGE('',*,*,#112,.F.);
#393 = PLANE('',#394);
#394 = AXIS2_PLACEMENT_3D('',#395,#396,#397);
#395 = CARTESIAN_POINT('',(4.,57.1,2.2));
#396 = DIRECTION('',(-0.,-0.,1.));
#397 = DIRECTION('',(-1.,0.,0.));
#398 = ADVANCED_FACE('',(#399),#417,.T.);
#399 = FACE_BOUND('',#400,.F.);
#400 = EDGE_LOOP('',(#401,#409,#415,#416));
#401 = ORIENTED_EDGE('',*,*,#402,.F.);
#402 = EDGE_CURVE('',#403,#380,#405,.T.);
#403 = VERTEX_POINT('',#404);
#404 = CARTESIAN_POINT('',(84.13437811163,57.1,0.8));
#405 = LINE('',#406,#407);
#406 = CARTESIAN_POINT('',(84.13437811163,57.1,0.8));
#407 = VECTOR('',#408,1.);
#408 = DIRECTION('',(-0.,-0.,1.));
#409 = ORIENTED_EDGE('',*,*,#410,.T.);
#410 = EDGE_CURVE('',#403,#97,#411,.T.);
#411 = LINE('',#412,#413);
#412 = CARTESIAN_POINT('',(84.13437811163,57.1,0.8));
#413 = VECTOR('',#414,1.);
#414 = DIRECTION('',(-0.,-1.,-0.));
#415 = ORIENTED_EDGE('',*,*,#104,.T.);
#416 = ORIENTED_EDGE('',*,*,#387,.F.);
#417 = PLANE('',#418);
#418 = AXIS2_PLACEMENT_3D('',#419,#420,#421);
#419 = CARTESIAN_POINT('',(84.13437811163,57.1,0.8));
#420 = DIRECTION('',(1.,-0.,-0.));
#421 = DIRECTION('',(0.,0.,-1.));
#422 = ADVANCED_FACE('',(#423),#434,.F.);
#423 = FACE_BOUND('',#424,.T.);
#424 = EDGE_LOOP('',(#425,#426,#432,#433));
#425 = ORIENTED_EDGE('',*,*,#357,.F.);
#426 = ORIENTED_EDGE('',*,*,#427,.T.);
#427 = EDGE_CURVE('',#348,#403,#428,.T.);
#428 = LINE('',#429,#430);
#429 = CARTESIAN_POINT('',(4.,57.1,0.8));
#430 = VECTOR('',#431,1.);
#431 = DIRECTION('',(1.,-0.,-0.));
#432 = ORIENTED_EDGE('',*,*,#410,.T.);
#433 = ORIENTED_EDGE('',*,*,#96,.F.);
#434 = PLANE('',#435);
#435 = AXIS2_PLACEMENT_3D('',#436,#437,#438);
#436 = CARTESIAN_POINT('',(4.,57.1,0.8));
#437 = DIRECTION('',(-0.,-0.,1.));
#438 = DIRECTION('',(-1.,0.,0.));
#439 = ADVANCED_FACE('',(#440),#465,.F.);
#440 = FACE_BOUND('',#441,.T.);
#441 = EDGE_LOOP('',(#442,#443,#451,#459));
#442 = ORIENTED_EDGE('',*,*,#168,.F.);
#443 = ORIENTED_EDGE('',*,*,#444,.T.);
#444 = EDGE_CURVE('',#169,#445,#447,.T.);
#445 = VERTEX_POINT('',#446);
#446 = CARTESIAN_POINT('',(4.,0.,0.8));
#447 = LINE('',#448,#449);
#448 = CARTESIAN_POINT('',(4.,1.05,0.8));
#449 = VECTOR('',#450,1.);
#450 = DIRECTION('',(-0.,-1.,-0.));
#451 = ORIENTED_EDGE('',*,*,#452,.T.);
#452 = EDGE_CURVE('',#445,#453,#455,.T.);
#453 = VERTEX_POINT('',#454);
#454 = CARTESIAN_POINT('',(4.,0.,2.2));
#455 = LINE('',#456,#457);
#456 = CARTESIAN_POINT('',(4.,0.,0.8));
#457 = VECTOR('',#458,1.);
#458 = DIRECTION('',(-0.,-0.,1.));
#459 = ORIENTED_EDGE('',*,*,#460,.F.);
#460 = EDGE_CURVE('',#171,#453,#461,.T.);
#461 = LINE('',#462,#463);
#462 = CARTESIAN_POINT('',(4.,1.05,2.2));
#463 = VECTOR('',#464,1.);
#464 = DIRECTION('',(-0.,-1.,-0.));
#465 = PLANE('',#466);
#466 = AXIS2_PLACEMENT_3D('',#467,#468,#469);
#467 = CARTESIAN_POINT('',(4.,1.05,0.8));
#468 = DIRECTION('',(1.,-0.,-0.));
#469 = DIRECTION('',(0.,0.,-1.));
#470 = ADVANCED_FACE('',(#471),#489,.T.);
#471 = FACE_BOUND('',#472,.F.);
#472 = EDGE_LOOP('',(#473,#474,#475,#483));
#473 = ORIENTED_EDGE('',*,*,#460,.F.);
#474 = ORIENTED_EDGE('',*,*,#194,.T.);
#475 = ORIENTED_EDGE('',*,*,#476,.T.);
#476 = EDGE_CURVE('',#187,#477,#479,.T.);
#477 = VERTEX_POINT('',#478);
#478 = CARTESIAN_POINT('',(84.13437811163,0.,2.2));
#479 = LINE('',#480,#481);
#480 = CARTESIAN_POINT('',(84.13437811163,1.05,2.2));
#481 = VECTOR('',#482,1.);
#482 = DIRECTION('',(-0.,-1.,-0.));
#483 = ORIENTED_EDGE('',*,*,#484,.F.);
#484 = EDGE_CURVE('',#453,#477,#485,.T.);
#485 = LINE('',#486,#487);
#486 = CARTESIAN_POINT('',(4.,0.,2.2));
#487 = VECTOR('',#488,1.);
#488 = DIRECTION('',(1.,-0.,-0.));
#489 = PLANE('',#490);
#490 = AXIS2_PLACEMENT_3D('',#491,#492,#493);
#491 = CARTESIAN_POINT('',(4.,1.05,2.2));
#492 = DIRECTION('',(-0.,-0.,1.));
#493 = DIRECTION('',(-1.,0.,0.));
#494 = ADVANCED_FACE('',(#495),#513,.T.);
#495 = FACE_BOUND('',#496,.F.);
#496 = EDGE_LOOP('',(#497,#498,#506,#512));
#497 = ORIENTED_EDGE('',*,*,#186,.F.);
#498 = ORIENTED_EDGE('',*,*,#499,.T.);
#499 = EDGE_CURVE('',#179,#500,#502,.T.);
#500 = VERTEX_POINT('',#501);
#501 = CARTESIAN_POINT('',(84.13437811163,0.,0.8));
#502 = LINE('',#503,#504);
#503 = CARTESIAN_POINT('',(84.13437811163,1.05,0.8));
#504 = VECTOR('',#505,1.);
#505 = DIRECTION('',(-0.,-1.,-0.));
#506 = ORIENTED_EDGE('',*,*,#507,.T.);
#507 = EDGE_CURVE('',#500,#477,#508,.T.);
#508 = LINE('',#509,#510);
#509 = CARTESIAN_POINT('',(84.13437811163,0.,0.8));
#510 = VECTOR('',#511,1.);
#511 = DIRECTION('',(-0.,-0.,1.));
#512 = ORIENTED_EDGE('',*,*,#476,.F.);
#513 = PLANE('',#514);
#514 = AXIS2_PLACEMENT_3D('',#515,#516,#517);
#515 = CARTESIAN_POINT('',(84.13437811163,1.05,0.8));
#516 = DIRECTION('',(1.,-0.,-0.));
#517 = DIRECTION('',(0.,0.,-1.));
#518 = ADVANCED_FACE('',(#519),#530,.F.);
#519 = FACE_BOUND('',#520,.T.);
#520 = EDGE_LOOP('',(#521,#522,#523,#524));
#521 = ORIENTED_EDGE('',*,*,#444,.F.);
#522 = ORIENTED_EDGE('',*,*,#178,.T.);
#523 = ORIENTED_EDGE('',*,*,#499,.T.);
#524 = ORIENTED_EDGE('',*,*,#525,.F.);
#525 = EDGE_CURVE('',#445,#500,#526,.T.);
#526 = LINE('',#527,#528);
#527 = CARTESIAN_POINT('',(4.,0.,0.8));
#528 = VECTOR('',#529,1.);
#529 = DIRECTION('',(1.,-0.,-0.));
#530 = PLANE('',#531);
#531 = AXIS2_PLACEMENT_3D('',#532,#533,#534);
#532 = CARTESIAN_POINT('',(4.,1.05,0.8));
#533 = DIRECTION('',(-0.,-0.,1.));
#534 = DIRECTION('',(-1.,0.,0.));
#535 = ADVANCED_FACE('',(#536),#547,.F.);
#536 = FACE_BOUND('',#537,.T.);
#537 = EDGE_LOOP('',(#538,#539,#546));
#538 = ORIENTED_EDGE('',*,*,#275,.T.);
#539 = ORIENTED_EDGE('',*,*,#540,.T.);
#540 = EDGE_CURVE('',#268,#325,#541,.T.);
#541 = CIRCLE('',#542,7.);
#542 = AXIS2_PLACEMENT_3D('',#543,#544,#545);
#543 = CARTESIAN_POINT('',(93.277091403269,1.85,-1.95));
#544 = DIRECTION('',(0.,1.,0.));
#545 = DIRECTION('',(-0.,-0.,1.));
#546 = ORIENTED_EDGE('',*,*,#332,.F.);
#547 = PLANE('',#548);
#548 = AXIS2_PLACEMENT_3D('',#549,#550,#551);
#549 = CARTESIAN_POINT('',(93.277091403269,1.85,-1.95));
#550 = DIRECTION('',(-0.,-1.,-0.));
#551 = DIRECTION('',(0.,0.,-1.));
#552 = ADVANCED_FACE('',(#553),#565,.F.);
#553 = FACE_BOUND('',#554,.T.);
#554 = EDGE_LOOP('',(#555,#556,#557,#564));
#555 = ORIENTED_EDGE('',*,*,#540,.F.);
#556 = ORIENTED_EDGE('',*,*,#267,.F.);
#557 = ORIENTED_EDGE('',*,*,#558,.T.);
#558 = EDGE_CURVE('',#260,#317,#559,.T.);
#559 = CIRCLE('',#560,7.);
#560 = AXIS2_PLACEMENT_3D('',#561,#562,#563);
#561 = CARTESIAN_POINT('',(93.277091403269,3.75,-1.95));
#562 = DIRECTION('',(0.,1.,0.));
#563 = DIRECTION('',(-0.,-0.,1.));
#564 = ORIENTED_EDGE('',*,*,#324,.T.);
#565 = CYLINDRICAL_SURFACE('',#566,7.);
#566 = AXIS2_PLACEMENT_3D('',#567,#568,#569);
#567 = CARTESIAN_POINT('',(93.277091403269,3.75,-1.95));
#568 = DIRECTION('',(-0.,-1.,-0.));
#569 = DIRECTION('',(-0.,-0.,1.));
#570 = ADVANCED_FACE('',(#571),#576,.T.);
#571 = FACE_BOUND('',#572,.F.);
#572 = EDGE_LOOP('',(#573,#574,#575));
#573 = ORIENTED_EDGE('',*,*,#259,.T.);
#574 = ORIENTED_EDGE('',*,*,#558,.T.);
#575 = ORIENTED_EDGE('',*,*,#316,.F.);
#576 = PLANE('',#577);
#577 = AXIS2_PLACEMENT_3D('',#578,#579,#580);
#578 = CARTESIAN_POINT('',(93.277091403269,3.75,-1.95));
#579 = DIRECTION('',(-0.,-1.,-0.));
#580 = DIRECTION('',(0.,0.,-1.));
#581 = ADVANCED_FACE('',(#582),#593,.F.);
#582 = FACE_BOUND('',#583,.T.);
#583 = EDGE_LOOP('',(#584,#585,#592));
#584 = ORIENTED_EDGE('',*,*,#243,.T.);
#585 = ORIENTED_EDGE('',*,*,#586,.T.);
#586 = EDGE_CURVE('',#236,#302,#587,.T.);
#587 = CIRCLE('',#588,7.);
#588 = AXIS2_PLACEMENT_3D('',#589,#590,#591);
#589 = CARTESIAN_POINT('',(93.277091403269,53.35,-1.95));
#590 = DIRECTION('',(0.,1.,0.));
#591 = DIRECTION('',(-0.,-0.,1.));
#592 = ORIENTED_EDGE('',*,*,#309,.F.);
#593 = PLANE('',#594);
#594 = AXIS2_PLACEMENT_3D('',#595,#596,#597);
#595 = CARTESIAN_POINT('',(93.277091403269,53.35,-1.95));
#596 = DIRECTION('',(-0.,-1.,-0.));
#597 = DIRECTION('',(0.,0.,-1.));
#598 = ADVANCED_FACE('',(#599),#611,.F.);
#599 = FACE_BOUND('',#600,.T.);
#600 = EDGE_LOOP('',(#601,#602,#603,#610));
#601 = ORIENTED_EDGE('',*,*,#586,.F.);
#602 = ORIENTED_EDGE('',*,*,#235,.F.);
#603 = ORIENTED_EDGE('',*,*,#604,.T.);
#604 = EDGE_CURVE('',#228,#294,#605,.T.);
#605 = CIRCLE('',#606,7.);
#606 = AXIS2_PLACEMENT_3D('',#607,#608,#609);
#607 = CARTESIAN_POINT('',(93.277091403269,55.25,-1.95));
#608 = DIRECTION('',(0.,1.,0.));
#609 = DIRECTION('',(-0.,-0.,1.));
#610 = ORIENTED_EDGE('',*,*,#301,.T.);
#611 = CYLINDRICAL_SURFACE('',#612,7.);
#612 = AXIS2_PLACEMENT_3D('',#613,#614,#615);
#613 = CARTESIAN_POINT('',(93.277091403269,55.25,-1.95));
#614 = DIRECTION('',(-0.,-1.,-0.));
#615 = DIRECTION('',(-0.,-0.,1.));
#616 = ADVANCED_FACE('',(#617),#622,.T.);
#617 = FACE_BOUND('',#618,.F.);
#618 = EDGE_LOOP('',(#619,#620,#621));
#619 = ORIENTED_EDGE('',*,*,#227,.T.);
#620 = ORIENTED_EDGE('',*,*,#604,.T.);
#621 = ORIENTED_EDGE('',*,*,#293,.F.);
#622 = PLANE('',#623);
#623 = AXIS2_PLACEMENT_3D('',#624,#625,#626);
#624 = CARTESIAN_POINT('',(93.277091403269,55.25,-1.95));
#625 = DIRECTION('',(-0.,-1.,-0.));
#626 = DIRECTION('',(0.,0.,-1.));
#627 = ADVANCED_FACE('',(#628),#634,.F.);
#628 = FACE_BOUND('',#629,.T.);
#629 = EDGE_LOOP('',(#630,#631,#632,#633));
#630 = ORIENTED_EDGE('',*,*,#427,.F.);
#631 = ORIENTED_EDGE('',*,*,#347,.T.);
#632 = ORIENTED_EDGE('',*,*,#379,.T.);
#633 = ORIENTED_EDGE('',*,*,#402,.F.);
#634 = PLANE('',#635);
#635 = AXIS2_PLACEMENT_3D('',#636,#637,#638);
#636 = CARTESIAN_POINT('',(4.,57.1,0.8));
#637 = DIRECTION('',(-0.,-1.,-0.));
#638 = DIRECTION('',(0.,0.,-1.));
#639 = ADVANCED_FACE('',(#640),#646,.T.);
#640 = FACE_BOUND('',#641,.F.);
#641 = EDGE_LOOP('',(#642,#643,#644,#645));
#642 = ORIENTED_EDGE('',*,*,#525,.F.);
#643 = ORIENTED_EDGE('',*,*,#452,.T.);
#644 = ORIENTED_EDGE('',*,*,#484,.T.);
#645 = ORIENTED_EDGE('',*,*,#507,.F.);
#646 = PLANE('',#647);
#647 = AXIS2_PLACEMENT_3D('',#648,#649,#650);
#648 = CARTESIAN_POINT('',(4.,0.,0.8));
#649 = DIRECTION('',(-0.,-1.,-0.));
#650 = DIRECTION('',(0.,0.,-1.));
#651 = ( GEOMETRIC_REPRESENTATION_CONTEXT(3) 
GLOBAL_UNCERTAINTY_ASSIGNED_CONTEXT((#655)) GLOBAL_UNIT_ASSIGNED_CONTEXT
((#652,#653,#654)) REPRESENTATION_CONTEXT('Context #1',
  '3D Context with UNIT and UNCERTAINTY') );
#652 = ( LENGTH_UNIT() NAMED_UNIT(*) SI_UNIT(.MILLI.,.METRE.) );
#653 = ( NAMED_UNIT(*) PLANE_ANGLE_UNIT() SI_UNIT($,.RADIAN.) );
#654 = ( NAMED_UNIT(*) SI_UNIT($,.STERADIAN.) SOLID_ANGLE_UNIT() );
#655 = UNCERTAINTY_MEASURE_WITH_UNIT(LENGTH_MEASURE(1.E-07),#652,
  'distance_accuracy_value','confusion accuracy');
#656 = PRODUCT_RELATED_PRODUCT_CATEGORY('part',$,(#7));
ENDSEC;
END-ISO-10303-21;
