ISO-10303-21;
HEADER;
FILE_DESCRIPTION(('FreeCAD Model'),'2;1');
FILE_NAME('Open CASCADE Shape Model','2026-09-26T11:04:27',('FreeCAD'),(
    'FreeCAD'),'Open CASCADE STEP processor 7.8','FreeCAD','Unknown');
FILE_SCHEMA(('AUTOMOTIVE_DESIGN { 1 0 10303 214 1 1 1 1 }'));
ENDSEC;
DATA;
#1 = APPLICATION_PROTOCOL_DEFINITION('international standard',
  'automotive_design',2000,#2);
#2 = APPLICATION_CONTEXT(
  'core data for automotive mechanical design processes');
#3 = SHAPE_DEFINITION_REPRESENTATION(#4,#10);
#4 = PRODUCT_DEFINITION_SHAPE('','',#5);
#5 = PRODUCT_DEFINITION('design','',#6,#9);
#6 = PRODUCT_DEFINITION_FORMATION('','',#7);
#7 = PRODUCT('Open CASCADE STEP translator 7.8 15',
  'Open CASCADE STEP translator 7.8 15','',(#8));
#8 = PRODUCT_CONTEXT('',#2,'mechanical');
#9 = PRODUCT_DEFINITION_CONTEXT('part definition',#2,'design');
#10 = ADVANCED_BREP_SHAPE_REPRESENTATION('',(#11,#15),#1604);
#11 = AXIS2_PLACEMENT_3D('',#12,#13,#14);
#12 = CARTESIAN_POINT('',(0.,0.,0.));
#13 = DIRECTION('',(0.,0.,1.));
#14 = DIRECTION('',(1.,0.,-0.));
#15 = MANIFOLD_SOLID_BREP('',#16);
#16 = CLOSED_SHELL('',(#17,#73,#272,#303,#327,#494,#511,#569,#593,#617,
    #634,#651,#673,#690,#707,#724,#741,#758,#775,#787,#841,#915,#995,
    #1019,#1043,#1071,#1144,#1156,#1180,#1204,#1221,#1245,#1269,#1286,
    #1298,#1310,#1327,#1339,#1370,#1394,#1418,#1442,#1466,#1483,#1495,
    #1520,#1545,#1562,#1587));
#17 = ADVANCED_FACE('',(#18),#68,.F.);
#18 = FACE_BOUND('',#19,.F.);
#19 = EDGE_LOOP('',(#20,#30,#38,#46,#54,#62));
#20 = ORIENTED_EDGE('',*,*,#21,.F.);
#21 = EDGE_CURVE('',#22,#24,#26,.T.);
#22 = VERTEX_POINT('',#23);
#23 = CARTESIAN_POINT('',(0.,0.,0.));
#24 = VERTEX_POINT('',#25);
#25 = CARTESIAN_POINT('',(0.,0.,14.));
#26 = LINE('',#27,#28);
#27 = CARTESIAN_POINT('',(0.,0.,0.));
#28 = VECTOR('',#29,1.);
#29 = DIRECTION('',(0.,0.,1.));
#30 = ORIENTED_EDGE('',*,*,#31,.T.);
#31 = EDGE_CURVE('',#22,#32,#34,.T.);
#32 = VERTEX_POINT('',#33);
#33 = CARTESIAN_POINT('',(0.,3.,0.));
#34 = LINE('',#35,#36);
#35 = CARTESIAN_POINT('',(0.,0.,0.));
#36 = VECTOR('',#37,1.);
#37 = DIRECTION('',(-0.,1.,0.));
#38 = ORIENTED_EDGE('',*,*,#39,.T.);
#39 = EDGE_CURVE('',#32,#40,#42,.T.);
#40 = VERTEX_POINT('',#41);
#41 = CARTESIAN_POINT('',(0.,3.,35.));
#42 = LINE('',#43,#44);
#43 = CARTESIAN_POINT('',(0.,3.,0.));
#44 = VECTOR('',#45,1.);
#45 = DIRECTION('',(0.,0.,1.));
#46 = ORIENTED_EDGE('',*,*,#47,.F.);
#47 = EDGE_CURVE('',#48,#40,#50,.T.);
#48 = VERTEX_POINT('',#49);
#49 = CARTESIAN_POINT('',(0.,0.,35.));
#50 = LINE('',#51,#52);
#51 = CARTESIAN_POINT('',(0.,0.,35.));
#52 = VECTOR('',#53,1.);
#53 = DIRECTION('',(-0.,1.,0.));
#54 = ORIENTED_EDGE('',*,*,#55,.F.);
#55 = EDGE_CURVE('',#56,#48,#58,.T.);
#56 = VERTEX_POINT('',#57);
#57 = CARTESIAN_POINT('',(0.,0.,17.));
#58 = LINE('',#59,#60);
#59 = CARTESIAN_POINT('',(0.,0.,0.));
#60 = VECTOR('',#61,1.);
#61 = DIRECTION('',(0.,0.,1.));
#62 = ORIENTED_EDGE('',*,*,#63,.F.);
#63 = EDGE_CURVE('',#24,#56,#64,.T.);
#64 = LINE('',#65,#66);
#65 = CARTESIAN_POINT('',(0.,0.,0.));
#66 = VECTOR('',#67,1.);
#67 = DIRECTION('',(0.,0.,1.));
#68 = PLANE('',#69);
#69 = AXIS2_PLACEMENT_3D('',#70,#71,#72);
#70 = CARTESIAN_POINT('',(0.,0.,0.));
#71 = DIRECTION('',(1.,0.,-0.));
#72 = DIRECTION('',(0.,0.,1.));
#73 = ADVANCED_FACE('',(#74,#122,#133,#201),#267,.F.);
#74 = FACE_BOUND('',#75,.F.);
#75 = EDGE_LOOP('',(#76,#86,#92,#93,#101,#109,#115,#116));
#76 = ORIENTED_EDGE('',*,*,#77,.T.);
#77 = EDGE_CURVE('',#78,#80,#82,.T.);
#78 = VERTEX_POINT('',#79);
#79 = CARTESIAN_POINT('',(30.,0.,35.));
#80 = VERTEX_POINT('',#81);
#81 = CARTESIAN_POINT('',(30.,0.,0.));
#82 = LINE('',#83,#84);
#83 = CARTESIAN_POINT('',(30.,0.,-0.5));
#84 = VECTOR('',#85,1.);
#85 = DIRECTION('',(-0.,0.,-1.));
#86 = ORIENTED_EDGE('',*,*,#87,.F.);
#87 = EDGE_CURVE('',#22,#80,#88,.T.);
#88 = LINE('',#89,#90);
#89 = CARTESIAN_POINT('',(0.,0.,0.));
#90 = VECTOR('',#91,1.);
#91 = DIRECTION('',(1.,0.,-0.));
#92 = ORIENTED_EDGE('',*,*,#21,.T.);
#93 = ORIENTED_EDGE('',*,*,#94,.T.);
#94 = EDGE_CURVE('',#24,#95,#97,.T.);
#95 = VERTEX_POINT('',#96);
#96 = CARTESIAN_POINT('',(22.,0.,14.));
#97 = LINE('',#98,#99);
#98 = CARTESIAN_POINT('',(0.,0.,14.));
#99 = VECTOR('',#100,1.);
#100 = DIRECTION('',(1.,0.,-0.));
#101 = ORIENTED_EDGE('',*,*,#102,.T.);
#102 = EDGE_CURVE('',#95,#103,#105,.T.);
#103 = VERTEX_POINT('',#104);
#104 = CARTESIAN_POINT('',(22.,0.,17.));
#105 = LINE('',#106,#107);
#106 = CARTESIAN_POINT('',(22.,0.,14.));
#107 = VECTOR('',#108,1.);
#108 = DIRECTION('',(0.,0.,1.));
#109 = ORIENTED_EDGE('',*,*,#110,.F.);
#110 = EDGE_CURVE('',#56,#103,#111,.T.);
#111 = LINE('',#112,#113);
#112 = CARTESIAN_POINT('',(0.,0.,17.));
#113 = VECTOR('',#114,1.);
#114 = DIRECTION('',(1.,0.,-0.));
#115 = ORIENTED_EDGE('',*,*,#55,.T.);
#116 = ORIENTED_EDGE('',*,*,#117,.T.);
#117 = EDGE_CURVE('',#48,#78,#118,.T.);
#118 = LINE('',#119,#120);
#119 = CARTESIAN_POINT('',(0.,0.,35.));
#120 = VECTOR('',#121,1.);
#121 = DIRECTION('',(1.,0.,-0.));
#122 = FACE_BOUND('',#123,.F.);
#123 = EDGE_LOOP('',(#124));
#124 = ORIENTED_EDGE('',*,*,#125,.F.);
#125 = EDGE_CURVE('',#126,#126,#128,.T.);
#126 = VERTEX_POINT('',#127);
#127 = CARTESIAN_POINT('',(18.,0.,7.75));
#128 = CIRCLE('',#129,1.75);
#129 = AXIS2_PLACEMENT_3D('',#130,#131,#132);
#130 = CARTESIAN_POINT('',(18.,0.,6.));
#131 = DIRECTION('',(0.,1.,0.));
#132 = DIRECTION('',(0.,-0.,1.));
#133 = FACE_BOUND('',#134,.F.);
#134 = EDGE_LOOP('',(#135,#146,#154,#162,#170,#179,#187,#195));
#135 = ORIENTED_EDGE('',*,*,#136,.F.);
#136 = EDGE_CURVE('',#137,#139,#141,.T.);
#137 = VERTEX_POINT('',#138);
#138 = CARTESIAN_POINT('',(6.,0.,22.7639320225));
#139 = VERTEX_POINT('',#140);
#140 = CARTESIAN_POINT('',(6.,0.,27.2360679775));
#141 = CIRCLE('',#142,2.25);
#142 = AXIS2_PLACEMENT_3D('',#143,#144,#145);
#143 = CARTESIAN_POINT('',(6.25,0.,25.));
#144 = DIRECTION('',(0.,1.,0.));
#145 = DIRECTION('',(0.,-0.,1.));
#146 = ORIENTED_EDGE('',*,*,#147,.T.);
#147 = EDGE_CURVE('',#137,#148,#150,.T.);
#148 = VERTEX_POINT('',#149);
#149 = CARTESIAN_POINT('',(6.,0.,22.75));
#150 = LINE('',#151,#152);
#151 = CARTESIAN_POINT('',(6.,0.,11.375));
#152 = VECTOR('',#153,1.);
#153 = DIRECTION('',(-0.,0.,-1.));
#154 = ORIENTED_EDGE('',*,*,#155,.T.);
#155 = EDGE_CURVE('',#148,#156,#158,.T.);
#156 = VERTEX_POINT('',#157);
#157 = CARTESIAN_POINT('',(6.25,0.,22.75));
#158 = LINE('',#159,#160);
#159 = CARTESIAN_POINT('',(3.,0.,22.75));
#160 = VECTOR('',#161,1.);
#161 = DIRECTION('',(1.,0.,-0.));
#162 = ORIENTED_EDGE('',*,*,#163,.T.);
#163 = EDGE_CURVE('',#156,#164,#166,.T.);
#164 = VERTEX_POINT('',#165);
#165 = CARTESIAN_POINT('',(14.,0.,22.75));
#166 = LINE('',#167,#168);
#167 = CARTESIAN_POINT('',(3.,0.,22.75));
#168 = VECTOR('',#169,1.);
#169 = DIRECTION('',(1.,0.,-0.));
#170 = ORIENTED_EDGE('',*,*,#171,.F.);
#171 = EDGE_CURVE('',#172,#164,#174,.T.);
#172 = VERTEX_POINT('',#173);
#173 = CARTESIAN_POINT('',(14.,0.,27.25));
#174 = CIRCLE('',#175,2.25);
#175 = AXIS2_PLACEMENT_3D('',#176,#177,#178);
#176 = CARTESIAN_POINT('',(14.,0.,25.));
#177 = DIRECTION('',(0.,1.,0.));
#178 = DIRECTION('',(0.,-0.,1.));
#179 = ORIENTED_EDGE('',*,*,#180,.F.);
#180 = EDGE_CURVE('',#181,#172,#183,.T.);
#181 = VERTEX_POINT('',#182);
#182 = CARTESIAN_POINT('',(6.25,0.,27.25));
#183 = LINE('',#184,#185);
#184 = CARTESIAN_POINT('',(3.,0.,27.25));
#185 = VECTOR('',#186,1.);
#186 = DIRECTION('',(1.,0.,-0.));
#187 = ORIENTED_EDGE('',*,*,#188,.F.);
#188 = EDGE_CURVE('',#189,#181,#191,.T.);
#189 = VERTEX_POINT('',#190);
#190 = CARTESIAN_POINT('',(6.,0.,27.25));
#191 = LINE('',#192,#193);
#192 = CARTESIAN_POINT('',(3.,0.,27.25));
#193 = VECTOR('',#194,1.);
#194 = DIRECTION('',(1.,0.,-0.));
#195 = ORIENTED_EDGE('',*,*,#196,.T.);
#196 = EDGE_CURVE('',#189,#139,#197,.T.);
#197 = LINE('',#198,#199);
#198 = CARTESIAN_POINT('',(6.,0.,11.375));
#199 = VECTOR('',#200,1.);
#200 = DIRECTION('',(-0.,0.,-1.));
#201 = FACE_BOUND('',#202,.F.);
#202 = EDGE_LOOP('',(#203,#213,#221,#229,#237,#245,#253,#261));
#203 = ORIENTED_EDGE('',*,*,#204,.F.);
#204 = EDGE_CURVE('',#205,#207,#209,.T.);
#205 = VERTEX_POINT('',#206);
#206 = CARTESIAN_POINT('',(20.,0.,30.));
#207 = VERTEX_POINT('',#208);
#208 = CARTESIAN_POINT('',(23.8,0.,30.));
#209 = LINE('',#210,#211);
#210 = CARTESIAN_POINT('',(10.,0.,30.));
#211 = VECTOR('',#212,1.);
#212 = DIRECTION('',(1.,0.,-0.));
#213 = ORIENTED_EDGE('',*,*,#214,.T.);
#214 = EDGE_CURVE('',#205,#215,#217,.T.);
#215 = VERTEX_POINT('',#216);
#216 = CARTESIAN_POINT('',(20.,0.,20.));
#217 = LINE('',#218,#219);
#218 = CARTESIAN_POINT('',(20.,0.,10.));
#219 = VECTOR('',#220,1.);
#220 = DIRECTION('',(-0.,0.,-1.));
#221 = ORIENTED_EDGE('',*,*,#222,.T.);
#222 = EDGE_CURVE('',#215,#223,#225,.T.);
#223 = VERTEX_POINT('',#224);
#224 = CARTESIAN_POINT('',(27.6,0.,20.));
#225 = LINE('',#226,#227);
#226 = CARTESIAN_POINT('',(10.,0.,20.));
#227 = VECTOR('',#228,1.);
#228 = DIRECTION('',(1.,0.,-0.));
#229 = ORIENTED_EDGE('',*,*,#230,.F.);
#230 = EDGE_CURVE('',#231,#223,#233,.T.);
#231 = VERTEX_POINT('',#232);
#232 = CARTESIAN_POINT('',(27.6,0.,30.));
#233 = LINE('',#234,#235);
#234 = CARTESIAN_POINT('',(27.6,0.,10.));
#235 = VECTOR('',#236,1.);
#236 = DIRECTION('',(-0.,0.,-1.));
#237 = ORIENTED_EDGE('',*,*,#238,.F.);
#238 = EDGE_CURVE('',#239,#231,#241,.T.);
#239 = VERTEX_POINT('',#240);
#240 = CARTESIAN_POINT('',(26.4,0.,30.));
#241 = LINE('',#242,#243);
#242 = CARTESIAN_POINT('',(10.,0.,30.));
#243 = VECTOR('',#244,1.);
#244 = DIRECTION('',(1.,0.,-0.));
#245 = ORIENTED_EDGE('',*,*,#246,.T.);
#246 = EDGE_CURVE('',#239,#247,#249,.T.);
#247 = VERTEX_POINT('',#248);
#248 = CARTESIAN_POINT('',(26.4,0.,21.6513684387));
#249 = LINE('',#250,#251);
#250 = CARTESIAN_POINT('',(26.4,0.,10.82568421935));
#251 = VECTOR('',#252,1.);
#252 = DIRECTION('',(-0.,0.,-1.));
#253 = ORIENTED_EDGE('',*,*,#254,.F.);
#254 = EDGE_CURVE('',#255,#247,#257,.T.);
#255 = VERTEX_POINT('',#256);
#256 = CARTESIAN_POINT('',(23.8,0.,21.6513684387));
#257 = LINE('',#258,#259);
#258 = CARTESIAN_POINT('',(11.9,0.,21.6513684387));
#259 = VECTOR('',#260,1.);
#260 = DIRECTION('',(1.,0.,-0.));
#261 = ORIENTED_EDGE('',*,*,#262,.F.);
#262 = EDGE_CURVE('',#207,#255,#263,.T.);
#263 = LINE('',#264,#265);
#264 = CARTESIAN_POINT('',(23.8,0.,10.82568421935));
#265 = VECTOR('',#266,1.);
#266 = DIRECTION('',(-0.,0.,-1.));
#267 = PLANE('',#268);
#268 = AXIS2_PLACEMENT_3D('',#269,#270,#271);
#269 = CARTESIAN_POINT('',(0.,0.,0.));
#270 = DIRECTION('',(-0.,1.,0.));
#271 = DIRECTION('',(0.,0.,1.));
#272 = ADVANCED_FACE('',(#273),#298,.F.);
#273 = FACE_BOUND('',#274,.F.);
#274 = EDGE_LOOP('',(#275,#285,#291,#292));
#275 = ORIENTED_EDGE('',*,*,#276,.F.);
#276 = EDGE_CURVE('',#277,#279,#281,.T.);
#277 = VERTEX_POINT('',#278);
#278 = CARTESIAN_POINT('',(0.,-2.5,14.));
#279 = VERTEX_POINT('',#280);
#280 = CARTESIAN_POINT('',(0.,-2.5,17.));
#281 = LINE('',#282,#283);
#282 = CARTESIAN_POINT('',(0.,-2.5,14.));
#283 = VECTOR('',#284,1.);
#284 = DIRECTION('',(0.,0.,1.));
#285 = ORIENTED_EDGE('',*,*,#286,.T.);
#286 = EDGE_CURVE('',#277,#24,#287,.T.);
#287 = LINE('',#288,#289);
#288 = CARTESIAN_POINT('',(0.,-2.5,14.));
#289 = VECTOR('',#290,1.);
#290 = DIRECTION('',(-0.,1.,0.));
#291 = ORIENTED_EDGE('',*,*,#63,.T.);
#292 = ORIENTED_EDGE('',*,*,#293,.F.);
#293 = EDGE_CURVE('',#279,#56,#294,.T.);
#294 = LINE('',#295,#296);
#295 = CARTESIAN_POINT('',(0.,-2.5,17.));
#296 = VECTOR('',#297,1.);
#297 = DIRECTION('',(-0.,1.,0.));
#298 = PLANE('',#299);
#299 = AXIS2_PLACEMENT_3D('',#300,#301,#302);
#300 = CARTESIAN_POINT('',(0.,-2.5,14.));
#301 = DIRECTION('',(1.,0.,-0.));
#302 = DIRECTION('',(0.,0.,1.));
#303 = ADVANCED_FACE('',(#304),#322,.T.);
#304 = FACE_BOUND('',#305,.T.);
#305 = EDGE_LOOP('',(#306,#314,#315,#316));
#306 = ORIENTED_EDGE('',*,*,#307,.F.);
#307 = EDGE_CURVE('',#40,#308,#310,.T.);
#308 = VERTEX_POINT('',#309);
#309 = CARTESIAN_POINT('',(30.,3.,35.));
#310 = LINE('',#311,#312);
#311 = CARTESIAN_POINT('',(0.,3.,35.));
#312 = VECTOR('',#313,1.);
#313 = DIRECTION('',(1.,0.,-0.));
#314 = ORIENTED_EDGE('',*,*,#47,.F.);
#315 = ORIENTED_EDGE('',*,*,#117,.T.);
#316 = ORIENTED_EDGE('',*,*,#317,.T.);
#317 = EDGE_CURVE('',#78,#308,#318,.T.);
#318 = LINE('',#319,#320);
#319 = CARTESIAN_POINT('',(30.,-4.,35.));
#320 = VECTOR('',#321,1.);
#321 = DIRECTION('',(-0.,1.,0.));
#322 = PLANE('',#323);
#323 = AXIS2_PLACEMENT_3D('',#324,#325,#326);
#324 = CARTESIAN_POINT('',(0.,0.,35.));
#325 = DIRECTION('',(0.,0.,1.));
#326 = DIRECTION('',(1.,0.,-0.));
#327 = ADVANCED_FACE('',(#328,#410,#421),#489,.T.);
#328 = FACE_BOUND('',#329,.T.);
#329 = EDGE_LOOP('',(#330,#340,#346,#347,#348,#356,#364,#372,#380,#388,
    #396,#404));
#330 = ORIENTED_EDGE('',*,*,#331,.T.);
#331 = EDGE_CURVE('',#332,#334,#336,.T.);
#332 = VERTEX_POINT('',#333);
#333 = CARTESIAN_POINT('',(30.,3.,16.05));
#334 = VERTEX_POINT('',#335);
#335 = CARTESIAN_POINT('',(30.,3.,0.));
#336 = LINE('',#337,#338);
#337 = CARTESIAN_POINT('',(30.,3.,-0.5));
#338 = VECTOR('',#339,1.);
#339 = DIRECTION('',(-0.,0.,-1.));
#340 = ORIENTED_EDGE('',*,*,#341,.F.);
#341 = EDGE_CURVE('',#32,#334,#342,.T.);
#342 = LINE('',#343,#344);
#343 = CARTESIAN_POINT('',(0.,3.,0.));
#344 = VECTOR('',#345,1.);
#345 = DIRECTION('',(1.,0.,-0.));
#346 = ORIENTED_EDGE('',*,*,#39,.T.);
#347 = ORIENTED_EDGE('',*,*,#307,.T.);
#348 = ORIENTED_EDGE('',*,*,#349,.T.);
#349 = EDGE_CURVE('',#308,#350,#352,.T.);
#350 = VERTEX_POINT('',#351);
#351 = CARTESIAN_POINT('',(30.,3.,29.3));
#352 = LINE('',#353,#354);
#353 = CARTESIAN_POINT('',(30.,3.,-0.5));
#354 = VECTOR('',#355,1.);
#355 = DIRECTION('',(-0.,0.,-1.));
#356 = ORIENTED_EDGE('',*,*,#357,.F.);
#357 = EDGE_CURVE('',#358,#350,#360,.T.);
#358 = VERTEX_POINT('',#359);
#359 = CARTESIAN_POINT('',(24.572908596731,3.,29.3));
#360 = LINE('',#361,#362);
#361 = CARTESIAN_POINT('',(24.572908596731,3.,29.3));
#362 = VECTOR('',#363,1.);
#363 = DIRECTION('',(1.,0.,-0.));
#364 = ORIENTED_EDGE('',*,*,#365,.F.);
#365 = EDGE_CURVE('',#366,#358,#368,.T.);
#366 = VERTEX_POINT('',#367);
#367 = CARTESIAN_POINT('',(24.572908596731,3.,27.6));
#368 = LINE('',#369,#370);
#369 = CARTESIAN_POINT('',(24.572908596731,3.,27.6));
#370 = VECTOR('',#371,1.);
#371 = DIRECTION('',(0.,0.,1.));
#372 = ORIENTED_EDGE('',*,*,#373,.T.);
#373 = EDGE_CURVE('',#366,#374,#376,.T.);
#374 = VERTEX_POINT('',#375);
#375 = CARTESIAN_POINT('',(30.,3.,27.6));
#376 = LINE('',#377,#378);
#377 = CARTESIAN_POINT('',(24.572908596731,3.,27.6));
#378 = VECTOR('',#379,1.);
#379 = DIRECTION('',(1.,0.,-0.));
#380 = ORIENTED_EDGE('',*,*,#381,.T.);
#381 = EDGE_CURVE('',#374,#382,#384,.T.);
#382 = VERTEX_POINT('',#383);
#383 = CARTESIAN_POINT('',(30.,3.,17.75));
#384 = LINE('',#385,#386);
#385 = CARTESIAN_POINT('',(30.,3.,-0.5));
#386 = VECTOR('',#387,1.);
#387 = DIRECTION('',(-0.,0.,-1.));
#388 = ORIENTED_EDGE('',*,*,#389,.F.);
#389 = EDGE_CURVE('',#390,#382,#392,.T.);
#390 = VERTEX_POINT('',#391);
#391 = CARTESIAN_POINT('',(29.6,3.,17.75));
#392 = LINE('',#393,#394);
#393 = CARTESIAN_POINT('',(29.6,3.,17.75));
#394 = VECTOR('',#395,1.);
#395 = DIRECTION('',(1.,0.,-0.));
#396 = ORIENTED_EDGE('',*,*,#397,.F.);
#397 = EDGE_CURVE('',#398,#390,#400,.T.);
#398 = VERTEX_POINT('',#399);
#399 = CARTESIAN_POINT('',(29.6,3.,16.05));
#400 = LINE('',#401,#402);
#401 = CARTESIAN_POINT('',(29.6,3.,16.05));
#402 = VECTOR('',#403,1.);
#403 = DIRECTION('',(0.,0.,1.));
#404 = ORIENTED_EDGE('',*,*,#405,.T.);
#405 = EDGE_CURVE('',#398,#332,#406,.T.);
#406 = LINE('',#407,#408);
#407 = CARTESIAN_POINT('',(29.6,3.,16.05));
#408 = VECTOR('',#409,1.);
#409 = DIRECTION('',(1.,0.,-0.));
#410 = FACE_BOUND('',#411,.T.);
#411 = EDGE_LOOP('',(#412));
#412 = ORIENTED_EDGE('',*,*,#413,.F.);
#413 = EDGE_CURVE('',#414,#414,#416,.T.);
#414 = VERTEX_POINT('',#415);
#415 = CARTESIAN_POINT('',(18.,3.,7.75));
#416 = CIRCLE('',#417,1.75);
#417 = AXIS2_PLACEMENT_3D('',#418,#419,#420);
#418 = CARTESIAN_POINT('',(18.,3.,6.));
#419 = DIRECTION('',(0.,1.,0.));
#420 = DIRECTION('',(0.,-0.,1.));
#421 = FACE_BOUND('',#422,.T.);
#422 = EDGE_LOOP('',(#423,#434,#442,#450,#458,#467,#475,#483));
#423 = ORIENTED_EDGE('',*,*,#424,.F.);
#424 = EDGE_CURVE('',#425,#427,#429,.T.);
#425 = VERTEX_POINT('',#426);
#426 = CARTESIAN_POINT('',(6.,3.,22.7639320225));
#427 = VERTEX_POINT('',#428);
#428 = CARTESIAN_POINT('',(6.,3.,27.2360679775));
#429 = CIRCLE('',#430,2.25);
#430 = AXIS2_PLACEMENT_3D('',#431,#432,#433);
#431 = CARTESIAN_POINT('',(6.25,3.,25.));
#432 = DIRECTION('',(0.,1.,0.));
#433 = DIRECTION('',(0.,-0.,1.));
#434 = ORIENTED_EDGE('',*,*,#435,.T.);
#435 = EDGE_CURVE('',#425,#436,#438,.T.);
#436 = VERTEX_POINT('',#437);
#437 = CARTESIAN_POINT('',(6.,3.,22.75));
#438 = LINE('',#439,#440);
#439 = CARTESIAN_POINT('',(6.,3.,11.375));
#440 = VECTOR('',#441,1.);
#441 = DIRECTION('',(-0.,0.,-1.));
#442 = ORIENTED_EDGE('',*,*,#443,.T.);
#443 = EDGE_CURVE('',#436,#444,#446,.T.);
#444 = VERTEX_POINT('',#445);
#445 = CARTESIAN_POINT('',(6.25,3.,22.75));
#446 = LINE('',#447,#448);
#447 = CARTESIAN_POINT('',(3.,3.,22.75));
#448 = VECTOR('',#449,1.);
#449 = DIRECTION('',(1.,0.,-0.));
#450 = ORIENTED_EDGE('',*,*,#451,.T.);
#451 = EDGE_CURVE('',#444,#452,#454,.T.);
#452 = VERTEX_POINT('',#453);
#453 = CARTESIAN_POINT('',(14.,3.,22.75));
#454 = LINE('',#455,#456);
#455 = CARTESIAN_POINT('',(3.,3.,22.75));
#456 = VECTOR('',#457,1.);
#457 = DIRECTION('',(1.,0.,-0.));
#458 = ORIENTED_EDGE('',*,*,#459,.F.);
#459 = EDGE_CURVE('',#460,#452,#462,.T.);
#460 = VERTEX_POINT('',#461);
#461 = CARTESIAN_POINT('',(14.,3.,27.25));
#462 = CIRCLE('',#463,2.25);
#463 = AXIS2_PLACEMENT_3D('',#464,#465,#466);
#464 = CARTESIAN_POINT('',(14.,3.,25.));
#465 = DIRECTION('',(0.,1.,0.));
#466 = DIRECTION('',(0.,-0.,1.));
#467 = ORIENTED_EDGE('',*,*,#468,.F.);
#468 = EDGE_CURVE('',#469,#460,#471,.T.);
#469 = VERTEX_POINT('',#470);
#470 = CARTESIAN_POINT('',(6.25,3.,27.25));
#471 = LINE('',#472,#473);
#472 = CARTESIAN_POINT('',(3.,3.,27.25));
#473 = VECTOR('',#474,1.);
#474 = DIRECTION('',(1.,0.,-0.));
#475 = ORIENTED_EDGE('',*,*,#476,.F.);
#476 = EDGE_CURVE('',#477,#469,#479,.T.);
#477 = VERTEX_POINT('',#478);
#478 = CARTESIAN_POINT('',(6.,3.,27.25));
#479 = LINE('',#480,#481);
#480 = CARTESIAN_POINT('',(3.,3.,27.25));
#481 = VECTOR('',#482,1.);
#482 = DIRECTION('',(1.,0.,-0.));
#483 = ORIENTED_EDGE('',*,*,#484,.T.);
#484 = EDGE_CURVE('',#477,#427,#485,.T.);
#485 = LINE('',#486,#487);
#486 = CARTESIAN_POINT('',(6.,3.,11.375));
#487 = VECTOR('',#488,1.);
#488 = DIRECTION('',(-0.,0.,-1.));
#489 = PLANE('',#490);
#490 = AXIS2_PLACEMENT_3D('',#491,#492,#493);
#491 = CARTESIAN_POINT('',(0.,3.,0.));
#492 = DIRECTION('',(-0.,1.,0.));
#493 = DIRECTION('',(0.,0.,1.));
#494 = ADVANCED_FACE('',(#495),#506,.F.);
#495 = FACE_BOUND('',#496,.F.);
#496 = EDGE_LOOP('',(#497,#498,#499,#505));
#497 = ORIENTED_EDGE('',*,*,#31,.F.);
#498 = ORIENTED_EDGE('',*,*,#87,.T.);
#499 = ORIENTED_EDGE('',*,*,#500,.T.);
#500 = EDGE_CURVE('',#80,#334,#501,.T.);
#501 = LINE('',#502,#503);
#502 = CARTESIAN_POINT('',(30.,-4.,0.));
#503 = VECTOR('',#504,1.);
#504 = DIRECTION('',(-0.,1.,0.));
#505 = ORIENTED_EDGE('',*,*,#341,.F.);
#506 = PLANE('',#507);
#507 = AXIS2_PLACEMENT_3D('',#508,#509,#510);
#508 = CARTESIAN_POINT('',(0.,0.,0.));
#509 = DIRECTION('',(0.,0.,1.));
#510 = DIRECTION('',(1.,0.,-0.));
#511 = ADVANCED_FACE('',(#512),#564,.T.);
#512 = FACE_BOUND('',#513,.T.);
#513 = EDGE_LOOP('',(#514,#515,#516,#517,#518,#526,#534,#540,#541,#549,
    #557,#563));
#514 = ORIENTED_EDGE('',*,*,#317,.F.);
#515 = ORIENTED_EDGE('',*,*,#77,.T.);
#516 = ORIENTED_EDGE('',*,*,#500,.T.);
#517 = ORIENTED_EDGE('',*,*,#331,.F.);
#518 = ORIENTED_EDGE('',*,*,#519,.F.);
#519 = EDGE_CURVE('',#520,#332,#522,.T.);
#520 = VERTEX_POINT('',#521);
#521 = CARTESIAN_POINT('',(30.,1.8,16.05));
#522 = LINE('',#523,#524);
#523 = CARTESIAN_POINT('',(30.,-3.1,16.05));
#524 = VECTOR('',#525,1.);
#525 = DIRECTION('',(-0.,1.,0.));
#526 = ORIENTED_EDGE('',*,*,#527,.F.);
#527 = EDGE_CURVE('',#528,#520,#530,.T.);
#528 = VERTEX_POINT('',#529);
#529 = CARTESIAN_POINT('',(30.,1.8,17.75));
#530 = LINE('',#531,#532);
#531 = CARTESIAN_POINT('',(30.,1.8,7.525));
#532 = VECTOR('',#533,1.);
#533 = DIRECTION('',(-0.,0.,-1.));
#534 = ORIENTED_EDGE('',*,*,#535,.T.);
#535 = EDGE_CURVE('',#528,#382,#536,.T.);
#536 = LINE('',#537,#538);
#537 = CARTESIAN_POINT('',(30.,-3.1,17.75));
#538 = VECTOR('',#539,1.);
#539 = DIRECTION('',(-0.,1.,0.));
#540 = ORIENTED_EDGE('',*,*,#381,.F.);
#541 = ORIENTED_EDGE('',*,*,#542,.F.);
#542 = EDGE_CURVE('',#543,#374,#545,.T.);
#543 = VERTEX_POINT('',#544);
#544 = CARTESIAN_POINT('',(30.,1.8,27.6));
#545 = LINE('',#546,#547);
#546 = CARTESIAN_POINT('',(30.,-3.1,27.6));
#547 = VECTOR('',#548,1.);
#548 = DIRECTION('',(-0.,1.,0.));
#549 = ORIENTED_EDGE('',*,*,#550,.F.);
#550 = EDGE_CURVE('',#551,#543,#553,.T.);
#551 = VERTEX_POINT('',#552);
#552 = CARTESIAN_POINT('',(30.,1.8,29.3));
#553 = LINE('',#554,#555);
#554 = CARTESIAN_POINT('',(30.,1.8,13.3));
#555 = VECTOR('',#556,1.);
#556 = DIRECTION('',(-0.,0.,-1.));
#557 = ORIENTED_EDGE('',*,*,#558,.T.);
#558 = EDGE_CURVE('',#551,#350,#559,.T.);
#559 = LINE('',#560,#561);
#560 = CARTESIAN_POINT('',(30.,-3.1,29.3));
#561 = VECTOR('',#562,1.);
#562 = DIRECTION('',(-0.,1.,0.));
#563 = ORIENTED_EDGE('',*,*,#349,.F.);
#564 = PLANE('',#565);
#565 = AXIS2_PLACEMENT_3D('',#566,#567,#568);
#566 = CARTESIAN_POINT('',(30.,-8.,-1.));
#567 = DIRECTION('',(1.,0.,-0.));
#568 = DIRECTION('',(0.,0.,1.));
#569 = ADVANCED_FACE('',(#570),#588,.T.);
#570 = FACE_BOUND('',#571,.T.);
#571 = EDGE_LOOP('',(#572,#573,#581,#587));
#572 = ORIENTED_EDGE('',*,*,#293,.F.);
#573 = ORIENTED_EDGE('',*,*,#574,.T.);
#574 = EDGE_CURVE('',#279,#575,#577,.T.);
#575 = VERTEX_POINT('',#576);
#576 = CARTESIAN_POINT('',(22.,-2.5,17.));
#577 = LINE('',#578,#579);
#578 = CARTESIAN_POINT('',(0.,-2.5,17.));
#579 = VECTOR('',#580,1.);
#580 = DIRECTION('',(1.,0.,-0.));
#581 = ORIENTED_EDGE('',*,*,#582,.T.);
#582 = EDGE_CURVE('',#575,#103,#583,.T.);
#583 = LINE('',#584,#585);
#584 = CARTESIAN_POINT('',(22.,-2.5,17.));
#585 = VECTOR('',#586,1.);
#586 = DIRECTION('',(-0.,1.,0.));
#587 = ORIENTED_EDGE('',*,*,#110,.F.);
#588 = PLANE('',#589);
#589 = AXIS2_PLACEMENT_3D('',#590,#591,#592);
#590 = CARTESIAN_POINT('',(0.,-2.5,17.));
#591 = DIRECTION('',(0.,0.,1.));
#592 = DIRECTION('',(1.,0.,-0.));
#593 = ADVANCED_FACE('',(#594),#612,.T.);
#594 = FACE_BOUND('',#595,.T.);
#595 = EDGE_LOOP('',(#596,#604,#610,#611));
#596 = ORIENTED_EDGE('',*,*,#597,.F.);
#597 = EDGE_CURVE('',#598,#575,#600,.T.);
#598 = VERTEX_POINT('',#599);
#599 = CARTESIAN_POINT('',(22.,-2.5,14.));
#600 = LINE('',#601,#602);
#601 = CARTESIAN_POINT('',(22.,-2.5,14.));
#602 = VECTOR('',#603,1.);
#603 = DIRECTION('',(0.,0.,1.));
#604 = ORIENTED_EDGE('',*,*,#605,.T.);
#605 = EDGE_CURVE('',#598,#95,#606,.T.);
#606 = LINE('',#607,#608);
#607 = CARTESIAN_POINT('',(22.,-2.5,14.));
#608 = VECTOR('',#609,1.);
#609 = DIRECTION('',(-0.,1.,0.));
#610 = ORIENTED_EDGE('',*,*,#102,.T.);
#611 = ORIENTED_EDGE('',*,*,#582,.F.);
#612 = PLANE('',#613);
#613 = AXIS2_PLACEMENT_3D('',#614,#615,#616);
#614 = CARTESIAN_POINT('',(22.,-2.5,14.));
#615 = DIRECTION('',(1.,0.,-0.));
#616 = DIRECTION('',(0.,0.,1.));
#617 = ADVANCED_FACE('',(#618),#629,.F.);
#618 = FACE_BOUND('',#619,.F.);
#619 = EDGE_LOOP('',(#620,#621,#627,#628));
#620 = ORIENTED_EDGE('',*,*,#286,.F.);
#621 = ORIENTED_EDGE('',*,*,#622,.T.);
#622 = EDGE_CURVE('',#277,#598,#623,.T.);
#623 = LINE('',#624,#625);
#624 = CARTESIAN_POINT('',(0.,-2.5,14.));
#625 = VECTOR('',#626,1.);
#626 = DIRECTION('',(1.,0.,-0.));
#627 = ORIENTED_EDGE('',*,*,#605,.T.);
#628 = ORIENTED_EDGE('',*,*,#94,.F.);
#629 = PLANE('',#630);
#630 = AXIS2_PLACEMENT_3D('',#631,#632,#633);
#631 = CARTESIAN_POINT('',(0.,-2.5,14.));
#632 = DIRECTION('',(0.,0.,1.));
#633 = DIRECTION('',(1.,0.,-0.));
#634 = ADVANCED_FACE('',(#635),#646,.F.);
#635 = FACE_BOUND('',#636,.F.);
#636 = EDGE_LOOP('',(#637,#638,#644,#645));
#637 = ORIENTED_EDGE('',*,*,#413,.F.);
#638 = ORIENTED_EDGE('',*,*,#639,.F.);
#639 = EDGE_CURVE('',#126,#414,#640,.T.);
#640 = LINE('',#641,#642);
#641 = CARTESIAN_POINT('',(18.,-1.,7.75));
#642 = VECTOR('',#643,1.);
#643 = DIRECTION('',(0.,1.,0.));
#644 = ORIENTED_EDGE('',*,*,#125,.T.);
#645 = ORIENTED_EDGE('',*,*,#639,.T.);
#646 = CYLINDRICAL_SURFACE('',#647,1.75);
#647 = AXIS2_PLACEMENT_3D('',#648,#649,#650);
#648 = CARTESIAN_POINT('',(18.,-1.,6.));
#649 = DIRECTION('',(0.,1.,0.));
#650 = DIRECTION('',(0.,-0.,1.));
#651 = ADVANCED_FACE('',(#652),#668,.F.);
#652 = FACE_BOUND('',#653,.F.);
#653 = EDGE_LOOP('',(#654,#655,#661,#662));
#654 = ORIENTED_EDGE('',*,*,#136,.T.);
#655 = ORIENTED_EDGE('',*,*,#656,.T.);
#656 = EDGE_CURVE('',#139,#427,#657,.T.);
#657 = LINE('',#658,#659);
#658 = CARTESIAN_POINT('',(6.,-1.,27.2360679775));
#659 = VECTOR('',#660,1.);
#660 = DIRECTION('',(0.,1.,0.));
#661 = ORIENTED_EDGE('',*,*,#424,.F.);
#662 = ORIENTED_EDGE('',*,*,#663,.F.);
#663 = EDGE_CURVE('',#137,#425,#664,.T.);
#664 = LINE('',#665,#666);
#665 = CARTESIAN_POINT('',(6.,-1.,22.7639320225));
#666 = VECTOR('',#667,1.);
#667 = DIRECTION('',(0.,1.,0.));
#668 = CYLINDRICAL_SURFACE('',#669,2.25);
#669 = AXIS2_PLACEMENT_3D('',#670,#671,#672);
#670 = CARTESIAN_POINT('',(6.25,-1.,25.));
#671 = DIRECTION('',(0.,1.,0.));
#672 = DIRECTION('',(0.,-0.,1.));
#673 = ADVANCED_FACE('',(#674),#685,.T.);
#674 = FACE_BOUND('',#675,.T.);
#675 = EDGE_LOOP('',(#676,#677,#683,#684));
#676 = ORIENTED_EDGE('',*,*,#147,.T.);
#677 = ORIENTED_EDGE('',*,*,#678,.T.);
#678 = EDGE_CURVE('',#148,#436,#679,.T.);
#679 = LINE('',#680,#681);
#680 = CARTESIAN_POINT('',(6.,-1.,22.75));
#681 = VECTOR('',#682,1.);
#682 = DIRECTION('',(-0.,1.,0.));
#683 = ORIENTED_EDGE('',*,*,#435,.F.);
#684 = ORIENTED_EDGE('',*,*,#663,.F.);
#685 = PLANE('',#686);
#686 = AXIS2_PLACEMENT_3D('',#687,#688,#689);
#687 = CARTESIAN_POINT('',(6.,-1.,22.75));
#688 = DIRECTION('',(1.,0.,-0.));
#689 = DIRECTION('',(0.,0.,1.));
#690 = ADVANCED_FACE('',(#691),#702,.T.);
#691 = FACE_BOUND('',#692,.T.);
#692 = EDGE_LOOP('',(#693,#694,#695,#696));
#693 = ORIENTED_EDGE('',*,*,#196,.T.);
#694 = ORIENTED_EDGE('',*,*,#656,.T.);
#695 = ORIENTED_EDGE('',*,*,#484,.F.);
#696 = ORIENTED_EDGE('',*,*,#697,.F.);
#697 = EDGE_CURVE('',#189,#477,#698,.T.);
#698 = LINE('',#699,#700);
#699 = CARTESIAN_POINT('',(6.,-1.,27.25));
#700 = VECTOR('',#701,1.);
#701 = DIRECTION('',(-0.,1.,0.));
#702 = PLANE('',#703);
#703 = AXIS2_PLACEMENT_3D('',#704,#705,#706);
#704 = CARTESIAN_POINT('',(6.,-1.,22.75));
#705 = DIRECTION('',(1.,0.,-0.));
#706 = DIRECTION('',(0.,0.,1.));
#707 = ADVANCED_FACE('',(#708),#719,.T.);
#708 = FACE_BOUND('',#709,.T.);
#709 = EDGE_LOOP('',(#710,#711,#712,#713));
#710 = ORIENTED_EDGE('',*,*,#443,.F.);
#711 = ORIENTED_EDGE('',*,*,#678,.F.);
#712 = ORIENTED_EDGE('',*,*,#155,.T.);
#713 = ORIENTED_EDGE('',*,*,#714,.T.);
#714 = EDGE_CURVE('',#156,#444,#715,.T.);
#715 = LINE('',#716,#717);
#716 = CARTESIAN_POINT('',(6.25,-1.,22.75));
#717 = VECTOR('',#718,1.);
#718 = DIRECTION('',(0.,1.,0.));
#719 = PLANE('',#720);
#720 = AXIS2_PLACEMENT_3D('',#721,#722,#723);
#721 = CARTESIAN_POINT('',(6.,-1.,22.75));
#722 = DIRECTION('',(0.,0.,1.));
#723 = DIRECTION('',(1.,0.,-0.));
#724 = ADVANCED_FACE('',(#725),#736,.F.);
#725 = FACE_BOUND('',#726,.F.);
#726 = EDGE_LOOP('',(#727,#728,#729,#730));
#727 = ORIENTED_EDGE('',*,*,#476,.F.);
#728 = ORIENTED_EDGE('',*,*,#697,.F.);
#729 = ORIENTED_EDGE('',*,*,#188,.T.);
#730 = ORIENTED_EDGE('',*,*,#731,.T.);
#731 = EDGE_CURVE('',#181,#469,#732,.T.);
#732 = LINE('',#733,#734);
#733 = CARTESIAN_POINT('',(6.25,-1.,27.25));
#734 = VECTOR('',#735,1.);
#735 = DIRECTION('',(0.,1.,0.));
#736 = PLANE('',#737);
#737 = AXIS2_PLACEMENT_3D('',#738,#739,#740);
#738 = CARTESIAN_POINT('',(6.,-1.,27.25));
#739 = DIRECTION('',(0.,0.,1.));
#740 = DIRECTION('',(1.,0.,-0.));
#741 = ADVANCED_FACE('',(#742),#753,.T.);
#742 = FACE_BOUND('',#743,.T.);
#743 = EDGE_LOOP('',(#744,#745,#746,#747));
#744 = ORIENTED_EDGE('',*,*,#451,.F.);
#745 = ORIENTED_EDGE('',*,*,#714,.F.);
#746 = ORIENTED_EDGE('',*,*,#163,.T.);
#747 = ORIENTED_EDGE('',*,*,#748,.T.);
#748 = EDGE_CURVE('',#164,#452,#749,.T.);
#749 = LINE('',#750,#751);
#750 = CARTESIAN_POINT('',(14.,-1.,22.75));
#751 = VECTOR('',#752,1.);
#752 = DIRECTION('',(-0.,1.,0.));
#753 = PLANE('',#754);
#754 = AXIS2_PLACEMENT_3D('',#755,#756,#757);
#755 = CARTESIAN_POINT('',(6.,-1.,22.75));
#756 = DIRECTION('',(0.,0.,1.));
#757 = DIRECTION('',(1.,0.,-0.));
#758 = ADVANCED_FACE('',(#759),#770,.F.);
#759 = FACE_BOUND('',#760,.F.);
#760 = EDGE_LOOP('',(#761,#762,#763,#764));
#761 = ORIENTED_EDGE('',*,*,#468,.F.);
#762 = ORIENTED_EDGE('',*,*,#731,.F.);
#763 = ORIENTED_EDGE('',*,*,#180,.T.);
#764 = ORIENTED_EDGE('',*,*,#765,.T.);
#765 = EDGE_CURVE('',#172,#460,#766,.T.);
#766 = LINE('',#767,#768);
#767 = CARTESIAN_POINT('',(14.,-1.,27.25));
#768 = VECTOR('',#769,1.);
#769 = DIRECTION('',(-0.,1.,0.));
#770 = PLANE('',#771);
#771 = AXIS2_PLACEMENT_3D('',#772,#773,#774);
#772 = CARTESIAN_POINT('',(6.,-1.,27.25));
#773 = DIRECTION('',(0.,0.,1.));
#774 = DIRECTION('',(1.,0.,-0.));
#775 = ADVANCED_FACE('',(#776),#782,.F.);
#776 = FACE_BOUND('',#777,.F.);
#777 = EDGE_LOOP('',(#778,#779,#780,#781));
#778 = ORIENTED_EDGE('',*,*,#459,.F.);
#779 = ORIENTED_EDGE('',*,*,#765,.F.);
#780 = ORIENTED_EDGE('',*,*,#171,.T.);
#781 = ORIENTED_EDGE('',*,*,#748,.T.);
#782 = CYLINDRICAL_SURFACE('',#783,2.25);
#783 = AXIS2_PLACEMENT_3D('',#784,#785,#786);
#784 = CARTESIAN_POINT('',(14.,-1.,25.));
#785 = DIRECTION('',(0.,1.,0.));
#786 = DIRECTION('',(0.,-0.,1.));
#787 = ADVANCED_FACE('',(#788),#836,.T.);
#788 = FACE_BOUND('',#789,.T.);
#789 = EDGE_LOOP('',(#790,#798,#806,#812,#813,#821,#829,#835));
#790 = ORIENTED_EDGE('',*,*,#791,.F.);
#791 = EDGE_CURVE('',#792,#205,#794,.T.);
#792 = VERTEX_POINT('',#793);
#793 = CARTESIAN_POINT('',(20.,-7.5,30.));
#794 = LINE('',#795,#796);
#795 = CARTESIAN_POINT('',(20.,-7.5,30.));
#796 = VECTOR('',#797,1.);
#797 = DIRECTION('',(-0.,1.,0.));
#798 = ORIENTED_EDGE('',*,*,#799,.T.);
#799 = EDGE_CURVE('',#792,#800,#802,.T.);
#800 = VERTEX_POINT('',#801);
#801 = CARTESIAN_POINT('',(27.6,-7.5,30.));
#802 = LINE('',#803,#804);
#803 = CARTESIAN_POINT('',(20.,-7.5,30.));
#804 = VECTOR('',#805,1.);
#805 = DIRECTION('',(1.,0.,-0.));
#806 = ORIENTED_EDGE('',*,*,#807,.T.);
#807 = EDGE_CURVE('',#800,#231,#808,.T.);
#808 = LINE('',#809,#810);
#809 = CARTESIAN_POINT('',(27.6,-7.5,30.));
#810 = VECTOR('',#811,1.);
#811 = DIRECTION('',(-0.,1.,0.));
#812 = ORIENTED_EDGE('',*,*,#238,.F.);
#813 = ORIENTED_EDGE('',*,*,#814,.F.);
#814 = EDGE_CURVE('',#815,#239,#817,.T.);
#815 = VERTEX_POINT('',#816);
#816 = CARTESIAN_POINT('',(26.4,-6.3486315613,30.));
#817 = LINE('',#818,#819);
#818 = CARTESIAN_POINT('',(26.4,-6.92431578065,30.));
#819 = VECTOR('',#820,1.);
#820 = DIRECTION('',(-0.,1.,0.));
#821 = ORIENTED_EDGE('',*,*,#822,.T.);
#822 = EDGE_CURVE('',#815,#823,#825,.T.);
#823 = VERTEX_POINT('',#824);
#824 = CARTESIAN_POINT('',(23.8,-6.3486315613,30.));
#825 = LINE('',#826,#827);
#826 = CARTESIAN_POINT('',(21.9,-6.3486315613,30.));
#827 = VECTOR('',#828,1.);
#828 = DIRECTION('',(-1.,-0.,0.));
#829 = ORIENTED_EDGE('',*,*,#830,.T.);
#830 = EDGE_CURVE('',#823,#207,#831,.T.);
#831 = LINE('',#832,#833);
#832 = CARTESIAN_POINT('',(23.8,-6.92431578065,30.));
#833 = VECTOR('',#834,1.);
#834 = DIRECTION('',(-0.,1.,0.));
#835 = ORIENTED_EDGE('',*,*,#204,.F.);
#836 = PLANE('',#837);
#837 = AXIS2_PLACEMENT_3D('',#838,#839,#840);
#838 = CARTESIAN_POINT('',(20.,-7.5,30.));
#839 = DIRECTION('',(0.,0.,1.));
#840 = DIRECTION('',(1.,0.,-0.));
#841 = ADVANCED_FACE('',(#842,#860),#910,.F.);
#842 = FACE_BOUND('',#843,.F.);
#843 = EDGE_LOOP('',(#844,#845,#853,#859));
#844 = ORIENTED_EDGE('',*,*,#791,.F.);
#845 = ORIENTED_EDGE('',*,*,#846,.F.);
#846 = EDGE_CURVE('',#847,#792,#849,.T.);
#847 = VERTEX_POINT('',#848);
#848 = CARTESIAN_POINT('',(20.,-7.5,20.));
#849 = LINE('',#850,#851);
#850 = CARTESIAN_POINT('',(20.,-7.5,20.));
#851 = VECTOR('',#852,1.);
#852 = DIRECTION('',(0.,0.,1.));
#853 = ORIENTED_EDGE('',*,*,#854,.T.);
#854 = EDGE_CURVE('',#847,#215,#855,.T.);
#855 = LINE('',#856,#857);
#856 = CARTESIAN_POINT('',(20.,-7.5,20.));
#857 = VECTOR('',#858,1.);
#858 = DIRECTION('',(-0.,1.,0.));
#859 = ORIENTED_EDGE('',*,*,#214,.F.);
#860 = FACE_BOUND('',#861,.F.);
#861 = EDGE_LOOP('',(#862,#872,#880,#888,#896,#904));
#862 = ORIENTED_EDGE('',*,*,#863,.T.);
#863 = EDGE_CURVE('',#864,#866,#868,.T.);
#864 = VERTEX_POINT('',#865);
#865 = CARTESIAN_POINT('',(20.,-5.9,26.67431578065));
#866 = VERTEX_POINT('',#867);
#867 = CARTESIAN_POINT('',(20.,-3.,28.3486315613));
#868 = LINE('',#869,#870);
#869 = CARTESIAN_POINT('',(20.,-6.495031754731,26.33077403688));
#870 = VECTOR('',#871,1.);
#871 = DIRECTION('',(0.,0.866025403784,0.5));
#872 = ORIENTED_EDGE('',*,*,#873,.T.);
#873 = EDGE_CURVE('',#866,#874,#876,.T.);
#874 = VERTEX_POINT('',#875);
#875 = CARTESIAN_POINT('',(20.,-0.1,26.67431578065));
#876 = LINE('',#877,#878);
#877 = CARTESIAN_POINT('',(20.,-1.429968245269,27.44217330507));
#878 = VECTOR('',#879,1.);
#879 = DIRECTION('',(-0.,0.866025403784,-0.5));
#880 = ORIENTED_EDGE('',*,*,#881,.T.);
#881 = EDGE_CURVE('',#874,#882,#884,.T.);
#882 = VERTEX_POINT('',#883);
#883 = CARTESIAN_POINT('',(20.,-0.1,23.32568421935));
#884 = LINE('',#885,#886);
#885 = CARTESIAN_POINT('',(20.,-0.1,21.662842109675));
#886 = VECTOR('',#887,1.);
#887 = DIRECTION('',(0.,-3.978543489069E-16,-1.));
#888 = ORIENTED_EDGE('',*,*,#889,.T.);
#889 = EDGE_CURVE('',#882,#890,#892,.T.);
#890 = VERTEX_POINT('',#891);
#891 = CARTESIAN_POINT('',(20.,-3.,21.6513684387));
#892 = LINE('',#893,#894);
#893 = CARTESIAN_POINT('',(20.,-5.045031754731,20.470668804605));
#894 = VECTOR('',#895,1.);
#895 = DIRECTION('',(0.,-0.866025403784,-0.5));
#896 = ORIENTED_EDGE('',*,*,#897,.T.);
#897 = EDGE_CURVE('',#890,#898,#900,.T.);
#898 = VERTEX_POINT('',#899);
#899 = CARTESIAN_POINT('',(20.,-5.9,23.32568421935));
#900 = LINE('',#901,#902);
#901 = CARTESIAN_POINT('',(20.,-5.779968245269,23.256383853445));
#902 = VECTOR('',#903,1.);
#903 = DIRECTION('',(0.,-0.866025403784,0.5));
#904 = ORIENTED_EDGE('',*,*,#905,.T.);
#905 = EDGE_CURVE('',#898,#864,#906,.T.);
#906 = LINE('',#907,#908);
#907 = CARTESIAN_POINT('',(20.,-5.9,23.337157890325));
#908 = VECTOR('',#909,1.);
#909 = DIRECTION('',(0.,-2.652362326046E-16,1.));
#910 = PLANE('',#911);
#911 = AXIS2_PLACEMENT_3D('',#912,#913,#914);
#912 = CARTESIAN_POINT('',(20.,-7.5,20.));
#913 = DIRECTION('',(1.,0.,-0.));
#914 = DIRECTION('',(0.,0.,1.));
#915 = ADVANCED_FACE('',(#916,#942),#990,.T.);
#916 = FACE_BOUND('',#917,.T.);
#917 = EDGE_LOOP('',(#918,#926,#934,#940,#941));
#918 = ORIENTED_EDGE('',*,*,#919,.F.);
#919 = EDGE_CURVE('',#920,#823,#922,.T.);
#920 = VERTEX_POINT('',#921);
#921 = CARTESIAN_POINT('',(23.8,-6.3486315613,21.6513684387));
#922 = LINE('',#923,#924);
#923 = CARTESIAN_POINT('',(23.8,-6.3486315613,21.6513684387));
#924 = VECTOR('',#925,1.);
#925 = DIRECTION('',(0.,0.,1.));
#926 = ORIENTED_EDGE('',*,*,#927,.T.);
#927 = EDGE_CURVE('',#920,#928,#930,.T.);
#928 = VERTEX_POINT('',#929);
#929 = CARTESIAN_POINT('',(23.8,-3.,21.6513684387));
#930 = LINE('',#931,#932);
#931 = CARTESIAN_POINT('',(23.8,-6.3486315613,21.6513684387));
#932 = VECTOR('',#933,1.);
#933 = DIRECTION('',(-0.,1.,0.));
#934 = ORIENTED_EDGE('',*,*,#935,.T.);
#935 = EDGE_CURVE('',#928,#255,#936,.T.);
#936 = LINE('',#937,#938);
#937 = CARTESIAN_POINT('',(23.8,-6.3486315613,21.6513684387));
#938 = VECTOR('',#939,1.);
#939 = DIRECTION('',(-0.,1.,0.));
#940 = ORIENTED_EDGE('',*,*,#262,.F.);
#941 = ORIENTED_EDGE('',*,*,#830,.F.);
#942 = FACE_BOUND('',#943,.T.);
#943 = EDGE_LOOP('',(#944,#952,#960,#968,#976,#984));
#944 = ORIENTED_EDGE('',*,*,#945,.F.);
#945 = EDGE_CURVE('',#928,#946,#948,.T.);
#946 = VERTEX_POINT('',#947);
#947 = CARTESIAN_POINT('',(23.8,-0.1,23.32568421935));
#948 = LINE('',#949,#950);
#949 = CARTESIAN_POINT('',(23.8,-3.,21.6513684387));
#950 = VECTOR('',#951,1.);
#951 = DIRECTION('',(0.,0.866025403784,0.5));
#952 = ORIENTED_EDGE('',*,*,#953,.F.);
#953 = EDGE_CURVE('',#954,#928,#956,.T.);
#954 = VERTEX_POINT('',#955);
#955 = CARTESIAN_POINT('',(23.8,-5.9,23.32568421935));
#956 = LINE('',#957,#958);
#957 = CARTESIAN_POINT('',(23.8,-5.9,23.32568421935));
#958 = VECTOR('',#959,1.);
#959 = DIRECTION('',(0.,0.866025403784,-0.5));
#960 = ORIENTED_EDGE('',*,*,#961,.F.);
#961 = EDGE_CURVE('',#962,#954,#964,.T.);
#962 = VERTEX_POINT('',#963);
#963 = CARTESIAN_POINT('',(23.8,-5.9,26.67431578065));
#964 = LINE('',#965,#966);
#965 = CARTESIAN_POINT('',(23.8,-5.9,26.67431578065));
#966 = VECTOR('',#967,1.);
#967 = DIRECTION('',(0.,2.652362326046E-16,-1.));
#968 = ORIENTED_EDGE('',*,*,#969,.F.);
#969 = EDGE_CURVE('',#970,#962,#972,.T.);
#970 = VERTEX_POINT('',#971);
#971 = CARTESIAN_POINT('',(23.8,-3.,28.3486315613));
#972 = LINE('',#973,#974);
#973 = CARTESIAN_POINT('',(23.8,-3.,28.3486315613));
#974 = VECTOR('',#975,1.);
#975 = DIRECTION('',(0.,-0.866025403784,-0.5));
#976 = ORIENTED_EDGE('',*,*,#977,.F.);
#977 = EDGE_CURVE('',#978,#970,#980,.T.);
#978 = VERTEX_POINT('',#979);
#979 = CARTESIAN_POINT('',(23.8,-0.1,26.67431578065));
#980 = LINE('',#981,#982);
#981 = CARTESIAN_POINT('',(23.8,-0.1,26.67431578065));
#982 = VECTOR('',#983,1.);
#983 = DIRECTION('',(0.,-0.866025403784,0.5));
#984 = ORIENTED_EDGE('',*,*,#985,.F.);
#985 = EDGE_CURVE('',#946,#978,#986,.T.);
#986 = LINE('',#987,#988);
#987 = CARTESIAN_POINT('',(23.8,-0.1,23.32568421935));
#988 = VECTOR('',#989,1.);
#989 = DIRECTION('',(0.,3.978543489069E-16,1.));
#990 = PLANE('',#991);
#991 = AXIS2_PLACEMENT_3D('',#992,#993,#994);
#992 = CARTESIAN_POINT('',(23.8,-6.3486315613,21.6513684387));
#993 = DIRECTION('',(1.,0.,-0.));
#994 = DIRECTION('',(0.,0.,1.));
#995 = ADVANCED_FACE('',(#996),#1014,.F.);
#996 = FACE_BOUND('',#997,.F.);
#997 = EDGE_LOOP('',(#998,#999,#1007,#1013));
#998 = ORIENTED_EDGE('',*,*,#854,.F.);
#999 = ORIENTED_EDGE('',*,*,#1000,.T.);
#1000 = EDGE_CURVE('',#847,#1001,#1003,.T.);
#1001 = VERTEX_POINT('',#1002);
#1002 = CARTESIAN_POINT('',(27.6,-7.5,20.));
#1003 = LINE('',#1004,#1005);
#1004 = CARTESIAN_POINT('',(20.,-7.5,20.));
#1005 = VECTOR('',#1006,1.);
#1006 = DIRECTION('',(1.,0.,-0.));
#1007 = ORIENTED_EDGE('',*,*,#1008,.T.);
#1008 = EDGE_CURVE('',#1001,#223,#1009,.T.);
#1009 = LINE('',#1010,#1011);
#1010 = CARTESIAN_POINT('',(27.6,-7.5,20.));
#1011 = VECTOR('',#1012,1.);
#1012 = DIRECTION('',(-0.,1.,0.));
#1013 = ORIENTED_EDGE('',*,*,#222,.F.);
#1014 = PLANE('',#1015);
#1015 = AXIS2_PLACEMENT_3D('',#1016,#1017,#1018);
#1016 = CARTESIAN_POINT('',(20.,-7.5,20.));
#1017 = DIRECTION('',(0.,0.,1.));
#1018 = DIRECTION('',(1.,0.,-0.));
#1019 = ADVANCED_FACE('',(#1020),#1038,.T.);
#1020 = FACE_BOUND('',#1021,.T.);
#1021 = EDGE_LOOP('',(#1022,#1023,#1031,#1037));
#1022 = ORIENTED_EDGE('',*,*,#935,.F.);
#1023 = ORIENTED_EDGE('',*,*,#1024,.T.);
#1024 = EDGE_CURVE('',#928,#1025,#1027,.T.);
#1025 = VERTEX_POINT('',#1026);
#1026 = CARTESIAN_POINT('',(26.4,-3.,21.6513684387));
#1027 = LINE('',#1028,#1029);
#1028 = CARTESIAN_POINT('',(23.8,-3.,21.6513684387));
#1029 = VECTOR('',#1030,1.);
#1030 = DIRECTION('',(1.,0.,0.));
#1031 = ORIENTED_EDGE('',*,*,#1032,.T.);
#1032 = EDGE_CURVE('',#1025,#247,#1033,.T.);
#1033 = LINE('',#1034,#1035);
#1034 = CARTESIAN_POINT('',(26.4,-6.3486315613,21.6513684387));
#1035 = VECTOR('',#1036,1.);
#1036 = DIRECTION('',(-0.,1.,0.));
#1037 = ORIENTED_EDGE('',*,*,#254,.F.);
#1038 = PLANE('',#1039);
#1039 = AXIS2_PLACEMENT_3D('',#1040,#1041,#1042);
#1040 = CARTESIAN_POINT('',(23.8,-6.3486315613,21.6513684387));
#1041 = DIRECTION('',(0.,0.,1.));
#1042 = DIRECTION('',(1.,0.,-0.));
#1043 = ADVANCED_FACE('',(#1044,#1055),#1066,.T.);
#1044 = FACE_BOUND('',#1045,.T.);
#1045 = EDGE_LOOP('',(#1046,#1047,#1053,#1054));
#1046 = ORIENTED_EDGE('',*,*,#807,.F.);
#1047 = ORIENTED_EDGE('',*,*,#1048,.F.);
#1048 = EDGE_CURVE('',#1001,#800,#1049,.T.);
#1049 = LINE('',#1050,#1051);
#1050 = CARTESIAN_POINT('',(27.6,-7.5,20.));
#1051 = VECTOR('',#1052,1.);
#1052 = DIRECTION('',(0.,0.,1.));
#1053 = ORIENTED_EDGE('',*,*,#1008,.T.);
#1054 = ORIENTED_EDGE('',*,*,#230,.F.);
#1055 = FACE_BOUND('',#1056,.T.);
#1056 = EDGE_LOOP('',(#1057));
#1057 = ORIENTED_EDGE('',*,*,#1058,.F.);
#1058 = EDGE_CURVE('',#1059,#1059,#1061,.T.);
#1059 = VERTEX_POINT('',#1060);
#1060 = CARTESIAN_POINT('',(27.6,-3.,26.75));
#1061 = CIRCLE('',#1062,1.75);
#1062 = AXIS2_PLACEMENT_3D('',#1063,#1064,#1065);
#1063 = CARTESIAN_POINT('',(27.6,-3.,25.));
#1064 = DIRECTION('',(1.,0.,0.));
#1065 = DIRECTION('',(-0.,0.,1.));
#1066 = PLANE('',#1067);
#1067 = AXIS2_PLACEMENT_3D('',#1068,#1069,#1070);
#1068 = CARTESIAN_POINT('',(27.6,-7.5,20.));
#1069 = DIRECTION('',(1.,0.,-0.));
#1070 = DIRECTION('',(0.,0.,1.));
#1071 = ADVANCED_FACE('',(#1072,#1091),#1139,.F.);
#1072 = FACE_BOUND('',#1073,.F.);
#1073 = EDGE_LOOP('',(#1074,#1082,#1088,#1089,#1090));
#1074 = ORIENTED_EDGE('',*,*,#1075,.F.);
#1075 = EDGE_CURVE('',#1076,#815,#1078,.T.);
#1076 = VERTEX_POINT('',#1077);
#1077 = CARTESIAN_POINT('',(26.4,-6.3486315613,21.6513684387));
#1078 = LINE('',#1079,#1080);
#1079 = CARTESIAN_POINT('',(26.4,-6.3486315613,21.6513684387));
#1080 = VECTOR('',#1081,1.);
#1081 = DIRECTION('',(0.,0.,1.));
#1082 = ORIENTED_EDGE('',*,*,#1083,.T.);
#1083 = EDGE_CURVE('',#1076,#1025,#1084,.T.);
#1084 = LINE('',#1085,#1086);
#1085 = CARTESIAN_POINT('',(26.4,-6.3486315613,21.6513684387));
#1086 = VECTOR('',#1087,1.);
#1087 = DIRECTION('',(-0.,1.,0.));
#1088 = ORIENTED_EDGE('',*,*,#1032,.T.);
#1089 = ORIENTED_EDGE('',*,*,#246,.F.);
#1090 = ORIENTED_EDGE('',*,*,#814,.F.);
#1091 = FACE_BOUND('',#1092,.F.);
#1092 = EDGE_LOOP('',(#1093,#1101,#1109,#1117,#1125,#1133));
#1093 = ORIENTED_EDGE('',*,*,#1094,.F.);
#1094 = EDGE_CURVE('',#1025,#1095,#1097,.T.);
#1095 = VERTEX_POINT('',#1096);
#1096 = CARTESIAN_POINT('',(26.4,-0.1,23.32568421935));
#1097 = LINE('',#1098,#1099);
#1098 = CARTESIAN_POINT('',(26.4,-3.,21.6513684387));
#1099 = VECTOR('',#1100,1.);
#1100 = DIRECTION('',(0.,0.866025403784,0.5));
#1101 = ORIENTED_EDGE('',*,*,#1102,.F.);
#1102 = EDGE_CURVE('',#1103,#1025,#1105,.T.);
#1103 = VERTEX_POINT('',#1104);
#1104 = CARTESIAN_POINT('',(26.4,-5.9,23.32568421935));
#1105 = LINE('',#1106,#1107);
#1106 = CARTESIAN_POINT('',(26.4,-5.9,23.32568421935));
#1107 = VECTOR('',#1108,1.);
#1108 = DIRECTION('',(0.,0.866025403784,-0.5));
#1109 = ORIENTED_EDGE('',*,*,#1110,.F.);
#1110 = EDGE_CURVE('',#1111,#1103,#1113,.T.);
#1111 = VERTEX_POINT('',#1112);
#1112 = CARTESIAN_POINT('',(26.4,-5.9,26.67431578065));
#1113 = LINE('',#1114,#1115);
#1114 = CARTESIAN_POINT('',(26.4,-5.9,26.67431578065));
#1115 = VECTOR('',#1116,1.);
#1116 = DIRECTION('',(0.,2.652362326046E-16,-1.));
#1117 = ORIENTED_EDGE('',*,*,#1118,.F.);
#1118 = EDGE_CURVE('',#1119,#1111,#1121,.T.);
#1119 = VERTEX_POINT('',#1120);
#1120 = CARTESIAN_POINT('',(26.4,-3.,28.3486315613));
#1121 = LINE('',#1122,#1123);
#1122 = CARTESIAN_POINT('',(26.4,-3.,28.3486315613));
#1123 = VECTOR('',#1124,1.);
#1124 = DIRECTION('',(0.,-0.866025403784,-0.5));
#1125 = ORIENTED_EDGE('',*,*,#1126,.F.);
#1126 = EDGE_CURVE('',#1127,#1119,#1129,.T.);
#1127 = VERTEX_POINT('',#1128);
#1128 = CARTESIAN_POINT('',(26.4,-0.1,26.67431578065));
#1129 = LINE('',#1130,#1131);
#1130 = CARTESIAN_POINT('',(26.4,-0.1,26.67431578065));
#1131 = VECTOR('',#1132,1.);
#1132 = DIRECTION('',(0.,-0.866025403784,0.5));
#1133 = ORIENTED_EDGE('',*,*,#1134,.F.);
#1134 = EDGE_CURVE('',#1095,#1127,#1135,.T.);
#1135 = LINE('',#1136,#1137);
#1136 = CARTESIAN_POINT('',(26.4,-0.1,23.32568421935));
#1137 = VECTOR('',#1138,1.);
#1138 = DIRECTION('',(0.,3.978543489069E-16,1.));
#1139 = PLANE('',#1140);
#1140 = AXIS2_PLACEMENT_3D('',#1141,#1142,#1143);
#1141 = CARTESIAN_POINT('',(26.4,-6.3486315613,21.6513684387));
#1142 = DIRECTION('',(1.,0.,-0.));
#1143 = DIRECTION('',(0.,0.,1.));
#1144 = ADVANCED_FACE('',(#1145),#1151,.F.);
#1145 = FACE_BOUND('',#1146,.F.);
#1146 = EDGE_LOOP('',(#1147,#1148,#1149,#1150));
#1147 = ORIENTED_EDGE('',*,*,#622,.F.);
#1148 = ORIENTED_EDGE('',*,*,#276,.T.);
#1149 = ORIENTED_EDGE('',*,*,#574,.T.);
#1150 = ORIENTED_EDGE('',*,*,#597,.F.);
#1151 = PLANE('',#1152);
#1152 = AXIS2_PLACEMENT_3D('',#1153,#1154,#1155);
#1153 = CARTESIAN_POINT('',(0.,-2.5,14.));
#1154 = DIRECTION('',(-0.,1.,0.));
#1155 = DIRECTION('',(0.,0.,1.));
#1156 = ADVANCED_FACE('',(#1157),#1175,.T.);
#1157 = FACE_BOUND('',#1158,.T.);
#1158 = EDGE_LOOP('',(#1159,#1167,#1173,#1174));
#1159 = ORIENTED_EDGE('',*,*,#1160,.F.);
#1160 = EDGE_CURVE('',#1161,#398,#1163,.T.);
#1161 = VERTEX_POINT('',#1162);
#1162 = CARTESIAN_POINT('',(29.6,1.8,16.05));
#1163 = LINE('',#1164,#1165);
#1164 = CARTESIAN_POINT('',(29.6,1.8,16.05));
#1165 = VECTOR('',#1166,1.);
#1166 = DIRECTION('',(-0.,1.,0.));
#1167 = ORIENTED_EDGE('',*,*,#1168,.T.);
#1168 = EDGE_CURVE('',#1161,#520,#1169,.T.);
#1169 = LINE('',#1170,#1171);
#1170 = CARTESIAN_POINT('',(29.6,1.8,16.05));
#1171 = VECTOR('',#1172,1.);
#1172 = DIRECTION('',(1.,0.,-0.));
#1173 = ORIENTED_EDGE('',*,*,#519,.T.);
#1174 = ORIENTED_EDGE('',*,*,#405,.F.);
#1175 = PLANE('',#1176);
#1176 = AXIS2_PLACEMENT_3D('',#1177,#1178,#1179);
#1177 = CARTESIAN_POINT('',(29.6,1.8,16.05));
#1178 = DIRECTION('',(0.,0.,1.));
#1179 = DIRECTION('',(1.,0.,-0.));
#1180 = ADVANCED_FACE('',(#1181),#1199,.T.);
#1181 = FACE_BOUND('',#1182,.T.);
#1182 = EDGE_LOOP('',(#1183,#1191,#1192,#1193));
#1183 = ORIENTED_EDGE('',*,*,#1184,.F.);
#1184 = EDGE_CURVE('',#1161,#1185,#1187,.T.);
#1185 = VERTEX_POINT('',#1186);
#1186 = CARTESIAN_POINT('',(29.6,1.8,17.75));
#1187 = LINE('',#1188,#1189);
#1188 = CARTESIAN_POINT('',(29.6,1.8,16.05));
#1189 = VECTOR('',#1190,1.);
#1190 = DIRECTION('',(0.,0.,1.));
#1191 = ORIENTED_EDGE('',*,*,#1160,.T.);
#1192 = ORIENTED_EDGE('',*,*,#397,.T.);
#1193 = ORIENTED_EDGE('',*,*,#1194,.F.);
#1194 = EDGE_CURVE('',#1185,#390,#1195,.T.);
#1195 = LINE('',#1196,#1197);
#1196 = CARTESIAN_POINT('',(29.6,1.8,17.75));
#1197 = VECTOR('',#1198,1.);
#1198 = DIRECTION('',(-0.,1.,0.));
#1199 = PLANE('',#1200);
#1200 = AXIS2_PLACEMENT_3D('',#1201,#1202,#1203);
#1201 = CARTESIAN_POINT('',(29.6,1.8,16.05));
#1202 = DIRECTION('',(1.,0.,-0.));
#1203 = DIRECTION('',(0.,0.,1.));
#1204 = ADVANCED_FACE('',(#1205),#1216,.F.);
#1205 = FACE_BOUND('',#1206,.F.);
#1206 = EDGE_LOOP('',(#1207,#1208,#1214,#1215));
#1207 = ORIENTED_EDGE('',*,*,#1194,.F.);
#1208 = ORIENTED_EDGE('',*,*,#1209,.T.);
#1209 = EDGE_CURVE('',#1185,#528,#1210,.T.);
#1210 = LINE('',#1211,#1212);
#1211 = CARTESIAN_POINT('',(29.6,1.8,17.75));
#1212 = VECTOR('',#1213,1.);
#1213 = DIRECTION('',(1.,0.,-0.));
#1214 = ORIENTED_EDGE('',*,*,#535,.T.);
#1215 = ORIENTED_EDGE('',*,*,#389,.F.);
#1216 = PLANE('',#1217);
#1217 = AXIS2_PLACEMENT_3D('',#1218,#1219,#1220);
#1218 = CARTESIAN_POINT('',(29.6,1.8,17.75));
#1219 = DIRECTION('',(0.,0.,1.));
#1220 = DIRECTION('',(1.,0.,-0.));
#1221 = ADVANCED_FACE('',(#1222),#1240,.T.);
#1222 = FACE_BOUND('',#1223,.T.);
#1223 = EDGE_LOOP('',(#1224,#1232,#1238,#1239));
#1224 = ORIENTED_EDGE('',*,*,#1225,.F.);
#1225 = EDGE_CURVE('',#1226,#366,#1228,.T.);
#1226 = VERTEX_POINT('',#1227);
#1227 = CARTESIAN_POINT('',(24.572908596731,1.8,27.6));
#1228 = LINE('',#1229,#1230);
#1229 = CARTESIAN_POINT('',(24.572908596731,1.8,27.6));
#1230 = VECTOR('',#1231,1.);
#1231 = DIRECTION('',(-0.,1.,0.));
#1232 = ORIENTED_EDGE('',*,*,#1233,.T.);
#1233 = EDGE_CURVE('',#1226,#543,#1234,.T.);
#1234 = LINE('',#1235,#1236);
#1235 = CARTESIAN_POINT('',(24.572908596731,1.8,27.6));
#1236 = VECTOR('',#1237,1.);
#1237 = DIRECTION('',(1.,0.,-0.));
#1238 = ORIENTED_EDGE('',*,*,#542,.T.);
#1239 = ORIENTED_EDGE('',*,*,#373,.F.);
#1240 = PLANE('',#1241);
#1241 = AXIS2_PLACEMENT_3D('',#1242,#1243,#1244);
#1242 = CARTESIAN_POINT('',(24.572908596731,1.8,27.6));
#1243 = DIRECTION('',(0.,0.,1.));
#1244 = DIRECTION('',(1.,0.,-0.));
#1245 = ADVANCED_FACE('',(#1246),#1264,.T.);
#1246 = FACE_BOUND('',#1247,.T.);
#1247 = EDGE_LOOP('',(#1248,#1256,#1257,#1258));
#1248 = ORIENTED_EDGE('',*,*,#1249,.F.);
#1249 = EDGE_CURVE('',#1226,#1250,#1252,.T.);
#1250 = VERTEX_POINT('',#1251);
#1251 = CARTESIAN_POINT('',(24.572908596731,1.8,29.3));
#1252 = LINE('',#1253,#1254);
#1253 = CARTESIAN_POINT('',(24.572908596731,1.8,27.6));
#1254 = VECTOR('',#1255,1.);
#1255 = DIRECTION('',(0.,0.,1.));
#1256 = ORIENTED_EDGE('',*,*,#1225,.T.);
#1257 = ORIENTED_EDGE('',*,*,#365,.T.);
#1258 = ORIENTED_EDGE('',*,*,#1259,.F.);
#1259 = EDGE_CURVE('',#1250,#358,#1260,.T.);
#1260 = LINE('',#1261,#1262);
#1261 = CARTESIAN_POINT('',(24.572908596731,1.8,29.3));
#1262 = VECTOR('',#1263,1.);
#1263 = DIRECTION('',(-0.,1.,0.));
#1264 = PLANE('',#1265);
#1265 = AXIS2_PLACEMENT_3D('',#1266,#1267,#1268);
#1266 = CARTESIAN_POINT('',(24.572908596731,1.8,27.6));
#1267 = DIRECTION('',(1.,0.,-0.));
#1268 = DIRECTION('',(0.,0.,1.));
#1269 = ADVANCED_FACE('',(#1270),#1281,.F.);
#1270 = FACE_BOUND('',#1271,.F.);
#1271 = EDGE_LOOP('',(#1272,#1273,#1279,#1280));
#1272 = ORIENTED_EDGE('',*,*,#1259,.F.);
#1273 = ORIENTED_EDGE('',*,*,#1274,.T.);
#1274 = EDGE_CURVE('',#1250,#551,#1275,.T.);
#1275 = LINE('',#1276,#1277);
#1276 = CARTESIAN_POINT('',(24.572908596731,1.8,29.3));
#1277 = VECTOR('',#1278,1.);
#1278 = DIRECTION('',(1.,0.,-0.));
#1279 = ORIENTED_EDGE('',*,*,#558,.T.);
#1280 = ORIENTED_EDGE('',*,*,#357,.F.);
#1281 = PLANE('',#1282);
#1282 = AXIS2_PLACEMENT_3D('',#1283,#1284,#1285);
#1283 = CARTESIAN_POINT('',(24.572908596731,1.8,29.3));
#1284 = DIRECTION('',(0.,0.,1.));
#1285 = DIRECTION('',(1.,0.,-0.));
#1286 = ADVANCED_FACE('',(#1287),#1293,.T.);
#1287 = FACE_BOUND('',#1288,.T.);
#1288 = EDGE_LOOP('',(#1289,#1290,#1291,#1292));
#1289 = ORIENTED_EDGE('',*,*,#1233,.F.);
#1290 = ORIENTED_EDGE('',*,*,#1249,.T.);
#1291 = ORIENTED_EDGE('',*,*,#1274,.T.);
#1292 = ORIENTED_EDGE('',*,*,#550,.T.);
#1293 = PLANE('',#1294);
#1294 = AXIS2_PLACEMENT_3D('',#1295,#1296,#1297);
#1295 = CARTESIAN_POINT('',(24.572908596731,1.8,27.6));
#1296 = DIRECTION('',(-0.,1.,0.));
#1297 = DIRECTION('',(0.,0.,1.));
#1298 = ADVANCED_FACE('',(#1299),#1305,.T.);
#1299 = FACE_BOUND('',#1300,.T.);
#1300 = EDGE_LOOP('',(#1301,#1302,#1303,#1304));
#1301 = ORIENTED_EDGE('',*,*,#1168,.F.);
#1302 = ORIENTED_EDGE('',*,*,#1184,.T.);
#1303 = ORIENTED_EDGE('',*,*,#1209,.T.);
#1304 = ORIENTED_EDGE('',*,*,#527,.T.);
#1305 = PLANE('',#1306);
#1306 = AXIS2_PLACEMENT_3D('',#1307,#1308,#1309);
#1307 = CARTESIAN_POINT('',(29.6,1.8,16.05));
#1308 = DIRECTION('',(-0.,1.,0.));
#1309 = DIRECTION('',(0.,0.,1.));
#1310 = ADVANCED_FACE('',(#1311),#1322,.T.);
#1311 = FACE_BOUND('',#1312,.T.);
#1312 = EDGE_LOOP('',(#1313,#1314,#1320,#1321));
#1313 = ORIENTED_EDGE('',*,*,#1075,.F.);
#1314 = ORIENTED_EDGE('',*,*,#1315,.F.);
#1315 = EDGE_CURVE('',#920,#1076,#1316,.T.);
#1316 = LINE('',#1317,#1318);
#1317 = CARTESIAN_POINT('',(23.8,-6.3486315613,21.6513684387));
#1318 = VECTOR('',#1319,1.);
#1319 = DIRECTION('',(1.,0.,-0.));
#1320 = ORIENTED_EDGE('',*,*,#919,.T.);
#1321 = ORIENTED_EDGE('',*,*,#822,.F.);
#1322 = PLANE('',#1323);
#1323 = AXIS2_PLACEMENT_3D('',#1324,#1325,#1326);
#1324 = CARTESIAN_POINT('',(23.8,-6.3486315613,21.6513684387));
#1325 = DIRECTION('',(-0.,1.,0.));
#1326 = DIRECTION('',(0.,0.,1.));
#1327 = ADVANCED_FACE('',(#1328),#1334,.F.);
#1328 = FACE_BOUND('',#1329,.F.);
#1329 = EDGE_LOOP('',(#1330,#1331,#1332,#1333));
#1330 = ORIENTED_EDGE('',*,*,#1000,.F.);
#1331 = ORIENTED_EDGE('',*,*,#846,.T.);
#1332 = ORIENTED_EDGE('',*,*,#799,.T.);
#1333 = ORIENTED_EDGE('',*,*,#1048,.F.);
#1334 = PLANE('',#1335);
#1335 = AXIS2_PLACEMENT_3D('',#1336,#1337,#1338);
#1336 = CARTESIAN_POINT('',(20.,-7.5,20.));
#1337 = DIRECTION('',(-0.,1.,0.));
#1338 = DIRECTION('',(0.,0.,1.));
#1339 = ADVANCED_FACE('',(#1340),#1365,.T.);
#1340 = FACE_BOUND('',#1341,.T.);
#1341 = EDGE_LOOP('',(#1342,#1343,#1351,#1359));
#1342 = ORIENTED_EDGE('',*,*,#863,.T.);
#1343 = ORIENTED_EDGE('',*,*,#1344,.T.);
#1344 = EDGE_CURVE('',#866,#1345,#1347,.T.);
#1345 = VERTEX_POINT('',#1346);
#1346 = CARTESIAN_POINT('',(22.6,-3.,28.3486315613));
#1347 = LINE('',#1348,#1349);
#1348 = CARTESIAN_POINT('',(19.7,-3.,28.3486315613));
#1349 = VECTOR('',#1350,1.);
#1350 = DIRECTION('',(1.,0.,0.));
#1351 = ORIENTED_EDGE('',*,*,#1352,.T.);
#1352 = EDGE_CURVE('',#1345,#1353,#1355,.T.);
#1353 = VERTEX_POINT('',#1354);
#1354 = CARTESIAN_POINT('',(22.6,-5.9,26.67431578065));
#1355 = LINE('',#1356,#1357);
#1356 = CARTESIAN_POINT('',(22.6,-3.,28.3486315613));
#1357 = VECTOR('',#1358,1.);
#1358 = DIRECTION('',(0.,-0.866025403784,-0.5));
#1359 = ORIENTED_EDGE('',*,*,#1360,.F.);
#1360 = EDGE_CURVE('',#864,#1353,#1361,.T.);
#1361 = LINE('',#1362,#1363);
#1362 = CARTESIAN_POINT('',(19.7,-5.9,26.67431578065));
#1363 = VECTOR('',#1364,1.);
#1364 = DIRECTION('',(1.,0.,0.));
#1365 = PLANE('',#1366);
#1366 = AXIS2_PLACEMENT_3D('',#1367,#1368,#1369);
#1367 = CARTESIAN_POINT('',(19.7,-3.,28.3486315613));
#1368 = DIRECTION('',(0.,0.5,-0.866025403784));
#1369 = DIRECTION('',(0.,-0.866025403784,-0.5));
#1370 = ADVANCED_FACE('',(#1371),#1389,.T.);
#1371 = FACE_BOUND('',#1372,.T.);
#1372 = EDGE_LOOP('',(#1373,#1374,#1375,#1383));
#1373 = ORIENTED_EDGE('',*,*,#905,.T.);
#1374 = ORIENTED_EDGE('',*,*,#1360,.T.);
#1375 = ORIENTED_EDGE('',*,*,#1376,.T.);
#1376 = EDGE_CURVE('',#1353,#1377,#1379,.T.);
#1377 = VERTEX_POINT('',#1378);
#1378 = CARTESIAN_POINT('',(22.6,-5.9,23.32568421935));
#1379 = LINE('',#1380,#1381);
#1380 = CARTESIAN_POINT('',(22.6,-5.9,26.67431578065));
#1381 = VECTOR('',#1382,1.);
#1382 = DIRECTION('',(0.,2.652362326046E-16,-1.));
#1383 = ORIENTED_EDGE('',*,*,#1384,.F.);
#1384 = EDGE_CURVE('',#898,#1377,#1385,.T.);
#1385 = LINE('',#1386,#1387);
#1386 = CARTESIAN_POINT('',(19.7,-5.9,23.32568421935));
#1387 = VECTOR('',#1388,1.);
#1388 = DIRECTION('',(1.,0.,0.));
#1389 = PLANE('',#1390);
#1390 = AXIS2_PLACEMENT_3D('',#1391,#1392,#1393);
#1391 = CARTESIAN_POINT('',(19.7,-5.9,26.67431578065));
#1392 = DIRECTION('',(-0.,1.,2.652362326046E-16));
#1393 = DIRECTION('',(0.,2.652362326046E-16,-1.));
#1394 = ADVANCED_FACE('',(#1395),#1413,.T.);
#1395 = FACE_BOUND('',#1396,.T.);
#1396 = EDGE_LOOP('',(#1397,#1398,#1406,#1412));
#1397 = ORIENTED_EDGE('',*,*,#873,.T.);
#1398 = ORIENTED_EDGE('',*,*,#1399,.T.);
#1399 = EDGE_CURVE('',#874,#1400,#1402,.T.);
#1400 = VERTEX_POINT('',#1401);
#1401 = CARTESIAN_POINT('',(22.6,-0.1,26.67431578065));
#1402 = LINE('',#1403,#1404);
#1403 = CARTESIAN_POINT('',(19.7,-0.1,26.67431578065));
#1404 = VECTOR('',#1405,1.);
#1405 = DIRECTION('',(1.,0.,0.));
#1406 = ORIENTED_EDGE('',*,*,#1407,.T.);
#1407 = EDGE_CURVE('',#1400,#1345,#1408,.T.);
#1408 = LINE('',#1409,#1410);
#1409 = CARTESIAN_POINT('',(22.6,-0.1,26.67431578065));
#1410 = VECTOR('',#1411,1.);
#1411 = DIRECTION('',(0.,-0.866025403784,0.5));
#1412 = ORIENTED_EDGE('',*,*,#1344,.F.);
#1413 = PLANE('',#1414);
#1414 = AXIS2_PLACEMENT_3D('',#1415,#1416,#1417);
#1415 = CARTESIAN_POINT('',(19.7,-0.1,26.67431578065));
#1416 = DIRECTION('',(0.,-0.5,-0.866025403784));
#1417 = DIRECTION('',(0.,-0.866025403784,0.5));
#1418 = ADVANCED_FACE('',(#1419),#1437,.T.);
#1419 = FACE_BOUND('',#1420,.T.);
#1420 = EDGE_LOOP('',(#1421,#1422,#1423,#1431));
#1421 = ORIENTED_EDGE('',*,*,#897,.T.);
#1422 = ORIENTED_EDGE('',*,*,#1384,.T.);
#1423 = ORIENTED_EDGE('',*,*,#1424,.T.);
#1424 = EDGE_CURVE('',#1377,#1425,#1427,.T.);
#1425 = VERTEX_POINT('',#1426);
#1426 = CARTESIAN_POINT('',(22.6,-3.,21.6513684387));
#1427 = LINE('',#1428,#1429);
#1428 = CARTESIAN_POINT('',(22.6,-5.9,23.32568421935));
#1429 = VECTOR('',#1430,1.);
#1430 = DIRECTION('',(0.,0.866025403784,-0.5));
#1431 = ORIENTED_EDGE('',*,*,#1432,.F.);
#1432 = EDGE_CURVE('',#890,#1425,#1433,.T.);
#1433 = LINE('',#1434,#1435);
#1434 = CARTESIAN_POINT('',(19.7,-3.,21.6513684387));
#1435 = VECTOR('',#1436,1.);
#1436 = DIRECTION('',(1.,0.,0.));
#1437 = PLANE('',#1438);
#1438 = AXIS2_PLACEMENT_3D('',#1439,#1440,#1441);
#1439 = CARTESIAN_POINT('',(19.7,-5.9,23.32568421935));
#1440 = DIRECTION('',(-0.,0.5,0.866025403784));
#1441 = DIRECTION('',(0.,0.866025403784,-0.5));
#1442 = ADVANCED_FACE('',(#1443),#1461,.T.);
#1443 = FACE_BOUND('',#1444,.T.);
#1444 = EDGE_LOOP('',(#1445,#1446,#1454,#1460));
#1445 = ORIENTED_EDGE('',*,*,#881,.T.);
#1446 = ORIENTED_EDGE('',*,*,#1447,.T.);
#1447 = EDGE_CURVE('',#882,#1448,#1450,.T.);
#1448 = VERTEX_POINT('',#1449);
#1449 = CARTESIAN_POINT('',(22.6,-0.1,23.32568421935));
#1450 = LINE('',#1451,#1452);
#1451 = CARTESIAN_POINT('',(19.7,-0.1,23.32568421935));
#1452 = VECTOR('',#1453,1.);
#1453 = DIRECTION('',(1.,0.,0.));
#1454 = ORIENTED_EDGE('',*,*,#1455,.T.);
#1455 = EDGE_CURVE('',#1448,#1400,#1456,.T.);
#1456 = LINE('',#1457,#1458);
#1457 = CARTESIAN_POINT('',(22.6,-0.1,23.32568421935));
#1458 = VECTOR('',#1459,1.);
#1459 = DIRECTION('',(0.,3.978543489069E-16,1.));
#1460 = ORIENTED_EDGE('',*,*,#1399,.F.);
#1461 = PLANE('',#1462);
#1462 = AXIS2_PLACEMENT_3D('',#1463,#1464,#1465);
#1463 = CARTESIAN_POINT('',(19.7,-0.1,23.32568421935));
#1464 = DIRECTION('',(0.,-1.,3.978543489069E-16));
#1465 = DIRECTION('',(0.,3.978543489069E-16,1.));
#1466 = ADVANCED_FACE('',(#1467),#1478,.T.);
#1467 = FACE_BOUND('',#1468,.T.);
#1468 = EDGE_LOOP('',(#1469,#1470,#1471,#1477));
#1469 = ORIENTED_EDGE('',*,*,#889,.T.);
#1470 = ORIENTED_EDGE('',*,*,#1432,.T.);
#1471 = ORIENTED_EDGE('',*,*,#1472,.T.);
#1472 = EDGE_CURVE('',#1425,#1448,#1473,.T.);
#1473 = LINE('',#1474,#1475);
#1474 = CARTESIAN_POINT('',(22.6,-3.,21.6513684387));
#1475 = VECTOR('',#1476,1.);
#1476 = DIRECTION('',(0.,0.866025403784,0.5));
#1477 = ORIENTED_EDGE('',*,*,#1447,.F.);
#1478 = PLANE('',#1479);
#1479 = AXIS2_PLACEMENT_3D('',#1480,#1481,#1482);
#1480 = CARTESIAN_POINT('',(19.7,-3.,21.6513684387));
#1481 = DIRECTION('',(0.,-0.5,0.866025403784));
#1482 = DIRECTION('',(0.,0.866025403784,0.5));
#1483 = ADVANCED_FACE('',(#1484),#1490,.T.);
#1484 = FACE_BOUND('',#1485,.T.);
#1485 = EDGE_LOOP('',(#1486,#1487,#1488,#1489));
#1486 = ORIENTED_EDGE('',*,*,#927,.F.);
#1487 = ORIENTED_EDGE('',*,*,#1315,.T.);
#1488 = ORIENTED_EDGE('',*,*,#1083,.T.);
#1489 = ORIENTED_EDGE('',*,*,#1024,.F.);
#1490 = PLANE('',#1491);
#1491 = AXIS2_PLACEMENT_3D('',#1492,#1493,#1494);
#1492 = CARTESIAN_POINT('',(23.8,-6.3486315613,21.6513684387));
#1493 = DIRECTION('',(0.,0.,1.));
#1494 = DIRECTION('',(1.,0.,-0.));
#1495 = ADVANCED_FACE('',(#1496,#1504),#1515,.T.);
#1496 = FACE_BOUND('',#1497,.T.);
#1497 = EDGE_LOOP('',(#1498,#1499,#1500,#1501,#1502,#1503));
#1498 = ORIENTED_EDGE('',*,*,#977,.T.);
#1499 = ORIENTED_EDGE('',*,*,#969,.T.);
#1500 = ORIENTED_EDGE('',*,*,#961,.T.);
#1501 = ORIENTED_EDGE('',*,*,#953,.T.);
#1502 = ORIENTED_EDGE('',*,*,#945,.T.);
#1503 = ORIENTED_EDGE('',*,*,#985,.T.);
#1504 = FACE_BOUND('',#1505,.T.);
#1505 = EDGE_LOOP('',(#1506));
#1506 = ORIENTED_EDGE('',*,*,#1507,.F.);
#1507 = EDGE_CURVE('',#1508,#1508,#1510,.T.);
#1508 = VERTEX_POINT('',#1509);
#1509 = CARTESIAN_POINT('',(23.8,-3.,26.75));
#1510 = CIRCLE('',#1511,1.75);
#1511 = AXIS2_PLACEMENT_3D('',#1512,#1513,#1514);
#1512 = CARTESIAN_POINT('',(23.8,-3.,25.));
#1513 = DIRECTION('',(1.,0.,0.));
#1514 = DIRECTION('',(-0.,0.,1.));
#1515 = PLANE('',#1516);
#1516 = AXIS2_PLACEMENT_3D('',#1517,#1518,#1519);
#1517 = CARTESIAN_POINT('',(23.8,-3.,25.));
#1518 = DIRECTION('',(1.,0.,0.));
#1519 = DIRECTION('',(-0.,0.,1.));
#1520 = ADVANCED_FACE('',(#1521),#1540,.F.);
#1521 = FACE_BOUND('',#1522,.F.);
#1522 = EDGE_LOOP('',(#1523,#1524,#1532,#1539));
#1523 = ORIENTED_EDGE('',*,*,#1058,.F.);
#1524 = ORIENTED_EDGE('',*,*,#1525,.F.);
#1525 = EDGE_CURVE('',#1526,#1059,#1528,.T.);
#1526 = VERTEX_POINT('',#1527);
#1527 = CARTESIAN_POINT('',(26.4,-3.,26.75));
#1528 = LINE('',#1529,#1530);
#1529 = CARTESIAN_POINT('',(19.5,-3.,26.75));
#1530 = VECTOR('',#1531,1.);
#1531 = DIRECTION('',(1.,0.,0.));
#1532 = ORIENTED_EDGE('',*,*,#1533,.T.);
#1533 = EDGE_CURVE('',#1526,#1526,#1534,.T.);
#1534 = CIRCLE('',#1535,1.75);
#1535 = AXIS2_PLACEMENT_3D('',#1536,#1537,#1538);
#1536 = CARTESIAN_POINT('',(26.4,-3.,25.));
#1537 = DIRECTION('',(1.,0.,0.));
#1538 = DIRECTION('',(-0.,0.,1.));
#1539 = ORIENTED_EDGE('',*,*,#1525,.T.);
#1540 = CYLINDRICAL_SURFACE('',#1541,1.75);
#1541 = AXIS2_PLACEMENT_3D('',#1542,#1543,#1544);
#1542 = CARTESIAN_POINT('',(19.5,-3.,25.));
#1543 = DIRECTION('',(1.,0.,0.));
#1544 = DIRECTION('',(-0.,0.,1.));
#1545 = ADVANCED_FACE('',(#1546,#1554),#1557,.F.);
#1546 = FACE_BOUND('',#1547,.F.);
#1547 = EDGE_LOOP('',(#1548,#1549,#1550,#1551,#1552,#1553));
#1548 = ORIENTED_EDGE('',*,*,#1126,.T.);
#1549 = ORIENTED_EDGE('',*,*,#1118,.T.);
#1550 = ORIENTED_EDGE('',*,*,#1110,.T.);
#1551 = ORIENTED_EDGE('',*,*,#1102,.T.);
#1552 = ORIENTED_EDGE('',*,*,#1094,.T.);
#1553 = ORIENTED_EDGE('',*,*,#1134,.T.);
#1554 = FACE_BOUND('',#1555,.F.);
#1555 = EDGE_LOOP('',(#1556));
#1556 = ORIENTED_EDGE('',*,*,#1533,.F.);
#1557 = PLANE('',#1558);
#1558 = AXIS2_PLACEMENT_3D('',#1559,#1560,#1561);
#1559 = CARTESIAN_POINT('',(26.4,-3.,25.));
#1560 = DIRECTION('',(1.,0.,0.));
#1561 = DIRECTION('',(-0.,0.,1.));
#1562 = ADVANCED_FACE('',(#1563,#1571),#1582,.F.);
#1563 = FACE_BOUND('',#1564,.F.);
#1564 = EDGE_LOOP('',(#1565,#1566,#1567,#1568,#1569,#1570));
#1565 = ORIENTED_EDGE('',*,*,#1407,.T.);
#1566 = ORIENTED_EDGE('',*,*,#1352,.T.);
#1567 = ORIENTED_EDGE('',*,*,#1376,.T.);
#1568 = ORIENTED_EDGE('',*,*,#1424,.T.);
#1569 = ORIENTED_EDGE('',*,*,#1472,.T.);
#1570 = ORIENTED_EDGE('',*,*,#1455,.T.);
#1571 = FACE_BOUND('',#1572,.F.);
#1572 = EDGE_LOOP('',(#1573));
#1573 = ORIENTED_EDGE('',*,*,#1574,.F.);
#1574 = EDGE_CURVE('',#1575,#1575,#1577,.T.);
#1575 = VERTEX_POINT('',#1576);
#1576 = CARTESIAN_POINT('',(22.6,-3.,26.75));
#1577 = CIRCLE('',#1578,1.75);
#1578 = AXIS2_PLACEMENT_3D('',#1579,#1580,#1581);
#1579 = CARTESIAN_POINT('',(22.6,-3.,25.));
#1580 = DIRECTION('',(1.,0.,0.));
#1581 = DIRECTION('',(-0.,0.,1.));
#1582 = PLANE('',#1583);
#1583 = AXIS2_PLACEMENT_3D('',#1584,#1585,#1586);
#1584 = CARTESIAN_POINT('',(22.6,-3.,25.));
#1585 = DIRECTION('',(1.,0.,0.));
#1586 = DIRECTION('',(-0.,0.,1.));
#1587 = ADVANCED_FACE('',(#1588),#1599,.F.);
#1588 = FACE_BOUND('',#1589,.F.);
#1589 = EDGE_LOOP('',(#1590,#1591,#1597,#1598));
#1590 = ORIENTED_EDGE('',*,*,#1507,.F.);
#1591 = ORIENTED_EDGE('',*,*,#1592,.F.);
#1592 = EDGE_CURVE('',#1575,#1508,#1593,.T.);
#1593 = LINE('',#1594,#1595);
#1594 = CARTESIAN_POINT('',(19.5,-3.,26.75));
#1595 = VECTOR('',#1596,1.);
#1596 = DIRECTION('',(1.,0.,0.));
#1597 = ORIENTED_EDGE('',*,*,#1574,.T.);
#1598 = ORIENTED_EDGE('',*,*,#1592,.T.);
#1599 = CYLINDRICAL_SURFACE('',#1600,1.75);
#1600 = AXIS2_PLACEMENT_3D('',#1601,#1602,#1603);
#1601 = CARTESIAN_POINT('',(19.5,-3.,25.));
#1602 = DIRECTION('',(1.,0.,0.));
#1603 = DIRECTION('',(-0.,0.,1.));
#1604 = ( GEOMETRIC_REPRESENTATION_CONTEXT(3) 
GLOBAL_UNCERTAINTY_ASSIGNED_CONTEXT((#1608)) 
GLOBAL_UNIT_ASSIGNED_CONTEXT((#1605,#1606,#1607)) REPRESENTATION_CONTEXT
('Context #1','3D Context with UNIT and UNCERTAINTY') );
#1605 = ( LENGTH_UNIT() NAMED_UNIT(*) SI_UNIT(.MILLI.,.METRE.) );
#1606 = ( NAMED_UNIT(*) PLANE_ANGLE_UNIT() SI_UNIT($,.RADIAN.) );
#1607 = ( NAMED_UNIT(*) SI_UNIT($,.STERADIAN.) SOLID_ANGLE_UNIT() );
#1608 = UNCERTAINTY_MEASURE_WITH_UNIT(LENGTH_MEASURE(1.E-07),#1605,
  'distance_accuracy_value','confusion accuracy');
#1609 = PRODUCT_RELATED_PRODUCT_CATEGORY('part',$,(#7));
ENDSEC;
END-ISO-10303-21;
