ISO-10303-21;
HEADER;
FILE_DESCRIPTION(('FreeCAD Model'),'2;1');
FILE_NAME('Open CASCADE Shape Model','2026-09-26T11:48:00',('FreeCAD'),(
    'FreeCAD'),'Open CASCADE STEP processor 7.8','FreeCAD','Unknown');
FILE_SCHEMA(('AUTOMOTIVE_DESIGN { 1 0 10303 214 1 1 1 1 }'));
ENDSEC;
DATA;
#1 = APPLICATION_PROTOCOL_DEFINITION('international standard',
  'automotive_design',2000,#2);
#2 = APPLICATION_CONTEXT(
  'core data for automotive mechanical design processes');
#3 = SHAPE_DEFINITION_REPRESENTATION(#4,#10);
#4 = PRODUCT_DEFINITION_SHAPE('','',#5);
#5 = PRODUCT_DEFINITION('design','',#6,#9);
#6 = PRODUCT_DEFINITION_FORMATION('','',#7);
#7 = PRODUCT('Open CASCADE STEP translator 7.8 9',
  'Open CASCADE STEP translator 7.8 9','',(#8));
#8 = PRODUCT_CONTEXT('',#2,'mechanical');
#9 = PRODUCT_DEFINITION_CONTEXT('part definition',#2,'design');
#10 = ADVANCED_BREP_SHAPE_REPRESENTATION('',(#11,#15),#1567);
#11 = AXIS2_PLACEMENT_3D('',#12,#13,#14);
#12 = CARTESIAN_POINT('',(0.,0.,0.));
#13 = DIRECTION('',(0.,0.,1.));
#14 = DIRECTION('',(1.,0.,-0.));
#15 = MANIFOLD_SOLID_BREP('',#16);
#16 = CLOSED_SHELL('',(#17,#57,#99,#145,#180,#297,#377,#402,#427,#452,
    #477,#508,#532,#556,#580,#604,#621,#652,#676,#700,#724,#748,#765,
    #796,#828,#852,#877,#908,#940,#972,#989,#1032,#1049,#1066,#1109,
    #1133,#1157,#1194,#1218,#1262,#1279,#1311,#1343,#1367,#1391,#1409,
    #1434,#1458,#1483,#1508,#1525,#1537,#1549,#1558));
#17 = ADVANCED_FACE('',(#18),#52,.F.);
#18 = FACE_BOUND('',#19,.T.);
#19 = EDGE_LOOP('',(#20,#30,#38,#46));
#20 = ORIENTED_EDGE('',*,*,#21,.F.);
#21 = EDGE_CURVE('',#22,#24,#26,.T.);
#22 = VERTEX_POINT('',#23);
#23 = CARTESIAN_POINT('',(0.,0.,8.));
#24 = VERTEX_POINT('',#25);
#25 = CARTESIAN_POINT('',(0.,0.,7.105427357601E-15));
#26 = LINE('',#27,#28);
#27 = CARTESIAN_POINT('',(0.,0.,8.));
#28 = VECTOR('',#29,1.);
#29 = DIRECTION('',(0.,-1.224646799147E-16,-1.));
#30 = ORIENTED_EDGE('',*,*,#31,.T.);
#31 = EDGE_CURVE('',#22,#32,#34,.T.);
#32 = VERTEX_POINT('',#33);
#33 = CARTESIAN_POINT('',(0.,55.,8.));
#34 = LINE('',#35,#36);
#35 = CARTESIAN_POINT('',(0.,0.,8.));
#36 = VECTOR('',#37,1.);
#37 = DIRECTION('',(-0.,1.,-1.224646799147E-16));
#38 = ORIENTED_EDGE('',*,*,#39,.T.);
#39 = EDGE_CURVE('',#32,#40,#42,.T.);
#40 = VERTEX_POINT('',#41);
#41 = CARTESIAN_POINT('',(0.,55.,0.));
#42 = LINE('',#43,#44);
#43 = CARTESIAN_POINT('',(0.,55.,8.));
#44 = VECTOR('',#45,1.);
#45 = DIRECTION('',(0.,-1.224646799147E-16,-1.));
#46 = ORIENTED_EDGE('',*,*,#47,.F.);
#47 = EDGE_CURVE('',#24,#40,#48,.T.);
#48 = LINE('',#49,#50);
#49 = CARTESIAN_POINT('',(0.,0.,7.105427357601E-15));
#50 = VECTOR('',#51,1.);
#51 = DIRECTION('',(-0.,1.,-1.224646799147E-16));
#52 = PLANE('',#53);
#53 = AXIS2_PLACEMENT_3D('',#54,#55,#56);
#54 = CARTESIAN_POINT('',(0.,0.,8.));
#55 = DIRECTION('',(1.,0.,0.));
#56 = DIRECTION('',(0.,1.224646799147E-16,1.));
#57 = ADVANCED_FACE('',(#58,#83),#94,.F.);
#58 = FACE_BOUND('',#59,.T.);
#59 = EDGE_LOOP('',(#60,#68,#69,#77));
#60 = ORIENTED_EDGE('',*,*,#61,.F.);
#61 = EDGE_CURVE('',#22,#62,#64,.T.);
#62 = VERTEX_POINT('',#63);
#63 = CARTESIAN_POINT('',(12.,0.,8.));
#64 = LINE('',#65,#66);
#65 = CARTESIAN_POINT('',(0.,0.,8.));
#66 = VECTOR('',#67,1.);
#67 = DIRECTION('',(1.,0.,0.));
#68 = ORIENTED_EDGE('',*,*,#21,.T.);
#69 = ORIENTED_EDGE('',*,*,#70,.T.);
#70 = EDGE_CURVE('',#24,#71,#73,.T.);
#71 = VERTEX_POINT('',#72);
#72 = CARTESIAN_POINT('',(12.,0.,7.105427357601E-15));
#73 = LINE('',#74,#75);
#74 = CARTESIAN_POINT('',(0.,0.,7.105427357601E-15));
#75 = VECTOR('',#76,1.);
#76 = DIRECTION('',(1.,0.,0.));
#77 = ORIENTED_EDGE('',*,*,#78,.F.);
#78 = EDGE_CURVE('',#62,#71,#79,.T.);
#79 = LINE('',#80,#81);
#80 = CARTESIAN_POINT('',(12.,0.,8.));
#81 = VECTOR('',#82,1.);
#82 = DIRECTION('',(0.,-1.224646799147E-16,-1.));
#83 = FACE_BOUND('',#84,.T.);
#84 = EDGE_LOOP('',(#85));
#85 = ORIENTED_EDGE('',*,*,#86,.F.);
#86 = EDGE_CURVE('',#87,#87,#89,.T.);
#87 = VERTEX_POINT('',#88);
#88 = CARTESIAN_POINT('',(6.,0.,2.25));
#89 = CIRCLE('',#90,1.75);
#90 = AXIS2_PLACEMENT_3D('',#91,#92,#93);
#91 = CARTESIAN_POINT('',(6.,0.,4.));
#92 = DIRECTION('',(0.,-1.,1.224646799147E-16));
#93 = DIRECTION('',(0.,-1.224646799147E-16,-1.));
#94 = PLANE('',#95);
#95 = AXIS2_PLACEMENT_3D('',#96,#97,#98);
#96 = CARTESIAN_POINT('',(0.,0.,8.));
#97 = DIRECTION('',(-0.,1.,-1.224646799147E-16));
#98 = DIRECTION('',(0.,1.224646799147E-16,1.));
#99 = ADVANCED_FACE('',(#100,#118,#129),#140,.T.);
#100 = FACE_BOUND('',#101,.F.);
#101 = EDGE_LOOP('',(#102,#103,#104,#112));
#102 = ORIENTED_EDGE('',*,*,#47,.F.);
#103 = ORIENTED_EDGE('',*,*,#70,.T.);
#104 = ORIENTED_EDGE('',*,*,#105,.T.);
#105 = EDGE_CURVE('',#71,#106,#108,.T.);
#106 = VERTEX_POINT('',#107);
#107 = CARTESIAN_POINT('',(12.,55.,0.));
#108 = LINE('',#109,#110);
#109 = CARTESIAN_POINT('',(12.,0.,7.105427357601E-15));
#110 = VECTOR('',#111,1.);
#111 = DIRECTION('',(-0.,1.,-1.224646799147E-16));
#112 = ORIENTED_EDGE('',*,*,#113,.F.);
#113 = EDGE_CURVE('',#40,#106,#114,.T.);
#114 = LINE('',#115,#116);
#115 = CARTESIAN_POINT('',(0.,55.,0.));
#116 = VECTOR('',#117,1.);
#117 = DIRECTION('',(1.,0.,0.));
#118 = FACE_BOUND('',#119,.F.);
#119 = EDGE_LOOP('',(#120));
#120 = ORIENTED_EDGE('',*,*,#121,.F.);
#121 = EDGE_CURVE('',#122,#122,#124,.T.);
#122 = VERTEX_POINT('',#123);
#123 = CARTESIAN_POINT('',(7.75,11.5,5.329070518201E-15));
#124 = CIRCLE('',#125,1.75);
#125 = AXIS2_PLACEMENT_3D('',#126,#127,#128);
#126 = CARTESIAN_POINT('',(6.,11.5,5.329070518201E-15));
#127 = DIRECTION('',(-0.,1.224646799147E-16,1.));
#128 = DIRECTION('',(1.,0.,0.));
#129 = FACE_BOUND('',#130,.F.);
#130 = EDGE_LOOP('',(#131));
#131 = ORIENTED_EDGE('',*,*,#132,.F.);
#132 = EDGE_CURVE('',#133,#133,#135,.T.);
#133 = VERTEX_POINT('',#134);
#134 = CARTESIAN_POINT('',(7.65,43.5,1.7763568394E-15));
#135 = CIRCLE('',#136,1.65);
#136 = AXIS2_PLACEMENT_3D('',#137,#138,#139);
#137 = CARTESIAN_POINT('',(6.,43.5,1.7763568394E-15));
#138 = DIRECTION('',(-0.,1.224646799147E-16,1.));
#139 = DIRECTION('',(1.,0.,0.));
#140 = PLANE('',#141);
#141 = AXIS2_PLACEMENT_3D('',#142,#143,#144);
#142 = CARTESIAN_POINT('',(0.,0.,7.105427357601E-15));
#143 = DIRECTION('',(0.,-1.224646799147E-16,-1.));
#144 = DIRECTION('',(-1.,-0.,0.));
#145 = ADVANCED_FACE('',(#146,#164),#175,.T.);
#146 = FACE_BOUND('',#147,.F.);
#147 = EDGE_LOOP('',(#148,#156,#157,#158));
#148 = ORIENTED_EDGE('',*,*,#149,.F.);
#149 = EDGE_CURVE('',#32,#150,#152,.T.);
#150 = VERTEX_POINT('',#151);
#151 = CARTESIAN_POINT('',(12.,55.,8.));
#152 = LINE('',#153,#154);
#153 = CARTESIAN_POINT('',(0.,55.,8.));
#154 = VECTOR('',#155,1.);
#155 = DIRECTION('',(1.,0.,0.));
#156 = ORIENTED_EDGE('',*,*,#39,.T.);
#157 = ORIENTED_EDGE('',*,*,#113,.T.);
#158 = ORIENTED_EDGE('',*,*,#159,.F.);
#159 = EDGE_CURVE('',#150,#106,#160,.T.);
#160 = LINE('',#161,#162);
#161 = CARTESIAN_POINT('',(12.,55.,8.));
#162 = VECTOR('',#163,1.);
#163 = DIRECTION('',(0.,-1.224646799147E-16,-1.));
#164 = FACE_BOUND('',#165,.F.);
#165 = EDGE_LOOP('',(#166));
#166 = ORIENTED_EDGE('',*,*,#167,.F.);
#167 = EDGE_CURVE('',#168,#168,#170,.T.);
#168 = VERTEX_POINT('',#169);
#169 = CARTESIAN_POINT('',(6.,55.,2.25));
#170 = CIRCLE('',#171,1.75);
#171 = AXIS2_PLACEMENT_3D('',#172,#173,#174);
#172 = CARTESIAN_POINT('',(6.,55.,4.));
#173 = DIRECTION('',(0.,-1.,1.224646799147E-16));
#174 = DIRECTION('',(0.,-1.224646799147E-16,-1.));
#175 = PLANE('',#176);
#176 = AXIS2_PLACEMENT_3D('',#177,#178,#179);
#177 = CARTESIAN_POINT('',(0.,55.,8.));
#178 = DIRECTION('',(-0.,1.,-1.224646799147E-16));
#179 = DIRECTION('',(0.,1.224646799147E-16,1.));
#180 = ADVANCED_FACE('',(#181,#192,#242),#292,.F.);
#181 = FACE_BOUND('',#182,.T.);
#182 = EDGE_LOOP('',(#183,#184,#185,#191));
#183 = ORIENTED_EDGE('',*,*,#31,.F.);
#184 = ORIENTED_EDGE('',*,*,#61,.T.);
#185 = ORIENTED_EDGE('',*,*,#186,.T.);
#186 = EDGE_CURVE('',#62,#150,#187,.T.);
#187 = LINE('',#188,#189);
#188 = CARTESIAN_POINT('',(12.,0.,8.));
#189 = VECTOR('',#190,1.);
#190 = DIRECTION('',(-0.,1.,-1.224646799147E-16));
#191 = ORIENTED_EDGE('',*,*,#149,.F.);
#192 = FACE_BOUND('',#193,.T.);
#193 = EDGE_LOOP('',(#194,#204,#212,#220,#228,#236));
#194 = ORIENTED_EDGE('',*,*,#195,.T.);
#195 = EDGE_CURVE('',#196,#198,#200,.T.);
#196 = VERTEX_POINT('',#197);
#197 = CARTESIAN_POINT('',(3.1,13.17431578065,8.));
#198 = VERTEX_POINT('',#199);
#199 = CARTESIAN_POINT('',(6.,14.8486315613,8.));
#200 = LINE('',#201,#202);
#201 = CARTESIAN_POINT('',(0.53517696412,11.693514510461,8.));
#202 = VECTOR('',#203,1.);
#203 = DIRECTION('',(0.866025403784,0.5,-6.123233995737E-17));
#204 = ORIENTED_EDGE('',*,*,#205,.T.);
#205 = EDGE_CURVE('',#198,#206,#208,.T.);
#206 = VERTEX_POINT('',#207);
#207 = CARTESIAN_POINT('',(8.9,13.17431578065,8.));
#208 = LINE('',#209,#210);
#209 = CARTESIAN_POINT('',(8.41482303588,13.454432831489,8.));
#210 = VECTOR('',#211,1.);
#211 = DIRECTION('',(0.866025403784,-0.5,6.123233995737E-17));
#212 = ORIENTED_EDGE('',*,*,#213,.T.);
#213 = EDGE_CURVE('',#206,#214,#216,.T.);
#214 = VERTEX_POINT('',#215);
#215 = CARTESIAN_POINT('',(8.9,9.82568421935,8.));
#216 = LINE('',#217,#218);
#217 = CARTESIAN_POINT('',(8.9,4.912842109675,8.));
#218 = VECTOR('',#219,1.);
#219 = DIRECTION('',(0.,-1.,1.224646799147E-16));
#220 = ORIENTED_EDGE('',*,*,#221,.T.);
#221 = EDGE_CURVE('',#214,#222,#224,.T.);
#222 = VERTEX_POINT('',#223);
#223 = CARTESIAN_POINT('',(6.,8.1513684387,8.));
#224 = LINE('',#225,#226);
#225 = CARTESIAN_POINT('',(1.98517696412,5.833409278186,8.));
#226 = VECTOR('',#227,1.);
#227 = DIRECTION('',(-0.866025403784,-0.5,6.123233995737E-17));
#228 = ORIENTED_EDGE('',*,*,#229,.T.);
#229 = EDGE_CURVE('',#222,#230,#232,.T.);
#230 = VERTEX_POINT('',#231);
#231 = CARTESIAN_POINT('',(3.1,9.82568421935,8.));
#232 = LINE('',#233,#234);
#233 = CARTESIAN_POINT('',(4.06482303588,9.268643379864,8.));
#234 = VECTOR('',#235,1.);
#235 = DIRECTION('',(-0.866025403784,0.5,-6.123233995737E-17));
#236 = ORIENTED_EDGE('',*,*,#237,.T.);
#237 = EDGE_CURVE('',#230,#196,#238,.T.);
#238 = LINE('',#239,#240);
#239 = CARTESIAN_POINT('',(3.1,6.587157890325,8.));
#240 = VECTOR('',#241,1.);
#241 = DIRECTION('',(-5.304724652093E-16,1.,-1.224646799147E-16));
#242 = FACE_BOUND('',#243,.T.);
#243 = EDGE_LOOP('',(#244,#254,#262,#270,#278,#286));
#244 = ORIENTED_EDGE('',*,*,#245,.T.);
#245 = EDGE_CURVE('',#246,#248,#250,.T.);
#246 = VERTEX_POINT('',#247);
#247 = CARTESIAN_POINT('',(3.1,45.17431578065,8.));
#248 = VERTEX_POINT('',#249);
#249 = CARTESIAN_POINT('',(6.,46.8486315613,8.));
#250 = LINE('',#251,#252);
#251 = CARTESIAN_POINT('',(-6.393026266156,39.693514510461,8.));
#252 = VECTOR('',#253,1.);
#253 = DIRECTION('',(0.866025403784,0.5,-6.123233995737E-17));
#254 = ORIENTED_EDGE('',*,*,#255,.T.);
#255 = EDGE_CURVE('',#248,#256,#258,.T.);
#256 = VERTEX_POINT('',#257);
#257 = CARTESIAN_POINT('',(8.9,45.17431578065,8.));
#258 = LINE('',#259,#260);
#259 = CARTESIAN_POINT('',(15.343026266156,41.454432831489,8.));
#260 = VECTOR('',#261,1.);
#261 = DIRECTION('',(0.866025403784,-0.5,6.123233995737E-17));
#262 = ORIENTED_EDGE('',*,*,#263,.T.);
#263 = EDGE_CURVE('',#256,#264,#266,.T.);
#264 = VERTEX_POINT('',#265);
#265 = CARTESIAN_POINT('',(8.9,41.82568421935,8.));
#266 = LINE('',#267,#268);
#267 = CARTESIAN_POINT('',(8.9,20.912842109675,8.));
#268 = VECTOR('',#269,1.);
#269 = DIRECTION('',(0.,-1.,1.224646799147E-16));
#270 = ORIENTED_EDGE('',*,*,#271,.T.);
#271 = EDGE_CURVE('',#264,#272,#274,.T.);
#272 = VERTEX_POINT('',#273);
#273 = CARTESIAN_POINT('',(6.,40.1513684387,8.));
#274 = LINE('',#275,#276);
#275 = CARTESIAN_POINT('',(-4.943026266156,33.833409278186,8.));
#276 = VECTOR('',#277,1.);
#277 = DIRECTION('',(-0.866025403784,-0.5,6.123233995737E-17));
#278 = ORIENTED_EDGE('',*,*,#279,.T.);
#279 = EDGE_CURVE('',#272,#280,#282,.T.);
#280 = VERTEX_POINT('',#281);
#281 = CARTESIAN_POINT('',(3.1,41.82568421935,8.));
#282 = LINE('',#283,#284);
#283 = CARTESIAN_POINT('',(10.993026266156,37.268643379864,8.));
#284 = VECTOR('',#285,1.);
#285 = DIRECTION('',(-0.866025403784,0.5,-6.123233995737E-17));
#286 = ORIENTED_EDGE('',*,*,#287,.T.);
#287 = EDGE_CURVE('',#280,#246,#288,.T.);
#288 = LINE('',#289,#290);
#289 = CARTESIAN_POINT('',(3.1,22.587157890325,8.));
#290 = VECTOR('',#291,1.);
#291 = DIRECTION('',(-5.304724652093E-16,1.,-1.224646799147E-16));
#292 = PLANE('',#293);
#293 = AXIS2_PLACEMENT_3D('',#294,#295,#296);
#294 = CARTESIAN_POINT('',(0.,0.,8.));
#295 = DIRECTION('',(0.,-1.224646799147E-16,-1.));
#296 = DIRECTION('',(-1.,-0.,0.));
#297 = ADVANCED_FACE('',(#298,#304,#338),#372,.T.);
#298 = FACE_BOUND('',#299,.F.);
#299 = EDGE_LOOP('',(#300,#301,#302,#303));
#300 = ORIENTED_EDGE('',*,*,#78,.F.);
#301 = ORIENTED_EDGE('',*,*,#186,.T.);
#302 = ORIENTED_EDGE('',*,*,#159,.T.);
#303 = ORIENTED_EDGE('',*,*,#105,.F.);
#304 = FACE_BOUND('',#305,.F.);
#305 = EDGE_LOOP('',(#306,#316,#324,#332));
#306 = ORIENTED_EDGE('',*,*,#307,.T.);
#307 = EDGE_CURVE('',#308,#310,#312,.T.);
#308 = VERTEX_POINT('',#309);
#309 = CARTESIAN_POINT('',(12.,53.8,6.9));
#310 = VERTEX_POINT('',#311);
#311 = CARTESIAN_POINT('',(12.,51.2,6.9));
#312 = LINE('',#313,#314);
#313 = CARTESIAN_POINT('',(12.,25.6,6.9));
#314 = VECTOR('',#315,1.);
#315 = DIRECTION('',(0.,-1.,1.224646799147E-16));
#316 = ORIENTED_EDGE('',*,*,#317,.T.);
#317 = EDGE_CURVE('',#310,#318,#320,.T.);
#318 = VERTEX_POINT('',#319);
#319 = CARTESIAN_POINT('',(12.,51.2,1.1));
#320 = LINE('',#321,#322);
#321 = CARTESIAN_POINT('',(12.,51.2,7.45));
#322 = VECTOR('',#323,1.);
#323 = DIRECTION('',(0.,-1.224646799147E-16,-1.));
#324 = ORIENTED_EDGE('',*,*,#325,.F.);
#325 = EDGE_CURVE('',#326,#318,#328,.T.);
#326 = VERTEX_POINT('',#327);
#327 = CARTESIAN_POINT('',(12.,53.8,1.1));
#328 = LINE('',#329,#330);
#329 = CARTESIAN_POINT('',(12.,25.6,1.1));
#330 = VECTOR('',#331,1.);
#331 = DIRECTION('',(0.,-1.,1.224646799147E-16));
#332 = ORIENTED_EDGE('',*,*,#333,.F.);
#333 = EDGE_CURVE('',#308,#326,#334,.T.);
#334 = LINE('',#335,#336);
#335 = CARTESIAN_POINT('',(12.,53.8,7.45));
#336 = VECTOR('',#337,1.);
#337 = DIRECTION('',(0.,-1.224646799147E-16,-1.));
#338 = FACE_BOUND('',#339,.F.);
#339 = EDGE_LOOP('',(#340,#350,#358,#366));
#340 = ORIENTED_EDGE('',*,*,#341,.T.);
#341 = EDGE_CURVE('',#342,#344,#346,.T.);
#342 = VERTEX_POINT('',#343);
#343 = CARTESIAN_POINT('',(12.,3.8,6.9));
#344 = VERTEX_POINT('',#345);
#345 = CARTESIAN_POINT('',(12.,1.2,6.9));
#346 = LINE('',#347,#348);
#347 = CARTESIAN_POINT('',(12.,0.6,6.9));
#348 = VECTOR('',#349,1.);
#349 = DIRECTION('',(0.,-1.,1.224646799147E-16));
#350 = ORIENTED_EDGE('',*,*,#351,.T.);
#351 = EDGE_CURVE('',#344,#352,#354,.T.);
#352 = VERTEX_POINT('',#353);
#353 = CARTESIAN_POINT('',(12.,1.2,1.1));
#354 = LINE('',#355,#356);
#355 = CARTESIAN_POINT('',(12.,1.2,7.45));
#356 = VECTOR('',#357,1.);
#357 = DIRECTION('',(0.,-1.224646799147E-16,-1.));
#358 = ORIENTED_EDGE('',*,*,#359,.F.);
#359 = EDGE_CURVE('',#360,#352,#362,.T.);
#360 = VERTEX_POINT('',#361);
#361 = CARTESIAN_POINT('',(12.,3.8,1.1));
#362 = LINE('',#363,#364);
#363 = CARTESIAN_POINT('',(12.,0.6,1.1));
#364 = VECTOR('',#365,1.);
#365 = DIRECTION('',(0.,-1.,1.224646799147E-16));
#366 = ORIENTED_EDGE('',*,*,#367,.F.);
#367 = EDGE_CURVE('',#342,#360,#368,.T.);
#368 = LINE('',#369,#370);
#369 = CARTESIAN_POINT('',(12.,3.8,7.45));
#370 = VECTOR('',#371,1.);
#371 = DIRECTION('',(0.,-1.224646799147E-16,-1.));
#372 = PLANE('',#373);
#373 = AXIS2_PLACEMENT_3D('',#374,#375,#376);
#374 = CARTESIAN_POINT('',(12.,0.,8.));
#375 = DIRECTION('',(1.,0.,0.));
#376 = DIRECTION('',(0.,1.224646799147E-16,1.));
#377 = ADVANCED_FACE('',(#378),#397,.F.);
#378 = FACE_BOUND('',#379,.T.);
#379 = EDGE_LOOP('',(#380,#389,#395,#396));
#380 = ORIENTED_EDGE('',*,*,#381,.F.);
#381 = EDGE_CURVE('',#382,#382,#384,.T.);
#382 = VERTEX_POINT('',#383);
#383 = CARTESIAN_POINT('',(6.,1.2,2.25));
#384 = CIRCLE('',#385,1.75);
#385 = AXIS2_PLACEMENT_3D('',#386,#387,#388);
#386 = CARTESIAN_POINT('',(6.,1.2,4.));
#387 = DIRECTION('',(0.,-1.,1.224646799147E-16));
#388 = DIRECTION('',(0.,-1.224646799147E-16,-1.));
#389 = ORIENTED_EDGE('',*,*,#390,.F.);
#390 = EDGE_CURVE('',#87,#382,#391,.T.);
#391 = LINE('',#392,#393);
#392 = CARTESIAN_POINT('',(6.,-0.4,2.25));
#393 = VECTOR('',#394,1.);
#394 = DIRECTION('',(-0.,1.,-1.224646799147E-16));
#395 = ORIENTED_EDGE('',*,*,#86,.T.);
#396 = ORIENTED_EDGE('',*,*,#390,.T.);
#397 = CYLINDRICAL_SURFACE('',#398,1.75);
#398 = AXIS2_PLACEMENT_3D('',#399,#400,#401);
#399 = CARTESIAN_POINT('',(6.,-0.4,4.));
#400 = DIRECTION('',(-0.,1.,-1.224646799147E-16));
#401 = DIRECTION('',(0.,-1.224646799147E-16,-1.));
#402 = ADVANCED_FACE('',(#403),#422,.F.);
#403 = FACE_BOUND('',#404,.T.);
#404 = EDGE_LOOP('',(#405,#406,#414,#421));
#405 = ORIENTED_EDGE('',*,*,#121,.F.);
#406 = ORIENTED_EDGE('',*,*,#407,.F.);
#407 = EDGE_CURVE('',#408,#122,#410,.T.);
#408 = VERTEX_POINT('',#409);
#409 = CARTESIAN_POINT('',(7.75,11.5,5.4));
#410 = LINE('',#411,#412);
#411 = CARTESIAN_POINT('',(7.75,11.5,5.6));
#412 = VECTOR('',#413,1.);
#413 = DIRECTION('',(0.,-1.224646799147E-16,-1.));
#414 = ORIENTED_EDGE('',*,*,#415,.T.);
#415 = EDGE_CURVE('',#408,#408,#416,.T.);
#416 = CIRCLE('',#417,1.75);
#417 = AXIS2_PLACEMENT_3D('',#418,#419,#420);
#418 = CARTESIAN_POINT('',(6.,11.5,5.4));
#419 = DIRECTION('',(-0.,1.224646799147E-16,1.));
#420 = DIRECTION('',(1.,0.,0.));
#421 = ORIENTED_EDGE('',*,*,#407,.T.);
#422 = CYLINDRICAL_SURFACE('',#423,1.75);
#423 = AXIS2_PLACEMENT_3D('',#424,#425,#426);
#424 = CARTESIAN_POINT('',(6.,11.5,5.6));
#425 = DIRECTION('',(0.,-1.224646799147E-16,-1.));
#426 = DIRECTION('',(1.,0.,0.));
#427 = ADVANCED_FACE('',(#428),#447,.F.);
#428 = FACE_BOUND('',#429,.T.);
#429 = EDGE_LOOP('',(#430,#431,#439,#446));
#430 = ORIENTED_EDGE('',*,*,#132,.F.);
#431 = ORIENTED_EDGE('',*,*,#432,.F.);
#432 = EDGE_CURVE('',#433,#133,#435,.T.);
#433 = VERTEX_POINT('',#434);
#434 = CARTESIAN_POINT('',(7.65,43.5,5.4));
#435 = LINE('',#436,#437);
#436 = CARTESIAN_POINT('',(7.65,43.5,5.6));
#437 = VECTOR('',#438,1.);
#438 = DIRECTION('',(0.,-1.224646799147E-16,-1.));
#439 = ORIENTED_EDGE('',*,*,#440,.T.);
#440 = EDGE_CURVE('',#433,#433,#441,.T.);
#441 = CIRCLE('',#442,1.65);
#442 = AXIS2_PLACEMENT_3D('',#443,#444,#445);
#443 = CARTESIAN_POINT('',(6.,43.5,5.4));
#444 = DIRECTION('',(-0.,1.224646799147E-16,1.));
#445 = DIRECTION('',(1.,0.,0.));
#446 = ORIENTED_EDGE('',*,*,#432,.T.);
#447 = CYLINDRICAL_SURFACE('',#448,1.65);
#448 = AXIS2_PLACEMENT_3D('',#449,#450,#451);
#449 = CARTESIAN_POINT('',(6.,43.5,5.6));
#450 = DIRECTION('',(0.,-1.224646799147E-16,-1.));
#451 = DIRECTION('',(1.,0.,0.));
#452 = ADVANCED_FACE('',(#453),#472,.F.);
#453 = FACE_BOUND('',#454,.T.);
#454 = EDGE_LOOP('',(#455,#456,#464,#471));
#455 = ORIENTED_EDGE('',*,*,#167,.F.);
#456 = ORIENTED_EDGE('',*,*,#457,.F.);
#457 = EDGE_CURVE('',#458,#168,#460,.T.);
#458 = VERTEX_POINT('',#459);
#459 = CARTESIAN_POINT('',(6.,53.8,2.25));
#460 = LINE('',#461,#462);
#461 = CARTESIAN_POINT('',(6.,49.6,2.25));
#462 = VECTOR('',#463,1.);
#463 = DIRECTION('',(-0.,1.,-1.224646799147E-16));
#464 = ORIENTED_EDGE('',*,*,#465,.T.);
#465 = EDGE_CURVE('',#458,#458,#466,.T.);
#466 = CIRCLE('',#467,1.75);
#467 = AXIS2_PLACEMENT_3D('',#468,#469,#470);
#468 = CARTESIAN_POINT('',(6.,53.8,4.));
#469 = DIRECTION('',(0.,-1.,1.224646799147E-16));
#470 = DIRECTION('',(0.,-1.224646799147E-16,-1.));
#471 = ORIENTED_EDGE('',*,*,#457,.T.);
#472 = CYLINDRICAL_SURFACE('',#473,1.75);
#473 = AXIS2_PLACEMENT_3D('',#474,#475,#476);
#474 = CARTESIAN_POINT('',(6.,49.6,4.));
#475 = DIRECTION('',(-0.,1.,-1.224646799147E-16));
#476 = DIRECTION('',(0.,-1.224646799147E-16,-1.));
#477 = ADVANCED_FACE('',(#478),#503,.T.);
#478 = FACE_BOUND('',#479,.F.);
#479 = EDGE_LOOP('',(#480,#481,#489,#497));
#480 = ORIENTED_EDGE('',*,*,#195,.T.);
#481 = ORIENTED_EDGE('',*,*,#482,.T.);
#482 = EDGE_CURVE('',#198,#483,#485,.T.);
#483 = VERTEX_POINT('',#484);
#484 = CARTESIAN_POINT('',(6.,14.8486315613,5.4));
#485 = LINE('',#486,#487);
#486 = CARTESIAN_POINT('',(6.,14.8486315613,8.2));
#487 = VECTOR('',#488,1.);
#488 = DIRECTION('',(0.,-1.224646799147E-16,-1.));
#489 = ORIENTED_EDGE('',*,*,#490,.T.);
#490 = EDGE_CURVE('',#483,#491,#493,.T.);
#491 = VERTEX_POINT('',#492);
#492 = CARTESIAN_POINT('',(3.1,13.17431578065,5.4));
#493 = LINE('',#494,#495);
#494 = CARTESIAN_POINT('',(6.,14.8486315613,5.4));
#495 = VECTOR('',#496,1.);
#496 = DIRECTION('',(-0.866025403784,-0.5,6.123233995737E-17));
#497 = ORIENTED_EDGE('',*,*,#498,.F.);
#498 = EDGE_CURVE('',#196,#491,#499,.T.);
#499 = LINE('',#500,#501);
#500 = CARTESIAN_POINT('',(3.1,13.17431578065,8.2));
#501 = VECTOR('',#502,1.);
#502 = DIRECTION('',(0.,-1.224646799147E-16,-1.));
#503 = PLANE('',#504);
#504 = AXIS2_PLACEMENT_3D('',#505,#506,#507);
#505 = CARTESIAN_POINT('',(6.,14.8486315613,8.2));
#506 = DIRECTION('',(0.5,-0.866025403784,1.060575238725E-16));
#507 = DIRECTION('',(0.866025403784,0.5,-6.123233995737E-17));
#508 = ADVANCED_FACE('',(#509),#527,.T.);
#509 = FACE_BOUND('',#510,.F.);
#510 = EDGE_LOOP('',(#511,#512,#513,#521));
#511 = ORIENTED_EDGE('',*,*,#237,.T.);
#512 = ORIENTED_EDGE('',*,*,#498,.T.);
#513 = ORIENTED_EDGE('',*,*,#514,.T.);
#514 = EDGE_CURVE('',#491,#515,#517,.T.);
#515 = VERTEX_POINT('',#516);
#516 = CARTESIAN_POINT('',(3.1,9.82568421935,5.4));
#517 = LINE('',#518,#519);
#518 = CARTESIAN_POINT('',(3.1,13.17431578065,5.4));
#519 = VECTOR('',#520,1.);
#520 = DIRECTION('',(5.304724652093E-16,-1.,1.224646799147E-16));
#521 = ORIENTED_EDGE('',*,*,#522,.F.);
#522 = EDGE_CURVE('',#230,#515,#523,.T.);
#523 = LINE('',#524,#525);
#524 = CARTESIAN_POINT('',(3.1,9.82568421935,8.2));
#525 = VECTOR('',#526,1.);
#526 = DIRECTION('',(0.,-1.224646799147E-16,-1.));
#527 = PLANE('',#528);
#528 = AXIS2_PLACEMENT_3D('',#529,#530,#531);
#529 = CARTESIAN_POINT('',(3.1,13.17431578065,8.2));
#530 = DIRECTION('',(1.,5.304724652093E-16,-6.496414065543E-32));
#531 = DIRECTION('',(-5.304724652093E-16,1.,-1.224646799147E-16));
#532 = ADVANCED_FACE('',(#533),#551,.T.);
#533 = FACE_BOUND('',#534,.F.);
#534 = EDGE_LOOP('',(#535,#536,#537,#545));
#535 = ORIENTED_EDGE('',*,*,#229,.T.);
#536 = ORIENTED_EDGE('',*,*,#522,.T.);
#537 = ORIENTED_EDGE('',*,*,#538,.T.);
#538 = EDGE_CURVE('',#515,#539,#541,.T.);
#539 = VERTEX_POINT('',#540);
#540 = CARTESIAN_POINT('',(6.,8.1513684387,5.4));
#541 = LINE('',#542,#543);
#542 = CARTESIAN_POINT('',(3.1,9.82568421935,5.4));
#543 = VECTOR('',#544,1.);
#544 = DIRECTION('',(0.866025403784,-0.5,6.123233995737E-17));
#545 = ORIENTED_EDGE('',*,*,#546,.F.);
#546 = EDGE_CURVE('',#222,#539,#547,.T.);
#547 = LINE('',#548,#549);
#548 = CARTESIAN_POINT('',(6.,8.1513684387,8.2));
#549 = VECTOR('',#550,1.);
#550 = DIRECTION('',(0.,-1.224646799147E-16,-1.));
#551 = PLANE('',#552);
#552 = AXIS2_PLACEMENT_3D('',#553,#554,#555);
#553 = CARTESIAN_POINT('',(3.1,9.82568421935,8.2));
#554 = DIRECTION('',(0.5,0.866025403784,-1.060575238725E-16));
#555 = DIRECTION('',(-0.866025403784,0.5,-6.123233995737E-17));
#556 = ADVANCED_FACE('',(#557),#575,.T.);
#557 = FACE_BOUND('',#558,.F.);
#558 = EDGE_LOOP('',(#559,#560,#561,#569));
#559 = ORIENTED_EDGE('',*,*,#221,.T.);
#560 = ORIENTED_EDGE('',*,*,#546,.T.);
#561 = ORIENTED_EDGE('',*,*,#562,.T.);
#562 = EDGE_CURVE('',#539,#563,#565,.T.);
#563 = VERTEX_POINT('',#564);
#564 = CARTESIAN_POINT('',(8.9,9.82568421935,5.4));
#565 = LINE('',#566,#567);
#566 = CARTESIAN_POINT('',(6.,8.1513684387,5.4));
#567 = VECTOR('',#568,1.);
#568 = DIRECTION('',(0.866025403784,0.5,-6.123233995737E-17));
#569 = ORIENTED_EDGE('',*,*,#570,.F.);
#570 = EDGE_CURVE('',#214,#563,#571,.T.);
#571 = LINE('',#572,#573);
#572 = CARTESIAN_POINT('',(8.9,9.82568421935,8.2));
#573 = VECTOR('',#574,1.);
#574 = DIRECTION('',(0.,-1.224646799147E-16,-1.));
#575 = PLANE('',#576);
#576 = AXIS2_PLACEMENT_3D('',#577,#578,#579);
#577 = CARTESIAN_POINT('',(6.,8.1513684387,8.2));
#578 = DIRECTION('',(-0.5,0.866025403784,-1.060575238725E-16));
#579 = DIRECTION('',(-0.866025403784,-0.5,6.123233995737E-17));
#580 = ADVANCED_FACE('',(#581),#599,.T.);
#581 = FACE_BOUND('',#582,.F.);
#582 = EDGE_LOOP('',(#583,#584,#585,#593));
#583 = ORIENTED_EDGE('',*,*,#213,.T.);
#584 = ORIENTED_EDGE('',*,*,#570,.T.);
#585 = ORIENTED_EDGE('',*,*,#586,.T.);
#586 = EDGE_CURVE('',#563,#587,#589,.T.);
#587 = VERTEX_POINT('',#588);
#588 = CARTESIAN_POINT('',(8.9,13.17431578065,5.4));
#589 = LINE('',#590,#591);
#590 = CARTESIAN_POINT('',(8.9,9.82568421935,5.4));
#591 = VECTOR('',#592,1.);
#592 = DIRECTION('',(-0.,1.,-1.224646799147E-16));
#593 = ORIENTED_EDGE('',*,*,#594,.F.);
#594 = EDGE_CURVE('',#206,#587,#595,.T.);
#595 = LINE('',#596,#597);
#596 = CARTESIAN_POINT('',(8.9,13.17431578065,8.2));
#597 = VECTOR('',#598,1.);
#598 = DIRECTION('',(0.,-1.224646799147E-16,-1.));
#599 = PLANE('',#600);
#600 = AXIS2_PLACEMENT_3D('',#601,#602,#603);
#601 = CARTESIAN_POINT('',(8.9,9.82568421935,8.2));
#602 = DIRECTION('',(-1.,0.,0.));
#603 = DIRECTION('',(0.,-1.,1.224646799147E-16));
#604 = ADVANCED_FACE('',(#605),#616,.T.);
#605 = FACE_BOUND('',#606,.F.);
#606 = EDGE_LOOP('',(#607,#608,#609,#615));
#607 = ORIENTED_EDGE('',*,*,#205,.T.);
#608 = ORIENTED_EDGE('',*,*,#594,.T.);
#609 = ORIENTED_EDGE('',*,*,#610,.T.);
#610 = EDGE_CURVE('',#587,#483,#611,.T.);
#611 = LINE('',#612,#613);
#612 = CARTESIAN_POINT('',(8.9,13.17431578065,5.4));
#613 = VECTOR('',#614,1.);
#614 = DIRECTION('',(-0.866025403784,0.5,-6.123233995737E-17));
#615 = ORIENTED_EDGE('',*,*,#482,.F.);
#616 = PLANE('',#617);
#617 = AXIS2_PLACEMENT_3D('',#618,#619,#620);
#618 = CARTESIAN_POINT('',(8.9,13.17431578065,8.2));
#619 = DIRECTION('',(-0.5,-0.866025403784,1.060575238725E-16));
#620 = DIRECTION('',(0.866025403784,-0.5,6.123233995737E-17));
#621 = ADVANCED_FACE('',(#622),#647,.T.);
#622 = FACE_BOUND('',#623,.F.);
#623 = EDGE_LOOP('',(#624,#625,#633,#641));
#624 = ORIENTED_EDGE('',*,*,#245,.T.);
#625 = ORIENTED_EDGE('',*,*,#626,.T.);
#626 = EDGE_CURVE('',#248,#627,#629,.T.);
#627 = VERTEX_POINT('',#628);
#628 = CARTESIAN_POINT('',(6.,46.8486315613,5.4));
#629 = LINE('',#630,#631);
#630 = CARTESIAN_POINT('',(6.,46.8486315613,8.2));
#631 = VECTOR('',#632,1.);
#632 = DIRECTION('',(0.,-1.224646799147E-16,-1.));
#633 = ORIENTED_EDGE('',*,*,#634,.T.);
#634 = EDGE_CURVE('',#627,#635,#637,.T.);
#635 = VERTEX_POINT('',#636);
#636 = CARTESIAN_POINT('',(3.1,45.17431578065,5.4));
#637 = LINE('',#638,#639);
#638 = CARTESIAN_POINT('',(6.,46.8486315613,5.4));
#639 = VECTOR('',#640,1.);
#640 = DIRECTION('',(-0.866025403784,-0.5,6.123233995737E-17));
#641 = ORIENTED_EDGE('',*,*,#642,.F.);
#642 = EDGE_CURVE('',#246,#635,#643,.T.);
#643 = LINE('',#644,#645);
#644 = CARTESIAN_POINT('',(3.1,45.17431578065,8.2));
#645 = VECTOR('',#646,1.);
#646 = DIRECTION('',(0.,-1.224646799147E-16,-1.));
#647 = PLANE('',#648);
#648 = AXIS2_PLACEMENT_3D('',#649,#650,#651);
#649 = CARTESIAN_POINT('',(6.,46.8486315613,8.2));
#650 = DIRECTION('',(0.5,-0.866025403784,1.060575238725E-16));
#651 = DIRECTION('',(0.866025403784,0.5,-6.123233995737E-17));
#652 = ADVANCED_FACE('',(#653),#671,.T.);
#653 = FACE_BOUND('',#654,.F.);
#654 = EDGE_LOOP('',(#655,#656,#657,#665));
#655 = ORIENTED_EDGE('',*,*,#287,.T.);
#656 = ORIENTED_EDGE('',*,*,#642,.T.);
#657 = ORIENTED_EDGE('',*,*,#658,.T.);
#658 = EDGE_CURVE('',#635,#659,#661,.T.);
#659 = VERTEX_POINT('',#660);
#660 = CARTESIAN_POINT('',(3.1,41.82568421935,5.4));
#661 = LINE('',#662,#663);
#662 = CARTESIAN_POINT('',(3.1,45.17431578065,5.4));
#663 = VECTOR('',#664,1.);
#664 = DIRECTION('',(5.304724652093E-16,-1.,1.224646799147E-16));
#665 = ORIENTED_EDGE('',*,*,#666,.F.);
#666 = EDGE_CURVE('',#280,#659,#667,.T.);
#667 = LINE('',#668,#669);
#668 = CARTESIAN_POINT('',(3.1,41.82568421935,8.2));
#669 = VECTOR('',#670,1.);
#670 = DIRECTION('',(0.,-1.224646799147E-16,-1.));
#671 = PLANE('',#672);
#672 = AXIS2_PLACEMENT_3D('',#673,#674,#675);
#673 = CARTESIAN_POINT('',(3.1,45.17431578065,8.2));
#674 = DIRECTION('',(1.,5.304724652093E-16,-6.496414065543E-32));
#675 = DIRECTION('',(-5.304724652093E-16,1.,-1.224646799147E-16));
#676 = ADVANCED_FACE('',(#677),#695,.T.);
#677 = FACE_BOUND('',#678,.F.);
#678 = EDGE_LOOP('',(#679,#680,#688,#694));
#679 = ORIENTED_EDGE('',*,*,#255,.T.);
#680 = ORIENTED_EDGE('',*,*,#681,.T.);
#681 = EDGE_CURVE('',#256,#682,#684,.T.);
#682 = VERTEX_POINT('',#683);
#683 = CARTESIAN_POINT('',(8.9,45.17431578065,5.4));
#684 = LINE('',#685,#686);
#685 = CARTESIAN_POINT('',(8.9,45.17431578065,8.2));
#686 = VECTOR('',#687,1.);
#687 = DIRECTION('',(0.,-1.224646799147E-16,-1.));
#688 = ORIENTED_EDGE('',*,*,#689,.T.);
#689 = EDGE_CURVE('',#682,#627,#690,.T.);
#690 = LINE('',#691,#692);
#691 = CARTESIAN_POINT('',(8.9,45.17431578065,5.4));
#692 = VECTOR('',#693,1.);
#693 = DIRECTION('',(-0.866025403784,0.5,-6.123233995737E-17));
#694 = ORIENTED_EDGE('',*,*,#626,.F.);
#695 = PLANE('',#696);
#696 = AXIS2_PLACEMENT_3D('',#697,#698,#699);
#697 = CARTESIAN_POINT('',(8.9,45.17431578065,8.2));
#698 = DIRECTION('',(-0.5,-0.866025403784,1.060575238725E-16));
#699 = DIRECTION('',(0.866025403784,-0.5,6.123233995737E-17));
#700 = ADVANCED_FACE('',(#701),#719,.T.);
#701 = FACE_BOUND('',#702,.F.);
#702 = EDGE_LOOP('',(#703,#704,#705,#713));
#703 = ORIENTED_EDGE('',*,*,#279,.T.);
#704 = ORIENTED_EDGE('',*,*,#666,.T.);
#705 = ORIENTED_EDGE('',*,*,#706,.T.);
#706 = EDGE_CURVE('',#659,#707,#709,.T.);
#707 = VERTEX_POINT('',#708);
#708 = CARTESIAN_POINT('',(6.,40.1513684387,5.4));
#709 = LINE('',#710,#711);
#710 = CARTESIAN_POINT('',(3.1,41.82568421935,5.4));
#711 = VECTOR('',#712,1.);
#712 = DIRECTION('',(0.866025403784,-0.5,6.123233995737E-17));
#713 = ORIENTED_EDGE('',*,*,#714,.F.);
#714 = EDGE_CURVE('',#272,#707,#715,.T.);
#715 = LINE('',#716,#717);
#716 = CARTESIAN_POINT('',(6.,40.1513684387,8.2));
#717 = VECTOR('',#718,1.);
#718 = DIRECTION('',(0.,-1.224646799147E-16,-1.));
#719 = PLANE('',#720);
#720 = AXIS2_PLACEMENT_3D('',#721,#722,#723);
#721 = CARTESIAN_POINT('',(3.1,41.82568421935,8.2));
#722 = DIRECTION('',(0.5,0.866025403784,-1.060575238725E-16));
#723 = DIRECTION('',(-0.866025403784,0.5,-6.123233995737E-17));
#724 = ADVANCED_FACE('',(#725),#743,.T.);
#725 = FACE_BOUND('',#726,.F.);
#726 = EDGE_LOOP('',(#727,#728,#736,#742));
#727 = ORIENTED_EDGE('',*,*,#263,.T.);
#728 = ORIENTED_EDGE('',*,*,#729,.T.);
#729 = EDGE_CURVE('',#264,#730,#732,.T.);
#730 = VERTEX_POINT('',#731);
#731 = CARTESIAN_POINT('',(8.9,41.82568421935,5.4));
#732 = LINE('',#733,#734);
#733 = CARTESIAN_POINT('',(8.9,41.82568421935,8.2));
#734 = VECTOR('',#735,1.);
#735 = DIRECTION('',(0.,-1.224646799147E-16,-1.));
#736 = ORIENTED_EDGE('',*,*,#737,.T.);
#737 = EDGE_CURVE('',#730,#682,#738,.T.);
#738 = LINE('',#739,#740);
#739 = CARTESIAN_POINT('',(8.9,41.82568421935,5.4));
#740 = VECTOR('',#741,1.);
#741 = DIRECTION('',(-0.,1.,-1.224646799147E-16));
#742 = ORIENTED_EDGE('',*,*,#681,.F.);
#743 = PLANE('',#744);
#744 = AXIS2_PLACEMENT_3D('',#745,#746,#747);
#745 = CARTESIAN_POINT('',(8.9,41.82568421935,8.2));
#746 = DIRECTION('',(-1.,0.,0.));
#747 = DIRECTION('',(0.,-1.,1.224646799147E-16));
#748 = ADVANCED_FACE('',(#749),#760,.T.);
#749 = FACE_BOUND('',#750,.F.);
#750 = EDGE_LOOP('',(#751,#752,#753,#759));
#751 = ORIENTED_EDGE('',*,*,#271,.T.);
#752 = ORIENTED_EDGE('',*,*,#714,.T.);
#753 = ORIENTED_EDGE('',*,*,#754,.T.);
#754 = EDGE_CURVE('',#707,#730,#755,.T.);
#755 = LINE('',#756,#757);
#756 = CARTESIAN_POINT('',(6.,40.1513684387,5.4));
#757 = VECTOR('',#758,1.);
#758 = DIRECTION('',(0.866025403784,0.5,-6.123233995737E-17));
#759 = ORIENTED_EDGE('',*,*,#729,.F.);
#760 = PLANE('',#761);
#761 = AXIS2_PLACEMENT_3D('',#762,#763,#764);
#762 = CARTESIAN_POINT('',(6.,40.1513684387,8.2));
#763 = DIRECTION('',(-0.5,0.866025403784,-1.060575238725E-16));
#764 = DIRECTION('',(-0.866025403784,-0.5,6.123233995737E-17));
#765 = ADVANCED_FACE('',(#766),#791,.T.);
#766 = FACE_BOUND('',#767,.F.);
#767 = EDGE_LOOP('',(#768,#776,#784,#790));
#768 = ORIENTED_EDGE('',*,*,#769,.F.);
#769 = EDGE_CURVE('',#770,#308,#772,.T.);
#770 = VERTEX_POINT('',#771);
#771 = CARTESIAN_POINT('',(7.67431578065,53.8,6.9));
#772 = LINE('',#773,#774);
#773 = CARTESIAN_POINT('',(2.4513684387,53.8,6.9));
#774 = VECTOR('',#775,1.);
#775 = DIRECTION('',(1.,0.,0.));
#776 = ORIENTED_EDGE('',*,*,#777,.T.);
#777 = EDGE_CURVE('',#770,#778,#780,.T.);
#778 = VERTEX_POINT('',#779);
#779 = CARTESIAN_POINT('',(7.67431578065,51.2,6.9));
#780 = LINE('',#781,#782);
#781 = CARTESIAN_POINT('',(7.67431578065,53.8,6.9));
#782 = VECTOR('',#783,1.);
#783 = DIRECTION('',(0.,-1.,1.224646799147E-16));
#784 = ORIENTED_EDGE('',*,*,#785,.T.);
#785 = EDGE_CURVE('',#778,#310,#786,.T.);
#786 = LINE('',#787,#788);
#787 = CARTESIAN_POINT('',(2.4513684387,51.2,6.9));
#788 = VECTOR('',#789,1.);
#789 = DIRECTION('',(1.,0.,0.));
#790 = ORIENTED_EDGE('',*,*,#307,.F.);
#791 = PLANE('',#792);
#792 = AXIS2_PLACEMENT_3D('',#793,#794,#795);
#793 = CARTESIAN_POINT('',(2.4513684387,51.2,6.9));
#794 = DIRECTION('',(0.,-1.224646799147E-16,-1.));
#795 = DIRECTION('',(-1.,-0.,0.));
#796 = ADVANCED_FACE('',(#797),#823,.F.);
#797 = FACE_BOUND('',#798,.T.);
#798 = EDGE_LOOP('',(#799,#800,#808,#816,#822));
#799 = ORIENTED_EDGE('',*,*,#769,.F.);
#800 = ORIENTED_EDGE('',*,*,#801,.T.);
#801 = EDGE_CURVE('',#770,#802,#804,.T.);
#802 = VERTEX_POINT('',#803);
#803 = CARTESIAN_POINT('',(9.3486315613,53.8,4.));
#804 = LINE('',#805,#806);
#805 = CARTESIAN_POINT('',(7.67431578065,53.8,6.9));
#806 = VECTOR('',#807,1.);
#807 = DIRECTION('',(0.5,-1.060575238725E-16,-0.866025403784));
#808 = ORIENTED_EDGE('',*,*,#809,.T.);
#809 = EDGE_CURVE('',#802,#810,#812,.T.);
#810 = VERTEX_POINT('',#811);
#811 = CARTESIAN_POINT('',(7.67431578065,53.8,1.1));
#812 = LINE('',#813,#814);
#813 = CARTESIAN_POINT('',(9.3486315613,53.8,4.));
#814 = VECTOR('',#815,1.);
#815 = DIRECTION('',(-0.5,-1.060575238725E-16,-0.866025403784));
#816 = ORIENTED_EDGE('',*,*,#817,.T.);
#817 = EDGE_CURVE('',#810,#326,#818,.T.);
#818 = LINE('',#819,#820);
#819 = CARTESIAN_POINT('',(2.4513684387,53.8,1.1));
#820 = VECTOR('',#821,1.);
#821 = DIRECTION('',(1.,0.,0.));
#822 = ORIENTED_EDGE('',*,*,#333,.F.);
#823 = PLANE('',#824);
#824 = AXIS2_PLACEMENT_3D('',#825,#826,#827);
#825 = CARTESIAN_POINT('',(2.4513684387,53.8,6.9));
#826 = DIRECTION('',(-0.,1.,-1.224646799147E-16));
#827 = DIRECTION('',(0.,1.224646799147E-16,1.));
#828 = ADVANCED_FACE('',(#829),#847,.F.);
#829 = FACE_BOUND('',#830,.T.);
#830 = EDGE_LOOP('',(#831,#832,#840,#846));
#831 = ORIENTED_EDGE('',*,*,#817,.F.);
#832 = ORIENTED_EDGE('',*,*,#833,.T.);
#833 = EDGE_CURVE('',#810,#834,#836,.T.);
#834 = VERTEX_POINT('',#835);
#835 = CARTESIAN_POINT('',(7.67431578065,51.2,1.1));
#836 = LINE('',#837,#838);
#837 = CARTESIAN_POINT('',(7.67431578065,53.8,1.1));
#838 = VECTOR('',#839,1.);
#839 = DIRECTION('',(0.,-1.,1.224646799147E-16));
#840 = ORIENTED_EDGE('',*,*,#841,.T.);
#841 = EDGE_CURVE('',#834,#318,#842,.T.);
#842 = LINE('',#843,#844);
#843 = CARTESIAN_POINT('',(2.4513684387,51.2,1.1));
#844 = VECTOR('',#845,1.);
#845 = DIRECTION('',(1.,0.,0.));
#846 = ORIENTED_EDGE('',*,*,#325,.F.);
#847 = PLANE('',#848);
#848 = AXIS2_PLACEMENT_3D('',#849,#850,#851);
#849 = CARTESIAN_POINT('',(2.4513684387,51.2,1.1));
#850 = DIRECTION('',(0.,-1.224646799147E-16,-1.));
#851 = DIRECTION('',(-1.,-0.,0.));
#852 = ADVANCED_FACE('',(#853),#872,.T.);
#853 = FACE_BOUND('',#854,.F.);
#854 = EDGE_LOOP('',(#855,#856,#864,#870,#871));
#855 = ORIENTED_EDGE('',*,*,#785,.F.);
#856 = ORIENTED_EDGE('',*,*,#857,.T.);
#857 = EDGE_CURVE('',#778,#858,#860,.T.);
#858 = VERTEX_POINT('',#859);
#859 = CARTESIAN_POINT('',(9.3486315613,51.2,4.));
#860 = LINE('',#861,#862);
#861 = CARTESIAN_POINT('',(7.67431578065,51.2,6.9));
#862 = VECTOR('',#863,1.);
#863 = DIRECTION('',(0.5,-1.060575238725E-16,-0.866025403784));
#864 = ORIENTED_EDGE('',*,*,#865,.T.);
#865 = EDGE_CURVE('',#858,#834,#866,.T.);
#866 = LINE('',#867,#868);
#867 = CARTESIAN_POINT('',(9.3486315613,51.2,4.));
#868 = VECTOR('',#869,1.);
#869 = DIRECTION('',(-0.5,-1.060575238725E-16,-0.866025403784));
#870 = ORIENTED_EDGE('',*,*,#841,.T.);
#871 = ORIENTED_EDGE('',*,*,#317,.F.);
#872 = PLANE('',#873);
#873 = AXIS2_PLACEMENT_3D('',#874,#875,#876);
#874 = CARTESIAN_POINT('',(2.4513684387,51.2,6.9));
#875 = DIRECTION('',(-0.,1.,-1.224646799147E-16));
#876 = DIRECTION('',(0.,1.224646799147E-16,1.));
#877 = ADVANCED_FACE('',(#878),#903,.T.);
#878 = FACE_BOUND('',#879,.F.);
#879 = EDGE_LOOP('',(#880,#888,#896,#902));
#880 = ORIENTED_EDGE('',*,*,#881,.F.);
#881 = EDGE_CURVE('',#882,#342,#884,.T.);
#882 = VERTEX_POINT('',#883);
#883 = CARTESIAN_POINT('',(7.67431578065,3.8,6.9));
#884 = LINE('',#885,#886);
#885 = CARTESIAN_POINT('',(2.4513684387,3.8,6.9));
#886 = VECTOR('',#887,1.);
#887 = DIRECTION('',(1.,0.,0.));
#888 = ORIENTED_EDGE('',*,*,#889,.F.);
#889 = EDGE_CURVE('',#890,#882,#892,.T.);
#890 = VERTEX_POINT('',#891);
#891 = CARTESIAN_POINT('',(7.67431578065,1.2,6.9));
#892 = LINE('',#893,#894);
#893 = CARTESIAN_POINT('',(7.67431578065,1.2,6.9));
#894 = VECTOR('',#895,1.);
#895 = DIRECTION('',(-0.,1.,-1.224646799147E-16));
#896 = ORIENTED_EDGE('',*,*,#897,.T.);
#897 = EDGE_CURVE('',#890,#344,#898,.T.);
#898 = LINE('',#899,#900);
#899 = CARTESIAN_POINT('',(2.4513684387,1.2,6.9));
#900 = VECTOR('',#901,1.);
#901 = DIRECTION('',(1.,0.,0.));
#902 = ORIENTED_EDGE('',*,*,#341,.F.);
#903 = PLANE('',#904);
#904 = AXIS2_PLACEMENT_3D('',#905,#906,#907);
#905 = CARTESIAN_POINT('',(2.4513684387,1.2,6.9));
#906 = DIRECTION('',(0.,-1.224646799147E-16,-1.));
#907 = DIRECTION('',(-1.,-0.,0.));
#908 = ADVANCED_FACE('',(#909),#935,.F.);
#909 = FACE_BOUND('',#910,.T.);
#910 = EDGE_LOOP('',(#911,#912,#920,#928,#934));
#911 = ORIENTED_EDGE('',*,*,#881,.F.);
#912 = ORIENTED_EDGE('',*,*,#913,.F.);
#913 = EDGE_CURVE('',#914,#882,#916,.T.);
#914 = VERTEX_POINT('',#915);
#915 = CARTESIAN_POINT('',(9.3486315613,3.8,4.));
#916 = LINE('',#917,#918);
#917 = CARTESIAN_POINT('',(9.3486315613,3.8,4.));
#918 = VECTOR('',#919,1.);
#919 = DIRECTION('',(-0.5,1.060575238725E-16,0.866025403784));
#920 = ORIENTED_EDGE('',*,*,#921,.F.);
#921 = EDGE_CURVE('',#922,#914,#924,.T.);
#922 = VERTEX_POINT('',#923);
#923 = CARTESIAN_POINT('',(7.67431578065,3.8,1.1));
#924 = LINE('',#925,#926);
#925 = CARTESIAN_POINT('',(7.67431578065,3.8,1.1));
#926 = VECTOR('',#927,1.);
#927 = DIRECTION('',(0.5,1.060575238725E-16,0.866025403784));
#928 = ORIENTED_EDGE('',*,*,#929,.T.);
#929 = EDGE_CURVE('',#922,#360,#930,.T.);
#930 = LINE('',#931,#932);
#931 = CARTESIAN_POINT('',(2.4513684387,3.8,1.1));
#932 = VECTOR('',#933,1.);
#933 = DIRECTION('',(1.,0.,0.));
#934 = ORIENTED_EDGE('',*,*,#367,.F.);
#935 = PLANE('',#936);
#936 = AXIS2_PLACEMENT_3D('',#937,#938,#939);
#937 = CARTESIAN_POINT('',(2.4513684387,3.8,6.9));
#938 = DIRECTION('',(-0.,1.,-1.224646799147E-16));
#939 = DIRECTION('',(0.,1.224646799147E-16,1.));
#940 = ADVANCED_FACE('',(#941),#967,.T.);
#941 = FACE_BOUND('',#942,.F.);
#942 = EDGE_LOOP('',(#943,#944,#952,#960,#966));
#943 = ORIENTED_EDGE('',*,*,#897,.F.);
#944 = ORIENTED_EDGE('',*,*,#945,.F.);
#945 = EDGE_CURVE('',#946,#890,#948,.T.);
#946 = VERTEX_POINT('',#947);
#947 = CARTESIAN_POINT('',(9.3486315613,1.2,4.));
#948 = LINE('',#949,#950);
#949 = CARTESIAN_POINT('',(9.3486315613,1.2,4.));
#950 = VECTOR('',#951,1.);
#951 = DIRECTION('',(-0.5,1.060575238725E-16,0.866025403784));
#952 = ORIENTED_EDGE('',*,*,#953,.F.);
#953 = EDGE_CURVE('',#954,#946,#956,.T.);
#954 = VERTEX_POINT('',#955);
#955 = CARTESIAN_POINT('',(7.67431578065,1.2,1.1));
#956 = LINE('',#957,#958);
#957 = CARTESIAN_POINT('',(7.67431578065,1.2,1.1));
#958 = VECTOR('',#959,1.);
#959 = DIRECTION('',(0.5,1.060575238725E-16,0.866025403784));
#960 = ORIENTED_EDGE('',*,*,#961,.T.);
#961 = EDGE_CURVE('',#954,#352,#962,.T.);
#962 = LINE('',#963,#964);
#963 = CARTESIAN_POINT('',(2.4513684387,1.2,1.1));
#964 = VECTOR('',#965,1.);
#965 = DIRECTION('',(1.,0.,0.));
#966 = ORIENTED_EDGE('',*,*,#351,.F.);
#967 = PLANE('',#968);
#968 = AXIS2_PLACEMENT_3D('',#969,#970,#971);
#969 = CARTESIAN_POINT('',(2.4513684387,1.2,6.9));
#970 = DIRECTION('',(-0.,1.,-1.224646799147E-16));
#971 = DIRECTION('',(0.,1.224646799147E-16,1.));
#972 = ADVANCED_FACE('',(#973),#984,.F.);
#973 = FACE_BOUND('',#974,.T.);
#974 = EDGE_LOOP('',(#975,#976,#982,#983));
#975 = ORIENTED_EDGE('',*,*,#929,.F.);
#976 = ORIENTED_EDGE('',*,*,#977,.F.);
#977 = EDGE_CURVE('',#954,#922,#978,.T.);
#978 = LINE('',#979,#980);
#979 = CARTESIAN_POINT('',(7.67431578065,1.2,1.1));
#980 = VECTOR('',#981,1.);
#981 = DIRECTION('',(-0.,1.,-1.224646799147E-16));
#982 = ORIENTED_EDGE('',*,*,#961,.T.);
#983 = ORIENTED_EDGE('',*,*,#359,.F.);
#984 = PLANE('',#985);
#985 = AXIS2_PLACEMENT_3D('',#986,#987,#988);
#986 = CARTESIAN_POINT('',(2.4513684387,1.2,1.1));
#987 = DIRECTION('',(0.,-1.224646799147E-16,-1.));
#988 = DIRECTION('',(-1.,-0.,0.));
#989 = ADVANCED_FACE('',(#990,#1024),#1027,.T.);
#990 = FACE_BOUND('',#991,.F.);
#991 = EDGE_LOOP('',(#992,#1000,#1001,#1002,#1010,#1018));
#992 = ORIENTED_EDGE('',*,*,#993,.T.);
#993 = EDGE_CURVE('',#994,#954,#996,.T.);
#994 = VERTEX_POINT('',#995);
#995 = CARTESIAN_POINT('',(4.32568421935,1.2,1.1));
#996 = LINE('',#997,#998);
#997 = CARTESIAN_POINT('',(4.32568421935,1.2,1.1));
#998 = VECTOR('',#999,1.);
#999 = DIRECTION('',(1.,-6.496414065543E-32,-5.304724652093E-16));
#1000 = ORIENTED_EDGE('',*,*,#953,.T.);
#1001 = ORIENTED_EDGE('',*,*,#945,.T.);
#1002 = ORIENTED_EDGE('',*,*,#1003,.T.);
#1003 = EDGE_CURVE('',#890,#1004,#1006,.T.);
#1004 = VERTEX_POINT('',#1005);
#1005 = CARTESIAN_POINT('',(4.32568421935,1.2,6.9));
#1006 = LINE('',#1007,#1008);
#1007 = CARTESIAN_POINT('',(7.67431578065,1.2,6.9));
#1008 = VECTOR('',#1009,1.);
#1009 = DIRECTION('',(-1.,1.624103516386E-32,1.326181163023E-16));
#1010 = ORIENTED_EDGE('',*,*,#1011,.T.);
#1011 = EDGE_CURVE('',#1004,#1012,#1014,.T.);
#1012 = VERTEX_POINT('',#1013);
#1013 = CARTESIAN_POINT('',(2.6513684387,1.2,4.));
#1014 = LINE('',#1015,#1016);
#1015 = CARTESIAN_POINT('',(4.32568421935,1.2,6.9));
#1016 = VECTOR('',#1017,1.);
#1017 = DIRECTION('',(-0.5,-1.060575238725E-16,-0.866025403784));
#1018 = ORIENTED_EDGE('',*,*,#1019,.T.);
#1019 = EDGE_CURVE('',#1012,#994,#1020,.T.);
#1020 = LINE('',#1021,#1022);
#1021 = CARTESIAN_POINT('',(2.6513684387,1.2,4.));
#1022 = VECTOR('',#1023,1.);
#1023 = DIRECTION('',(0.5,-1.060575238725E-16,-0.866025403784));
#1024 = FACE_BOUND('',#1025,.F.);
#1025 = EDGE_LOOP('',(#1026));
#1026 = ORIENTED_EDGE('',*,*,#381,.F.);
#1027 = PLANE('',#1028);
#1028 = AXIS2_PLACEMENT_3D('',#1029,#1030,#1031);
#1029 = CARTESIAN_POINT('',(6.,1.2,4.));
#1030 = DIRECTION('',(-0.,1.,-1.224646799147E-16));
#1031 = DIRECTION('',(0.,1.224646799147E-16,1.));
#1032 = ADVANCED_FACE('',(#1033,#1041),#1044,.F.);
#1033 = FACE_BOUND('',#1034,.T.);
#1034 = EDGE_LOOP('',(#1035,#1036,#1037,#1038,#1039,#1040));
#1035 = ORIENTED_EDGE('',*,*,#610,.T.);
#1036 = ORIENTED_EDGE('',*,*,#490,.T.);
#1037 = ORIENTED_EDGE('',*,*,#514,.T.);
#1038 = ORIENTED_EDGE('',*,*,#538,.T.);
#1039 = ORIENTED_EDGE('',*,*,#562,.T.);
#1040 = ORIENTED_EDGE('',*,*,#586,.T.);
#1041 = FACE_BOUND('',#1042,.T.);
#1042 = EDGE_LOOP('',(#1043));
#1043 = ORIENTED_EDGE('',*,*,#415,.F.);
#1044 = PLANE('',#1045);
#1045 = AXIS2_PLACEMENT_3D('',#1046,#1047,#1048);
#1046 = CARTESIAN_POINT('',(6.,11.5,5.4));
#1047 = DIRECTION('',(0.,-1.224646799147E-16,-1.));
#1048 = DIRECTION('',(-1.,-0.,0.));
#1049 = ADVANCED_FACE('',(#1050,#1058),#1061,.F.);
#1050 = FACE_BOUND('',#1051,.T.);
#1051 = EDGE_LOOP('',(#1052,#1053,#1054,#1055,#1056,#1057));
#1052 = ORIENTED_EDGE('',*,*,#689,.T.);
#1053 = ORIENTED_EDGE('',*,*,#634,.T.);
#1054 = ORIENTED_EDGE('',*,*,#658,.T.);
#1055 = ORIENTED_EDGE('',*,*,#706,.T.);
#1056 = ORIENTED_EDGE('',*,*,#754,.T.);
#1057 = ORIENTED_EDGE('',*,*,#737,.T.);
#1058 = FACE_BOUND('',#1059,.T.);
#1059 = EDGE_LOOP('',(#1060));
#1060 = ORIENTED_EDGE('',*,*,#440,.F.);
#1061 = PLANE('',#1062);
#1062 = AXIS2_PLACEMENT_3D('',#1063,#1064,#1065);
#1063 = CARTESIAN_POINT('',(6.,43.5,5.4));
#1064 = DIRECTION('',(0.,-1.224646799147E-16,-1.));
#1065 = DIRECTION('',(-1.,-0.,0.));
#1066 = ADVANCED_FACE('',(#1067,#1101),#1104,.T.);
#1067 = FACE_BOUND('',#1068,.F.);
#1068 = EDGE_LOOP('',(#1069,#1077,#1085,#1093,#1099,#1100));
#1069 = ORIENTED_EDGE('',*,*,#1070,.T.);
#1070 = EDGE_CURVE('',#810,#1071,#1073,.T.);
#1071 = VERTEX_POINT('',#1072);
#1072 = CARTESIAN_POINT('',(4.32568421935,53.8,1.1));
#1073 = LINE('',#1074,#1075);
#1074 = CARTESIAN_POINT('',(7.67431578065,53.8,1.1));
#1075 = VECTOR('',#1076,1.);
#1076 = DIRECTION('',(-1.,-6.496414065543E-32,-5.304724652093E-16));
#1077 = ORIENTED_EDGE('',*,*,#1078,.T.);
#1078 = EDGE_CURVE('',#1071,#1079,#1081,.T.);
#1079 = VERTEX_POINT('',#1080);
#1080 = CARTESIAN_POINT('',(2.6513684387,53.8,4.));
#1081 = LINE('',#1082,#1083);
#1082 = CARTESIAN_POINT('',(4.32568421935,53.8,1.1));
#1083 = VECTOR('',#1084,1.);
#1084 = DIRECTION('',(-0.5,1.060575238725E-16,0.866025403784));
#1085 = ORIENTED_EDGE('',*,*,#1086,.T.);
#1086 = EDGE_CURVE('',#1079,#1087,#1089,.T.);
#1087 = VERTEX_POINT('',#1088);
#1088 = CARTESIAN_POINT('',(4.32568421935,53.8,6.9));
#1089 = LINE('',#1090,#1091);
#1090 = CARTESIAN_POINT('',(2.6513684387,53.8,4.));
#1091 = VECTOR('',#1092,1.);
#1092 = DIRECTION('',(0.5,1.060575238725E-16,0.866025403784));
#1093 = ORIENTED_EDGE('',*,*,#1094,.T.);
#1094 = EDGE_CURVE('',#1087,#770,#1095,.T.);
#1095 = LINE('',#1096,#1097);
#1096 = CARTESIAN_POINT('',(4.32568421935,53.8,6.9));
#1097 = VECTOR('',#1098,1.);
#1098 = DIRECTION('',(1.,1.624103516386E-32,1.326181163023E-16));
#1099 = ORIENTED_EDGE('',*,*,#801,.T.);
#1100 = ORIENTED_EDGE('',*,*,#809,.T.);
#1101 = FACE_BOUND('',#1102,.F.);
#1102 = EDGE_LOOP('',(#1103));
#1103 = ORIENTED_EDGE('',*,*,#465,.T.);
#1104 = PLANE('',#1105);
#1105 = AXIS2_PLACEMENT_3D('',#1106,#1107,#1108);
#1106 = CARTESIAN_POINT('',(6.,53.8,4.));
#1107 = DIRECTION('',(0.,-1.,1.224646799147E-16));
#1108 = DIRECTION('',(0.,-1.224646799147E-16,-1.));
#1109 = ADVANCED_FACE('',(#1110),#1128,.T.);
#1110 = FACE_BOUND('',#1111,.F.);
#1111 = EDGE_LOOP('',(#1112,#1120,#1126,#1127));
#1112 = ORIENTED_EDGE('',*,*,#1113,.T.);
#1113 = EDGE_CURVE('',#1087,#1114,#1116,.T.);
#1114 = VERTEX_POINT('',#1115);
#1115 = CARTESIAN_POINT('',(4.32568421935,51.2,6.9));
#1116 = LINE('',#1117,#1118);
#1117 = CARTESIAN_POINT('',(4.32568421935,53.8,6.9));
#1118 = VECTOR('',#1119,1.);
#1119 = DIRECTION('',(0.,-1.,1.224646799147E-16));
#1120 = ORIENTED_EDGE('',*,*,#1121,.T.);
#1121 = EDGE_CURVE('',#1114,#778,#1122,.T.);
#1122 = LINE('',#1123,#1124);
#1123 = CARTESIAN_POINT('',(4.32568421935,51.2,6.9));
#1124 = VECTOR('',#1125,1.);
#1125 = DIRECTION('',(1.,1.624103516386E-32,1.326181163023E-16));
#1126 = ORIENTED_EDGE('',*,*,#777,.F.);
#1127 = ORIENTED_EDGE('',*,*,#1094,.F.);
#1128 = PLANE('',#1129);
#1129 = AXIS2_PLACEMENT_3D('',#1130,#1131,#1132);
#1130 = CARTESIAN_POINT('',(4.32568421935,53.8,6.9));
#1131 = DIRECTION('',(1.326181163023E-16,-1.224646799147E-16,-1.));
#1132 = DIRECTION('',(-1.,-1.624103516386E-32,-1.326181163023E-16));
#1133 = ADVANCED_FACE('',(#1134),#1152,.T.);
#1134 = FACE_BOUND('',#1135,.F.);
#1135 = EDGE_LOOP('',(#1136,#1137,#1145,#1151));
#1136 = ORIENTED_EDGE('',*,*,#833,.T.);
#1137 = ORIENTED_EDGE('',*,*,#1138,.T.);
#1138 = EDGE_CURVE('',#834,#1139,#1141,.T.);
#1139 = VERTEX_POINT('',#1140);
#1140 = CARTESIAN_POINT('',(4.32568421935,51.2,1.1));
#1141 = LINE('',#1142,#1143);
#1142 = CARTESIAN_POINT('',(7.67431578065,51.2,1.1));
#1143 = VECTOR('',#1144,1.);
#1144 = DIRECTION('',(-1.,-6.496414065543E-32,-5.304724652093E-16));
#1145 = ORIENTED_EDGE('',*,*,#1146,.F.);
#1146 = EDGE_CURVE('',#1071,#1139,#1147,.T.);
#1147 = LINE('',#1148,#1149);
#1148 = CARTESIAN_POINT('',(4.32568421935,53.8,1.1));
#1149 = VECTOR('',#1150,1.);
#1150 = DIRECTION('',(0.,-1.,1.224646799147E-16));
#1151 = ORIENTED_EDGE('',*,*,#1070,.F.);
#1152 = PLANE('',#1153);
#1153 = AXIS2_PLACEMENT_3D('',#1154,#1155,#1156);
#1154 = CARTESIAN_POINT('',(7.67431578065,53.8,1.1));
#1155 = DIRECTION('',(-5.304724652093E-16,1.224646799147E-16,1.));
#1156 = DIRECTION('',(1.,6.496414065543E-32,5.304724652093E-16));
#1157 = ADVANCED_FACE('',(#1158,#1178),#1189,.F.);
#1158 = FACE_BOUND('',#1159,.T.);
#1159 = EDGE_LOOP('',(#1160,#1161,#1169,#1175,#1176,#1177));
#1160 = ORIENTED_EDGE('',*,*,#1138,.T.);
#1161 = ORIENTED_EDGE('',*,*,#1162,.T.);
#1162 = EDGE_CURVE('',#1139,#1163,#1165,.T.);
#1163 = VERTEX_POINT('',#1164);
#1164 = CARTESIAN_POINT('',(2.6513684387,51.2,4.));
#1165 = LINE('',#1166,#1167);
#1166 = CARTESIAN_POINT('',(4.32568421935,51.2,1.1));
#1167 = VECTOR('',#1168,1.);
#1168 = DIRECTION('',(-0.5,1.060575238725E-16,0.866025403784));
#1169 = ORIENTED_EDGE('',*,*,#1170,.T.);
#1170 = EDGE_CURVE('',#1163,#1114,#1171,.T.);
#1171 = LINE('',#1172,#1173);
#1172 = CARTESIAN_POINT('',(2.6513684387,51.2,4.));
#1173 = VECTOR('',#1174,1.);
#1174 = DIRECTION('',(0.5,1.060575238725E-16,0.866025403784));
#1175 = ORIENTED_EDGE('',*,*,#1121,.T.);
#1176 = ORIENTED_EDGE('',*,*,#857,.T.);
#1177 = ORIENTED_EDGE('',*,*,#865,.T.);
#1178 = FACE_BOUND('',#1179,.T.);
#1179 = EDGE_LOOP('',(#1180));
#1180 = ORIENTED_EDGE('',*,*,#1181,.T.);
#1181 = EDGE_CURVE('',#1182,#1182,#1184,.T.);
#1182 = VERTEX_POINT('',#1183);
#1183 = CARTESIAN_POINT('',(6.,51.2,2.25));
#1184 = CIRCLE('',#1185,1.75);
#1185 = AXIS2_PLACEMENT_3D('',#1186,#1187,#1188);
#1186 = CARTESIAN_POINT('',(6.,51.2,4.));
#1187 = DIRECTION('',(0.,-1.,1.224646799147E-16));
#1188 = DIRECTION('',(0.,-1.224646799147E-16,-1.));
#1189 = PLANE('',#1190);
#1190 = AXIS2_PLACEMENT_3D('',#1191,#1192,#1193);
#1191 = CARTESIAN_POINT('',(6.,51.2,4.));
#1192 = DIRECTION('',(0.,-1.,1.224646799147E-16));
#1193 = DIRECTION('',(0.,-1.224646799147E-16,-1.));
#1194 = ADVANCED_FACE('',(#1195),#1213,.T.);
#1195 = FACE_BOUND('',#1196,.F.);
#1196 = EDGE_LOOP('',(#1197,#1198,#1206,#1212));
#1197 = ORIENTED_EDGE('',*,*,#889,.T.);
#1198 = ORIENTED_EDGE('',*,*,#1199,.T.);
#1199 = EDGE_CURVE('',#882,#1200,#1202,.T.);
#1200 = VERTEX_POINT('',#1201);
#1201 = CARTESIAN_POINT('',(4.32568421935,3.8,6.9));
#1202 = LINE('',#1203,#1204);
#1203 = CARTESIAN_POINT('',(7.67431578065,3.8,6.9));
#1204 = VECTOR('',#1205,1.);
#1205 = DIRECTION('',(-1.,1.624103516386E-32,1.326181163023E-16));
#1206 = ORIENTED_EDGE('',*,*,#1207,.F.);
#1207 = EDGE_CURVE('',#1004,#1200,#1208,.T.);
#1208 = LINE('',#1209,#1210);
#1209 = CARTESIAN_POINT('',(4.32568421935,1.2,6.9));
#1210 = VECTOR('',#1211,1.);
#1211 = DIRECTION('',(-0.,1.,-1.224646799147E-16));
#1212 = ORIENTED_EDGE('',*,*,#1003,.F.);
#1213 = PLANE('',#1214);
#1214 = AXIS2_PLACEMENT_3D('',#1215,#1216,#1217);
#1215 = CARTESIAN_POINT('',(7.67431578065,1.2,6.9));
#1216 = DIRECTION('',(-1.326181163023E-16,-1.224646799147E-16,-1.));
#1217 = DIRECTION('',(1.,-1.624103516386E-32,-1.326181163023E-16));
#1218 = ADVANCED_FACE('',(#1219,#1246),#1257,.F.);
#1219 = FACE_BOUND('',#1220,.T.);
#1220 = EDGE_LOOP('',(#1221,#1229,#1230,#1231,#1232,#1240));
#1221 = ORIENTED_EDGE('',*,*,#1222,.T.);
#1222 = EDGE_CURVE('',#1223,#922,#1225,.T.);
#1223 = VERTEX_POINT('',#1224);
#1224 = CARTESIAN_POINT('',(4.32568421935,3.8,1.1));
#1225 = LINE('',#1226,#1227);
#1226 = CARTESIAN_POINT('',(4.32568421935,3.8,1.1));
#1227 = VECTOR('',#1228,1.);
#1228 = DIRECTION('',(1.,-6.496414065543E-32,-5.304724652093E-16));
#1229 = ORIENTED_EDGE('',*,*,#921,.T.);
#1230 = ORIENTED_EDGE('',*,*,#913,.T.);
#1231 = ORIENTED_EDGE('',*,*,#1199,.T.);
#1232 = ORIENTED_EDGE('',*,*,#1233,.T.);
#1233 = EDGE_CURVE('',#1200,#1234,#1236,.T.);
#1234 = VERTEX_POINT('',#1235);
#1235 = CARTESIAN_POINT('',(2.6513684387,3.8,4.));
#1236 = LINE('',#1237,#1238);
#1237 = CARTESIAN_POINT('',(4.32568421935,3.8,6.9));
#1238 = VECTOR('',#1239,1.);
#1239 = DIRECTION('',(-0.5,-1.060575238725E-16,-0.866025403784));
#1240 = ORIENTED_EDGE('',*,*,#1241,.T.);
#1241 = EDGE_CURVE('',#1234,#1223,#1242,.T.);
#1242 = LINE('',#1243,#1244);
#1243 = CARTESIAN_POINT('',(2.6513684387,3.8,4.));
#1244 = VECTOR('',#1245,1.);
#1245 = DIRECTION('',(0.5,-1.060575238725E-16,-0.866025403784));
#1246 = FACE_BOUND('',#1247,.T.);
#1247 = EDGE_LOOP('',(#1248));
#1248 = ORIENTED_EDGE('',*,*,#1249,.F.);
#1249 = EDGE_CURVE('',#1250,#1250,#1252,.T.);
#1250 = VERTEX_POINT('',#1251);
#1251 = CARTESIAN_POINT('',(6.,3.8,2.25));
#1252 = CIRCLE('',#1253,1.75);
#1253 = AXIS2_PLACEMENT_3D('',#1254,#1255,#1256);
#1254 = CARTESIAN_POINT('',(6.,3.8,4.));
#1255 = DIRECTION('',(0.,-1.,1.224646799147E-16));
#1256 = DIRECTION('',(0.,-1.224646799147E-16,-1.));
#1257 = PLANE('',#1258);
#1258 = AXIS2_PLACEMENT_3D('',#1259,#1260,#1261);
#1259 = CARTESIAN_POINT('',(6.,3.8,4.));
#1260 = DIRECTION('',(-0.,1.,-1.224646799147E-16));
#1261 = DIRECTION('',(0.,1.224646799147E-16,1.));
#1262 = ADVANCED_FACE('',(#1263),#1274,.T.);
#1263 = FACE_BOUND('',#1264,.F.);
#1264 = EDGE_LOOP('',(#1265,#1271,#1272,#1273));
#1265 = ORIENTED_EDGE('',*,*,#1266,.T.);
#1266 = EDGE_CURVE('',#994,#1223,#1267,.T.);
#1267 = LINE('',#1268,#1269);
#1268 = CARTESIAN_POINT('',(4.32568421935,1.2,1.1));
#1269 = VECTOR('',#1270,1.);
#1270 = DIRECTION('',(-0.,1.,-1.224646799147E-16));
#1271 = ORIENTED_EDGE('',*,*,#1222,.T.);
#1272 = ORIENTED_EDGE('',*,*,#977,.F.);
#1273 = ORIENTED_EDGE('',*,*,#993,.F.);
#1274 = PLANE('',#1275);
#1275 = AXIS2_PLACEMENT_3D('',#1276,#1277,#1278);
#1276 = CARTESIAN_POINT('',(4.32568421935,1.2,1.1));
#1277 = DIRECTION('',(5.304724652093E-16,1.224646799147E-16,1.));
#1278 = DIRECTION('',(-1.,6.496414065543E-32,5.304724652093E-16));
#1279 = ADVANCED_FACE('',(#1280),#1306,.T.);
#1280 = FACE_BOUND('',#1281,.F.);
#1281 = EDGE_LOOP('',(#1282,#1290,#1298,#1304,#1305));
#1282 = ORIENTED_EDGE('',*,*,#1283,.F.);
#1283 = EDGE_CURVE('',#1284,#1004,#1286,.T.);
#1284 = VERTEX_POINT('',#1285);
#1285 = CARTESIAN_POINT('',(2.4513684387,1.2,6.9));
#1286 = LINE('',#1287,#1288);
#1287 = CARTESIAN_POINT('',(2.4513684387,1.2,6.9));
#1288 = VECTOR('',#1289,1.);
#1289 = DIRECTION('',(1.,0.,0.));
#1290 = ORIENTED_EDGE('',*,*,#1291,.T.);
#1291 = EDGE_CURVE('',#1284,#1292,#1294,.T.);
#1292 = VERTEX_POINT('',#1293);
#1293 = CARTESIAN_POINT('',(2.4513684387,1.2,1.1));
#1294 = LINE('',#1295,#1296);
#1295 = CARTESIAN_POINT('',(2.4513684387,1.2,6.9));
#1296 = VECTOR('',#1297,1.);
#1297 = DIRECTION('',(0.,-1.224646799147E-16,-1.));
#1298 = ORIENTED_EDGE('',*,*,#1299,.T.);
#1299 = EDGE_CURVE('',#1292,#994,#1300,.T.);
#1300 = LINE('',#1301,#1302);
#1301 = CARTESIAN_POINT('',(2.4513684387,1.2,1.1));
#1302 = VECTOR('',#1303,1.);
#1303 = DIRECTION('',(1.,0.,0.));
#1304 = ORIENTED_EDGE('',*,*,#1019,.F.);
#1305 = ORIENTED_EDGE('',*,*,#1011,.F.);
#1306 = PLANE('',#1307);
#1307 = AXIS2_PLACEMENT_3D('',#1308,#1309,#1310);
#1308 = CARTESIAN_POINT('',(2.4513684387,1.2,6.9));
#1309 = DIRECTION('',(-0.,1.,-1.224646799147E-16));
#1310 = DIRECTION('',(0.,1.224646799147E-16,1.));
#1311 = ADVANCED_FACE('',(#1312),#1338,.F.);
#1312 = FACE_BOUND('',#1313,.T.);
#1313 = EDGE_LOOP('',(#1314,#1322,#1330,#1336,#1337));
#1314 = ORIENTED_EDGE('',*,*,#1315,.F.);
#1315 = EDGE_CURVE('',#1316,#1087,#1318,.T.);
#1316 = VERTEX_POINT('',#1317);
#1317 = CARTESIAN_POINT('',(2.4513684387,53.8,6.9));
#1318 = LINE('',#1319,#1320);
#1319 = CARTESIAN_POINT('',(2.4513684387,53.8,6.9));
#1320 = VECTOR('',#1321,1.);
#1321 = DIRECTION('',(1.,0.,0.));
#1322 = ORIENTED_EDGE('',*,*,#1323,.T.);
#1323 = EDGE_CURVE('',#1316,#1324,#1326,.T.);
#1324 = VERTEX_POINT('',#1325);
#1325 = CARTESIAN_POINT('',(2.4513684387,53.8,1.1));
#1326 = LINE('',#1327,#1328);
#1327 = CARTESIAN_POINT('',(2.4513684387,53.8,6.9));
#1328 = VECTOR('',#1329,1.);
#1329 = DIRECTION('',(0.,-1.224646799147E-16,-1.));
#1330 = ORIENTED_EDGE('',*,*,#1331,.T.);
#1331 = EDGE_CURVE('',#1324,#1071,#1332,.T.);
#1332 = LINE('',#1333,#1334);
#1333 = CARTESIAN_POINT('',(2.4513684387,53.8,1.1));
#1334 = VECTOR('',#1335,1.);
#1335 = DIRECTION('',(1.,0.,0.));
#1336 = ORIENTED_EDGE('',*,*,#1078,.T.);
#1337 = ORIENTED_EDGE('',*,*,#1086,.T.);
#1338 = PLANE('',#1339);
#1339 = AXIS2_PLACEMENT_3D('',#1340,#1341,#1342);
#1340 = CARTESIAN_POINT('',(2.4513684387,53.8,6.9));
#1341 = DIRECTION('',(-0.,1.,-1.224646799147E-16));
#1342 = DIRECTION('',(0.,1.224646799147E-16,1.));
#1343 = ADVANCED_FACE('',(#1344),#1362,.T.);
#1344 = FACE_BOUND('',#1345,.F.);
#1345 = EDGE_LOOP('',(#1346,#1347,#1355,#1361));
#1346 = ORIENTED_EDGE('',*,*,#1315,.F.);
#1347 = ORIENTED_EDGE('',*,*,#1348,.F.);
#1348 = EDGE_CURVE('',#1349,#1316,#1351,.T.);
#1349 = VERTEX_POINT('',#1350);
#1350 = CARTESIAN_POINT('',(2.4513684387,51.2,6.9));
#1351 = LINE('',#1352,#1353);
#1352 = CARTESIAN_POINT('',(2.4513684387,51.2,6.9));
#1353 = VECTOR('',#1354,1.);
#1354 = DIRECTION('',(-0.,1.,-1.224646799147E-16));
#1355 = ORIENTED_EDGE('',*,*,#1356,.T.);
#1356 = EDGE_CURVE('',#1349,#1114,#1357,.T.);
#1357 = LINE('',#1358,#1359);
#1358 = CARTESIAN_POINT('',(2.4513684387,51.2,6.9));
#1359 = VECTOR('',#1360,1.);
#1360 = DIRECTION('',(1.,0.,0.));
#1361 = ORIENTED_EDGE('',*,*,#1113,.F.);
#1362 = PLANE('',#1363);
#1363 = AXIS2_PLACEMENT_3D('',#1364,#1365,#1366);
#1364 = CARTESIAN_POINT('',(2.4513684387,51.2,6.9));
#1365 = DIRECTION('',(0.,-1.224646799147E-16,-1.));
#1366 = DIRECTION('',(-1.,-0.,0.));
#1367 = ADVANCED_FACE('',(#1368),#1386,.F.);
#1368 = FACE_BOUND('',#1369,.T.);
#1369 = EDGE_LOOP('',(#1370,#1371,#1379,#1385));
#1370 = ORIENTED_EDGE('',*,*,#1331,.F.);
#1371 = ORIENTED_EDGE('',*,*,#1372,.F.);
#1372 = EDGE_CURVE('',#1373,#1324,#1375,.T.);
#1373 = VERTEX_POINT('',#1374);
#1374 = CARTESIAN_POINT('',(2.4513684387,51.2,1.1));
#1375 = LINE('',#1376,#1377);
#1376 = CARTESIAN_POINT('',(2.4513684387,51.2,1.1));
#1377 = VECTOR('',#1378,1.);
#1378 = DIRECTION('',(-0.,1.,-1.224646799147E-16));
#1379 = ORIENTED_EDGE('',*,*,#1380,.T.);
#1380 = EDGE_CURVE('',#1373,#1139,#1381,.T.);
#1381 = LINE('',#1382,#1383);
#1382 = CARTESIAN_POINT('',(2.4513684387,51.2,1.1));
#1383 = VECTOR('',#1384,1.);
#1384 = DIRECTION('',(1.,0.,0.));
#1385 = ORIENTED_EDGE('',*,*,#1146,.F.);
#1386 = PLANE('',#1387);
#1387 = AXIS2_PLACEMENT_3D('',#1388,#1389,#1390);
#1388 = CARTESIAN_POINT('',(2.4513684387,51.2,1.1));
#1389 = DIRECTION('',(0.,-1.224646799147E-16,-1.));
#1390 = DIRECTION('',(-1.,-0.,0.));
#1391 = ADVANCED_FACE('',(#1392),#1404,.T.);
#1392 = FACE_BOUND('',#1393,.F.);
#1393 = EDGE_LOOP('',(#1394,#1395,#1401,#1402,#1403));
#1394 = ORIENTED_EDGE('',*,*,#1356,.F.);
#1395 = ORIENTED_EDGE('',*,*,#1396,.T.);
#1396 = EDGE_CURVE('',#1349,#1373,#1397,.T.);
#1397 = LINE('',#1398,#1399);
#1398 = CARTESIAN_POINT('',(2.4513684387,51.2,6.9));
#1399 = VECTOR('',#1400,1.);
#1400 = DIRECTION('',(0.,-1.224646799147E-16,-1.));
#1401 = ORIENTED_EDGE('',*,*,#1380,.T.);
#1402 = ORIENTED_EDGE('',*,*,#1162,.T.);
#1403 = ORIENTED_EDGE('',*,*,#1170,.T.);
#1404 = PLANE('',#1405);
#1405 = AXIS2_PLACEMENT_3D('',#1406,#1407,#1408);
#1406 = CARTESIAN_POINT('',(2.4513684387,51.2,6.9));
#1407 = DIRECTION('',(-0.,1.,-1.224646799147E-16));
#1408 = DIRECTION('',(0.,1.224646799147E-16,1.));
#1409 = ADVANCED_FACE('',(#1410),#1429,.F.);
#1410 = FACE_BOUND('',#1411,.T.);
#1411 = EDGE_LOOP('',(#1412,#1413,#1421,#1428));
#1412 = ORIENTED_EDGE('',*,*,#1181,.F.);
#1413 = ORIENTED_EDGE('',*,*,#1414,.F.);
#1414 = EDGE_CURVE('',#1415,#1182,#1417,.T.);
#1415 = VERTEX_POINT('',#1416);
#1416 = CARTESIAN_POINT('',(6.,49.6,2.25));
#1417 = LINE('',#1418,#1419);
#1418 = CARTESIAN_POINT('',(6.,49.6,2.25));
#1419 = VECTOR('',#1420,1.);
#1420 = DIRECTION('',(-0.,1.,-1.224646799147E-16));
#1421 = ORIENTED_EDGE('',*,*,#1422,.T.);
#1422 = EDGE_CURVE('',#1415,#1415,#1423,.T.);
#1423 = CIRCLE('',#1424,1.75);
#1424 = AXIS2_PLACEMENT_3D('',#1425,#1426,#1427);
#1425 = CARTESIAN_POINT('',(6.,49.6,4.));
#1426 = DIRECTION('',(0.,-1.,1.224646799147E-16));
#1427 = DIRECTION('',(0.,-1.224646799147E-16,-1.));
#1428 = ORIENTED_EDGE('',*,*,#1414,.T.);
#1429 = CYLINDRICAL_SURFACE('',#1430,1.75);
#1430 = AXIS2_PLACEMENT_3D('',#1431,#1432,#1433);
#1431 = CARTESIAN_POINT('',(6.,49.6,4.));
#1432 = DIRECTION('',(-0.,1.,-1.224646799147E-16));
#1433 = DIRECTION('',(0.,-1.224646799147E-16,-1.));
#1434 = ADVANCED_FACE('',(#1435),#1453,.T.);
#1435 = FACE_BOUND('',#1436,.F.);
#1436 = EDGE_LOOP('',(#1437,#1445,#1451,#1452));
#1437 = ORIENTED_EDGE('',*,*,#1438,.F.);
#1438 = EDGE_CURVE('',#1439,#1200,#1441,.T.);
#1439 = VERTEX_POINT('',#1440);
#1440 = CARTESIAN_POINT('',(2.4513684387,3.8,6.9));
#1441 = LINE('',#1442,#1443);
#1442 = CARTESIAN_POINT('',(2.4513684387,3.8,6.9));
#1443 = VECTOR('',#1444,1.);
#1444 = DIRECTION('',(1.,0.,0.));
#1445 = ORIENTED_EDGE('',*,*,#1446,.F.);
#1446 = EDGE_CURVE('',#1284,#1439,#1447,.T.);
#1447 = LINE('',#1448,#1449);
#1448 = CARTESIAN_POINT('',(2.4513684387,1.2,6.9));
#1449 = VECTOR('',#1450,1.);
#1450 = DIRECTION('',(-0.,1.,-1.224646799147E-16));
#1451 = ORIENTED_EDGE('',*,*,#1283,.T.);
#1452 = ORIENTED_EDGE('',*,*,#1207,.T.);
#1453 = PLANE('',#1454);
#1454 = AXIS2_PLACEMENT_3D('',#1455,#1456,#1457);
#1455 = CARTESIAN_POINT('',(2.4513684387,1.2,6.9));
#1456 = DIRECTION('',(0.,-1.224646799147E-16,-1.));
#1457 = DIRECTION('',(-1.,-0.,0.));
#1458 = ADVANCED_FACE('',(#1459),#1478,.F.);
#1459 = FACE_BOUND('',#1460,.T.);
#1460 = EDGE_LOOP('',(#1461,#1462,#1470,#1476,#1477));
#1461 = ORIENTED_EDGE('',*,*,#1438,.F.);
#1462 = ORIENTED_EDGE('',*,*,#1463,.T.);
#1463 = EDGE_CURVE('',#1439,#1464,#1466,.T.);
#1464 = VERTEX_POINT('',#1465);
#1465 = CARTESIAN_POINT('',(2.4513684387,3.8,1.1));
#1466 = LINE('',#1467,#1468);
#1467 = CARTESIAN_POINT('',(2.4513684387,3.8,6.9));
#1468 = VECTOR('',#1469,1.);
#1469 = DIRECTION('',(0.,-1.224646799147E-16,-1.));
#1470 = ORIENTED_EDGE('',*,*,#1471,.T.);
#1471 = EDGE_CURVE('',#1464,#1223,#1472,.T.);
#1472 = LINE('',#1473,#1474);
#1473 = CARTESIAN_POINT('',(2.4513684387,3.8,1.1));
#1474 = VECTOR('',#1475,1.);
#1475 = DIRECTION('',(1.,0.,0.));
#1476 = ORIENTED_EDGE('',*,*,#1241,.F.);
#1477 = ORIENTED_EDGE('',*,*,#1233,.F.);
#1478 = PLANE('',#1479);
#1479 = AXIS2_PLACEMENT_3D('',#1480,#1481,#1482);
#1480 = CARTESIAN_POINT('',(2.4513684387,3.8,6.9));
#1481 = DIRECTION('',(-0.,1.,-1.224646799147E-16));
#1482 = DIRECTION('',(0.,1.224646799147E-16,1.));
#1483 = ADVANCED_FACE('',(#1484),#1503,.F.);
#1484 = FACE_BOUND('',#1485,.T.);
#1485 = EDGE_LOOP('',(#1486,#1494,#1501,#1502));
#1486 = ORIENTED_EDGE('',*,*,#1487,.T.);
#1487 = EDGE_CURVE('',#1250,#1488,#1490,.T.);
#1488 = VERTEX_POINT('',#1489);
#1489 = CARTESIAN_POINT('',(6.,5.8,2.25));
#1490 = LINE('',#1491,#1492);
#1491 = CARTESIAN_POINT('',(6.,-0.4,2.25));
#1492 = VECTOR('',#1493,1.);
#1493 = DIRECTION('',(-0.,1.,-1.224646799147E-16));
#1494 = ORIENTED_EDGE('',*,*,#1495,.F.);
#1495 = EDGE_CURVE('',#1488,#1488,#1496,.T.);
#1496 = CIRCLE('',#1497,1.75);
#1497 = AXIS2_PLACEMENT_3D('',#1498,#1499,#1500);
#1498 = CARTESIAN_POINT('',(6.,5.8,4.));
#1499 = DIRECTION('',(0.,-1.,1.224646799147E-16));
#1500 = DIRECTION('',(0.,-1.224646799147E-16,-1.));
#1501 = ORIENTED_EDGE('',*,*,#1487,.F.);
#1502 = ORIENTED_EDGE('',*,*,#1249,.T.);
#1503 = CYLINDRICAL_SURFACE('',#1504,1.75);
#1504 = AXIS2_PLACEMENT_3D('',#1505,#1506,#1507);
#1505 = CARTESIAN_POINT('',(6.,-0.4,4.));
#1506 = DIRECTION('',(-0.,1.,-1.224646799147E-16));
#1507 = DIRECTION('',(0.,-1.224646799147E-16,-1.));
#1508 = ADVANCED_FACE('',(#1509),#1520,.F.);
#1509 = FACE_BOUND('',#1510,.T.);
#1510 = EDGE_LOOP('',(#1511,#1512,#1518,#1519));
#1511 = ORIENTED_EDGE('',*,*,#1471,.F.);
#1512 = ORIENTED_EDGE('',*,*,#1513,.F.);
#1513 = EDGE_CURVE('',#1292,#1464,#1514,.T.);
#1514 = LINE('',#1515,#1516);
#1515 = CARTESIAN_POINT('',(2.4513684387,1.2,1.1));
#1516 = VECTOR('',#1517,1.);
#1517 = DIRECTION('',(-0.,1.,-1.224646799147E-16));
#1518 = ORIENTED_EDGE('',*,*,#1299,.T.);
#1519 = ORIENTED_EDGE('',*,*,#1266,.T.);
#1520 = PLANE('',#1521);
#1521 = AXIS2_PLACEMENT_3D('',#1522,#1523,#1524);
#1522 = CARTESIAN_POINT('',(2.4513684387,1.2,1.1));
#1523 = DIRECTION('',(0.,-1.224646799147E-16,-1.));
#1524 = DIRECTION('',(-1.,-0.,0.));
#1525 = ADVANCED_FACE('',(#1526),#1532,.T.);
#1526 = FACE_BOUND('',#1527,.F.);
#1527 = EDGE_LOOP('',(#1528,#1529,#1530,#1531));
#1528 = ORIENTED_EDGE('',*,*,#1291,.F.);
#1529 = ORIENTED_EDGE('',*,*,#1446,.T.);
#1530 = ORIENTED_EDGE('',*,*,#1463,.T.);
#1531 = ORIENTED_EDGE('',*,*,#1513,.F.);
#1532 = PLANE('',#1533);
#1533 = AXIS2_PLACEMENT_3D('',#1534,#1535,#1536);
#1534 = CARTESIAN_POINT('',(2.4513684387,1.2,6.9));
#1535 = DIRECTION('',(1.,0.,0.));
#1536 = DIRECTION('',(0.,1.224646799147E-16,1.));
#1537 = ADVANCED_FACE('',(#1538),#1544,.T.);
#1538 = FACE_BOUND('',#1539,.F.);
#1539 = EDGE_LOOP('',(#1540,#1541,#1542,#1543));
#1540 = ORIENTED_EDGE('',*,*,#1396,.F.);
#1541 = ORIENTED_EDGE('',*,*,#1348,.T.);
#1542 = ORIENTED_EDGE('',*,*,#1323,.T.);
#1543 = ORIENTED_EDGE('',*,*,#1372,.F.);
#1544 = PLANE('',#1545);
#1545 = AXIS2_PLACEMENT_3D('',#1546,#1547,#1548);
#1546 = CARTESIAN_POINT('',(2.4513684387,51.2,6.9));
#1547 = DIRECTION('',(1.,0.,0.));
#1548 = DIRECTION('',(0.,1.224646799147E-16,1.));
#1549 = ADVANCED_FACE('',(#1550),#1553,.T.);
#1550 = FACE_BOUND('',#1551,.T.);
#1551 = EDGE_LOOP('',(#1552));
#1552 = ORIENTED_EDGE('',*,*,#1422,.F.);
#1553 = PLANE('',#1554);
#1554 = AXIS2_PLACEMENT_3D('',#1555,#1556,#1557);
#1555 = CARTESIAN_POINT('',(6.,49.6,4.));
#1556 = DIRECTION('',(-0.,1.,-1.224646799147E-16));
#1557 = DIRECTION('',(0.,1.224646799147E-16,1.));
#1558 = ADVANCED_FACE('',(#1559),#1562,.F.);
#1559 = FACE_BOUND('',#1560,.T.);
#1560 = EDGE_LOOP('',(#1561));
#1561 = ORIENTED_EDGE('',*,*,#1495,.T.);
#1562 = PLANE('',#1563);
#1563 = AXIS2_PLACEMENT_3D('',#1564,#1565,#1566);
#1564 = CARTESIAN_POINT('',(6.,5.8,4.));
#1565 = DIRECTION('',(-0.,1.,-1.224646799147E-16));
#1566 = DIRECTION('',(0.,1.224646799147E-16,1.));
#1567 = ( GEOMETRIC_REPRESENTATION_CONTEXT(3) 
GLOBAL_UNCERTAINTY_ASSIGNED_CONTEXT((#1571)) 
GLOBAL_UNIT_ASSIGNED_CONTEXT((#1568,#1569,#1570)) REPRESENTATION_CONTEXT
('Context #1','3D Context with UNIT and UNCERTAINTY') );
#1568 = ( LENGTH_UNIT() NAMED_UNIT(*) SI_UNIT(.MILLI.,.METRE.) );
#1569 = ( NAMED_UNIT(*) PLANE_ANGLE_UNIT() SI_UNIT($,.RADIAN.) );
#1570 = ( NAMED_UNIT(*) SI_UNIT($,.STERADIAN.) SOLID_ANGLE_UNIT() );
#1571 = UNCERTAINTY_MEASURE_WITH_UNIT(LENGTH_MEASURE(1.E-07),#1568,
  'distance_accuracy_value','confusion accuracy');
#1572 = PRODUCT_RELATED_PRODUCT_CATEGORY('part',$,(#7));
ENDSEC;
END-ISO-10303-21;
